ISO-10303-21;
HEADER;
FILE_DESCRIPTION(('FreeCAD Model'),'2;1');
FILE_NAME('Open CASCADE Shape Model','2026-07-29T08:10:00',('FreeCAD'),(
    'FreeCAD'),'Open CASCADE STEP processor 7.8','FreeCAD','Unknown');
FILE_SCHEMA(('AUTOMOTIVE_DESIGN { 1 0 10303 214 1 1 1 1 }'));
ENDSEC;
DATA;
#1 = APPLICATION_PROTOCOL_DEFINITION('international standard',
  'automotive_design',2000,#2);
#2 = APPLICATION_CONTEXT(
  'core data for automotive mechanical design processes');
#3 = SHAPE_DEFINITION_REPRESENTATION(#4,#10);
#4 = PRODUCT_DEFINITION_SHAPE('','',#5);
#5 = PRODUCT_DEFINITION('design','',#6,#9);
#6 = PRODUCT_DEFINITION_FORMATION('','',#7);
#7 = PRODUCT('Open CASCADE STEP translator 7.8 14',
  'Open CASCADE STEP translator 7.8 14','',(#8));
#8 = PRODUCT_CONTEXT('',#2,'mechanical');
#9 = PRODUCT_DEFINITION_CONTEXT('part definition',#2,'design');
#10 = ADVANCED_BREP_SHAPE_REPRESENTATION('',(#11,#15),#216);
#11 = AXIS2_PLACEMENT_3D('',#12,#13,#14);
#12 = CARTESIAN_POINT('',(0.,0.,0.));
#13 = DIRECTION('',(0.,0.,1.));
#14 = DIRECTION('',(1.,0.,-0.));
#15 = MANIFOLD_SOLID_BREP('',#16);
#16 = CLOSED_SHELL('',(#17,#60,#83,#106,#129,#154,#170,#186,#202));
#17 = ADVANCED_FACE('',(#18,#44),#55,.T.);
#18 = FACE_BOUND('',#19,.T.);
#19 = EDGE_LOOP('',(#20,#30,#38));
#20 = ORIENTED_EDGE('',*,*,#21,.T.);
#21 = EDGE_CURVE('',#22,#24,#26,.T.);
#22 = VERTEX_POINT('',#23);
#23 = CARTESIAN_POINT('',(3.798964771268,6.58,-5.372547502504));
#24 = VERTEX_POINT('',#25);
#25 = CARTESIAN_POINT('',(3.798964771268,-6.58,-5.372547502504));
#26 = LINE('',#27,#28);
#27 = CARTESIAN_POINT('',(3.798964771268,6.58,-5.372547502504));
#28 = VECTOR('',#29,1.);
#29 = DIRECTION('',(-4.3868994894E-16,-1.,0.));
#30 = ORIENTED_EDGE('',*,*,#31,.T.);
#31 = EDGE_CURVE('',#24,#32,#34,.T.);
#32 = VERTEX_POINT('',#33);
#33 = CARTESIAN_POINT('',(-7.597929542535,9.304780094413E-16,
    -5.372547502504));
#34 = LINE('',#35,#36);
#35 = CARTESIAN_POINT('',(3.798964771268,-6.58,-5.372547502504));
#36 = VECTOR('',#37,1.);
#37 = DIRECTION('',(-0.866025403784,0.5,0.));
#38 = ORIENTED_EDGE('',*,*,#39,.T.);
#39 = EDGE_CURVE('',#32,#22,#40,.T.);
#40 = LINE('',#41,#42);
#41 = CARTESIAN_POINT('',(-7.597929542535,9.304780094413E-16,
    -5.372547502504));
#42 = VECTOR('',#43,1.);
#43 = DIRECTION('',(0.866025403784,0.5,0.));
#44 = FACE_BOUND('',#45,.T.);
#45 = EDGE_LOOP('',(#46));
#46 = ORIENTED_EDGE('',*,*,#47,.T.);
#47 = EDGE_CURVE('',#48,#48,#50,.T.);
#48 = VERTEX_POINT('',#49);
#49 = CARTESIAN_POINT('',(2.6,-6.368163355566E-16,-5.372547502504));
#50 = CIRCLE('',#51,2.6);
#51 = AXIS2_PLACEMENT_3D('',#52,#53,#54);
#52 = CARTESIAN_POINT('',(0.,0.,-5.372547502504));
#53 = DIRECTION('',(0.,0.,1.));
#54 = DIRECTION('',(1.,0.,-0.));
#55 = PLANE('',#56);
#56 = AXIS2_PLACEMENT_3D('',#57,#58,#59);
#57 = CARTESIAN_POINT('',(-1.259827545674E-15,-8.998768183385E-16,
    -5.372547502504));
#58 = DIRECTION('',(-0.,-0.,-1.));
#59 = DIRECTION('',(-1.,0.,0.));
#60 = ADVANCED_FACE('',(#61),#78,.T.);
#61 = FACE_BOUND('',#62,.T.);
#62 = EDGE_LOOP('',(#63,#64,#72));
#63 = ORIENTED_EDGE('',*,*,#21,.F.);
#64 = ORIENTED_EDGE('',*,*,#65,.T.);
#65 = EDGE_CURVE('',#22,#66,#68,.T.);
#66 = VERTEX_POINT('',#67);
#67 = CARTESIAN_POINT('',(7.597929542535,0.,5.372547502504));
#68 = LINE('',#69,#70);
#69 = CARTESIAN_POINT('',(3.798964771268,6.58,-5.372547502504));
#70 = VECTOR('',#71,1.);
#71 = DIRECTION('',(0.288675134595,-0.5,0.816496580928));
#72 = ORIENTED_EDGE('',*,*,#73,.T.);
#73 = EDGE_CURVE('',#66,#24,#74,.T.);
#74 = LINE('',#75,#76);
#75 = CARTESIAN_POINT('',(7.597929542535,0.,5.372547502504));
#76 = VECTOR('',#77,1.);
#77 = DIRECTION('',(-0.288675134595,-0.5,-0.816496580928));
#78 = PLANE('',#79);
#79 = AXIS2_PLACEMENT_3D('',#80,#81,#82);
#80 = CARTESIAN_POINT('',(5.06528636169,-1.619778273009E-15,
    -1.790849167501));
#81 = DIRECTION('',(0.942809041582,-3.81616217206E-16,-0.333333333333));
#82 = DIRECTION('',(0.333333333333,4.261308139337E-33,0.942809041582));
#83 = ADVANCED_FACE('',(#84),#101,.T.);
#84 = FACE_BOUND('',#85,.T.);
#85 = EDGE_LOOP('',(#86,#87,#95));
#86 = ORIENTED_EDGE('',*,*,#39,.F.);
#87 = ORIENTED_EDGE('',*,*,#88,.T.);
#88 = EDGE_CURVE('',#32,#89,#91,.T.);
#89 = VERTEX_POINT('',#90);
#90 = CARTESIAN_POINT('',(-3.798964771268,6.58,5.372547502504));
#91 = LINE('',#92,#93);
#92 = CARTESIAN_POINT('',(-7.597929542535,9.304780094413E-16,
    -5.372547502504));
#93 = VECTOR('',#94,1.);
#94 = DIRECTION('',(0.288675134595,0.5,0.816496580928));
#95 = ORIENTED_EDGE('',*,*,#96,.T.);
#96 = EDGE_CURVE('',#89,#22,#97,.T.);
#97 = LINE('',#98,#99);
#98 = CARTESIAN_POINT('',(-3.798964771268,6.58,5.372547502504));
#99 = VECTOR('',#100,1.);
#100 = DIRECTION('',(0.57735026919,-6.749076137539E-17,-0.816496580928)
  );
#101 = PLANE('',#102);
#102 = AXIS2_PLACEMENT_3D('',#103,#104,#105);
#103 = CARTESIAN_POINT('',(-2.532643180845,4.386666666667,
    -1.790849167501));
#104 = DIRECTION('',(-0.471404520791,0.816496580928,-0.333333333333));
#105 = DIRECTION('',(0.866025403784,0.5,1.543418778987E-17));
#106 = ADVANCED_FACE('',(#107),#124,.T.);
#107 = FACE_BOUND('',#108,.T.);
#108 = EDGE_LOOP('',(#109,#110,#118));
#109 = ORIENTED_EDGE('',*,*,#31,.F.);
#110 = ORIENTED_EDGE('',*,*,#111,.T.);
#111 = EDGE_CURVE('',#24,#112,#114,.T.);
#112 = VERTEX_POINT('',#113);
#113 = CARTESIAN_POINT('',(-3.798964771268,-6.58,5.372547502504));
#114 = LINE('',#115,#116);
#115 = CARTESIAN_POINT('',(3.798964771268,-6.58,-5.372547502504));
#116 = VECTOR('',#117,1.);
#117 = DIRECTION('',(-0.57735026919,4.049445682523E-16,0.816496580928));
#118 = ORIENTED_EDGE('',*,*,#119,.T.);
#119 = EDGE_CURVE('',#112,#32,#120,.T.);
#120 = LINE('',#121,#122);
#121 = CARTESIAN_POINT('',(-3.798964771268,-6.58,5.372547502504));
#122 = VECTOR('',#123,1.);
#123 = DIRECTION('',(-0.288675134595,0.5,-0.816496580928));
#124 = PLANE('',#125);
#125 = AXIS2_PLACEMENT_3D('',#126,#127,#128);
#126 = CARTESIAN_POINT('',(-2.532643180845,-4.386666666667,
    -1.790849167501));
#127 = DIRECTION('',(-0.471404520791,-0.816496580928,-0.333333333333));
#128 = DIRECTION('',(-0.866025403784,0.5,1.397166451845E-17));
#129 = ADVANCED_FACE('',(#130),#149,.F.);
#130 = FACE_BOUND('',#131,.F.);
#131 = EDGE_LOOP('',(#132,#141,#147,#148));
#132 = ORIENTED_EDGE('',*,*,#133,.F.);
#133 = EDGE_CURVE('',#134,#134,#136,.T.);
#134 = VERTEX_POINT('',#135);
#135 = CARTESIAN_POINT('',(2.6,-6.368163355566E-16,5.372547502504));
#136 = CIRCLE('',#137,2.6);
#137 = AXIS2_PLACEMENT_3D('',#138,#139,#140);
#138 = CARTESIAN_POINT('',(0.,0.,5.372547502504));
#139 = DIRECTION('',(0.,0.,1.));
#140 = DIRECTION('',(1.,0.,-0.));
#141 = ORIENTED_EDGE('',*,*,#142,.F.);
#142 = EDGE_CURVE('',#48,#134,#143,.T.);
#143 = LINE('',#144,#145);
#144 = CARTESIAN_POINT('',(2.6,-6.368163355566E-16,-5.972547502504));
#145 = VECTOR('',#146,1.);
#146 = DIRECTION('',(0.,0.,1.));
#147 = ORIENTED_EDGE('',*,*,#47,.T.);
#148 = ORIENTED_EDGE('',*,*,#142,.T.);
#149 = CYLINDRICAL_SURFACE('',#150,2.6);
#150 = AXIS2_PLACEMENT_3D('',#151,#152,#153);
#151 = CARTESIAN_POINT('',(0.,0.,-5.972547502504));
#152 = DIRECTION('',(0.,0.,1.));
#153 = DIRECTION('',(1.,0.,-0.));
#154 = ADVANCED_FACE('',(#155),#165,.F.);
#155 = FACE_BOUND('',#156,.F.);
#156 = EDGE_LOOP('',(#157,#163,#164));
#157 = ORIENTED_EDGE('',*,*,#158,.T.);
#158 = EDGE_CURVE('',#66,#89,#159,.T.);
#159 = LINE('',#160,#161);
#160 = CARTESIAN_POINT('',(7.597929542535,0.,5.372547502504));
#161 = VECTOR('',#162,1.);
#162 = DIRECTION('',(-0.866025403784,0.5,0.));
#163 = ORIENTED_EDGE('',*,*,#96,.T.);
#164 = ORIENTED_EDGE('',*,*,#65,.T.);
#165 = PLANE('',#166);
#166 = AXIS2_PLACEMENT_3D('',#167,#168,#169);
#167 = CARTESIAN_POINT('',(2.532643180845,4.386666666667,1.790849167501)
  );
#168 = DIRECTION('',(-0.471404520791,-0.816496580928,-0.333333333333));
#169 = DIRECTION('',(-0.866025403784,0.5,4.884303754091E-18));
#170 = ADVANCED_FACE('',(#171),#181,.F.);
#171 = FACE_BOUND('',#172,.F.);
#172 = EDGE_LOOP('',(#173,#179,#180));
#173 = ORIENTED_EDGE('',*,*,#174,.T.);
#174 = EDGE_CURVE('',#112,#66,#175,.T.);
#175 = LINE('',#176,#177);
#176 = CARTESIAN_POINT('',(-3.798964771268,-6.58,5.372547502504));
#177 = VECTOR('',#178,1.);
#178 = DIRECTION('',(0.866025403784,0.5,0.));
#179 = ORIENTED_EDGE('',*,*,#73,.T.);
#180 = ORIENTED_EDGE('',*,*,#111,.T.);
#181 = PLANE('',#182);
#182 = AXIS2_PLACEMENT_3D('',#183,#184,#185);
#183 = CARTESIAN_POINT('',(2.532643180845,-4.386666666667,1.790849167501
    ));
#184 = DIRECTION('',(-0.471404520791,0.816496580928,-0.333333333333));
#185 = DIRECTION('',(0.866025403784,0.5,-3.102105703793E-17));
#186 = ADVANCED_FACE('',(#187),#197,.F.);
#187 = FACE_BOUND('',#188,.F.);
#188 = EDGE_LOOP('',(#189,#195,#196));
#189 = ORIENTED_EDGE('',*,*,#190,.T.);
#190 = EDGE_CURVE('',#89,#112,#191,.T.);
#191 = LINE('',#192,#193);
#192 = CARTESIAN_POINT('',(-3.798964771268,6.58,5.372547502504));
#193 = VECTOR('',#194,1.);
#194 = DIRECTION('',(-3.711991875646E-16,-1.,0.));
#195 = ORIENTED_EDGE('',*,*,#119,.T.);
#196 = ORIENTED_EDGE('',*,*,#88,.T.);
#197 = PLANE('',#198);
#198 = AXIS2_PLACEMENT_3D('',#199,#200,#201);
#199 = CARTESIAN_POINT('',(-5.06528636169,1.619778273009E-15,
    1.790849167501));
#200 = DIRECTION('',(0.942809041582,-3.543789729654E-16,-0.333333333333)
  );
#201 = DIRECTION('',(0.333333333333,4.069985459458E-33,0.942809041582));
#202 = ADVANCED_FACE('',(#203,#208),#211,.T.);
#203 = FACE_BOUND('',#204,.T.);
#204 = EDGE_LOOP('',(#205,#206,#207));
#205 = ORIENTED_EDGE('',*,*,#158,.T.);
#206 = ORIENTED_EDGE('',*,*,#190,.T.);
#207 = ORIENTED_EDGE('',*,*,#174,.T.);
#208 = FACE_BOUND('',#209,.T.);
#209 = EDGE_LOOP('',(#210));
#210 = ORIENTED_EDGE('',*,*,#133,.F.);
#211 = PLANE('',#212);
#212 = AXIS2_PLACEMENT_3D('',#213,#214,#215);
#213 = CARTESIAN_POINT('',(-3.599507273354E-16,7.351937363525E-16,
    5.372547502504));
#214 = DIRECTION('',(0.,0.,1.));
#215 = DIRECTION('',(1.,0.,-0.));
#216 = ( GEOMETRIC_REPRESENTATION_CONTEXT(3) 
GLOBAL_UNCERTAINTY_ASSIGNED_CONTEXT((#220)) GLOBAL_UNIT_ASSIGNED_CONTEXT
((#217,#218,#219)) REPRESENTATION_CONTEXT('Context #1',
  '3D Context with UNIT and UNCERTAINTY') );
#217 = ( LENGTH_UNIT() NAMED_UNIT(*) SI_UNIT(.MILLI.,.METRE.) );
#218 = ( NAMED_UNIT(*) PLANE_ANGLE_UNIT() SI_UNIT($,.RADIAN.) );
#219 = ( NAMED_UNIT(*) SI_UNIT($,.STERADIAN.) SOLID_ANGLE_UNIT() );
#220 = UNCERTAINTY_MEASURE_WITH_UNIT(LENGTH_MEASURE(1.E-07),#217,
  'distance_accuracy_value','confusion accuracy');
#221 = PRODUCT_RELATED_PRODUCT_CATEGORY('part',$,(#7));
ENDSEC;
END-ISO-10303-21;
