ISO-10303-21;
HEADER;
FILE_DESCRIPTION(('FreeCAD Model'),'2;1');
FILE_NAME('Open CASCADE Shape Model','2026-07-29T08:46:34',('FreeCAD'),(
    'FreeCAD'),'Open CASCADE STEP processor 7.8','FreeCAD','Unknown');
FILE_SCHEMA(('AUTOMOTIVE_DESIGN { 1 0 10303 214 1 1 1 1 }'));
ENDSEC;
DATA;
#1 = APPLICATION_PROTOCOL_DEFINITION('international standard',
  'automotive_design',2000,#2);
#2 = APPLICATION_CONTEXT(
  'core data for automotive mechanical design processes');
#3 = SHAPE_DEFINITION_REPRESENTATION(#4,#10);
#4 = PRODUCT_DEFINITION_SHAPE('','',#5);
#5 = PRODUCT_DEFINITION('design','',#6,#9);
#6 = PRODUCT_DEFINITION_FORMATION('','',#7);
#7 = PRODUCT('Open CASCADE STEP translator 7.8 12',
  'Open CASCADE STEP translator 7.8 12','',(#8));
#8 = PRODUCT_CONTEXT('',#2,'mechanical');
#9 = PRODUCT_DEFINITION_CONTEXT('part definition',#2,'design');
#10 = SHAPE_REPRESENTATION('',(#11,#15,#179),#343);
#11 = AXIS2_PLACEMENT_3D('',#12,#13,#14);
#12 = CARTESIAN_POINT('',(0.,0.,0.));
#13 = DIRECTION('',(0.,0.,1.));
#14 = DIRECTION('',(1.,0.,-0.));
#15 = MANIFOLD_SOLID_BREP('',#16);
#16 = CLOSED_SHELL('',(#17,#50,#59,#111,#127,#160,#170));
#17 = ADVANCED_FACE('',(#18),#45,.T.);
#18 = FACE_BOUND('',#19,.T.);
#19 = EDGE_LOOP('',(#20,#29,#37,#44));
#20 = ORIENTED_EDGE('',*,*,#21,.F.);
#21 = EDGE_CURVE('',#22,#22,#24,.T.);
#22 = VERTEX_POINT('',#23);
#23 = CARTESIAN_POINT('',(6.838136588282,3.918869757272E-17,
    5.257547502504));
#24 = CIRCLE('',#25,0.16);
#25 = AXIS2_PLACEMENT_3D('',#26,#27,#28);
#26 = CARTESIAN_POINT('',(6.838136588282,0.,5.097547502504));
#27 = DIRECTION('',(1.,0.,0.));
#28 = DIRECTION('',(-0.,0.,1.));
#29 = ORIENTED_EDGE('',*,*,#30,.F.);
#30 = EDGE_CURVE('',#31,#22,#33,.T.);
#31 = VERTEX_POINT('',#32);
#32 = CARTESIAN_POINT('',(2.6,3.918869757272E-17,5.257547502504));
#33 = LINE('',#34,#35);
#34 = CARTESIAN_POINT('',(2.6,3.918869757272E-17,5.257547502504));
#35 = VECTOR('',#36,1.);
#36 = DIRECTION('',(1.,0.,0.));
#37 = ORIENTED_EDGE('',*,*,#38,.T.);
#38 = EDGE_CURVE('',#31,#31,#39,.T.);
#39 = CIRCLE('',#40,0.16);
#40 = AXIS2_PLACEMENT_3D('',#41,#42,#43);
#41 = CARTESIAN_POINT('',(2.6,0.,5.097547502504));
#42 = DIRECTION('',(1.,0.,0.));
#43 = DIRECTION('',(-0.,0.,1.));
#44 = ORIENTED_EDGE('',*,*,#30,.T.);
#45 = CYLINDRICAL_SURFACE('',#46,0.16);
#46 = AXIS2_PLACEMENT_3D('',#47,#48,#49);
#47 = CARTESIAN_POINT('',(2.6,0.,5.097547502504));
#48 = DIRECTION('',(1.,0.,0.));
#49 = DIRECTION('',(-0.,0.,1.));
#50 = ADVANCED_FACE('',(#51),#54,.T.);
#51 = FACE_BOUND('',#52,.T.);
#52 = EDGE_LOOP('',(#53));
#53 = ORIENTED_EDGE('',*,*,#21,.T.);
#54 = PLANE('',#55);
#55 = AXIS2_PLACEMENT_3D('',#56,#57,#58);
#56 = CARTESIAN_POINT('',(6.838136588282,0.,5.097547502504));
#57 = DIRECTION('',(1.,0.,0.));
#58 = DIRECTION('',(-0.,0.,1.));
#59 = ADVANCED_FACE('',(#60),#106,.T.);
#60 = FACE_BOUND('',#61,.T.);
#61 = EDGE_LOOP('',(#62,#70,#71,#72,#81,#90,#99));
#62 = ORIENTED_EDGE('',*,*,#63,.T.);
#63 = EDGE_CURVE('',#64,#31,#66,.T.);
#64 = VERTEX_POINT('',#65);
#65 = CARTESIAN_POINT('',(0.2,3.918869757272E-17,5.257547502504));
#66 = LINE('',#67,#68);
#67 = CARTESIAN_POINT('',(0.2,3.918869757272E-17,5.257547502504));
#68 = VECTOR('',#69,1.);
#69 = DIRECTION('',(1.,0.,0.));
#70 = ORIENTED_EDGE('',*,*,#38,.F.);
#71 = ORIENTED_EDGE('',*,*,#63,.F.);
#72 = ORIENTED_EDGE('',*,*,#73,.T.);
#73 = EDGE_CURVE('',#64,#74,#76,.T.);
#74 = VERTEX_POINT('',#75);
#75 = CARTESIAN_POINT('',(0.2,-0.16,5.097547502504));
#76 = CIRCLE('',#77,0.16);
#77 = AXIS2_PLACEMENT_3D('',#78,#79,#80);
#78 = CARTESIAN_POINT('',(0.2,0.,5.097547502504));
#79 = DIRECTION('',(1.,0.,0.));
#80 = DIRECTION('',(-0.,0.,1.));
#81 = ORIENTED_EDGE('',*,*,#82,.T.);
#82 = EDGE_CURVE('',#74,#83,#85,.T.);
#83 = VERTEX_POINT('',#84);
#84 = CARTESIAN_POINT('',(0.36,-3.918869757272E-17,4.937547502504));
#85 = ELLIPSE('',#86,0.22627416998,0.16);
#86 = AXIS2_PLACEMENT_3D('',#87,#88,#89);
#87 = CARTESIAN_POINT('',(0.2,0.,5.097547502504));
#88 = DIRECTION('',(0.707106781187,0.,0.707106781187));
#89 = DIRECTION('',(0.707106781187,0.,-0.707106781187));
#90 = ORIENTED_EDGE('',*,*,#91,.T.);
#91 = EDGE_CURVE('',#83,#92,#94,.T.);
#92 = VERTEX_POINT('',#93);
#93 = CARTESIAN_POINT('',(0.2,0.16,5.097547502504));
#94 = ELLIPSE('',#95,0.22627416998,0.16);
#95 = AXIS2_PLACEMENT_3D('',#96,#97,#98);
#96 = CARTESIAN_POINT('',(0.2,0.,5.097547502504));
#97 = DIRECTION('',(0.707106781187,0.,0.707106781187));
#98 = DIRECTION('',(0.707106781187,0.,-0.707106781187));
#99 = ORIENTED_EDGE('',*,*,#100,.T.);
#100 = EDGE_CURVE('',#92,#64,#101,.T.);
#101 = CIRCLE('',#102,0.16);
#102 = AXIS2_PLACEMENT_3D('',#103,#104,#105);
#103 = CARTESIAN_POINT('',(0.2,0.,5.097547502504));
#104 = DIRECTION('',(1.,0.,0.));
#105 = DIRECTION('',(-0.,0.,1.));
#106 = CYLINDRICAL_SURFACE('',#107,0.16);
#107 = AXIS2_PLACEMENT_3D('',#108,#109,#110);
#108 = CARTESIAN_POINT('',(0.2,0.,5.097547502504));
#109 = DIRECTION('',(1.,0.,0.));
#110 = DIRECTION('',(-0.,0.,1.));
#111 = ADVANCED_FACE('',(#112),#122,.F.);
#112 = FACE_BOUND('',#113,.F.);
#113 = EDGE_LOOP('',(#114,#115,#116));
#114 = ORIENTED_EDGE('',*,*,#100,.T.);
#115 = ORIENTED_EDGE('',*,*,#73,.T.);
#116 = ORIENTED_EDGE('',*,*,#117,.F.);
#117 = EDGE_CURVE('',#92,#74,#118,.T.);
#118 = LINE('',#119,#120);
#119 = CARTESIAN_POINT('',(0.2,0.,5.097547502504));
#120 = VECTOR('',#121,1.);
#121 = DIRECTION('',(0.,-1.,0.));
#122 = PLANE('',#123);
#123 = AXIS2_PLACEMENT_3D('',#124,#125,#126);
#124 = CARTESIAN_POINT('',(0.2,0.,5.097547502504));
#125 = DIRECTION('',(1.,0.,0.));
#126 = DIRECTION('',(-0.,0.,1.));
#127 = ADVANCED_FACE('',(#128),#155,.T.);
#128 = FACE_BOUND('',#129,.T.);
#129 = EDGE_LOOP('',(#130,#137,#138,#146,#153,#154));
#130 = ORIENTED_EDGE('',*,*,#131,.F.);
#131 = EDGE_CURVE('',#92,#74,#132,.T.);
#132 = CIRCLE('',#133,0.16);
#133 = AXIS2_PLACEMENT_3D('',#134,#135,#136);
#134 = CARTESIAN_POINT('',(0.2,0.,5.097547502504));
#135 = DIRECTION('',(0.,0.,1.));
#136 = DIRECTION('',(1.,0.,-0.));
#137 = ORIENTED_EDGE('',*,*,#91,.F.);
#138 = ORIENTED_EDGE('',*,*,#139,.F.);
#139 = EDGE_CURVE('',#140,#83,#142,.T.);
#140 = VERTEX_POINT('',#141);
#141 = CARTESIAN_POINT('',(0.36,-3.918869757272E-17,0.2));
#142 = LINE('',#143,#144);
#143 = CARTESIAN_POINT('',(0.36,-3.918869757272E-17,0.2));
#144 = VECTOR('',#145,1.);
#145 = DIRECTION('',(0.,0.,1.));
#146 = ORIENTED_EDGE('',*,*,#147,.T.);
#147 = EDGE_CURVE('',#140,#140,#148,.T.);
#148 = CIRCLE('',#149,0.16);
#149 = AXIS2_PLACEMENT_3D('',#150,#151,#152);
#150 = CARTESIAN_POINT('',(0.2,0.,0.2));
#151 = DIRECTION('',(0.,0.,1.));
#152 = DIRECTION('',(1.,0.,-0.));
#153 = ORIENTED_EDGE('',*,*,#139,.T.);
#154 = ORIENTED_EDGE('',*,*,#82,.F.);
#155 = CYLINDRICAL_SURFACE('',#156,0.16);
#156 = AXIS2_PLACEMENT_3D('',#157,#158,#159);
#157 = CARTESIAN_POINT('',(0.2,0.,0.2));
#158 = DIRECTION('',(0.,0.,1.));
#159 = DIRECTION('',(1.,0.,-0.));
#160 = ADVANCED_FACE('',(#161),#165,.T.);
#161 = FACE_BOUND('',#162,.T.);
#162 = EDGE_LOOP('',(#163,#164));
#163 = ORIENTED_EDGE('',*,*,#117,.F.);
#164 = ORIENTED_EDGE('',*,*,#131,.T.);
#165 = PLANE('',#166);
#166 = AXIS2_PLACEMENT_3D('',#167,#168,#169);
#167 = CARTESIAN_POINT('',(0.2,0.,5.097547502504));
#168 = DIRECTION('',(0.,0.,1.));
#169 = DIRECTION('',(1.,0.,-0.));
#170 = ADVANCED_FACE('',(#171),#174,.F.);
#171 = FACE_BOUND('',#172,.T.);
#172 = EDGE_LOOP('',(#173));
#173 = ORIENTED_EDGE('',*,*,#147,.F.);
#174 = PLANE('',#175);
#175 = AXIS2_PLACEMENT_3D('',#176,#177,#178);
#176 = CARTESIAN_POINT('',(0.2,0.,0.2));
#177 = DIRECTION('',(0.,0.,1.));
#178 = DIRECTION('',(1.,0.,-0.));
#179 = MANIFOLD_SOLID_BREP('',#180);
#180 = CLOSED_SHELL('',(#181,#214,#223,#266,#281,#323,#334));
#181 = ADVANCED_FACE('',(#182),#209,.T.);
#182 = FACE_BOUND('',#183,.T.);
#183 = EDGE_LOOP('',(#184,#193,#201,#208));
#184 = ORIENTED_EDGE('',*,*,#185,.F.);
#185 = EDGE_CURVE('',#186,#186,#188,.T.);
#186 = VERTEX_POINT('',#187);
#187 = CARTESIAN_POINT('',(-3.280504229535,6.002,5.097547502504));
#188 = CIRCLE('',#189,0.16);
#189 = AXIS2_PLACEMENT_3D('',#190,#191,#192);
#190 = CARTESIAN_POINT('',(-3.419068294141,5.922,5.097547502504));
#191 = DIRECTION('',(-0.5,0.866025403784,0.));
#192 = DIRECTION('',(0.866025403784,0.5,0.));
#193 = ORIENTED_EDGE('',*,*,#194,.F.);
#194 = EDGE_CURVE('',#195,#186,#197,.T.);
#195 = VERTEX_POINT('',#196);
#196 = CARTESIAN_POINT('',(-1.161435935394,2.33166604984,5.097547502504)
  );
#197 = LINE('',#198,#199);
#198 = CARTESIAN_POINT('',(-1.161435935394,2.33166604984,5.097547502504)
  );
#199 = VECTOR('',#200,1.);
#200 = DIRECTION('',(-0.5,0.866025403784,-1.653603450844E-33));
#201 = ORIENTED_EDGE('',*,*,#202,.T.);
#202 = EDGE_CURVE('',#195,#195,#203,.T.);
#203 = CIRCLE('',#204,0.16);
#204 = AXIS2_PLACEMENT_3D('',#205,#206,#207);
#205 = CARTESIAN_POINT('',(-1.3,2.25166604984,5.097547502504));
#206 = DIRECTION('',(-0.5,0.866025403784,0.));
#207 = DIRECTION('',(0.866025403784,0.5,0.));
#208 = ORIENTED_EDGE('',*,*,#194,.T.);
#209 = CYLINDRICAL_SURFACE('',#210,0.16);
#210 = AXIS2_PLACEMENT_3D('',#211,#212,#213);
#211 = CARTESIAN_POINT('',(-1.3,2.25166604984,5.097547502504));
#212 = DIRECTION('',(-0.5,0.866025403784,0.));
#213 = DIRECTION('',(0.866025403784,0.5,0.));
#214 = ADVANCED_FACE('',(#215),#218,.T.);
#215 = FACE_BOUND('',#216,.T.);
#216 = EDGE_LOOP('',(#217));
#217 = ORIENTED_EDGE('',*,*,#185,.T.);
#218 = PLANE('',#219);
#219 = AXIS2_PLACEMENT_3D('',#220,#221,#222);
#220 = CARTESIAN_POINT('',(-3.419068294141,5.922,5.097547502504));
#221 = DIRECTION('',(-0.5,0.866025403784,0.));
#222 = DIRECTION('',(0.866025403784,0.5,0.));
#223 = ADVANCED_FACE('',(#224),#261,.T.);
#224 = FACE_BOUND('',#225,.T.);
#225 = EDGE_LOOP('',(#226,#234,#235,#236,#245,#254));
#226 = ORIENTED_EDGE('',*,*,#227,.T.);
#227 = EDGE_CURVE('',#228,#195,#230,.T.);
#228 = VERTEX_POINT('',#229);
#229 = CARTESIAN_POINT('',(3.856406460551E-02,0.253205080757,
    5.097547502504));
#230 = LINE('',#231,#232);
#231 = CARTESIAN_POINT('',(3.856406460551E-02,0.253205080757,
    5.097547502504));
#232 = VECTOR('',#233,1.);
#233 = DIRECTION('',(-0.5,0.866025403784,-1.653603450844E-33));
#234 = ORIENTED_EDGE('',*,*,#202,.F.);
#235 = ORIENTED_EDGE('',*,*,#227,.F.);
#236 = ORIENTED_EDGE('',*,*,#237,.T.);
#237 = EDGE_CURVE('',#228,#238,#240,.T.);
#238 = VERTEX_POINT('',#239);
#239 = CARTESIAN_POINT('',(-0.18,0.311769145362,4.937547502504));
#240 = ELLIPSE('',#241,0.22627416998,0.16);
#241 = AXIS2_PLACEMENT_3D('',#242,#243,#244);
#242 = CARTESIAN_POINT('',(-1.E-01,0.173205080757,5.097547502504));
#243 = DIRECTION('',(-0.353553390593,0.612372435696,0.707106781187));
#244 = DIRECTION('',(-0.353553390593,0.612372435696,-0.707106781187));
#245 = ORIENTED_EDGE('',*,*,#246,.T.);
#246 = EDGE_CURVE('',#238,#247,#249,.T.);
#247 = VERTEX_POINT('',#248);
#248 = CARTESIAN_POINT('',(-0.238564064606,9.320508075689E-02,
    5.097547502504));
#249 = ELLIPSE('',#250,0.22627416998,0.16);
#250 = AXIS2_PLACEMENT_3D('',#251,#252,#253);
#251 = CARTESIAN_POINT('',(-1.E-01,0.173205080757,5.097547502504));
#252 = DIRECTION('',(-0.353553390593,0.612372435696,0.707106781187));
#253 = DIRECTION('',(-0.353553390593,0.612372435696,-0.707106781187));
#254 = ORIENTED_EDGE('',*,*,#255,.T.);
#255 = EDGE_CURVE('',#247,#228,#256,.T.);
#256 = CIRCLE('',#257,0.16);
#257 = AXIS2_PLACEMENT_3D('',#258,#259,#260);
#258 = CARTESIAN_POINT('',(-1.E-01,0.173205080757,5.097547502504));
#259 = DIRECTION('',(-0.5,0.866025403784,0.));
#260 = DIRECTION('',(0.866025403784,0.5,0.));
#261 = CYLINDRICAL_SURFACE('',#262,0.16);
#262 = AXIS2_PLACEMENT_3D('',#263,#264,#265);
#263 = CARTESIAN_POINT('',(-1.E-01,0.173205080757,5.097547502504));
#264 = DIRECTION('',(-0.5,0.866025403784,0.));
#265 = DIRECTION('',(0.866025403784,0.5,0.));
#266 = ADVANCED_FACE('',(#267),#276,.F.);
#267 = FACE_BOUND('',#268,.F.);
#268 = EDGE_LOOP('',(#269,#270));
#269 = ORIENTED_EDGE('',*,*,#255,.T.);
#270 = ORIENTED_EDGE('',*,*,#271,.F.);
#271 = EDGE_CURVE('',#247,#228,#272,.T.);
#272 = LINE('',#273,#274);
#273 = CARTESIAN_POINT('',(-1.E-01,0.173205080757,5.097547502504));
#274 = VECTOR('',#275,1.);
#275 = DIRECTION('',(0.866025403784,0.5,-0.));
#276 = PLANE('',#277);
#277 = AXIS2_PLACEMENT_3D('',#278,#279,#280);
#278 = CARTESIAN_POINT('',(-1.E-01,0.173205080757,5.097547502504));
#279 = DIRECTION('',(-0.5,0.866025403784,0.));
#280 = DIRECTION('',(0.866025403784,0.5,0.));
#281 = ADVANCED_FACE('',(#282),#318,.T.);
#282 = FACE_BOUND('',#283,.T.);
#283 = EDGE_LOOP('',(#284,#294,#301,#302,#303,#310,#311));
#284 = ORIENTED_EDGE('',*,*,#285,.T.);
#285 = EDGE_CURVE('',#286,#288,#290,.T.);
#286 = VERTEX_POINT('',#287);
#287 = CARTESIAN_POINT('',(6.E-02,0.173205080757,0.2));
#288 = VERTEX_POINT('',#289);
#289 = CARTESIAN_POINT('',(6.E-02,0.173205080757,5.097547502504));
#290 = LINE('',#291,#292);
#291 = CARTESIAN_POINT('',(6.E-02,0.173205080757,0.2));
#292 = VECTOR('',#293,1.);
#293 = DIRECTION('',(0.,0.,1.));
#294 = ORIENTED_EDGE('',*,*,#295,.F.);
#295 = EDGE_CURVE('',#247,#288,#296,.T.);
#296 = CIRCLE('',#297,0.16);
#297 = AXIS2_PLACEMENT_3D('',#298,#299,#300);
#298 = CARTESIAN_POINT('',(-1.E-01,0.173205080757,5.097547502504));
#299 = DIRECTION('',(0.,0.,1.));
#300 = DIRECTION('',(1.,0.,-0.));
#301 = ORIENTED_EDGE('',*,*,#246,.F.);
#302 = ORIENTED_EDGE('',*,*,#237,.F.);
#303 = ORIENTED_EDGE('',*,*,#304,.F.);
#304 = EDGE_CURVE('',#288,#228,#305,.T.);
#305 = CIRCLE('',#306,0.16);
#306 = AXIS2_PLACEMENT_3D('',#307,#308,#309);
#307 = CARTESIAN_POINT('',(-1.E-01,0.173205080757,5.097547502504));
#308 = DIRECTION('',(0.,0.,1.));
#309 = DIRECTION('',(1.,0.,-0.));
#310 = ORIENTED_EDGE('',*,*,#285,.F.);
#311 = ORIENTED_EDGE('',*,*,#312,.T.);
#312 = EDGE_CURVE('',#286,#286,#313,.T.);
#313 = CIRCLE('',#314,0.16);
#314 = AXIS2_PLACEMENT_3D('',#315,#316,#317);
#315 = CARTESIAN_POINT('',(-1.E-01,0.173205080757,0.2));
#316 = DIRECTION('',(0.,0.,1.));
#317 = DIRECTION('',(1.,0.,-0.));
#318 = CYLINDRICAL_SURFACE('',#319,0.16);
#319 = AXIS2_PLACEMENT_3D('',#320,#321,#322);
#320 = CARTESIAN_POINT('',(-1.E-01,0.173205080757,0.2));
#321 = DIRECTION('',(0.,0.,1.));
#322 = DIRECTION('',(1.,0.,-0.));
#323 = ADVANCED_FACE('',(#324),#329,.T.);
#324 = FACE_BOUND('',#325,.T.);
#325 = EDGE_LOOP('',(#326,#327,#328));
#326 = ORIENTED_EDGE('',*,*,#295,.T.);
#327 = ORIENTED_EDGE('',*,*,#304,.T.);
#328 = ORIENTED_EDGE('',*,*,#271,.F.);
#329 = PLANE('',#330);
#330 = AXIS2_PLACEMENT_3D('',#331,#332,#333);
#331 = CARTESIAN_POINT('',(-1.E-01,0.173205080757,5.097547502504));
#332 = DIRECTION('',(0.,0.,1.));
#333 = DIRECTION('',(1.,0.,-0.));
#334 = ADVANCED_FACE('',(#335),#338,.F.);
#335 = FACE_BOUND('',#336,.T.);
#336 = EDGE_LOOP('',(#337));
#337 = ORIENTED_EDGE('',*,*,#312,.F.);
#338 = PLANE('',#339);
#339 = AXIS2_PLACEMENT_3D('',#340,#341,#342);
#340 = CARTESIAN_POINT('',(-1.E-01,0.173205080757,0.2));
#341 = DIRECTION('',(0.,0.,1.));
#342 = DIRECTION('',(1.,0.,-0.));
#343 = ( GEOMETRIC_REPRESENTATION_CONTEXT(3) 
GLOBAL_UNCERTAINTY_ASSIGNED_CONTEXT((#347)) GLOBAL_UNIT_ASSIGNED_CONTEXT
((#344,#345,#346)) REPRESENTATION_CONTEXT('Context #1',
  '3D Context with UNIT and UNCERTAINTY') );
#344 = ( LENGTH_UNIT() NAMED_UNIT(*) SI_UNIT(.MILLI.,.METRE.) );
#345 = ( NAMED_UNIT(*) PLANE_ANGLE_UNIT() SI_UNIT($,.RADIAN.) );
#346 = ( NAMED_UNIT(*) SI_UNIT($,.STERADIAN.) SOLID_ANGLE_UNIT() );
#347 = UNCERTAINTY_MEASURE_WITH_UNIT(LENGTH_MEASURE(2.E-07),#344,
  'distance_accuracy_value','confusion accuracy');
#348 = PRODUCT_RELATED_PRODUCT_CATEGORY('part',$,(#7));
ENDSEC;
END-ISO-10303-21;
