ISO-10303-21;
HEADER;
FILE_DESCRIPTION(('FreeCAD Model'),'2;1');
FILE_NAME('Open CASCADE Shape Model','2026-07-29T09:33:04',('FreeCAD'),(
    'FreeCAD'),'Open CASCADE STEP processor 7.8','FreeCAD','Unknown');
FILE_SCHEMA(('AUTOMOTIVE_DESIGN { 1 0 10303 214 1 1 1 1 }'));
ENDSEC;
DATA;
#1 = APPLICATION_PROTOCOL_DEFINITION('international standard',
  'automotive_design',2000,#2);
#2 = APPLICATION_CONTEXT(
  'core data for automotive mechanical design processes');
#3 = SHAPE_DEFINITION_REPRESENTATION(#4,#10);
#4 = PRODUCT_DEFINITION_SHAPE('','',#5);
#5 = PRODUCT_DEFINITION('design','',#6,#9);
#6 = PRODUCT_DEFINITION_FORMATION('','',#7);
#7 = PRODUCT('Open CASCADE STEP translator 7.8 75',
  'Open CASCADE STEP translator 7.8 75','',(#8));
#8 = PRODUCT_CONTEXT('',#2,'mechanical');
#9 = PRODUCT_DEFINITION_CONTEXT('part definition',#2,'design');
#10 = ADVANCED_BREP_SHAPE_REPRESENTATION('',(#11,#15),#479);
#11 = AXIS2_PLACEMENT_3D('',#12,#13,#14);
#12 = CARTESIAN_POINT('',(0.,0.,0.));
#13 = DIRECTION('',(0.,0.,1.));
#14 = DIRECTION('',(1.,0.,-0.));
#15 = MANIFOLD_SOLID_BREP('',#16);
#16 = CLOSED_SHELL('',(#17,#60,#81,#102,#123,#160,#175,#190,#205,#279,
    #307,#329,#351,#367,#395,#417,#439,#455,#467));
#17 = ADVANCED_FACE('',(#18,#41),#55,.T.);
#18 = FACE_BOUND('',#19,.T.);
#19 = EDGE_LOOP('',(#20,#29,#36));
#20 = ORIENTED_EDGE('',*,*,#21,.T.);
#21 = EDGE_CURVE('',#22,#24,#26,.T.);
#22 = VERTEX_POINT('',#23);
#23 = CARTESIAN_POINT('',(-4.37219188087,1.171525283633,89.47614939773)
  );
#24 = VERTEX_POINT('',#25);
#25 = CARTESIAN_POINT('',(3.200666597237,3.200666597237,89.47614939773)
  );
#26 = B_SPLINE_CURVE_WITH_KNOTS('',1,(#27,#28),.UNSPECIFIED.,.F.,.F.,(2,
    2),(0.,12.88),.PIECEWISE_BEZIER_KNOTS.);
#27 = CARTESIAN_POINT('',(-4.37219188087,1.171525283633,89.47614939773)
  );
#28 = CARTESIAN_POINT('',(3.200666597237,3.200666597237,89.47614939773)
  );
#29 = ORIENTED_EDGE('',*,*,#30,.T.);
#30 = EDGE_CURVE('',#24,#31,#33,.T.);
#31 = VERTEX_POINT('',#32);
#32 = CARTESIAN_POINT('',(1.171525283633,-4.37219188087,89.47614939773)
  );
#33 = B_SPLINE_CURVE_WITH_KNOTS('',1,(#34,#35),.UNSPECIFIED.,.F.,.F.,(2,
    2),(0.,12.88),.PIECEWISE_BEZIER_KNOTS.);
#34 = CARTESIAN_POINT('',(3.200666597237,3.200666597237,89.47614939773)
  );
#35 = CARTESIAN_POINT('',(1.171525283633,-4.37219188087,89.47614939773)
  );
#36 = ORIENTED_EDGE('',*,*,#37,.T.);
#37 = EDGE_CURVE('',#31,#22,#38,.T.);
#38 = B_SPLINE_CURVE_WITH_KNOTS('',1,(#39,#40),.UNSPECIFIED.,.F.,.F.,(2,
    2),(0.,12.88),.PIECEWISE_BEZIER_KNOTS.);
#39 = CARTESIAN_POINT('',(1.171525283633,-4.37219188087,89.47614939773)
  );
#40 = CARTESIAN_POINT('',(-4.37219188087,1.171525283633,89.47614939773)
  );
#41 = FACE_BOUND('',#42,.T.);
#42 = EDGE_LOOP('',(#43));
#43 = ORIENTED_EDGE('',*,*,#44,.T.);
#44 = EDGE_CURVE('',#45,#45,#47,.T.);
#45 = VERTEX_POINT('',#46);
#46 = CARTESIAN_POINT('',(-0.40960927138,1.52868261204,89.47614939773));
#47 = ( BOUNDED_CURVE() B_SPLINE_CURVE(2,(#48,#49,#50,#51,#52,#53,#54),
.UNSPECIFIED.,.T.,.F.) B_SPLINE_CURVE_WITH_KNOTS((1,2,2,2,2,1),(
    -2.094395102393,0.,2.094395102393,4.188790204786,6.28318530718,
8.377580409573),.UNSPECIFIED.) CURVE() GEOMETRIC_REPRESENTATION_ITEM() 
RATIONAL_B_SPLINE_CURVE((1.,0.5,1.,0.5,1.,0.5,1.)) REPRESENTATION_ITEM(
  '') );
#48 = CARTESIAN_POINT('',(-0.40960927138,1.52868261204,89.47614939773));
#49 = CARTESIAN_POINT('',(-3.05736522408,0.819218542759,89.47614939773)
  );
#50 = CARTESIAN_POINT('',(-1.11907334066,-1.11907334066,89.47614939773)
  );
#51 = CARTESIAN_POINT('',(0.819218542759,-3.05736522408,89.47614939773)
  );
#52 = CARTESIAN_POINT('',(1.52868261204,-0.40960927138,89.47614939773));
#53 = CARTESIAN_POINT('',(2.238146681321,2.238146681321,89.47614939773)
  );
#54 = CARTESIAN_POINT('',(-0.40960927138,1.52868261204,89.47614939773));
#55 = B_SPLINE_SURFACE_WITH_KNOTS('',1,1,(
    (#56,#57)
    ,(#58,#59
    )),.UNSPECIFIED.,.F.,.F.,.F.,(2,2),(2,2),(-3.718135733581,
    7.436271467162),(-6.44,6.44),.PIECEWISE_BEZIER_KNOTS.);
#56 = CARTESIAN_POINT('',(3.200666597237,3.200666597237,89.47614939773)
  );
#57 = CARTESIAN_POINT('',(-4.37219188087,1.171525283633,89.47614939773)
  );
#58 = CARTESIAN_POINT('',(4.957954522686,-3.357621224068,89.47614939773)
  );
#59 = CARTESIAN_POINT('',(-2.61490395542,-5.386762537671,89.47614939773)
  );
#60 = ADVANCED_FACE('',(#61),#76,.T.);
#61 = FACE_BOUND('',#62,.T.);
#62 = EDGE_LOOP('',(#63,#64,#71));
#63 = ORIENTED_EDGE('',*,*,#21,.F.);
#64 = ORIENTED_EDGE('',*,*,#65,.T.);
#65 = EDGE_CURVE('',#22,#66,#68,.T.);
#66 = VERTEX_POINT('',#67);
#67 = CARTESIAN_POINT('',(-1.171525283633,4.37219188087,95.877482592204)
  );
#68 = B_SPLINE_CURVE_WITH_KNOTS('',1,(#69,#70),.UNSPECIFIED.,.F.,.F.,(2,
    2),(0.,12.88),.PIECEWISE_BEZIER_KNOTS.);
#69 = CARTESIAN_POINT('',(-4.37219188087,1.171525283633,89.47614939773)
  );
#70 = CARTESIAN_POINT('',(-1.171525283633,4.37219188087,95.877482592204)
  );
#71 = ORIENTED_EDGE('',*,*,#72,.T.);
#72 = EDGE_CURVE('',#66,#24,#73,.T.);
#73 = B_SPLINE_CURVE_WITH_KNOTS('',1,(#74,#75),.UNSPECIFIED.,.F.,.F.,(2,
    2),(0.,12.88),.PIECEWISE_BEZIER_KNOTS.);
#74 = CARTESIAN_POINT('',(-1.171525283633,4.37219188087,95.877482592204)
  );
#75 = CARTESIAN_POINT('',(3.200666597237,3.200666597237,89.47614939773)
  );
#76 = B_SPLINE_SURFACE_WITH_KNOTS('',1,1,(
    (#77,#78)
    ,(#79,#80
    )),.UNSPECIFIED.,.F.,.F.,.F.,(2,2),(2,2),(-3.718135733581,
    7.436271467162),(-6.44,6.44),.PIECEWISE_BEZIER_KNOTS.);
#77 = CARTESIAN_POINT('',(-4.37219188087,1.171525283633,89.47614939773)
  );
#78 = CARTESIAN_POINT('',(3.200666597237,3.200666597237,89.47614939773)
  );
#79 = CARTESIAN_POINT('',(-4.957954522686,3.357621224068,95.877482592204
    ));
#80 = CARTESIAN_POINT('',(2.61490395542,5.386762537671,95.877482592204)
  );
#81 = ADVANCED_FACE('',(#82),#97,.T.);
#82 = FACE_BOUND('',#83,.T.);
#83 = EDGE_LOOP('',(#84,#85,#92));
#84 = ORIENTED_EDGE('',*,*,#37,.F.);
#85 = ORIENTED_EDGE('',*,*,#86,.T.);
#86 = EDGE_CURVE('',#31,#87,#89,.T.);
#87 = VERTEX_POINT('',#88);
#88 = CARTESIAN_POINT('',(-3.200666597237,-3.200666597237,
    95.877482592204));
#89 = B_SPLINE_CURVE_WITH_KNOTS('',1,(#90,#91),.UNSPECIFIED.,.F.,.F.,(2,
    2),(0.,12.88),.PIECEWISE_BEZIER_KNOTS.);
#90 = CARTESIAN_POINT('',(1.171525283633,-4.37219188087,89.47614939773)
  );
#91 = CARTESIAN_POINT('',(-3.200666597237,-3.200666597237,
    95.877482592204));
#92 = ORIENTED_EDGE('',*,*,#93,.T.);
#93 = EDGE_CURVE('',#87,#22,#94,.T.);
#94 = B_SPLINE_CURVE_WITH_KNOTS('',1,(#95,#96),.UNSPECIFIED.,.F.,.F.,(2,
    2),(0.,12.88),.PIECEWISE_BEZIER_KNOTS.);
#95 = CARTESIAN_POINT('',(-3.200666597237,-3.200666597237,
    95.877482592204));
#96 = CARTESIAN_POINT('',(-4.37219188087,1.171525283633,89.47614939773)
  );
#97 = B_SPLINE_SURFACE_WITH_KNOTS('',1,1,(
    (#98,#99)
    ,(#100,#101
    )),.UNSPECIFIED.,.F.,.F.,.F.,(2,2),(2,2),(-6.44,6.44),(
    -7.436271467162,3.718135733581),.PIECEWISE_BEZIER_KNOTS.);
#98 = CARTESIAN_POINT('',(-0.428808014985,-5.972525179488,
    95.877482592204));
#99 = CARTESIAN_POINT('',(1.171525283633,-4.37219188087,89.47614939773)
  );
#100 = CARTESIAN_POINT('',(-5.972525179488,-0.428808014985,
    95.877482592204));
#101 = CARTESIAN_POINT('',(-4.37219188087,1.171525283633,89.47614939773)
  );
#102 = ADVANCED_FACE('',(#103),#118,.T.);
#103 = FACE_BOUND('',#104,.T.);
#104 = EDGE_LOOP('',(#105,#106,#113));
#105 = ORIENTED_EDGE('',*,*,#30,.F.);
#106 = ORIENTED_EDGE('',*,*,#107,.T.);
#107 = EDGE_CURVE('',#24,#108,#110,.T.);
#108 = VERTEX_POINT('',#109);
#109 = CARTESIAN_POINT('',(4.37219188087,-1.171525283633,95.877482592204
    ));
#110 = B_SPLINE_CURVE_WITH_KNOTS('',1,(#111,#112),.UNSPECIFIED.,.F.,.F.,
  (2,2),(0.,12.88),.PIECEWISE_BEZIER_KNOTS.);
#111 = CARTESIAN_POINT('',(3.200666597237,3.200666597237,89.47614939773)
  );
#112 = CARTESIAN_POINT('',(4.37219188087,-1.171525283633,95.877482592204
    ));
#113 = ORIENTED_EDGE('',*,*,#114,.T.);
#114 = EDGE_CURVE('',#108,#31,#115,.T.);
#115 = B_SPLINE_CURVE_WITH_KNOTS('',1,(#116,#117),.UNSPECIFIED.,.F.,.F.,
  (2,2),(0.,12.88),.PIECEWISE_BEZIER_KNOTS.);
#116 = CARTESIAN_POINT('',(4.37219188087,-1.171525283633,95.877482592204
    ));
#117 = CARTESIAN_POINT('',(1.171525283633,-4.37219188087,89.47614939773)
  );
#118 = B_SPLINE_SURFACE_WITH_KNOTS('',1,1,(
    (#119,#120)
    ,(#121,#122
    )),.UNSPECIFIED.,.F.,.F.,.F.,(2,2),(2,2),(-6.44,6.44),(
    -7.436271467162,3.718135733581),.PIECEWISE_BEZIER_KNOTS.);
#119 = CARTESIAN_POINT('',(5.386762537671,2.61490395542,95.877482592204)
  );
#120 = CARTESIAN_POINT('',(3.200666597237,3.200666597237,89.47614939773)
  );
#121 = CARTESIAN_POINT('',(3.357621224068,-4.957954522686,
    95.877482592204));
#122 = CARTESIAN_POINT('',(1.171525283633,-4.37219188087,89.47614939773)
  );
#123 = ADVANCED_FACE('',(#124),#145,.F.);
#124 = FACE_BOUND('',#125,.F.);
#125 = EDGE_LOOP('',(#126,#138,#143,#144));
#126 = ORIENTED_EDGE('',*,*,#127,.F.);
#127 = EDGE_CURVE('',#128,#128,#130,.T.);
#128 = VERTEX_POINT('',#129);
#129 = CARTESIAN_POINT('',(-0.40960927138,1.52868261204,95.877482592204)
  );
#130 = ( BOUNDED_CURVE() B_SPLINE_CURVE(2,(#131,#132,#133,#134,#135,#136
,#137),.UNSPECIFIED.,.T.,.F.) B_SPLINE_CURVE_WITH_KNOTS((1,2,2,2,2,1),(
    -2.094395102393,0.,2.094395102393,4.188790204786,6.28318530718,
8.377580409573),.UNSPECIFIED.) CURVE() GEOMETRIC_REPRESENTATION_ITEM() 
RATIONAL_B_SPLINE_CURVE((1.,0.5,1.,0.5,1.,0.5,1.)) REPRESENTATION_ITEM(
  '') );
#131 = CARTESIAN_POINT('',(-0.40960927138,1.52868261204,95.877482592204)
  );
#132 = CARTESIAN_POINT('',(-3.05736522408,0.819218542759,95.877482592204
    ));
#133 = CARTESIAN_POINT('',(-1.11907334066,-1.11907334066,95.877482592204
    ));
#134 = CARTESIAN_POINT('',(0.819218542759,-3.05736522408,95.877482592204
    ));
#135 = CARTESIAN_POINT('',(1.52868261204,-0.40960927138,95.877482592204)
  );
#136 = CARTESIAN_POINT('',(2.238146681321,2.238146681321,95.877482592204
    ));
#137 = CARTESIAN_POINT('',(-0.40960927138,1.52868261204,95.877482592204)
  );
#138 = ORIENTED_EDGE('',*,*,#139,.F.);
#139 = EDGE_CURVE('',#45,#128,#140,.T.);
#140 = B_SPLINE_CURVE_WITH_KNOTS('',1,(#141,#142),.UNSPECIFIED.,.F.,.F.,
  (2,2),(0.6,11.116475962349),.PIECEWISE_BEZIER_KNOTS.);
#141 = CARTESIAN_POINT('',(-0.40960927138,1.52868261204,89.47614939773)
  );
#142 = CARTESIAN_POINT('',(-0.40960927138,1.52868261204,95.877482592204)
  );
#143 = ORIENTED_EDGE('',*,*,#44,.T.);
#144 = ORIENTED_EDGE('',*,*,#139,.T.);
#145 = ( BOUNDED_SURFACE() B_SPLINE_SURFACE(2,1,(
    (#146,#147)
    ,(#148,#149)
    ,(#150,#151)
    ,(#152,#153)
    ,(#154,#155)
    ,(#156,#157)
,(#158,#159
    )),.UNSPECIFIED.,.T.,.F.,.F.) B_SPLINE_SURFACE_WITH_KNOTS((1,2,2,2,2
    ,1),(2,2),(-2.094395102393,0.,2.094395102393,4.188790204786,
    6.28318530718,8.377580409573),(0.6,11.116475962349),.UNSPECIFIED.) 
GEOMETRIC_REPRESENTATION_ITEM() RATIONAL_B_SPLINE_SURFACE((
    (1.,1.)
    ,(0.5,0.5)
    ,(1.,1.)
    ,(0.5,0.5)
    ,(1.,1.)
    ,(0.5,0.5)
,(1.,1.))) REPRESENTATION_ITEM('') SURFACE() );
#146 = CARTESIAN_POINT('',(-0.40960927138,1.52868261204,89.47614939773)
  );
#147 = CARTESIAN_POINT('',(-0.40960927138,1.52868261204,95.877482592204)
  );
#148 = CARTESIAN_POINT('',(-3.05736522408,0.819218542759,89.47614939773)
  );
#149 = CARTESIAN_POINT('',(-3.05736522408,0.819218542759,95.877482592204
    ));
#150 = CARTESIAN_POINT('',(-1.11907334066,-1.11907334066,89.47614939773)
  );
#151 = CARTESIAN_POINT('',(-1.11907334066,-1.11907334066,95.877482592204
    ));
#152 = CARTESIAN_POINT('',(0.819218542759,-3.05736522408,89.47614939773)
  );
#153 = CARTESIAN_POINT('',(0.819218542759,-3.05736522408,95.877482592204
    ));
#154 = CARTESIAN_POINT('',(1.52868261204,-0.40960927138,89.47614939773)
  );
#155 = CARTESIAN_POINT('',(1.52868261204,-0.40960927138,95.877482592204)
  );
#156 = CARTESIAN_POINT('',(2.238146681321,2.238146681321,89.47614939773)
  );
#157 = CARTESIAN_POINT('',(2.238146681321,2.238146681321,95.877482592204
    ));
#158 = CARTESIAN_POINT('',(-0.40960927138,1.52868261204,89.47614939773)
  );
#159 = CARTESIAN_POINT('',(-0.40960927138,1.52868261204,95.877482592204)
  );
#160 = ADVANCED_FACE('',(#161),#170,.F.);
#161 = FACE_BOUND('',#162,.F.);
#162 = EDGE_LOOP('',(#163,#168,#169));
#163 = ORIENTED_EDGE('',*,*,#164,.T.);
#164 = EDGE_CURVE('',#66,#87,#165,.T.);
#165 = B_SPLINE_CURVE_WITH_KNOTS('',1,(#166,#167),.UNSPECIFIED.,.F.,.F.,
  (2,2),(0.,12.88),.PIECEWISE_BEZIER_KNOTS.);
#166 = CARTESIAN_POINT('',(-1.171525283633,4.37219188087,95.877482592204
    ));
#167 = CARTESIAN_POINT('',(-3.200666597237,-3.200666597237,
    95.877482592204));
#168 = ORIENTED_EDGE('',*,*,#93,.T.);
#169 = ORIENTED_EDGE('',*,*,#65,.T.);
#170 = B_SPLINE_SURFACE_WITH_KNOTS('',1,1,(
    (#171,#172)
    ,(#173,#174
    )),.UNSPECIFIED.,.F.,.F.,.F.,(2,2),(2,2),(-6.44,6.44),(
    -3.718135733581,7.436271467162),.PIECEWISE_BEZIER_KNOTS.);
#171 = CARTESIAN_POINT('',(-1.171525283633,4.37219188087,95.877482592204
    ));
#172 = CARTESIAN_POINT('',(-3.357621224068,4.957954522686,89.47614939773
    ));
#173 = CARTESIAN_POINT('',(-3.200666597237,-3.200666597237,
    95.877482592204));
#174 = CARTESIAN_POINT('',(-5.386762537671,-2.61490395542,89.47614939773
    ));
#175 = ADVANCED_FACE('',(#176),#185,.F.);
#176 = FACE_BOUND('',#177,.F.);
#177 = EDGE_LOOP('',(#178,#183,#184));
#178 = ORIENTED_EDGE('',*,*,#179,.T.);
#179 = EDGE_CURVE('',#108,#66,#180,.T.);
#180 = B_SPLINE_CURVE_WITH_KNOTS('',1,(#181,#182),.UNSPECIFIED.,.F.,.F.,
  (2,2),(0.,12.88),.PIECEWISE_BEZIER_KNOTS.);
#181 = CARTESIAN_POINT('',(4.37219188087,-1.171525283633,95.877482592204
    ));
#182 = CARTESIAN_POINT('',(-1.171525283633,4.37219188087,95.877482592204
    ));
#183 = ORIENTED_EDGE('',*,*,#72,.T.);
#184 = ORIENTED_EDGE('',*,*,#107,.T.);
#185 = B_SPLINE_SURFACE_WITH_KNOTS('',1,1,(
    (#186,#187)
    ,(#188,#189
    )),.UNSPECIFIED.,.F.,.F.,.F.,(2,2),(2,2),(-6.44,6.44),(
    -3.718135733581,7.436271467162),.PIECEWISE_BEZIER_KNOTS.);
#186 = CARTESIAN_POINT('',(4.37219188087,-1.171525283633,95.877482592204
    ));
#187 = CARTESIAN_POINT('',(5.972525179488,0.428808014985,89.47614939773)
  );
#188 = CARTESIAN_POINT('',(-1.171525283633,4.37219188087,95.877482592204
    ));
#189 = CARTESIAN_POINT('',(0.428808014985,5.972525179488,89.47614939773)
  );
#190 = ADVANCED_FACE('',(#191),#200,.F.);
#191 = FACE_BOUND('',#192,.F.);
#192 = EDGE_LOOP('',(#193,#198,#199));
#193 = ORIENTED_EDGE('',*,*,#194,.T.);
#194 = EDGE_CURVE('',#87,#108,#195,.T.);
#195 = B_SPLINE_CURVE_WITH_KNOTS('',1,(#196,#197),.UNSPECIFIED.,.F.,.F.,
  (2,2),(0.,12.88),.PIECEWISE_BEZIER_KNOTS.);
#196 = CARTESIAN_POINT('',(-3.200666597237,-3.200666597237,
    95.877482592204));
#197 = CARTESIAN_POINT('',(4.37219188087,-1.171525283633,95.877482592204
    ));
#198 = ORIENTED_EDGE('',*,*,#114,.T.);
#199 = ORIENTED_EDGE('',*,*,#86,.T.);
#200 = B_SPLINE_SURFACE_WITH_KNOTS('',1,1,(
    (#201,#202)
    ,(#203,#204
    )),.UNSPECIFIED.,.F.,.F.,.F.,(2,2),(2,2),(-7.436271467162,
    3.718135733581),(-6.44,6.44),.PIECEWISE_BEZIER_KNOTS.);
#201 = CARTESIAN_POINT('',(-2.61490395542,-5.386762537671,89.47614939773
    ));
#202 = CARTESIAN_POINT('',(4.957954522686,-3.357621224068,89.47614939773
    ));
#203 = CARTESIAN_POINT('',(-3.200666597237,-3.200666597237,
    95.877482592204));
#204 = CARTESIAN_POINT('',(4.37219188087,-1.171525283633,95.877482592204
    ));
#205 = ADVANCED_FACE('',(#206,#211,#214,#244),#274,.T.);
#206 = FACE_BOUND('',#207,.T.);
#207 = EDGE_LOOP('',(#208,#209,#210));
#208 = ORIENTED_EDGE('',*,*,#164,.T.);
#209 = ORIENTED_EDGE('',*,*,#194,.T.);
#210 = ORIENTED_EDGE('',*,*,#179,.T.);
#211 = FACE_BOUND('',#212,.T.);
#212 = EDGE_LOOP('',(#213));
#213 = ORIENTED_EDGE('',*,*,#127,.F.);
#214 = FACE_BOUND('',#215,.T.);
#215 = EDGE_LOOP('',(#216,#225,#232,#239));
#216 = ORIENTED_EDGE('',*,*,#217,.T.);
#217 = EDGE_CURVE('',#218,#220,#222,.T.);
#218 = VERTEX_POINT('',#219);
#219 = CARTESIAN_POINT('',(-0.913263591081,3.972782779372,
    95.877482592204));
#220 = VERTEX_POINT('',#221);
#221 = CARTESIAN_POINT('',(-0.287405150486,1.637047280723,
    95.877482592204));
#222 = B_SPLINE_CURVE_WITH_KNOTS('',1,(#223,#224),.UNSPECIFIED.,.F.,.F.,
  (2,2),(-5.332644320446,-1.36),.PIECEWISE_BEZIER_KNOTS.);
#223 = CARTESIAN_POINT('',(-0.913263591081,3.972782779372,
    95.877482592204));
#224 = CARTESIAN_POINT('',(-0.287405150486,1.637047280723,
    95.877482592204));
#225 = ORIENTED_EDGE('',*,*,#226,.T.);
#226 = EDGE_CURVE('',#220,#227,#229,.T.);
#227 = VERTEX_POINT('',#228);
#228 = CARTESIAN_POINT('',(-0.569623478862,1.561427107545,
    95.877482592204));
#229 = B_SPLINE_CURVE_WITH_KNOTS('',1,(#230,#231),.UNSPECIFIED.,.F.,.F.,
  (2,2),(-0.12,0.36),.PIECEWISE_BEZIER_KNOTS.);
#230 = CARTESIAN_POINT('',(-0.287405150486,1.637047280723,
    95.877482592204));
#231 = CARTESIAN_POINT('',(-0.569623478862,1.561427107545,
    95.877482592204));
#232 = ORIENTED_EDGE('',*,*,#233,.F.);
#233 = EDGE_CURVE('',#234,#227,#236,.T.);
#234 = VERTEX_POINT('',#235);
#235 = CARTESIAN_POINT('',(-1.195481919458,3.897162606194,
    95.877482592204));
#236 = B_SPLINE_CURVE_WITH_KNOTS('',1,(#237,#238),.UNSPECIFIED.,.F.,.F.,
  (2,2),(-5.332644320446,-1.36),.PIECEWISE_BEZIER_KNOTS.);
#237 = CARTESIAN_POINT('',(-1.195481919458,3.897162606194,
    95.877482592204));
#238 = CARTESIAN_POINT('',(-0.569623478862,1.561427107545,
    95.877482592204));
#239 = ORIENTED_EDGE('',*,*,#240,.F.);
#240 = EDGE_CURVE('',#218,#234,#241,.T.);
#241 = B_SPLINE_CURVE_WITH_KNOTS('',1,(#242,#243),.UNSPECIFIED.,.F.,.F.,
  (2,2),(-0.12,0.36),.PIECEWISE_BEZIER_KNOTS.);
#242 = CARTESIAN_POINT('',(-0.913263591081,3.972782779372,
    95.877482592204));
#243 = CARTESIAN_POINT('',(-1.195481919458,3.897162606194,
    95.877482592204));
#244 = FACE_BOUND('',#245,.T.);
#245 = EDGE_LOOP('',(#246,#255,#262,#269));
#246 = ORIENTED_EDGE('',*,*,#247,.T.);
#247 = EDGE_CURVE('',#248,#250,#252,.T.);
#248 = VERTEX_POINT('',#249);
#249 = CARTESIAN_POINT('',(-2.983899015112,-2.777300859914,
    95.877482592204));
#250 = VERTEX_POINT('',#251);
#251 = CARTESIAN_POINT('',(-1.27402195706,-1.067423801861,
    95.877482592204));
#252 = B_SPLINE_CURVE_WITH_KNOTS('',1,(#253,#254),.UNSPECIFIED.,.F.,.F.,
  (2,2),(-5.332644320446,-1.36),.PIECEWISE_BEZIER_KNOTS.);
#253 = CARTESIAN_POINT('',(-2.983899015112,-2.777300859914,
    95.877482592204));
#254 = CARTESIAN_POINT('',(-1.27402195706,-1.067423801861,
    95.877482592204));
#255 = ORIENTED_EDGE('',*,*,#256,.T.);
#256 = EDGE_CURVE('',#250,#257,#259,.T.);
#257 = VERTEX_POINT('',#258);
#258 = CARTESIAN_POINT('',(-1.067423801861,-1.27402195706,
    95.877482592204));
#259 = B_SPLINE_CURVE_WITH_KNOTS('',1,(#260,#261),.UNSPECIFIED.,.F.,.F.,
  (2,2),(-0.12,0.36),.PIECEWISE_BEZIER_KNOTS.);
#260 = CARTESIAN_POINT('',(-1.27402195706,-1.067423801861,
    95.877482592204));
#261 = CARTESIAN_POINT('',(-1.067423801861,-1.27402195706,
    95.877482592204));
#262 = ORIENTED_EDGE('',*,*,#263,.F.);
#263 = EDGE_CURVE('',#264,#257,#266,.T.);
#264 = VERTEX_POINT('',#265);
#265 = CARTESIAN_POINT('',(-2.777300859914,-2.983899015112,
    95.877482592204));
#266 = B_SPLINE_CURVE_WITH_KNOTS('',1,(#267,#268),.UNSPECIFIED.,.F.,.F.,
  (2,2),(-5.332644320446,-1.36),.PIECEWISE_BEZIER_KNOTS.);
#267 = CARTESIAN_POINT('',(-2.777300859914,-2.983899015112,
    95.877482592204));
#268 = CARTESIAN_POINT('',(-1.067423801861,-1.27402195706,
    95.877482592204));
#269 = ORIENTED_EDGE('',*,*,#270,.F.);
#270 = EDGE_CURVE('',#248,#264,#271,.T.);
#271 = B_SPLINE_CURVE_WITH_KNOTS('',1,(#272,#273),.UNSPECIFIED.,.F.,.F.,
  (2,2),(-0.12,0.36),.PIECEWISE_BEZIER_KNOTS.);
#272 = CARTESIAN_POINT('',(-2.983899015112,-2.777300859914,
    95.877482592204));
#273 = CARTESIAN_POINT('',(-2.777300859914,-2.983899015112,
    95.877482592204));
#274 = B_SPLINE_SURFACE_WITH_KNOTS('',1,1,(
    (#275,#276)
    ,(#277,#278
    )),.UNSPECIFIED.,.F.,.F.,.F.,(2,2),(2,2),(-3.718135733581,
    7.436271467162),(-6.44,6.44),.PIECEWISE_BEZIER_KNOTS.);
#275 = CARTESIAN_POINT('',(4.37219188087,-1.171525283633,95.877482592204
    ));
#276 = CARTESIAN_POINT('',(-3.200666597237,-3.200666597237,
    95.877482592204));
#277 = CARTESIAN_POINT('',(2.61490395542,5.386762537671,95.877482592204)
  );
#278 = CARTESIAN_POINT('',(-4.957954522686,3.357621224068,
    95.877482592204));
#279 = ADVANCED_FACE('',(#280),#302,.T.);
#280 = FACE_BOUND('',#281,.T.);
#281 = EDGE_LOOP('',(#282,#289,#296,#301));
#282 = ORIENTED_EDGE('',*,*,#283,.F.);
#283 = EDGE_CURVE('',#284,#218,#286,.T.);
#284 = VERTEX_POINT('',#285);
#285 = CARTESIAN_POINT('',(-0.913263591081,3.972782779372,
    95.603569548725));
#286 = B_SPLINE_CURVE_WITH_KNOTS('',1,(#287,#288),.UNSPECIFIED.,.F.,.F.,
  (2,2),(0.,0.45),.PIECEWISE_BEZIER_KNOTS.);
#287 = CARTESIAN_POINT('',(-0.913263591081,3.972782779372,
    95.603569548725));
#288 = CARTESIAN_POINT('',(-0.913263591081,3.972782779372,
    95.877482592204));
#289 = ORIENTED_EDGE('',*,*,#290,.F.);
#290 = EDGE_CURVE('',#291,#284,#293,.T.);
#291 = VERTEX_POINT('',#292);
#292 = CARTESIAN_POINT('',(-0.287405150486,1.637047280723,
    95.603569548725));
#293 = B_SPLINE_CURVE_WITH_KNOTS('',1,(#294,#295),.UNSPECIFIED.,.F.,.F.,
  (2,2),(0.,3.972644320446),.PIECEWISE_BEZIER_KNOTS.);
#294 = CARTESIAN_POINT('',(-0.287405150486,1.637047280723,
    95.603569548725));
#295 = CARTESIAN_POINT('',(-0.913263591081,3.972782779372,
    95.603569548725));
#296 = ORIENTED_EDGE('',*,*,#297,.T.);
#297 = EDGE_CURVE('',#291,#220,#298,.T.);
#298 = B_SPLINE_CURVE_WITH_KNOTS('',1,(#299,#300),.UNSPECIFIED.,.F.,.F.,
  (2,2),(0.,0.45),.PIECEWISE_BEZIER_KNOTS.);
#299 = CARTESIAN_POINT('',(-0.287405150486,1.637047280723,
    95.603569548725));
#300 = CARTESIAN_POINT('',(-0.287405150486,1.637047280723,
    95.877482592204));
#301 = ORIENTED_EDGE('',*,*,#217,.F.);
#302 = B_SPLINE_SURFACE_WITH_KNOTS('',1,1,(
    (#303,#304)
    ,(#305,#306
    )),.UNSPECIFIED.,.F.,.F.,.F.,(2,2),(2,2),(0.,0.45),(0.,
    3.972644320446),.PIECEWISE_BEZIER_KNOTS.);
#303 = CARTESIAN_POINT('',(-0.287405150486,1.637047280723,
    95.603569548725));
#304 = CARTESIAN_POINT('',(-0.913263591081,3.972782779372,
    95.603569548725));
#305 = CARTESIAN_POINT('',(-0.287405150486,1.637047280723,
    95.877482592204));
#306 = CARTESIAN_POINT('',(-0.913263591081,3.972782779372,
    95.877482592204));
#307 = ADVANCED_FACE('',(#308),#324,.F.);
#308 = FACE_BOUND('',#309,.F.);
#309 = EDGE_LOOP('',(#310,#311,#318,#323));
#310 = ORIENTED_EDGE('',*,*,#283,.F.);
#311 = ORIENTED_EDGE('',*,*,#312,.T.);
#312 = EDGE_CURVE('',#284,#313,#315,.T.);
#313 = VERTEX_POINT('',#314);
#314 = CARTESIAN_POINT('',(-1.195481919458,3.897162606194,
    95.603569548725));
#315 = B_SPLINE_CURVE_WITH_KNOTS('',1,(#316,#317),.UNSPECIFIED.,.F.,.F.,
  (2,2),(0.,0.48),.PIECEWISE_BEZIER_KNOTS.);
#316 = CARTESIAN_POINT('',(-0.913263591081,3.972782779372,
    95.603569548725));
#317 = CARTESIAN_POINT('',(-1.195481919458,3.897162606194,
    95.603569548725));
#318 = ORIENTED_EDGE('',*,*,#319,.T.);
#319 = EDGE_CURVE('',#313,#234,#320,.T.);
#320 = B_SPLINE_CURVE_WITH_KNOTS('',1,(#321,#322),.UNSPECIFIED.,.F.,.F.,
  (2,2),(0.,0.45),.PIECEWISE_BEZIER_KNOTS.);
#321 = CARTESIAN_POINT('',(-1.195481919458,3.897162606194,
    95.603569548725));
#322 = CARTESIAN_POINT('',(-1.195481919458,3.897162606194,
    95.877482592204));
#323 = ORIENTED_EDGE('',*,*,#240,.F.);
#324 = B_SPLINE_SURFACE_WITH_KNOTS('',1,1,(
    (#325,#326)
    ,(#327,#328
    )),.UNSPECIFIED.,.F.,.F.,.F.,(2,2),(2,2),(0.,0.45),(-0.48,0.),
  .PIECEWISE_BEZIER_KNOTS.);
#325 = CARTESIAN_POINT('',(-1.195481919458,3.897162606194,
    95.603569548725));
#326 = CARTESIAN_POINT('',(-0.913263591081,3.972782779372,
    95.603569548725));
#327 = CARTESIAN_POINT('',(-1.195481919458,3.897162606194,
    95.877482592204));
#328 = CARTESIAN_POINT('',(-0.913263591081,3.972782779372,
    95.877482592204));
#329 = ADVANCED_FACE('',(#330),#346,.T.);
#330 = FACE_BOUND('',#331,.T.);
#331 = EDGE_LOOP('',(#332,#333,#340,#345));
#332 = ORIENTED_EDGE('',*,*,#297,.F.);
#333 = ORIENTED_EDGE('',*,*,#334,.T.);
#334 = EDGE_CURVE('',#291,#335,#337,.T.);
#335 = VERTEX_POINT('',#336);
#336 = CARTESIAN_POINT('',(-0.569623478862,1.561427107545,
    95.603569548725));
#337 = B_SPLINE_CURVE_WITH_KNOTS('',1,(#338,#339),.UNSPECIFIED.,.F.,.F.,
  (2,2),(0.,0.48),.PIECEWISE_BEZIER_KNOTS.);
#338 = CARTESIAN_POINT('',(-0.287405150486,1.637047280723,
    95.603569548725));
#339 = CARTESIAN_POINT('',(-0.569623478862,1.561427107545,
    95.603569548725));
#340 = ORIENTED_EDGE('',*,*,#341,.T.);
#341 = EDGE_CURVE('',#335,#227,#342,.T.);
#342 = B_SPLINE_CURVE_WITH_KNOTS('',1,(#343,#344),.UNSPECIFIED.,.F.,.F.,
  (2,2),(0.,0.45),.PIECEWISE_BEZIER_KNOTS.);
#343 = CARTESIAN_POINT('',(-0.569623478862,1.561427107545,
    95.603569548725));
#344 = CARTESIAN_POINT('',(-0.569623478862,1.561427107545,
    95.877482592204));
#345 = ORIENTED_EDGE('',*,*,#226,.F.);
#346 = B_SPLINE_SURFACE_WITH_KNOTS('',1,1,(
    (#347,#348)
    ,(#349,#350
    )),.UNSPECIFIED.,.F.,.F.,.F.,(2,2),(2,2),(0.,0.45),(-0.48,0.),
  .PIECEWISE_BEZIER_KNOTS.);
#347 = CARTESIAN_POINT('',(-0.569623478862,1.561427107545,
    95.603569548725));
#348 = CARTESIAN_POINT('',(-0.287405150486,1.637047280723,
    95.603569548725));
#349 = CARTESIAN_POINT('',(-0.569623478862,1.561427107545,
    95.877482592204));
#350 = CARTESIAN_POINT('',(-0.287405150486,1.637047280723,
    95.877482592204));
#351 = ADVANCED_FACE('',(#352),#362,.F.);
#352 = FACE_BOUND('',#353,.F.);
#353 = EDGE_LOOP('',(#354,#355,#360,#361));
#354 = ORIENTED_EDGE('',*,*,#319,.F.);
#355 = ORIENTED_EDGE('',*,*,#356,.F.);
#356 = EDGE_CURVE('',#335,#313,#357,.T.);
#357 = B_SPLINE_CURVE_WITH_KNOTS('',1,(#358,#359),.UNSPECIFIED.,.F.,.F.,
  (2,2),(0.,3.972644320446),.PIECEWISE_BEZIER_KNOTS.);
#358 = CARTESIAN_POINT('',(-0.569623478862,1.561427107545,
    95.603569548725));
#359 = CARTESIAN_POINT('',(-1.195481919458,3.897162606194,
    95.603569548725));
#360 = ORIENTED_EDGE('',*,*,#341,.T.);
#361 = ORIENTED_EDGE('',*,*,#233,.F.);
#362 = B_SPLINE_SURFACE_WITH_KNOTS('',1,1,(
    (#363,#364)
    ,(#365,#366
    )),.UNSPECIFIED.,.F.,.F.,.F.,(2,2),(2,2),(0.,0.45),(0.,
    3.972644320446),.PIECEWISE_BEZIER_KNOTS.);
#363 = CARTESIAN_POINT('',(-0.569623478862,1.561427107545,
    95.603569548725));
#364 = CARTESIAN_POINT('',(-1.195481919458,3.897162606194,
    95.603569548725));
#365 = CARTESIAN_POINT('',(-0.569623478862,1.561427107545,
    95.877482592204));
#366 = CARTESIAN_POINT('',(-1.195481919458,3.897162606194,
    95.877482592204));
#367 = ADVANCED_FACE('',(#368),#390,.T.);
#368 = FACE_BOUND('',#369,.T.);
#369 = EDGE_LOOP('',(#370,#377,#384,#389));
#370 = ORIENTED_EDGE('',*,*,#371,.F.);
#371 = EDGE_CURVE('',#372,#248,#374,.T.);
#372 = VERTEX_POINT('',#373);
#373 = CARTESIAN_POINT('',(-2.983899015112,-2.777300859914,
    95.603569548725));
#374 = B_SPLINE_CURVE_WITH_KNOTS('',1,(#375,#376),.UNSPECIFIED.,.F.,.F.,
  (2,2),(0.,0.45),.PIECEWISE_BEZIER_KNOTS.);
#375 = CARTESIAN_POINT('',(-2.983899015112,-2.777300859914,
    95.603569548725));
#376 = CARTESIAN_POINT('',(-2.983899015112,-2.777300859914,
    95.877482592204));
#377 = ORIENTED_EDGE('',*,*,#378,.F.);
#378 = EDGE_CURVE('',#379,#372,#381,.T.);
#379 = VERTEX_POINT('',#380);
#380 = CARTESIAN_POINT('',(-1.27402195706,-1.067423801861,
    95.603569548725));
#381 = B_SPLINE_CURVE_WITH_KNOTS('',1,(#382,#383),.UNSPECIFIED.,.F.,.F.,
  (2,2),(0.,3.972644320446),.PIECEWISE_BEZIER_KNOTS.);
#382 = CARTESIAN_POINT('',(-1.27402195706,-1.067423801861,
    95.603569548725));
#383 = CARTESIAN_POINT('',(-2.983899015112,-2.777300859914,
    95.603569548725));
#384 = ORIENTED_EDGE('',*,*,#385,.T.);
#385 = EDGE_CURVE('',#379,#250,#386,.T.);
#386 = B_SPLINE_CURVE_WITH_KNOTS('',1,(#387,#388),.UNSPECIFIED.,.F.,.F.,
  (2,2),(0.,0.45),.PIECEWISE_BEZIER_KNOTS.);
#387 = CARTESIAN_POINT('',(-1.27402195706,-1.067423801861,
    95.603569548725));
#388 = CARTESIAN_POINT('',(-1.27402195706,-1.067423801861,
    95.877482592204));
#389 = ORIENTED_EDGE('',*,*,#247,.F.);
#390 = B_SPLINE_SURFACE_WITH_KNOTS('',1,1,(
    (#391,#392)
    ,(#393,#394
    )),.UNSPECIFIED.,.F.,.F.,.F.,(2,2),(2,2),(0.,0.45),(0.,
    3.972644320446),.PIECEWISE_BEZIER_KNOTS.);
#391 = CARTESIAN_POINT('',(-1.27402195706,-1.067423801861,
    95.603569548725));
#392 = CARTESIAN_POINT('',(-2.983899015112,-2.777300859914,
    95.603569548725));
#393 = CARTESIAN_POINT('',(-1.27402195706,-1.067423801861,
    95.877482592204));
#394 = CARTESIAN_POINT('',(-2.983899015112,-2.777300859914,
    95.877482592204));
#395 = ADVANCED_FACE('',(#396),#412,.F.);
#396 = FACE_BOUND('',#397,.F.);
#397 = EDGE_LOOP('',(#398,#399,#406,#411));
#398 = ORIENTED_EDGE('',*,*,#371,.F.);
#399 = ORIENTED_EDGE('',*,*,#400,.T.);
#400 = EDGE_CURVE('',#372,#401,#403,.T.);
#401 = VERTEX_POINT('',#402);
#402 = CARTESIAN_POINT('',(-2.777300859914,-2.983899015112,
    95.603569548725));
#403 = B_SPLINE_CURVE_WITH_KNOTS('',1,(#404,#405),.UNSPECIFIED.,.F.,.F.,
  (2,2),(0.,0.48),.PIECEWISE_BEZIER_KNOTS.);
#404 = CARTESIAN_POINT('',(-2.983899015112,-2.777300859914,
    95.603569548725));
#405 = CARTESIAN_POINT('',(-2.777300859914,-2.983899015112,
    95.603569548725));
#406 = ORIENTED_EDGE('',*,*,#407,.T.);
#407 = EDGE_CURVE('',#401,#264,#408,.T.);
#408 = B_SPLINE_CURVE_WITH_KNOTS('',1,(#409,#410),.UNSPECIFIED.,.F.,.F.,
  (2,2),(0.,0.45),.PIECEWISE_BEZIER_KNOTS.);
#409 = CARTESIAN_POINT('',(-2.777300859914,-2.983899015112,
    95.603569548725));
#410 = CARTESIAN_POINT('',(-2.777300859914,-2.983899015112,
    95.877482592204));
#411 = ORIENTED_EDGE('',*,*,#270,.F.);
#412 = B_SPLINE_SURFACE_WITH_KNOTS('',1,1,(
    (#413,#414)
    ,(#415,#416
    )),.UNSPECIFIED.,.F.,.F.,.F.,(2,2),(2,2),(0.,0.45),(-0.48,0.),
  .PIECEWISE_BEZIER_KNOTS.);
#413 = CARTESIAN_POINT('',(-2.777300859914,-2.983899015112,
    95.603569548725));
#414 = CARTESIAN_POINT('',(-2.983899015112,-2.777300859914,
    95.603569548725));
#415 = CARTESIAN_POINT('',(-2.777300859914,-2.983899015112,
    95.877482592204));
#416 = CARTESIAN_POINT('',(-2.983899015112,-2.777300859914,
    95.877482592204));
#417 = ADVANCED_FACE('',(#418),#434,.F.);
#418 = FACE_BOUND('',#419,.F.);
#419 = EDGE_LOOP('',(#420,#421,#428,#433));
#420 = ORIENTED_EDGE('',*,*,#407,.F.);
#421 = ORIENTED_EDGE('',*,*,#422,.F.);
#422 = EDGE_CURVE('',#423,#401,#425,.T.);
#423 = VERTEX_POINT('',#424);
#424 = CARTESIAN_POINT('',(-1.067423801861,-1.27402195706,
    95.603569548725));
#425 = B_SPLINE_CURVE_WITH_KNOTS('',1,(#426,#427),.UNSPECIFIED.,.F.,.F.,
  (2,2),(0.,3.972644320446),.PIECEWISE_BEZIER_KNOTS.);
#426 = CARTESIAN_POINT('',(-1.067423801861,-1.27402195706,
    95.603569548725));
#427 = CARTESIAN_POINT('',(-2.777300859914,-2.983899015112,
    95.603569548725));
#428 = ORIENTED_EDGE('',*,*,#429,.T.);
#429 = EDGE_CURVE('',#423,#257,#430,.T.);
#430 = B_SPLINE_CURVE_WITH_KNOTS('',1,(#431,#432),.UNSPECIFIED.,.F.,.F.,
  (2,2),(0.,0.45),.PIECEWISE_BEZIER_KNOTS.);
#431 = CARTESIAN_POINT('',(-1.067423801861,-1.27402195706,
    95.603569548725));
#432 = CARTESIAN_POINT('',(-1.067423801861,-1.27402195706,
    95.877482592204));
#433 = ORIENTED_EDGE('',*,*,#263,.F.);
#434 = B_SPLINE_SURFACE_WITH_KNOTS('',1,1,(
    (#435,#436)
    ,(#437,#438
    )),.UNSPECIFIED.,.F.,.F.,.F.,(2,2),(2,2),(0.,0.45),(0.,
    3.972644320446),.PIECEWISE_BEZIER_KNOTS.);
#435 = CARTESIAN_POINT('',(-1.067423801861,-1.27402195706,
    95.603569548725));
#436 = CARTESIAN_POINT('',(-2.777300859914,-2.983899015112,
    95.603569548725));
#437 = CARTESIAN_POINT('',(-1.067423801861,-1.27402195706,
    95.877482592204));
#438 = CARTESIAN_POINT('',(-2.777300859914,-2.983899015112,
    95.877482592204));
#439 = ADVANCED_FACE('',(#440),#450,.T.);
#440 = FACE_BOUND('',#441,.T.);
#441 = EDGE_LOOP('',(#442,#443,#448,#449));
#442 = ORIENTED_EDGE('',*,*,#385,.F.);
#443 = ORIENTED_EDGE('',*,*,#444,.T.);
#444 = EDGE_CURVE('',#379,#423,#445,.T.);
#445 = B_SPLINE_CURVE_WITH_KNOTS('',1,(#446,#447),.UNSPECIFIED.,.F.,.F.,
  (2,2),(0.,0.48),.PIECEWISE_BEZIER_KNOTS.);
#446 = CARTESIAN_POINT('',(-1.27402195706,-1.067423801861,
    95.603569548725));
#447 = CARTESIAN_POINT('',(-1.067423801861,-1.27402195706,
    95.603569548725));
#448 = ORIENTED_EDGE('',*,*,#429,.T.);
#449 = ORIENTED_EDGE('',*,*,#256,.F.);
#450 = B_SPLINE_SURFACE_WITH_KNOTS('',1,1,(
    (#451,#452)
    ,(#453,#454
    )),.UNSPECIFIED.,.F.,.F.,.F.,(2,2),(2,2),(0.,0.45),(-0.48,0.),
  .PIECEWISE_BEZIER_KNOTS.);
#451 = CARTESIAN_POINT('',(-1.067423801861,-1.27402195706,
    95.603569548725));
#452 = CARTESIAN_POINT('',(-1.27402195706,-1.067423801861,
    95.603569548725));
#453 = CARTESIAN_POINT('',(-1.067423801861,-1.27402195706,
    95.877482592204));
#454 = CARTESIAN_POINT('',(-1.27402195706,-1.067423801861,
    95.877482592204));
#455 = ADVANCED_FACE('',(#456),#462,.T.);
#456 = FACE_BOUND('',#457,.T.);
#457 = EDGE_LOOP('',(#458,#459,#460,#461));
#458 = ORIENTED_EDGE('',*,*,#334,.F.);
#459 = ORIENTED_EDGE('',*,*,#290,.T.);
#460 = ORIENTED_EDGE('',*,*,#312,.T.);
#461 = ORIENTED_EDGE('',*,*,#356,.F.);
#462 = B_SPLINE_SURFACE_WITH_KNOTS('',1,1,(
    (#463,#464)
    ,(#465,#466
    )),.UNSPECIFIED.,.F.,.F.,.F.,(2,2),(2,2),(0.,3.972644320446),(0.,
    0.48),.PIECEWISE_BEZIER_KNOTS.);
#463 = CARTESIAN_POINT('',(-0.287405150486,1.637047280723,
    95.603569548725));
#464 = CARTESIAN_POINT('',(-0.569623478862,1.561427107545,
    95.603569548725));
#465 = CARTESIAN_POINT('',(-0.913263591081,3.972782779372,
    95.603569548725));
#466 = CARTESIAN_POINT('',(-1.195481919458,3.897162606194,
    95.603569548725));
#467 = ADVANCED_FACE('',(#468),#474,.T.);
#468 = FACE_BOUND('',#469,.T.);
#469 = EDGE_LOOP('',(#470,#471,#472,#473));
#470 = ORIENTED_EDGE('',*,*,#444,.F.);
#471 = ORIENTED_EDGE('',*,*,#378,.T.);
#472 = ORIENTED_EDGE('',*,*,#400,.T.);
#473 = ORIENTED_EDGE('',*,*,#422,.F.);
#474 = B_SPLINE_SURFACE_WITH_KNOTS('',1,1,(
    (#475,#476)
    ,(#477,#478
    )),.UNSPECIFIED.,.F.,.F.,.F.,(2,2),(2,2),(0.,3.972644320446),(0.,
    0.48),.PIECEWISE_BEZIER_KNOTS.);
#475 = CARTESIAN_POINT('',(-1.27402195706,-1.067423801861,
    95.603569548725));
#476 = CARTESIAN_POINT('',(-1.067423801861,-1.27402195706,
    95.603569548725));
#477 = CARTESIAN_POINT('',(-2.983899015112,-2.777300859914,
    95.603569548725));
#478 = CARTESIAN_POINT('',(-2.777300859914,-2.983899015112,
    95.603569548725));
#479 = ( GEOMETRIC_REPRESENTATION_CONTEXT(3) 
GLOBAL_UNCERTAINTY_ASSIGNED_CONTEXT((#483)) GLOBAL_UNIT_ASSIGNED_CONTEXT
((#480,#481,#482)) REPRESENTATION_CONTEXT('Context #1',
  '3D Context with UNIT and UNCERTAINTY') );
#480 = ( LENGTH_UNIT() NAMED_UNIT(*) SI_UNIT(.MILLI.,.METRE.) );
#481 = ( NAMED_UNIT(*) PLANE_ANGLE_UNIT() SI_UNIT($,.RADIAN.) );
#482 = ( NAMED_UNIT(*) SI_UNIT($,.STERADIAN.) SOLID_ANGLE_UNIT() );
#483 = UNCERTAINTY_MEASURE_WITH_UNIT(LENGTH_MEASURE(1.E-07),#480,
  'distance_accuracy_value','confusion accuracy');
#484 = PRODUCT_RELATED_PRODUCT_CATEGORY('part',$,(#7));
ENDSEC;
END-ISO-10303-21;
