ISO-10303-21;
HEADER;
FILE_DESCRIPTION(('FreeCAD Model'),'2;1');
FILE_NAME('Open CASCADE Shape Model','2026-07-29T09:33:04',('FreeCAD'),(
    'FreeCAD'),'Open CASCADE STEP processor 7.8','FreeCAD','Unknown');
FILE_SCHEMA(('AUTOMOTIVE_DESIGN { 1 0 10303 214 1 1 1 1 }'));
ENDSEC;
DATA;
#1 = APPLICATION_PROTOCOL_DEFINITION('international standard',
  'automotive_design',2000,#2);
#2 = APPLICATION_CONTEXT(
  'core data for automotive mechanical design processes');
#3 = SHAPE_DEFINITION_REPRESENTATION(#4,#10);
#4 = PRODUCT_DEFINITION_SHAPE('','',#5);
#5 = PRODUCT_DEFINITION('design','',#6,#9);
#6 = PRODUCT_DEFINITION_FORMATION('','',#7);
#7 = PRODUCT('Open CASCADE STEP translator 7.8 84',
  'Open CASCADE STEP translator 7.8 84','',(#8));
#8 = PRODUCT_CONTEXT('',#2,'mechanical');
#9 = PRODUCT_DEFINITION_CONTEXT('part definition',#2,'design');
#10 = ADVANCED_BREP_SHAPE_REPRESENTATION('',(#11,#15),#143);
#11 = AXIS2_PLACEMENT_3D('',#12,#13,#14);
#12 = CARTESIAN_POINT('',(0.,0.,0.));
#13 = DIRECTION('',(0.,0.,1.));
#14 = DIRECTION('',(1.,0.,-0.));
#15 = MANIFOLD_SOLID_BREP('',#16);
#16 = CLOSED_SHELL('',(#17,#65,#74,#97,#134));
#17 = ADVANCED_FACE('',(#18),#50,.T.);
#18 = FACE_BOUND('',#19,.T.);
#19 = EDGE_LOOP('',(#20,#32,#39,#49));
#20 = ORIENTED_EDGE('',*,*,#21,.F.);
#21 = EDGE_CURVE('',#22,#22,#24,.T.);
#22 = VERTEX_POINT('',#23);
#23 = CARTESIAN_POINT('',(-0.346592460398,1.293500671726,95.17246816888)
  );
#24 = ( BOUNDED_CURVE() B_SPLINE_CURVE(2,(#25,#26,#27,#28,#29,#30,#31),
.UNSPECIFIED.,.T.,.F.) B_SPLINE_CURVE_WITH_KNOTS((1,2,2,2,2,1),(
    -2.094395102393,0.,2.094395102393,4.188790204786,6.28318530718,
8.377580409573),.UNSPECIFIED.) CURVE() GEOMETRIC_REPRESENTATION_ITEM() 
RATIONAL_B_SPLINE_CURVE((1.,0.5,1.,0.5,1.,0.5,1.)) REPRESENTATION_ITEM(
  '') );
#25 = CARTESIAN_POINT('',(-0.346592460398,1.293500671726,95.17246816888)
  );
#26 = CARTESIAN_POINT('',(-2.587001343452,0.693184920796,95.17246816888)
  );
#27 = CARTESIAN_POINT('',(-0.946908211328,-0.946908211328,95.17246816888
    ));
#28 = CARTESIAN_POINT('',(0.693184920796,-2.587001343452,95.17246816888)
  );
#29 = CARTESIAN_POINT('',(1.293500671726,-0.346592460398,95.17246816888)
  );
#30 = CARTESIAN_POINT('',(1.893816422656,1.893816422656,95.17246816888)
  );
#31 = CARTESIAN_POINT('',(-0.346592460398,1.293500671726,95.17246816888)
  );
#32 = ORIENTED_EDGE('',*,*,#33,.F.);
#33 = EDGE_CURVE('',#34,#22,#36,.T.);
#34 = VERTEX_POINT('',#35);
#35 = CARTESIAN_POINT('',(-0.346592460398,1.293500671726,94.898555125402
    ));
#36 = B_SPLINE_CURVE_WITH_KNOTS('',1,(#37,#38),.UNSPECIFIED.,.F.,.F.,(2,
    2),(0.,0.45),.PIECEWISE_BEZIER_KNOTS.);
#37 = CARTESIAN_POINT('',(-0.346592460398,1.293500671726,94.898555125402
    ));
#38 = CARTESIAN_POINT('',(-0.346592460398,1.293500671726,95.17246816888)
  );
#39 = ORIENTED_EDGE('',*,*,#40,.T.);
#40 = EDGE_CURVE('',#34,#34,#41,.T.);
#41 = ( BOUNDED_CURVE() B_SPLINE_CURVE(2,(#42,#43,#44,#45,#46,#47,#48),
.UNSPECIFIED.,.T.,.F.) B_SPLINE_CURVE_WITH_KNOTS((1,2,2,2,2,1),(
    -2.094395102393,0.,2.094395102393,4.188790204786,6.28318530718,
8.377580409573),.UNSPECIFIED.) CURVE() GEOMETRIC_REPRESENTATION_ITEM() 
RATIONAL_B_SPLINE_CURVE((1.,0.5,1.,0.5,1.,0.5,1.)) REPRESENTATION_ITEM(
  '') );
#42 = CARTESIAN_POINT('',(-0.346592460398,1.293500671726,94.898555125402
    ));
#43 = CARTESIAN_POINT('',(-2.587001343452,0.693184920796,94.898555125402
    ));
#44 = CARTESIAN_POINT('',(-0.946908211328,-0.946908211328,
    94.898555125402));
#45 = CARTESIAN_POINT('',(0.693184920796,-2.587001343452,94.898555125402
    ));
#46 = CARTESIAN_POINT('',(1.293500671726,-0.346592460398,94.898555125402
    ));
#47 = CARTESIAN_POINT('',(1.893816422656,1.893816422656,94.898555125402)
  );
#48 = CARTESIAN_POINT('',(-0.346592460398,1.293500671726,94.898555125402
    ));
#49 = ORIENTED_EDGE('',*,*,#33,.T.);
#50 = ( BOUNDED_SURFACE() B_SPLINE_SURFACE(2,1,(
    (#51,#52)
    ,(#53,#54)
    ,(#55,#56)
    ,(#57,#58)
    ,(#59,#60)
    ,(#61,#62)
,(#63,#64
    )),.UNSPECIFIED.,.T.,.F.,.F.) B_SPLINE_SURFACE_WITH_KNOTS((1,2,2,2,2
    ,1),(2,2),(-2.094395102393,0.,2.094395102393,4.188790204786,
    6.28318530718,8.377580409573),(0.,0.45),.UNSPECIFIED.) 
GEOMETRIC_REPRESENTATION_ITEM() RATIONAL_B_SPLINE_SURFACE((
    (1.,1.)
    ,(0.5,0.5)
    ,(1.,1.)
    ,(0.5,0.5)
    ,(1.,1.)
    ,(0.5,0.5)
,(1.,1.))) REPRESENTATION_ITEM('') SURFACE() );
#51 = CARTESIAN_POINT('',(-0.346592460398,1.293500671726,94.898555125402
    ));
#52 = CARTESIAN_POINT('',(-0.346592460398,1.293500671726,95.17246816888)
  );
#53 = CARTESIAN_POINT('',(-2.587001343452,0.693184920796,94.898555125402
    ));
#54 = CARTESIAN_POINT('',(-2.587001343452,0.693184920796,95.17246816888)
  );
#55 = CARTESIAN_POINT('',(-0.946908211328,-0.946908211328,
    94.898555125402));
#56 = CARTESIAN_POINT('',(-0.946908211328,-0.946908211328,95.17246816888
    ));
#57 = CARTESIAN_POINT('',(0.693184920796,-2.587001343452,94.898555125402
    ));
#58 = CARTESIAN_POINT('',(0.693184920796,-2.587001343452,95.17246816888)
  );
#59 = CARTESIAN_POINT('',(1.293500671726,-0.346592460398,94.898555125402
    ));
#60 = CARTESIAN_POINT('',(1.293500671726,-0.346592460398,95.17246816888)
  );
#61 = CARTESIAN_POINT('',(1.893816422656,1.893816422656,94.898555125402)
  );
#62 = CARTESIAN_POINT('',(1.893816422656,1.893816422656,95.17246816888)
  );
#63 = CARTESIAN_POINT('',(-0.346592460398,1.293500671726,94.898555125402
    ));
#64 = CARTESIAN_POINT('',(-0.346592460398,1.293500671726,95.17246816888)
  );
#65 = ADVANCED_FACE('',(#66),#69,.T.);
#66 = FACE_BOUND('',#67,.T.);
#67 = EDGE_LOOP('',(#68));
#68 = ORIENTED_EDGE('',*,*,#21,.T.);
#69 = B_SPLINE_SURFACE_WITH_KNOTS('',1,1,(
    (#70,#71)
    ,(#72,#73
    )),.UNSPECIFIED.,.F.,.F.,.F.,(2,2),(2,2),(-2.2,2.2),(-2.2,2.2),
  .PIECEWISE_BEZIER_KNOTS.);
#70 = CARTESIAN_POINT('',(1.640093132124,-0.946908211328,95.17246816888)
  );
#71 = CARTESIAN_POINT('',(-0.946908211328,-1.640093132124,95.17246816888
    ));
#72 = CARTESIAN_POINT('',(0.946908211328,1.640093132124,95.17246816888)
  );
#73 = CARTESIAN_POINT('',(-1.640093132124,0.946908211328,95.17246816888)
  );
#74 = ADVANCED_FACE('',(#75,#78),#92,.F.);
#75 = FACE_BOUND('',#76,.F.);
#76 = EDGE_LOOP('',(#77));
#77 = ORIENTED_EDGE('',*,*,#40,.T.);
#78 = FACE_BOUND('',#79,.F.);
#79 = EDGE_LOOP('',(#80));
#80 = ORIENTED_EDGE('',*,*,#81,.F.);
#81 = EDGE_CURVE('',#82,#82,#84,.T.);
#82 = VERTEX_POINT('',#83);
#83 = CARTESIAN_POINT('',(-8.664811509954E-02,0.323375167932,
    94.898555125402));
#84 = ( BOUNDED_CURVE() B_SPLINE_CURVE(2,(#85,#86,#87,#88,#89,#90,#91),
.UNSPECIFIED.,.T.,.F.) B_SPLINE_CURVE_WITH_KNOTS((1,2,2,2,2,1),(
    -2.094395102393,0.,2.094395102393,4.188790204786,6.28318530718,
8.377580409573),.UNSPECIFIED.) CURVE() GEOMETRIC_REPRESENTATION_ITEM() 
RATIONAL_B_SPLINE_CURVE((1.,0.5,1.,0.5,1.,0.5,1.)) REPRESENTATION_ITEM(
  '') );
#85 = CARTESIAN_POINT('',(-8.664811509954E-02,0.323375167932,
    94.898555125402));
#86 = CARTESIAN_POINT('',(-0.646750335863,0.173296230199,94.898555125402
    ));
#87 = CARTESIAN_POINT('',(-0.236727052832,-0.236727052832,
    94.898555125402));
#88 = CARTESIAN_POINT('',(0.173296230199,-0.646750335863,94.898555125402
    ));
#89 = CARTESIAN_POINT('',(0.323375167932,-8.664811509954E-02,
    94.898555125402));
#90 = CARTESIAN_POINT('',(0.473454105664,0.473454105664,94.898555125402)
  );
#91 = CARTESIAN_POINT('',(-8.664811509954E-02,0.323375167932,
    94.898555125402));
#92 = B_SPLINE_SURFACE_WITH_KNOTS('',1,1,(
    (#93,#94)
    ,(#95,#96
    )),.UNSPECIFIED.,.F.,.F.,.F.,(2,2),(2,2),(-2.2,2.2),(-2.2,2.2),
  .PIECEWISE_BEZIER_KNOTS.);
#93 = CARTESIAN_POINT('',(1.640093132124,-0.946908211328,94.898555125402
    ));
#94 = CARTESIAN_POINT('',(-0.946908211328,-1.640093132124,
    94.898555125402));
#95 = CARTESIAN_POINT('',(0.946908211328,1.640093132124,94.898555125402)
  );
#96 = CARTESIAN_POINT('',(-1.640093132124,0.946908211328,94.898555125402
    ));
#97 = ADVANCED_FACE('',(#98),#119,.T.);
#98 = FACE_BOUND('',#99,.T.);
#99 = EDGE_LOOP('',(#100,#101,#108,#118));
#100 = ORIENTED_EDGE('',*,*,#81,.F.);
#101 = ORIENTED_EDGE('',*,*,#102,.F.);
#102 = EDGE_CURVE('',#103,#82,#105,.T.);
#103 = VERTEX_POINT('',#104);
#104 = CARTESIAN_POINT('',(-8.664811509954E-02,0.323375167932,
    94.198555125402));
#105 = B_SPLINE_CURVE_WITH_KNOTS('',1,(#106,#107),.UNSPECIFIED.,.F.,.F.,
  (2,2),(0.,1.15),.PIECEWISE_BEZIER_KNOTS.);
#106 = CARTESIAN_POINT('',(-8.664811509954E-02,0.323375167932,
    94.198555125402));
#107 = CARTESIAN_POINT('',(-8.664811509954E-02,0.323375167932,
    94.898555125402));
#108 = ORIENTED_EDGE('',*,*,#109,.T.);
#109 = EDGE_CURVE('',#103,#103,#110,.T.);
#110 = ( BOUNDED_CURVE() B_SPLINE_CURVE(2,(#111,#112,#113,#114,#115,#116
,#117),.UNSPECIFIED.,.T.,.F.) B_SPLINE_CURVE_WITH_KNOTS((1,2,2,2,2,1),(
    -2.094395102393,0.,2.094395102393,4.188790204786,6.28318530718,
8.377580409573),.UNSPECIFIED.) CURVE() GEOMETRIC_REPRESENTATION_ITEM() 
RATIONAL_B_SPLINE_CURVE((1.,0.5,1.,0.5,1.,0.5,1.)) REPRESENTATION_ITEM(
  '') );
#111 = CARTESIAN_POINT('',(-8.664811509954E-02,0.323375167932,
    94.198555125402));
#112 = CARTESIAN_POINT('',(-0.646750335863,0.173296230199,
    94.198555125402));
#113 = CARTESIAN_POINT('',(-0.236727052832,-0.236727052832,
    94.198555125402));
#114 = CARTESIAN_POINT('',(0.173296230199,-0.646750335863,
    94.198555125402));
#115 = CARTESIAN_POINT('',(0.323375167932,-8.664811509954E-02,
    94.198555125402));
#116 = CARTESIAN_POINT('',(0.473454105664,0.473454105664,94.198555125402
    ));
#117 = CARTESIAN_POINT('',(-8.664811509954E-02,0.323375167932,
    94.198555125402));
#118 = ORIENTED_EDGE('',*,*,#102,.T.);
#119 = ( BOUNDED_SURFACE() B_SPLINE_SURFACE(2,1,(
    (#120,#121)
    ,(#122,#123)
    ,(#124,#125)
    ,(#126,#127)
    ,(#128,#129)
    ,(#130,#131)
,(#132,#133
    )),.UNSPECIFIED.,.T.,.F.,.F.) B_SPLINE_SURFACE_WITH_KNOTS((1,2,2,2,2
    ,1),(2,2),(-2.094395102393,0.,2.094395102393,4.188790204786,
    6.28318530718,8.377580409573),(0.,1.15),.UNSPECIFIED.) 
GEOMETRIC_REPRESENTATION_ITEM() RATIONAL_B_SPLINE_SURFACE((
    (1.,1.)
    ,(0.5,0.5)
    ,(1.,1.)
    ,(0.5,0.5)
    ,(1.,1.)
    ,(0.5,0.5)
,(1.,1.))) REPRESENTATION_ITEM('') SURFACE() );
#120 = CARTESIAN_POINT('',(-8.664811509954E-02,0.323375167932,
    94.198555125402));
#121 = CARTESIAN_POINT('',(-8.664811509954E-02,0.323375167932,
    94.898555125402));
#122 = CARTESIAN_POINT('',(-0.646750335863,0.173296230199,
    94.198555125402));
#123 = CARTESIAN_POINT('',(-0.646750335863,0.173296230199,
    94.898555125402));
#124 = CARTESIAN_POINT('',(-0.236727052832,-0.236727052832,
    94.198555125402));
#125 = CARTESIAN_POINT('',(-0.236727052832,-0.236727052832,
    94.898555125402));
#126 = CARTESIAN_POINT('',(0.173296230199,-0.646750335863,
    94.198555125402));
#127 = CARTESIAN_POINT('',(0.173296230199,-0.646750335863,
    94.898555125402));
#128 = CARTESIAN_POINT('',(0.323375167932,-8.664811509954E-02,
    94.198555125402));
#129 = CARTESIAN_POINT('',(0.323375167932,-8.664811509954E-02,
    94.898555125402));
#130 = CARTESIAN_POINT('',(0.473454105664,0.473454105664,94.198555125402
    ));
#131 = CARTESIAN_POINT('',(0.473454105664,0.473454105664,94.898555125402
    ));
#132 = CARTESIAN_POINT('',(-8.664811509954E-02,0.323375167932,
    94.198555125402));
#133 = CARTESIAN_POINT('',(-8.664811509954E-02,0.323375167932,
    94.898555125402));
#134 = ADVANCED_FACE('',(#135),#138,.F.);
#135 = FACE_BOUND('',#136,.T.);
#136 = EDGE_LOOP('',(#137));
#137 = ORIENTED_EDGE('',*,*,#109,.F.);
#138 = B_SPLINE_SURFACE_WITH_KNOTS('',1,1,(
    (#139,#140)
    ,(#141,#142
    )),.UNSPECIFIED.,.F.,.F.,.F.,(2,2),(2,2),(-0.55,0.55),(-0.55,0.55),
  .PIECEWISE_BEZIER_KNOTS.);
#139 = CARTESIAN_POINT('',(0.410023283031,-0.236727052832,
    94.198555125402));
#140 = CARTESIAN_POINT('',(-0.236727052832,-0.410023283031,
    94.198555125402));
#141 = CARTESIAN_POINT('',(0.236727052832,0.410023283031,94.198555125402
    ));
#142 = CARTESIAN_POINT('',(-0.410023283031,0.236727052832,
    94.198555125402));
#143 = ( GEOMETRIC_REPRESENTATION_CONTEXT(3) 
GLOBAL_UNCERTAINTY_ASSIGNED_CONTEXT((#147)) GLOBAL_UNIT_ASSIGNED_CONTEXT
((#144,#145,#146)) REPRESENTATION_CONTEXT('Context #1',
  '3D Context with UNIT and UNCERTAINTY') );
#144 = ( LENGTH_UNIT() NAMED_UNIT(*) SI_UNIT(.MILLI.,.METRE.) );
#145 = ( NAMED_UNIT(*) PLANE_ANGLE_UNIT() SI_UNIT($,.RADIAN.) );
#146 = ( NAMED_UNIT(*) SI_UNIT($,.STERADIAN.) SOLID_ANGLE_UNIT() );
#147 = UNCERTAINTY_MEASURE_WITH_UNIT(LENGTH_MEASURE(1.E-07),#144,
  'distance_accuracy_value','confusion accuracy');
#148 = PRODUCT_RELATED_PRODUCT_CATEGORY('part',$,(#7));
ENDSEC;
END-ISO-10303-21;
