ISO-10303-21;
HEADER;
FILE_DESCRIPTION(('FreeCAD Model'),'2;1');
FILE_NAME('Open CASCADE Shape Model','2026-07-29T09:33:04',('FreeCAD'),(
    'FreeCAD'),'Open CASCADE STEP processor 7.8','FreeCAD','Unknown');
FILE_SCHEMA(('AUTOMOTIVE_DESIGN { 1 0 10303 214 1 1 1 1 }'));
ENDSEC;
DATA;
#1 = APPLICATION_PROTOCOL_DEFINITION('international standard',
  'automotive_design',2000,#2);
#2 = APPLICATION_CONTEXT(
  'core data for automotive mechanical design processes');
#3 = SHAPE_DEFINITION_REPRESENTATION(#4,#10);
#4 = PRODUCT_DEFINITION_SHAPE('','',#5);
#5 = PRODUCT_DEFINITION('design','',#6,#9);
#6 = PRODUCT_DEFINITION_FORMATION('','',#7);
#7 = PRODUCT('Open CASCADE STEP translator 7.8 68',
  'Open CASCADE STEP translator 7.8 68','',(#8));
#8 = PRODUCT_CONTEXT('',#2,'mechanical');
#9 = PRODUCT_DEFINITION_CONTEXT('part definition',#2,'design');
#10 = ADVANCED_BREP_SHAPE_REPRESENTATION('',(#11,#15),#241);
#11 = AXIS2_PLACEMENT_3D('',#12,#13,#14);
#12 = CARTESIAN_POINT('',(0.,0.,0.));
#13 = DIRECTION('',(0.,0.,1.));
#14 = DIRECTION('',(1.,0.,-0.));
#15 = MANIFOLD_SOLID_BREP('',#16);
#16 = CLOSED_SHELL('',(#17,#118,#139,#168,#190,#212,#229));
#17 = ADVANCED_FACE('',(#18),#113,.T.);
#18 = FACE_BOUND('',#19,.T.);
#19 = EDGE_LOOP('',(#20,#31,#41,#73,#105));
#20 = ORIENTED_EDGE('',*,*,#21,.F.);
#21 = EDGE_CURVE('',#22,#24,#26,.T.);
#22 = VERTEX_POINT('',#23);
#23 = CARTESIAN_POINT('',(16.350704724757,61.522132467104,
    137.67681599496));
#24 = VERTEX_POINT('',#25);
#25 = CARTESIAN_POINT('',(-44.92119189497,45.104377249125,
    137.67681599496));
#26 = CIRCLE('',#27,63.657822208242);
#27 = AXIS2_PLACEMENT_3D('',#28,#29,#30);
#28 = CARTESIAN_POINT('',(0.,0.,137.67681599496));
#29 = DIRECTION('',(0.,0.,1.));
#30 = DIRECTION('',(1.,0.,-0.));
#31 = ORIENTED_EDGE('',*,*,#32,.T.);
#32 = EDGE_CURVE('',#22,#33,#35,.T.);
#33 = VERTEX_POINT('',#34);
#34 = CARTESIAN_POINT('',(21.864224550886,59.785232399687,
    129.50945829969));
#35 = B_SPLINE_CURVE_WITH_KNOTS('',4,(#36,#37,#38,#39,#40),
  .UNSPECIFIED.,.F.,.F.,(5,5),(0.,1.),.PIECEWISE_BEZIER_KNOTS.);
#36 = CARTESIAN_POINT('',(16.350704314726,61.522132576078,
    137.67681659496));
#37 = CARTESIAN_POINT('',(17.746515562018,61.151168566412,
    135.63432072085));
#38 = CARTESIAN_POINT('',(19.131039553854,60.737997615926,
    133.59179471186));
#39 = CARTESIAN_POINT('',(20.503803667071,60.282755725992,
    131.54993396322));
#40 = CARTESIAN_POINT('',(21.864224550886,59.785232399687,
    129.50945829969));
#41 = ORIENTED_EDGE('',*,*,#42,.T.);
#42 = EDGE_CURVE('',#33,#43,#45,.T.);
#43 = VERTEX_POINT('',#44);
#44 = CARTESIAN_POINT('',(-16.47585675724,61.488734516259,
    92.872879108138));
#45 = B_SPLINE_CURVE_WITH_KNOTS('',6,(#46,#47,#48,#49,#50,#51,#52,#53,
    #54,#55,#56,#57,#58,#59,#60,#61,#62,#63,#64,#65,#66,#67,#68,#69,#70,
    #71,#72),.UNSPECIFIED.,.F.,.F.,(7,5,5,5,5,7),(0.,0.225703386591,
    0.458153639986,0.701378534484,0.957216641993,1.),.UNSPECIFIED.);
#46 = CARTESIAN_POINT('',(21.864224550886,59.785232399687,
    129.50945829969));
#47 = CARTESIAN_POINT('',(20.159571017122,60.40864601117,128.42821837741
    ));
#48 = CARTESIAN_POINT('',(18.477383091313,60.957717437164,127.2951018776
    ));
#49 = CARTESIAN_POINT('',(16.819368653655,61.438191374925,126.1175613777
    ));
#50 = CARTESIAN_POINT('',(15.186544782341,61.855226574579,
    124.90177270604));
#51 = CARTESIAN_POINT('',(13.579201116956,62.213498676162,
    123.65270114224));
#52 = CARTESIAN_POINT('',(10.367350667863,62.829846969742,
    121.05719898672));
#53 = CARTESIAN_POINT('',(8.764584904198,63.08456618393,119.70915243725)
  );
#54 = CARTESIAN_POINT('',(7.188319665652,63.285799422366,118.33412043714
    ));
#55 = CARTESIAN_POINT('',(5.638192710294,63.437338688617,116.93553274803
    ));
#56 = CARTESIAN_POINT('',(4.113667671667,63.542496067357,115.51616508814
    ));
#57 = CARTESIAN_POINT('',(1.044861244821,63.668618748636,112.57348134258
    ));
#58 = CARTESIAN_POINT('',(-0.496960192306,63.685451918429,
    111.04849307524));
#59 = CARTESIAN_POINT('',(-2.012208886521,63.657911272392,
    109.50570373499));
#60 = CARTESIAN_POINT('',(-3.50155025157,63.588747087577,107.94719818512
    ));
#61 = CARTESIAN_POINT('',(-4.965652354614,63.480344514502,
    106.37469350901));
#62 = CARTESIAN_POINT('',(-7.919415720427,63.181622799784,
    103.12220842848));
#63 = CARTESIAN_POINT('',(-9.406417199664,62.987352231768,
    101.44093638122));
#64 = CARTESIAN_POINT('',(-10.86699012373,62.75434703262,99.747358258007
    ));
#65 = CARTESIAN_POINT('',(-12.30178805022,62.484632471703,
    98.042845770603));
#66 = CARTESIAN_POINT('',(-13.71141384438,62.179965173696,
    96.328552678432));
#67 = CARTESIAN_POINT('',(-15.32805499309,61.785321079964,
    94.317267435989));
#68 = CARTESIAN_POINT('',(-15.55898205478,61.727845653275,
    94.028864947609));
#69 = CARTESIAN_POINT('',(-15.78922329767,61.669442405017,
    93.740220456464));
#70 = CARTESIAN_POINT('',(-16.01878121215,61.610118297543,
    93.451338434514));
#71 = CARTESIAN_POINT('',(-16.24765823657,61.549880125587,
    93.162223238138));
#72 = CARTESIAN_POINT('',(-16.47585675724,61.488734516259,
    92.872879108138));
#73 = ORIENTED_EDGE('',*,*,#74,.F.);
#74 = EDGE_CURVE('',#75,#43,#77,.T.);
#75 = VERTEX_POINT('',#76);
#76 = CARTESIAN_POINT('',(-48.82759009495,40.843417753842,
    129.50945829969));
#77 = B_SPLINE_CURVE_WITH_KNOTS('',6,(#78,#79,#80,#81,#82,#83,#84,#85,
    #86,#87,#88,#89,#90,#91,#92,#93,#94,#95,#96,#97,#98,#99,#100,#101,
    #102,#103,#104),.UNSPECIFIED.,.F.,.F.,(7,5,5,5,5,7),(0.,
    0.225703386591,0.458153639986,0.701378534484,0.957216641994,1.),
  .UNSPECIFIED.);
#78 = CARTESIAN_POINT('',(-48.82759009495,40.843417753842,
    129.50945829969));
#79 = CARTESIAN_POINT('',(-47.6630236358,42.235636545341,128.42821837741
    ));
#80 = CARTESIAN_POINT('',(-46.48074187112,43.552240311636,127.2951018776
    ));
#81 = CARTESIAN_POINT('',(-45.28509621712,44.797350166448,
    126.11756137768));
#82 = CARTESIAN_POINT('',(-44.0795468645,45.974925179258,124.90177270604
    ));
#83 = CARTESIAN_POINT('',(-42.86668246844,47.088869753402,
    123.65270114222));
#84 = CARTESIAN_POINT('',(-40.39331253316,49.228568257766,
    121.05719898671));
#85 = CARTESIAN_POINT('',(-39.13263627261,50.250544449917,
    119.70915243723));
#86 = CARTESIAN_POINT('',(-37.86816715214,51.21295016576,118.33412043712
    ));
#87 = CARTESIAN_POINT('',(-36.60148746283,52.119250497684,
    116.93553274801));
#88 = CARTESIAN_POINT('',(-35.33378874005,52.97258197838,115.51616508813
    ));
#89 = CARTESIAN_POINT('',(-32.73918575574,54.616210637784,
    112.57348134256));
#90 = CARTESIAN_POINT('',(-31.41234580799,55.401699309015,
    111.04849307522));
#91 = CARTESIAN_POINT('',(-30.08633162273,56.135472757016,
    109.50570373497));
#92 = CARTESIAN_POINT('',(-28.76194207328,56.820245498458,
    107.94719818511));
#93 = CARTESIAN_POINT('',(-27.43979117177,57.458417167862,
    106.37469350899));
#94 = CARTESIAN_POINT('',(-24.73239620285,58.67659825716,103.12220842846
    ));
#95 = CARTESIAN_POINT('',(-23.34747986236,59.251855749669,101.4409363812
    ));
#96 = CARTESIAN_POINT('',(-21.96608400646,59.780353790028,
    99.747358257986));
#97 = CARTESIAN_POINT('',(-20.58865527237,60.264173091745,
    98.042845770582));
#98 = CARTESIAN_POINT('',(-19.21554987579,60.705136369051,
    96.328552678411));
#99 = CARTESIAN_POINT('',(-17.61817552534,61.171685132779,
    94.317267435971));
#100 = CARTESIAN_POINT('',(-17.38944911015,61.237373484019,
    94.028864947595));
#101 = CARTESIAN_POINT('',(-17.16085272068,61.301915408805,
    93.740220456453));
#102 = CARTESIAN_POINT('',(-16.93238768137,61.365318181914,
    93.451338434506));
#103 = CARTESIAN_POINT('',(-16.70405527791,61.427588906931,
    93.162223238134));
#104 = CARTESIAN_POINT('',(-16.47585675724,61.488734516259,
    92.872879108138));
#105 = ORIENTED_EDGE('',*,*,#106,.F.);
#106 = EDGE_CURVE('',#24,#75,#107,.T.);
#107 = B_SPLINE_CURVE_WITH_KNOTS('',4,(#108,#109,#110,#111,#112),
  .UNSPECIFIED.,.F.,.F.,(5,5),(0.,1.),.PIECEWISE_BEZIER_KNOTS.);
#108 = CARTESIAN_POINT('',(-44.92119159435,45.104377548515,
    137.67681659496));
#109 = CARTESIAN_POINT('',(-45.94451758856,44.085207668608,
    135.63432072085));
#110 = CARTESIAN_POINT('',(-46.9369650624,43.035129133463,
    133.59179471186));
#111 = CARTESIAN_POINT('',(-47.89819271288,41.954496035306,
    131.54993396322));
#112 = CARTESIAN_POINT('',(-48.82759009495,40.843417753842,
    129.50945829969));
#113 = CYLINDRICAL_SURFACE('',#114,63.657822208242);
#114 = AXIS2_PLACEMENT_3D('',#115,#116,#117);
#115 = CARTESIAN_POINT('',(0.,0.,47.676815994967));
#116 = DIRECTION('',(0.,0.,1.));
#117 = DIRECTION('',(1.,0.,-0.));
#118 = ADVANCED_FACE('',(#119),#134,.T.);
#119 = FACE_BOUND('',#120,.T.);
#120 = EDGE_LOOP('',(#121,#128,#129));
#121 = ORIENTED_EDGE('',*,*,#122,.T.);
#122 = EDGE_CURVE('',#123,#22,#125,.T.);
#123 = VERTEX_POINT('',#124);
#124 = CARTESIAN_POINT('',(-6.705049322209E-02,0.250235847377,
    137.67681599496));
#125 = B_SPLINE_CURVE_WITH_KNOTS('',1,(#126,#127),.UNSPECIFIED.,.F.,.F.,
  (2,2),(0.,1.),.PIECEWISE_BEZIER_KNOTS.);
#126 = CARTESIAN_POINT('',(-6.705049322209E-02,0.250235847377,
    137.67681599496));
#127 = CARTESIAN_POINT('',(16.922961066178,63.657822208242,
    137.67681599496));
#128 = ORIENTED_EDGE('',*,*,#21,.T.);
#129 = ORIENTED_EDGE('',*,*,#130,.F.);
#130 = EDGE_CURVE('',#123,#24,#131,.T.);
#131 = B_SPLINE_CURVE_WITH_KNOTS('',1,(#132,#133),.UNSPECIFIED.,.F.,.F.,
  (2,2),(0.,1.),.PIECEWISE_BEZIER_KNOTS.);
#132 = CARTESIAN_POINT('',(-6.705049322209E-02,0.250235847377,
    137.67681599496));
#133 = CARTESIAN_POINT('',(-51.81705049322,52.000235847377,
    137.67681599496));
#134 = PLANE('',#135);
#135 = AXIS2_PLACEMENT_3D('',#136,#137,#138);
#136 = CARTESIAN_POINT('',(0.,0.,137.67681599496));
#137 = DIRECTION('',(0.,0.,1.));
#138 = DIRECTION('',(1.,0.,-0.));
#139 = ADVANCED_FACE('',(#140),#163,.T.);
#140 = FACE_BOUND('',#141,.T.);
#141 = EDGE_LOOP('',(#142,#149,#156,#161,#162));
#142 = ORIENTED_EDGE('',*,*,#143,.F.);
#143 = EDGE_CURVE('',#144,#75,#146,.T.);
#144 = VERTEX_POINT('',#145);
#145 = CARTESIAN_POINT('',(-40.84035382345,11.034646176543,
    107.68792299389));
#146 = B_SPLINE_CURVE_WITH_KNOTS('',1,(#147,#148),.UNSPECIFIED.,.F.,.F.,
  (2,2),(0.,94.657822208242),.PIECEWISE_BEZIER_KNOTS.);
#147 = CARTESIAN_POINT('',(-40.84035382345,11.034646176543,
    107.68792299389));
#148 = CARTESIAN_POINT('',(-60.84390536116,85.68891684708,
    162.33864212672));
#149 = ORIENTED_EDGE('',*,*,#150,.T.);
#150 = EDGE_CURVE('',#144,#151,#153,.T.);
#151 = VERTEX_POINT('',#152);
#152 = CARTESIAN_POINT('',(-2.641560817565E-02,9.858439182435E-02,
    137.56579942446));
#153 = B_SPLINE_CURVE_WITH_KNOTS('',1,(#154,#155),.UNSPECIFIED.,.F.,.F.,
  (2,2),(0.,51.75),.PIECEWISE_BEZIER_KNOTS.);
#154 = CARTESIAN_POINT('',(-40.84035382345,11.034646176543,
    107.68792299389));
#155 = CARTESIAN_POINT('',(-2.641560817565E-02,9.858439182435E-02,
    137.56579942446));
#156 = ORIENTED_EDGE('',*,*,#157,.T.);
#157 = EDGE_CURVE('',#151,#123,#158,.T.);
#158 = B_SPLINE_CURVE_WITH_KNOTS('',1,(#159,#160),.UNSPECIFIED.,.F.,.F.,
  (2,2),(0.,94.657822208242),.PIECEWISE_BEZIER_KNOTS.);
#159 = CARTESIAN_POINT('',(-2.641560817565E-02,9.858439182435E-02,
    137.56579942446));
#160 = CARTESIAN_POINT('',(-20.02996714588,74.752855062361,
    192.21651855729));
#161 = ORIENTED_EDGE('',*,*,#130,.T.);
#162 = ORIENTED_EDGE('',*,*,#106,.T.);
#163 = B_SPLINE_SURFACE_WITH_KNOTS('',1,1,(
    (#164,#165)
    ,(#166,#167
    )),.UNSPECIFIED.,.F.,.F.,.F.,(2,2),(2,2),(0.,51.75),(0.,
    94.657822208242),.PIECEWISE_BEZIER_KNOTS.);
#164 = CARTESIAN_POINT('',(-40.84035382345,11.034646176543,
    107.68792299389));
#165 = CARTESIAN_POINT('',(-60.84390536116,85.68891684708,
    162.33864212672));
#166 = CARTESIAN_POINT('',(-2.641560817565E-02,9.858439182435E-02,
    137.56579942446));
#167 = CARTESIAN_POINT('',(-20.02996714588,74.752855062361,
    192.21651855729));
#168 = ADVANCED_FACE('',(#169),#185,.F.);
#169 = FACE_BOUND('',#170,.F.);
#170 = EDGE_LOOP('',(#171,#172,#179,#184));
#171 = ORIENTED_EDGE('',*,*,#143,.F.);
#172 = ORIENTED_EDGE('',*,*,#173,.F.);
#173 = EDGE_CURVE('',#174,#144,#176,.T.);
#174 = VERTEX_POINT('',#175);
#175 = CARTESIAN_POINT('',(-10.96247739289,40.912522607106,
    77.810046563334));
#176 = B_SPLINE_CURVE_WITH_KNOTS('',1,(#177,#178),.UNSPECIFIED.,.F.,.F.,
  (2,2),(0.,51.75),.PIECEWISE_BEZIER_KNOTS.);
#177 = CARTESIAN_POINT('',(-10.96247739289,40.912522607106,
    77.810046563334));
#178 = CARTESIAN_POINT('',(-40.84035382345,11.034646176543,
    107.68792299389));
#179 = ORIENTED_EDGE('',*,*,#180,.T.);
#180 = EDGE_CURVE('',#174,#43,#181,.T.);
#181 = B_SPLINE_CURVE_WITH_KNOTS('',1,(#182,#183),.UNSPECIFIED.,.F.,.F.,
  (2,2),(0.,94.657822208242),.PIECEWISE_BEZIER_KNOTS.);
#182 = CARTESIAN_POINT('',(-10.96247739289,40.912522607106,
    77.810046563334));
#183 = CARTESIAN_POINT('',(-30.96602893059,115.56679327764,
    132.46076569616));
#184 = ORIENTED_EDGE('',*,*,#74,.F.);
#185 = B_SPLINE_SURFACE_WITH_KNOTS('',1,1,(
    (#186,#187)
    ,(#188,#189
    )),.UNSPECIFIED.,.F.,.F.,.F.,(2,2),(2,2),(0.,51.75),(-94.65782220824
    ,0.),.PIECEWISE_BEZIER_KNOTS.);
#186 = CARTESIAN_POINT('',(-30.96602893059,115.56679327764,
    132.46076569616));
#187 = CARTESIAN_POINT('',(-10.96247739289,40.912522607106,
    77.810046563334));
#188 = CARTESIAN_POINT('',(-60.84390536116,85.68891684708,
    162.33864212672));
#189 = CARTESIAN_POINT('',(-40.84035382345,11.034646176543,
    107.68792299389));
#190 = ADVANCED_FACE('',(#191),#207,.F.);
#191 = FACE_BOUND('',#192,.F.);
#192 = EDGE_LOOP('',(#193,#194,#201,#206));
#193 = ORIENTED_EDGE('',*,*,#180,.F.);
#194 = ORIENTED_EDGE('',*,*,#195,.T.);
#195 = EDGE_CURVE('',#174,#196,#198,.T.);
#196 = VERTEX_POINT('',#197);
#197 = CARTESIAN_POINT('',(29.851460822387,29.976460822387,
    107.68792299389));
#198 = B_SPLINE_CURVE_WITH_KNOTS('',1,(#199,#200),.UNSPECIFIED.,.F.,.F.,
  (2,2),(0.,51.75),.PIECEWISE_BEZIER_KNOTS.);
#199 = CARTESIAN_POINT('',(-10.96247739289,40.912522607106,
    77.810046563334));
#200 = CARTESIAN_POINT('',(29.851460822387,29.976460822387,
    107.68792299389));
#201 = ORIENTED_EDGE('',*,*,#202,.T.);
#202 = EDGE_CURVE('',#196,#33,#203,.T.);
#203 = B_SPLINE_CURVE_WITH_KNOTS('',1,(#204,#205),.UNSPECIFIED.,.F.,.F.,
  (2,2),(0.,94.657822208242),.PIECEWISE_BEZIER_KNOTS.);
#204 = CARTESIAN_POINT('',(29.851460822387,29.976460822387,
    107.68792299389));
#205 = CARTESIAN_POINT('',(9.847909284683,104.63073149292,
    162.33864212672));
#206 = ORIENTED_EDGE('',*,*,#42,.T.);
#207 = B_SPLINE_SURFACE_WITH_KNOTS('',1,1,(
    (#208,#209)
    ,(#210,#211
    )),.UNSPECIFIED.,.F.,.F.,.F.,(2,2),(2,2),(0.,51.75),(0.,
    94.657822208242),.PIECEWISE_BEZIER_KNOTS.);
#208 = CARTESIAN_POINT('',(-10.96247739289,40.912522607106,
    77.810046563334));
#209 = CARTESIAN_POINT('',(-30.96602893059,115.56679327764,
    132.46076569616));
#210 = CARTESIAN_POINT('',(29.851460822387,29.976460822387,
    107.68792299389));
#211 = CARTESIAN_POINT('',(9.847909284683,104.63073149292,
    162.33864212672));
#212 = ADVANCED_FACE('',(#213),#224,.T.);
#213 = FACE_BOUND('',#214,.T.);
#214 = EDGE_LOOP('',(#215,#216,#221,#222,#223));
#215 = ORIENTED_EDGE('',*,*,#157,.F.);
#216 = ORIENTED_EDGE('',*,*,#217,.F.);
#217 = EDGE_CURVE('',#196,#151,#218,.T.);
#218 = B_SPLINE_CURVE_WITH_KNOTS('',1,(#219,#220),.UNSPECIFIED.,.F.,.F.,
  (2,2),(0.,51.75),.PIECEWISE_BEZIER_KNOTS.);
#219 = CARTESIAN_POINT('',(29.851460822387,29.976460822387,
    107.68792299389));
#220 = CARTESIAN_POINT('',(-2.641560817565E-02,9.858439182435E-02,
    137.56579942446));
#221 = ORIENTED_EDGE('',*,*,#202,.T.);
#222 = ORIENTED_EDGE('',*,*,#32,.F.);
#223 = ORIENTED_EDGE('',*,*,#122,.F.);
#224 = B_SPLINE_SURFACE_WITH_KNOTS('',1,1,(
    (#225,#226)
    ,(#227,#228
    )),.UNSPECIFIED.,.F.,.F.,.F.,(2,2),(2,2),(0.,51.75),(-94.65782220824
    ,0.),.PIECEWISE_BEZIER_KNOTS.);
#225 = CARTESIAN_POINT('',(9.847909284683,104.63073149292,
    162.33864212672));
#226 = CARTESIAN_POINT('',(29.851460822387,29.976460822387,
    107.68792299389));
#227 = CARTESIAN_POINT('',(-20.02996714588,74.752855062361,
    192.21651855729));
#228 = CARTESIAN_POINT('',(-2.641560817565E-02,9.858439182435E-02,
    137.56579942446));
#229 = ADVANCED_FACE('',(#230),#236,.F.);
#230 = FACE_BOUND('',#231,.F.);
#231 = EDGE_LOOP('',(#232,#233,#234,#235));
#232 = ORIENTED_EDGE('',*,*,#195,.F.);
#233 = ORIENTED_EDGE('',*,*,#173,.T.);
#234 = ORIENTED_EDGE('',*,*,#150,.T.);
#235 = ORIENTED_EDGE('',*,*,#217,.F.);
#236 = B_SPLINE_SURFACE_WITH_KNOTS('',1,1,(
    (#237,#238)
    ,(#239,#240
    )),.UNSPECIFIED.,.F.,.F.,.F.,(2,2),(2,2),(0.,51.75),(0.,51.75),
  .PIECEWISE_BEZIER_KNOTS.);
#237 = CARTESIAN_POINT('',(-10.96247739289,40.912522607106,
    77.810046563334));
#238 = CARTESIAN_POINT('',(29.851460822387,29.976460822387,
    107.68792299389));
#239 = CARTESIAN_POINT('',(-40.84035382345,11.034646176543,
    107.68792299389));
#240 = CARTESIAN_POINT('',(-2.641560817565E-02,9.858439182435E-02,
    137.56579942446));
#241 = ( GEOMETRIC_REPRESENTATION_CONTEXT(3) 
GLOBAL_UNCERTAINTY_ASSIGNED_CONTEXT((#245)) GLOBAL_UNIT_ASSIGNED_CONTEXT
((#242,#243,#244)) REPRESENTATION_CONTEXT('Context #1',
  '3D Context with UNIT and UNCERTAINTY') );
#242 = ( LENGTH_UNIT() NAMED_UNIT(*) SI_UNIT(.MILLI.,.METRE.) );
#243 = ( NAMED_UNIT(*) PLANE_ANGLE_UNIT() SI_UNIT($,.RADIAN.) );
#244 = ( NAMED_UNIT(*) SI_UNIT($,.STERADIAN.) SOLID_ANGLE_UNIT() );
#245 = UNCERTAINTY_MEASURE_WITH_UNIT(LENGTH_MEASURE(2.E-06),#242,
  'distance_accuracy_value','confusion accuracy');
#246 = PRODUCT_RELATED_PRODUCT_CATEGORY('part',$,(#7));
ENDSEC;
END-ISO-10303-21;
