ISO-10303-21;
HEADER;
FILE_DESCRIPTION(('FreeCAD Model'),'2;1');
FILE_NAME('Open CASCADE Shape Model','2026-08-13T22:11:32',('FreeCAD'),(
    'FreeCAD'),'Open CASCADE STEP processor 7.8','FreeCAD','Unknown');
FILE_SCHEMA(('AUTOMOTIVE_DESIGN { 1 0 10303 214 1 1 1 1 }'));
ENDSEC;
DATA;
#1 = APPLICATION_PROTOCOL_DEFINITION('international standard',
  'automotive_design',2000,#2);
#2 = APPLICATION_CONTEXT(
  'core data for automotive mechanical design processes');
#3 = SHAPE_DEFINITION_REPRESENTATION(#4,#10);
#4 = PRODUCT_DEFINITION_SHAPE('','',#5);
#5 = PRODUCT_DEFINITION('design','',#6,#9);
#6 = PRODUCT_DEFINITION_FORMATION('','',#7);
#7 = PRODUCT('Open CASCADE STEP translator 7.8 70',
  'Open CASCADE STEP translator 7.8 70','',(#8));
#8 = PRODUCT_CONTEXT('',#2,'mechanical');
#9 = PRODUCT_DEFINITION_CONTEXT('part definition',#2,'design');
#10 = ADVANCED_BREP_SHAPE_REPRESENTATION('',(#11,#15),#296);
#11 = AXIS2_PLACEMENT_3D('',#12,#13,#14);
#12 = CARTESIAN_POINT('',(0.,0.,0.));
#13 = DIRECTION('',(0.,0.,1.));
#14 = DIRECTION('',(1.,0.,-0.));
#15 = MANIFOLD_SOLID_BREP('',#16);
#16 = CLOSED_SHELL('',(#17,#172,#193,#222,#245,#267,#284));
#17 = ADVANCED_FACE('',(#18),#167,.T.);
#18 = FACE_BOUND('',#19,.T.);
#19 = EDGE_LOOP('',(#20,#31,#41,#108,#145,#159));
#20 = ORIENTED_EDGE('',*,*,#21,.F.);
#21 = EDGE_CURVE('',#22,#24,#26,.T.);
#22 = VERTEX_POINT('',#23);
#23 = CARTESIAN_POINT('',(-61.53425060193,16.305040053751,134.3041902183
    ));
#24 = VERTEX_POINT('',#25);
#25 = CARTESIAN_POINT('',(16.305040053751,-61.53425060193,134.3041902183
    ));
#26 = CIRCLE('',#27,63.657822208242);
#27 = AXIS2_PLACEMENT_3D('',#28,#29,#30);
#28 = CARTESIAN_POINT('',(0.,0.,134.3041902183));
#29 = DIRECTION('',(0.,0.,1.));
#30 = DIRECTION('',(1.,0.,-0.));
#31 = ORIENTED_EDGE('',*,*,#32,.F.);
#32 = EDGE_CURVE('',#33,#22,#35,.T.);
#33 = VERTEX_POINT('',#34);
#34 = CARTESIAN_POINT('',(-61.53425060055,16.305040053379,
    108.91879549189));
#35 = B_SPLINE_CURVE_WITH_KNOTS('',4,(#36,#37,#38,#39,#40),
  .UNSPECIFIED.,.F.,.F.,(5,5),(0.,1.),.PIECEWISE_BEZIER_KNOTS.);
#36 = CARTESIAN_POINT('',(-61.53425060193,16.30504005375,41.507991772016
    ));
#37 = CARTESIAN_POINT('',(-61.53425060193,16.30504005375,64.707041533589
    ));
#38 = CARTESIAN_POINT('',(-61.53425060193,16.305040053751,
    87.906091295162));
#39 = CARTESIAN_POINT('',(-61.53425060193,16.305040053751,
    111.10514105673));
#40 = CARTESIAN_POINT('',(-61.53425060193,16.305040053751,134.3041908183
    ));
#41 = ORIENTED_EDGE('',*,*,#42,.F.);
#42 = EDGE_CURVE('',#43,#33,#45,.T.);
#43 = VERTEX_POINT('',#44);
#44 = CARTESIAN_POINT('',(-45.01287775788,-45.01287775788,
    64.014257690313));
#45 = B_SPLINE_CURVE_WITH_KNOTS('',7,(#46,#47,#48,#49,#50,#51,#52,#53,
    #54,#55,#56,#57,#58,#59,#60,#61,#62,#63,#64,#65,#66,#67,#68,#69,#70,
    #71,#72,#73,#74,#75,#76,#77,#78,#79,#80,#81,#82,#83,#84,#85,#86,#87,
    #88,#89,#90,#91,#92,#93,#94,#95,#96,#97,#98,#99,#100,#101,#102,#103,
    #104,#105,#106,#107),.UNSPECIFIED.,.F.,.F.,(8,6,6,6,6,6,6,6,6,6,8),(
    0.,0.107638605103,0.186832873732,0.245651509536,0.40046749896,
    0.552312667047,0.61157520553,0.689068914587,0.790137016526,
    0.871235414983,1.),.UNSPECIFIED.);
#46 = CARTESIAN_POINT('',(-20.56941274793,-60.24298786996,
    49.138434457462));
#47 = CARTESIAN_POINT('',(-23.11374617756,-59.37424868001,
    50.197439694301));
#48 = CARTESIAN_POINT('',(-25.57974168809,-58.39227256562,
    51.319450354625));
#49 = CARTESIAN_POINT('',(-27.96318296512,-57.30553972329,
    52.497902717407));
#50 = CARTESIAN_POINT('',(-30.26110498895,-56.12221278343,
    53.726678966142));
#51 = CARTESIAN_POINT('',(-32.47160312932,-54.84992521088,
    55.000216775851));
#52 = CARTESIAN_POINT('',(-34.59365360813,-53.49558611508,56.31360977263
    ));
#53 = CARTESIAN_POINT('',(-38.12292393995,-51.01280706402,
    58.655280699634));
#54 = CARTESIAN_POINT('',(-39.57076534405,-49.91931137349,
    59.667125513004));
#55 = CARTESIAN_POINT('',(-40.97030380286,-48.78715063662,
    60.696538991618));
#56 = CARTESIAN_POINT('',(-42.32144994678,-47.61860120491,
    61.741950002716));
#57 = CARTESIAN_POINT('',(-43.62418846363,-46.4157781154,62.801911146808
    ));
#58 = CARTESIAN_POINT('',(-44.87856844488,-45.18062821493,
    63.875101687137));
#59 = CARTESIAN_POINT('',(-46.98048621857,-42.97485791653,
    65.766348469318));
#60 = CARTESIAN_POINT('',(-47.84965102844,-42.01795350366,
    66.578994538051));
#61 = CARTESIAN_POINT('',(-48.69221415285,-41.04493646287,
    67.397777289977));
#62 = CARTESIAN_POINT('',(-49.50820861465,-40.05650285626,
    68.222227349458));
#63 = CARTESIAN_POINT('',(-50.29766671588,-39.05331275439,
    69.051899791585));
#64 = CARTESIAN_POINT('',(-51.06061962644,-38.03599004808,
    69.886374195496));
#65 = CARTESIAN_POINT('',(-53.73557221121,-34.29178465248,
    72.933264339152));
#66 = CARTESIAN_POINT('',(-55.49040928001,-31.48491257079,
    75.171551096879));
#67 = CARTESIAN_POINT('',(-57.06250301373,-28.59484687054,
    77.433215801286));
#68 = CARTESIAN_POINT('',(-58.45181220296,-25.63100962042,
    79.711815517945));
#69 = CARTESIAN_POINT('',(-59.65778186133,-22.60208143058,
    82.001319710302));
#70 = CARTESIAN_POINT('',(-60.67930083854,-19.51598909609,
    84.296110922026));
#71 = CARTESIAN_POINT('',(-62.33345860215,-13.30379467185,88.84185050208
    ));
#72 = CARTESIAN_POINT('',(-62.97302883634,-10.18017791513,
    91.092369899373));
#73 = CARTESIAN_POINT('',(-63.43135666929,-7.015646171467,
    93.337665090893));
#74 = CARTESIAN_POINT('',(-63.70560086812,-3.817195233937,
    95.572437879419));
#75 = CARTESIAN_POINT('',(-63.79211927392,-0.592177965915,
    97.790999604503));
#76 = CARTESIAN_POINT('',(-63.68651188232,2.65168699468,99.987273081739)
  );
#77 = CARTESIAN_POINT('',(-63.26485706087,7.176609305125,103.0006843067)
  );
#78 = CARTESIAN_POINT('',(-63.1163831532,8.448453415673,103.84219737803)
  );
#79 = CARTESIAN_POINT('',(-62.93747864869,9.721394626022,104.67889059671
    ));
#80 = CARTESIAN_POINT('',(-62.72779896564,10.994899055513,
    105.51033625264));
#81 = CARTESIAN_POINT('',(-62.48697978384,12.268401506131,
    106.33608163318));
#82 = CARTESIAN_POINT('',(-62.21463749181,13.541305417383,
    107.15564907415));
#83 = CARTESIAN_POINT('',(-61.51249864444,16.475871405883,
    109.03149459127));
#84 = CARTESIAN_POINT('',(-61.06004473735,18.136633329739,
    110.08301126807));
#85 = CARTESIAN_POINT('',(-60.55210553477,19.793885599826,
    111.12197629291));
#86 = CARTESIAN_POINT('',(-59.98773301643,21.446082898487,
    112.14716069448));
#87 = CARTESIAN_POINT('',(-59.36595165991,23.091519404029,
    113.15722084188));
#88 = CARTESIAN_POINT('',(-58.68576854241,24.72832971573,114.15070092524
    ));
#89 = CARTESIAN_POINT('',(-56.98159033591,28.475342595091,
    116.39807205792));
#90 = CARTESIAN_POINT('',(-55.91601516525,30.577938365878,
    117.63915788526));
#91 = CARTESIAN_POINT('',(-54.74719252906,32.657882661218,
    118.84587686952));
#92 = CARTESIAN_POINT('',(-53.47297546559,34.709929814068,
    120.01425323222));
#93 = CARTESIAN_POINT('',(-52.09149143787,36.728028748421,
    121.13981131352));
#94 = CARTESIAN_POINT('',(-50.60131205925,38.705372781916,
    122.21764065003));
#95 = CARTESIAN_POINT('',(-47.71802102794,42.182371912375,
    124.06479633862));
#96 = CARTESIAN_POINT('',(-46.36398445324,43.699123408338,
    124.85295098398));
#97 = CARTESIAN_POINT('',(-44.93919399677,45.18073819292,125.60415795009
    ));
#98 = CARTESIAN_POINT('',(-43.44374667578,46.622815569935,
    126.31542926095));
#99 = CARTESIAN_POINT('',(-41.87827046604,48.020587450352,
    126.98362317873));
#100 = CARTESIAN_POINT('',(-40.24407619721,49.369010948551,
    127.60553524698));
#101 = CARTESIAN_POINT('',(-35.84301503673,52.717253685471,
    129.08697747114));
#102 = CARTESIAN_POINT('',(-32.97303888856,54.635571245659,
    129.87197064177));
#103 = CARTESIAN_POINT('',(-29.94468928746,56.39447297196,
    130.51909641942));
#104 = CARTESIAN_POINT('',(-26.77379347644,57.972043158952,
    131.0162826855));
#105 = CARTESIAN_POINT('',(-23.48130552128,59.348781074665,
    131.35404505247));
#106 = CARTESIAN_POINT('',(-20.0940144898,60.508729370029,
    131.52638718798));
#107 = CARTESIAN_POINT('',(-16.64654640469,61.442744250989,
    131.53340076649));
#108 = ORIENTED_EDGE('',*,*,#109,.F.);
#109 = EDGE_CURVE('',#110,#43,#112,.T.);
#110 = VERTEX_POINT('',#111);
#111 = CARTESIAN_POINT('',(-14.83084950824,-61.90609203592,
    87.720639142352));
#112 = B_SPLINE_CURVE_WITH_KNOTS('',7,(#113,#114,#115,#116,#117,#118,
    #119,#120,#121,#122,#123,#124,#125,#126,#127,#128,#129,#130,#131,
    #132,#133,#134,#135,#136,#137,#138,#139,#140,#141,#142,#143,#144),
  .UNSPECIFIED.,.F.,.F.,(8,6,6,6,6,8),(0.,0.223640407521,0.490641369241,
    0.658744123641,0.789409056819,1.),.UNSPECIFIED.);
#113 = CARTESIAN_POINT('',(-14.83084950824,-61.90609203592,
    87.720639142352));
#114 = CARTESIAN_POINT('',(-17.62050564331,-61.23777379843,
    85.69295784182));
#115 = CARTESIAN_POINT('',(-20.37319426864,-60.42323321111,
    83.663765272683));
#116 = CARTESIAN_POINT('',(-23.08398318886,-59.46401926721,
    81.636713672456));
#117 = CARTESIAN_POINT('',(-25.74751745599,-58.36113873572,
    79.615644790146));
#118 = CARTESIAN_POINT('',(-28.35807401309,-57.11522028186,
    77.604582600061));
#119 = CARTESIAN_POINT('',(-30.90955556303,-55.72650825565,
    75.607736352747));
#120 = CARTESIAN_POINT('',(-36.36326467341,-52.3658664803,
    71.267743626533));
#121 = CARTESIAN_POINT('',(-39.23679730151,-50.33354741642,
    68.933144139247));
#122 = CARTESIAN_POINT('',(-42.00552967628,-48.09703640635,
    66.632754836379));
#123 = CARTESIAN_POINT('',(-44.65622405331,-45.65537480719,
    64.375441821657));
#124 = CARTESIAN_POINT('',(-47.17323137078,-43.00793444066,
    62.171778638498));
#125 = CARTESIAN_POINT('',(-49.5386928757,-40.15474856685,
    60.033969129032));
#126 = CARTESIAN_POINT('',(-53.11308588735,-35.17007742729,
    56.680355167223));
#127 = CARTESIAN_POINT('',(-54.42557136993,-33.16313040102,
    55.416614113745));
#128 = CARTESIAN_POINT('',(-55.66439590597,-31.0753059147,
    54.188382819893));
#129 = CARTESIAN_POINT('',(-56.82364609192,-28.90739969795,
    52.99984584404));
#130 = CARTESIAN_POINT('',(-57.89680579985,-26.66089605822,
    51.855725431448));
#131 = CARTESIAN_POINT('',(-58.87689713458,-24.33810154611,
    50.76120970121));
#132 = CARTESIAN_POINT('',(-60.44043543654,-20.08003148412,
    48.914012274188));
#133 = CARTESIAN_POINT('',(-61.06356610946,-18.17377277601,
    48.139536552969));
#134 = CARTESIAN_POINT('',(-61.62256460543,-16.22516611636,
    47.401113710176));
#135 = CARTESIAN_POINT('',(-62.11382561796,-14.23642359512,
    46.701611056492));
#136 = CARTESIAN_POINT('',(-62.53369767264,-12.21036773276,
    46.044039152422));
#137 = CARTESIAN_POINT('',(-62.87862924634,-10.15051063632,
    45.43146649357));
#138 = CARTESIAN_POINT('',(-63.57523878742,-4.693766258597,
    43.957019796647));
#139 = CARTESIAN_POINT('',(-63.80228318445,-1.247406990592,
    43.171218068258));
#140 = CARTESIAN_POINT('',(-63.81187377263,2.256504666351,42.52340723518
    ));
#141 = CARTESIAN_POINT('',(-63.59291822195,5.793302215984,
    42.025677781845));
#142 = CARTESIAN_POINT('',(-63.13897742831,9.3350589385,41.687538642571)
  );
#143 = CARTESIAN_POINT('',(-62.44960935853,12.850530593928,
    41.515009824425));
#144 = CARTESIAN_POINT('',(-61.53425060116,16.305040056649,
    41.50799237201));
#145 = ORIENTED_EDGE('',*,*,#146,.F.);
#146 = EDGE_CURVE('',#147,#110,#149,.T.);
#147 = VERTEX_POINT('',#148);
#148 = CARTESIAN_POINT('',(16.305040053751,-61.53425060193,
    108.9187954924));
#149 = B_SPLINE_CURVE_WITH_KNOTS('',8,(#150,#151,#152,#153,#154,#155,
    #156,#157,#158),.UNSPECIFIED.,.F.,.F.,(9,9),(0.,1.),
  .PIECEWISE_BEZIER_KNOTS.);
#150 = CARTESIAN_POINT('',(16.305040053751,-61.53425060193,
    108.9187954924));
#151 = CARTESIAN_POINT('',(12.363314177995,-62.57870954401,
    106.41769590488));
#152 = CARTESIAN_POINT('',(8.406253106882,-63.31840365086,
    103.85034634822));
#153 = CARTESIAN_POINT('',(4.450194750751,-63.76576313857,
    101.23018071012));
#154 = CARTESIAN_POINT('',(0.510257427482,-63.93043158276,
    98.569289890553));
#155 = CARTESIAN_POINT('',(-3.399747908957,-63.82074657258,
    95.878632831234));
#156 = CARTESIAN_POINT('',(-7.267285320904,-63.44361557389,
    93.168035890792));
#157 = CARTESIAN_POINT('',(-11.08105204444,-62.8044314407,
    90.446205961339));
#158 = CARTESIAN_POINT('',(-14.83084950824,-61.90609203592,
    87.720639142352));
#159 = ORIENTED_EDGE('',*,*,#160,.F.);
#160 = EDGE_CURVE('',#24,#147,#161,.T.);
#161 = B_SPLINE_CURVE_WITH_KNOTS('',4,(#162,#163,#164,#165,#166),
  .UNSPECIFIED.,.F.,.F.,(5,5),(0.,1.),.PIECEWISE_BEZIER_KNOTS.);
#162 = CARTESIAN_POINT('',(16.305040053751,-61.53425060193,
    134.3041908183));
#163 = CARTESIAN_POINT('',(16.305040053751,-61.53425060193,
    110.3041905183));
#164 = CARTESIAN_POINT('',(16.305040053751,-61.53425060193,
    86.304190218308));
#165 = CARTESIAN_POINT('',(16.305040053751,-61.53425060193,
    62.304189918308));
#166 = CARTESIAN_POINT('',(16.305040053751,-61.53425060193,
    38.304189618308));
#167 = CYLINDRICAL_SURFACE('',#168,63.657822208242);
#168 = AXIS2_PLACEMENT_3D('',#169,#170,#171);
#169 = CARTESIAN_POINT('',(0.,0.,38.304190218308));
#170 = DIRECTION('',(0.,0.,1.));
#171 = DIRECTION('',(1.,0.,-0.));
#172 = ADVANCED_FACE('',(#173),#188,.T.);
#173 = FACE_BOUND('',#174,.T.);
#174 = EDGE_LOOP('',(#175,#176,#183));
#175 = ORIENTED_EDGE('',*,*,#21,.T.);
#176 = ORIENTED_EDGE('',*,*,#177,.T.);
#177 = EDGE_CURVE('',#24,#178,#180,.T.);
#178 = VERTEX_POINT('',#179);
#179 = CARTESIAN_POINT('',(-0.144337567297,-0.144337567297,
    134.3041902183));
#180 = B_SPLINE_CURVE_WITH_KNOTS('',1,(#181,#182),.UNSPECIFIED.,.F.,.F.,
  (2,2),(0.,1.),.PIECEWISE_BEZIER_KNOTS.);
#181 = CARTESIAN_POINT('',(16.87404935073,-63.65782220824,134.3041902183
    ));
#182 = CARTESIAN_POINT('',(-17.24007475451,63.657822208242,
    134.3041902183));
#183 = ORIENTED_EDGE('',*,*,#184,.T.);
#184 = EDGE_CURVE('',#178,#22,#185,.T.);
#185 = B_SPLINE_CURVE_WITH_KNOTS('',1,(#186,#187),.UNSPECIFIED.,.F.,.F.,
  (2,2),(0.,1.),.PIECEWISE_BEZIER_KNOTS.);
#186 = CARTESIAN_POINT('',(16.305040053751,-4.551935016852,
    134.3041902183));
#187 = CARTESIAN_POINT('',(-63.65782220824,16.87404935073,134.3041902183
    ));
#188 = PLANE('',#189);
#189 = AXIS2_PLACEMENT_3D('',#190,#191,#192);
#190 = CARTESIAN_POINT('',(0.,0.,134.3041902183));
#191 = DIRECTION('',(0.,0.,1.));
#192 = DIRECTION('',(1.,0.,-0.));
#193 = ADVANCED_FACE('',(#194),#217,.F.);
#194 = FACE_BOUND('',#195,.F.);
#195 = EDGE_LOOP('',(#196,#197,#198,#205,#212));
#196 = ORIENTED_EDGE('',*,*,#160,.F.);
#197 = ORIENTED_EDGE('',*,*,#177,.T.);
#198 = ORIENTED_EDGE('',*,*,#199,.T.);
#199 = EDGE_CURVE('',#178,#200,#202,.T.);
#200 = VERTEX_POINT('',#201);
#201 = CARTESIAN_POINT('',(-0.144337567297,-0.144337567297,
    131.26534243145));
#202 = B_SPLINE_CURVE_WITH_KNOTS('',1,(#203,#204),.UNSPECIFIED.,.F.,.F.,
  (2,2),(0.,1.),.PIECEWISE_BEZIER_KNOTS.);
#203 = CARTESIAN_POINT('',(-0.144337567297,-0.144337567297,
    151.33383967311));
#204 = CARTESIAN_POINT('',(-0.144337567297,-0.144337567297,
    58.537640584492));
#205 = ORIENTED_EDGE('',*,*,#206,.F.);
#206 = EDGE_CURVE('',#207,#200,#209,.T.);
#207 = VERTEX_POINT('',#208);
#208 = CARTESIAN_POINT('',(10.791724217421,-40.95827578257,
    101.38746600088));
#209 = B_SPLINE_CURVE_WITH_KNOTS('',1,(#210,#211),.UNSPECIFIED.,.F.,.F.,
  (2,2),(0.,1.),.PIECEWISE_BEZIER_KNOTS.);
#210 = CARTESIAN_POINT('',(10.844555433772,-41.15544456622,
    101.24312843358));
#211 = CARTESIAN_POINT('',(-0.197168783649,5.283121635129E-02,
    131.40967999874));
#212 = ORIENTED_EDGE('',*,*,#213,.T.);
#213 = EDGE_CURVE('',#207,#147,#214,.T.);
#214 = B_SPLINE_CURVE_WITH_KNOTS('',1,(#215,#216),.UNSPECIFIED.,.F.,.F.,
  (2,2),(0.,1.),.PIECEWISE_BEZIER_KNOTS.);
#215 = CARTESIAN_POINT('',(-3.810451796465,13.537787002308,
    81.440522615386));
#216 = CARTESIAN_POINT('',(21.469229378137,-80.80726754044,
    115.97320929946));
#217 = B_SPLINE_SURFACE_WITH_KNOTS('',1,1,(
    (#218,#219)
    ,(#220,#221
    )),.UNSPECIFIED.,.F.,.F.,.F.,(2,2),(2,2),(0.,509.26257766593),(0.,
    509.26257766593),.PIECEWISE_BEZIER_KNOTS.);
#218 = CARTESIAN_POINT('',(46.430006980146,-173.9621577475,
    -225.5541748756));
#219 = CARTESIAN_POINT('',(-80.88563743633,301.18629581311,
    -93.74732081775));
#220 = CARTESIAN_POINT('',(80.544131085391,-301.277802164,
    266.35570125436));
#221 = CARTESIAN_POINT('',(-46.77151333109,173.87065139663,
    398.16255531231));
#222 = ADVANCED_FACE('',(#223),#240,.F.);
#223 = FACE_BOUND('',#224,.F.);
#224 = EDGE_LOOP('',(#225,#226,#227,#228,#235));
#225 = ORIENTED_EDGE('',*,*,#109,.F.);
#226 = ORIENTED_EDGE('',*,*,#146,.F.);
#227 = ORIENTED_EDGE('',*,*,#213,.F.);
#228 = ORIENTED_EDGE('',*,*,#229,.F.);
#229 = EDGE_CURVE('',#230,#207,#232,.T.);
#230 = VERTEX_POINT('',#231);
#231 = CARTESIAN_POINT('',(-30.02221399786,-30.02221399786,
    71.509589570324));
#232 = B_SPLINE_CURVE_WITH_KNOTS('',1,(#233,#234),.UNSPECIFIED.,.F.,.F.,
  (2,2),(0.,1.),.PIECEWISE_BEZIER_KNOTS.);
#233 = CARTESIAN_POINT('',(-30.02221494427,-30.02221374427,
    71.509588877503));
#234 = CARTESIAN_POINT('',(10.791725163831,-40.95827603616,
    101.3874666937));
#235 = ORIENTED_EDGE('',*,*,#236,.F.);
#236 = EDGE_CURVE('',#43,#230,#237,.T.);
#237 = B_SPLINE_CURVE_WITH_KNOTS('',1,(#238,#239),.UNSPECIFIED.,.F.,.F.,
  (2,2),(0.,1.),.PIECEWISE_BEZIER_KNOTS.);
#238 = CARTESIAN_POINT('',(-66.92523233321,-66.92523233321,
    53.058080402645));
#239 = CARTESIAN_POINT('',(20.096528814065,20.096528814065,
    96.568960976286));
#240 = B_SPLINE_SURFACE_WITH_KNOTS('',1,1,(
    (#241,#242)
    ,(#243,#244
    )),.UNSPECIFIED.,.F.,.F.,.F.,(2,2),(2,2),(0.,509.26257766593),(0.,
    509.26257766593),.PIECEWISE_BEZIER_KNOTS.);
#241 = CARTESIAN_POINT('',(-222.815618353,-263.1562720447,
    -17.50426057906));
#242 = CARTESIAN_POINT('',(-199.4527623012,239.84624720925,
    -93.60298325045));
#243 = CARTESIAN_POINT('',(199.25559351759,-239.7934159929,
    266.50003882166));
#244 = CARTESIAN_POINT('',(222.6184495694,263.20910326106,
    190.40131615027));
#245 = ADVANCED_FACE('',(#246),#262,.F.);
#246 = FACE_BOUND('',#247,.F.);
#247 = EDGE_LOOP('',(#248,#249,#250,#257));
#248 = ORIENTED_EDGE('',*,*,#42,.F.);
#249 = ORIENTED_EDGE('',*,*,#236,.T.);
#250 = ORIENTED_EDGE('',*,*,#251,.F.);
#251 = EDGE_CURVE('',#252,#230,#254,.T.);
#252 = VERTEX_POINT('',#253);
#253 = CARTESIAN_POINT('',(-40.95827578257,10.791724217421,
    101.38746600088));
#254 = B_SPLINE_CURVE_WITH_KNOTS('',1,(#255,#256),.UNSPECIFIED.,.F.,.F.,
  (2,2),(0.,1.),.PIECEWISE_BEZIER_KNOTS.);
#255 = CARTESIAN_POINT('',(-41.01110699893,10.98889300107,
    101.53180356818));
#256 = CARTESIAN_POINT('',(-29.9693827815,-30.2193827815,71.365252003026
    ));
#257 = ORIENTED_EDGE('',*,*,#258,.T.);
#258 = EDGE_CURVE('',#252,#33,#259,.T.);
#259 = B_SPLINE_CURVE_WITH_KNOTS('',1,(#260,#261),.UNSPECIFIED.,.F.,.F.,
  (2,2),(0.,1.),.PIECEWISE_BEZIER_KNOTS.);
#260 = CARTESIAN_POINT('',(19.41307810365,-5.384731302368,
    79.290016817666));
#261 = CARTESIAN_POINT('',(-62.91035011909,16.673764808079,
    109.42248287381));
#262 = B_SPLINE_SURFACE_WITH_KNOTS('',1,1,(
    (#263,#264)
    ,(#265,#266
    )),.UNSPECIFIED.,.F.,.F.,.F.,(2,2),(2,2),(0.,509.26257766593),(0.,
    509.26257766593),.PIECEWISE_BEZIER_KNOTS.);
#263 = CARTESIAN_POINT('',(-263.1562720447,-222.815618353,
    -17.50426057906));
#264 = CARTESIAN_POINT('',(-239.7934159929,199.25559351759,
    266.50003882166));
#265 = CARTESIAN_POINT('',(239.84624720925,-199.4527623012,
    -93.60298325045));
#266 = CARTESIAN_POINT('',(263.20910326106,222.6184495694,
    190.40131615027));
#267 = ADVANCED_FACE('',(#268),#279,.F.);
#268 = FACE_BOUND('',#269,.F.);
#269 = EDGE_LOOP('',(#270,#271,#272,#277,#278));
#270 = ORIENTED_EDGE('',*,*,#32,.F.);
#271 = ORIENTED_EDGE('',*,*,#258,.F.);
#272 = ORIENTED_EDGE('',*,*,#273,.F.);
#273 = EDGE_CURVE('',#200,#252,#274,.T.);
#274 = B_SPLINE_CURVE_WITH_KNOTS('',1,(#275,#276),.UNSPECIFIED.,.F.,.F.,
  (2,2),(0.,1.),.PIECEWISE_BEZIER_KNOTS.);
#275 = CARTESIAN_POINT('',(-0.144337094092,-0.144337694092,
    131.26534277786));
#276 = CARTESIAN_POINT('',(-40.95827625578,10.791724344216,
    101.38746565447));
#277 = ORIENTED_EDGE('',*,*,#199,.F.);
#278 = ORIENTED_EDGE('',*,*,#184,.T.);
#279 = B_SPLINE_SURFACE_WITH_KNOTS('',1,1,(
    (#280,#281)
    ,(#282,#283
    )),.UNSPECIFIED.,.F.,.F.,.F.,(2,2),(2,2),(0.,509.26257766593),(0.,
    509.26257766593),.PIECEWISE_BEZIER_KNOTS.);
#280 = CARTESIAN_POINT('',(-173.9621577475,46.430006980146,
    -225.5541748756));
#281 = CARTESIAN_POINT('',(-301.277802164,80.544131085391,
    266.35570125436));
#282 = CARTESIAN_POINT('',(301.18629581311,-80.88563743633,
    -93.74732081775));
#283 = CARTESIAN_POINT('',(173.87065139663,-46.77151333109,
    398.16255531231));
#284 = ADVANCED_FACE('',(#285),#291,.F.);
#285 = FACE_BOUND('',#286,.F.);
#286 = EDGE_LOOP('',(#287,#288,#289,#290));
#287 = ORIENTED_EDGE('',*,*,#206,.T.);
#288 = ORIENTED_EDGE('',*,*,#273,.T.);
#289 = ORIENTED_EDGE('',*,*,#251,.T.);
#290 = ORIENTED_EDGE('',*,*,#229,.T.);
#291 = B_SPLINE_SURFACE_WITH_KNOTS('',1,1,(
    (#292,#293)
    ,(#294,#295
    )),.UNSPECIFIED.,.F.,.F.,.F.,(2,2),(2,2),(0.,52.25),(0.,52.25),
  .PIECEWISE_BEZIER_KNOTS.);
#292 = CARTESIAN_POINT('',(-30.16655156515,-30.16655156515,
    71.220914435729));
#293 = CARTESIAN_POINT('',(-41.20827578257,11.041724217421,
    101.38746600088));
#294 = CARTESIAN_POINT('',(11.041724217421,-41.20827578257,
    101.38746600088));
#295 = CARTESIAN_POINT('',(4.996003610813E-16,4.996003610813E-16,
    131.55401756604));
#296 = ( GEOMETRIC_REPRESENTATION_CONTEXT(3) 
GLOBAL_UNCERTAINTY_ASSIGNED_CONTEXT((#300)) GLOBAL_UNIT_ASSIGNED_CONTEXT
((#297,#298,#299)) REPRESENTATION_CONTEXT('Context #1',
  '3D Context with UNIT and UNCERTAINTY') );
#297 = ( LENGTH_UNIT() NAMED_UNIT(*) SI_UNIT(.MILLI.,.METRE.) );
#298 = ( NAMED_UNIT(*) PLANE_ANGLE_UNIT() SI_UNIT($,.RADIAN.) );
#299 = ( NAMED_UNIT(*) SI_UNIT($,.STERADIAN.) SOLID_ANGLE_UNIT() );
#300 = UNCERTAINTY_MEASURE_WITH_UNIT(LENGTH_MEASURE(5.E-06),#297,
  'distance_accuracy_value','confusion accuracy');
#301 = PRODUCT_RELATED_PRODUCT_CATEGORY('part',$,(#7));
ENDSEC;
END-ISO-10303-21;
