ISO-10303-21;
HEADER;
FILE_DESCRIPTION(('FreeCAD Model'),'2;1');
FILE_NAME('Open CASCADE Shape Model','2026-08-13T22:11:32',('FreeCAD'),(
    'FreeCAD'),'Open CASCADE STEP processor 7.8','FreeCAD','Unknown');
FILE_SCHEMA(('AUTOMOTIVE_DESIGN { 1 0 10303 214 1 1 1 1 }'));
ENDSEC;
DATA;
#1 = APPLICATION_PROTOCOL_DEFINITION('international standard',
  'automotive_design',2000,#2);
#2 = APPLICATION_CONTEXT(
  'core data for automotive mechanical design processes');
#3 = SHAPE_DEFINITION_REPRESENTATION(#4,#10);
#4 = PRODUCT_DEFINITION_SHAPE('','',#5);
#5 = PRODUCT_DEFINITION('design','',#6,#9);
#6 = PRODUCT_DEFINITION_FORMATION('','',#7);
#7 = PRODUCT('Open CASCADE STEP translator 7.8 71',
  'Open CASCADE STEP translator 7.8 71','',(#8));
#8 = PRODUCT_CONTEXT('',#2,'mechanical');
#9 = PRODUCT_DEFINITION_CONTEXT('part definition',#2,'design');
#10 = ADVANCED_BREP_SHAPE_REPRESENTATION('',(#11,#15),#426);
#11 = AXIS2_PLACEMENT_3D('',#12,#13,#14);
#12 = CARTESIAN_POINT('',(0.,0.,0.));
#13 = DIRECTION('',(0.,0.,1.));
#14 = DIRECTION('',(1.,0.,-0.));
#15 = MANIFOLD_SOLID_BREP('',#16);
#16 = CLOSED_SHELL('',(#17,#57,#95,#305,#337,#353,#411));
#17 = ADVANCED_FACE('',(#18),#52,.F.);
#18 = FACE_BOUND('',#19,.F.);
#19 = EDGE_LOOP('',(#20,#29,#38,#47));
#20 = ORIENTED_EDGE('',*,*,#21,.F.);
#21 = EDGE_CURVE('',#22,#24,#26,.T.);
#22 = VERTEX_POINT('',#23);
#23 = CARTESIAN_POINT('',(61.534250601935,-16.30504005375,
    38.304190218308));
#24 = VERTEX_POINT('',#25);
#25 = CARTESIAN_POINT('',(0.144337567297,0.144337567297,38.304190218308)
  );
#26 = B_SPLINE_CURVE_WITH_KNOTS('',1,(#27,#28),.UNSPECIFIED.,.F.,.F.,(2,
    2),(0.,1.),.PIECEWISE_BEZIER_KNOTS.);
#27 = CARTESIAN_POINT('',(63.657822208242,-16.87404935073,
    38.304190218308));
#28 = CARTESIAN_POINT('',(-16.30504005375,4.551935016852,38.304190218308
    ));
#29 = ORIENTED_EDGE('',*,*,#30,.T.);
#30 = EDGE_CURVE('',#22,#31,#33,.T.);
#31 = VERTEX_POINT('',#32);
#32 = CARTESIAN_POINT('',(63.657822208242,-1.55916696416E-14,
    38.304190218308));
#33 = CIRCLE('',#34,63.657822208242);
#34 = AXIS2_PLACEMENT_3D('',#35,#36,#37);
#35 = CARTESIAN_POINT('',(0.,0.,38.304190218308));
#36 = DIRECTION('',(0.,0.,1.));
#37 = DIRECTION('',(1.,0.,-0.));
#38 = ORIENTED_EDGE('',*,*,#39,.T.);
#39 = EDGE_CURVE('',#31,#40,#42,.T.);
#40 = VERTEX_POINT('',#41);
#41 = CARTESIAN_POINT('',(-16.30504005375,61.534250601935,
    38.304190218308));
#42 = CIRCLE('',#43,63.657822208242);
#43 = AXIS2_PLACEMENT_3D('',#44,#45,#46);
#44 = CARTESIAN_POINT('',(0.,0.,38.304190218308));
#45 = DIRECTION('',(0.,0.,1.));
#46 = DIRECTION('',(1.,0.,-0.));
#47 = ORIENTED_EDGE('',*,*,#48,.F.);
#48 = EDGE_CURVE('',#24,#40,#49,.T.);
#49 = B_SPLINE_CURVE_WITH_KNOTS('',1,(#50,#51),.UNSPECIFIED.,.F.,.F.,(2,
    2),(0.,1.),.PIECEWISE_BEZIER_KNOTS.);
#50 = CARTESIAN_POINT('',(17.240074754515,-63.65782220824,
    38.304190218308));
#51 = CARTESIAN_POINT('',(-16.87404935073,63.657822208242,
    38.304190218308));
#52 = PLANE('',#53);
#53 = AXIS2_PLACEMENT_3D('',#54,#55,#56);
#54 = CARTESIAN_POINT('',(0.,0.,38.304190218308));
#55 = DIRECTION('',(0.,0.,1.));
#56 = DIRECTION('',(1.,0.,-0.));
#57 = ADVANCED_FACE('',(#58),#90,.F.);
#58 = FACE_BOUND('',#59,.F.);
#59 = EDGE_LOOP('',(#60,#69,#77,#78,#85));
#60 = ORIENTED_EDGE('',*,*,#61,.F.);
#61 = EDGE_CURVE('',#62,#64,#66,.T.);
#62 = VERTEX_POINT('',#63);
#63 = CARTESIAN_POINT('',(61.534250607664,-16.30504005528,
    63.689584942119));
#64 = VERTEX_POINT('',#65);
#65 = CARTESIAN_POINT('',(40.958275782579,-10.79172421742,
    71.220914435729));
#66 = B_SPLINE_CURVE_WITH_KNOTS('',1,(#67,#68),.UNSPECIFIED.,.F.,.F.,(2,
    2),(0.,1.),.PIECEWISE_BEZIER_KNOTS.);
#67 = CARTESIAN_POINT('',(91.583977345507,-24.35684006746,
    52.690621579288));
#68 = CARTESIAN_POINT('',(-27.46090524818,7.541140086571,96.264072799115
    ));
#69 = ORIENTED_EDGE('',*,*,#70,.T.);
#70 = EDGE_CURVE('',#62,#22,#71,.T.);
#71 = B_SPLINE_CURVE_WITH_KNOTS('',4,(#72,#73,#74,#75,#76),
  .UNSPECIFIED.,.F.,.F.,(5,5),(0.,1.),.PIECEWISE_BEZIER_KNOTS.);
#72 = CARTESIAN_POINT('',(61.534250601935,-16.30504005375,
    74.437494428457));
#73 = CARTESIAN_POINT('',(61.534250601935,-16.30504005375,
    65.404168225919));
#74 = CARTESIAN_POINT('',(61.534250601935,-16.30504005375,
    56.370842023382));
#75 = CARTESIAN_POINT('',(61.534250601935,-16.30504005375,
    47.337515820845));
#76 = CARTESIAN_POINT('',(61.534250601935,-16.30504005375,
    38.304189618308));
#77 = ORIENTED_EDGE('',*,*,#21,.T.);
#78 = ORIENTED_EDGE('',*,*,#79,.F.);
#79 = EDGE_CURVE('',#80,#24,#82,.T.);
#80 = VERTEX_POINT('',#81);
#81 = CARTESIAN_POINT('',(0.144337567297,0.144337567297,41.343038005166)
  );
#82 = B_SPLINE_CURVE_WITH_KNOTS('',1,(#83,#84),.UNSPECIFIED.,.F.,.F.,(2,
    2),(0.,1.),.PIECEWISE_BEZIER_KNOTS.);
#83 = CARTESIAN_POINT('',(0.144337567297,0.144337567297,82.542759330109)
  );
#84 = CARTESIAN_POINT('',(0.144337567297,0.144337567297,21.21984586363)
  );
#85 = ORIENTED_EDGE('',*,*,#86,.T.);
#86 = EDGE_CURVE('',#80,#64,#87,.T.);
#87 = B_SPLINE_CURVE_WITH_KNOTS('',1,(#88,#89),.UNSPECIFIED.,.F.,.F.,(2,
    2),(0.,1.),.PIECEWISE_BEZIER_KNOTS.);
#88 = CARTESIAN_POINT('',(0.144336620887,0.144337820887,41.343037312345)
  );
#89 = CARTESIAN_POINT('',(40.958276728989,-10.79172447101,
    71.220915128549));
#90 = B_SPLINE_SURFACE_WITH_KNOTS('',1,1,(
    (#91,#92)
    ,(#93,#94
    )),.UNSPECIFIED.,.F.,.F.,.F.,(2,2),(2,2),(0.,509.26257766593),(0.,
    509.26257766593),.PIECEWISE_BEZIER_KNOTS.);
#91 = CARTESIAN_POINT('',(-173.8706513966,46.771513331092,
    398.16255531231));
#92 = CARTESIAN_POINT('',(-301.1862958131,80.885637436337,
    -93.74732081775));
#93 = CARTESIAN_POINT('',(301.27780216405,-80.54413108539,
    266.35570125436));
#94 = CARTESIAN_POINT('',(173.96215774757,-46.43000698014,
    -225.5541748756));
#95 = ADVANCED_FACE('',(#96),#300,.F.);
#96 = FACE_BOUND('',#97,.F.);
#97 = EDGE_LOOP('',(#98,#217,#218,#225,#232));
#98 = ORIENTED_EDGE('',*,*,#99,.F.);
#99 = EDGE_CURVE('',#62,#100,#102,.T.);
#100 = VERTEX_POINT('',#101);
#101 = CARTESIAN_POINT('',(63.657822208242,-1.55916696416E-14,
    74.437493828457));
#102 = B_SPLINE_CURVE_WITH_KNOTS('',8,(#103,#104,#105,#106,#107,#108,
    #109,#110,#111,#112,#113,#114,#115,#116,#117,#118,#119,#120,#121,
    #122,#123,#124,#125,#126,#127,#128,#129,#130,#131,#132,#133,#134,
    #135,#136,#137,#138,#139,#140,#141,#142,#143,#144,#145,#146,#147,
    #148,#149,#150,#151,#152,#153,#154,#155,#156,#157,#158,#159,#160,
    #161,#162,#163,#164,#165,#166,#167,#168,#169,#170,#171,#172,#173,
    #174,#175,#176,#177,#178,#179,#180,#181,#182,#183,#184,#185,#186,
    #187,#188,#189,#190,#191,#192,#193,#194,#195,#196,#197,#198,#199,
    #200,#201,#202,#203,#204,#205,#206,#207,#208,#209,#210,#211,#212,
    #213,#214,#215,#216),.UNSPECIFIED.,.F.,.F.,(9,7,7,7,7,7,7,7,7,7,7,7,
    7,7,7,7,9),(0.,7.228398775116E-02,0.12546637095,0.164965633747,
    0.268931279461,0.37090188991,0.410699252592,0.462739636346,
    0.530611246496,0.585072335388,0.632924809571,0.672795369963,
    0.729375016578,0.758127741703,0.809505258877,0.872565501811,1.),
  .UNSPECIFIED.);
#103 = CARTESIAN_POINT('',(-47.93512791562,41.887251521303,
    123.46994597915));
#104 = CARTESIAN_POINT('',(-49.48307973255,40.115799214049,
    122.54331639691));
#105 = CARTESIAN_POINT('',(-50.9376857318,38.300174086549,
    121.56943274707));
#106 = CARTESIAN_POINT('',(-52.29931382767,36.446283778052,
    120.55239735525));
#107 = CARTESIAN_POINT('',(-53.56879436943,34.55958559398,
    119.49608959484));
#108 = CARTESIAN_POINT('',(-54.7473184681,32.645053581724,
    118.40412479183));
#109 = CARTESIAN_POINT('',(-55.83634083576,30.707147738216,
    117.27981541157));
#110 = CARTESIAN_POINT('',(-56.83748713713,28.749785349302,
    116.12613452734));
#111 = CARTESIAN_POINT('',(-58.42565434595,25.324348565202,
    114.07717246621));
#112 = CARTESIAN_POINT('',(-59.05216382405,23.863738054085,
    113.19421612695));
#113 = CARTESIAN_POINT('',(-59.63266590343,22.395853373904,
    112.29787149947));
#114 = CARTESIAN_POINT('',(-60.16782529685,20.921976645442,
    111.38913593944));
#115 = CARTESIAN_POINT('',(-60.65829879586,19.443301633917,
    110.46894500486));
#116 = CARTESIAN_POINT('',(-61.10473198157,17.960933457065,
    109.53817165472));
#117 = CARTESIAN_POINT('',(-61.50775366518,16.47588803128,
    108.59762485326));
#118 = CARTESIAN_POINT('',(-62.13550407473,13.88482753113,
    106.94278391885));
#119 = CARTESIAN_POINT('',(-62.37942345494,12.779611118851,
    106.23254741574));
#120 = CARTESIAN_POINT('',(-62.5999729482,11.673827736334,
    105.51764667861));
#121 = CARTESIAN_POINT('',(-62.7973902193,10.567847675051,
    104.79837811689));
#122 = CARTESIAN_POINT('',(-62.97190367926,9.462025816585,
    104.07502592136));
#123 = CARTESIAN_POINT('',(-63.12373231655,8.356701648599,
    103.34786204405));
#124 = CARTESIAN_POINT('',(-63.25308552817,7.25219928082,102.61714617834
    ));
#125 = CARTESIAN_POINT('',(-63.64200044839,3.244652659102,
    99.951117302643));
#126 = CARTESIAN_POINT('',(-63.76948602822,0.348589747825,
    97.996401029178));
#127 = CARTESIAN_POINT('',(-63.74633555104,-2.534043756464,
    96.023288899473));
#128 = CARTESIAN_POINT('',(-63.57562986195,-5.398094172605,
    94.035864776999));
#129 = CARTESIAN_POINT('',(-63.25998517475,-8.238593240971,
    92.038000846545));
#130 = CARTESIAN_POINT('',(-62.801599145,-11.05076269556,90.033362923375
    ));
#131 = CARTESIAN_POINT('',(-62.20220009856,-13.83000359382,
    88.025408449245));
#132 = CARTESIAN_POINT('',(-60.73783985246,-19.26112602699,
    84.047886316673));
#133 = CARTESIAN_POINT('',(-59.87831276007,-21.91399258367,
    82.078640386509));
#134 = CARTESIAN_POINT('',(-58.88549272978,-24.52630222719,
    80.11270104247));
#135 = CARTESIAN_POINT('',(-57.76012784492,-27.09348145836,
    78.15332895136));
#136 = CARTESIAN_POINT('',(-56.50267327077,-29.61058967218,
    76.203981910159));
#137 = CARTESIAN_POINT('',(-55.11333704425,-32.07233491673,
    74.268312462655));
#138 = CARTESIAN_POINT('',(-53.59204450852,-34.47305801568,
    72.350172235016));
#139 = CARTESIAN_POINT('',(-51.29287268403,-37.71744449344,
    69.713437413146));
#140 = CARTESIAN_POINT('',(-50.62729055543,-38.61796376861,
    68.976561326216));
#141 = CARTESIAN_POINT('',(-49.94153546581,-39.50785884089,
    68.24324979671));
#142 = CARTESIAN_POINT('',(-49.23558797324,-40.38673770405,
    67.513767011741));
#143 = CARTESIAN_POINT('',(-48.50942786685,-41.25418983334,
    66.788389666076));
#144 = CARTESIAN_POINT('',(-47.76303432054,-42.10978625471,66.067406943)
  );
#145 = CARTESIAN_POINT('',(-46.99638604672,-42.95307961402,
    65.351120495178));
#146 = CARTESIAN_POINT('',(-45.18045210779,-44.86962647652,
    63.709755667695));
#147 = CARTESIAN_POINT('',(-44.11678761854,-45.93379880603,
    62.788248337555));
#148 = CARTESIAN_POINT('',(-43.01841174112,-46.97509067474,
    61.876016027828));
#149 = CARTESIAN_POINT('',(-41.88528905189,-47.99238982341,
    60.97381194273));
#150 = CARTESIAN_POINT('',(-40.71741049451,-48.98450628612,
    60.082447186675));
#151 = CARTESIAN_POINT('',(-39.51479730135,-49.95017518412,
    59.20278957371));
#152 = CARTESIAN_POINT('',(-38.27750328651,-50.88805832096,
    58.335762957666));
#153 = CARTESIAN_POINT('',(-35.34680623479,-52.98186265471,
    56.369313216573));
#154 = CARTESIAN_POINT('',(-33.62924869147,-54.11725056149,
    55.279494008007));
#155 = CARTESIAN_POINT('',(-31.8530940263,-55.19982480308,
    54.215023186008));
#156 = CARTESIAN_POINT('',(-30.01875422345,-56.22616049932,
    53.178315385564));
#157 = CARTESIAN_POINT('',(-28.12694661299,-57.19253731451,
    52.172042923729));
#158 = CARTESIAN_POINT('',(-26.17873922795,-58.09498676508,
    51.199111788791));
#159 = CARTESIAN_POINT('',(-24.17559701123,-58.92934090674,
    50.262636842803));
#160 = CARTESIAN_POINT('',(-20.46953202197,-60.30267445945,
    48.646375615294));
#161 = CARTESIAN_POINT('',(-18.78557810744,-60.86741146163,
    47.952468113817));
#162 = CARTESIAN_POINT('',(-17.06863157593,-61.38324373011,
    47.285925098661));
#163 = CARTESIAN_POINT('',(-15.32004750067,-61.8478400264,
    46.648586830944));
#164 = CARTESIAN_POINT('',(-13.54149493133,-62.2588289621,
    46.042378456352));
#165 = CARTESIAN_POINT('',(-11.73498598937,-62.61385183728,
    45.469279240682));
#166 = CARTESIAN_POINT('',(-9.902910708028,-62.91062690589,
    44.93128505191));
#167 = CARTESIAN_POINT('',(-6.418320401037,-63.35473734851,
    43.990227691482));
#168 = CARTESIAN_POINT('',(-4.770963010703,-63.51584090184,
    43.578704591254));
#169 = CARTESIAN_POINT('',(-3.10800208691,-63.6288767884,43.197156673157
    ));
#170 = CARTESIAN_POINT('',(-1.431650199826,-63.69250090453,
    42.846906905519));
#171 = CARTESIAN_POINT('',(0.255657189888,-63.70551678602,
    42.529218208819));
#172 = CARTESIAN_POINT('',(1.951252893046,-63.66691904417,
    42.245265405815));
#173 = CARTESIAN_POINT('',(3.652227277227,-63.57594743443,
    41.996100252884));
#174 = CARTESIAN_POINT('',(6.774507938625,-63.31234119711,
    41.604729641361));
#175 = CARTESIAN_POINT('',(8.19520890689,-63.15585336324,41.451606496802
    ));
#176 = CARTESIAN_POINT('',(9.615660763262,-62.96242375509,
    41.323760643951));
#177 = CARTESIAN_POINT('',(11.033982804941,-62.73193405125,
    41.221617090323));
#178 = CARTESIAN_POINT('',(12.448272045444,-62.46441634227,
    41.145502188378));
#179 = CARTESIAN_POINT('',(13.85660422578,-62.16006087182,
    41.095638163098));
#180 = CARTESIAN_POINT('',(15.257035234595,-61.81922708696,
    41.07213530466));
#181 = CARTESIAN_POINT('',(18.620934348706,-60.90779127208,
    41.079021277415));
#182 = CARTESIAN_POINT('',(20.574705421908,-60.30067588703,
    41.136123873931));
#183 = CARTESIAN_POINT('',(22.503134906649,-59.62267097495,
    41.246282750415));
#184 = CARTESIAN_POINT('',(24.401003078124,-58.87594097724,
    41.408974841841));
#185 = CARTESIAN_POINT('',(26.263599813784,-58.06315085806,
    41.623241956083));
#186 = CARTESIAN_POINT('',(28.086684697216,-57.18738635968,
    41.887752542048));
#187 = CARTESIAN_POINT('',(29.86645914909,-56.2520992988,42.200844153346
    ));
#188 = CARTESIAN_POINT('',(32.480275451089,-54.75745924493,
    42.743340711218));
#189 = CARTESIAN_POINT('',(33.349002290492,-54.23941402781,
    42.938184128581));
#190 = CARTESIAN_POINT('',(34.205320377012,-53.7074165205,
    43.144828096756));
#191 = CARTESIAN_POINT('',(35.048863531855,-53.16194860905,
    43.36301049682));
#192 = CARTESIAN_POINT('',(35.879307296623,-52.60349693555,
    43.592458326053));
#193 = CARTESIAN_POINT('',(36.696366106115,-52.03255003599,
    43.832890170231));
#194 = CARTESIAN_POINT('',(37.49979046114,-51.44959547811,
    44.084018675907));
#195 = CARTESIAN_POINT('',(39.700233265284,-49.7928584439,
    44.812882131024));
#196 = CARTESIAN_POINT('',(41.066863980725,-48.69381579571,
    45.313431439933));
#197 = CARTESIAN_POINT('',(42.388061883216,-47.56072532045,
    45.845550629065));
#198 = CARTESIAN_POINT('',(43.662987603201,-46.39626611664,
    46.407563455371));
#199 = CARTESIAN_POINT('',(44.891101083201,-45.20302454003,
    46.997802242421));
#200 = CARTESIAN_POINT('',(46.072113823541,-43.98346395818,
    47.614637277968));
#201 = CARTESIAN_POINT('',(47.205949056604,-42.73989983568,
    48.25650111975));
#202 = CARTESIAN_POINT('',(49.626589012841,-39.9213168749,
    49.738621224602));
#203 = CARTESIAN_POINT('',(50.889489564506,-38.33529957458,
    50.590764343962));
#204 = CARTESIAN_POINT('',(52.081683913483,-36.72032198398,
    51.475627842626));
#205 = CARTESIAN_POINT('',(53.203716144599,-35.08000941982,
    52.390636008795));
#206 = CARTESIAN_POINT('',(54.256347201816,-33.41770065608,
    53.333369155015));
#207 = CARTESIAN_POINT('',(55.24050281199,-31.73643096214,
    54.301584733986));
#208 = CARTESIAN_POINT('',(56.157224149174,-30.03891630302,
    55.29323715901));
#209 = CARTESIAN_POINT('',(58.726135495471,-24.86912281802,
    58.35412836902));
#210 = CARTESIAN_POINT('',(60.172996961584,-21.35570053318,
    60.489046390513));
#211 = CARTESIAN_POINT('',(61.358489760254,-17.80562831057,
    62.696830570967));
#212 = CARTESIAN_POINT('',(62.291578665235,-14.23510867538,
    64.964773712672));
#213 = CARTESIAN_POINT('',(62.980772847306,-10.65826580624,
    67.28167153546));
#214 = CARTESIAN_POINT('',(63.433887706066,-7.087149664821,
    69.637863445477));
#215 = CARTESIAN_POINT('',(63.657822208242,-3.531752243497,
    72.025262186212));
#216 = CARTESIAN_POINT('',(63.657822208242,-1.42108547152E-14,
    74.437493828457));
#217 = ORIENTED_EDGE('',*,*,#61,.T.);
#218 = ORIENTED_EDGE('',*,*,#219,.T.);
#219 = EDGE_CURVE('',#64,#220,#222,.T.);
#220 = VERTEX_POINT('',#221);
#221 = CARTESIAN_POINT('',(30.022213997861,30.02221399786,
    101.09879086629));
#222 = B_SPLINE_CURVE_WITH_KNOTS('',1,(#223,#224),.UNSPECIFIED.,.F.,.F.,
  (2,2),(0.,1.),.PIECEWISE_BEZIER_KNOTS.);
#223 = CARTESIAN_POINT('',(41.01110699893,-10.98889300107,
    71.076576868431));
#224 = CARTESIAN_POINT('',(29.969382781509,30.219382781509,
    101.24312843358));
#225 = ORIENTED_EDGE('',*,*,#226,.T.);
#226 = EDGE_CURVE('',#220,#227,#229,.T.);
#227 = VERTEX_POINT('',#228);
#228 = CARTESIAN_POINT('',(45.012877758024,45.012877758024,
    108.59412274637));
#229 = B_SPLINE_CURVE_WITH_KNOTS('',1,(#230,#231),.UNSPECIFIED.,.F.,.F.,
  (2,2),(0.,1.),.PIECEWISE_BEZIER_KNOTS.);
#230 = CARTESIAN_POINT('',(-14.21866699955,-14.21866699955,
    78.978350367585));
#231 = CARTESIAN_POINT('',(46.181710335219,46.181710335219,
    109.17853903497));
#232 = ORIENTED_EDGE('',*,*,#233,.F.);
#233 = EDGE_CURVE('',#100,#227,#234,.T.);
#234 = B_SPLINE_CURVE_WITH_KNOTS('',8,(#235,#236,#237,#238,#239,#240,
    #241,#242,#243,#244,#245,#246,#247,#248,#249,#250,#251,#252,#253,
    #254,#255,#256,#257,#258,#259,#260,#261,#262,#263,#264,#265,#266,
    #267,#268,#269,#270,#271,#272,#273,#274,#275,#276,#277,#278,#279,
    #280,#281,#282,#283,#284,#285,#286,#287,#288,#289,#290,#291,#292,
    #293,#294,#295,#296,#297,#298,#299),.UNSPECIFIED.,.F.,.F.,(9,7,7,7,7
    ,7,7,7,7,9),(0.,0.124344540196,0.356426705375,0.441119631809,
    0.551707606135,0.640453761405,0.717931216429,0.779663065144,
    0.872113005184,1.),.UNSPECIFIED.);
#235 = CARTESIAN_POINT('',(63.657822208242,-1.163579833152E-14,
    74.437493828457));
#236 = CARTESIAN_POINT('',(63.657822208242,2.118892824111,
    75.884724541273));
#237 = CARTESIAN_POINT('',(63.577218003921,4.228843728896,
    77.340599402827));
#238 = CARTESIAN_POINT('',(63.417199723791,6.327892441836,
    78.803561713454));
#239 = CARTESIAN_POINT('',(63.178797787931,8.414103162245,
    80.272100716735));
#240 = CARTESIAN_POINT('',(62.8629062608,10.485568507392,81.744750020885
    ));
#241 = CARTESIAN_POINT('',(62.470291448092,12.540410718212,
    83.220086848936));
#242 = CARTESIAN_POINT('',(62.001585737614,14.576780124598,
    84.696732117709));
#243 = CARTESIAN_POINT('',(60.441325459399,20.355734733711,
    88.929378968563));
#244 = CARTESIAN_POINT('',(59.162348093585,24.046529236312,
    91.684307597301));
#245 = CARTESIAN_POINT('',(57.623433109834,27.654736846965,
    94.430400215558));
#246 = CARTESIAN_POINT('',(55.825915679686,31.167709394008,
    97.158773608248));
#247 = CARTESIAN_POINT('',(53.770339271817,34.571032776488,
    99.859483299411));
#248 = CARTESIAN_POINT('',(51.456541260331,37.848531419015,
    102.52151092844));
#249 = CARTESIAN_POINT('',(48.883770894849,40.982298891473,
    105.13276357283));
#250 = CARTESIAN_POINT('',(45.014918907836,45.035761499713,
    108.60937907627));
#251 = CARTESIAN_POINT('',(43.945839765305,46.097494055653,
    109.5302109604));
#252 = CARTESIAN_POINT('',(42.84200129613,47.136187611842,
    110.44166831335));
#253 = CARTESIAN_POINT('',(41.703369496851,48.150721051922,
    111.34299162146));
#254 = CARTESIAN_POINT('',(40.529937698832,49.13989481475,
    112.23336278969));
#255 = CARTESIAN_POINT('',(39.321730588736,50.102433776538,
    113.11190637432));
#256 = CARTESIAN_POINT('',(38.078806604609,51.036988930435,
    113.97769029164));
#257 = CARTESIAN_POINT('',(35.133097740777,53.124038066914,
    115.94227349948));
#258 = CARTESIAN_POINT('',(33.405999092805,54.255733413879,
    117.03131678613));
#259 = CARTESIAN_POINT('',(31.620127313731,55.334104303534,
    118.09469502064));
#260 = CARTESIAN_POINT('',(29.775915247998,56.355686090037,
    119.12996258985));
#261 = CARTESIAN_POINT('',(27.874109403945,57.316716246664,
    120.13441301972));
#262 = CARTESIAN_POINT('',(25.91581648373,58.213183284616,121.1051038719
    ));
#263 = CARTESIAN_POINT('',(23.902551073629,59.040877426587,
    122.03888262648));
#264 = CARTESIAN_POINT('',(20.178118534482,60.400977199717,
    123.64946650937));
#265 = CARTESIAN_POINT('',(18.485904810691,60.959386347391,
    124.34056365585));
#266 = CARTESIAN_POINT('',(16.760743226586,61.468399714397,
    125.00395273366));
#267 = CARTESIAN_POINT('',(15.004030188127,61.925667587212,
    125.63777329858));
#268 = CARTESIAN_POINT('',(13.217482191731,62.328803736297,
    126.24008138487));
#269 = CARTESIAN_POINT('',(11.403165296656,62.675439744411,
    126.8088812184));
#270 = CARTESIAN_POINT('',(9.563530482053,62.963291229429,
    127.34216397685));
#271 = CARTESIAN_POINT('',(6.075819641701,63.388363984625,
    128.27078945219));
#272 = CARTESIAN_POINT('',(4.433048732326,63.54007502728,128.67505796405
    ));
#273 = CARTESIAN_POINT('',(2.77514743059,63.643942784758,129.04941795843
    ));
#274 = CARTESIAN_POINT('',(1.104331774552,63.698658982286,
    129.39257030391));
#275 = CARTESIAN_POINT('',(-0.576964893677,63.703065427738,
    129.70327860806));
#276 = CARTESIAN_POINT('',(-2.266083635113,63.656196463792,
    129.98039669505));
#277 = CARTESIAN_POINT('',(-3.960129864296,63.557331819714,
    130.22290286491));
#278 = CARTESIAN_POINT('',(-7.00715234545,63.28553063839,130.59490302268
    ));
#279 = CARTESIAN_POINT('',(-8.359536364664,63.131725670777,
    130.73735572954));
#280 = CARTESIAN_POINT('',(-9.711507114687,62.944433472046,
    130.85686059868));
#281 = CARTESIAN_POINT('',(-11.06143947453,62.723562989059,
    130.95305802187));
#282 = CARTESIAN_POINT('',(-12.40769017575,62.469147248498,
    131.02566981776));
#283 = CARTESIAN_POINT('',(-13.74859859409,62.181349470474,
    131.07450355243));
#284 = CARTESIAN_POINT('',(-15.08248784508,61.860471650706,
    131.09945860162));
#285 = CARTESIAN_POINT('',(-18.39226020576,60.977553114601,
    131.1021444091));
#286 = CARTESIAN_POINT('',(-20.35760744307,60.374883611857,
    131.05019699174));
#287 = CARTESIAN_POINT('',(-22.2978350798,59.70048723138,130.94466199985
    ));
#288 = CARTESIAN_POINT('',(-24.20762951937,58.956515229686,
    130.78603631328));
#289 = CARTESIAN_POINT('',(-26.08218515665,58.145635128663,
    130.5752623966));
#290 = CARTESIAN_POINT('',(-27.91716547034,57.270951379287,
    130.31366699076));
#291 = CARTESIAN_POINT('',(-29.70867643524,56.335951551833,
    130.0029194945));
#292 = CARTESIAN_POINT('',(-33.86654271902,53.972962114305,
    129.14991003693));
#293 = CARTESIAN_POINT('',(-36.1903203227,52.493209519554,
    128.56450103691));
#294 = CARTESIAN_POINT('',(-38.416129119,50.914912774029,127.89385559406
    ));
#295 = CARTESIAN_POINT('',(-40.53816839954,49.248144369472,
    127.14379174489));
#296 = CARTESIAN_POINT('',(-42.5526441798,47.502845365471,126.320405012)
  );
#297 = CARTESIAN_POINT('',(-44.45736819716,45.688515541873,
    125.42978338584));
#298 = CARTESIAN_POINT('',(-46.2514750261,43.813998053807,
    124.47780846982));
#299 = CARTESIAN_POINT('',(-47.93512791562,41.887251521303,
    123.46994597915));
#300 = B_SPLINE_SURFACE_WITH_KNOTS('',1,1,(
    (#301,#302)
    ,(#303,#304
    )),.UNSPECIFIED.,.F.,.F.,.F.,(2,2),(2,2),(0.,509.26257766593),(0.,
    509.26257766593),.PIECEWISE_BEZIER_KNOTS.);
#301 = CARTESIAN_POINT('',(-339.3078259324,61.385849831325,
    190.11264101567));
#302 = CARTESIAN_POINT('',(-108.0393931513,-292.4571138288,
    -93.89165838505));
#303 = CARTESIAN_POINT('',(107.98656193495,292.65428261247,
    266.21136368707));
#304 = CARTESIAN_POINT('',(339.2549947161,-61.18868104767,
    -17.79293571365));
#305 = ADVANCED_FACE('',(#306),#332,.F.);
#306 = FACE_BOUND('',#307,.F.);
#307 = EDGE_LOOP('',(#308,#309,#310,#320,#327));
#308 = ORIENTED_EDGE('',*,*,#79,.T.);
#309 = ORIENTED_EDGE('',*,*,#48,.T.);
#310 = ORIENTED_EDGE('',*,*,#311,.T.);
#311 = EDGE_CURVE('',#40,#312,#314,.T.);
#312 = VERTEX_POINT('',#313);
#313 = CARTESIAN_POINT('',(-16.30504005375,61.534250601935,
    63.689584944215));
#314 = B_SPLINE_CURVE_WITH_KNOTS('',4,(#315,#316,#317,#318,#319),
  .UNSPECIFIED.,.F.,.F.,(5,5),(0.,1.),.PIECEWISE_BEZIER_KNOTS.);
#315 = CARTESIAN_POINT('',(-16.30504005375,61.534250601935,
    38.304189618308));
#316 = CARTESIAN_POINT('',(-16.30504005375,61.534250601935,
    61.503678466006));
#317 = CARTESIAN_POINT('',(-16.30504005375,61.534250601935,
    84.703167313706));
#318 = CARTESIAN_POINT('',(-16.30504005375,61.534250601935,
    107.9026561614));
#319 = CARTESIAN_POINT('',(-16.30504005375,61.534250601935,
    131.1021450091));
#320 = ORIENTED_EDGE('',*,*,#321,.T.);
#321 = EDGE_CURVE('',#312,#322,#324,.T.);
#322 = VERTEX_POINT('',#323);
#323 = CARTESIAN_POINT('',(-10.79172421742,40.958275782579,
    71.220914435729));
#324 = B_SPLINE_CURVE_WITH_KNOTS('',1,(#325,#326),.UNSPECIFIED.,.F.,.F.,
  (2,2),(0.,1.),.PIECEWISE_BEZIER_KNOTS.);
#325 = CARTESIAN_POINT('',(-17.91318022197,67.535911415422,
    61.492824621582));
#326 = CARTESIAN_POINT('',(12.362422389919,-45.45417576191,
    102.8500669043));
#327 = ORIENTED_EDGE('',*,*,#328,.T.);
#328 = EDGE_CURVE('',#322,#80,#329,.T.);
#329 = B_SPLINE_CURVE_WITH_KNOTS('',1,(#330,#331),.UNSPECIFIED.,.F.,.F.,
  (2,2),(0.,1.),.PIECEWISE_BEZIER_KNOTS.);
#330 = CARTESIAN_POINT('',(-10.84455543377,41.155444566228,
    71.365252003026));
#331 = CARTESIAN_POINT('',(0.197168783649,-5.283121635129E-02,
    41.198700437868));
#332 = B_SPLINE_SURFACE_WITH_KNOTS('',1,1,(
    (#333,#334)
    ,(#335,#336
    )),.UNSPECIFIED.,.F.,.F.,.F.,(2,2),(2,2),(0.,509.26257766593),(0.,
    509.26257766593),.PIECEWISE_BEZIER_KNOTS.);
#333 = CARTESIAN_POINT('',(46.771513331092,-173.8706513966,
    398.16255531231));
#334 = CARTESIAN_POINT('',(-80.54413108539,301.27780216406,
    266.35570125436));
#335 = CARTESIAN_POINT('',(80.885637436337,-301.1862958131,
    -93.74732081775));
#336 = CARTESIAN_POINT('',(-46.43000698014,173.96215774757,
    -225.5541748756));
#337 = ADVANCED_FACE('',(#338),#348,.T.);
#338 = FACE_BOUND('',#339,.T.);
#339 = EDGE_LOOP('',(#340,#341,#346,#347));
#340 = ORIENTED_EDGE('',*,*,#219,.T.);
#341 = ORIENTED_EDGE('',*,*,#342,.T.);
#342 = EDGE_CURVE('',#220,#322,#343,.T.);
#343 = B_SPLINE_CURVE_WITH_KNOTS('',1,(#344,#345),.UNSPECIFIED.,.F.,.F.,
  (2,2),(0.,1.),.PIECEWISE_BEZIER_KNOTS.);
#344 = CARTESIAN_POINT('',(30.022214471066,30.022213871066,
    101.0987912127));
#345 = CARTESIAN_POINT('',(-10.79172469062,40.958275909374,
    71.220914089318));
#346 = ORIENTED_EDGE('',*,*,#328,.T.);
#347 = ORIENTED_EDGE('',*,*,#86,.T.);
#348 = B_SPLINE_SURFACE_WITH_KNOTS('',1,1,(
    (#349,#350)
    ,(#351,#352
    )),.UNSPECIFIED.,.F.,.F.,.F.,(2,2),(2,2),(0.,52.25),(0.,52.25),
  .PIECEWISE_BEZIER_KNOTS.);
#349 = CARTESIAN_POINT('',(-4.996003610813E-16,-4.996003610813E-16,
    41.054362870571));
#350 = CARTESIAN_POINT('',(-11.04172421742,41.208275782579,
    71.220914435729));
#351 = CARTESIAN_POINT('',(41.208275782579,-11.04172421742,
    71.220914435729));
#352 = CARTESIAN_POINT('',(30.166551565158,30.166551565158,
    101.38746600088));
#353 = ADVANCED_FACE('',(#354),#406,.F.);
#354 = FACE_BOUND('',#355,.F.);
#355 = EDGE_LOOP('',(#356,#403,#404,#405));
#356 = ORIENTED_EDGE('',*,*,#357,.F.);
#357 = EDGE_CURVE('',#227,#312,#358,.T.);
#358 = B_SPLINE_CURVE_WITH_KNOTS('',8,(#359,#360,#361,#362,#363,#364,
    #365,#366,#367,#368,#369,#370,#371,#372,#373,#374,#375,#376,#377,
    #378,#379,#380,#381,#382,#383,#384,#385,#386,#387,#388,#389,#390,
    #391,#392,#393,#394,#395,#396,#397,#398,#399,#400,#401,#402),
  .UNSPECIFIED.,.F.,.F.,(9,7,7,7,7,7,9),(0.,0.199808732458,
    0.330631347494,0.43149163879,0.697182520698,0.911260536993,1.),
  .UNSPECIFIED.);
#359 = CARTESIAN_POINT('',(63.657822208242,-2.359340039766E-15,
    129.56678501038));
#360 = CARTESIAN_POINT('',(63.657822208242,3.484597384279,
    128.92905942808));
#361 = CARTESIAN_POINT('',(63.439827502886,6.929392565149,
    128.14972500186));
#362 = CARTESIAN_POINT('',(63.012555413773,10.310990492289,
    127.23901736446));
#363 = CARTESIAN_POINT('',(62.388587751426,13.611204527674,
    126.2088584381));
#364 = CARTESIAN_POINT('',(61.581993629744,16.815958858148,
    125.07143365877));
#365 = CARTESIAN_POINT('',(60.607344778721,19.914811553091,
    123.83860670918));
#366 = CARTESIAN_POINT('',(59.478760758496,22.900503424483,
    122.52134995181));
#367 = CARTESIAN_POINT('',(57.377815311947,27.646372310137,
    120.21782323825));
#368 = CARTESIAN_POINT('',(56.486000134731,29.473872590055,
    119.27424638053));
#369 = CARTESIAN_POINT('',(55.537202751389,31.249910929974,
    118.30116814093));
#370 = CARTESIAN_POINT('',(54.534804318913,32.97362341731,117.3010559996
    ));
#371 = CARTESIAN_POINT('',(53.482002178794,34.644396929514,
    116.2762059906));
#372 = CARTESIAN_POINT('',(52.381784284616,36.261842277175,
    115.22873015079));
#373 = CARTESIAN_POINT('',(51.236902007961,37.825765523536,
    114.1605431948));
#374 = CARTESIAN_POINT('',(49.134653329497,40.500588714557,
    112.2351540256));
#375 = CARTESIAN_POINT('',(48.194427264637,41.63316791215,
    111.38569130159));
#376 = CARTESIAN_POINT('',(47.230319895357,42.733847000506,
    110.52575546851));
#377 = CARTESIAN_POINT('',(46.243429616748,43.802616150412,
    109.65609854302));
#378 = CARTESIAN_POINT('',(45.234796637019,44.839483956775,
    108.77742942757));
#379 = CARTESIAN_POINT('',(44.205402246441,45.844476294801,
    107.89041362039));
#380 = CARTESIAN_POINT('',(43.156167169876,46.817633851676,
    106.99567254197));
#381 = CARTESIAN_POINT('',(39.273998902166,50.238820885758,
    103.71798162146));
#382 = CARTESIAN_POINT('',(36.329086765661,52.497407417758,
    101.29321920259));
#383 = CARTESIAN_POINT('',(33.268188607511,54.536650662824,
    98.82937946529));
#384 = CARTESIAN_POINT('',(30.104723829384,56.357086649974,
    96.335529931188));
#385 = CARTESIAN_POINT('',(26.85092663962,57.958712282912,93.82002728672
    ));
#386 = CARTESIAN_POINT('',(23.517848592143,59.340960188604,
    91.290523719974));
#387 = CARTESIAN_POINT('',(20.115346915019,60.502627767781,
    88.753971933927));
#388 = CARTESIAN_POINT('',(13.861195458379,62.197632251504,
    84.172099699199));
#389 = CARTESIAN_POINT('',(11.031689828566,62.808986916261,
    82.127625744949));
#390 = CARTESIAN_POINT('',(8.168028092386,63.274179479366,
    80.086572257343));
#391 = CARTESIAN_POINT('',(5.275060142567,63.591384002546,
    78.052585944608));
#392 = CARTESIAN_POINT('',(2.357832405118,63.758269857117,
    76.029540114465));
#393 = CARTESIAN_POINT('',(-0.578400247653,63.77205879478,
    74.021532366176));
#394 = CARTESIAN_POINT('',(-3.528179443138,63.629473966483,
    72.032890542556));
#395 = CARTESIAN_POINT('',(-7.711885523154,63.200981310982,
    69.253785747546));
#396 = CARTESIAN_POINT('',(-8.939208671472,63.047868317222,
    68.443530070601));
#397 = CARTESIAN_POINT('',(-10.16741190425,62.866933882732,
    67.63776496183));
#398 = CARTESIAN_POINT('',(-11.39604597278,62.657886745734,
    66.836850568409));
#399 = CARTESIAN_POINT('',(-12.62463691584,62.420421271996,
    66.041166546821));
#400 = CARTESIAN_POINT('',(-13.8526860293,62.154217821533,
    65.251112016506));
#401 = CARTESIAN_POINT('',(-15.07966983568,61.858943115306,
    64.46710551352));
#402 = CARTESIAN_POINT('',(-16.3050400538,61.534250601921,
    63.689584944183));
#403 = ORIENTED_EDGE('',*,*,#226,.F.);
#404 = ORIENTED_EDGE('',*,*,#342,.T.);
#405 = ORIENTED_EDGE('',*,*,#321,.F.);
#406 = B_SPLINE_SURFACE_WITH_KNOTS('',1,1,(
    (#407,#408)
    ,(#409,#410
    )),.UNSPECIFIED.,.F.,.F.,.F.,(2,2),(2,2),(0.,509.26257766593),(0.,
    509.26257766593),.PIECEWISE_BEZIER_KNOTS.);
#407 = CARTESIAN_POINT('',(61.385849831325,-339.3078259324,
    190.11264101567));
#408 = CARTESIAN_POINT('',(292.65428261247,107.98656193495,
    266.21136368707));
#409 = CARTESIAN_POINT('',(-292.4571138288,-108.0393931513,
    -93.89165838505));
#410 = CARTESIAN_POINT('',(-61.18868104767,339.2549947161,
    -17.79293571365));
#411 = ADVANCED_FACE('',(#412),#421,.T.);
#412 = FACE_BOUND('',#413,.T.);
#413 = EDGE_LOOP('',(#414,#415,#416,#417,#418,#419,#420));
#414 = ORIENTED_EDGE('',*,*,#39,.T.);
#415 = ORIENTED_EDGE('',*,*,#311,.T.);
#416 = ORIENTED_EDGE('',*,*,#357,.F.);
#417 = ORIENTED_EDGE('',*,*,#233,.F.);
#418 = ORIENTED_EDGE('',*,*,#99,.F.);
#419 = ORIENTED_EDGE('',*,*,#70,.T.);
#420 = ORIENTED_EDGE('',*,*,#30,.T.);
#421 = CYLINDRICAL_SURFACE('',#422,63.657822208242);
#422 = AXIS2_PLACEMENT_3D('',#423,#424,#425);
#423 = CARTESIAN_POINT('',(0.,0.,38.304190218308));
#424 = DIRECTION('',(0.,0.,1.));
#425 = DIRECTION('',(1.,0.,-0.));
#426 = ( GEOMETRIC_REPRESENTATION_CONTEXT(3) 
GLOBAL_UNCERTAINTY_ASSIGNED_CONTEXT((#430)) GLOBAL_UNIT_ASSIGNED_CONTEXT
((#427,#428,#429)) REPRESENTATION_CONTEXT('Context #1',
  '3D Context with UNIT and UNCERTAINTY') );
#427 = ( LENGTH_UNIT() NAMED_UNIT(*) SI_UNIT(.MILLI.,.METRE.) );
#428 = ( NAMED_UNIT(*) PLANE_ANGLE_UNIT() SI_UNIT($,.RADIAN.) );
#429 = ( NAMED_UNIT(*) SI_UNIT($,.STERADIAN.) SOLID_ANGLE_UNIT() );
#430 = UNCERTAINTY_MEASURE_WITH_UNIT(LENGTH_MEASURE(5.E-06),#427,
  'distance_accuracy_value','confusion accuracy');
#431 = PRODUCT_RELATED_PRODUCT_CATEGORY('part',$,(#7));
ENDSEC;
END-ISO-10303-21;
