ISO-10303-21;
HEADER;
FILE_DESCRIPTION(('FreeCAD Model'),'2;1');
FILE_NAME('Open CASCADE Shape Model','2026-07-29T09:33:04',('FreeCAD'),(
    'FreeCAD'),'Open CASCADE STEP processor 7.8','FreeCAD','Unknown');
FILE_SCHEMA(('AUTOMOTIVE_DESIGN { 1 0 10303 214 1 1 1 1 }'));
ENDSEC;
DATA;
#1 = APPLICATION_PROTOCOL_DEFINITION('international standard',
  'automotive_design',2000,#2);
#2 = APPLICATION_CONTEXT(
  'core data for automotive mechanical design processes');
#3 = SHAPE_DEFINITION_REPRESENTATION(#4,#10);
#4 = PRODUCT_DEFINITION_SHAPE('','',#5);
#5 = PRODUCT_DEFINITION('design','',#6,#9);
#6 = PRODUCT_DEFINITION_FORMATION('','',#7);
#7 = PRODUCT('Open CASCADE STEP translator 7.8 58',
  'Open CASCADE STEP translator 7.8 58','',(#8));
#8 = PRODUCT_CONTEXT('',#2,'mechanical');
#9 = PRODUCT_DEFINITION_CONTEXT('part definition',#2,'design');
#10 = ADVANCED_BREP_SHAPE_REPRESENTATION('',(#11,#15),#183);
#11 = AXIS2_PLACEMENT_3D('',#12,#13,#14);
#12 = CARTESIAN_POINT('',(0.,0.,0.));
#13 = DIRECTION('',(0.,0.,1.));
#14 = DIRECTION('',(1.,0.,-0.));
#15 = MANIFOLD_SOLID_BREP('',#16);
#16 = CLOSED_SHELL('',(#17,#53,#81,#110,#139,#155,#172));
#17 = ADVANCED_FACE('',(#18),#48,.F.);
#18 = FACE_BOUND('',#19,.F.);
#19 = EDGE_LOOP('',(#20,#29,#36,#43));
#20 = ORIENTED_EDGE('',*,*,#21,.F.);
#21 = EDGE_CURVE('',#22,#24,#26,.T.);
#22 = VERTEX_POINT('',#23);
#23 = CARTESIAN_POINT('',(-8.881784197001E-16,8.881784197001E-16,
    47.643494998176));
#24 = VERTEX_POINT('',#25);
#25 = CARTESIAN_POINT('',(-15.01110699893,-15.01110699893,
    62.654601997106));
#26 = B_SPLINE_CURVE_WITH_KNOTS('',1,(#27,#28),.UNSPECIFIED.,.F.,.F.,(2,
    2),(0.,26.),.PIECEWISE_BEZIER_KNOTS.);
#27 = CARTESIAN_POINT('',(-8.881784197001E-16,8.881784197001E-16,
    47.643494998176));
#28 = CARTESIAN_POINT('',(-15.01110699893,-15.01110699893,
    62.654601997106));
#29 = ORIENTED_EDGE('',*,*,#30,.T.);
#30 = EDGE_CURVE('',#22,#31,#33,.T.);
#31 = VERTEX_POINT('',#32);
#32 = CARTESIAN_POINT('',(-5.494446500535,20.505553499465,
    62.654601997106));
#33 = B_SPLINE_CURVE_WITH_KNOTS('',1,(#34,#35),.UNSPECIFIED.,.F.,.F.,(2,
    2),(0.,26.),.PIECEWISE_BEZIER_KNOTS.);
#34 = CARTESIAN_POINT('',(-8.881784197001E-16,8.881784197001E-16,
    47.643494998176));
#35 = CARTESIAN_POINT('',(-5.494446500535,20.505553499465,
    62.654601997106));
#36 = ORIENTED_EDGE('',*,*,#37,.T.);
#37 = EDGE_CURVE('',#31,#38,#40,.T.);
#38 = VERTEX_POINT('',#39);
#39 = CARTESIAN_POINT('',(-20.50555349946,5.494446500535,77.665708996037
    ));
#40 = B_SPLINE_CURVE_WITH_KNOTS('',1,(#41,#42),.UNSPECIFIED.,.F.,.F.,(2,
    2),(0.,26.),.PIECEWISE_BEZIER_KNOTS.);
#41 = CARTESIAN_POINT('',(-5.494446500535,20.505553499465,
    62.654601997106));
#42 = CARTESIAN_POINT('',(-20.50555349946,5.494446500535,77.665708996037
    ));
#43 = ORIENTED_EDGE('',*,*,#44,.F.);
#44 = EDGE_CURVE('',#24,#38,#45,.T.);
#45 = B_SPLINE_CURVE_WITH_KNOTS('',1,(#46,#47),.UNSPECIFIED.,.F.,.F.,(2,
    2),(0.,26.),.PIECEWISE_BEZIER_KNOTS.);
#46 = CARTESIAN_POINT('',(-15.01110699893,-15.01110699893,
    62.654601997106));
#47 = CARTESIAN_POINT('',(-20.50555349946,5.494446500535,77.665708996037
    ));
#48 = B_SPLINE_SURFACE_WITH_KNOTS('',1,1,(
    (#49,#50)
    ,(#51,#52
  )),.UNSPECIFIED.,.F.,.F.,.F.,(2,2),(2,2),(0.,26.),(-26.,0.),
  .PIECEWISE_BEZIER_KNOTS.);
#49 = CARTESIAN_POINT('',(-5.494446500535,20.505553499465,
    62.654601997106));
#50 = CARTESIAN_POINT('',(-8.881784197001E-16,8.881784197001E-16,
    47.643494998176));
#51 = CARTESIAN_POINT('',(-20.50555349946,5.494446500535,77.665708996037
    ));
#52 = CARTESIAN_POINT('',(-15.01110699893,-15.01110699893,
    62.654601997106));
#53 = ADVANCED_FACE('',(#54),#76,.F.);
#54 = FACE_BOUND('',#55,.F.);
#55 = EDGE_LOOP('',(#56,#63,#64,#71));
#56 = ORIENTED_EDGE('',*,*,#57,.F.);
#57 = EDGE_CURVE('',#22,#58,#60,.T.);
#58 = VERTEX_POINT('',#59);
#59 = CARTESIAN_POINT('',(20.505553499465,-5.494446500535,
    62.654601997106));
#60 = B_SPLINE_CURVE_WITH_KNOTS('',1,(#61,#62),.UNSPECIFIED.,.F.,.F.,(2,
    2),(0.,26.),.PIECEWISE_BEZIER_KNOTS.);
#61 = CARTESIAN_POINT('',(-8.881784197001E-16,8.881784197001E-16,
    47.643494998176));
#62 = CARTESIAN_POINT('',(20.505553499465,-5.494446500535,
    62.654601997106));
#63 = ORIENTED_EDGE('',*,*,#21,.T.);
#64 = ORIENTED_EDGE('',*,*,#65,.T.);
#65 = EDGE_CURVE('',#24,#66,#68,.T.);
#66 = VERTEX_POINT('',#67);
#67 = CARTESIAN_POINT('',(5.494446500535,-20.50555349946,77.665708996037
    ));
#68 = B_SPLINE_CURVE_WITH_KNOTS('',1,(#69,#70),.UNSPECIFIED.,.F.,.F.,(2,
    2),(0.,26.),.PIECEWISE_BEZIER_KNOTS.);
#69 = CARTESIAN_POINT('',(-15.01110699893,-15.01110699893,
    62.654601997106));
#70 = CARTESIAN_POINT('',(5.494446500535,-20.50555349946,77.665708996037
    ));
#71 = ORIENTED_EDGE('',*,*,#72,.F.);
#72 = EDGE_CURVE('',#58,#66,#73,.T.);
#73 = B_SPLINE_CURVE_WITH_KNOTS('',1,(#74,#75),.UNSPECIFIED.,.F.,.F.,(2,
    2),(0.,26.),.PIECEWISE_BEZIER_KNOTS.);
#74 = CARTESIAN_POINT('',(20.505553499465,-5.494446500535,
    62.654601997106));
#75 = CARTESIAN_POINT('',(5.494446500535,-20.50555349946,77.665708996037
    ));
#76 = B_SPLINE_SURFACE_WITH_KNOTS('',1,1,(
    (#77,#78)
    ,(#79,#80)),.UNSPECIFIED.,.F.,.F.,.F.,(2,2),(2,2),(0.,26.),(0.,26.),
  .PIECEWISE_BEZIER_KNOTS.);
#77 = CARTESIAN_POINT('',(-8.881784197001E-16,8.881784197001E-16,
    47.643494998176));
#78 = CARTESIAN_POINT('',(20.505553499465,-5.494446500535,
    62.654601997106));
#79 = CARTESIAN_POINT('',(-15.01110699893,-15.01110699893,
    62.654601997106));
#80 = CARTESIAN_POINT('',(5.494446500535,-20.50555349946,77.665708996037
    ));
#81 = ADVANCED_FACE('',(#82),#105,.T.);
#82 = FACE_BOUND('',#83,.T.);
#83 = EDGE_LOOP('',(#84,#91,#92,#93,#100));
#84 = ORIENTED_EDGE('',*,*,#85,.F.);
#85 = EDGE_CURVE('',#38,#86,#88,.T.);
#86 = VERTEX_POINT('',#87);
#87 = CARTESIAN_POINT('',(-4.461420286602,1.195433962891,89.410829671256
    ));
#88 = B_SPLINE_CURVE_WITH_KNOTS('',1,(#89,#90),.UNSPECIFIED.,.F.,.F.,(2,
    2),(0.,20.343145750508),.PIECEWISE_BEZIER_KNOTS.);
#89 = CARTESIAN_POINT('',(-20.50555349946,5.494446500535,77.665708996037
    ));
#90 = CARTESIAN_POINT('',(-4.461420286602,1.195433962891,89.410829671256
    ));
#91 = ORIENTED_EDGE('',*,*,#44,.F.);
#92 = ORIENTED_EDGE('',*,*,#65,.T.);
#93 = ORIENTED_EDGE('',*,*,#94,.T.);
#94 = EDGE_CURVE('',#66,#95,#97,.T.);
#95 = VERTEX_POINT('',#96);
#96 = CARTESIAN_POINT('',(1.195433962891,-4.461420286602,89.410829671256
    ));
#97 = B_SPLINE_CURVE_WITH_KNOTS('',1,(#98,#99),.UNSPECIFIED.,.F.,.F.,(2,
    2),(0.,20.343145750508),.PIECEWISE_BEZIER_KNOTS.);
#98 = CARTESIAN_POINT('',(5.494446500535,-20.50555349946,77.665708996037
    ));
#99 = CARTESIAN_POINT('',(1.195433962891,-4.461420286602,89.410829671256
    ));
#100 = ORIENTED_EDGE('',*,*,#101,.F.);
#101 = EDGE_CURVE('',#86,#95,#102,.T.);
#102 = B_SPLINE_CURVE_WITH_KNOTS('',1,(#103,#104),.UNSPECIFIED.,.F.,.F.,
  (2,2),(0.,8.),.PIECEWISE_BEZIER_KNOTS.);
#103 = CARTESIAN_POINT('',(-4.461420286602,1.195433962891,
    89.410829671256));
#104 = CARTESIAN_POINT('',(1.195433962891,-4.461420286602,
    89.410829671256));
#105 = B_SPLINE_SURFACE_WITH_KNOTS('',1,1,(
    (#106,#107)
    ,(#108,#109
    )),.UNSPECIFIED.,.F.,.F.,.F.,(2,2),(2,2),(0.,26.),(0.,26.),
  .PIECEWISE_BEZIER_KNOTS.);
#106 = CARTESIAN_POINT('',(-15.01110699893,-15.01110699893,
    62.654601997106));
#107 = CARTESIAN_POINT('',(-20.50555349946,5.494446500535,
    77.665708996037));
#108 = CARTESIAN_POINT('',(5.494446500535,-20.50555349946,
    77.665708996037));
#109 = CARTESIAN_POINT('',(0.,0.,92.676815994967));
#110 = ADVANCED_FACE('',(#111),#134,.T.);
#111 = FACE_BOUND('',#112,.T.);
#112 = EDGE_LOOP('',(#113,#122,#127,#128,#129));
#113 = ORIENTED_EDGE('',*,*,#114,.F.);
#114 = EDGE_CURVE('',#115,#117,#119,.T.);
#115 = VERTEX_POINT('',#116);
#116 = CARTESIAN_POINT('',(15.01110699893,15.01110699893,77.665708996037
    ));
#117 = VERTEX_POINT('',#118);
#118 = CARTESIAN_POINT('',(3.265986323711,3.265986323711,89.410829671256
    ));
#119 = B_SPLINE_CURVE_WITH_KNOTS('',1,(#120,#121),.UNSPECIFIED.,.F.,.F.,
  (2,2),(0.,20.343145750508),.PIECEWISE_BEZIER_KNOTS.);
#120 = CARTESIAN_POINT('',(15.01110699893,15.01110699893,77.665708996037
    ));
#121 = CARTESIAN_POINT('',(3.265986323711,3.265986323711,89.410829671256
    ));
#122 = ORIENTED_EDGE('',*,*,#123,.F.);
#123 = EDGE_CURVE('',#31,#115,#124,.T.);
#124 = B_SPLINE_CURVE_WITH_KNOTS('',1,(#125,#126),.UNSPECIFIED.,.F.,.F.,
  (2,2),(0.,26.),.PIECEWISE_BEZIER_KNOTS.);
#125 = CARTESIAN_POINT('',(-5.494446500535,20.505553499465,
    62.654601997106));
#126 = CARTESIAN_POINT('',(15.01110699893,15.01110699893,77.665708996037
    ));
#127 = ORIENTED_EDGE('',*,*,#37,.T.);
#128 = ORIENTED_EDGE('',*,*,#85,.T.);
#129 = ORIENTED_EDGE('',*,*,#130,.T.);
#130 = EDGE_CURVE('',#86,#117,#131,.T.);
#131 = B_SPLINE_CURVE_WITH_KNOTS('',1,(#132,#133),.UNSPECIFIED.,.F.,.F.,
  (2,2),(0.,8.),.PIECEWISE_BEZIER_KNOTS.);
#132 = CARTESIAN_POINT('',(-4.461420286602,1.195433962891,
    89.410829671256));
#133 = CARTESIAN_POINT('',(3.265986323711,3.265986323711,89.410829671256
    ));
#134 = B_SPLINE_SURFACE_WITH_KNOTS('',1,1,(
    (#135,#136)
    ,(#137,#138
    )),.UNSPECIFIED.,.F.,.F.,.F.,(2,2),(2,2),(0.,26.),(0.,26.),
  .PIECEWISE_BEZIER_KNOTS.);
#135 = CARTESIAN_POINT('',(-5.494446500535,20.505553499465,
    62.654601997106));
#136 = CARTESIAN_POINT('',(15.01110699893,15.01110699893,77.665708996037
    ));
#137 = CARTESIAN_POINT('',(-20.50555349946,5.494446500535,
    77.665708996037));
#138 = CARTESIAN_POINT('',(0.,0.,92.676815994967));
#139 = ADVANCED_FACE('',(#140),#150,.F.);
#140 = FACE_BOUND('',#141,.F.);
#141 = EDGE_LOOP('',(#142,#143,#144,#149));
#142 = ORIENTED_EDGE('',*,*,#30,.F.);
#143 = ORIENTED_EDGE('',*,*,#57,.T.);
#144 = ORIENTED_EDGE('',*,*,#145,.T.);
#145 = EDGE_CURVE('',#58,#115,#146,.T.);
#146 = B_SPLINE_CURVE_WITH_KNOTS('',1,(#147,#148),.UNSPECIFIED.,.F.,.F.,
  (2,2),(0.,26.),.PIECEWISE_BEZIER_KNOTS.);
#147 = CARTESIAN_POINT('',(20.505553499465,-5.494446500535,
    62.654601997106));
#148 = CARTESIAN_POINT('',(15.01110699893,15.01110699893,77.665708996037
    ));
#149 = ORIENTED_EDGE('',*,*,#123,.F.);
#150 = B_SPLINE_SURFACE_WITH_KNOTS('',1,1,(
    (#151,#152)
    ,(#153,#154
    )),.UNSPECIFIED.,.F.,.F.,.F.,(2,2),(2,2),(0.,26.),(0.,26.),
  .PIECEWISE_BEZIER_KNOTS.);
#151 = CARTESIAN_POINT('',(-8.881784197001E-16,8.881784197001E-16,
    47.643494998176));
#152 = CARTESIAN_POINT('',(-5.494446500535,20.505553499465,
    62.654601997106));
#153 = CARTESIAN_POINT('',(20.505553499465,-5.494446500535,
    62.654601997106));
#154 = CARTESIAN_POINT('',(15.01110699893,15.01110699893,77.665708996037
    ));
#155 = ADVANCED_FACE('',(#156),#167,.T.);
#156 = FACE_BOUND('',#157,.T.);
#157 = EDGE_LOOP('',(#158,#159,#160,#161,#162));
#158 = ORIENTED_EDGE('',*,*,#94,.F.);
#159 = ORIENTED_EDGE('',*,*,#72,.F.);
#160 = ORIENTED_EDGE('',*,*,#145,.T.);
#161 = ORIENTED_EDGE('',*,*,#114,.T.);
#162 = ORIENTED_EDGE('',*,*,#163,.F.);
#163 = EDGE_CURVE('',#95,#117,#164,.T.);
#164 = B_SPLINE_CURVE_WITH_KNOTS('',1,(#165,#166),.UNSPECIFIED.,.F.,.F.,
  (2,2),(0.,8.),.PIECEWISE_BEZIER_KNOTS.);
#165 = CARTESIAN_POINT('',(1.195433962891,-4.461420286602,
    89.410829671256));
#166 = CARTESIAN_POINT('',(3.265986323711,3.265986323711,89.410829671256
    ));
#167 = B_SPLINE_SURFACE_WITH_KNOTS('',1,1,(
    (#168,#169)
    ,(#170,#171
    )),.UNSPECIFIED.,.F.,.F.,.F.,(2,2),(2,2),(0.,26.),(-26.,0.),
  .PIECEWISE_BEZIER_KNOTS.);
#168 = CARTESIAN_POINT('',(15.01110699893,15.01110699893,77.665708996037
    ));
#169 = CARTESIAN_POINT('',(20.505553499465,-5.494446500535,
    62.654601997106));
#170 = CARTESIAN_POINT('',(0.,0.,92.676815994967));
#171 = CARTESIAN_POINT('',(5.494446500535,-20.50555349946,
    77.665708996037));
#172 = ADVANCED_FACE('',(#173),#178,.T.);
#173 = FACE_BOUND('',#174,.T.);
#174 = EDGE_LOOP('',(#175,#176,#177));
#175 = ORIENTED_EDGE('',*,*,#101,.T.);
#176 = ORIENTED_EDGE('',*,*,#163,.T.);
#177 = ORIENTED_EDGE('',*,*,#130,.F.);
#178 = B_SPLINE_SURFACE_WITH_KNOTS('',1,1,(
    (#179,#180)
    ,(#181,#182
    )),.UNSPECIFIED.,.F.,.F.,.F.,(2,2),(2,2),(-4.,4.),(-4.618802153517,
    2.309401076759),.PIECEWISE_BEZIER_KNOTS.);
#179 = CARTESIAN_POINT('',(-2.668269342266,-5.496696467012,
    89.410829671256));
#180 = CARTESIAN_POINT('',(-4.461420286602,1.195433962891,
    89.410829671256));
#181 = CARTESIAN_POINT('',(5.059137268047,-3.426144106192,
    89.410829671256));
#182 = CARTESIAN_POINT('',(3.265986323711,3.265986323711,89.410829671256
    ));
#183 = ( GEOMETRIC_REPRESENTATION_CONTEXT(3) 
GLOBAL_UNCERTAINTY_ASSIGNED_CONTEXT((#187)) GLOBAL_UNIT_ASSIGNED_CONTEXT
((#184,#185,#186)) REPRESENTATION_CONTEXT('Context #1',
  '3D Context with UNIT and UNCERTAINTY') );
#184 = ( LENGTH_UNIT() NAMED_UNIT(*) SI_UNIT(.MILLI.,.METRE.) );
#185 = ( NAMED_UNIT(*) PLANE_ANGLE_UNIT() SI_UNIT($,.RADIAN.) );
#186 = ( NAMED_UNIT(*) SI_UNIT($,.STERADIAN.) SOLID_ANGLE_UNIT() );
#187 = UNCERTAINTY_MEASURE_WITH_UNIT(LENGTH_MEASURE(1.E-07),#184,
  'distance_accuracy_value','confusion accuracy');
#188 = PRODUCT_RELATED_PRODUCT_CATEGORY('part',$,(#7));
ENDSEC;
END-ISO-10303-21;
