ISO-10303-21;
HEADER;
FILE_DESCRIPTION(('FreeCAD Model'),'2;1');
FILE_NAME('Open CASCADE Shape Model','2026-07-29T20:08:02',('FreeCAD'),(
    'FreeCAD'),'Open CASCADE STEP processor 7.8','FreeCAD','Unknown');
FILE_SCHEMA(('AUTOMOTIVE_DESIGN { 1 0 10303 214 1 1 1 1 }'));
ENDSEC;
DATA;
#1 = APPLICATION_PROTOCOL_DEFINITION('international standard',
  'automotive_design',2000,#2);
#2 = APPLICATION_CONTEXT(
  'core data for automotive mechanical design processes');
#3 = SHAPE_DEFINITION_REPRESENTATION(#4,#10);
#4 = PRODUCT_DEFINITION_SHAPE('','',#5);
#5 = PRODUCT_DEFINITION('design','',#6,#9);
#6 = PRODUCT_DEFINITION_FORMATION('','',#7);
#7 = PRODUCT('Open CASCADE STEP translator 7.8 23',
  'Open CASCADE STEP translator 7.8 23','',(#8));
#8 = PRODUCT_CONTEXT('',#2,'mechanical');
#9 = PRODUCT_DEFINITION_CONTEXT('part definition',#2,'design');
#10 = ADVANCED_BREP_SHAPE_REPRESENTATION('',(#11,#15),#83);
#11 = AXIS2_PLACEMENT_3D('',#12,#13,#14);
#12 = CARTESIAN_POINT('',(0.,0.,0.));
#13 = DIRECTION('',(0.,0.,1.));
#14 = DIRECTION('',(1.,0.,-0.));
#15 = MANIFOLD_SOLID_BREP('',#16);
#16 = CLOSED_SHELL('',(#17,#65,#74));
#17 = ADVANCED_FACE('',(#18),#50,.T.);
#18 = FACE_BOUND('',#19,.T.);
#19 = EDGE_LOOP('',(#20,#32,#39,#49));
#20 = ORIENTED_EDGE('',*,*,#21,.F.);
#21 = EDGE_CURVE('',#22,#22,#24,.T.);
#22 = VERTEX_POINT('',#23);
#23 = CARTESIAN_POINT('',(-0.11815652059,0.440966138088,0.365217391304)
  );
#24 = ( BOUNDED_CURVE() B_SPLINE_CURVE(2,(#25,#26,#27,#28,#29,#30,#31),
.UNSPECIFIED.,.T.,.F.) B_SPLINE_CURVE_WITH_KNOTS((1,2,2,2,2,1),(
    -2.094395102393,0.,2.094395102393,4.188790204786,6.28318530718,
8.377580409573),.UNSPECIFIED.) CURVE() GEOMETRIC_REPRESENTATION_ITEM() 
RATIONAL_B_SPLINE_CURVE((1.,0.5,1.,0.5,1.,0.5,1.)) REPRESENTATION_ITEM(
  '') );
#25 = CARTESIAN_POINT('',(-0.11815652059,0.440966138088,0.365217391304)
  );
#26 = CARTESIAN_POINT('',(-0.881932276177,0.236313041181,0.365217391304)
  );
#27 = CARTESIAN_POINT('',(-0.322809617498,-0.322809617498,0.365217391304
    ));
#28 = CARTESIAN_POINT('',(0.236313041181,-0.881932276177,0.365217391304)
  );
#29 = CARTESIAN_POINT('',(0.440966138088,-0.11815652059,0.365217391304)
  );
#30 = CARTESIAN_POINT('',(0.645619234996,0.645619234996,0.365217391304)
  );
#31 = CARTESIAN_POINT('',(-0.11815652059,0.440966138088,0.365217391304)
  );
#32 = ORIENTED_EDGE('',*,*,#33,.F.);
#33 = EDGE_CURVE('',#34,#22,#36,.T.);
#34 = VERTEX_POINT('',#35);
#35 = CARTESIAN_POINT('',(-0.11815652059,0.440966138088,-0.365217391304)
  );
#36 = B_SPLINE_CURVE_WITH_KNOTS('',1,(#37,#38),.UNSPECIFIED.,.F.,.F.,(2,
    2),(0.,1.2),.PIECEWISE_BEZIER_KNOTS.);
#37 = CARTESIAN_POINT('',(-0.11815652059,0.440966138088,-0.365217391304)
  );
#38 = CARTESIAN_POINT('',(-0.11815652059,0.440966138088,0.365217391304)
  );
#39 = ORIENTED_EDGE('',*,*,#40,.T.);
#40 = EDGE_CURVE('',#34,#34,#41,.T.);
#41 = ( BOUNDED_CURVE() B_SPLINE_CURVE(2,(#42,#43,#44,#45,#46,#47,#48),
.UNSPECIFIED.,.T.,.F.) B_SPLINE_CURVE_WITH_KNOTS((1,2,2,2,2,1),(
    -2.094395102393,0.,2.094395102393,4.188790204786,6.28318530718,
8.377580409573),.UNSPECIFIED.) CURVE() GEOMETRIC_REPRESENTATION_ITEM() 
RATIONAL_B_SPLINE_CURVE((1.,0.5,1.,0.5,1.,0.5,1.)) REPRESENTATION_ITEM(
  '') );
#42 = CARTESIAN_POINT('',(-0.11815652059,0.440966138088,-0.365217391304)
  );
#43 = CARTESIAN_POINT('',(-0.881932276177,0.236313041181,-0.365217391304
    ));
#44 = CARTESIAN_POINT('',(-0.322809617498,-0.322809617498,
    -0.365217391304));
#45 = CARTESIAN_POINT('',(0.236313041181,-0.881932276177,-0.365217391304
    ));
#46 = CARTESIAN_POINT('',(0.440966138088,-0.11815652059,-0.365217391304)
  );
#47 = CARTESIAN_POINT('',(0.645619234996,0.645619234996,-0.365217391304)
  );
#48 = CARTESIAN_POINT('',(-0.11815652059,0.440966138088,-0.365217391304)
  );
#49 = ORIENTED_EDGE('',*,*,#33,.T.);
#50 = ( BOUNDED_SURFACE() B_SPLINE_SURFACE(2,1,(
    (#51,#52)
    ,(#53,#54)
    ,(#55,#56)
    ,(#57,#58)
    ,(#59,#60)
    ,(#61,#62)
,(#63,#64
    )),.UNSPECIFIED.,.T.,.F.,.F.) B_SPLINE_SURFACE_WITH_KNOTS((1,2,2,2,2
    ,1),(2,2),(-2.094395102393,0.,2.094395102393,4.188790204786,
    6.28318530718,8.377580409573),(0.,1.2),.UNSPECIFIED.) 
GEOMETRIC_REPRESENTATION_ITEM() RATIONAL_B_SPLINE_SURFACE((
    (1.,1.)
    ,(0.5,0.5)
    ,(1.,1.)
    ,(0.5,0.5)
    ,(1.,1.)
    ,(0.5,0.5)
,(1.,1.))) REPRESENTATION_ITEM('') SURFACE() );
#51 = CARTESIAN_POINT('',(-0.11815652059,0.440966138088,-0.365217391304)
  );
#52 = CARTESIAN_POINT('',(-0.11815652059,0.440966138088,0.365217391304)
  );
#53 = CARTESIAN_POINT('',(-0.881932276177,0.236313041181,-0.365217391304
    ));
#54 = CARTESIAN_POINT('',(-0.881932276177,0.236313041181,0.365217391304)
  );
#55 = CARTESIAN_POINT('',(-0.322809617498,-0.322809617498,
    -0.365217391304));
#56 = CARTESIAN_POINT('',(-0.322809617498,-0.322809617498,0.365217391304
    ));
#57 = CARTESIAN_POINT('',(0.236313041181,-0.881932276177,-0.365217391304
    ));
#58 = CARTESIAN_POINT('',(0.236313041181,-0.881932276177,0.365217391304)
  );
#59 = CARTESIAN_POINT('',(0.440966138088,-0.11815652059,-0.365217391304)
  );
#60 = CARTESIAN_POINT('',(0.440966138088,-0.11815652059,0.365217391304)
  );
#61 = CARTESIAN_POINT('',(0.645619234996,0.645619234996,-0.365217391304)
  );
#62 = CARTESIAN_POINT('',(0.645619234996,0.645619234996,0.365217391304)
  );
#63 = CARTESIAN_POINT('',(-0.11815652059,0.440966138088,-0.365217391304)
  );
#64 = CARTESIAN_POINT('',(-0.11815652059,0.440966138088,0.365217391304)
  );
#65 = ADVANCED_FACE('',(#66),#69,.T.);
#66 = FACE_BOUND('',#67,.T.);
#67 = EDGE_LOOP('',(#68));
#68 = ORIENTED_EDGE('',*,*,#21,.T.);
#69 = B_SPLINE_SURFACE_WITH_KNOTS('',1,1,(
    (#70,#71)
    ,(#72,#73
    )),.UNSPECIFIED.,.F.,.F.,.F.,(2,2),(2,2),(-0.75,0.75),(-0.75,0.75),
  .PIECEWISE_BEZIER_KNOTS.);
#70 = CARTESIAN_POINT('',(0.559122658679,-0.322809617498,0.365217391304)
  );
#71 = CARTESIAN_POINT('',(-0.322809617498,-0.559122658679,0.365217391304
    ));
#72 = CARTESIAN_POINT('',(0.322809617498,0.559122658679,0.365217391304)
  );
#73 = CARTESIAN_POINT('',(-0.559122658679,0.322809617498,0.365217391304)
  );
#74 = ADVANCED_FACE('',(#75),#78,.F.);
#75 = FACE_BOUND('',#76,.T.);
#76 = EDGE_LOOP('',(#77));
#77 = ORIENTED_EDGE('',*,*,#40,.F.);
#78 = B_SPLINE_SURFACE_WITH_KNOTS('',1,1,(
    (#79,#80)
    ,(#81,#82
    )),.UNSPECIFIED.,.F.,.F.,.F.,(2,2),(2,2),(-0.75,0.75),(-0.75,0.75),
  .PIECEWISE_BEZIER_KNOTS.);
#79 = CARTESIAN_POINT('',(0.559122658679,-0.322809617498,-0.365217391304
    ));
#80 = CARTESIAN_POINT('',(-0.322809617498,-0.559122658679,
    -0.365217391304));
#81 = CARTESIAN_POINT('',(0.322809617498,0.559122658679,-0.365217391304)
  );
#82 = CARTESIAN_POINT('',(-0.559122658679,0.322809617498,-0.365217391304
    ));
#83 = ( GEOMETRIC_REPRESENTATION_CONTEXT(3) 
GLOBAL_UNCERTAINTY_ASSIGNED_CONTEXT((#87)) GLOBAL_UNIT_ASSIGNED_CONTEXT(
(#84,#85,#86)) REPRESENTATION_CONTEXT('Context #1',
  '3D Context with UNIT and UNCERTAINTY') );
#84 = ( LENGTH_UNIT() NAMED_UNIT(*) SI_UNIT(.MILLI.,.METRE.) );
#85 = ( NAMED_UNIT(*) PLANE_ANGLE_UNIT() SI_UNIT($,.RADIAN.) );
#86 = ( NAMED_UNIT(*) SI_UNIT($,.STERADIAN.) SOLID_ANGLE_UNIT() );
#87 = UNCERTAINTY_MEASURE_WITH_UNIT(LENGTH_MEASURE(1.E-07),#84,
  'distance_accuracy_value','confusion accuracy');
#88 = PRODUCT_RELATED_PRODUCT_CATEGORY('part',$,(#7));
ENDSEC;
END-ISO-10303-21;
