ISO-10303-21;
HEADER;
FILE_DESCRIPTION(('FreeCAD Model'),'2;1');
FILE_NAME('Open CASCADE Shape Model','2026-07-29T20:08:02',('FreeCAD'),(
    'FreeCAD'),'Open CASCADE STEP processor 7.8','FreeCAD','Unknown');
FILE_SCHEMA(('AUTOMOTIVE_DESIGN { 1 0 10303 214 1 1 1 1 }'));
ENDSEC;
DATA;
#1 = APPLICATION_PROTOCOL_DEFINITION('international standard',
  'automotive_design',2000,#2);
#2 = APPLICATION_CONTEXT(
  'core data for automotive mechanical design processes');
#3 = SHAPE_DEFINITION_REPRESENTATION(#4,#10);
#4 = PRODUCT_DEFINITION_SHAPE('','',#5);
#5 = PRODUCT_DEFINITION('design','',#6,#9);
#6 = PRODUCT_DEFINITION_FORMATION('','',#7);
#7 = PRODUCT('Open CASCADE STEP translator 7.8 25',
  'Open CASCADE STEP translator 7.8 25','',(#8));
#8 = PRODUCT_CONTEXT('',#2,'mechanical');
#9 = PRODUCT_DEFINITION_CONTEXT('part definition',#2,'design');
#10 = ADVANCED_BREP_SHAPE_REPRESENTATION('',(#11,#15),#143);
#11 = AXIS2_PLACEMENT_3D('',#12,#13,#14);
#12 = CARTESIAN_POINT('',(0.,0.,0.));
#13 = DIRECTION('',(0.,0.,1.));
#14 = DIRECTION('',(1.,0.,-0.));
#15 = MANIFOLD_SOLID_BREP('',#16);
#16 = CLOSED_SHELL('',(#17,#65,#88,#97,#134));
#17 = ADVANCED_FACE('',(#18),#50,.T.);
#18 = FACE_BOUND('',#19,.T.);
#19 = EDGE_LOOP('',(#20,#32,#39,#49));
#20 = ORIENTED_EDGE('',*,*,#21,.F.);
#21 = EDGE_CURVE('',#22,#22,#24,.T.);
#22 = VERTEX_POINT('',#23);
#23 = CARTESIAN_POINT('',(-0.346592460398,1.293500671726,-2.221739130435
    ));
#24 = ( BOUNDED_CURVE() B_SPLINE_CURVE(2,(#25,#26,#27,#28,#29,#30,#31),
.UNSPECIFIED.,.T.,.F.) B_SPLINE_CURVE_WITH_KNOTS((1,2,2,2,2,1),(
    -2.094395102393,0.,2.094395102393,4.188790204786,6.28318530718,
8.377580409573),.UNSPECIFIED.) CURVE() GEOMETRIC_REPRESENTATION_ITEM() 
RATIONAL_B_SPLINE_CURVE((1.,0.5,1.,0.5,1.,0.5,1.)) REPRESENTATION_ITEM(
  '') );
#25 = CARTESIAN_POINT('',(-0.346592460398,1.293500671726,-2.221739130435
    ));
#26 = CARTESIAN_POINT('',(-2.587001343452,0.693184920796,-2.221739130435
    ));
#27 = CARTESIAN_POINT('',(-0.946908211328,-0.946908211328,
    -2.221739130435));
#28 = CARTESIAN_POINT('',(0.693184920796,-2.587001343452,-2.221739130435
    ));
#29 = CARTESIAN_POINT('',(1.293500671726,-0.346592460398,-2.221739130435
    ));
#30 = CARTESIAN_POINT('',(1.893816422656,1.893816422656,-2.221739130435)
  );
#31 = CARTESIAN_POINT('',(-0.346592460398,1.293500671726,-2.221739130435
    ));
#32 = ORIENTED_EDGE('',*,*,#33,.F.);
#33 = EDGE_CURVE('',#34,#22,#36,.T.);
#34 = VERTEX_POINT('',#35);
#35 = CARTESIAN_POINT('',(-0.346592460398,1.293500671726,-2.495652173913
    ));
#36 = B_SPLINE_CURVE_WITH_KNOTS('',1,(#37,#38),.UNSPECIFIED.,.F.,.F.,(2,
    2),(0.,0.45),.PIECEWISE_BEZIER_KNOTS.);
#37 = CARTESIAN_POINT('',(-0.346592460398,1.293500671726,-2.495652173913
    ));
#38 = CARTESIAN_POINT('',(-0.346592460398,1.293500671726,-2.221739130435
    ));
#39 = ORIENTED_EDGE('',*,*,#40,.T.);
#40 = EDGE_CURVE('',#34,#34,#41,.T.);
#41 = ( BOUNDED_CURVE() B_SPLINE_CURVE(2,(#42,#43,#44,#45,#46,#47,#48),
.UNSPECIFIED.,.T.,.F.) B_SPLINE_CURVE_WITH_KNOTS((1,2,2,2,2,1),(
    -2.094395102393,0.,2.094395102393,4.188790204786,6.28318530718,
8.377580409573),.UNSPECIFIED.) CURVE() GEOMETRIC_REPRESENTATION_ITEM() 
RATIONAL_B_SPLINE_CURVE((1.,0.5,1.,0.5,1.,0.5,1.)) REPRESENTATION_ITEM(
  '') );
#42 = CARTESIAN_POINT('',(-0.346592460398,1.293500671726,-2.495652173913
    ));
#43 = CARTESIAN_POINT('',(-2.587001343452,0.693184920796,-2.495652173913
    ));
#44 = CARTESIAN_POINT('',(-0.946908211328,-0.946908211328,
    -2.495652173913));
#45 = CARTESIAN_POINT('',(0.693184920796,-2.587001343452,-2.495652173913
    ));
#46 = CARTESIAN_POINT('',(1.293500671726,-0.346592460398,-2.495652173913
    ));
#47 = CARTESIAN_POINT('',(1.893816422656,1.893816422656,-2.495652173913)
  );
#48 = CARTESIAN_POINT('',(-0.346592460398,1.293500671726,-2.495652173913
    ));
#49 = ORIENTED_EDGE('',*,*,#33,.T.);
#50 = ( BOUNDED_SURFACE() B_SPLINE_SURFACE(2,1,(
    (#51,#52)
    ,(#53,#54)
    ,(#55,#56)
    ,(#57,#58)
    ,(#59,#60)
    ,(#61,#62)
,(#63,#64
    )),.UNSPECIFIED.,.T.,.F.,.F.) B_SPLINE_SURFACE_WITH_KNOTS((1,2,2,2,2
    ,1),(2,2),(-2.094395102393,0.,2.094395102393,4.188790204786,
    6.28318530718,8.377580409573),(0.,0.45),.UNSPECIFIED.) 
GEOMETRIC_REPRESENTATION_ITEM() RATIONAL_B_SPLINE_SURFACE((
    (1.,1.)
    ,(0.5,0.5)
    ,(1.,1.)
    ,(0.5,0.5)
    ,(1.,1.)
    ,(0.5,0.5)
,(1.,1.))) REPRESENTATION_ITEM('') SURFACE() );
#51 = CARTESIAN_POINT('',(-0.346592460398,1.293500671726,-2.495652173913
    ));
#52 = CARTESIAN_POINT('',(-0.346592460398,1.293500671726,-2.221739130435
    ));
#53 = CARTESIAN_POINT('',(-2.587001343452,0.693184920796,-2.495652173913
    ));
#54 = CARTESIAN_POINT('',(-2.587001343452,0.693184920796,-2.221739130435
    ));
#55 = CARTESIAN_POINT('',(-0.946908211328,-0.946908211328,
    -2.495652173913));
#56 = CARTESIAN_POINT('',(-0.946908211328,-0.946908211328,
    -2.221739130435));
#57 = CARTESIAN_POINT('',(0.693184920796,-2.587001343452,-2.495652173913
    ));
#58 = CARTESIAN_POINT('',(0.693184920796,-2.587001343452,-2.221739130435
    ));
#59 = CARTESIAN_POINT('',(1.293500671726,-0.346592460398,-2.495652173913
    ));
#60 = CARTESIAN_POINT('',(1.293500671726,-0.346592460398,-2.221739130435
    ));
#61 = CARTESIAN_POINT('',(1.893816422656,1.893816422656,-2.495652173913)
  );
#62 = CARTESIAN_POINT('',(1.893816422656,1.893816422656,-2.221739130435)
  );
#63 = CARTESIAN_POINT('',(-0.346592460398,1.293500671726,-2.495652173913
    ));
#64 = CARTESIAN_POINT('',(-0.346592460398,1.293500671726,-2.221739130435
    ));
#65 = ADVANCED_FACE('',(#66,#69),#83,.T.);
#66 = FACE_BOUND('',#67,.T.);
#67 = EDGE_LOOP('',(#68));
#68 = ORIENTED_EDGE('',*,*,#21,.T.);
#69 = FACE_BOUND('',#70,.T.);
#70 = EDGE_LOOP('',(#71));
#71 = ORIENTED_EDGE('',*,*,#72,.F.);
#72 = EDGE_CURVE('',#73,#73,#75,.T.);
#73 = VERTEX_POINT('',#74);
#74 = CARTESIAN_POINT('',(-8.664811509954E-02,0.323375167932,
    -2.221739130435));
#75 = ( BOUNDED_CURVE() B_SPLINE_CURVE(2,(#76,#77,#78,#79,#80,#81,#82),
.UNSPECIFIED.,.T.,.F.) B_SPLINE_CURVE_WITH_KNOTS((1,2,2,2,2,1),(
    -2.094395102393,0.,2.094395102393,4.188790204786,6.28318530718,
8.377580409573),.UNSPECIFIED.) CURVE() GEOMETRIC_REPRESENTATION_ITEM() 
RATIONAL_B_SPLINE_CURVE((1.,0.5,1.,0.5,1.,0.5,1.)) REPRESENTATION_ITEM(
  '') );
#76 = CARTESIAN_POINT('',(-8.664811509954E-02,0.323375167932,
    -2.221739130435));
#77 = CARTESIAN_POINT('',(-0.646750335863,0.173296230199,-2.221739130435
    ));
#78 = CARTESIAN_POINT('',(-0.236727052832,-0.236727052832,
    -2.221739130435));
#79 = CARTESIAN_POINT('',(0.173296230199,-0.646750335863,-2.221739130435
    ));
#80 = CARTESIAN_POINT('',(0.323375167932,-8.664811509954E-02,
    -2.221739130435));
#81 = CARTESIAN_POINT('',(0.473454105664,0.473454105664,-2.221739130435)
  );
#82 = CARTESIAN_POINT('',(-8.664811509954E-02,0.323375167932,
    -2.221739130435));
#83 = B_SPLINE_SURFACE_WITH_KNOTS('',1,1,(
    (#84,#85)
    ,(#86,#87
    )),.UNSPECIFIED.,.F.,.F.,.F.,(2,2),(2,2),(-2.2,2.2),(-2.2,2.2),
  .PIECEWISE_BEZIER_KNOTS.);
#84 = CARTESIAN_POINT('',(1.640093132124,-0.946908211328,-2.221739130435
    ));
#85 = CARTESIAN_POINT('',(-0.946908211328,-1.640093132124,
    -2.221739130435));
#86 = CARTESIAN_POINT('',(0.946908211328,1.640093132124,-2.221739130435)
  );
#87 = CARTESIAN_POINT('',(-1.640093132124,0.946908211328,-2.221739130435
    ));
#88 = ADVANCED_FACE('',(#89),#92,.F.);
#89 = FACE_BOUND('',#90,.T.);
#90 = EDGE_LOOP('',(#91));
#91 = ORIENTED_EDGE('',*,*,#40,.F.);
#92 = B_SPLINE_SURFACE_WITH_KNOTS('',1,1,(
    (#93,#94)
    ,(#95,#96
    )),.UNSPECIFIED.,.F.,.F.,.F.,(2,2),(2,2),(-2.2,2.2),(-2.2,2.2),
  .PIECEWISE_BEZIER_KNOTS.);
#93 = CARTESIAN_POINT('',(1.640093132124,-0.946908211328,-2.495652173913
    ));
#94 = CARTESIAN_POINT('',(-0.946908211328,-1.640093132124,
    -2.495652173913));
#95 = CARTESIAN_POINT('',(0.946908211328,1.640093132124,-2.495652173913)
  );
#96 = CARTESIAN_POINT('',(-1.640093132124,0.946908211328,-2.495652173913
    ));
#97 = ADVANCED_FACE('',(#98),#119,.T.);
#98 = FACE_BOUND('',#99,.T.);
#99 = EDGE_LOOP('',(#100,#107,#117,#118));
#100 = ORIENTED_EDGE('',*,*,#101,.T.);
#101 = EDGE_CURVE('',#73,#102,#104,.T.);
#102 = VERTEX_POINT('',#103);
#103 = CARTESIAN_POINT('',(-8.664811509954E-02,0.323375167932,
    -1.521739130435));
#104 = B_SPLINE_CURVE_WITH_KNOTS('',1,(#105,#106),.UNSPECIFIED.,.F.,.F.,
  (2,2),(5.E-02,1.2),.PIECEWISE_BEZIER_KNOTS.);
#105 = CARTESIAN_POINT('',(-8.664811509954E-02,0.323375167932,
    -2.221739130435));
#106 = CARTESIAN_POINT('',(-8.664811509954E-02,0.323375167932,
    -1.521739130435));
#107 = ORIENTED_EDGE('',*,*,#108,.F.);
#108 = EDGE_CURVE('',#102,#102,#109,.T.);
#109 = ( BOUNDED_CURVE() B_SPLINE_CURVE(2,(#110,#111,#112,#113,#114,#115
,#116),.UNSPECIFIED.,.T.,.F.) B_SPLINE_CURVE_WITH_KNOTS((1,2,2,2,2,1),(
    -2.094395102393,0.,2.094395102393,4.188790204786,6.28318530718,
8.377580409573),.UNSPECIFIED.) CURVE() GEOMETRIC_REPRESENTATION_ITEM() 
RATIONAL_B_SPLINE_CURVE((1.,0.5,1.,0.5,1.,0.5,1.)) REPRESENTATION_ITEM(
  '') );
#110 = CARTESIAN_POINT('',(-8.664811509954E-02,0.323375167932,
    -1.521739130435));
#111 = CARTESIAN_POINT('',(-0.646750335863,0.173296230199,
    -1.521739130435));
#112 = CARTESIAN_POINT('',(-0.236727052832,-0.236727052832,
    -1.521739130435));
#113 = CARTESIAN_POINT('',(0.173296230199,-0.646750335863,
    -1.521739130435));
#114 = CARTESIAN_POINT('',(0.323375167932,-8.664811509954E-02,
    -1.521739130435));
#115 = CARTESIAN_POINT('',(0.473454105664,0.473454105664,-1.521739130435
    ));
#116 = CARTESIAN_POINT('',(-8.664811509954E-02,0.323375167932,
    -1.521739130435));
#117 = ORIENTED_EDGE('',*,*,#101,.F.);
#118 = ORIENTED_EDGE('',*,*,#72,.T.);
#119 = ( BOUNDED_SURFACE() B_SPLINE_SURFACE(2,1,(
    (#120,#121)
    ,(#122,#123)
    ,(#124,#125)
    ,(#126,#127)
    ,(#128,#129)
    ,(#130,#131)
,(#132,#133
    )),.UNSPECIFIED.,.T.,.F.,.F.) B_SPLINE_SURFACE_WITH_KNOTS((1,2,2,2,2
    ,1),(2,2),(-2.094395102393,0.,2.094395102393,4.188790204786,
    6.28318530718,8.377580409573),(5.E-02,1.2),.UNSPECIFIED.) 
GEOMETRIC_REPRESENTATION_ITEM() RATIONAL_B_SPLINE_SURFACE((
    (1.,1.)
    ,(0.5,0.5)
    ,(1.,1.)
    ,(0.5,0.5)
    ,(1.,1.)
    ,(0.5,0.5)
,(1.,1.))) REPRESENTATION_ITEM('') SURFACE() );
#120 = CARTESIAN_POINT('',(-8.664811509954E-02,0.323375167932,
    -2.221739130435));
#121 = CARTESIAN_POINT('',(-8.664811509954E-02,0.323375167932,
    -1.521739130435));
#122 = CARTESIAN_POINT('',(-0.646750335863,0.173296230199,
    -2.221739130435));
#123 = CARTESIAN_POINT('',(-0.646750335863,0.173296230199,
    -1.521739130435));
#124 = CARTESIAN_POINT('',(-0.236727052832,-0.236727052832,
    -2.221739130435));
#125 = CARTESIAN_POINT('',(-0.236727052832,-0.236727052832,
    -1.521739130435));
#126 = CARTESIAN_POINT('',(0.173296230199,-0.646750335863,
    -2.221739130435));
#127 = CARTESIAN_POINT('',(0.173296230199,-0.646750335863,
    -1.521739130435));
#128 = CARTESIAN_POINT('',(0.323375167932,-8.664811509954E-02,
    -2.221739130435));
#129 = CARTESIAN_POINT('',(0.323375167932,-8.664811509954E-02,
    -1.521739130435));
#130 = CARTESIAN_POINT('',(0.473454105664,0.473454105664,-2.221739130435
    ));
#131 = CARTESIAN_POINT('',(0.473454105664,0.473454105664,-1.521739130435
    ));
#132 = CARTESIAN_POINT('',(-8.664811509954E-02,0.323375167932,
    -2.221739130435));
#133 = CARTESIAN_POINT('',(-8.664811509954E-02,0.323375167932,
    -1.521739130435));
#134 = ADVANCED_FACE('',(#135),#138,.T.);
#135 = FACE_BOUND('',#136,.T.);
#136 = EDGE_LOOP('',(#137));
#137 = ORIENTED_EDGE('',*,*,#108,.T.);
#138 = B_SPLINE_SURFACE_WITH_KNOTS('',1,1,(
    (#139,#140)
    ,(#141,#142
    )),.UNSPECIFIED.,.F.,.F.,.F.,(2,2),(2,2),(-0.55,0.55),(-0.55,0.55),
  .PIECEWISE_BEZIER_KNOTS.);
#139 = CARTESIAN_POINT('',(0.410023283031,-0.236727052832,
    -1.521739130435));
#140 = CARTESIAN_POINT('',(-0.236727052832,-0.410023283031,
    -1.521739130435));
#141 = CARTESIAN_POINT('',(0.236727052832,0.410023283031,-1.521739130435
    ));
#142 = CARTESIAN_POINT('',(-0.410023283031,0.236727052832,
    -1.521739130435));
#143 = ( GEOMETRIC_REPRESENTATION_CONTEXT(3) 
GLOBAL_UNCERTAINTY_ASSIGNED_CONTEXT((#147)) GLOBAL_UNIT_ASSIGNED_CONTEXT
((#144,#145,#146)) REPRESENTATION_CONTEXT('Context #1',
  '3D Context with UNIT and UNCERTAINTY') );
#144 = ( LENGTH_UNIT() NAMED_UNIT(*) SI_UNIT(.MILLI.,.METRE.) );
#145 = ( NAMED_UNIT(*) PLANE_ANGLE_UNIT() SI_UNIT($,.RADIAN.) );
#146 = ( NAMED_UNIT(*) SI_UNIT($,.STERADIAN.) SOLID_ANGLE_UNIT() );
#147 = UNCERTAINTY_MEASURE_WITH_UNIT(LENGTH_MEASURE(1.E-07),#144,
  'distance_accuracy_value','confusion accuracy');
#148 = PRODUCT_RELATED_PRODUCT_CATEGORY('part',$,(#7));
ENDSEC;
END-ISO-10303-21;
