ISO-10303-21;
HEADER;
FILE_DESCRIPTION(('FreeCAD Model'),'2;1');
FILE_NAME('Open CASCADE Shape Model','2026-07-29T20:08:02',('FreeCAD'),(
    'FreeCAD'),'Open CASCADE STEP processor 7.8','FreeCAD','Unknown');
FILE_SCHEMA(('AUTOMOTIVE_DESIGN { 1 0 10303 214 1 1 1 1 }'));
ENDSEC;
DATA;
#1 = APPLICATION_PROTOCOL_DEFINITION('international standard',
  'automotive_design',2000,#2);
#2 = APPLICATION_CONTEXT(
  'core data for automotive mechanical design processes');
#3 = SHAPE_DEFINITION_REPRESENTATION(#4,#10);
#4 = PRODUCT_DEFINITION_SHAPE('','',#5);
#5 = PRODUCT_DEFINITION('design','',#6,#9);
#6 = PRODUCT_DEFINITION_FORMATION('','',#7);
#7 = PRODUCT('Open CASCADE STEP translator 7.8 26',
  'Open CASCADE STEP translator 7.8 26','',(#8));
#8 = PRODUCT_CONTEXT('',#2,'mechanical');
#9 = PRODUCT_DEFINITION_CONTEXT('part definition',#2,'design');
#10 = SHAPE_REPRESENTATION('',(#11,#15,#211),#409);
#11 = AXIS2_PLACEMENT_3D('',#12,#13,#14);
#12 = CARTESIAN_POINT('',(0.,0.,0.));
#13 = DIRECTION('',(0.,0.,1.));
#14 = DIRECTION('',(1.,0.,-0.));
#15 = MANIFOLD_SOLID_BREP('',#16);
#16 = CLOSED_SHELL('',(#17,#65,#74,#131,#146,#192,#202));
#17 = ADVANCED_FACE('',(#18),#50,.T.);
#18 = FACE_BOUND('',#19,.T.);
#19 = EDGE_LOOP('',(#20,#32,#39,#49));
#20 = ORIENTED_EDGE('',*,*,#21,.F.);
#21 = EDGE_CURVE('',#22,#22,#24,.T.);
#22 = VERTEX_POINT('',#23);
#23 = CARTESIAN_POINT('',(-1.05437275527,3.934972692783,3.139797032019)
  );
#24 = ( BOUNDED_CURVE() B_SPLINE_CURVE(2,(#25,#26,#27,#28,#29,#30,#31),
.UNSPECIFIED.,.T.,.F.) B_SPLINE_CURVE_WITH_KNOTS((1,2,2,2,2,1),(
    -2.094395102393,0.,2.094395102393,4.188790204786,6.28318530718,
8.377580409573),.UNSPECIFIED.) CURVE() GEOMETRIC_REPRESENTATION_ITEM() 
RATIONAL_B_SPLINE_CURVE((1.,0.5,1.,0.5,1.,0.5,1.)) REPRESENTATION_ITEM(
  '') );
#25 = CARTESIAN_POINT('',(-1.05437275527,3.934972692783,3.139797032019)
  );
#26 = CARTESIAN_POINT('',(-0.932168634376,3.967717188288,3.139797032019)
  );
#27 = CARTESIAN_POINT('',(-0.993270694823,3.951344940535,3.030231814628)
  );
#28 = CARTESIAN_POINT('',(-1.05437275527,3.934972692783,2.920666597237)
  );
#29 = CARTESIAN_POINT('',(-1.115474815717,3.91860044503,3.030231814628)
  );
#30 = CARTESIAN_POINT('',(-1.176576876164,3.902228197277,3.139797032019)
  );
#31 = CARTESIAN_POINT('',(-1.05437275527,3.934972692783,3.139797032019)
  );
#32 = ORIENTED_EDGE('',*,*,#33,.F.);
#33 = EDGE_CURVE('',#34,#22,#36,.T.);
#34 = VERTEX_POINT('',#35);
#35 = CARTESIAN_POINT('',(-0.428514314674,1.599237194134,3.139797032019)
  );
#36 = B_SPLINE_CURVE_WITH_KNOTS('',1,(#37,#38),.UNSPECIFIED.,.F.,.F.,(2,
    2),(0.,3.972644320446),.PIECEWISE_BEZIER_KNOTS.);
#37 = CARTESIAN_POINT('',(-0.428514314674,1.599237194134,3.139797032019)
  );
#38 = CARTESIAN_POINT('',(-1.05437275527,3.934972692783,3.139797032019)
  );
#39 = ORIENTED_EDGE('',*,*,#40,.T.);
#40 = EDGE_CURVE('',#34,#34,#41,.T.);
#41 = ( BOUNDED_CURVE() B_SPLINE_CURVE(2,(#42,#43,#44,#45,#46,#47,#48),
.UNSPECIFIED.,.T.,.F.) B_SPLINE_CURVE_WITH_KNOTS((1,2,2,2,2,1),(
    -2.094395102393,0.,2.094395102393,4.188790204786,6.28318530718,
8.377580409573),.UNSPECIFIED.) CURVE() GEOMETRIC_REPRESENTATION_ITEM() 
RATIONAL_B_SPLINE_CURVE((1.,0.5,1.,0.5,1.,0.5,1.)) REPRESENTATION_ITEM(
  '') );
#42 = CARTESIAN_POINT('',(-0.428514314674,1.599237194134,3.139797032019)
  );
#43 = CARTESIAN_POINT('',(-0.30631019378,1.63198168964,3.139797032019));
#44 = CARTESIAN_POINT('',(-0.367412254227,1.615609441887,3.030231814628)
  );
#45 = CARTESIAN_POINT('',(-0.428514314674,1.599237194134,2.920666597237)
  );
#46 = CARTESIAN_POINT('',(-0.489616375121,1.582864946382,3.030231814628)
  );
#47 = CARTESIAN_POINT('',(-0.550718435568,1.566492698629,3.139797032019)
  );
#48 = CARTESIAN_POINT('',(-0.428514314674,1.599237194134,3.139797032019)
  );
#49 = ORIENTED_EDGE('',*,*,#33,.T.);
#50 = ( BOUNDED_SURFACE() B_SPLINE_SURFACE(2,1,(
    (#51,#52)
    ,(#53,#54)
    ,(#55,#56)
    ,(#57,#58)
    ,(#59,#60)
    ,(#61,#62)
,(#63,#64
    )),.UNSPECIFIED.,.T.,.F.,.F.) B_SPLINE_SURFACE_WITH_KNOTS((1,2,2,2,2
    ,1),(2,2),(-2.094395102393,0.,2.094395102393,4.188790204786,
    6.28318530718,8.377580409573),(0.,3.972644320446),.UNSPECIFIED.) 
GEOMETRIC_REPRESENTATION_ITEM() RATIONAL_B_SPLINE_SURFACE((
    (1.,1.)
    ,(0.5,0.5)
    ,(1.,1.)
    ,(0.5,0.5)
    ,(1.,1.)
    ,(0.5,0.5)
,(1.,1.))) REPRESENTATION_ITEM('') SURFACE() );
#51 = CARTESIAN_POINT('',(-0.428514314674,1.599237194134,3.139797032019)
  );
#52 = CARTESIAN_POINT('',(-1.05437275527,3.934972692783,3.139797032019)
  );
#53 = CARTESIAN_POINT('',(-0.30631019378,1.63198168964,3.139797032019));
#54 = CARTESIAN_POINT('',(-0.932168634376,3.967717188288,3.139797032019)
  );
#55 = CARTESIAN_POINT('',(-0.367412254227,1.615609441887,3.030231814628)
  );
#56 = CARTESIAN_POINT('',(-0.993270694823,3.951344940535,3.030231814628)
  );
#57 = CARTESIAN_POINT('',(-0.428514314674,1.599237194134,2.920666597237)
  );
#58 = CARTESIAN_POINT('',(-1.05437275527,3.934972692783,2.920666597237)
  );
#59 = CARTESIAN_POINT('',(-0.489616375121,1.582864946382,3.030231814628)
  );
#60 = CARTESIAN_POINT('',(-1.115474815717,3.91860044503,3.030231814628)
  );
#61 = CARTESIAN_POINT('',(-0.550718435568,1.566492698629,3.139797032019)
  );
#62 = CARTESIAN_POINT('',(-1.176576876164,3.902228197277,3.139797032019)
  );
#63 = CARTESIAN_POINT('',(-0.428514314674,1.599237194134,3.139797032019)
  );
#64 = CARTESIAN_POINT('',(-1.05437275527,3.934972692783,3.139797032019)
  );
#65 = ADVANCED_FACE('',(#66),#69,.T.);
#66 = FACE_BOUND('',#67,.T.);
#67 = EDGE_LOOP('',(#68));
#68 = ORIENTED_EDGE('',*,*,#21,.T.);
#69 = B_SPLINE_SURFACE_WITH_KNOTS('',1,1,(
    (#70,#71)
    ,(#72,#73
    )),.UNSPECIFIED.,.F.,.F.,.F.,(2,2),(2,2),(-0.12,0.12),(-0.12,0.12),
  .PIECEWISE_BEZIER_KNOTS.);
#70 = CARTESIAN_POINT('',(-1.124927337364,3.916067649488,2.993710075498)
  );
#71 = CARTESIAN_POINT('',(-0.983818173175,3.953877736077,2.993710075498)
  );
#72 = CARTESIAN_POINT('',(-1.124927337364,3.916067649488,3.139797032019)
  );
#73 = CARTESIAN_POINT('',(-0.983818173175,3.953877736077,3.139797032019)
  );
#74 = ADVANCED_FACE('',(#75),#116,.T.);
#75 = FACE_BOUND('',#76,.T.);
#76 = EDGE_LOOP('',(#77,#84,#85,#86,#94,#102,#110));
#77 = ORIENTED_EDGE('',*,*,#78,.T.);
#78 = EDGE_CURVE('',#79,#34,#81,.T.);
#79 = VERTEX_POINT('',#80);
#80 = CARTESIAN_POINT('',(-3.465924603982E-02,0.129350067173,
    3.139797032019));
#81 = B_SPLINE_CURVE_WITH_KNOTS('',1,(#82,#83),.UNSPECIFIED.,.F.,.F.,(2,
    2),(0.,2.5),.PIECEWISE_BEZIER_KNOTS.);
#82 = CARTESIAN_POINT('',(-3.465924603982E-02,0.129350067173,
    3.139797032019));
#83 = CARTESIAN_POINT('',(-0.428514314674,1.599237194134,3.139797032019)
  );
#84 = ORIENTED_EDGE('',*,*,#40,.F.);
#85 = ORIENTED_EDGE('',*,*,#78,.F.);
#86 = ORIENTED_EDGE('',*,*,#87,.T.);
#87 = EDGE_CURVE('',#79,#88,#90,.T.);
#88 = VERTEX_POINT('',#89);
#89 = CARTESIAN_POINT('',(3.589533605434E-02,0.148255110467,
    3.066753553758));
#90 = ( BOUNDED_CURVE() B_SPLINE_CURVE(2,(#91,#92,#93),.UNSPECIFIED.,.F.
,.F.) B_SPLINE_CURVE_WITH_KNOTS((3,3),(0.,1.570796326795),
.PIECEWISE_BEZIER_KNOTS.) CURVE() GEOMETRIC_REPRESENTATION_ITEM() 
RATIONAL_B_SPLINE_CURVE((1.,0.707106781187,1.)) REPRESENTATION_ITEM('') 
  );
#91 = CARTESIAN_POINT('',(-3.465924603982E-02,0.129350067173,
    3.139797032019));
#92 = CARTESIAN_POINT('',(3.589533605434E-02,0.148255110467,
    3.139797032019));
#93 = CARTESIAN_POINT('',(3.589533605434E-02,0.148255110467,
    3.066753553758));
#94 = ORIENTED_EDGE('',*,*,#95,.T.);
#95 = EDGE_CURVE('',#88,#96,#98,.T.);
#96 = VERTEX_POINT('',#97);
#97 = CARTESIAN_POINT('',(-5.356428933426E-02,0.199904649267,
    2.993710075498));
#98 = ( BOUNDED_CURVE() B_SPLINE_CURVE(2,(#99,#100,#101),.UNSPECIFIED.,
.F.,.F.) B_SPLINE_CURVE_WITH_KNOTS((3,3),(4.712388981807,6.28318530718),
.PIECEWISE_BEZIER_KNOTS.) CURVE() GEOMETRIC_REPRESENTATION_ITEM() 
RATIONAL_B_SPLINE_CURVE((1.,0.707106781689,1.)) REPRESENTATION_ITEM('') 
  );
#99 = CARTESIAN_POINT('',(3.589533602746E-02,0.148255110567,
    3.066753553655));
#100 = CARTESIAN_POINT('',(1.699029265958E-02,0.218809692534,
    2.993710075498));
#101 = CARTESIAN_POINT('',(-5.356428933426E-02,0.199904649267,
    2.993710075498));
#102 = ORIENTED_EDGE('',*,*,#103,.T.);
#103 = EDGE_CURVE('',#96,#104,#106,.T.);
#104 = VERTEX_POINT('',#105);
#105 = CARTESIAN_POINT('',(-0.105213828134,0.110445023878,3.066753553758
    ));
#106 = ( BOUNDED_CURVE() B_SPLINE_CURVE(2,(#107,#108,#109),
.UNSPECIFIED.,.F.,.F.) B_SPLINE_CURVE_WITH_KNOTS((3,3),(0.,
1.570796326818),.PIECEWISE_BEZIER_KNOTS.) CURVE() 
GEOMETRIC_REPRESENTATION_ITEM() RATIONAL_B_SPLINE_CURVE((1.,
0.707106781178,1.)) REPRESENTATION_ITEM('') );
#107 = CARTESIAN_POINT('',(-5.356428933426E-02,0.199904649267,
    2.993710075498));
#108 = CARTESIAN_POINT('',(-0.12411887143,0.180999605972,2.993710075498)
  );
#109 = CARTESIAN_POINT('',(-0.105213828134,0.110445023877,3.06675355376)
  );
#110 = ORIENTED_EDGE('',*,*,#111,.T.);
#111 = EDGE_CURVE('',#104,#79,#112,.T.);
#112 = ( BOUNDED_CURVE() B_SPLINE_CURVE(2,(#113,#114,#115),
.UNSPECIFIED.,.F.,.F.) B_SPLINE_CURVE_WITH_KNOTS((3,3),(4.712388980385,
6.28318530718),.PIECEWISE_BEZIER_KNOTS.) CURVE() 
GEOMETRIC_REPRESENTATION_ITEM() RATIONAL_B_SPLINE_CURVE((1.,
0.707106781187,1.)) REPRESENTATION_ITEM('') );
#113 = CARTESIAN_POINT('',(-0.105213828134,0.110445023878,3.066753553758
    ));
#114 = CARTESIAN_POINT('',(-0.105213828134,0.110445023878,3.139797032019
    ));
#115 = CARTESIAN_POINT('',(-3.465924603982E-02,0.129350067173,
    3.139797032019));
#116 = ( BOUNDED_SURFACE() B_SPLINE_SURFACE(2,1,(
    (#117,#118)
    ,(#119,#120)
    ,(#121,#122)
    ,(#123,#124)
    ,(#125,#126)
    ,(#127,#128)
,(#129,#130
    )),.UNSPECIFIED.,.T.,.F.,.F.) B_SPLINE_SURFACE_WITH_KNOTS((1,2,2,2,2
    ,1),(2,2),(-2.094395102393,0.,2.094395102393,4.188790204786,
    6.28318530718,8.377580409573),(-2.797817533207E-12,2.5),
.UNSPECIFIED.) GEOMETRIC_REPRESENTATION_ITEM() RATIONAL_B_SPLINE_SURFACE
((
    (1.,1.)
    ,(0.5,0.5)
    ,(1.,1.)
    ,(0.5,0.5)
    ,(1.,1.)
    ,(0.5,0.5)
,(1.,1.))) REPRESENTATION_ITEM('') SURFACE() );
#117 = CARTESIAN_POINT('',(-3.465924603938E-02,0.129350067171,
    3.139797032019));
#118 = CARTESIAN_POINT('',(-0.428514314674,1.599237194134,3.139797032019
    ));
#119 = CARTESIAN_POINT('',(8.75448748545E-02,0.162094562676,
    3.139797032019));
#120 = CARTESIAN_POINT('',(-0.30631019378,1.63198168964,3.139797032019)
  );
#121 = CARTESIAN_POINT('',(2.644281440756E-02,0.145722314924,
    3.030231814628));
#122 = CARTESIAN_POINT('',(-0.367412254227,1.615609441887,3.030231814628
    ));
#123 = CARTESIAN_POINT('',(-3.465924603938E-02,0.129350067171,
    2.920666597237));
#124 = CARTESIAN_POINT('',(-0.428514314674,1.599237194134,2.920666597237
    ));
#125 = CARTESIAN_POINT('',(-9.576130648631E-02,0.112977819418,
    3.030231814628));
#126 = CARTESIAN_POINT('',(-0.489616375121,1.582864946382,3.030231814628
    ));
#127 = CARTESIAN_POINT('',(-0.156863366933,9.660557166571E-02,
    3.139797032019));
#128 = CARTESIAN_POINT('',(-0.550718435568,1.566492698629,3.139797032019
    ));
#129 = CARTESIAN_POINT('',(-3.465924603938E-02,0.129350067171,
    3.139797032019));
#130 = CARTESIAN_POINT('',(-0.428514314674,1.599237194134,3.139797032019
    ));
#131 = ADVANCED_FACE('',(#132),#141,.F.);
#132 = FACE_BOUND('',#133,.F.);
#133 = EDGE_LOOP('',(#134,#135,#136));
#134 = ORIENTED_EDGE('',*,*,#111,.T.);
#135 = ORIENTED_EDGE('',*,*,#87,.T.);
#136 = ORIENTED_EDGE('',*,*,#137,.F.);
#137 = EDGE_CURVE('',#104,#88,#138,.T.);
#138 = B_SPLINE_CURVE_WITH_KNOTS('',1,(#139,#140),.UNSPECIFIED.,.F.,.F.,
  (2,2),(-0.12,0.12),.PIECEWISE_BEZIER_KNOTS.);
#139 = CARTESIAN_POINT('',(-0.105213828134,0.110445023878,3.066753553758
    ));
#140 = CARTESIAN_POINT('',(3.589533605434E-02,0.148255110467,
    3.066753553758));
#141 = B_SPLINE_SURFACE_WITH_KNOTS('',1,1,(
    (#142,#143)
    ,(#144,#145
    )),.UNSPECIFIED.,.F.,.F.,.F.,(2,2),(2,2),(0.,0.12),(-0.12,0.12),
  .PIECEWISE_BEZIER_KNOTS.);
#142 = CARTESIAN_POINT('',(-0.105213828134,0.110445023878,3.066753553758
    ));
#143 = CARTESIAN_POINT('',(3.589533605434E-02,0.148255110467,
    3.066753553758));
#144 = CARTESIAN_POINT('',(-0.105213828134,0.110445023878,3.139797032019
    ));
#145 = CARTESIAN_POINT('',(3.589533605434E-02,0.148255110467,
    3.139797032019));
#146 = ADVANCED_FACE('',(#147),#177,.T.);
#147 = FACE_BOUND('',#148,.T.);
#148 = EDGE_LOOP('',(#149,#157,#158,#165,#175,#176));
#149 = ORIENTED_EDGE('',*,*,#150,.F.);
#150 = EDGE_CURVE('',#104,#88,#151,.T.);
#151 = ( BOUNDED_CURVE() B_SPLINE_CURVE(2,(#152,#153,#154,#155,#156),
.UNSPECIFIED.,.F.,.F.) B_SPLINE_CURVE_WITH_KNOTS((3,2,3),(1.570796326795
,3.14159265359,4.712388980385),.PIECEWISE_BEZIER_KNOTS.) CURVE() 
GEOMETRIC_REPRESENTATION_ITEM() RATIONAL_B_SPLINE_CURVE((1.,
0.707106781187,1.,0.707106781187,1.)) REPRESENTATION_ITEM('') );
#152 = CARTESIAN_POINT('',(-0.105213828134,0.110445023878,3.066753553758
    ));
#153 = CARTESIAN_POINT('',(-8.630878483953E-02,3.989044178402E-02,
    3.066753553758));
#154 = CARTESIAN_POINT('',(-1.575420274537E-02,5.879548507847E-02,
    3.066753553758));
#155 = CARTESIAN_POINT('',(5.480037934879E-02,7.770052837291E-02,
    3.066753553758));
#156 = CARTESIAN_POINT('',(3.589533605434E-02,0.148255110467,
    3.066753553758));
#157 = ORIENTED_EDGE('',*,*,#103,.F.);
#158 = ORIENTED_EDGE('',*,*,#159,.F.);
#159 = EDGE_CURVE('',#160,#96,#162,.T.);
#160 = VERTEX_POINT('',#161);
#161 = CARTESIAN_POINT('',(-5.356428933426E-02,0.199904649267,
    3.652173913043E-02));
#162 = B_SPLINE_CURVE_WITH_KNOTS('',1,(#163,#164),.UNSPECIFIED.,.F.,.F.,
  (2,2),(0.,4.858237981175),.PIECEWISE_BEZIER_KNOTS.);
#163 = CARTESIAN_POINT('',(-5.356428933426E-02,0.199904649267,
    3.652173913043E-02));
#164 = CARTESIAN_POINT('',(-5.356428933426E-02,0.199904649267,
    2.993710075498));
#165 = ORIENTED_EDGE('',*,*,#166,.T.);
#166 = EDGE_CURVE('',#160,#160,#167,.T.);
#167 = ( BOUNDED_CURVE() B_SPLINE_CURVE(2,(#168,#169,#170,#171,#172,#173
,#174),.UNSPECIFIED.,.T.,.F.) B_SPLINE_CURVE_WITH_KNOTS((1,2,2,2,2,1),(
    -2.094395102393,0.,2.094395102393,4.188790204786,6.28318530718,
8.377580409573),.UNSPECIFIED.) CURVE() GEOMETRIC_REPRESENTATION_ITEM() 
RATIONAL_B_SPLINE_CURVE((1.,0.5,1.,0.5,1.,0.5,1.)) REPRESENTATION_ITEM(
  '') );
#168 = CARTESIAN_POINT('',(-5.356428933426E-02,0.199904649267,
    3.652173913043E-02));
#169 = CARTESIAN_POINT('',(-0.175768410228,0.167160153762,
    3.652173913043E-02));
#170 = CARTESIAN_POINT('',(-8.630878483953E-02,7.770052837291E-02,
    3.652173913043E-02));
#171 = CARTESIAN_POINT('',(3.150840549074E-03,-1.175909701569E-02,
    3.652173913043E-02));
#172 = CARTESIAN_POINT('',(3.589533605434E-02,0.110445023878,
    3.652173913043E-02));
#173 = CARTESIAN_POINT('',(6.863983155961E-02,0.232649144772,
    3.652173913043E-02));
#174 = CARTESIAN_POINT('',(-5.356428933426E-02,0.199904649267,
    3.652173913043E-02));
#175 = ORIENTED_EDGE('',*,*,#159,.T.);
#176 = ORIENTED_EDGE('',*,*,#95,.F.);
#177 = ( BOUNDED_SURFACE() B_SPLINE_SURFACE(2,1,(
    (#178,#179)
    ,(#180,#181)
    ,(#182,#183)
    ,(#184,#185)
    ,(#186,#187)
    ,(#188,#189)
,(#190,#191
    )),.UNSPECIFIED.,.T.,.F.,.F.) B_SPLINE_SURFACE_WITH_KNOTS((1,2,2,2,2
    ,1),(2,2),(-2.094395102393,0.,2.094395102393,4.188790204786,
    6.28318530718,8.377580409573),(0.,4.978237981177),.UNSPECIFIED.) 
GEOMETRIC_REPRESENTATION_ITEM() RATIONAL_B_SPLINE_SURFACE((
    (1.,1.)
    ,(0.5,0.5)
    ,(1.,1.)
    ,(0.5,0.5)
    ,(1.,1.)
    ,(0.5,0.5)
,(1.,1.))) REPRESENTATION_ITEM('') SURFACE() );
#178 = CARTESIAN_POINT('',(-5.356428933426E-02,0.199904649267,
    3.652173913043E-02));
#179 = CARTESIAN_POINT('',(-5.356428933426E-02,0.199904649267,
    3.06675355376));
#180 = CARTESIAN_POINT('',(-0.175768410228,0.167160153762,
    3.652173913043E-02));
#181 = CARTESIAN_POINT('',(-0.175768410228,0.167160153762,3.06675355376)
  );
#182 = CARTESIAN_POINT('',(-8.630878483953E-02,7.770052837291E-02,
    3.652173913043E-02));
#183 = CARTESIAN_POINT('',(-8.630878483953E-02,7.770052837291E-02,
    3.06675355376));
#184 = CARTESIAN_POINT('',(3.150840549074E-03,-1.175909701569E-02,
    3.652173913043E-02));
#185 = CARTESIAN_POINT('',(3.150840549074E-03,-1.175909701569E-02,
    3.06675355376));
#186 = CARTESIAN_POINT('',(3.589533605434E-02,0.110445023878,
    3.652173913043E-02));
#187 = CARTESIAN_POINT('',(3.589533605434E-02,0.110445023878,
    3.06675355376));
#188 = CARTESIAN_POINT('',(6.863983155961E-02,0.232649144772,
    3.652173913043E-02));
#189 = CARTESIAN_POINT('',(6.863983155961E-02,0.232649144772,
    3.06675355376));
#190 = CARTESIAN_POINT('',(-5.356428933426E-02,0.199904649267,
    3.652173913043E-02));
#191 = CARTESIAN_POINT('',(-5.356428933426E-02,0.199904649267,
    3.06675355376));
#192 = ADVANCED_FACE('',(#193),#197,.T.);
#193 = FACE_BOUND('',#194,.T.);
#194 = EDGE_LOOP('',(#195,#196));
#195 = ORIENTED_EDGE('',*,*,#137,.F.);
#196 = ORIENTED_EDGE('',*,*,#150,.T.);
#197 = B_SPLINE_SURFACE_WITH_KNOTS('',1,1,(
    (#198,#199)
    ,(#200,#201
    )),.UNSPECIFIED.,.F.,.F.,.F.,(2,2),(2,2),(-0.12,7.347880794884E-18),
  (-0.12,0.12),.PIECEWISE_BEZIER_KNOTS.);
#198 = CARTESIAN_POINT('',(5.480037934879E-02,7.770052837291E-02,
    3.066753553758));
#199 = CARTESIAN_POINT('',(-8.630878483953E-02,3.989044178402E-02,
    3.066753553758));
#200 = CARTESIAN_POINT('',(3.589533605434E-02,0.148255110467,
    3.066753553758));
#201 = CARTESIAN_POINT('',(-0.105213828134,0.110445023878,3.066753553758
    ));
#202 = ADVANCED_FACE('',(#203),#206,.F.);
#203 = FACE_BOUND('',#204,.T.);
#204 = EDGE_LOOP('',(#205));
#205 = ORIENTED_EDGE('',*,*,#166,.F.);
#206 = B_SPLINE_SURFACE_WITH_KNOTS('',1,1,(
    (#207,#208)
    ,(#209,#210
    )),.UNSPECIFIED.,.F.,.F.,.F.,(2,2),(2,2),(-0.12,0.12),(-0.12,0.12),
  .PIECEWISE_BEZIER_KNOTS.);
#207 = CARTESIAN_POINT('',(5.480037934879E-02,7.770052837291E-02,
    3.652173913043E-02));
#208 = CARTESIAN_POINT('',(-8.630878483953E-02,3.989044178402E-02,
    3.652173913043E-02));
#209 = CARTESIAN_POINT('',(1.69902927599E-02,0.218809692561,
    3.652173913043E-02));
#210 = CARTESIAN_POINT('',(-0.124118871428,0.180999605972,
    3.652173913043E-02));
#211 = MANIFOLD_SOLID_BREP('',#212);
#212 = CLOSED_SHELL('',(#213,#261,#270,#321,#335,#389,#400));
#213 = ADVANCED_FACE('',(#214),#246,.T.);
#214 = FACE_BOUND('',#215,.T.);
#215 = EDGE_LOOP('',(#216,#228,#235,#245));
#216 = ORIENTED_EDGE('',*,*,#217,.F.);
#217 = EDGE_CURVE('',#218,#218,#220,.T.);
#218 = VERTEX_POINT('',#219);
#219 = CARTESIAN_POINT('',(-2.932249476313,-2.828950398713,
    3.066753553758));
#220 = ( BOUNDED_CURVE() B_SPLINE_CURVE(2,(#221,#222,#223,#224,#225,#226
,#227),.UNSPECIFIED.,.T.,.F.) B_SPLINE_CURVE_WITH_KNOTS((1,2,2,2,2,1),(
    -2.094395102393,0.,2.094395102393,4.188790204786,6.28318530718,
8.377580409573),.UNSPECIFIED.) CURVE() GEOMETRIC_REPRESENTATION_ITEM() 
RATIONAL_B_SPLINE_CURVE((1.,0.5,1.,0.5,1.,0.5,1.)) REPRESENTATION_ITEM(
  '') );
#221 = CARTESIAN_POINT('',(-2.932249476313,-2.828950398713,
    3.066753553758));
#222 = CARTESIAN_POINT('',(-2.932249476313,-2.828950398713,
    2.940238538249));
#223 = CARTESIAN_POINT('',(-2.854775168113,-2.906424706913,
    3.003496046004));
#224 = CARTESIAN_POINT('',(-2.777300859914,-2.983899015112,
    3.066753553758));
#225 = CARTESIAN_POINT('',(-2.854775168113,-2.906424706913,
    3.130011061513));
#226 = CARTESIAN_POINT('',(-2.932249476313,-2.828950398713,
    3.193268569268));
#227 = CARTESIAN_POINT('',(-2.932249476313,-2.828950398713,
    3.066753553758));
#228 = ORIENTED_EDGE('',*,*,#229,.F.);
#229 = EDGE_CURVE('',#230,#218,#232,.T.);
#230 = VERTEX_POINT('',#231);
#231 = CARTESIAN_POINT('',(-1.22237241826,-1.11907334066,3.066753553758)
  );
#232 = B_SPLINE_CURVE_WITH_KNOTS('',1,(#233,#234),.UNSPECIFIED.,.F.,.F.,
  (2,2),(0.,3.972644320446),.PIECEWISE_BEZIER_KNOTS.);
#233 = CARTESIAN_POINT('',(-1.22237241826,-1.11907334066,3.066753553758)
  );
#234 = CARTESIAN_POINT('',(-2.932249476313,-2.828950398713,
    3.066753553758));
#235 = ORIENTED_EDGE('',*,*,#236,.T.);
#236 = EDGE_CURVE('',#230,#230,#237,.T.);
#237 = ( BOUNDED_CURVE() B_SPLINE_CURVE(2,(#238,#239,#240,#241,#242,#243
,#244),.UNSPECIFIED.,.T.,.F.) B_SPLINE_CURVE_WITH_KNOTS((1,2,2,2,2,1),(
    -2.094395102393,0.,2.094395102393,4.188790204786,6.28318530718,
8.377580409573),.UNSPECIFIED.) CURVE() GEOMETRIC_REPRESENTATION_ITEM() 
RATIONAL_B_SPLINE_CURVE((1.,0.5,1.,0.5,1.,0.5,1.)) REPRESENTATION_ITEM(
  '') );
#238 = CARTESIAN_POINT('',(-1.22237241826,-1.11907334066,3.066753553758)
  );
#239 = CARTESIAN_POINT('',(-1.22237241826,-1.11907334066,2.940238538249)
  );
#240 = CARTESIAN_POINT('',(-1.14489811006,-1.19654764886,3.003496046004)
  );
#241 = CARTESIAN_POINT('',(-1.067423801861,-1.27402195706,3.066753553758
    ));
#242 = CARTESIAN_POINT('',(-1.14489811006,-1.19654764886,3.130011061513)
  );
#243 = CARTESIAN_POINT('',(-1.22237241826,-1.11907334066,3.193268569268)
  );
#244 = CARTESIAN_POINT('',(-1.22237241826,-1.11907334066,3.066753553758)
  );
#245 = ORIENTED_EDGE('',*,*,#229,.T.);
#246 = ( BOUNDED_SURFACE() B_SPLINE_SURFACE(2,1,(
    (#247,#248)
    ,(#249,#250)
    ,(#251,#252)
    ,(#253,#254)
    ,(#255,#256)
    ,(#257,#258)
,(#259,#260
    )),.UNSPECIFIED.,.T.,.F.,.F.) B_SPLINE_SURFACE_WITH_KNOTS((1,2,2,2,2
    ,1),(2,2),(-2.094395102393,0.,2.094395102393,4.188790204786,
    6.28318530718,8.377580409573),(0.,3.972644320446),.UNSPECIFIED.) 
GEOMETRIC_REPRESENTATION_ITEM() RATIONAL_B_SPLINE_SURFACE((
    (1.,1.)
    ,(0.5,0.5)
    ,(1.,1.)
    ,(0.5,0.5)
    ,(1.,1.)
    ,(0.5,0.5)
,(1.,1.))) REPRESENTATION_ITEM('') SURFACE() );
#247 = CARTESIAN_POINT('',(-1.22237241826,-1.11907334066,3.066753553758)
  );
#248 = CARTESIAN_POINT('',(-2.932249476313,-2.828950398713,
    3.066753553758));
#249 = CARTESIAN_POINT('',(-1.22237241826,-1.11907334066,2.940238538249)
  );
#250 = CARTESIAN_POINT('',(-2.932249476313,-2.828950398713,
    2.940238538249));
#251 = CARTESIAN_POINT('',(-1.14489811006,-1.19654764886,3.003496046004)
  );
#252 = CARTESIAN_POINT('',(-2.854775168113,-2.906424706913,
    3.003496046004));
#253 = CARTESIAN_POINT('',(-1.067423801861,-1.27402195706,3.066753553758
    ));
#254 = CARTESIAN_POINT('',(-2.777300859914,-2.983899015112,
    3.066753553758));
#255 = CARTESIAN_POINT('',(-1.14489811006,-1.19654764886,3.130011061513)
  );
#256 = CARTESIAN_POINT('',(-2.854775168113,-2.906424706913,
    3.130011061513));
#257 = CARTESIAN_POINT('',(-1.22237241826,-1.11907334066,3.193268569268)
  );
#258 = CARTESIAN_POINT('',(-2.932249476313,-2.828950398713,
    3.193268569268));
#259 = CARTESIAN_POINT('',(-1.22237241826,-1.11907334066,3.066753553758)
  );
#260 = CARTESIAN_POINT('',(-2.932249476313,-2.828950398713,
    3.066753553758));
#261 = ADVANCED_FACE('',(#262),#265,.T.);
#262 = FACE_BOUND('',#263,.T.);
#263 = EDGE_LOOP('',(#264));
#264 = ORIENTED_EDGE('',*,*,#217,.T.);
#265 = B_SPLINE_SURFACE_WITH_KNOTS('',1,1,(
    (#266,#267)
    ,(#268,#269
    )),.UNSPECIFIED.,.F.,.F.,.F.,(2,2),(2,2),(-0.12,0.12),(-0.12,0.12),
  .PIECEWISE_BEZIER_KNOTS.);
#266 = CARTESIAN_POINT('',(-2.828950398713,-2.932249476313,
    3.139797032019));
#267 = CARTESIAN_POINT('',(-2.828950398713,-2.932249476313,
    2.993710075498));
#268 = CARTESIAN_POINT('',(-2.932249476313,-2.828950398713,
    3.139797032019));
#269 = CARTESIAN_POINT('',(-2.932249476313,-2.828950398713,
    2.993710075498));
#270 = ADVANCED_FACE('',(#271),#306,.T.);
#271 = FACE_BOUND('',#272,.T.);
#272 = EDGE_LOOP('',(#273,#280,#281,#282,#290,#298));
#273 = ORIENTED_EDGE('',*,*,#274,.T.);
#274 = EDGE_CURVE('',#275,#230,#277,.T.);
#275 = VERTEX_POINT('',#276);
#276 = CARTESIAN_POINT('',(-0.146340359933,-4.304128233309E-02,
    3.066753553758));
#277 = B_SPLINE_CURVE_WITH_KNOTS('',1,(#278,#279),.UNSPECIFIED.,.F.,.F.,
  (2,2),(0.,2.5),.PIECEWISE_BEZIER_KNOTS.);
#278 = CARTESIAN_POINT('',(-0.146340359933,-4.304128233309E-02,
    3.066753553758));
#279 = CARTESIAN_POINT('',(-1.22237241826,-1.11907334066,3.066753553758)
  );
#280 = ORIENTED_EDGE('',*,*,#236,.F.);
#281 = ORIENTED_EDGE('',*,*,#274,.F.);
#282 = ORIENTED_EDGE('',*,*,#283,.T.);
#283 = EDGE_CURVE('',#275,#284,#286,.T.);
#284 = VERTEX_POINT('',#285);
#285 = CARTESIAN_POINT('',(-0.146340359933,-0.146340359933,
    2.993710075498));
#286 = ( BOUNDED_CURVE() B_SPLINE_CURVE(2,(#287,#288,#289),
.UNSPECIFIED.,.F.,.F.) B_SPLINE_CURVE_WITH_KNOTS((3,3),(4.712388980367,
6.28318530718),.PIECEWISE_BEZIER_KNOTS.) CURVE() 
GEOMETRIC_REPRESENTATION_ITEM() RATIONAL_B_SPLINE_CURVE((1.,
0.70710678118,1.)) REPRESENTATION_ITEM('') );
#287 = CARTESIAN_POINT('',(-0.146340359932,-4.30412823322E-02,
    3.06675355376));
#288 = CARTESIAN_POINT('',(-0.197989898733,-9.469082113191E-02,
    2.993710075498));
#289 = CARTESIAN_POINT('',(-0.146340359933,-0.146340359933,
    2.993710075498));
#290 = ORIENTED_EDGE('',*,*,#291,.T.);
#291 = EDGE_CURVE('',#284,#292,#294,.T.);
#292 = VERTEX_POINT('',#293);
#293 = CARTESIAN_POINT('',(-4.304128233309E-02,-0.146340359933,
    3.066753553758));
#294 = ( BOUNDED_CURVE() B_SPLINE_CURVE(2,(#295,#296,#297),
.UNSPECIFIED.,.F.,.F.) B_SPLINE_CURVE_WITH_KNOTS((3,3),(0.,
1.570796325363),.PIECEWISE_BEZIER_KNOTS.) CURVE() 
GEOMETRIC_REPRESENTATION_ITEM() RATIONAL_B_SPLINE_CURVE((1.,
0.707106781693,1.)) REPRESENTATION_ITEM('') );
#295 = CARTESIAN_POINT('',(-0.146340359933,-0.146340359933,
    2.993710075498));
#296 = CARTESIAN_POINT('',(-9.469082120675E-02,-0.197989898658,
    2.993710075498));
#297 = CARTESIAN_POINT('',(-4.304128240704E-02,-0.146340360006,
    3.066753553654));
#298 = ORIENTED_EDGE('',*,*,#299,.T.);
#299 = EDGE_CURVE('',#292,#275,#300,.T.);
#300 = ( BOUNDED_CURVE() B_SPLINE_CURVE(2,(#301,#302,#303,#304,#305),
.UNSPECIFIED.,.F.,.F.) B_SPLINE_CURVE_WITH_KNOTS((3,2,3),(3.14159265359,
4.712388980385,6.28318530718),.PIECEWISE_BEZIER_KNOTS.) CURVE() 
GEOMETRIC_REPRESENTATION_ITEM() RATIONAL_B_SPLINE_CURVE((1.,
0.707106781187,1.,0.707106781187,1.)) REPRESENTATION_ITEM('') );
#301 = CARTESIAN_POINT('',(-4.304128233309E-02,-0.146340359933,
    3.066753553758));
#302 = CARTESIAN_POINT('',(-4.304128233309E-02,-0.146340359933,
    3.139797032019));
#303 = CARTESIAN_POINT('',(-9.469082113281E-02,-9.469082113281E-02,
    3.139797032019));
#304 = CARTESIAN_POINT('',(-0.146340359933,-4.304128233309E-02,
    3.139797032019));
#305 = CARTESIAN_POINT('',(-0.146340359933,-4.304128233309E-02,
    3.066753553758));
#306 = ( BOUNDED_SURFACE() B_SPLINE_SURFACE(2,1,(
    (#307,#308)
    ,(#309,#310)
    ,(#311,#312)
    ,(#313,#314)
    ,(#315,#316)
    ,(#317,#318)
,(#319,#320
    )),.UNSPECIFIED.,.T.,.F.,.F.) B_SPLINE_SURFACE_WITH_KNOTS((1,2,2,2,2
    ,1),(2,2),(-2.094395102393,0.,2.094395102393,4.188790204786,
    6.28318530718,8.377580409573),(-2.074812543995E-12,2.5),
.UNSPECIFIED.) GEOMETRIC_REPRESENTATION_ITEM() RATIONAL_B_SPLINE_SURFACE
((
    (1.,1.)
    ,(0.5,0.5)
    ,(1.,1.)
    ,(0.5,0.5)
    ,(1.,1.)
    ,(0.5,0.5)
,(1.,1.))) REPRESENTATION_ITEM('') SURFACE() );
#307 = CARTESIAN_POINT('',(-0.146340359932,-4.30412823322E-02,
    3.066753553758));
#308 = CARTESIAN_POINT('',(-1.22237241826,-1.11907334066,3.066753553758)
  );
#309 = CARTESIAN_POINT('',(-0.146340359932,-4.30412823322E-02,
    2.940238538249));
#310 = CARTESIAN_POINT('',(-1.22237241826,-1.11907334066,2.940238538249)
  );
#311 = CARTESIAN_POINT('',(-6.886605173206E-02,-0.120515590532,
    3.003496046004));
#312 = CARTESIAN_POINT('',(-1.14489811006,-1.19654764886,3.003496046004)
  );
#313 = CARTESIAN_POINT('',(8.608256467512E-03,-0.197989898731,
    3.066753553758));
#314 = CARTESIAN_POINT('',(-1.067423801861,-1.27402195706,3.066753553758
    ));
#315 = CARTESIAN_POINT('',(-6.886605173206E-02,-0.120515590532,
    3.130011061513));
#316 = CARTESIAN_POINT('',(-1.14489811006,-1.19654764886,3.130011061513)
  );
#317 = CARTESIAN_POINT('',(-0.146340359932,-4.30412823322E-02,
    3.193268569268));
#318 = CARTESIAN_POINT('',(-1.22237241826,-1.11907334066,3.193268569268)
  );
#319 = CARTESIAN_POINT('',(-0.146340359932,-4.30412823322E-02,
    3.066753553758));
#320 = CARTESIAN_POINT('',(-1.22237241826,-1.11907334066,3.066753553758)
  );
#321 = ADVANCED_FACE('',(#322),#330,.F.);
#322 = FACE_BOUND('',#323,.F.);
#323 = EDGE_LOOP('',(#324,#325));
#324 = ORIENTED_EDGE('',*,*,#299,.T.);
#325 = ORIENTED_EDGE('',*,*,#326,.F.);
#326 = EDGE_CURVE('',#292,#275,#327,.T.);
#327 = B_SPLINE_CURVE_WITH_KNOTS('',1,(#328,#329),.UNSPECIFIED.,.F.,.F.,
  (2,2),(-0.12,0.12),.PIECEWISE_BEZIER_KNOTS.);
#328 = CARTESIAN_POINT('',(-4.304128233309E-02,-0.146340359933,
    3.066753553758));
#329 = CARTESIAN_POINT('',(-0.146340359933,-4.304128233309E-02,
    3.066753553758));
#330 = B_SPLINE_SURFACE_WITH_KNOTS('',1,1,(
    (#331,#332)
    ,(#333,#334
    )),.UNSPECIFIED.,.F.,.F.,.F.,(2,2),(2,2),(-0.12,0.12),(-0.12,
    1.469576158977E-17),.PIECEWISE_BEZIER_KNOTS.);
#331 = CARTESIAN_POINT('',(-4.304128233309E-02,-0.146340359933,
    3.139797032019));
#332 = CARTESIAN_POINT('',(-4.304128233309E-02,-0.146340359933,
    3.066753553758));
#333 = CARTESIAN_POINT('',(-0.146340359933,-4.304128233309E-02,
    3.139797032019));
#334 = CARTESIAN_POINT('',(-0.146340359933,-4.304128233309E-02,
    3.066753553758));
#335 = ADVANCED_FACE('',(#336),#374,.T.);
#336 = FACE_BOUND('',#337,.T.);
#337 = EDGE_LOOP('',(#338,#347,#355,#356,#357,#363,#364));
#338 = ORIENTED_EDGE('',*,*,#339,.T.);
#339 = EDGE_CURVE('',#340,#342,#344,.T.);
#340 = VERTEX_POINT('',#341);
#341 = CARTESIAN_POINT('',(-0.113595864427,-2.413623903865E-02,
    3.652173913043E-02));
#342 = VERTEX_POINT('',#343);
#343 = CARTESIAN_POINT('',(-0.113595864427,-2.413623903865E-02,
    3.066753553758));
#344 = B_SPLINE_CURVE_WITH_KNOTS('',1,(#345,#346),.UNSPECIFIED.,.F.,.F.,
  (2,2),(0.,4.978237981175),.PIECEWISE_BEZIER_KNOTS.);
#345 = CARTESIAN_POINT('',(-0.113595864427,-2.413623903865E-02,
    3.652173913043E-02));
#346 = CARTESIAN_POINT('',(-0.113595864427,-2.413623903865E-02,
    3.066753553758));
#347 = ORIENTED_EDGE('',*,*,#348,.F.);
#348 = EDGE_CURVE('',#292,#342,#349,.T.);
#349 = ( BOUNDED_CURVE() B_SPLINE_CURVE(2,(#350,#351,#352,#353,#354),
.UNSPECIFIED.,.F.,.F.) B_SPLINE_CURVE_WITH_KNOTS((3,2,3),(3.665191429188
,4.974188368184,6.28318530718),.PIECEWISE_BEZIER_KNOTS.) CURVE() 
GEOMETRIC_REPRESENTATION_ITEM() RATIONAL_B_SPLINE_CURVE((1.,
0.793353340291,1.,0.793353340291,1.)) REPRESENTATION_ITEM('') );
#350 = CARTESIAN_POINT('',(-4.304128233309E-02,-0.146340359933,
    3.066753553758));
#351 = CARTESIAN_POINT('',(-3.409197295408E-03,-0.106708274895,
    3.066753553758));
#352 = CARTESIAN_POINT('',(-3.143331337812E-02,-5.816908200237E-02,
    3.066753553758));
#353 = CARTESIAN_POINT('',(-5.945742946083E-02,-9.629889109911E-03,
    3.066753553758));
#354 = CARTESIAN_POINT('',(-0.113595864427,-2.413623903865E-02,
    3.066753553758));
#355 = ORIENTED_EDGE('',*,*,#291,.F.);
#356 = ORIENTED_EDGE('',*,*,#283,.F.);
#357 = ORIENTED_EDGE('',*,*,#358,.F.);
#358 = EDGE_CURVE('',#342,#275,#359,.T.);
#359 = ( BOUNDED_CURVE() B_SPLINE_CURVE(2,(#360,#361,#362),
.UNSPECIFIED.,.F.,.F.) B_SPLINE_CURVE_WITH_KNOTS((3,3),(0.,
0.523598775598),.PIECEWISE_BEZIER_KNOTS.) CURVE() 
GEOMETRIC_REPRESENTATION_ITEM() RATIONAL_B_SPLINE_CURVE((1.,
0.965925826289,1.)) REPRESENTATION_ITEM('') );
#360 = CARTESIAN_POINT('',(-0.113595864427,-2.413623903865E-02,
    3.066753553758));
#361 = CARTESIAN_POINT('',(-0.132500907722,-2.920183012227E-02,
    3.066753553758));
#362 = CARTESIAN_POINT('',(-0.146340359933,-4.304128233309E-02,
    3.066753553758));
#363 = ORIENTED_EDGE('',*,*,#339,.F.);
#364 = ORIENTED_EDGE('',*,*,#365,.T.);
#365 = EDGE_CURVE('',#340,#340,#366,.T.);
#366 = ( BOUNDED_CURVE() B_SPLINE_CURVE(2,(#367,#368,#369,#370,#371,#372
,#373),.UNSPECIFIED.,.T.,.F.) B_SPLINE_CURVE_WITH_KNOTS((1,2,2,2,2,1),(
    -2.094395102393,0.,2.094395102393,4.188790204786,6.28318530718,
8.377580409573),.UNSPECIFIED.) CURVE() GEOMETRIC_REPRESENTATION_ITEM() 
RATIONAL_B_SPLINE_CURVE((1.,0.5,1.,0.5,1.,0.5,1.)) REPRESENTATION_ITEM(
  '') );
#367 = CARTESIAN_POINT('',(-0.113595864427,-2.413623903865E-02,
    3.652173913043E-02));
#368 = CARTESIAN_POINT('',(-0.235799985321,-5.688073454392E-02,
    3.652173913043E-02));
#369 = CARTESIAN_POINT('',(-0.146340359933,-0.146340359933,
    3.652173913043E-02));
#370 = CARTESIAN_POINT('',(-5.688073454392E-02,-0.235799985321,
    3.652173913043E-02));
#371 = CARTESIAN_POINT('',(-2.413623903865E-02,-0.113595864427,
    3.652173913043E-02));
#372 = CARTESIAN_POINT('',(8.608256466619E-03,8.608256466619E-03,
    3.652173913043E-02));
#373 = CARTESIAN_POINT('',(-0.113595864427,-2.413623903865E-02,
    3.652173913043E-02));
#374 = ( BOUNDED_SURFACE() B_SPLINE_SURFACE(2,1,(
    (#375,#376)
    ,(#377,#378)
    ,(#379,#380)
    ,(#381,#382)
    ,(#383,#384)
    ,(#385,#386)
,(#387,#388
    )),.UNSPECIFIED.,.T.,.F.,.F.) B_SPLINE_SURFACE_WITH_KNOTS((1,2,2,2,2
    ,1),(2,2),(-2.094395102393,0.,2.094395102393,4.188790204786,
    6.28318530718,8.377580409573),(0.,4.978237981177),.UNSPECIFIED.) 
GEOMETRIC_REPRESENTATION_ITEM() RATIONAL_B_SPLINE_SURFACE((
    (1.,1.)
    ,(0.5,0.5)
    ,(1.,1.)
    ,(0.5,0.5)
    ,(1.,1.)
    ,(0.5,0.5)
,(1.,1.))) REPRESENTATION_ITEM('') SURFACE() );
#375 = CARTESIAN_POINT('',(-0.113595864427,-2.413623903865E-02,
    3.652173913043E-02));
#376 = CARTESIAN_POINT('',(-0.113595864427,-2.413623903865E-02,
    3.06675355376));
#377 = CARTESIAN_POINT('',(-0.235799985321,-5.688073454392E-02,
    3.652173913043E-02));
#378 = CARTESIAN_POINT('',(-0.235799985321,-5.688073454392E-02,
    3.06675355376));
#379 = CARTESIAN_POINT('',(-0.146340359933,-0.146340359933,
    3.652173913043E-02));
#380 = CARTESIAN_POINT('',(-0.146340359933,-0.146340359933,3.06675355376
    ));
#381 = CARTESIAN_POINT('',(-5.688073454392E-02,-0.235799985321,
    3.652173913043E-02));
#382 = CARTESIAN_POINT('',(-5.688073454392E-02,-0.235799985321,
    3.06675355376));
#383 = CARTESIAN_POINT('',(-2.413623903865E-02,-0.113595864427,
    3.652173913043E-02));
#384 = CARTESIAN_POINT('',(-2.413623903865E-02,-0.113595864427,
    3.06675355376));
#385 = CARTESIAN_POINT('',(8.608256466619E-03,8.608256466619E-03,
    3.652173913043E-02));
#386 = CARTESIAN_POINT('',(8.608256466619E-03,8.608256466619E-03,
    3.06675355376));
#387 = CARTESIAN_POINT('',(-0.113595864427,-2.413623903865E-02,
    3.652173913043E-02));
#388 = CARTESIAN_POINT('',(-0.113595864427,-2.413623903865E-02,
    3.06675355376));
#389 = ADVANCED_FACE('',(#390),#395,.T.);
#390 = FACE_BOUND('',#391,.T.);
#391 = EDGE_LOOP('',(#392,#393,#394));
#392 = ORIENTED_EDGE('',*,*,#348,.T.);
#393 = ORIENTED_EDGE('',*,*,#358,.T.);
#394 = ORIENTED_EDGE('',*,*,#326,.F.);
#395 = B_SPLINE_SURFACE_WITH_KNOTS('',1,1,(
    (#396,#397)
    ,(#398,#399
    )),.UNSPECIFIED.,.F.,.F.,.F.,(2,2),(2,2),(-0.103923048454,0.12),(
    -0.12,6.E-02),.PIECEWISE_BEZIER_KNOTS.);
#396 = CARTESIAN_POINT('',(-7.763991286015E-03,-0.136887838285,
    3.066753553758));
#397 = CARTESIAN_POINT('',(-0.113595864427,-0.165245403227,
    3.066753553758));
#398 = CARTESIAN_POINT('',(-4.304128233309E-02,-5.231195744204E-03,
    3.066753553758));
#399 = CARTESIAN_POINT('',(-0.148873155474,-3.358876068587E-02,
    3.066753553758));
#400 = ADVANCED_FACE('',(#401),#404,.F.);
#401 = FACE_BOUND('',#402,.T.);
#402 = EDGE_LOOP('',(#403));
#403 = ORIENTED_EDGE('',*,*,#365,.F.);
#404 = B_SPLINE_SURFACE_WITH_KNOTS('',1,1,(
    (#405,#406)
    ,(#407,#408
    )),.UNSPECIFIED.,.F.,.F.,.F.,(2,2),(2,2),(-0.12,0.12),(-0.12,0.12),
  .PIECEWISE_BEZIER_KNOTS.);
#405 = CARTESIAN_POINT('',(-5.231195744204E-03,-0.146340359933,
    3.652173913043E-02));
#406 = CARTESIAN_POINT('',(-0.146340359933,-0.184150446521,
    3.652173913043E-02));
#407 = CARTESIAN_POINT('',(-4.304128233309E-02,-5.231195744204E-03,
    3.652173913043E-02));
#408 = CARTESIAN_POINT('',(-0.184150446521,-4.304128233309E-02,
    3.652173913043E-02));
#409 = ( GEOMETRIC_REPRESENTATION_CONTEXT(3) 
GLOBAL_UNCERTAINTY_ASSIGNED_CONTEXT((#413)) GLOBAL_UNIT_ASSIGNED_CONTEXT
((#410,#411,#412)) REPRESENTATION_CONTEXT('Context #1',
  '3D Context with UNIT and UNCERTAINTY') );
#410 = ( LENGTH_UNIT() NAMED_UNIT(*) SI_UNIT(.MILLI.,.METRE.) );
#411 = ( NAMED_UNIT(*) PLANE_ANGLE_UNIT() SI_UNIT($,.RADIAN.) );
#412 = ( NAMED_UNIT(*) SI_UNIT($,.STERADIAN.) SOLID_ANGLE_UNIT() );
#413 = UNCERTAINTY_MEASURE_WITH_UNIT(LENGTH_MEASURE(1.E-07),#410,
  'distance_accuracy_value','confusion accuracy');
#414 = PRODUCT_RELATED_PRODUCT_CATEGORY('part',$,(#7));
ENDSEC;
END-ISO-10303-21;
