ISO-10303-21;
HEADER;
FILE_DESCRIPTION(('FreeCAD Model'),'2;1');
FILE_NAME('Open CASCADE Shape Model','2026-07-28T22:26:06',('FreeCAD'),(
    'FreeCAD'),'Open CASCADE STEP processor 7.8','FreeCAD','Unknown');
FILE_SCHEMA(('AUTOMOTIVE_DESIGN { 1 0 10303 214 1 1 1 1 }'));
ENDSEC;
DATA;
#1 = APPLICATION_PROTOCOL_DEFINITION('international standard',
  'automotive_design',2000,#2);
#2 = APPLICATION_CONTEXT(
  'core data for automotive mechanical design processes');
#3 = SHAPE_DEFINITION_REPRESENTATION(#4,#10);
#4 = PRODUCT_DEFINITION_SHAPE('','',#5);
#5 = PRODUCT_DEFINITION('design','',#6,#9);
#6 = PRODUCT_DEFINITION_FORMATION('','',#7);
#7 = PRODUCT('Open CASCADE STEP translator 7.8 15',
  'Open CASCADE STEP translator 7.8 15','',(#8));
#8 = PRODUCT_CONTEXT('',#2,'mechanical');
#9 = PRODUCT_DEFINITION_CONTEXT('part definition',#2,'design');
#10 = ADVANCED_BREP_SHAPE_REPRESENTATION('',(#11,#15),#301);
#11 = AXIS2_PLACEMENT_3D('',#12,#13,#14);
#12 = CARTESIAN_POINT('',(0.,0.,0.));
#13 = DIRECTION('',(0.,0.,1.));
#14 = DIRECTION('',(1.,0.,-0.));
#15 = MANIFOLD_SOLID_BREP('',#16);
#16 = CLOSED_SHELL('',(#17,#177,#205,#227,#250,#272,#288));
#17 = ADVANCED_FACE('',(#18),#172,.T.);
#18 = FACE_BOUND('',#19,.T.);
#19 = EDGE_LOOP('',(#20,#31,#41,#108,#139,#164));
#20 = ORIENTED_EDGE('',*,*,#21,.F.);
#21 = EDGE_CURVE('',#22,#24,#26,.T.);
#22 = VERTEX_POINT('',#23);
#23 = CARTESIAN_POINT('',(-73.20028368372,19.510429280743,53.9));
#24 = VERTEX_POINT('',#25);
#25 = CARTESIAN_POINT('',(19.510429280743,-73.20028368372,53.9));
#26 = CIRCLE('',#27,75.755781179374);
#27 = AXIS2_PLACEMENT_3D('',#28,#29,#30);
#28 = CARTESIAN_POINT('',(0.,0.,53.9));
#29 = DIRECTION('',(0.,0.,1.));
#30 = DIRECTION('',(1.,0.,0.));
#31 = ORIENTED_EDGE('',*,*,#32,.F.);
#32 = EDGE_CURVE('',#33,#22,#35,.T.);
#33 = VERTEX_POINT('',#34);
#34 = CARTESIAN_POINT('',(-73.20028368198,19.510429280275,
    26.844927200853));
#35 = B_SPLINE_CURVE_WITH_KNOTS('',4,(#36,#37,#38,#39,#40),
  .UNSPECIFIED.,.F.,.F.,(5,5),(0.,1.),.PIECEWISE_BEZIER_KNOTS.);
#36 = CARTESIAN_POINT('',(-73.20028368372,19.510429280743,-53.4449060287
    ));
#37 = CARTESIAN_POINT('',(-73.20028368372,19.510429280743,
    -26.60867937153));
#38 = CARTESIAN_POINT('',(-73.20028368372,19.510429280743,0.227547285647
    ));
#39 = CARTESIAN_POINT('',(-73.20028368372,19.510429280743,
    27.063773942823));
#40 = CARTESIAN_POINT('',(-73.20028368372,19.510429280743,53.9000006));
#41 = ORIENTED_EDGE('',*,*,#42,.F.);
#42 = EDGE_CURVE('',#43,#33,#45,.T.);
#43 = VERTEX_POINT('',#44);
#44 = CARTESIAN_POINT('',(-53.56742658527,-53.56742658527,
    -26.66123880549));
#45 = B_SPLINE_CURVE_WITH_KNOTS('',7,(#46,#47,#48,#49,#50,#51,#52,#53,
    #54,#55,#56,#57,#58,#59,#60,#61,#62,#63,#64,#65,#66,#67,#68,#69,#70,
    #71,#72,#73,#74,#75,#76,#77,#78,#79,#80,#81,#82,#83,#84,#85,#86,#87,
    #88,#89,#90,#91,#92,#93,#94,#95,#96,#97,#98,#99,#100,#101,#102,#103,
    #104,#105,#106,#107),.UNSPECIFIED.,.F.,.F.,(8,6,6,6,6,6,6,6,6,6,8),(
    0.,0.105359027727,0.183888596008,0.241155702607,0.393219917132,
    0.548236054659,0.607090349413,0.686127672746,0.788467555841,
    0.870958506354,1.),.UNSPECIFIED.);
#46 = CARTESIAN_POINT('',(-26.7006099827,-70.89439899349,-43.41274974332
    ));
#47 = CARTESIAN_POINT('',(-29.57397398754,-69.81221799301,-42.1477442642
    ));
#48 = CARTESIAN_POINT('',(-32.35747223032,-68.60874230098,
    -40.81633954601));
#49 = CARTESIAN_POINT('',(-35.0472602407,-67.29294302113,-39.42536655343
    ));
#50 = CARTESIAN_POINT('',(-37.64064468362,-65.87337507854,
    -37.98116132349));
#51 = CARTESIAN_POINT('',(-40.13591968571,-64.35800520638,
    -36.48947743265));
#52 = CARTESIAN_POINT('',(-42.5322044294,-62.75404382816,-34.95540089253
    ));
#53 = CARTESIAN_POINT('',(-46.54141352324,-59.810921241,-32.21147459357)
  );
#54 = CARTESIAN_POINT('',(-48.19833643649,-58.50840786604,
    -31.01860347491));
#55 = CARTESIAN_POINT('',(-49.79991784134,-57.16289271192,
    -29.80648979385));
#56 = CARTESIAN_POINT('',(-51.34609563005,-55.77685515217,
    -28.57683836052));
#57 = CARTESIAN_POINT('',(-52.83687741546,-54.35260143412,
    -27.33122297789));
#58 = CARTESIAN_POINT('',(-54.27233145057,-52.89225840633,
    -26.07108381939));
#59 = CARTESIAN_POINT('',(-56.65909797555,-50.30791064032,
    -23.86913287857));
#60 = CARTESIAN_POINT('',(-57.63625054489,-49.19991044368,
    -22.93352333869));
#61 = CARTESIAN_POINT('',(-58.58406444193,-48.0745198014,-21.99140525324
    ));
#62 = CARTESIAN_POINT('',(-59.50257532382,-46.93246206157,
    -21.04326615243));
#63 = CARTESIAN_POINT('',(-60.39181698951,-45.77442485476,
    -20.08956951104));
#64 = CARTESIAN_POINT('',(-61.25182104571,-44.60105994803,
    -19.13075470983));
#65 = CARTESIAN_POINT('',(-64.2886695197,-40.25822317566,-15.60876018759
    ));
#66 = CARTESIAN_POINT('',(-66.28855802307,-37.00004282461,
    -13.01737662428));
#67 = CARTESIAN_POINT('',(-68.0831839388,-33.64958384038,-10.40053124316
    ));
#68 = CARTESIAN_POINT('',(-69.67246668677,-30.21704065726,-7.76520171953
    ));
#69 = CARTESIAN_POINT('',(-71.05576318096,-26.71183451479,
    -5.117940572544));
#70 = CARTESIAN_POINT('',(-72.23182885037,-23.14260273934,
    -2.464874978155));
#71 = CARTESIAN_POINT('',(-74.18395047831,-15.82120607598,2.892994992059
    ));
#72 = CARTESIAN_POINT('',(-74.95161915004,-12.06750650842,5.597312593572
    ));
#73 = CARTESIAN_POINT('',(-75.49937565574,-8.264202955412,8.295263627501
    ));
#74 = CARTESIAN_POINT('',(-75.82373059824,-4.419870600868,
    10.980352530369));
#75 = CARTESIAN_POINT('',(-75.92020705604,-0.54352418298,13.645602787918
    ));
#76 = CARTESIAN_POINT('',(-75.78339199518,3.355370405835,16.283558421474
    ));
#77 = CARTESIAN_POINT('',(-75.26331044562,8.752055519235,19.874381372448
    ));
#78 = CARTESIAN_POINT('',(-75.08558044118,10.238922561579,
    20.857403600075));
#79 = CARTESIAN_POINT('',(-74.87287195007,11.72699128249,21.834845082074
    ));
#80 = CARTESIAN_POINT('',(-74.62479466479,13.215657284138,
    22.806221575817));
#81 = CARTESIAN_POINT('',(-74.3409364695,14.704281214555,23.771020973357
    ));
#82 = CARTESIAN_POINT('',(-74.02086394068,16.192188720653,
    24.728703360963));
#83 = CARTESIAN_POINT('',(-73.18504377264,19.674914408735,
    26.954483535879));
#84 = CARTESIAN_POINT('',(-72.6398425413,21.668551000063,28.216383900291
    ));
#85 = CARTESIAN_POINT('',(-72.02741566896,23.657889446335,
    29.463045430839));
#86 = CARTESIAN_POINT('',(-71.34660355001,25.641037991337,
    30.692963811445));
#87 = CARTESIAN_POINT('',(-70.59621323838,27.615906163599,
    31.904492899256));
#88 = CARTESIAN_POINT('',(-69.77503116578,29.580205955156,
    33.095847857362));
#89 = CARTESIAN_POINT('',(-67.72527685279,34.057983258616,
    35.779095556836));
#90 = CARTESIAN_POINT('',(-66.4480528227,36.562458923285,37.255936026715
    ));
#91 = CARTESIAN_POINT('',(-65.04745623777,39.03959947208,38.691527520646
    ));
#92 = CARTESIAN_POINT('',(-63.52092803479,41.483099447915,
    40.081094990273));
#93 = CARTESIAN_POINT('',(-61.86624586192,43.885684316927,
    41.419263117951));
#94 = CARTESIAN_POINT('',(-60.08173055255,46.239171636841,
    42.700135882859));
#95 = CARTESIAN_POINT('',(-56.62265965944,50.384712653869,44.89853914352
    ));
#96 = CARTESIAN_POINT('',(-54.99399802424,52.197015885726,
    45.838299504231));
#97 = CARTESIAN_POINT('',(-53.2801087835,53.966609057119,46.733290616784
    ));
#98 = CARTESIAN_POINT('',(-51.48114673558,55.688130224765,
    47.579878535872));
#99 = CARTESIAN_POINT('',(-49.59792286455,57.355772737944,
    48.374245665681));
#100 = CARTESIAN_POINT('',(-47.6320922003,58.96340101477,49.112504217349
    ));
#101 = CARTESIAN_POINT('',(-42.38628914782,62.915775685568,
    50.851977729911));
#102 = CARTESIAN_POINT('',(-38.98853239051,65.166209059397,
    51.767219664472));
#103 = CARTESIAN_POINT('',(-35.40652841363,67.228891417326,
    52.520505688908));
#104 = CARTESIAN_POINT('',(-31.65893247984,69.07848946717,
    53.097946992904));
#105 = CARTESIAN_POINT('',(-27.77028117996,70.692530934499,
    53.488685235361));
#106 = CARTESIAN_POINT('',(-23.77179372707,72.052696798741,
    53.685921805085));
#107 = CARTESIAN_POINT('',(-19.703614446,73.148519874708,53.689854402986
    ));
#108 = ORIENTED_EDGE('',*,*,#109,.F.);
#109 = EDGE_CURVE('',#110,#43,#112,.T.);
#110 = VERTEX_POINT('',#111);
#111 = CARTESIAN_POINT('',(-45.3193112214,-60.70501142833,
    -19.72140255819));
#112 = B_SPLINE_CURVE_WITH_KNOTS('',7,(#113,#114,#115,#116,#117,#118,
    #119,#120,#121,#122,#123,#124,#125,#126,#127,#128,#129,#130,#131,
    #132,#133,#134,#135,#136,#137,#138),.UNSPECIFIED.,.F.,.F.,(8,6,6,6,8
    ),(0.,0.288406415777,0.547947791593,0.718200710212,1.),
  .UNSPECIFIED.);
#113 = CARTESIAN_POINT('',(-45.3193112214,-60.70501142833,
    -19.72140255819));
#114 = CARTESIAN_POINT('',(-47.92067010395,-58.76296759995,
    -21.85358240537));
#115 = CARTESIAN_POINT('',(-50.44511025121,-56.67581018699,
    -23.95978340854));
#116 = CARTESIAN_POINT('',(-52.88581057945,-54.44297602794,
    -26.03544974656));
#117 = CARTESIAN_POINT('',(-55.23468977619,-52.0639689566,-28.0751525851
    ));
#118 = CARTESIAN_POINT('',(-57.48252820923,-49.53855319729,
    -30.07263794817));
#119 = CARTESIAN_POINT('',(-59.61903706077,-46.86686131779,
    -32.02085418097));
#120 = CARTESIAN_POINT('',(-63.4449697065,-41.5137016396,-35.61371099096
    ));
#121 = CARTESIAN_POINT('',(-65.15744685558,-38.86038228698,
    -37.26894577918));
#122 = CARTESIAN_POINT('',(-66.761935177,-36.08966501561,-38.87190813676
    ));
#123 = CARTESIAN_POINT('',(-68.24879808333,-33.20291114678,
    -40.41576701299));
#124 = CARTESIAN_POINT('',(-69.60734627109,-30.20279225246,
    -41.89273254621));
#125 = CARTESIAN_POINT('',(-70.82609935794,-27.09353193646,
    -43.29419051632));
#126 = CARTESIAN_POINT('',(-72.59310883022,-21.77404696652,
    -45.47461374727));
#127 = CARTESIAN_POINT('',(-73.22773674293,-19.62268151612,
    -46.30179987647));
#128 = CARTESIAN_POINT('',(-73.79363472916,-17.4290371867,
    -47.08978016475));
#129 = CARTESIAN_POINT('',(-74.28730804385,-15.19554468299,
    -47.83572280703));
#130 = CARTESIAN_POINT('',(-74.70526245862,-12.92521807619,
    -48.53668958762));
#131 = CARTESIAN_POINT('',(-75.04413870353,-10.62172268642,
    -49.18971528234));
#132 = CARTESIAN_POINT('',(-75.72584540522,-4.429146400956,
    -50.78864973623));
#133 = CARTESIAN_POINT('',(-75.92605886547,-0.487673090505,
    -51.64673775266));
#134 = CARTESIAN_POINT('',(-75.88681391189,3.511628637317,
    -52.35185596577));
#135 = CARTESIAN_POINT('',(-75.59720850911,7.542288597162,
    -52.89171376679));
#136 = CARTESIAN_POINT('',(-75.05119996367,11.574699857737,
    -53.25676547485));
#137 = CARTESIAN_POINT('',(-74.24892390699,15.576084182289,
    -53.44110489426));
#138 = CARTESIAN_POINT('',(-73.20028368274,19.51042928442,
    -53.44490542871));
#139 = ORIENTED_EDGE('',*,*,#140,.F.);
#140 = EDGE_CURVE('',#141,#110,#143,.T.);
#141 = VERTEX_POINT('',#142);
#142 = CARTESIAN_POINT('',(19.510429280743,-73.20028368372,
    26.844927201493));
#143 = B_SPLINE_CURVE_WITH_KNOTS('',7,(#144,#145,#146,#147,#148,#149,
    #150,#151,#152,#153,#154,#155,#156,#157,#158,#159,#160,#161,#162,
    #163),.UNSPECIFIED.,.F.,.F.,(8,6,6,8),(0.,0.160917524377,
    0.576903652557,1.),.UNSPECIFIED.);
#144 = CARTESIAN_POINT('',(19.510429280743,-73.20028368372,
    26.844927201493));
#145 = CARTESIAN_POINT('',(17.92916479117,-73.62174583449,25.84203639702
    ));
#146 = CARTESIAN_POINT('',(16.345550517742,-74.00115205439,
    24.82984389079));
#147 = CARTESIAN_POINT('',(14.760481868498,-74.33906674123,
    23.809064549833));
#148 = CARTESIAN_POINT('',(13.174805509342,-74.63602893539,
    22.780375308951));
#149 = CARTESIAN_POINT('',(11.589319427793,-74.8925513807,
    21.744415042394));
#150 = CARTESIAN_POINT('',(10.004772996723,-75.10911958543,
    20.701784435526));
#151 = CARTESIAN_POINT('',(4.32991419736,-75.74393595358,16.941963252857
    ));
#152 = CARTESIAN_POINT('',(0.249454076277,-75.93767566284,
    14.190413988248));
#153 = CARTESIAN_POINT('',(-3.808101662477,-75.87549445515,
    11.407671929215));
#154 = CARTESIAN_POINT('',(-7.831835247495,-75.56370654019,
    8.602349632887));
#155 = CARTESIAN_POINT('',(-11.81140262706,-75.00752728263,
    5.782466695938));
#156 = CARTESIAN_POINT('',(-15.73701669773,-74.21099968915,
    2.955447755928));
#157 = CARTESIAN_POINT('',(-23.5277077154,-72.12436724586,
    -2.747573406956));
#158 = CARTESIAN_POINT('',(-27.38968754021,-70.82630391819,
    -5.622916758576));
#159 = CARTESIAN_POINT('',(-31.1755573704,-69.28505273597,
    -8.490782483459));
#160 = CARTESIAN_POINT('',(-34.87425880639,-67.50205418108,
    -11.34335392774));
#161 = CARTESIAN_POINT('',(-38.4735809177,-65.477970307,-14.17216970662)
  );
#162 = CARTESIAN_POINT('',(-41.96018622016,-63.21276536464,
    -16.96812669153));
#163 = CARTESIAN_POINT('',(-45.3193112214,-60.70501142833,
    -19.72140255819));
#164 = ORIENTED_EDGE('',*,*,#165,.F.);
#165 = EDGE_CURVE('',#24,#141,#166,.T.);
#166 = B_SPLINE_CURVE_WITH_KNOTS('',4,(#167,#168,#169,#170,#171),
  .UNSPECIFIED.,.F.,.F.,(5,5),(0.,1.),.PIECEWISE_BEZIER_KNOTS.);
#167 = CARTESIAN_POINT('',(19.510429280743,-73.20028368372,53.9000006));
#168 = CARTESIAN_POINT('',(19.510429280743,-73.20028368372,26.9500003));
#169 = CARTESIAN_POINT('',(19.510429280743,-73.20028368372,
    4.121147867409E-13));
#170 = CARTESIAN_POINT('',(19.510429280743,-73.20028368372,-26.9500003)
  );
#171 = CARTESIAN_POINT('',(19.510429280743,-73.20028368372,-53.9000006)
  );
#172 = CYLINDRICAL_SURFACE('',#173,75.755781179374);
#173 = AXIS2_PLACEMENT_3D('',#174,#175,#176);
#174 = CARTESIAN_POINT('',(0.,0.,-53.9));
#175 = DIRECTION('',(0.,0.,1.));
#176 = DIRECTION('',(1.,0.,0.));
#177 = ADVANCED_FACE('',(#178),#200,.T.);
#178 = FACE_BOUND('',#179,.T.);
#179 = EDGE_LOOP('',(#180,#187,#188,#195));
#180 = ORIENTED_EDGE('',*,*,#181,.T.);
#181 = EDGE_CURVE('',#182,#22,#184,.T.);
#182 = VERTEX_POINT('',#183);
#183 = CARTESIAN_POINT('',(-1.942622300883,0.416996458679,53.9));
#184 = B_SPLINE_CURVE_WITH_KNOTS('',1,(#185,#186),.UNSPECIFIED.,.F.,.F.,
  (2,2),(0.,1.),.PIECEWISE_BEZIER_KNOTS.);
#185 = CARTESIAN_POINT('',(19.510429280743,-5.331331387801,53.9));
#186 = CARTESIAN_POINT('',(-75.75578117937,20.195172770961,53.9));
#187 = ORIENTED_EDGE('',*,*,#21,.T.);
#188 = ORIENTED_EDGE('',*,*,#189,.T.);
#189 = EDGE_CURVE('',#24,#190,#192,.T.);
#190 = VERTEX_POINT('',#191);
#191 = CARTESIAN_POINT('',(0.416996458679,-1.942622300883,53.9));
#192 = B_SPLINE_CURVE_WITH_KNOTS('',1,(#193,#194),.UNSPECIFIED.,.F.,.F.,
  (2,2),(0.,1.),.PIECEWISE_BEZIER_KNOTS.);
#193 = CARTESIAN_POINT('',(20.195172770961,-75.75578117937,53.9));
#194 = CARTESIAN_POINT('',(-20.40222800704,75.755781179374,53.9));
#195 = ORIENTED_EDGE('',*,*,#196,.T.);
#196 = EDGE_CURVE('',#190,#182,#197,.T.);
#197 = B_SPLINE_CURVE_WITH_KNOTS('',1,(#198,#199),.UNSPECIFIED.,.F.,.F.,
  (2,2),(0.,1.),.PIECEWISE_BEZIER_KNOTS.);
#198 = CARTESIAN_POINT('',(0.558417814917,-2.084043657121,53.9));
#199 = CARTESIAN_POINT('',(-2.084043657121,0.558417814917,53.9));
#200 = PLANE('',#201);
#201 = AXIS2_PLACEMENT_3D('',#202,#203,#204);
#202 = CARTESIAN_POINT('',(0.,0.,53.9));
#203 = DIRECTION('',(0.,0.,1.));
#204 = DIRECTION('',(1.,0.,0.));
#205 = ADVANCED_FACE('',(#206),#222,.F.);
#206 = FACE_BOUND('',#207,.F.);
#207 = EDGE_LOOP('',(#208,#209,#210,#217));
#208 = ORIENTED_EDGE('',*,*,#165,.F.);
#209 = ORIENTED_EDGE('',*,*,#189,.T.);
#210 = ORIENTED_EDGE('',*,*,#211,.F.);
#211 = EDGE_CURVE('',#212,#190,#214,.T.);
#212 = VERTEX_POINT('',#213);
#213 = CARTESIAN_POINT('',(13.383370029695,-50.33378725783,
    18.475208614068));
#214 = B_SPLINE_CURVE_WITH_KNOTS('',1,(#215,#216),.UNSPECIFIED.,.F.,.F.,
  (2,2),(0.,1.),.PIECEWISE_BEZIER_KNOTS.);
#215 = CARTESIAN_POINT('',(13.413255878767,-50.44532276499,
    18.393558955975));
#216 = CARTESIAN_POINT('',(-0.111535507165,2.988584907226E-02,
    55.343976184111));
#217 = ORIENTED_EDGE('',*,*,#218,.T.);
#218 = EDGE_CURVE('',#212,#141,#219,.T.);
#219 = B_SPLINE_CURVE_WITH_KNOTS('',1,(#220,#221),.UNSPECIFIED.,.F.,.F.,
  (2,2),(0.,1.),.PIECEWISE_BEZIER_KNOTS.);
#220 = CARTESIAN_POINT('',(-3.653723427058,13.249511136069,
    -4.797893854505));
#221 = CARTESIAN_POINT('',(25.66125192408,-96.155466297,35.247107186464)
  );
#222 = B_SPLINE_SURFACE_WITH_KNOTS('',1,1,(
    (#223,#224)
    ,(#225,#226
    )),.UNSPECIFIED.,.F.,.F.,.F.,(2,2),(2,2),(0.,500.),(0.,500.),
  .PIECEWISE_BEZIER_KNOTS.);
#223 = CARTESIAN_POINT('',(45.656582890426,-170.7790573775,
    -306.1862178478));
#224 = CARTESIAN_POINT('',(-79.34341710957,295.72729356854,
    -176.7766952966));
#225 = CARTESIAN_POINT('',(79.150231944316,-295.7790573775,
    176.77669529663));
#226 = CARTESIAN_POINT('',(-45.84976805568,170.72729356854,
    306.18621784789));
#227 = ADVANCED_FACE('',(#228),#245,.F.);
#228 = FACE_BOUND('',#229,.F.);
#229 = EDGE_LOOP('',(#230,#231,#232,#233,#240));
#230 = ORIENTED_EDGE('',*,*,#109,.F.);
#231 = ORIENTED_EDGE('',*,*,#140,.F.);
#232 = ORIENTED_EDGE('',*,*,#218,.F.);
#233 = ORIENTED_EDGE('',*,*,#234,.F.);
#234 = EDGE_CURVE('',#235,#212,#237,.T.);
#235 = VERTEX_POINT('',#236);
#236 = CARTESIAN_POINT('',(-36.86876757004,-36.86876757004,
    -18.31190929788));
#237 = B_SPLINE_CURVE_WITH_KNOTS('',1,(#238,#239),.UNSPECIFIED.,.F.,.F.,
  (2,2),(0.,1.),.PIECEWISE_BEZIER_KNOTS.);
#238 = CARTESIAN_POINT('',(-36.86876851645,-36.86876731645,
    -18.3119099907));
#239 = CARTESIAN_POINT('',(13.3833705029,-50.33378738462,18.475208960478
    ));
#240 = ORIENTED_EDGE('',*,*,#241,.F.);
#241 = EDGE_CURVE('',#43,#235,#242,.T.);
#242 = B_SPLINE_CURVE_WITH_KNOTS('',1,(#243,#244),.UNSPECIFIED.,.F.,.F.,
  (2,2),(0.,1.),.PIECEWISE_BEZIER_KNOTS.);
#243 = CARTESIAN_POINT('',(-79.77335349206,-79.77335349206,
    -39.76420225889));
#244 = CARTESIAN_POINT('',(24.026292869254,24.026292869254,
    12.135620921766));
#245 = B_SPLINE_SURFACE_WITH_KNOTS('',1,1,(
    (#246,#247)
    ,(#248,#249
    )),.UNSPECIFIED.,.F.,.F.,.F.,(2,2),(2,2),(0.,500.),(0.,500.),
  .PIECEWISE_BEZIER_KNOTS.);
#246 = CARTESIAN_POINT('',(-218.7219762368,-258.3809212081,
    -101.9804229578));
#247 = CARTESIAN_POINT('',(-195.7840488527,235.47287967322,
    -176.6950456385));
#248 = CARTESIAN_POINT('',(195.67251334563,-235.4429938241,
    176.85834495473));
#249 = CARTESIAN_POINT('',(218.61044072966,258.41080705725,
    102.14372227405));
#250 = ADVANCED_FACE('',(#251),#267,.F.);
#251 = FACE_BOUND('',#252,.F.);
#252 = EDGE_LOOP('',(#253,#254,#255,#262));
#253 = ORIENTED_EDGE('',*,*,#42,.F.);
#254 = ORIENTED_EDGE('',*,*,#241,.T.);
#255 = ORIENTED_EDGE('',*,*,#256,.F.);
#256 = EDGE_CURVE('',#257,#235,#259,.T.);
#257 = VERTEX_POINT('',#258);
#258 = CARTESIAN_POINT('',(-50.33378725783,13.383370029695,
    18.475208614068));
#259 = B_SPLINE_CURVE_WITH_KNOTS('',1,(#260,#261),.UNSPECIFIED.,.F.,.F.,
  (2,2),(0.,1.),.PIECEWISE_BEZIER_KNOTS.);
#260 = CARTESIAN_POINT('',(-50.3636731069,13.49490553686,18.556858272161
    ));
#261 = CARTESIAN_POINT('',(-36.83888172097,-36.9803030772,
    -18.39355895597));
#262 = ORIENTED_EDGE('',*,*,#263,.T.);
#263 = EDGE_CURVE('',#257,#33,#264,.T.);
#264 = B_SPLINE_CURVE_WITH_KNOTS('',1,(#265,#266),.UNSPECIFIED.,.F.,.F.,
  (2,2),(0.,1.),.PIECEWISE_BEZIER_KNOTS.);
#265 = CARTESIAN_POINT('',(23.212266905901,-6.323235789973,
    -8.444515557964));
#266 = CARTESIAN_POINT('',(-74.86448062509,19.956349507228,
    27.454065558932));
#267 = B_SPLINE_SURFACE_WITH_KNOTS('',1,1,(
    (#268,#269)
    ,(#270,#271
    )),.UNSPECIFIED.,.F.,.F.,.F.,(2,2),(2,2),(0.,500.),(0.,500.),
  .PIECEWISE_BEZIER_KNOTS.);
#268 = CARTESIAN_POINT('',(-258.3809212081,-218.7219762368,
    -101.9804229578));
#269 = CARTESIAN_POINT('',(-235.4429938241,195.67251334563,
    176.85834495473));
#270 = CARTESIAN_POINT('',(235.47287967322,-195.7840488527,
    -176.6950456385));
#271 = CARTESIAN_POINT('',(258.41080705725,218.61044072966,
    102.14372227405));
#272 = ADVANCED_FACE('',(#273),#283,.F.);
#273 = FACE_BOUND('',#274,.F.);
#274 = EDGE_LOOP('',(#275,#276,#277,#282));
#275 = ORIENTED_EDGE('',*,*,#32,.F.);
#276 = ORIENTED_EDGE('',*,*,#263,.F.);
#277 = ORIENTED_EDGE('',*,*,#278,.F.);
#278 = EDGE_CURVE('',#182,#257,#279,.T.);
#279 = B_SPLINE_CURVE_WITH_KNOTS('',1,(#280,#281),.UNSPECIFIED.,.F.,.F.,
  (2,2),(0.,1.),.PIECEWISE_BEZIER_KNOTS.);
#280 = CARTESIAN_POINT('',(-8.16491848877E-02,-8.164978488773E-02,
    55.262326872429));
#281 = CARTESIAN_POINT('',(-50.33378773103,13.38337015649,
    18.475208267658));
#282 = ORIENTED_EDGE('',*,*,#181,.T.);
#283 = B_SPLINE_SURFACE_WITH_KNOTS('',1,1,(
    (#284,#285)
    ,(#286,#287
    )),.UNSPECIFIED.,.F.,.F.,.F.,(2,2),(2,2),(0.,500.),(0.,500.),
  .PIECEWISE_BEZIER_KNOTS.);
#284 = CARTESIAN_POINT('',(-170.7790573775,45.656582890426,
    -306.1862178478));
#285 = CARTESIAN_POINT('',(-295.7790573775,79.150231944316,
    176.77669529663));
#286 = CARTESIAN_POINT('',(295.72729356854,-79.34341710957,
    -176.7766952966));
#287 = CARTESIAN_POINT('',(170.72729356854,-45.84976805568,
    306.18621784789));
#288 = ADVANCED_FACE('',(#289),#296,.F.);
#289 = FACE_BOUND('',#290,.F.);
#290 = EDGE_LOOP('',(#291,#292,#293,#294,#295));
#291 = ORIENTED_EDGE('',*,*,#196,.T.);
#292 = ORIENTED_EDGE('',*,*,#278,.T.);
#293 = ORIENTED_EDGE('',*,*,#256,.T.);
#294 = ORIENTED_EDGE('',*,*,#234,.T.);
#295 = ORIENTED_EDGE('',*,*,#211,.T.);
#296 = B_SPLINE_SURFACE_WITH_KNOTS('',1,1,(
    (#297,#298)
    ,(#299,#300
    )),.UNSPECIFIED.,.F.,.F.,.F.,(2,2),(2,2),(0.,64.),(0.,64.),
  .PIECEWISE_BEZIER_KNOTS.);
#297 = CARTESIAN_POINT('',(-36.95041722813,-36.95041722813,
    -18.47520861406));
#298 = CARTESIAN_POINT('',(-50.47520861406,13.524791385932,
    18.475208614068));
#299 = CARTESIAN_POINT('',(13.524791385932,-50.47520861406,
    18.475208614068));
#300 = CARTESIAN_POINT('',(0.,0.,55.425625842204));
#301 = ( GEOMETRIC_REPRESENTATION_CONTEXT(3) 
GLOBAL_UNCERTAINTY_ASSIGNED_CONTEXT((#305)) GLOBAL_UNIT_ASSIGNED_CONTEXT
((#302,#303,#304)) REPRESENTATION_CONTEXT('Context #1',
  '3D Context with UNIT and UNCERTAINTY') );
#302 = ( LENGTH_UNIT() NAMED_UNIT(*) SI_UNIT(.MILLI.,.METRE.) );
#303 = ( NAMED_UNIT(*) PLANE_ANGLE_UNIT() SI_UNIT($,.RADIAN.) );
#304 = ( NAMED_UNIT(*) SI_UNIT($,.STERADIAN.) SOLID_ANGLE_UNIT() );
#305 = UNCERTAINTY_MEASURE_WITH_UNIT(LENGTH_MEASURE(5.E-06),#302,
  'distance_accuracy_value','confusion accuracy');
#306 = PRODUCT_RELATED_PRODUCT_CATEGORY('part',$,(#7));
ENDSEC;
END-ISO-10303-21;
