ISO-10303-21;
HEADER;
FILE_DESCRIPTION(('FreeCAD Model'),'2;1');
FILE_NAME('Open CASCADE Shape Model','2026-07-28T22:26:06',('FreeCAD'),(
    'FreeCAD'),'Open CASCADE STEP processor 7.8','FreeCAD','Unknown');
FILE_SCHEMA(('AUTOMOTIVE_DESIGN { 1 0 10303 214 1 1 1 1 }'));
ENDSEC;
DATA;
#1 = APPLICATION_PROTOCOL_DEFINITION('international standard',
  'automotive_design',2000,#2);
#2 = APPLICATION_CONTEXT(
  'core data for automotive mechanical design processes');
#3 = SHAPE_DEFINITION_REPRESENTATION(#4,#10);
#4 = PRODUCT_DEFINITION_SHAPE('','',#5);
#5 = PRODUCT_DEFINITION('design','',#6,#9);
#6 = PRODUCT_DEFINITION_FORMATION('','',#7);
#7 = PRODUCT('Open CASCADE STEP translator 7.8 11',
  'Open CASCADE STEP translator 7.8 11','',(#8));
#8 = PRODUCT_CONTEXT('',#2,'mechanical');
#9 = PRODUCT_DEFINITION_CONTEXT('part definition',#2,'design');
#10 = ADVANCED_BREP_SHAPE_REPRESENTATION('',(#11,#15),#287);
#11 = AXIS2_PLACEMENT_3D('',#12,#13,#14);
#12 = CARTESIAN_POINT('',(0.,0.,0.));
#13 = DIRECTION('',(0.,0.,1.));
#14 = DIRECTION('',(1.,0.,-0.));
#15 = MANIFOLD_SOLID_BREP('',#16);
#16 = CLOSED_SHELL('',(#17,#107,#138,#177,#233,#250,#272));
#17 = ADVANCED_FACE('',(#18),#102,.F.);
#18 = FACE_BOUND('',#19,.F.);
#19 = EDGE_LOOP('',(#20,#83,#90,#97));
#20 = ORIENTED_EDGE('',*,*,#21,.F.);
#21 = EDGE_CURVE('',#22,#24,#26,.T.);
#22 = VERTEX_POINT('',#23);
#23 = CARTESIAN_POINT('',(73.174465564394,-19.60703895455,
    -26.66123881777));
#24 = VERTEX_POINT('',#25);
#25 = CARTESIAN_POINT('',(19.703614445484,-73.14851987278,
    26.844927200787));
#26 = B_SPLINE_CURVE_WITH_KNOTS('',7,(#27,#28,#29,#30,#31,#32,#33,#34,
    #35,#36,#37,#38,#39,#40,#41,#42,#43,#44,#45,#46,#47,#48,#49,#50,#51,
    #52,#53,#54,#55,#56,#57,#58,#59,#60,#61,#62,#63,#64,#65,#66,#67,#68,
    #69,#70,#71,#72,#73,#74,#75,#76,#77,#78,#79,#80,#81,#82),
  .UNSPECIFIED.,.F.,.F.,(8,6,6,6,6,6,6,6,6,8),(0.,9.559321078852E-02,
    0.165359759493,0.350891581277,0.515236405173,0.578703926596,
    0.664097899802,0.7733756899,0.861345574706,1.),.UNSPECIFIED.);
#27 = CARTESIAN_POINT('',(75.755781179374,-1.42108547152E-14,
    -37.75541610254));
#28 = CARTESIAN_POINT('',(75.755781179374,-2.495775947544,
    -36.50752812877));
#29 = CARTESIAN_POINT('',(75.659853918074,-4.965311097256,
    -35.22479692326));
#30 = CARTESIAN_POINT('',(75.471630110822,-7.405637772035,
    -33.91052168225));
#31 = CARTESIAN_POINT('',(75.194603083979,-9.81417017651,-32.56774196659
    ));
#32 = CARTESIAN_POINT('',(74.832104674428,-12.18869485629,
    -31.19923042193));
#33 = CARTESIAN_POINT('',(74.387264384688,-14.52735497625,
    -29.80748021707));
#34 = CARTESIAN_POINT('',(73.480294075402,-18.508160932,-27.36359208455)
  );
#35 = CARTESIAN_POINT('',(73.055315199631,-20.16773847956,
    -26.32131387289));
#36 = CARTESIAN_POINT('',(72.589139135569,-21.80674624763,
    -25.26872195682));
#37 = CARTESIAN_POINT('',(72.082834061266,-23.42461287367,
    -24.20663610665));
#38 = CARTESIAN_POINT('',(71.537410872495,-25.02080952983,
    -23.13582618419));
#39 = CARTESIAN_POINT('',(70.953821691672,-26.59484900727,
    -22.05701185505));
#40 = CARTESIAN_POINT('',(68.6818819794,-32.27205444844,-18.08243927834)
  );
#41 = CARTESIAN_POINT('',(66.767491251853,-36.23724818996,-15.1426470438
    ));
#42 = CARTESIAN_POINT('',(64.606319186238,-40.034516892,-12.16342665997)
  );
#43 = CARTESIAN_POINT('',(62.212374557015,-43.65595648095,
    -9.155734550894));
#44 = CARTESIAN_POINT('',(59.598002668542,-47.09373009895,
    -6.129661797653));
#45 = CARTESIAN_POINT('',(56.77377380043,-50.33997341467,-3.094425705736
    ));
#46 = CARTESIAN_POINT('',(51.06762277,-56.08477526822,2.631050736253));
#47 = CARTESIAN_POINT('',(48.229733598211,-58.62576368307,5.320489529568
    ));
#48 = CARTESIAN_POINT('',(45.240244547986,-61.0034533491,8.004078887704)
  );
#49 = CARTESIAN_POINT('',(42.104772010876,-63.21071231707,
    10.675444640234));
#50 = CARTESIAN_POINT('',(38.828801840128,-65.23937184101,
    13.327759487587));
#51 = CARTESIAN_POINT('',(35.417722441158,-67.08026061802,15.95374357557
    ));
#52 = CARTESIAN_POINT('',(30.508971262676,-69.35714556078,
    19.546561636194));
#53 = CARTESIAN_POINT('',(29.122063631386,-69.96187136461,
    20.542378353751));
#54 = CARTESIAN_POINT('',(27.716122585323,-70.53637525399,
    21.532600821476));
#55 = CARTESIAN_POINT('',(26.291484935679,-71.08000149162,
    22.516732765111));
#56 = CARTESIAN_POINT('',(24.848506950096,-71.59205654453,
    23.494249284359));
#57 = CARTESIAN_POINT('',(23.387564640003,-72.07180947823,
    24.464596906253));
#58 = CARTESIAN_POINT('',(19.919754780333,-73.11949305769,
    26.722343625821));
#59 = CARTESIAN_POINT('',(17.898689030172,-73.66061532956,
    28.003437636834));
#60 = CARTESIAN_POINT('',(15.846794183353,-74.14000042033,
    29.269077605628));
#61 = CARTESIAN_POINT('',(13.765158644676,-74.55563224388,
    30.517711286742));
#62 = CARTESIAN_POINT('',(11.655031834651,-74.90535945428,
    31.747638296955));
#63 = CARTESIAN_POINT('',(9.517829759993,-75.18690745015,32.957013332222
    ));
#64 = CARTESIAN_POINT('',(4.58755937649,-75.66786009524,35.662624846515)
  );
#65 = CARTESIAN_POINT('',(1.778425692986,-75.82224755049,37.144385415894
    ));
#66 = CARTESIAN_POINT('',(-1.069057635241,-75.85605971762,38.58503316357
    ));
#67 = CARTESIAN_POINT('',(-3.950728283288,-75.7639147251,39.979795991334
    ));
#68 = CARTESIAN_POINT('',(-6.861418760638,-75.54023148668,
    41.323299610802));
#69 = CARTESIAN_POINT('',(-9.794906052853,-75.17943732952,
    42.609646178327));
#70 = CARTESIAN_POINT('',(-15.11780384222,-74.27105842822,
    44.816905622364));
#71 = CARTESIAN_POINT('',(-17.50162949065,-73.77363796647,
    45.760108215704));
#72 = CARTESIAN_POINT('',(-19.89136182137,-73.18117573814,
    46.658743266898));
#73 = CARTESIAN_POINT('',(-22.28231124327,-72.49110875846,
    47.509184488011));
#74 = CARTESIAN_POINT('',(-24.66907655106,-71.70121276444,
    48.307619144895));
#75 = CARTESIAN_POINT('',(-27.04555056123,-70.80982076897,
    49.050160152245));
#76 = CARTESIAN_POINT('',(-33.12368324473,-68.24985178253,
    50.809242000774));
#77 = CARTESIAN_POINT('',(-36.80250199666,-66.428331286,51.737891128471)
  );
#78 = CARTESIAN_POINT('',(-40.41068496085,-64.34936308404,
    52.502498509598));
#79 = CARTESIAN_POINT('',(-43.91633699399,-62.01631758424,
    53.088801776251));
#80 = CARTESIAN_POINT('',(-47.28700910432,-59.43926859294,
    53.485613335777));
#81 = CARTESIAN_POINT('',(-50.49042797604,-56.63640564665,
    53.685891298486));
#82 = CARTESIAN_POINT('',(-53.49666923772,-53.63809059396,
    53.689854402986));
#83 = ORIENTED_EDGE('',*,*,#84,.T.);
#84 = EDGE_CURVE('',#22,#85,#87,.T.);
#85 = VERTEX_POINT('',#86);
#86 = CARTESIAN_POINT('',(50.363673106903,-13.49490553686,
    -18.31190929788));
#87 = B_SPLINE_CURVE_WITH_KNOTS('',1,(#88,#89),.UNSPECIFIED.,.F.,.F.,(2,
    2),(0.,1.),.PIECEWISE_BEZIER_KNOTS.);
#88 = CARTESIAN_POINT('',(78.381912460218,-21.00237014492,-28.5672966705
    ));
#89 = CARTESIAN_POINT('',(8.733438688407,-2.340117843705,-3.074185935212
    ));
#90 = ORIENTED_EDGE('',*,*,#91,.F.);
#91 = EDGE_CURVE('',#92,#85,#94,.T.);
#92 = VERTEX_POINT('',#93);
#93 = CARTESIAN_POINT('',(13.576555194952,-50.28202344881,
    18.475208614068));
#94 = B_SPLINE_CURVE_WITH_KNOTS('',1,(#95,#96),.UNSPECIFIED.,.F.,.F.,(2,
    2),(0.,1.),.PIECEWISE_BEZIER_KNOTS.);
#95 = CARTESIAN_POINT('',(13.49490553686,-50.3636731069,18.556858272161)
  );
#96 = CARTESIAN_POINT('',(50.445322764996,-13.41325587876,
    -18.39355895597));
#97 = ORIENTED_EDGE('',*,*,#98,.T.);
#98 = EDGE_CURVE('',#92,#24,#99,.T.);
#99 = B_SPLINE_CURVE_WITH_KNOTS('',1,(#100,#101),.UNSPECIFIED.,.F.,.F.,(
    2,2),(0.,1.),.PIECEWISE_BEZIER_KNOTS.);
#100 = CARTESIAN_POINT('',(-16.11907426468,60.543574457292,
    -22.08977560916));
#101 = CARTESIAN_POINT('',(21.101379009255,-78.36504824179,
    28.754309103408));
#102 = B_SPLINE_SURFACE_WITH_KNOTS('',1,1,(
    (#103,#104)
    ,(#105,#106
    )),.UNSPECIFIED.,.F.,.F.,.F.,(2,2),(2,2),(0.,500.),(0.,500.),
  .PIECEWISE_BEZIER_KNOTS.);
#103 = CARTESIAN_POINT('',(-204.0833204028,-204.0833204028,
    204.20579489002));
#104 = CARTESIAN_POINT('',(-249.9591751709,250.04082482904,
    8.164965809277E-02));
#105 = CARTESIAN_POINT('',(250.04082482904,-249.9591751709,
    8.164965809277E-02));
#106 = CARTESIAN_POINT('',(204.16497006097,204.16497006097,
    -204.0424955738));
#107 = ADVANCED_FACE('',(#108),#133,.F.);
#108 = FACE_BOUND('',#109,.F.);
#109 = EDGE_LOOP('',(#110,#120,#121,#128));
#110 = ORIENTED_EDGE('',*,*,#111,.F.);
#111 = EDGE_CURVE('',#24,#112,#114,.T.);
#112 = VERTEX_POINT('',#113);
#113 = CARTESIAN_POINT('',(19.703614446001,-73.1485198747,53.9));
#114 = B_SPLINE_CURVE_WITH_KNOTS('',4,(#115,#116,#117,#118,#119),
  .UNSPECIFIED.,.F.,.F.,(5,5),(0.,1.),.PIECEWISE_BEZIER_KNOTS.);
#115 = CARTESIAN_POINT('',(19.703614446001,-73.1485198747,
    -37.75541670254));
#116 = CARTESIAN_POINT('',(19.703614446001,-73.1485198747,
    -14.84156237691));
#117 = CARTESIAN_POINT('',(19.703614446001,-73.1485198747,8.072291948726
    ));
#118 = CARTESIAN_POINT('',(19.703614446001,-73.1485198747,
    30.986146274363));
#119 = CARTESIAN_POINT('',(19.703614446001,-73.1485198747,53.9000006));
#120 = ORIENTED_EDGE('',*,*,#98,.F.);
#121 = ORIENTED_EDGE('',*,*,#122,.F.);
#122 = EDGE_CURVE('',#123,#92,#125,.T.);
#123 = VERTEX_POINT('',#124);
#124 = CARTESIAN_POINT('',(0.610181623937,-1.890858491863,53.9));
#125 = B_SPLINE_CURVE_WITH_KNOTS('',1,(#126,#127),.UNSPECIFIED.,.F.,.F.,
  (2,2),(0.,1.),.PIECEWISE_BEZIER_KNOTS.);
#126 = CARTESIAN_POINT('',(0.11153538037,-2.988537586719E-02,
    55.262326872429));
#127 = CARTESIAN_POINT('',(13.576555321747,-50.28202392201,
    18.475208267658));
#128 = ORIENTED_EDGE('',*,*,#129,.F.);
#129 = EDGE_CURVE('',#112,#123,#130,.T.);
#130 = B_SPLINE_CURVE_WITH_KNOTS('',1,(#131,#132),.UNSPECIFIED.,.F.,.F.,
  (2,2),(0.,1.),.PIECEWISE_BEZIER_KNOTS.);
#131 = CARTESIAN_POINT('',(20.402228007043,-75.75578117937,53.9));
#132 = CARTESIAN_POINT('',(-14.23086170196,53.496669237728,53.9));
#133 = B_SPLINE_SURFACE_WITH_KNOTS('',1,1,(
    (#134,#135)
    ,(#136,#137
    )),.UNSPECIFIED.,.F.,.F.,.F.,(2,2),(2,2),(0.,500.),(0.,500.),
  .PIECEWISE_BEZIER_KNOTS.);
#134 = CARTESIAN_POINT('',(45.849768055684,-170.7272935685,
    306.18621784789));
#135 = CARTESIAN_POINT('',(-79.15023194431,295.77905737756,
    176.77669529663));
#136 = CARTESIAN_POINT('',(79.343417109574,-295.7272935685,
    -176.7766952966));
#137 = CARTESIAN_POINT('',(-45.65658289042,170.77905737756,
    -306.1862178478));
#138 = ADVANCED_FACE('',(#139),#172,.T.);
#139 = FACE_BOUND('',#140,.T.);
#140 = EDGE_LOOP('',(#141,#142,#151,#160,#167));
#141 = ORIENTED_EDGE('',*,*,#129,.F.);
#142 = ORIENTED_EDGE('',*,*,#143,.T.);
#143 = EDGE_CURVE('',#112,#144,#146,.T.);
#144 = VERTEX_POINT('',#145);
#145 = CARTESIAN_POINT('',(75.755781179374,-1.855481498765E-14,53.9));
#146 = CIRCLE('',#147,75.755781179374);
#147 = AXIS2_PLACEMENT_3D('',#148,#149,#150);
#148 = CARTESIAN_POINT('',(0.,0.,53.9));
#149 = DIRECTION('',(0.,0.,1.));
#150 = DIRECTION('',(1.,0.,0.));
#151 = ORIENTED_EDGE('',*,*,#152,.T.);
#152 = EDGE_CURVE('',#144,#153,#155,.T.);
#153 = VERTEX_POINT('',#154);
#154 = CARTESIAN_POINT('',(53.638090593965,53.496669237728,53.9));
#155 = CIRCLE('',#156,75.755781179374);
#156 = AXIS2_PLACEMENT_3D('',#157,#158,#159);
#157 = CARTESIAN_POINT('',(0.,0.,53.9));
#158 = DIRECTION('',(0.,0.,1.));
#159 = DIRECTION('',(1.,0.,0.));
#160 = ORIENTED_EDGE('',*,*,#161,.T.);
#161 = EDGE_CURVE('',#153,#162,#164,.T.);
#162 = VERTEX_POINT('',#163);
#163 = CARTESIAN_POINT('',(1.473862033184,1.332440676946,53.9));
#164 = B_SPLINE_CURVE_WITH_KNOTS('',1,(#165,#166),.UNSPECIFIED.,.F.,.F.,
  (2,2),(0.,1.),.PIECEWISE_BEZIER_KNOTS.);
#165 = CARTESIAN_POINT('',(75.755781179374,75.614359823137,53.9));
#166 = CARTESIAN_POINT('',(-53.65940450398,-53.80082586022,53.9));
#167 = ORIENTED_EDGE('',*,*,#168,.T.);
#168 = EDGE_CURVE('',#162,#123,#169,.T.);
#169 = B_SPLINE_CURVE_WITH_KNOTS('',1,(#170,#171),.UNSPECIFIED.,.F.,.F.,
  (2,2),(0.,1.),.PIECEWISE_BEZIER_KNOTS.);
#170 = CARTESIAN_POINT('',(1.525625842204,1.525625842204,53.9));
#171 = CARTESIAN_POINT('',(0.558417814917,-2.084043657121,53.9));
#172 = PLANE('',#173);
#173 = AXIS2_PLACEMENT_3D('',#174,#175,#176);
#174 = CARTESIAN_POINT('',(0.,0.,53.9));
#175 = DIRECTION('',(0.,0.,1.));
#176 = DIRECTION('',(1.,0.,0.));
#177 = ADVANCED_FACE('',(#178),#228,.F.);
#178 = FACE_BOUND('',#179,.F.);
#179 = EDGE_LOOP('',(#180,#194,#215,#222,#227));
#180 = ORIENTED_EDGE('',*,*,#181,.F.);
#181 = EDGE_CURVE('',#182,#22,#184,.T.);
#182 = VERTEX_POINT('',#183);
#183 = CARTESIAN_POINT('',(75.755781179374,-1.855481498765E-14,
    -13.74179571045));
#184 = B_SPLINE_CURVE_WITH_KNOTS('',8,(#185,#186,#187,#188,#189,#190,
    #191,#192,#193),.UNSPECIFIED.,.F.,.F.,(9,9),(0.,1.),
  .PIECEWISE_BEZIER_KNOTS.);
#185 = CARTESIAN_POINT('',(75.755781179374,-1.42108547152E-14,
    -13.74179571045));
#186 = CARTESIAN_POINT('',(75.755781179374,-4.739505301284,
    -16.97893803191));
#187 = CARTESIAN_POINT('',(75.416903467541,-9.514086426771,
    -20.17801866118));
#188 = CARTESIAN_POINT('',(74.730375170337,-14.31099867042,
    -23.32872725486));
#189 = CARTESIAN_POINT('',(73.683923701502,-19.11310031142,
    -26.41710976073));
#190 = CARTESIAN_POINT('',(72.263674240968,-23.89891181897,
    -29.42595611812));
#191 = CARTESIAN_POINT('',(70.454628085738,-28.64256948046,
    -32.33485612963));
#192 = CARTESIAN_POINT('',(68.24148057365,-33.31385098842,-35.1203666278
    ));
#193 = CARTESIAN_POINT('',(65.606430384873,-37.87789162891,
    -37.75541670254));
#194 = ORIENTED_EDGE('',*,*,#195,.F.);
#195 = EDGE_CURVE('',#196,#182,#198,.T.);
#196 = VERTEX_POINT('',#197);
#197 = CARTESIAN_POINT('',(53.638090593965,53.496669237728,
    26.844927201493));
#198 = B_SPLINE_CURVE_WITH_KNOTS('',8,(#199,#200,#201,#202,#203,#204,
    #205,#206,#207,#208,#209,#210,#211,#212,#213,#214),.UNSPECIFIED.,.F.
  ,.F.,(9,7,9),(0.,0.665715833326,1.),.UNSPECIFIED.);
#199 = CARTESIAN_POINT('',(53.638090593163,53.496669238532,
    26.844927202189));
#200 = CARTESIAN_POINT('',(57.279374523173,49.845759376416,
    23.684908182513));
#201 = CARTESIAN_POINT('',(60.576242347002,45.972171870575,
    20.435830025903));
#202 = CARTESIAN_POINT('',(63.532762530009,41.904803304897,
    17.116684885413));
#203 = CARTESIAN_POINT('',(66.149974990289,37.66887394758,
    13.744508206199));
#204 = CARTESIAN_POINT('',(68.428202957456,33.287064093817,
    10.334731763071));
#205 = CARTESIAN_POINT('',(70.366790035701,28.779431722471,
    6.901175538902));
#206 = CARTESIAN_POINT('',(71.9640063058,24.163435848139,3.456080859763)
  );
#207 = CARTESIAN_POINT('',(73.843903066946,17.088160233509,
    -1.720467239954));
#208 = CARTESIAN_POINT('',(74.385011074183,14.699780550463,
    -3.450790538835));
#209 = CARTESIAN_POINT('',(74.838252897432,12.290247496565,
    -5.17948123096));
#210 = CARTESIAN_POINT('',(75.202901117559,9.861662821584,
    -6.904970667599));
#211 = CARTESIAN_POINT('',(75.478078115442,7.416160934014,
    -8.625640405191));
#212 = CARTESIAN_POINT('',(75.662762780758,4.955910554528,
    -10.33982230381));
#213 = CARTESIAN_POINT('',(75.755781179374,2.483113414555,
    -12.04579770807));
#214 = CARTESIAN_POINT('',(75.755781179374,-5.908758483926E-15,
    -13.74179571045));
#215 = ORIENTED_EDGE('',*,*,#216,.F.);
#216 = EDGE_CURVE('',#217,#196,#219,.T.);
#217 = VERTEX_POINT('',#218);
#218 = CARTESIAN_POINT('',(36.898653419115,36.757232062878,
    18.475208614068));
#219 = B_SPLINE_CURVE_WITH_KNOTS('',1,(#220,#221),.UNSPECIFIED.,.F.,.F.,
  (2,2),(0.,1.),.PIECEWISE_BEZIER_KNOTS.);
#220 = CARTESIAN_POINT('',(4.109355435679,3.967934079442,2.08055962235)
  );
#221 = CARTESIAN_POINT('',(67.771870742035,67.630449385798,
    33.911817275528));
#222 = ORIENTED_EDGE('',*,*,#223,.F.);
#223 = EDGE_CURVE('',#85,#217,#224,.T.);
#224 = B_SPLINE_CURVE_WITH_KNOTS('',1,(#225,#226),.UNSPECIFIED.,.F.,.F.,
  (2,2),(0.,1.),.PIECEWISE_BEZIER_KNOTS.);
#225 = CARTESIAN_POINT('',(50.363673360493,-13.49490648327,
    -18.3119099907));
#226 = CARTESIAN_POINT('',(36.898653292321,36.757232536083,
    18.475208960478));
#227 = ORIENTED_EDGE('',*,*,#84,.F.);
#228 = B_SPLINE_SURFACE_WITH_KNOTS('',1,1,(
    (#229,#230)
    ,(#231,#232
    )),.UNSPECIFIED.,.F.,.F.,.F.,(2,2),(2,2),(0.,500.),(0.,500.),
  .PIECEWISE_BEZIER_KNOTS.);
#229 = CARTESIAN_POINT('',(-258.3809212081,-218.7219762368,
    -101.9804229578));
#230 = CARTESIAN_POINT('',(-235.4429938241,195.67251334563,
    176.85834495473));
#231 = CARTESIAN_POINT('',(235.47287967322,-195.7840488527,
    -176.6950456385));
#232 = CARTESIAN_POINT('',(258.41080705725,218.61044072966,
    102.14372227405));
#233 = ADVANCED_FACE('',(#234),#245,.F.);
#234 = FACE_BOUND('',#235,.F.);
#235 = EDGE_LOOP('',(#236,#237,#238,#239,#240));
#236 = ORIENTED_EDGE('',*,*,#168,.T.);
#237 = ORIENTED_EDGE('',*,*,#122,.T.);
#238 = ORIENTED_EDGE('',*,*,#91,.T.);
#239 = ORIENTED_EDGE('',*,*,#223,.T.);
#240 = ORIENTED_EDGE('',*,*,#241,.T.);
#241 = EDGE_CURVE('',#217,#162,#242,.T.);
#242 = B_SPLINE_CURVE_WITH_KNOTS('',1,(#243,#244),.UNSPECIFIED.,.F.,.F.,
  (2,2),(0.,1.),.PIECEWISE_BEZIER_KNOTS.);
#243 = CARTESIAN_POINT('',(36.980303077208,36.838881720971,
    18.393558955975));
#244 = CARTESIAN_POINT('',(2.988584907227E-02,-0.111535507165,
    55.343976184111));
#245 = B_SPLINE_SURFACE_WITH_KNOTS('',1,1,(
    (#246,#247)
    ,(#248,#249
    )),.UNSPECIFIED.,.F.,.F.,.F.,(2,2),(2,2),(0.,64.),(-64.,0.),
  .PIECEWISE_BEZIER_KNOTS.);
#246 = CARTESIAN_POINT('',(36.950417228136,36.950417228136,
    18.475208614068));
#247 = CARTESIAN_POINT('',(50.475208614068,-13.52479138593,
    -18.47520861406));
#248 = CARTESIAN_POINT('',(0.,0.,55.425625842204));
#249 = CARTESIAN_POINT('',(13.524791385932,-50.47520861406,
    18.475208614068));
#250 = ADVANCED_FACE('',(#251),#267,.F.);
#251 = FACE_BOUND('',#252,.F.);
#252 = EDGE_LOOP('',(#253,#254,#265,#266));
#253 = ORIENTED_EDGE('',*,*,#216,.T.);
#254 = ORIENTED_EDGE('',*,*,#255,.T.);
#255 = EDGE_CURVE('',#196,#153,#256,.T.);
#256 = B_SPLINE_CURVE_WITH_KNOTS('',7,(#257,#258,#259,#260,#261,#262,
    #263,#264),.UNSPECIFIED.,.F.,.F.,(8,8),(0.,1.),
  .PIECEWISE_BEZIER_KNOTS.);
#257 = CARTESIAN_POINT('',(53.638090593965,53.496669237728,-53.9000006)
  );
#258 = CARTESIAN_POINT('',(53.638090593965,53.496669237728,
    -44.35058530395));
#259 = CARTESIAN_POINT('',(53.638090593965,53.496669237728,
    -28.61340665079));
#260 = CARTESIAN_POINT('',(53.638090593965,53.496669237728,
    -9.644843117547));
#261 = CARTESIAN_POINT('',(53.638090593965,53.496669237728,
    10.988921988418));
#262 = CARTESIAN_POINT('',(53.638090593965,53.496669237728,
    31.566555806461));
#263 = CARTESIAN_POINT('',(53.638090593965,53.496669237728,
    48.420520502136));
#264 = CARTESIAN_POINT('',(53.638090593965,53.496669237728,53.9000006));
#265 = ORIENTED_EDGE('',*,*,#161,.T.);
#266 = ORIENTED_EDGE('',*,*,#241,.F.);
#267 = B_SPLINE_SURFACE_WITH_KNOTS('',1,1,(
    (#268,#269)
    ,(#270,#271
    )),.UNSPECIFIED.,.F.,.F.,.F.,(2,2),(2,2),(0.,500.),(0.,500.),
  .PIECEWISE_BEZIER_KNOTS.);
#268 = CARTESIAN_POINT('',(-249.9292893218,-250.0707106781,
    -2.84217094304E-14));
#269 = CARTESIAN_POINT('',(7.07106781186E-02,-7.071067811863E-02,
    353.55339059327));
#270 = CARTESIAN_POINT('',(7.071067811876E-02,-7.07106781187E-02,
    -353.5533905932));
#271 = CARTESIAN_POINT('',(250.07071067811,249.92928932188,
    2.84217094304E-14));
#272 = ADVANCED_FACE('',(#273),#282,.T.);
#273 = FACE_BOUND('',#274,.T.);
#274 = EDGE_LOOP('',(#275,#276,#277,#278,#279,#280,#281));
#275 = ORIENTED_EDGE('',*,*,#195,.F.);
#276 = ORIENTED_EDGE('',*,*,#255,.T.);
#277 = ORIENTED_EDGE('',*,*,#152,.F.);
#278 = ORIENTED_EDGE('',*,*,#143,.F.);
#279 = ORIENTED_EDGE('',*,*,#111,.F.);
#280 = ORIENTED_EDGE('',*,*,#21,.F.);
#281 = ORIENTED_EDGE('',*,*,#181,.F.);
#282 = CYLINDRICAL_SURFACE('',#283,75.755781179374);
#283 = AXIS2_PLACEMENT_3D('',#284,#285,#286);
#284 = CARTESIAN_POINT('',(0.,0.,-53.9));
#285 = DIRECTION('',(0.,0.,1.));
#286 = DIRECTION('',(1.,0.,0.));
#287 = ( GEOMETRIC_REPRESENTATION_CONTEXT(3) 
GLOBAL_UNCERTAINTY_ASSIGNED_CONTEXT((#291)) GLOBAL_UNIT_ASSIGNED_CONTEXT
((#288,#289,#290)) REPRESENTATION_CONTEXT('Context #1',
  '3D Context with UNIT and UNCERTAINTY') );
#288 = ( LENGTH_UNIT() NAMED_UNIT(*) SI_UNIT(.MILLI.,.METRE.) );
#289 = ( NAMED_UNIT(*) PLANE_ANGLE_UNIT() SI_UNIT($,.RADIAN.) );
#290 = ( NAMED_UNIT(*) SI_UNIT($,.STERADIAN.) SOLID_ANGLE_UNIT() );
#291 = UNCERTAINTY_MEASURE_WITH_UNIT(LENGTH_MEASURE(5.E-06),#288,
  'distance_accuracy_value','confusion accuracy');
#292 = PRODUCT_RELATED_PRODUCT_CATEGORY('part',$,(#7));
ENDSEC;
END-ISO-10303-21;
