ISO-10303-21;
HEADER;
FILE_DESCRIPTION(('FreeCAD Model'),'2;1');
FILE_NAME('Open CASCADE Shape Model','2026-07-29T20:08:02',('FreeCAD'),(
    'FreeCAD'),'Open CASCADE STEP processor 7.8','FreeCAD','Unknown');
FILE_SCHEMA(('AUTOMOTIVE_DESIGN { 1 0 10303 214 1 1 1 1 }'));
ENDSEC;
DATA;
#1 = APPLICATION_PROTOCOL_DEFINITION('international standard',
  'automotive_design',2000,#2);
#2 = APPLICATION_CONTEXT(
  'core data for automotive mechanical design processes');
#3 = SHAPE_DEFINITION_REPRESENTATION(#4,#10);
#4 = PRODUCT_DEFINITION_SHAPE('','',#5);
#5 = PRODUCT_DEFINITION('design','',#6,#9);
#6 = PRODUCT_DEFINITION_FORMATION('','',#7);
#7 = PRODUCT('Open CASCADE STEP translator 7.8 11',
  'Open CASCADE STEP translator 7.8 11','',(#8));
#8 = PRODUCT_CONTEXT('',#2,'mechanical');
#9 = PRODUCT_DEFINITION_CONTEXT('part definition',#2,'design');
#10 = ADVANCED_BREP_SHAPE_REPRESENTATION('',(#11,#15),#311);
#11 = AXIS2_PLACEMENT_3D('',#12,#13,#14);
#12 = CARTESIAN_POINT('',(0.,0.,0.));
#13 = DIRECTION('',(0.,0.,1.));
#14 = DIRECTION('',(1.,0.,-0.));
#15 = MANIFOLD_SOLID_BREP('',#16);
#16 = CLOSED_SHELL('',(#17,#188,#209,#238,#260,#282,#299));
#17 = ADVANCED_FACE('',(#18),#183,.T.);
#18 = FACE_BOUND('',#19,.T.);
#19 = EDGE_LOOP('',(#20,#31,#41,#96,#175));
#20 = ORIENTED_EDGE('',*,*,#21,.F.);
#21 = EDGE_CURVE('',#22,#24,#26,.T.);
#22 = VERTEX_POINT('',#23);
#23 = CARTESIAN_POINT('',(44.887704197238,45.137704197238,48.));
#24 = VERTEX_POINT('',#25);
#25 = CARTESIAN_POINT('',(-61.44274425098,16.646546404697,48.));
#26 = CIRCLE('',#27,63.657822208242);
#27 = AXIS2_PLACEMENT_3D('',#28,#29,#30);
#28 = CARTESIAN_POINT('',(0.,0.,48.));
#29 = DIRECTION('',(0.,0.,1.));
#30 = DIRECTION('',(1.,0.,-0.));
#31 = ORIENTED_EDGE('',*,*,#32,.T.);
#32 = EDGE_CURVE('',#22,#33,#35,.T.);
#33 = VERTEX_POINT('',#34);
#34 = CARTESIAN_POINT('',(44.887704197238,45.137704197238,
    22.614605274092));
#35 = B_SPLINE_CURVE_WITH_KNOTS('',4,(#36,#37,#38,#39,#40),
  .UNSPECIFIED.,.F.,.F.,(5,5),(0.,1.),.PIECEWISE_BEZIER_KNOTS.);
#36 = CARTESIAN_POINT('',(44.887704197238,45.137704197238,48.0000006));
#37 = CARTESIAN_POINT('',(44.887704197238,45.137704197238,24.0000003));
#38 = CARTESIAN_POINT('',(44.887704197238,45.137704197238,
    1.136868377216E-13));
#39 = CARTESIAN_POINT('',(44.887704197238,45.137704197238,-24.0000003));
#40 = CARTESIAN_POINT('',(44.887704197238,45.137704197238,-48.0000006));
#41 = ORIENTED_EDGE('',*,*,#42,.F.);
#42 = EDGE_CURVE('',#43,#33,#45,.T.);
#43 = VERTEX_POINT('',#44);
#44 = CARTESIAN_POINT('',(-16.47585675683,61.48873451472,-22.28993252799
    ));
#45 = B_SPLINE_CURVE_WITH_KNOTS('',7,(#46,#47,#48,#49,#50,#51,#52,#53,
    #54,#55,#56,#57,#58,#59,#60,#61,#62,#63,#64,#65,#66,#67,#68,#69,#70,
    #71,#72,#73,#74,#75,#76,#77,#78,#79,#80,#81,#82,#83,#84,#85,#86,#87,
    #88,#89,#90,#91,#92,#93,#94,#95),.UNSPECIFIED.,.F.,.F.,(8,6,6,6,6,6,
    6,6,8),(0.,0.156626778753,0.25571191605,0.379106232252,
    0.473511445873,0.545646571791,0.728729143738,0.920505149935,1.),
  .UNSPECIFIED.);
#46 = CARTESIAN_POINT('',(-61.44274425185,16.646546401512,
    -44.79619784629));
#47 = CARTESIAN_POINT('',(-60.50892957319,20.093275536503,
    -44.78918577125));
#48 = CARTESIAN_POINT('',(-59.34927811039,23.479854208909,
    -44.61691600539));
#49 = CARTESIAN_POINT('',(-57.97292776462,26.771677948099,
    -44.27929679364));
#50 = CARTESIAN_POINT('',(-56.39582438486,29.941972768996,
    -43.78231937403));
#51 = CARTESIAN_POINT('',(-54.63745485588,32.969795471038,
    -43.13546066467));
#52 = CARTESIAN_POINT('',(-52.71971940243,35.839325695619,
    -42.35078347066));
#53 = CARTESIAN_POINT('',(-49.3667294287,40.247358174712,-40.86737466331
    ));
#54 = CARTESIAN_POINT('',(-48.01247117116,41.888325036783,
    -40.24271685091));
#55 = CARTESIAN_POINT('',(-46.60845934717,43.459984434309,
    -39.57139257432));
#56 = CARTESIAN_POINT('',(-45.15980077061,44.961011514436,
    -38.85664738736));
#57 = CARTESIAN_POINT('',(-43.67132243967,46.390775243435,
    -38.10166270395));
#58 = CARTESIAN_POINT('',(-42.14747709458,47.749183410169,-37.3094629264
    ));
#59 = CARTESIAN_POINT('',(-38.65553109269,50.639802334551,
    -35.45343943228));
#60 = CARTESIAN_POINT('',(-36.67030444092,52.132768901043,
    -34.37073625816));
#61 = CARTESIAN_POINT('',(-34.64417322849,53.516301103855,
    -33.24006687096));
#62 = CARTESIAN_POINT('',(-32.58400144767,54.791851977172,-32.0663853883
    ));
#63 = CARTESIAN_POINT('',(-30.49588837558,55.961320769691,
    -30.85420528058));
#64 = CARTESIAN_POINT('',(-28.38511848341,57.026881436859,
    -29.60753377018));
#65 = CARTESIAN_POINT('',(-24.62727839505,58.728293574131,
    -27.35226129043));
#66 = CARTESIAN_POINT('',(-22.98785291165,59.406248082313,
    -26.35658714777));
#67 = CARTESIAN_POINT('',(-21.33986354469,60.025692643152,-25.3443557003
    ));
#68 = CARTESIAN_POINT('',(-19.68517640218,60.587623722492,
    -24.31702388941));
#69 = CARTESIAN_POINT('',(-18.02549800654,61.09301965561,-23.27593633938
    ));
#70 = CARTESIAN_POINT('',(-16.36237439233,61.542830626656,
    -22.22232290721));
#71 = CARTESIAN_POINT('',(-13.42481958575,62.239879717882,
    -20.34350449935));
#72 = CARTESIAN_POINT('',(-12.15126350217,62.509869383324,
    -19.52306105584));
#73 = CARTESIAN_POINT('',(-10.87714783282,62.748331662569,
    -18.69646549603));
#74 = CARTESIAN_POINT('',(-9.603068110766,62.955649738161,-17.8641947038
    ));
#75 = CARTESIAN_POINT('',(-8.329588673867,63.132187403959,-17.026700708)
  );
#76 = CARTESIAN_POINT('',(-7.057242710407,63.278288629584,
    -16.18441063381));
#77 = CARTESIAN_POINT('',(-2.561405484238,63.688661750399,
    -13.18880019632));
#78 = CARTESIAN_POINT('',(0.652873840904,63.789040290398,-11.01177713764
    ));
#79 = CARTESIAN_POINT('',(3.848508884853,63.700800638768,-8.812968834954
    ));
#80 = CARTESIAN_POINT('',(7.018000418846,63.428217069162,-6.598279603129
    ));
#81 = CARTESIAN_POINT('',(10.154195363144,62.974829064697,
    -4.373242856864));
#82 = CARTESIAN_POINT('',(13.250277713837,62.343403623191,
    -2.143020409141));
#83 = CARTESIAN_POINT('',(19.493948029175,60.689565256437,2.424159150654
    ));
#84 = CARTESIAN_POINT('',(22.636377083527,59.650175807491,4.760699580942
    ));
#85 = CARTESIAN_POINT('',(25.719565610405,58.41959192182,7.091768988951)
  );
#86 = CARTESIAN_POINT('',(28.735146212216,56.998976236785,9.411439558434
    ));
#87 = CARTESIAN_POINT('',(31.673935427308,55.388899872466,
    11.713334346214));
#88 = CARTESIAN_POINT('',(34.525948539651,53.589391758982,
    13.990628369833));
#89 = CARTESIAN_POINT('',(38.421890733369,50.774604827553,
    17.166748135552));
#90 = CARTESIAN_POINT('',(39.546724365972,49.917066766076,
    18.091964151742));
#91 = CARTESIAN_POINT('',(40.653891686286,49.026809297751,
    19.011101919294));
#92 = CARTESIAN_POINT('',(41.742525689654,48.103788068012,
    19.923577380465));
#93 = CARTESIAN_POINT('',(42.811702300313,47.147958762844,
    20.828767489797));
#94 = CARTESIAN_POINT('',(43.860440790111,46.159277996168,
    21.726010337711));
#95 = CARTESIAN_POINT('',(44.887704197238,45.137704197238,
    22.614605274092));
#96 = ORIENTED_EDGE('',*,*,#97,.F.);
#97 = EDGE_CURVE('',#98,#43,#100,.T.);
#98 = VERTEX_POINT('',#99);
#99 = CARTESIAN_POINT('',(-61.44274424944,16.646546404282,
    22.614605273526));
#100 = B_SPLINE_CURVE_WITH_KNOTS('',7,(#101,#102,#103,#104,#105,#106,
    #107,#108,#109,#110,#111,#112,#113,#114,#115,#116,#117,#118,#119,
    #120,#121,#122,#123,#124,#125,#126,#127,#128,#129,#130,#131,#132,
    #133,#134,#135,#136,#137,#138,#139,#140,#141,#142,#143,#144,#145,
    #146,#147,#148,#149,#150,#151,#152,#153,#154,#155,#156,#157,#158,
    #159,#160,#161,#162,#163,#164,#165,#166,#167,#168,#169,#170,#171,
    #172,#173,#174),.UNSPECIFIED.,.F.,.F.,(8,6,6,6,6,6,6,6,6,6,6,6,8),(
    0.,0.107799865685,0.174261583023,0.25955984477,0.324891164534,
    0.373847691043,0.500428076803,0.627421024285,0.676441907491,
    0.741813386656,0.825810511554,0.892160598906,1.),.UNSPECIFIED.);
#101 = CARTESIAN_POINT('',(-45.13770419723,-44.88770419723,
    45.229210548184));
#102 = CARTESIAN_POINT('',(-47.66880216458,-42.3425093964,
    45.222162131439));
#103 = CARTESIAN_POINT('',(-50.03323268399,-39.63003137301,
    45.048138379451));
#104 = CARTESIAN_POINT('',(-52.20509040335,-36.77596321291,
    44.707033159085));
#105 = CARTESIAN_POINT('',(-54.16898903131,-33.80797060215,
    44.204986167679));
#106 = CARTESIAN_POINT('',(-55.91651348954,-30.75380826385,
    43.551667227647));
#107 = CARTESIAN_POINT('',(-57.44499380633,-27.64069437293,
    42.759350440583));
#108 = CARTESIAN_POINT('',(-59.5650685835,-22.55519082167,
    41.276636053539));
#109 = CARTESIAN_POINT('',(-60.29151529718,-20.60231824677,
    40.663423122929));
#110 = CARTESIAN_POINT('',(-60.93652256684,-18.641445542,40.00549040537)
  );
#111 = CARTESIAN_POINT('',(-61.50141508913,-16.67734617592,
    39.305886983474));
#112 = CARTESIAN_POINT('',(-61.98794185516,-14.71425091618,
    38.56760273662));
#113 = CARTESIAN_POINT('',(-62.39811233276,-12.755843853,37.793484443832
    ));
#114 = CARTESIAN_POINT('',(-63.16526504647,-8.301845135216,
    35.950061441791));
#115 = CARTESIAN_POINT('',(-63.47418749235,-5.81153062191,
    34.859365408081));
#116 = CARTESIAN_POINT('',(-63.66547921011,-3.340668963343,
    33.719580437676));
#117 = CARTESIAN_POINT('',(-63.7439658673,-0.894651914795,
    32.535815241993));
#118 = CARTESIAN_POINT('',(-63.71447985938,1.522044117414,
    31.312724221933));
#119 = CARTESIAN_POINT('',(-63.58168046159,3.905813971673,
    30.054439595908));
#120 = CARTESIAN_POINT('',(-63.17234053762,8.052301544217,
    27.776525847648));
#121 = CARTESIAN_POINT('',(-62.93673274435,9.829690857088,
    26.770027294578));
#122 = CARTESIAN_POINT('',(-62.64500802242,11.584759948105,
    25.746630388104));
#123 = CARTESIAN_POINT('',(-62.29901961726,13.316356230951,
    24.707838044105));
#124 = CARTESIAN_POINT('',(-61.90052115957,15.023461444256,
    23.655036208607));
#125 = CARTESIAN_POINT('',(-61.45115708452,16.705187206716,
    22.589491289848));
#126 = CARTESIAN_POINT('',(-60.57873140344,19.601388559006,
    20.705177773163));
#127 = CARTESIAN_POINT('',(-60.17731226736,20.827311242006,
    19.891506863625));
#128 = CARTESIAN_POINT('',(-59.74883019302,22.03820354966,
    19.071819672626));
#129 = CARTESIAN_POINT('',(-59.29389681023,23.233750734013,
    18.246579389058));
#130 = CARTESIAN_POINT('',(-58.81309252198,24.41365462399,
    17.416225299942));
#131 = CARTESIAN_POINT('',(-58.30696617095,25.577633383159,
    16.581172744842));
#132 = CARTESIAN_POINT('',(-56.40327576239,29.693103893932,
    13.57159228518));
#133 = CARTESIAN_POINT('',(-54.86482960997,32.552246679543,
    11.372797816163));
#134 = CARTESIAN_POINT('',(-53.16950042808,35.298687717571,
    9.151912706194));
#135 = CARTESIAN_POINT('',(-51.32493588881,37.927943265122,
    6.915002662799));
#136 = CARTESIAN_POINT('',(-49.33794875666,40.435452557268,
    4.667754450643));
#137 = CARTESIAN_POINT('',(-47.2144884992,42.816550417963,2.415475391567
    ));
#138 = CARTESIAN_POINT('',(-42.6970006901,47.323327176432,
    -2.096656892219));
#139 = CARTESIAN_POINT('',(-40.30253111647,49.447732018746,
    -4.35609410019));
#140 = CARTESIAN_POINT('',(-37.78100433928,51.434562285543,
    -6.610272622188));
#141 = CARTESIAN_POINT('',(-35.13711816714,53.277786416742,
    -8.853827773849));
#142 = CARTESIAN_POINT('',(-32.37547290603,54.970492471116,
    -11.08100343159));
#143 = CARTESIAN_POINT('',(-29.50059995012,56.504918033167,
    -13.28565269057));
#144 = CARTESIAN_POINT('',(-25.36489322087,58.399877860048,
    -16.30098596864));
#145 = CARTESIAN_POINT('',(-24.19687668005,58.902697099316,
    -17.13640385868));
#146 = CARTESIAN_POINT('',(-23.01292984896,59.380056184152,
    -17.96705681665));
#147 = CARTESIAN_POINT('',(-21.81333701156,59.831400914258,
    -18.7925256004));
#148 = CARTESIAN_POINT('',(-20.5983992984,60.256145224443,
    -19.61236661207));
#149 = CARTESIAN_POINT('',(-19.36843494229,60.653671541697,
    -20.42611194875));
#150 = CARTESIAN_POINT('',(-16.46397742988,61.516288292297,
    -22.30964908026));
#151 = CARTESIAN_POINT('',(-14.77808020625,61.959679694773,
    -23.37429339331));
#152 = CARTESIAN_POINT('',(-13.06686193994,62.351976184597,
    -24.42605077138));
#153 = CARTESIAN_POINT('',(-11.33122120066,62.691521231264,
    -25.46364366435));
#154 = CARTESIAN_POINT('',(-9.572189106284,62.976548866727,
    -26.48567352927));
#155 = CARTESIAN_POINT('',(-7.7909338986,63.205193634842,-27.49062351717
    ));
#156 = CARTESIAN_POINT('',(-3.673115267308,63.594313070573,
    -29.74409255068));
#157 = CARTESIAN_POINT('',(-1.323089631095,63.71678905013,
    -30.98034335857));
#158 = CARTESIAN_POINT('',(1.058636133475,63.738787181055,
    -32.18220530631));
#159 = CARTESIAN_POINT('',(3.468590828115,63.655849074136,
    -33.34571360017));
#160 = CARTESIAN_POINT('',(5.902469848735,63.463356319574,-34.4664067332
    ));
#161 = CARTESIAN_POINT('',(8.355093869294,63.156702935673,
    -35.53939205153));
#162 = CARTESIAN_POINT('',(12.767708777556,62.395584003835,
    -37.36514003974));
#163 = CARTESIAN_POINT('',(14.722830797483,61.985727433516,
    -38.13777276455));
#164 = CARTESIAN_POINT('',(16.682610781633,61.499764567055,
    -38.87468132339));
#165 = CARTESIAN_POINT('',(18.643381869583,60.935696848222,
    -39.57303300795));
#166 = CARTESIAN_POINT('',(20.600934116414,60.291784740975,
    -40.22985307774));
#167 = CARTESIAN_POINT('',(22.550518448214,59.566710220648,
    -40.84210798348));
#168 = CARTESIAN_POINT('',(27.633995775657,57.448282405585,
    -42.32463273967));
#169 = CARTESIAN_POINT('',(30.748332569418,55.919646295702,
    -43.11748308161));
#170 = CARTESIAN_POINT('',(33.803713802209,54.171805503787,
    -43.77125330204));
#171 = CARTESIAN_POINT('',(36.772893230446,52.207426478294,
    -44.27365350343));
#172 = CARTESIAN_POINT('',(39.628086235342,50.034928141585,
    -44.61500083751));
#173 = CARTESIAN_POINT('',(42.341596613265,47.669709892173,
    -44.78914690177));
#174 = CARTESIAN_POINT('',(44.887704197238,45.137704197238,
    -44.79619784629));
#175 = ORIENTED_EDGE('',*,*,#176,.F.);
#176 = EDGE_CURVE('',#24,#98,#177,.T.);
#177 = B_SPLINE_CURVE_WITH_KNOTS('',4,(#178,#179,#180,#181,#182),
  .UNSPECIFIED.,.F.,.F.,(5,5),(0.,1.),.PIECEWISE_BEZIER_KNOTS.);
#178 = CARTESIAN_POINT('',(-61.44274425098,16.646546404697,48.0000006));
#179 = CARTESIAN_POINT('',(-61.44274425098,16.646546404697,
    24.800950838427));
#180 = CARTESIAN_POINT('',(-61.44274425098,16.646546404697,
    1.601901076854));
#181 = CARTESIAN_POINT('',(-61.44274425098,16.646546404697,
    -21.59714868471));
#182 = CARTESIAN_POINT('',(-61.44274425098,16.646546404697,
    -44.79619844629));
#183 = CYLINDRICAL_SURFACE('',#184,63.657822208242);
#184 = AXIS2_PLACEMENT_3D('',#185,#186,#187);
#185 = CARTESIAN_POINT('',(0.,0.,-48.));
#186 = DIRECTION('',(0.,0.,1.));
#187 = DIRECTION('',(1.,0.,-0.));
#188 = ADVANCED_FACE('',(#189),#204,.T.);
#189 = FACE_BOUND('',#190,.T.);
#190 = EDGE_LOOP('',(#191,#198,#203));
#191 = ORIENTED_EDGE('',*,*,#192,.F.);
#192 = EDGE_CURVE('',#193,#24,#195,.T.);
#193 = VERTEX_POINT('',#194);
#194 = CARTESIAN_POINT('',(-5.28312163513E-02,0.197168783649,48.));
#195 = B_SPLINE_CURVE_WITH_KNOTS('',1,(#196,#197),.UNSPECIFIED.,.F.,.F.,
  (2,2),(0.,1.),.PIECEWISE_BEZIER_KNOTS.);
#196 = CARTESIAN_POINT('',(44.887704197238,-11.84461138784,48.));
#197 = CARTESIAN_POINT('',(-63.65782220824,17.240074754515,48.));
#198 = ORIENTED_EDGE('',*,*,#199,.T.);
#199 = EDGE_CURVE('',#193,#22,#200,.T.);
#200 = B_SPLINE_CURVE_WITH_KNOTS('',1,(#201,#202),.UNSPECIFIED.,.F.,.F.,
  (2,2),(0.,1.),.PIECEWISE_BEZIER_KNOTS.);
#201 = CARTESIAN_POINT('',(-63.65782220824,-63.40782220824,48.));
#202 = CARTESIAN_POINT('',(63.407822208242,63.657822208242,48.));
#203 = ORIENTED_EDGE('',*,*,#21,.T.);
#204 = PLANE('',#205);
#205 = AXIS2_PLACEMENT_3D('',#206,#207,#208);
#206 = CARTESIAN_POINT('',(0.,0.,48.));
#207 = DIRECTION('',(0.,0.,1.));
#208 = DIRECTION('',(1.,0.,-0.));
#209 = ADVANCED_FACE('',(#210),#233,.F.);
#210 = FACE_BOUND('',#211,.F.);
#211 = EDGE_LOOP('',(#212,#213,#214,#221,#228));
#212 = ORIENTED_EDGE('',*,*,#176,.F.);
#213 = ORIENTED_EDGE('',*,*,#192,.F.);
#214 = ORIENTED_EDGE('',*,*,#215,.F.);
#215 = EDGE_CURVE('',#216,#193,#218,.T.);
#216 = VERTEX_POINT('',#217);
#217 = CARTESIAN_POINT('',(-5.28312163513E-02,0.197168783649,
    44.961152213142));
#218 = B_SPLINE_CURVE_WITH_KNOTS('',1,(#219,#220),.UNSPECIFIED.,.F.,.F.,
  (2,2),(0.,1.),.PIECEWISE_BEZIER_KNOTS.);
#219 = CARTESIAN_POINT('',(-5.28312163513E-02,0.197168783649,
    -18.53042912778));
#220 = CARTESIAN_POINT('',(-5.28312163513E-02,0.197168783649,
    111.55551553073));
#221 = ORIENTED_EDGE('',*,*,#222,.F.);
#222 = EDGE_CURVE('',#223,#216,#225,.T.);
#223 = VERTEX_POINT('',#224);
#224 = CARTESIAN_POINT('',(-40.86676943163,11.133230568367,
    15.083275782579));
#225 = B_SPLINE_CURVE_WITH_KNOTS('',1,(#226,#227),.UNSPECIFIED.,.F.,.F.,
  (2,2),(0.,1.),.PIECEWISE_BEZIER_KNOTS.);
#226 = CARTESIAN_POINT('',(-40.86676990483,11.133230695162,
    15.083275436169));
#227 = CARTESIAN_POINT('',(-5.28307431462E-02,0.197168656854,
    44.961152559552));
#228 = ORIENTED_EDGE('',*,*,#229,.F.);
#229 = EDGE_CURVE('',#98,#223,#230,.T.);
#230 = B_SPLINE_CURVE_WITH_KNOTS('',1,(#231,#232),.UNSPECIFIED.,.F.,.F.,
  (2,2),(0.,1.),.PIECEWISE_BEZIER_KNOTS.);
#231 = CARTESIAN_POINT('',(-65.86255148269,17.830830183134,
    24.232367000727));
#232 = CARTESIAN_POINT('',(50.804238481746,-13.42994197137,
    -18.47064190424));
#233 = B_SPLINE_SURFACE_WITH_KNOTS('',1,1,(
    (#234,#235)
    ,(#236,#237
    )),.UNSPECIFIED.,.F.,.F.,.F.,(2,2),(2,2),(0.,509.26257766593),(0.,
    509.26257766593),.PIECEWISE_BEZIER_KNOTS.);
#234 = CARTESIAN_POINT('',(-173.8706513966,46.771513331092,311.858365094
    ));
#235 = CARTESIAN_POINT('',(-301.1862958131,80.885637436337,
    -180.051511036));
#236 = CARTESIAN_POINT('',(301.27780216405,-80.54413108539,
    180.05151103606));
#237 = CARTESIAN_POINT('',(173.96215774757,-46.43000698014,
    -311.858365094));
#238 = ADVANCED_FACE('',(#239),#255,.F.);
#239 = FACE_BOUND('',#240,.F.);
#240 = EDGE_LOOP('',(#241,#242,#243,#250));
#241 = ORIENTED_EDGE('',*,*,#97,.F.);
#242 = ORIENTED_EDGE('',*,*,#229,.T.);
#243 = ORIENTED_EDGE('',*,*,#244,.F.);
#244 = EDGE_CURVE('',#245,#223,#247,.T.);
#245 = VERTEX_POINT('',#246);
#246 = CARTESIAN_POINT('',(-10.98889300107,41.01110699893,
    -14.79460064798));
#247 = B_SPLINE_CURVE_WITH_KNOTS('',1,(#248,#249),.UNSPECIFIED.,.F.,.F.,
  (2,2),(0.,1.),.PIECEWISE_BEZIER_KNOTS.);
#248 = CARTESIAN_POINT('',(-10.84455543377,41.155444566228,
    -14.93893821528));
#249 = CARTESIAN_POINT('',(-41.01110699893,10.98889300107,
    15.227613349876));
#250 = ORIENTED_EDGE('',*,*,#251,.T.);
#251 = EDGE_CURVE('',#245,#43,#252,.T.);
#252 = B_SPLINE_CURVE_WITH_KNOTS('',1,(#253,#254),.UNSPECIFIED.,.F.,.F.,
  (2,2),(0.,1.),.PIECEWISE_BEZIER_KNOTS.);
#253 = CARTESIAN_POINT('',(-1.929162632159,7.19973295928,-2.418778812614
    ));
#254 = CARTESIAN_POINT('',(-17.64227291648,65.841858885311,
    -23.88328663346));
#255 = B_SPLINE_SURFACE_WITH_KNOTS('',1,1,(
    (#256,#257)
    ,(#258,#259
    )),.UNSPECIFIED.,.F.,.F.,.F.,(2,2),(2,2),(0.,509.26257766593),(0.,
    509.26257766593),.PIECEWISE_BEZIER_KNOTS.);
#256 = CARTESIAN_POINT('',(-207.8334079456,-207.8334079456,
    208.04991429663));
#257 = CARTESIAN_POINT('',(-254.5591200493,254.70345761661,
    0.144337567297));
#258 = CARTESIAN_POINT('',(254.70345761661,-254.5591200493,
    0.144337567297));
#259 = CARTESIAN_POINT('',(207.97774551298,207.97774551298,
    -207.761239162));
#260 = ADVANCED_FACE('',(#261),#277,.F.);
#261 = FACE_BOUND('',#262,.F.);
#262 = EDGE_LOOP('',(#263,#264,#265,#272));
#263 = ORIENTED_EDGE('',*,*,#42,.F.);
#264 = ORIENTED_EDGE('',*,*,#251,.F.);
#265 = ORIENTED_EDGE('',*,*,#266,.F.);
#266 = EDGE_CURVE('',#267,#245,#269,.T.);
#267 = VERTEX_POINT('',#268);
#268 = CARTESIAN_POINT('',(29.825045214212,30.075045214212,
    15.083275782579));
#269 = B_SPLINE_CURVE_WITH_KNOTS('',1,(#270,#271),.UNSPECIFIED.,.F.,.F.,
  (2,2),(0.,1.),.PIECEWISE_BEZIER_KNOTS.);
#270 = CARTESIAN_POINT('',(29.825046160622,30.075044960622,
    15.083276475399));
#271 = CARTESIAN_POINT('',(-10.98889394748,41.01110725252,-14.7946013408
    ));
#272 = ORIENTED_EDGE('',*,*,#273,.F.);
#273 = EDGE_CURVE('',#33,#267,#274,.T.);
#274 = B_SPLINE_CURVE_WITH_KNOTS('',1,(#275,#276),.UNSPECIFIED.,.F.,.F.,
  (2,2),(0.,1.),.PIECEWISE_BEZIER_KNOTS.);
#275 = CARTESIAN_POINT('',(58.149231580298,58.399231580298,
    29.245368965622));
#276 = CARTESIAN_POINT('',(3.211013877313,3.461013877313,1.776260114129)
  );
#277 = B_SPLINE_SURFACE_WITH_KNOTS('',1,1,(
    (#278,#279)
    ,(#280,#281
    )),.UNSPECIFIED.,.F.,.F.,.F.,(2,2),(2,2),(0.,509.26257766593),(0.,
    509.26257766593),.PIECEWISE_BEZIER_KNOTS.);
#278 = CARTESIAN_POINT('',(-222.815618353,-263.1562720447,
    -103.8084507973));
#279 = CARTESIAN_POINT('',(-199.4527623012,239.84624720925,
    -179.9071734687));
#280 = CARTESIAN_POINT('',(199.25559351759,-239.7934159929,
    180.19584860335));
#281 = CARTESIAN_POINT('',(222.6184495694,263.20910326106,
    104.09712593196));
#282 = ADVANCED_FACE('',(#283),#294,.F.);
#283 = FACE_BOUND('',#284,.F.);
#284 = EDGE_LOOP('',(#285,#290,#291,#292,#293));
#285 = ORIENTED_EDGE('',*,*,#286,.F.);
#286 = EDGE_CURVE('',#216,#267,#287,.T.);
#287 = B_SPLINE_CURVE_WITH_KNOTS('',1,(#288,#289),.UNSPECIFIED.,.F.,.F.,
  (2,2),(0.,1.),.PIECEWISE_BEZIER_KNOTS.);
#288 = CARTESIAN_POINT('',(-0.197168783649,5.28312163513E-02,
    45.105489780439));
#289 = CARTESIAN_POINT('',(29.969382781509,30.219382781509,
    14.938938215282));
#290 = ORIENTED_EDGE('',*,*,#215,.T.);
#291 = ORIENTED_EDGE('',*,*,#199,.T.);
#292 = ORIENTED_EDGE('',*,*,#32,.T.);
#293 = ORIENTED_EDGE('',*,*,#273,.T.);
#294 = B_SPLINE_SURFACE_WITH_KNOTS('',1,1,(
    (#295,#296)
    ,(#297,#298
    )),.UNSPECIFIED.,.F.,.F.,.F.,(2,2),(2,2),(0.,509.26257766593),(0.,
    509.26257766593),.PIECEWISE_BEZIER_KNOTS.);
#295 = CARTESIAN_POINT('',(-254.7562888329,-254.5062888329,
    2.84217094304E-14));
#296 = CARTESIAN_POINT('',(-0.125,0.125,-360.1030220721));
#297 = CARTESIAN_POINT('',(-0.125,0.125,360.10302207212));
#298 = CARTESIAN_POINT('',(254.50628883296,254.75628883296,
    -8.526512829121E-14));
#299 = ADVANCED_FACE('',(#300),#306,.F.);
#300 = FACE_BOUND('',#301,.F.);
#301 = EDGE_LOOP('',(#302,#303,#304,#305));
#302 = ORIENTED_EDGE('',*,*,#266,.T.);
#303 = ORIENTED_EDGE('',*,*,#244,.T.);
#304 = ORIENTED_EDGE('',*,*,#222,.T.);
#305 = ORIENTED_EDGE('',*,*,#286,.T.);
#306 = B_SPLINE_SURFACE_WITH_KNOTS('',1,1,(
    (#307,#308)
    ,(#309,#310
    )),.UNSPECIFIED.,.F.,.F.,.F.,(2,2),(2,2),(0.,52.25),(0.,52.25),
  .PIECEWISE_BEZIER_KNOTS.);
#307 = CARTESIAN_POINT('',(-11.04172421742,41.208275782579,
    -15.08327578257));
#308 = CARTESIAN_POINT('',(30.166551565158,30.166551565158,
    15.083275782579));
#309 = CARTESIAN_POINT('',(-41.20827578257,11.041724217421,
    15.083275782579));
#310 = CARTESIAN_POINT('',(4.996003610813E-16,4.996003610813E-16,
    45.249827347737));
#311 = ( GEOMETRIC_REPRESENTATION_CONTEXT(3) 
GLOBAL_UNCERTAINTY_ASSIGNED_CONTEXT((#315)) GLOBAL_UNIT_ASSIGNED_CONTEXT
((#312,#313,#314)) REPRESENTATION_CONTEXT('Context #1',
  '3D Context with UNIT and UNCERTAINTY') );
#312 = ( LENGTH_UNIT() NAMED_UNIT(*) SI_UNIT(.MILLI.,.METRE.) );
#313 = ( NAMED_UNIT(*) PLANE_ANGLE_UNIT() SI_UNIT($,.RADIAN.) );
#314 = ( NAMED_UNIT(*) SI_UNIT($,.STERADIAN.) SOLID_ANGLE_UNIT() );
#315 = UNCERTAINTY_MEASURE_WITH_UNIT(LENGTH_MEASURE(5.E-06),#312,
  'distance_accuracy_value','confusion accuracy');
#316 = PRODUCT_RELATED_PRODUCT_CATEGORY('part',$,(#7));
ENDSEC;
END-ISO-10303-21;
