ISO-10303-21;
HEADER;
FILE_DESCRIPTION(('FreeCAD Model'),'2;1');
FILE_NAME('Open CASCADE Shape Model','2026-07-28T22:26:06',('FreeCAD'),(
    'FreeCAD'),'Open CASCADE STEP processor 7.8','FreeCAD','Unknown');
FILE_SCHEMA(('AUTOMOTIVE_DESIGN { 1 0 10303 214 1 1 1 1 }'));
ENDSEC;
DATA;
#1 = APPLICATION_PROTOCOL_DEFINITION('international standard',
  'automotive_design',2000,#2);
#2 = APPLICATION_CONTEXT(
  'core data for automotive mechanical design processes');
#3 = SHAPE_DEFINITION_REPRESENTATION(#4,#10);
#4 = PRODUCT_DEFINITION_SHAPE('','',#5);
#5 = PRODUCT_DEFINITION('design','',#6,#9);
#6 = PRODUCT_DEFINITION_FORMATION('','',#7);
#7 = PRODUCT('Open CASCADE STEP translator 7.8 14',
  'Open CASCADE STEP translator 7.8 14','',(#8));
#8 = PRODUCT_CONTEXT('',#2,'mechanical');
#9 = PRODUCT_DEFINITION_CONTEXT('part definition',#2,'design');
#10 = ADVANCED_BREP_SHAPE_REPRESENTATION('',(#11,#15),#393);
#11 = AXIS2_PLACEMENT_3D('',#12,#13,#14);
#12 = CARTESIAN_POINT('',(0.,0.,0.));
#13 = DIRECTION('',(0.,0.,1.));
#14 = DIRECTION('',(1.,0.,-0.));
#15 = MANIFOLD_SOLID_BREP('',#16);
#16 = CLOSED_SHELL('',(#17,#269,#297,#320,#342,#364,#380));
#17 = ADVANCED_FACE('',(#18),#264,.T.);
#18 = FACE_BOUND('',#19,.T.);
#19 = EDGE_LOOP('',(#20,#34,#43,#53,#198,#241));
#20 = ORIENTED_EDGE('',*,*,#21,.F.);
#21 = EDGE_CURVE('',#22,#24,#26,.T.);
#22 = VERTEX_POINT('',#23);
#23 = CARTESIAN_POINT('',(-53.49666923772,-53.63809059396,-53.9));
#24 = VERTEX_POINT('',#25);
#25 = CARTESIAN_POINT('',(-53.49666923772,-53.63809059396,
    -26.84492720149));
#26 = B_SPLINE_CURVE_WITH_KNOTS('',6,(#27,#28,#29,#30,#31,#32,#33),
  .UNSPECIFIED.,.F.,.F.,(7,7),(0.,1.),.PIECEWISE_BEZIER_KNOTS.);
#27 = CARTESIAN_POINT('',(-53.49666923772,-53.63809059396,-53.9000006));
#28 = CARTESIAN_POINT('',(-53.49666923772,-53.63809059396,
    -41.62054994623));
#29 = CARTESIAN_POINT('',(-53.49666923772,-53.63809059396,
    -22.70209361585));
#30 = CARTESIAN_POINT('',(-53.49666923772,-53.63809059396,
    -8.144141766522E-02));
#31 = CARTESIAN_POINT('',(-53.49666923772,-53.63809059396,
    24.846583419626));
#32 = CARTESIAN_POINT('',(-53.49666923772,-53.63809059396,
    47.351007218073));
#33 = CARTESIAN_POINT('',(-53.49666923772,-53.63809059396,
    53.447567665414));
#34 = ORIENTED_EDGE('',*,*,#35,.T.);
#35 = EDGE_CURVE('',#22,#36,#38,.T.);
#36 = VERTEX_POINT('',#37);
#37 = CARTESIAN_POINT('',(73.148519874708,-19.703614446,-53.9));
#38 = CIRCLE('',#39,75.755781179374);
#39 = AXIS2_PLACEMENT_3D('',#40,#41,#42);
#40 = CARTESIAN_POINT('',(0.,0.,-53.9));
#41 = DIRECTION('',(0.,0.,1.));
#42 = DIRECTION('',(1.,0.,0.));
#43 = ORIENTED_EDGE('',*,*,#44,.T.);
#44 = EDGE_CURVE('',#36,#45,#47,.T.);
#45 = VERTEX_POINT('',#46);
#46 = CARTESIAN_POINT('',(73.148519902212,-19.70361445337,
    -26.84492721156));
#47 = B_SPLINE_CURVE_WITH_KNOTS('',4,(#48,#49,#50,#51,#52),
  .UNSPECIFIED.,.F.,.F.,(5,5),(0.,1.),.PIECEWISE_BEZIER_KNOTS.);
#48 = CARTESIAN_POINT('',(73.148519874708,-19.703614446,-53.9000006));
#49 = CARTESIAN_POINT('',(73.148519874708,-19.703614446,-33.7596905983)
  );
#50 = CARTESIAN_POINT('',(73.148519874708,-19.703614446,-13.6193805966)
  );
#51 = CARTESIAN_POINT('',(73.148519874708,-19.703614446,6.520929405094)
  );
#52 = CARTESIAN_POINT('',(73.148519874708,-19.703614446,26.661239406792)
  );
#53 = ORIENTED_EDGE('',*,*,#54,.F.);
#54 = EDGE_CURVE('',#55,#45,#57,.T.);
#55 = VERTEX_POINT('',#56);
#56 = CARTESIAN_POINT('',(19.607038945328,-73.17446552994,
    26.661238805169));
#57 = B_SPLINE_CURVE_WITH_KNOTS('',7,(#58,#59,#60,#61,#62,#63,#64,#65,
    #66,#67,#68,#69,#70,#71,#72,#73,#74,#75,#76,#77,#78,#79,#80,#81,#82,
    #83,#84,#85,#86,#87,#88,#89,#90,#91,#92,#93,#94,#95,#96,#97,#98,#99,
    #100,#101,#102,#103,#104,#105,#106,#107,#108,#109,#110,#111,#112,
    #113,#114,#115,#116,#117,#118,#119,#120,#121,#122,#123,#124,#125,
    #126,#127,#128,#129,#130,#131,#132,#133,#134,#135,#136,#137,#138,
    #139,#140,#141,#142,#143,#144,#145,#146,#147,#148,#149,#150,#151,
    #152,#153,#154,#155,#156,#157,#158,#159,#160,#161,#162,#163,#164,
    #165,#166,#167,#168,#169,#170,#171,#172,#173,#174,#175,#176,#177,
    #178,#179,#180,#181,#182,#183,#184,#185,#186,#187,#188,#189,#190,
    #191,#192,#193,#194,#195,#196,#197),.UNSPECIFIED.,.F.,.F.,(8,6,6,6,6
    ,6,6,6,6,6,6,6,6,6,6,6,6,6,6,6,6,6,6,8),(0.,6.06245140796E-02,
    9.898154117876E-02,0.147292030832,0.183304575124,0.210848688392,
    0.281965599026,0.353431821854,0.381043920689,0.418204682335,
    0.465920111006,0.503153610451,0.53603485005,0.564633318046,
    0.60511043072,0.625202334014,0.662498047356,0.710208242361,
    0.747291860519,0.774812812039,0.845832185846,0.928419974637,
    0.958836062386,1.),.UNSPECIFIED.);
#58 = CARTESIAN_POINT('',(53.56742658602,53.56742658602,-53.68990107315)
  );
#59 = CARTESIAN_POINT('',(50.552735397908,56.582117774132,
    -53.68990107315));
#60 = CARTESIAN_POINT('',(47.338757120139,59.400216237525,
    -53.49196116597));
#61 = CARTESIAN_POINT('',(43.955731593093,61.990856726487,
    -53.09576864692));
#62 = CARTESIAN_POINT('',(40.436316904267,64.335558069053,
    -52.50841197379));
#63 = CARTESIAN_POINT('',(36.813365364922,66.424083109005,-51.7411987241
    ));
#64 = CARTESIAN_POINT('',(33.119182394158,68.253006761622,
    -50.80856906502));
#65 = CARTESIAN_POINT('',(27.022185279186,70.818859376826,
    -49.04299681514));
#66 = CARTESIAN_POINT('',(24.642396402543,71.710575049193,-48.298960213)
  );
#67 = CARTESIAN_POINT('',(22.252335929506,72.500530712553,
    -47.49890780816));
#68 = CARTESIAN_POINT('',(19.858131002616,73.190404402807,
    -46.64674218985));
#69 = CARTESIAN_POINT('',(17.465199153522,73.7824330849,-45.74629060635)
  );
#70 = CARTESIAN_POINT('',(15.078242751986,74.279192938764,
    -44.80119233251));
#71 = CARTESIAN_POINT('',(9.707432908657,75.192594633678,-42.5724882583)
  );
#72 = CARTESIAN_POINT('',(6.729656094776,75.554954296943,-41.26477968299
    ));
#73 = CARTESIAN_POINT('',(3.775561702342,75.776127349865,-39.89831901324
    ));
#74 = CARTESIAN_POINT('',(0.8516283345,75.861948961387,-38.47926313508)
  );
#75 = CARTESIAN_POINT('',(-2.03677795645,75.818257056174,-37.013214037)
  );
#76 = CARTESIAN_POINT('',(-4.885349831079,75.650671943918,
    -35.50513554355));
#77 = CARTESIAN_POINT('',(-9.782066565388,75.150971782066,
    -32.80692709547));
#78 = CARTESIAN_POINT('',(-11.84927030546,74.871610085465,
    -31.63364437714));
#79 = CARTESIAN_POINT('',(-13.89097289015,74.528464741182,
    -30.44122041265));
#80 = CARTESIAN_POINT('',(-15.90589782795,74.123595501986,
    -29.23132332415));
#81 = CARTESIAN_POINT('',(-17.8929141805,73.658953167618,-28.00549398069
    ));
#82 = CARTESIAN_POINT('',(-19.85103186512,73.136369467664,-26.7651432884
    ));
#83 = CARTESIAN_POINT('',(-23.25429616926,72.114821146851,
    -24.55273697593));
#84 = CARTESIAN_POINT('',(-24.71177277998,71.639205421185,
    -23.58619080774));
#85 = CARTESIAN_POINT('',(-26.15142949753,71.131453744982,
    -22.61248661086));
#86 = CARTESIAN_POINT('',(-27.57289274499,70.592291843545,
    -21.63217403641));
#87 = CARTESIAN_POINT('',(-28.97580869979,70.02240846183,-20.64577436815
    ));
#88 = CARTESIAN_POINT('',(-30.35984300417,69.422454963594,
    -19.65378046684));
#89 = CARTESIAN_POINT('',(-35.2485922294,67.167953694571,-16.08215521972
    ));
#90 = CARTESIAN_POINT('',(-38.64417657705,65.346657799679,
    -13.47371509845));
#91 = CARTESIAN_POINT('',(-41.90651565209,63.339564507153,
    -10.83899891466));
#92 = CARTESIAN_POINT('',(-45.03031902303,61.15571758098,-8.185173766109
    ));
#93 = CARTESIAN_POINT('',(-48.01021034262,58.803174441648,
    -5.518956536653));
#94 = CARTESIAN_POINT('',(-50.84069512104,56.288972691264,
    -2.846613272248));
#95 = CARTESIAN_POINT('',(-56.20431162171,50.935653232551,2.511854707441
    ));
#96 = CARTESIAN_POINT('',(-58.73542289709,48.095490948352,5.197491487234
    ));
#97 = CARTESIAN_POINT('',(-61.10344398017,45.10432312867,7.877085938605)
  );
#98 = CARTESIAN_POINT('',(-63.3012478945,41.967731725573,10.544283597336
    ));
#99 = CARTESIAN_POINT('',(-65.32067087456,38.691175538653,
    13.192273180814));
#100 = CARTESIAN_POINT('',(-67.15254688455,35.280023429029,
    15.813787240623));
#101 = CARTESIAN_POINT('',(-69.41755370148,30.37122951247,
    19.400687607367));
#102 = CARTESIAN_POINT('',(-70.01919016132,28.983905496874,
    20.395167845089));
#103 = CARTESIAN_POINT('',(-70.5906113041,27.577604748294,
    21.384028790765));
#104 = CARTESIAN_POINT('',(-71.13116106359,26.152664045552,
    22.36677402188));
#105 = CARTESIAN_POINT('',(-71.64014562308,24.709439819643,
    23.342878414581));
#106 = CARTESIAN_POINT('',(-72.1168338209,23.248308446963,
    24.311788199831));
#107 = CARTESIAN_POINT('',(-73.15749278948,19.77968889911,
    26.566427458047));
#108 = CARTESIAN_POINT('',(-73.69462959166,17.758033389184,
    27.845823614103));
#109 = CARTESIAN_POINT('',(-74.17000737639,15.705639469265,
    29.109709466428));
#110 = CARTESIAN_POINT('',(-74.5816084516,13.623598567,30.356530455163)
  );
#111 = CARTESIAN_POINT('',(-74.92728020936,11.513164090473,
    31.584583572305));
#112 = CARTESIAN_POINT('',(-75.20474729102,9.375757049727,32.79202063351
    ));
#113 = CARTESIAN_POINT('',(-75.67723585806,4.435886414924,35.49820023443
    ));
#114 = CARTESIAN_POINT('',(-75.82643881857,1.617148319212,36.98217076254
    ));
#115 = CARTESIAN_POINT('',(-75.85418907077,-1.239996553004,
    38.424618324748));
#116 = CARTESIAN_POINT('',(-75.75505102143,-4.131324551195,
    39.820713299177));
#117 = CARTESIAN_POINT('',(-75.52339144835,-7.051588084679,
    41.165015279379));
#118 = CARTESIAN_POINT('',(-75.15359309381,-9.99446446329,
    42.451554291415));
#119 = CARTESIAN_POINT('',(-74.239724833,-15.26073412626,44.627754992492
    ));
#120 = CARTESIAN_POINT('',(-73.75180786402,-17.57806133299,
    45.542460111367));
#121 = CARTESIAN_POINT('',(-73.17401265686,-19.9008043262,
    46.414934004397));
#122 = CARTESIAN_POINT('',(-72.50399404111,-22.22464352269,
    47.241844294765));
#123 = CARTESIAN_POINT('',(-71.73971198401,-24.54462304897,
    48.019693029352));
#124 = CARTESIAN_POINT('',(-70.87962146625,-26.85515548617,
    48.744913989078));
#125 = CARTESIAN_POINT('',(-69.07804036215,-31.17665379129,
    50.004872589587));
#126 = CARTESIAN_POINT('',(-68.15780093923,-33.19110518557,
    50.551978575267));
#127 = CARTESIAN_POINT('',(-67.1616981595,-35.18895870511,
    51.052853945167));
#128 = CARTESIAN_POINT('',(-66.08969025156,-37.16549498856,
    51.505118132926));
#129 = CARTESIAN_POINT('',(-64.94228753282,-39.11573030451,
    51.906534431527));
#130 = CARTESIAN_POINT('',(-63.72069086324,-41.03446191711,
    52.25510190304));
#131 = CARTESIAN_POINT('',(-61.30176346715,-44.55308341594,
    52.804948954409));
#132 = CARTESIAN_POINT('',(-60.12192721984,-46.16205223223,
    53.019515238903));
#133 = CARTESIAN_POINT('',(-58.88885520954,-47.73964870805,
    53.191777471656));
#134 = CARTESIAN_POINT('',(-57.60430140482,-49.28241899672,
    53.320885713634));
#135 = CARTESIAN_POINT('',(-56.27039734504,-50.78705235941,
    53.406250365089));
#136 = CARTESIAN_POINT('',(-54.88968058546,-52.25040251964,
    53.447567065414));
#137 = CARTESIAN_POINT('',(-51.44889835967,-55.67808170066,
    53.441015543034));
#138 = CARTESIAN_POINT('',(-49.34448153538,-57.59841602958,
    53.348974295347));
#139 = CARTESIAN_POINT('',(-47.16053898989,-59.4218645861,53.16872730086
    ));
#140 = CARTESIAN_POINT('',(-44.90635691841,-61.14183634392,
    52.901622144028));
#141 = CARTESIAN_POINT('',(-42.59162587547,-62.75345784563,
    52.550067373413));
#142 = CARTESIAN_POINT('',(-40.22629449499,-64.25334944715,
    52.117347483934));
#143 = CARTESIAN_POINT('',(-36.62633026836,-66.32759462085,
    51.354487957469));
#144 = CARTESIAN_POINT('',(-35.42208359684,-66.9877018802,
    51.082418251384));
#145 = CARTESIAN_POINT('',(-34.20893470952,-67.61963929247,
    50.791812513861));
#146 = CARTESIAN_POINT('',(-32.98801252573,-68.22329621885,
    50.483179885158));
#147 = CARTESIAN_POINT('',(-31.76040427849,-68.79864932276,
    50.157052313491));
#148 = CARTESIAN_POINT('',(-30.52715224365,-69.34575027782,49.8139767736
    ));
#149 = CARTESIAN_POINT('',(-26.99138803912,-70.82804195604,
    48.787240510443));
#150 = CARTESIAN_POINT('',(-24.67754224048,-71.69440075686,
    48.063497011533));
#151 = CARTESIAN_POINT('',(-22.35397818842,-72.4645735733,
    47.286801393723));
#152 = CARTESIAN_POINT('',(-20.02633338603,-73.14009459262,
    46.46073950219));
#153 = CARTESIAN_POINT('',(-17.69960927102,-73.72300159829,
    45.588830947519));
#154 = CARTESIAN_POINT('',(-15.37816599803,-74.21564349948,
    44.674430261622));
#155 = CARTESIAN_POINT('',(-10.10754596902,-75.13850529897,
    42.500551146861));
#156 = CARTESIAN_POINT('',(-7.164318525844,-75.51284053536,
    41.216105043463));
#157 = CARTESIAN_POINT('',(-4.243517192973,-75.74891633319,
    39.873742275947));
#158 = CARTESIAN_POINT('',(-1.351490271708,-75.8523464613,
    38.479443879369));
#159 = CARTESIAN_POINT('',(1.506492959181,-75.82876506272,
    37.038661564633));
#160 = CARTESIAN_POINT('',(4.326191045097,-75.68361145585,
    35.556235718242));
#161 = CARTESIAN_POINT('',(9.263706350339,-75.21852406777,
    32.854934371578));
#162 = CARTESIAN_POINT('',(11.397855321401,-74.94473109916,
    31.65096340174));
#163 = CARTESIAN_POINT('',(13.505199598412,-74.60293027765,
    30.426390852483));
#164 = CARTESIAN_POINT('',(15.584320871832,-74.19538673381,
    29.18305844385));
#165 = CARTESIAN_POINT('',(17.633968233151,-73.72424402076,
    27.922663406668));
#166 = CARTESIAN_POINT('',(19.653052554977,-73.19151190822,
    26.646755189484));
#167 = CARTESIAN_POINT('',(23.115686879194,-72.15935491948,
    24.399359533007));
#168 = CARTESIAN_POINT('',(24.573367562847,-71.68677186538,
    23.43422766413));
#169 = CARTESIAN_POINT('',(26.01328439436,-71.1820576161,22.461912123733
    ));
#170 = CARTESIAN_POINT('',(27.435063410228,-70.64593814835,
    21.482962881923));
#171 = CARTESIAN_POINT('',(28.8383506009,-70.07910251296,20.497901468893
    ));
#172 = CARTESIAN_POINT('',(30.22281161539,-69.48220242266,19.5072209165)
  );
#173 = CARTESIAN_POINT('',(35.111416653177,-67.23951869293,
    15.941576532738));
#174 = CARTESIAN_POINT('',(38.506881854019,-65.42722840395,
    13.337698787827));
#175 = CARTESIAN_POINT('',(41.76961957372,-63.42937951665,
    10.707405484339));
#176 = CARTESIAN_POINT('',(44.89435905728,-61.25500925933,8.057850613879
    ));
#177 = CARTESIAN_POINT('',(47.875750935703,-58.91216902541,
    5.395734557719));
#178 = CARTESIAN_POINT('',(50.708334895195,-56.40789064288,
    2.727303386706));
#179 = CARTESIAN_POINT('',(56.500512521658,-50.65468258207,
    -3.045389456932));
#180 = CARTESIAN_POINT('',(59.404786054798,-47.3517489638,
    -6.148993032633));
#181 = CARTESIAN_POINT('',(62.090462198088,-43.84813125263,
    -9.243639959872));
#182 = CARTESIAN_POINT('',(64.546316238427,-40.15224734002,
    -12.31950893633));
#183 = CARTESIAN_POINT('',(66.759200877794,-36.27247779215,
    -15.36583602996));
#184 = CARTESIAN_POINT('',(68.714176069072,-32.21727516689,
    -18.37092493822));
#185 = CARTESIAN_POINT('',(71.012013642602,-26.43924193045,
    -22.40886034321));
#186 = CARTESIAN_POINT('',(71.593071341557,-24.86140216172,
    -23.48830907705));
#187 = CARTESIAN_POINT('',(72.13580338915,-23.26138567306,
    -24.55968334518));
#188 = CARTESIAN_POINT('',(72.639250957803,-21.63968333434,
    -25.62225829886));
#189 = CARTESIAN_POINT('',(73.102396047941,-19.99682838008,
    -26.67525832106));
#190 = CARTESIAN_POINT('',(73.524163029409,-18.33339735039,
    -27.71785732664));
#191 = CARTESIAN_POINT('',(74.416691907224,-14.37178215653,
    -30.14492936248));
#192 = CARTESIAN_POINT('',(74.852086120667,-12.05707738021,
    -31.51997885736));
#193 = CARTESIAN_POINT('',(75.206817725295,-9.707380017946,
    -32.87219334081));
#194 = CARTESIAN_POINT('',(75.477853841346,-7.324495511213,
    -34.1991536522));
#195 = CARTESIAN_POINT('',(75.661968404969,-4.910572130474,
    -35.49817262438));
#196 = CARTESIAN_POINT('',(75.755781179374,-2.46811593639,
    -36.76630710863));
#197 = CARTESIAN_POINT('',(75.755781179374,-1.42108547152E-14,
    -38.00036507682));
#198 = ORIENTED_EDGE('',*,*,#199,.F.);
#199 = EDGE_CURVE('',#200,#55,#202,.T.);
#200 = VERTEX_POINT('',#201);
#201 = CARTESIAN_POINT('',(8.895169085586,-75.23173764466,
    19.721402558192));
#202 = B_SPLINE_CURVE_WITH_KNOTS('',7,(#203,#204,#205,#206,#207,#208,
    #209,#210,#211,#212,#213,#214,#215,#216,#217,#218,#219,#220,#221,
    #222,#223,#224,#225,#226,#227,#228,#229,#230,#231,#232,#233,#234,
    #235,#236,#237,#238,#239,#240),.UNSPECIFIED.,.F.,.F.,(8,6,6,6,6,6,8)
  ,(0.,0.240577963954,0.457077779283,0.599096466379,0.674772948853,
    0.836032158812,1.),.UNSPECIFIED.);
#203 = CARTESIAN_POINT('',(8.895169085586,-75.23173764466,
    19.721402558192));
#204 = CARTESIAN_POINT('',(12.119033876418,-74.85055779529,
    21.853582405373));
#205 = CARTESIAN_POINT('',(15.348841880771,-74.3052465276,
    23.959783408547));
#206 = CARTESIAN_POINT('',(18.578967447559,-73.59190558755,
    26.035449746561));
#207 = CARTESIAN_POINT('',(21.802660038049,-72.70606462635,
    28.075152585107));
#208 = CARTESIAN_POINT('',(25.012053104303,-71.6429096402,
    30.072637948177));
#209 = CARTESIAN_POINT('',(28.198169984899,-70.39741102723,
    32.020854180974));
#210 = CARTESIAN_POINT('',(34.188104688367,-67.67440507827,
    35.61371099096));
#211 = CARTESIAN_POINT('',(36.997813079184,-66.23280168909,
    37.26894577919));
#212 = CARTESIAN_POINT('',(39.772699361276,-64.63553430609,
    38.87190813676));
#213 = CARTESIAN_POINT('',(42.50373734453,-62.87896357438,
    40.415767012995));
#214 = CARTESIAN_POINT('',(45.180334034556,-60.9600584914,
    41.892732546216));
#215 = CARTESIAN_POINT('',(47.790435326707,-58.87673661419,
    43.29419051632));
#216 = CARTESIAN_POINT('',(51.980452903403,-55.15343223131,
    45.474613747278));
#217 = CARTESIAN_POINT('',(53.605739522959,-53.6076090548,
    46.301799876469));
#218 = CARTESIAN_POINT('',(55.192643719692,-51.99080633176,
    47.089780164754));
#219 = CARTESIAN_POINT('',(56.736923603246,-50.30338174174,
    47.835722807038));
#220 = CARTESIAN_POINT('',(58.234046047451,-48.54619843275,
    48.53668958762));
#221 = CARTESIAN_POINT('',(59.679269179175,-46.72075103016,
    49.189715282346));
#222 = CARTESIAN_POINT('',(61.807617791501,-43.82145563239,
    50.11279653429));
#223 = CARTESIAN_POINT('',(62.531371184898,-42.79485660644,
    50.419248633519));
#224 = CARTESIAN_POINT('',(63.238270747485,-41.74988354194,
    50.710826669789));
#225 = CARTESIAN_POINT('',(63.927573833516,-40.68695119081,
    50.987099311492));
#226 = CARTESIAN_POINT('',(64.598539575041,-39.60654041594,
    51.247648540426));
#227 = CARTESIAN_POINT('',(65.250435214674,-38.50920432263,
    51.492075099282));
#228 = CARTESIAN_POINT('',(67.229501337151,-35.02253751969,
    52.205698086615));
#229 = CARTESIAN_POINT('',(68.486825784702,-32.57512942063,
    52.61655988585));
#230 = CARTESIAN_POINT('',(69.6472080771,-30.05995781032,52.948807378484
    ));
#231 = CARTESIAN_POINT('',(70.704187529013,-27.48464739487,
    53.199423252436));
#232 = CARTESIAN_POINT('',(71.652239919614,-24.85788435462,
    53.366224076051));
#233 = CARTESIAN_POINT('',(72.486987879525,-22.18951904168,
    53.448022789991));
#234 = CARTESIAN_POINT('',(73.936145770273,-16.74660378947,
    53.441693409942));
#235 = CARTESIAN_POINT('',(74.546807297311,-13.97031656316,
    53.350687162949));
#236 = CARTESIAN_POINT('',(75.034362376671,-11.17359151277,
    53.171857267103));
#237 = CARTESIAN_POINT('',(75.397739151586,-8.367687604659,
    52.906532164469));
#238 = CARTESIAN_POINT('',(75.637539965174,-5.563370071915,
    52.557093437442));
#239 = CARTESIAN_POINT('',(75.755781179374,-2.770894300711,
    52.126795152772));
#240 = CARTESIAN_POINT('',(75.755781179374,-2.84217094304E-14,
    51.619686300141));
#241 = ORIENTED_EDGE('',*,*,#242,.F.);
#242 = EDGE_CURVE('',#24,#200,#243,.T.);
#243 = B_SPLINE_CURVE_WITH_KNOTS('',7,(#244,#245,#246,#247,#248,#249,
    #250,#251,#252,#253,#254,#255,#256,#257,#258,#259,#260,#261,#262,
    #263),.UNSPECIFIED.,.F.,.F.,(8,6,6,8),(0.,0.160917524381,
    0.576903652582,1.),.UNSPECIFIED.);
#244 = CARTESIAN_POINT('',(-53.49666923772,-53.63809059396,
    -26.84492720149));
#245 = CARTESIAN_POINT('',(-52.337985095,-54.79371976808,-25.84203639699
    ));
#246 = CARTESIAN_POINT('',(-51.15623801433,-55.91410232961,
    -24.82984389073));
#247 = CARTESIAN_POINT('',(-49.95248564073,-56.99927935738,
    -23.80906454974));
#248 = CARTESIAN_POINT('',(-48.72773072856,-58.04929434108,
    -22.78037530883));
#249 = CARTESIAN_POINT('',(-47.48292072721,-59.06419233617,
    -21.74441504224));
#250 = CARTESIAN_POINT('',(-46.21894736676,-60.04401911867,
    -20.70178443534));
#251 = CARTESIAN_POINT('',(-41.62178366749,-63.43121562003,
    -16.94196325251));
#252 = CARTESIAN_POINT('',(-38.18487139795,-65.63922919059,
    -14.19041398777));
#253 = CARTESIAN_POINT('',(-34.63983444689,-67.61415655453,
    -11.40767192859));
#254 = CARTESIAN_POINT('',(-30.99928498653,-69.35600709212,
    -8.602349632135));
#255 = CARTESIAN_POINT('',(-27.27478891076,-70.86412541582,
    -5.782466695043));
#256 = CARTESIAN_POINT('',(-23.47684360317,-72.13711932037,
    -2.955447754899));
#257 = CARTESIAN_POINT('',(-15.68659104719,-74.22538812478,
    2.747573407956));
#258 = CARTESIAN_POINT('',(-11.69298674638,-75.03222221958,
    5.622916759401));
#259 = CARTESIAN_POINT('',(-7.643701707127,-75.59039445717,
    8.490782484128));
#260 = CARTESIAN_POINT('',(-3.54903302534,-75.89562313165,
    11.343353928232));
#261 = CARTESIAN_POINT('',(0.580113296267,-75.94237613293,
    14.172169706952));
#262 = CARTESIAN_POINT('',(4.732204532113,-75.72395375929,
    16.968126691697));
#263 = CARTESIAN_POINT('',(8.895169085586,-75.23173764466,
    19.721402558192));
#264 = CYLINDRICAL_SURFACE('',#265,75.755781179374);
#265 = AXIS2_PLACEMENT_3D('',#266,#267,#268);
#266 = CARTESIAN_POINT('',(0.,0.,-53.9));
#267 = DIRECTION('',(0.,0.,1.));
#268 = DIRECTION('',(1.,0.,0.));
#269 = ADVANCED_FACE('',(#270),#292,.F.);
#270 = FACE_BOUND('',#271,.F.);
#271 = EDGE_LOOP('',(#272,#273,#280,#287));
#272 = ORIENTED_EDGE('',*,*,#21,.F.);
#273 = ORIENTED_EDGE('',*,*,#274,.T.);
#274 = EDGE_CURVE('',#22,#275,#277,.T.);
#275 = VERTEX_POINT('',#276);
#276 = CARTESIAN_POINT('',(-1.332440676946,-1.473862033184,-53.9));
#277 = B_SPLINE_CURVE_WITH_KNOTS('',1,(#278,#279),.UNSPECIFIED.,.F.,.F.,
  (2,2),(0.,1.),.PIECEWISE_BEZIER_KNOTS.);
#278 = CARTESIAN_POINT('',(-75.61435982313,-75.75578117937,-53.9));
#279 = CARTESIAN_POINT('',(75.755781179374,75.614359823137,-53.9));
#280 = ORIENTED_EDGE('',*,*,#281,.T.);
#281 = EDGE_CURVE('',#275,#282,#284,.T.);
#282 = VERTEX_POINT('',#283);
#283 = CARTESIAN_POINT('',(-36.75723206287,-36.89865341911,
    -18.47520861406));
#284 = B_SPLINE_CURVE_WITH_KNOTS('',1,(#285,#286),.UNSPECIFIED.,.F.,.F.,
  (2,2),(0.,1.),.PIECEWISE_BEZIER_KNOTS.);
#285 = CARTESIAN_POINT('',(0.111535507165,-2.988584907227E-02,
    -55.34397618411));
#286 = CARTESIAN_POINT('',(-36.83888172097,-36.9803030772,
    -18.39355895597));
#287 = ORIENTED_EDGE('',*,*,#288,.T.);
#288 = EDGE_CURVE('',#282,#24,#289,.T.);
#289 = B_SPLINE_CURVE_WITH_KNOTS('',1,(#290,#291),.UNSPECIFIED.,.F.,.F.,
  (2,2),(0.,1.),.PIECEWISE_BEZIER_KNOTS.);
#290 = CARTESIAN_POINT('',(-3.967934079181,-4.109355435418,
    -2.080559622219));
#291 = CARTESIAN_POINT('',(-67.63044938579,-67.77187074203,
    -33.91181727552));
#292 = B_SPLINE_SURFACE_WITH_KNOTS('',1,1,(
    (#293,#294)
    ,(#295,#296
    )),.UNSPECIFIED.,.F.,.F.,.F.,(2,2),(2,2),(0.,500.),(0.,500.),
  .PIECEWISE_BEZIER_KNOTS.);
#293 = CARTESIAN_POINT('',(-249.9292893218,-250.0707106781,
    -2.84217094304E-14));
#294 = CARTESIAN_POINT('',(7.07106781186E-02,-7.071067811863E-02,
    353.55339059327));
#295 = CARTESIAN_POINT('',(7.071067811876E-02,-7.07106781187E-02,
    -353.5533905932));
#296 = CARTESIAN_POINT('',(250.07071067811,249.92928932188,
    2.84217094304E-14));
#297 = ADVANCED_FACE('',(#298),#315,.F.);
#298 = FACE_BOUND('',#299,.F.);
#299 = EDGE_LOOP('',(#300,#301,#302,#303,#310));
#300 = ORIENTED_EDGE('',*,*,#199,.F.);
#301 = ORIENTED_EDGE('',*,*,#242,.F.);
#302 = ORIENTED_EDGE('',*,*,#288,.F.);
#303 = ORIENTED_EDGE('',*,*,#304,.T.);
#304 = EDGE_CURVE('',#282,#305,#307,.T.);
#305 = VERTEX_POINT('',#306);
#306 = CARTESIAN_POINT('',(13.49490553686,-50.3636731069,18.311909297882
    ));
#307 = B_SPLINE_CURVE_WITH_KNOTS('',1,(#308,#309),.UNSPECIFIED.,.F.,.F.,
  (2,2),(0.,1.),.PIECEWISE_BEZIER_KNOTS.);
#308 = CARTESIAN_POINT('',(-36.75723253608,-36.89865329232,
    -18.47520896047));
#309 = CARTESIAN_POINT('',(13.494906010065,-50.36367323369,
    18.311909644293));
#310 = ORIENTED_EDGE('',*,*,#311,.F.);
#311 = EDGE_CURVE('',#55,#305,#312,.T.);
#312 = B_SPLINE_CURVE_WITH_KNOTS('',1,(#313,#314),.UNSPECIFIED.,.F.,.F.,
  (2,2),(0.,1.),.PIECEWISE_BEZIER_KNOTS.);
#313 = CARTESIAN_POINT('',(20.995854637161,-78.35759625421,
    28.558396321388));
#314 = CARTESIAN_POINT('',(-16.22548217057,60.554323837905,
    -22.2868953208));
#315 = B_SPLINE_SURFACE_WITH_KNOTS('',1,1,(
    (#316,#317)
    ,(#318,#319
    )),.UNSPECIFIED.,.F.,.F.,.F.,(2,2),(2,2),(0.,500.),(0.,500.),
  .PIECEWISE_BEZIER_KNOTS.);
#316 = CARTESIAN_POINT('',(60.228327182939,-333.1254297379,
    101.98042295787));
#317 = CARTESIAN_POINT('',(287.2903997989,106.03347127288,
    176.69504563854));
#318 = CARTESIAN_POINT('',(-287.1788642917,-106.0633571219,
    -176.8583449547));
#319 = CARTESIAN_POINT('',(-60.11679167577,333.09554388885,
    -102.143722274));
#320 = ADVANCED_FACE('',(#321),#337,.F.);
#321 = FACE_BOUND('',#322,.F.);
#322 = EDGE_LOOP('',(#323,#324,#325,#332));
#323 = ORIENTED_EDGE('',*,*,#54,.F.);
#324 = ORIENTED_EDGE('',*,*,#311,.T.);
#325 = ORIENTED_EDGE('',*,*,#326,.T.);
#326 = EDGE_CURVE('',#305,#327,#329,.T.);
#327 = VERTEX_POINT('',#328);
#328 = CARTESIAN_POINT('',(50.28202344881,-13.57655519495,
    -18.47520861406));
#329 = B_SPLINE_CURVE_WITH_KNOTS('',1,(#330,#331),.UNSPECIFIED.,.F.,.F.,
  (2,2),(0.,1.),.PIECEWISE_BEZIER_KNOTS.);
#330 = CARTESIAN_POINT('',(13.413255878767,-50.44532276499,
    18.393558955975));
#331 = CARTESIAN_POINT('',(50.363673106903,-13.49490553686,
    -18.55685827216));
#332 = ORIENTED_EDGE('',*,*,#333,.T.);
#333 = EDGE_CURVE('',#327,#45,#334,.T.);
#334 = B_SPLINE_CURVE_WITH_KNOTS('',1,(#335,#336),.UNSPECIFIED.,.F.,.F.,
  (2,2),(0.,1.),.PIECEWISE_BEZIER_KNOTS.);
#335 = CARTESIAN_POINT('',(8.651789030314,-2.421767501798,
    -3.237485251397));
#336 = CARTESIAN_POINT('',(78.390965314026,-21.10832346783,
    -28.76379541023));
#337 = B_SPLINE_SURFACE_WITH_KNOTS('',1,1,(
    (#338,#339)
    ,(#340,#341
    )),.UNSPECIFIED.,.F.,.F.,.F.,(2,2),(2,2),(0.,500.),(0.,500.),
  .PIECEWISE_BEZIER_KNOTS.);
#338 = CARTESIAN_POINT('',(204.08332040288,204.08332040288,-204.20579489
    ));
#339 = CARTESIAN_POINT('',(-250.040824829,249.95917517095,
    -8.16496580928E-02));
#340 = CARTESIAN_POINT('',(249.95917517095,-250.040824829,
    -8.164965809263E-02));
#341 = CARTESIAN_POINT('',(-204.1649700609,-204.1649700609,
    204.04249557383));
#342 = ADVANCED_FACE('',(#343),#359,.F.);
#343 = FACE_BOUND('',#344,.F.);
#344 = EDGE_LOOP('',(#345,#352,#353,#354));
#345 = ORIENTED_EDGE('',*,*,#346,.F.);
#346 = EDGE_CURVE('',#36,#347,#349,.T.);
#347 = VERTEX_POINT('',#348);
#348 = CARTESIAN_POINT('',(1.890858491863,-0.610181623937,-53.9));
#349 = B_SPLINE_CURVE_WITH_KNOTS('',1,(#350,#351),.UNSPECIFIED.,.F.,.F.,
  (2,2),(0.,1.),.PIECEWISE_BEZIER_KNOTS.);
#350 = CARTESIAN_POINT('',(75.755781179374,-20.40222800704,-53.9));
#351 = CARTESIAN_POINT('',(-53.49666923772,14.230861701963,-53.9));
#352 = ORIENTED_EDGE('',*,*,#44,.T.);
#353 = ORIENTED_EDGE('',*,*,#333,.F.);
#354 = ORIENTED_EDGE('',*,*,#355,.T.);
#355 = EDGE_CURVE('',#327,#347,#356,.T.);
#356 = B_SPLINE_CURVE_WITH_KNOTS('',1,(#357,#358),.UNSPECIFIED.,.F.,.F.,
  (2,2),(0.,1.),.PIECEWISE_BEZIER_KNOTS.);
#357 = CARTESIAN_POINT('',(50.28202439522,-13.57655544854,
    -18.47520792124));
#358 = CARTESIAN_POINT('',(2.988490266211E-02,-0.111535253575,
    -55.26232721883));
#359 = B_SPLINE_SURFACE_WITH_KNOTS('',1,1,(
    (#360,#361)
    ,(#362,#363
    )),.UNSPECIFIED.,.F.,.F.,.F.,(2,2),(2,2),(0.,500.),(0.,500.),
  .PIECEWISE_BEZIER_KNOTS.);
#360 = CARTESIAN_POINT('',(-170.7790573775,45.656582890426,
    -306.1862178478));
#361 = CARTESIAN_POINT('',(-295.7790573775,79.150231944316,
    176.77669529663));
#362 = CARTESIAN_POINT('',(295.72729356854,-79.34341710957,
    -176.7766952966));
#363 = CARTESIAN_POINT('',(170.72729356854,-45.84976805568,
    306.18621784789));
#364 = ADVANCED_FACE('',(#365),#375,.F.);
#365 = FACE_BOUND('',#366,.F.);
#366 = EDGE_LOOP('',(#367,#368,#369,#370));
#367 = ORIENTED_EDGE('',*,*,#274,.F.);
#368 = ORIENTED_EDGE('',*,*,#35,.T.);
#369 = ORIENTED_EDGE('',*,*,#346,.T.);
#370 = ORIENTED_EDGE('',*,*,#371,.F.);
#371 = EDGE_CURVE('',#275,#347,#372,.T.);
#372 = B_SPLINE_CURVE_WITH_KNOTS('',1,(#373,#374),.UNSPECIFIED.,.F.,.F.,
  (2,2),(0.,1.),.PIECEWISE_BEZIER_KNOTS.);
#373 = CARTESIAN_POINT('',(-1.525625842204,-1.525625842204,-53.9));
#374 = CARTESIAN_POINT('',(2.084043657121,-0.558417814917,-53.9));
#375 = PLANE('',#376);
#376 = AXIS2_PLACEMENT_3D('',#377,#378,#379);
#377 = CARTESIAN_POINT('',(0.,0.,-53.9));
#378 = DIRECTION('',(0.,0.,1.));
#379 = DIRECTION('',(1.,0.,0.));
#380 = ADVANCED_FACE('',(#381),#388,.T.);
#381 = FACE_BOUND('',#382,.T.);
#382 = EDGE_LOOP('',(#383,#384,#385,#386,#387));
#383 = ORIENTED_EDGE('',*,*,#355,.T.);
#384 = ORIENTED_EDGE('',*,*,#371,.F.);
#385 = ORIENTED_EDGE('',*,*,#281,.T.);
#386 = ORIENTED_EDGE('',*,*,#304,.T.);
#387 = ORIENTED_EDGE('',*,*,#326,.T.);
#388 = B_SPLINE_SURFACE_WITH_KNOTS('',1,1,(
    (#389,#390)
    ,(#391,#392
    )),.UNSPECIFIED.,.F.,.F.,.F.,(2,2),(2,2),(0.,64.),(0.,64.),
  .PIECEWISE_BEZIER_KNOTS.);
#389 = CARTESIAN_POINT('',(0.,0.,-55.4256258422));
#390 = CARTESIAN_POINT('',(50.475208614068,-13.52479138593,
    -18.47520861406));
#391 = CARTESIAN_POINT('',(-36.95041722813,-36.95041722813,
    -18.47520861406));
#392 = CARTESIAN_POINT('',(13.524791385932,-50.47520861406,
    18.475208614068));
#393 = ( GEOMETRIC_REPRESENTATION_CONTEXT(3) 
GLOBAL_UNCERTAINTY_ASSIGNED_CONTEXT((#397)) GLOBAL_UNIT_ASSIGNED_CONTEXT
((#394,#395,#396)) REPRESENTATION_CONTEXT('Context #1',
  '3D Context with UNIT and UNCERTAINTY') );
#394 = ( LENGTH_UNIT() NAMED_UNIT(*) SI_UNIT(.MILLI.,.METRE.) );
#395 = ( NAMED_UNIT(*) PLANE_ANGLE_UNIT() SI_UNIT($,.RADIAN.) );
#396 = ( NAMED_UNIT(*) SI_UNIT($,.STERADIAN.) SOLID_ANGLE_UNIT() );
#397 = UNCERTAINTY_MEASURE_WITH_UNIT(LENGTH_MEASURE(5.E-06),#394,
  'distance_accuracy_value','confusion accuracy');
#398 = PRODUCT_RELATED_PRODUCT_CATEGORY('part',$,(#7));
ENDSEC;
END-ISO-10303-21;
