ISO-10303-21;
HEADER;
FILE_DESCRIPTION(('FreeCAD Model'),'2;1');
FILE_NAME('Open CASCADE Shape Model','2026-07-28T22:26:06',('FreeCAD'),(
    'FreeCAD'),'Open CASCADE STEP processor 7.8','FreeCAD','Unknown');
FILE_SCHEMA(('AUTOMOTIVE_DESIGN { 1 0 10303 214 1 1 1 1 }'));
ENDSEC;
DATA;
#1 = APPLICATION_PROTOCOL_DEFINITION('international standard',
  'automotive_design',2000,#2);
#2 = APPLICATION_CONTEXT(
  'core data for automotive mechanical design processes');
#3 = SHAPE_DEFINITION_REPRESENTATION(#4,#10);
#4 = PRODUCT_DEFINITION_SHAPE('','',#5);
#5 = PRODUCT_DEFINITION('design','',#6,#9);
#6 = PRODUCT_DEFINITION_FORMATION('','',#7);
#7 = PRODUCT('Open CASCADE STEP translator 7.8 16',
  'Open CASCADE STEP translator 7.8 16','',(#8));
#8 = PRODUCT_CONTEXT('',#2,'mechanical');
#9 = PRODUCT_DEFINITION_CONTEXT('part definition',#2,'design');
#10 = ADVANCED_BREP_SHAPE_REPRESENTATION('',(#11,#15),#440);
#11 = AXIS2_PLACEMENT_3D('',#12,#13,#14);
#12 = CARTESIAN_POINT('',(0.,0.,0.));
#13 = DIRECTION('',(0.,0.,1.));
#14 = DIRECTION('',(1.,0.,-0.));
#15 = MANIFOLD_SOLID_BREP('',#16);
#16 = CLOSED_SHELL('',(#17,#64,#95,#312,#335,#360,#425));
#17 = ADVANCED_FACE('',(#18),#59,.F.);
#18 = FACE_BOUND('',#19,.F.);
#19 = EDGE_LOOP('',(#20,#29,#38,#47,#54));
#20 = ORIENTED_EDGE('',*,*,#21,.F.);
#21 = EDGE_CURVE('',#22,#24,#26,.T.);
#22 = VERTEX_POINT('',#23);
#23 = CARTESIAN_POINT('',(73.200283683729,-19.51042928074,-53.9));
#24 = VERTEX_POINT('',#25);
#25 = CARTESIAN_POINT('',(1.942622300883,-0.416996458679,-53.9));
#26 = B_SPLINE_CURVE_WITH_KNOTS('',1,(#27,#28),.UNSPECIFIED.,.F.,.F.,(2,
    2),(0.,1.),.PIECEWISE_BEZIER_KNOTS.);
#27 = CARTESIAN_POINT('',(75.755781179374,-20.19517277096,-53.9));
#28 = CARTESIAN_POINT('',(-19.51042928074,5.331331387801,-53.9));
#29 = ORIENTED_EDGE('',*,*,#30,.T.);
#30 = EDGE_CURVE('',#22,#31,#33,.T.);
#31 = VERTEX_POINT('',#32);
#32 = CARTESIAN_POINT('',(75.755781179374,-1.855481498765E-14,-53.9));
#33 = CIRCLE('',#34,75.755781179374);
#34 = AXIS2_PLACEMENT_3D('',#35,#36,#37);
#35 = CARTESIAN_POINT('',(0.,0.,-53.9));
#36 = DIRECTION('',(0.,0.,1.));
#37 = DIRECTION('',(1.,0.,0.));
#38 = ORIENTED_EDGE('',*,*,#39,.T.);
#39 = EDGE_CURVE('',#31,#40,#42,.T.);
#40 = VERTEX_POINT('',#41);
#41 = CARTESIAN_POINT('',(-19.51042928074,73.200283683729,-53.9));
#42 = CIRCLE('',#43,75.755781179374);
#43 = AXIS2_PLACEMENT_3D('',#44,#45,#46);
#44 = CARTESIAN_POINT('',(0.,0.,-53.9));
#45 = DIRECTION('',(0.,0.,1.));
#46 = DIRECTION('',(1.,0.,0.));
#47 = ORIENTED_EDGE('',*,*,#48,.F.);
#48 = EDGE_CURVE('',#49,#40,#51,.T.);
#49 = VERTEX_POINT('',#50);
#50 = CARTESIAN_POINT('',(-0.416996458679,1.942622300883,-53.9));
#51 = B_SPLINE_CURVE_WITH_KNOTS('',1,(#52,#53),.UNSPECIFIED.,.F.,.F.,(2,
    2),(0.,1.),.PIECEWISE_BEZIER_KNOTS.);
#52 = CARTESIAN_POINT('',(20.402228007043,-75.75578117937,-53.9));
#53 = CARTESIAN_POINT('',(-20.19517277096,75.755781179374,-53.9));
#54 = ORIENTED_EDGE('',*,*,#55,.F.);
#55 = EDGE_CURVE('',#24,#49,#56,.T.);
#56 = B_SPLINE_CURVE_WITH_KNOTS('',1,(#57,#58),.UNSPECIFIED.,.F.,.F.,(2,
    2),(0.,1.),.PIECEWISE_BEZIER_KNOTS.);
#57 = CARTESIAN_POINT('',(2.084043657121,-0.558417814917,-53.9));
#58 = CARTESIAN_POINT('',(-0.558417814917,2.084043657121,-53.9));
#59 = PLANE('',#60);
#60 = AXIS2_PLACEMENT_3D('',#61,#62,#63);
#61 = CARTESIAN_POINT('',(0.,0.,-53.9));
#62 = DIRECTION('',(0.,0.,1.));
#63 = DIRECTION('',(1.,0.,0.));
#64 = ADVANCED_FACE('',(#65),#90,.F.);
#65 = FACE_BOUND('',#66,.F.);
#66 = EDGE_LOOP('',(#67,#76,#84,#85));
#67 = ORIENTED_EDGE('',*,*,#68,.F.);
#68 = EDGE_CURVE('',#69,#71,#73,.T.);
#69 = VERTEX_POINT('',#70);
#70 = CARTESIAN_POINT('',(73.200283690471,-19.51042928255,
    -26.84492720396));
#71 = VERTEX_POINT('',#72);
#72 = CARTESIAN_POINT('',(50.333787257831,-13.38337002969,
    -18.47520861406));
#73 = B_SPLINE_CURVE_WITH_KNOTS('',1,(#74,#75),.UNSPECIFIED.,.F.,.F.,(2,
    2),(0.,1.),.PIECEWISE_BEZIER_KNOTS.);
#74 = CARTESIAN_POINT('',(108.83733472373,-29.05934832753,
    -39.88899319809));
#75 = CARTESIAN_POINT('',(-32.82532362063,8.89904657348,11.963138523577)
  );
#76 = ORIENTED_EDGE('',*,*,#77,.T.);
#77 = EDGE_CURVE('',#69,#22,#78,.T.);
#78 = B_SPLINE_CURVE_WITH_KNOTS('',4,(#79,#80,#81,#82,#83),
  .UNSPECIFIED.,.F.,.F.,(5,5),(0.,1.),.PIECEWISE_BEZIER_KNOTS.);
#79 = CARTESIAN_POINT('',(73.200283683729,-19.51042928074,
    -13.98674408473));
#80 = CARTESIAN_POINT('',(73.200283683729,-19.51042928074,
    -23.96505821354));
#81 = CARTESIAN_POINT('',(73.200283683729,-19.51042928074,
    -33.94337234236));
#82 = CARTESIAN_POINT('',(73.200283683729,-19.51042928074,
    -43.92168647118));
#83 = CARTESIAN_POINT('',(73.200283683729,-19.51042928074,-53.9000006));
#84 = ORIENTED_EDGE('',*,*,#21,.T.);
#85 = ORIENTED_EDGE('',*,*,#86,.T.);
#86 = EDGE_CURVE('',#24,#71,#87,.T.);
#87 = B_SPLINE_CURVE_WITH_KNOTS('',1,(#88,#89),.UNSPECIFIED.,.F.,.F.,(2,
    2),(0.,1.),.PIECEWISE_BEZIER_KNOTS.);
#88 = CARTESIAN_POINT('',(8.164871168259E-02,8.164991168267E-02,
    -55.26232721883));
#89 = CARTESIAN_POINT('',(50.333788204241,-13.38337028328,
    -18.47520792124));
#90 = B_SPLINE_SURFACE_WITH_KNOTS('',1,1,(
    (#91,#92)
    ,(#93,#94
    )),.UNSPECIFIED.,.F.,.F.,.F.,(2,2),(2,2),(0.,500.),(0.,500.),
  .PIECEWISE_BEZIER_KNOTS.);
#91 = CARTESIAN_POINT('',(-170.7272935685,45.849768055684,
    306.18621784789));
#92 = CARTESIAN_POINT('',(-295.7272935685,79.343417109574,
    -176.7766952966));
#93 = CARTESIAN_POINT('',(295.77905737756,-79.15023194431,
    176.77669529663));
#94 = CARTESIAN_POINT('',(170.77905737756,-45.65658289042,
    -306.1862178478));
#95 = ADVANCED_FACE('',(#96),#307,.F.);
#96 = FACE_BOUND('',#97,.F.);
#97 = EDGE_LOOP('',(#98,#217,#218,#225,#232));
#98 = ORIENTED_EDGE('',*,*,#99,.F.);
#99 = EDGE_CURVE('',#69,#100,#102,.T.);
#100 = VERTEX_POINT('',#101);
#101 = CARTESIAN_POINT('',(75.755781179374,-1.855481498765E-14,
    -13.98674468473));
#102 = B_SPLINE_CURVE_WITH_KNOTS('',8,(#103,#104,#105,#106,#107,#108,
    #109,#110,#111,#112,#113,#114,#115,#116,#117,#118,#119,#120,#121,
    #122,#123,#124,#125,#126,#127,#128,#129,#130,#131,#132,#133,#134,
    #135,#136,#137,#138,#139,#140,#141,#142,#143,#144,#145,#146,#147,
    #148,#149,#150,#151,#152,#153,#154,#155,#156,#157,#158,#159,#160,
    #161,#162,#163,#164,#165,#166,#167,#168,#169,#170,#171,#172,#173,
    #174,#175,#176,#177,#178,#179,#180,#181,#182,#183,#184,#185,#186,
    #187,#188,#189,#190,#191,#192,#193,#194,#195,#196,#197,#198,#199,
    #200,#201,#202,#203,#204,#205,#206,#207,#208,#209,#210,#211,#212,
    #213,#214,#215,#216),.UNSPECIFIED.,.F.,.F.,(9,7,7,7,7,7,7,7,7,7,7,7,
    7,7,7,7,9),(0.,7.052050589987E-02,0.123083110195,0.161414000446,
    0.263195931895,0.366953689316,0.406346940469,0.459249403094,
    0.527749089217,0.582963186081,0.62986566614,0.6693609929,
    0.726699515446,0.75506548388,0.807190415467,0.872295167128,1.),
  .UNSPECIFIED.);
#103 = CARTESIAN_POINT('',(-58.57060603831,48.046045523041,
    43.412749743326));
#104 = CARTESIAN_POINT('',(-60.27450729529,45.968902062756,
    42.305869949096));
#105 = CARTESIAN_POINT('',(-61.87455351829,43.846675050075,
    41.14919072556));
#106 = CARTESIAN_POINT('',(-63.37146729661,41.685421634303,
    39.94698142565));
#107 = CARTESIAN_POINT('',(-64.76636563108,39.490730970296,
    38.703263938466));
#108 = CARTESIAN_POINT('',(-66.06067452704,37.267699044302,
    37.421779864433));
#109 = CARTESIAN_POINT('',(-67.25604434868,35.020904184746,
    36.105958297628));
#110 = CARTESIAN_POINT('',(-68.35426593475,32.754383257944,
    34.758884215261));
#111 = CARTESIAN_POINT('',(-70.10471711168,28.770137718331,
    32.357948703668));
#112 = CARTESIAN_POINT('',(-70.79926754529,27.059717110759,
    31.316821254575));
#113 = CARTESIAN_POINT('',(-71.44159558578,25.341823699315,
    30.261032424251));
#114 = CARTESIAN_POINT('',(-72.0324455449,23.617842005814,
    29.191664077192));
#115 = CARTESIAN_POINT('',(-72.57254879135,21.88906414222,
    28.109732592041));
#116 = CARTESIAN_POINT('',(-73.06262085211,20.15668960152,
    27.016188188271));
#117 = CARTESIAN_POINT('',(-73.503356061,18.421824797834,25.911913632685
    ));
#118 = CARTESIAN_POINT('',(-74.18132930146,15.419267477775,
    23.985206559472));
#119 = CARTESIAN_POINT('',(-74.44135266007,14.152280186292,
    23.167425723668));
#120 = CARTESIAN_POINT('',(-74.67574711745,12.884919639506,
    22.344699535288));
#121 = CARTESIAN_POINT('',(-74.88476040809,11.617569973675,
    21.517335702839));
#122 = CARTESIAN_POINT('',(-75.06863057776,10.350600318385,
    20.685629911913));
#123 = CARTESIAN_POINT('',(-75.22758584766,9.08436481178,19.84986581074)
  );
#124 = CARTESIAN_POINT('',(-75.36184447858,7.819202615807,
    19.010314995733));
#125 = CARTESIAN_POINT('',(-75.76309282586,3.19970031024,15.928569788775
    ));
#126 = CARTESIAN_POINT('',(-75.88188062224,-0.145899182862,
    13.665222515111));
#127 = CARTESIAN_POINT('',(-75.83194797877,-3.475611704649,
    11.381848261086));
#128 = CARTESIAN_POINT('',(-75.61660260271,-6.783853021929,
    9.082866481347));
#129 = CARTESIAN_POINT('',(-75.23865898634,-10.06522568649,
    6.772478789409));
#130 = CARTESIAN_POINT('',(-74.70048497203,-13.31452387504,
    4.454674173948));
#131 = CARTESIAN_POINT('',(-74.00395180409,-16.52672273263,
    2.133227136188));
#132 = CARTESIAN_POINT('',(-72.28010431981,-22.92872700879,
    -2.554909087746));
#133 = CARTESIAN_POINT('',(-71.24676679601,-26.11638399851,
    -4.921233193197));
#134 = CARTESIAN_POINT('',(-70.05170903825,-29.25481472092,
    -7.283531989773));
#135 = CARTESIAN_POINT('',(-68.69584548683,-32.33841160188,
    -9.637808078931));
#136 = CARTESIAN_POINT('',(-67.17972890361,-35.36111484008,
    -11.97982137694));
#137 = CARTESIAN_POINT('',(-65.50360690942,-38.31643133551,
    -14.3050916963));
#138 = CARTESIAN_POINT('',(-63.66737578521,-41.19741383747,
    -16.6088929584));
#139 = CARTESIAN_POINT('',(-60.91222269338,-45.05933626341,
    -19.7508630405));
#140 = CARTESIAN_POINT('',(-60.13089689418,-46.11025735916,
    -20.61164804316));
#141 = CARTESIAN_POINT('',(-59.32640551583,-47.14892668462,
    -21.46830452631));
#142 = CARTESIAN_POINT('',(-58.49872640583,-48.17490030189,
    -22.32053332893));
#143 = CARTESIAN_POINT('',(-57.64783664982,-49.1877136592,
    -23.16802134988));
#144 = CARTESIAN_POINT('',(-56.77371274293,-50.18688166952,
    -24.01044157025));
#145 = CARTESIAN_POINT('',(-55.87633076122,-51.17189878919,
    -24.84745307566));
#146 = CARTESIAN_POINT('',(-53.71927696148,-53.44534027093,
    -26.79501072872));
#147 = CARTESIAN_POINT('',(-52.44091757069,-54.72195207031,
    -27.90090880918));
#148 = CARTESIAN_POINT('',(-51.1205194348,-55.97081452178,
    -28.99554735687));
#149 = CARTESIAN_POINT('',(-49.75803958374,-57.19056657491,
    -30.07800462113));
#150 = CARTESIAN_POINT('',(-48.35346796785,-58.37975112383,
    -31.14728721937));
#151 = CARTESIAN_POINT('',(-46.90683238568,-59.53681852634,
    -32.20233163877));
#152 = CARTESIAN_POINT('',(-45.41820137493,-60.66012861982,
    -33.24200508418));
#153 = CARTESIAN_POINT('',(-41.90592691143,-63.15649639301,
    -35.58984682122));
#154 = CARTESIAN_POINT('',(-39.85405888701,-64.5054627803,
    -36.88672590924));
#155 = CARTESIAN_POINT('',(-37.73227075396,-65.79114988344,
    -38.15318071041));
#156 = CARTESIAN_POINT('',(-35.54106872179,-67.00944749114,
    -39.38631125545));
#157 = CARTESIAN_POINT('',(-33.28132916437,-68.15589138383,
    -40.58290803814));
#158 = CARTESIAN_POINT('',(-30.95435358192,-69.22572094984,
    -41.73948130917));
#159 = CARTESIAN_POINT('',(-28.56192480954,-70.21393872694,
    -42.85229145688));
#160 = CARTESIAN_POINT('',(-24.12706275604,-71.84197106524,
    -44.77589430996));
#161 = CARTESIAN_POINT('',(-22.10684489336,-72.51214831575,
    -45.60335941404));
#162 = CARTESIAN_POINT('',(-20.04702377215,-73.12317078365,
    -46.39766894957));
#163 = CARTESIAN_POINT('',(-17.94926948548,-73.6722088115,
    -47.15658457632));
#164 = CARTESIAN_POINT('',(-15.81563791288,-74.15638714869,
    -47.87776620954));
#165 = CARTESIAN_POINT('',(-13.64860644838,-74.57285057588,
    -48.55881030359));
#166 = CARTESIAN_POINT('',(-11.45111687516,-74.91884392702,
    -49.19729666136));
#167 = CARTESIAN_POINT('',(-7.336996223258,-75.42367885271,
    -50.29504166438));
#168 = CARTESIAN_POINT('',(-5.427853566667,-75.60285679038,
    -50.7668198276));
#169 = CARTESIAN_POINT('',(-3.501412558784,-75.72775619481,
    -51.20469088117));
#170 = CARTESIAN_POINT('',(-1.560118754568,-75.79691898589,
    -51.60721137025));
#171 = CARTESIAN_POINT('',(0.393344673043,-75.80904763152,
    -51.97300400921));
#172 = CARTESIAN_POINT('',(2.356047835457,-75.76305041107,
    -52.30078693215));
#173 = CARTESIAN_POINT('',(4.324803137808,-75.65809744139,
    -52.58940994801));
#174 = CARTESIAN_POINT('',(7.956172995306,-75.35524221211,
    -53.04714278877));
#175 = CARTESIAN_POINT('',(9.618111105669,-75.17463036212,
    -53.22793838507));
#176 = CARTESIAN_POINT('',(11.279872077294,-74.95154854536,
    -53.37969403597));
#177 = CARTESIAN_POINT('',(12.939333821984,-74.68585498597,
    -53.50192453768));
#178 = CARTESIAN_POINT('',(14.594347483101,-74.37757471359,
    -53.59425371769));
#179 = CARTESIAN_POINT('',(16.242738529952,-74.02690834214,
    -53.65642063113));
#180 = CARTESIAN_POINT('',(17.882308275988,-73.6342444163,
    -53.68828827136));
#181 = CARTESIAN_POINT('',(21.875099418737,-72.5700025329,
    -53.69212904225));
#182 = CARTESIAN_POINT('',(24.216457727486,-71.85246306459,
    -53.63053878146));
#183 = CARTESIAN_POINT('',(26.527885468729,-71.04938213616,
    -53.50504494285));
#184 = CARTESIAN_POINT('',(28.803032111705,-70.16332843773,
    -53.3162397466));
#185 = CARTESIAN_POINT('',(31.036159951575,-69.19748686785,-53.065248446
    ));
#186 = CARTESIAN_POINT('',(33.222096686601,-68.15556207335,
    -52.75365476498));
#187 = CARTESIAN_POINT('',(35.356202494174,-67.04171279494,
    -52.3834500298));
#188 = CARTESIAN_POINT('',(38.462433765486,-65.27616708041,
    -51.74603965867));
#189 = CARTESIAN_POINT('',(39.476887911787,-64.67529669628,
    -51.52129554838));
#190 = CARTESIAN_POINT('',(40.4772507543,-64.05843426925,-51.28304978208
    ));
#191 = CARTESIAN_POINT('',(41.463107757406,-63.42611695561,
    -51.03159337905));
#192 = CARTESIAN_POINT('',(42.434090122848,-62.77888757795,
    -50.76722959926));
#193 = CARTESIAN_POINT('',(43.389871772413,-62.11729153828,
    -50.49027128275));
#194 = CARTESIAN_POINT('',(44.330166330619,-61.44187373113,
    -50.20103818906));
#195 = CARTESIAN_POINT('',(46.953679352848,-59.48763253928,
    -49.34640283911));
#196 = CARTESIAN_POINT('',(48.599478221601,-58.17725839131,
    -48.75260274955));
#197 = CARTESIAN_POINT('',(50.190618311298,-56.82538417957,
    -48.12045433848));
#198 = CARTESIAN_POINT('',(51.726038082517,-55.43527585877,
    -47.45199401924));
#199 = CARTESIAN_POINT('',(53.205047498898,-54.01008932594,
    -46.74925102416));
#200 = CARTESIAN_POINT('',(54.627268650757,-52.55283236741,
    -46.01421054726));
#201 = CARTESIAN_POINT('',(55.992586362211,-51.06633339826,
    -45.24878335329));
#202 = CARTESIAN_POINT('',(58.935471160357,-47.66331393394,
    -43.46306313264));
#203 = CARTESIAN_POINT('',(60.481148644389,-45.73198091027,
    -42.4268167585));
#204 = CARTESIAN_POINT('',(61.938465567679,-43.76422418379,
    -41.34952142772));
#205 = CARTESIAN_POINT('',(63.308106497209,-41.76469960865,
    -40.2344824323));
#206 = CARTESIAN_POINT('',(64.591042418856,-39.73768815959,
    -39.08480143508));
#207 = CARTESIAN_POINT('',(65.788460709735,-37.68707308241,
    -37.90334804738));
#208 = CARTESIAN_POINT('',(66.901698897205,-35.61631866814,
    -36.69273320847));
#209 = CARTESIAN_POINT('',(69.953504691494,-29.43303780523,
    -33.0279930638));
#210 = CARTESIAN_POINT('',(71.655493296047,-25.27365495755,
    -30.49856727991));
#211 = CARTESIAN_POINT('',(73.050172338765,-21.07168492445,
    -27.88381235422));
#212 = CARTESIAN_POINT('',(74.148029331166,-16.84601652639,
    -25.19854893882));
#213 = CARTESIAN_POINT('',(74.959007788503,-12.61313002544,
    -22.45585305167));
#214 = CARTESIAN_POINT('',(75.492238267355,-8.38710236614,
    -19.66701043248));
#215 = CARTESIAN_POINT('',(75.755781179374,-4.179625819279,
    -16.84148220845));
#216 = CARTESIAN_POINT('',(75.755781179374,-1.42108547152E-14,
    -13.98674468473));
#217 = ORIENTED_EDGE('',*,*,#68,.T.);
#218 = ORIENTED_EDGE('',*,*,#219,.T.);
#219 = EDGE_CURVE('',#71,#220,#222,.T.);
#220 = VERTEX_POINT('',#221);
#221 = CARTESIAN_POINT('',(36.868767570043,36.868767570043,
    18.311909297882));
#222 = B_SPLINE_CURVE_WITH_KNOTS('',1,(#223,#224),.UNSPECIFIED.,.F.,.F.,
  (2,2),(0.,1.),.PIECEWISE_BEZIER_KNOTS.);
#223 = CARTESIAN_POINT('',(50.363673106903,-13.49490553686,
    -18.55685827216));
#224 = CARTESIAN_POINT('',(36.838881720971,36.980303077208,
    18.393558955975));
#225 = ORIENTED_EDGE('',*,*,#226,.T.);
#226 = EDGE_CURVE('',#220,#227,#229,.T.);
#227 = VERTEX_POINT('',#228);
#228 = CARTESIAN_POINT('',(53.567426584731,53.567426584731,
    26.661238805227));
#229 = B_SPLINE_CURVE_WITH_KNOTS('',1,(#230,#231),.UNSPECIFIED.,.F.,.F.,
  (2,2),(0.,1.),.PIECEWISE_BEZIER_KNOTS.);
#230 = CARTESIAN_POINT('',(-16.99669247791,-16.99669247791,
    -8.620820726097));
#231 = CARTESIAN_POINT('',(54.953270555356,54.953270555356,
    27.354160790539));
#232 = ORIENTED_EDGE('',*,*,#233,.F.);
#233 = EDGE_CURVE('',#100,#227,#234,.T.);
#234 = B_SPLINE_CURVE_WITH_KNOTS('',8,(#235,#236,#237,#238,#239,#240,
    #241,#242,#243,#244,#245,#246,#247,#248,#249,#250,#251,#252,#253,
    #254,#255,#256,#257,#258,#259,#260,#261,#262,#263,#264,#265,#266,
    #267,#268,#269,#270,#271,#272,#273,#274,#275,#276,#277,#278,#279,
    #280,#281,#282,#283,#284,#285,#286,#287,#288,#289,#290,#291,#292,
    #293,#294,#295,#296,#297,#298,#299,#300,#301,#302,#303,#304,#305,
    #306),.UNSPECIFIED.,.F.,.F.,(9,7,7,7,7,7,7,7,7,7,9),(0.,
    0.122909118116,0.350223601822,0.434540805499,0.543676893702,
    0.631644802661,0.706519100075,0.769525564869,0.863867848288,
    0.911572378013,1.),.UNSPECIFIED.);
#235 = CARTESIAN_POINT('',(75.755781179374,-1.870014932524E-14,
    -13.98674468473));
#236 = CARTESIAN_POINT('',(75.755781179374,2.52347533978,-12.26317897475
    ));
#237 = CARTESIAN_POINT('',(75.659714265562,5.036292922581,-10.5293111827
    ));
#238 = CARTESIAN_POINT('',(75.469000000302,7.536114947053,
    -8.786997854542));
#239 = CARTESIAN_POINT('',(75.184867258612,10.020632715253,
    -7.038040760032));
#240 = CARTESIAN_POINT('',(74.808382154869,12.487571354826,
    -5.284188778356));
#241 = CARTESIAN_POINT('',(74.340458329645,14.93469126376,
    -3.527138793967));
#242 = CARTESIAN_POINT('',(73.781849596682,17.359786277708,
    -1.768535602625));
#243 = CARTESIAN_POINT('',(71.933340016268,24.201012994998,
    3.242409874594));
#244 = CARTESIAN_POINT('',(70.425741291269,28.556988925198,
    6.493506480084));
#245 = CARTESIAN_POINT('',(68.613921216487,32.816384513963,9.73431385684
    ));
#246 = CARTESIAN_POINT('',(66.499453359849,36.964524180389,
    12.95452041371));
#247 = CARTESIAN_POINT('',(64.082988820394,40.984711254183,
    16.142602953515));
#248 = CARTESIAN_POINT('',(61.364357202613,44.858235442634,
    19.285813293119));
#249 = CARTESIAN_POINT('',(58.342690657664,48.564403207501,
    22.370176310478));
#250 = CARTESIAN_POINT('',(53.780466794668,53.383740754277,
    26.496789985436));
#251 = CARTESIAN_POINT('',(52.504128702493,54.661260867045,
    27.602938532157));
#252 = CARTESIAN_POINT('',(51.185769931269,55.911091181475,
    28.697864912907));
#253 = CARTESIAN_POINT('',(49.82534698334,57.131874000938,
    29.780649764269));
#254 = CARTESIAN_POINT('',(48.422848912918,58.322155856148,
    30.850302351475));
#255 = CARTESIAN_POINT('',(46.978302215787,59.480390990338,
    31.905762053957));
#256 = CARTESIAN_POINT('',(45.491773680692,60.604943342862,
    32.945899198321));
#257 = CARTESIAN_POINT('',(41.985081358785,63.103821657774,
    35.294434064426));
#258 = CARTESIAN_POINT('',(39.936752104749,64.454153620726,
    36.591598218039));
#259 = CARTESIAN_POINT('',(37.818568236455,65.741395810335,
    37.858455536794));
#260 = CARTESIAN_POINT('',(35.631028232262,66.961452779638,
    39.092117550525));
#261 = CARTESIAN_POINT('',(33.37499764795,68.109875976272,40.28938743376
    ));
#262 = CARTESIAN_POINT('',(31.051763643195,69.181920760565,
    41.446788970768));
#263 = CARTESIAN_POINT('',(28.663090639294,70.172605209886,
    42.560596533602));
#264 = CARTESIAN_POINT('',(24.235020555062,71.805563078878,
    44.486320570062));
#265 = CARTESIAN_POINT('',(22.217843020275,72.478107389952,
    45.314845987949));
#266 = CARTESIAN_POINT('',(20.161044114707,73.091678602387,
    46.110343244514));
#267 = CARTESIAN_POINT('',(18.066278466406,73.64345385677,
    46.870581472974));
#268 = CARTESIAN_POINT('',(15.935584215634,74.130563320032,
    47.593227535334));
#269 = CARTESIAN_POINT('',(13.771418604293,74.550155252156,
    48.27588395046));
#270 = CARTESIAN_POINT('',(11.576700659705,74.899475293934,
    48.91613523695));
#271 = CARTESIAN_POINT('',(7.463731724645,75.411291206696,
    50.018437564001));
#272 = CARTESIAN_POINT('',(5.552925153328,75.593859811763,
    50.492836113639));
#273 = CARTESIAN_POINT('',(3.624653502555,75.722070413269,
    50.933303787775));
#274 = CARTESIAN_POINT('',(1.681361160622,75.7944526138,51.338388932192)
  );
#275 = CARTESIAN_POINT('',(-0.274267993758,75.809695744494,
    51.706705159515));
#276 = CARTESIAN_POINT('',(-2.239301313951,75.766694449971,
    52.036960786395));
#277 = CARTESIAN_POINT('',(-4.210546176277,75.664605109914,
    52.327995318753));
#278 = CARTESIAN_POINT('',(-7.84564322031,75.366849822589,
    52.789893607124));
#279 = CARTESIAN_POINT('',(-9.508771893231,75.188574670273,
    52.972503085686));
#280 = CARTESIAN_POINT('',(-11.17182756739,74.967776924918,
    53.126055733385));
#281 = CARTESIAN_POINT('',(-12.83268634721,74.704307451281,
    53.250060989086));
#282 = CARTESIAN_POINT('',(-14.48919640603,74.398184066759,
    53.344137210688));
#283 = CARTESIAN_POINT('',(-16.13917907813,74.04960050246,
    53.408017995498));
#284 = CARTESIAN_POINT('',(-17.7804303688,73.658938952899,
    53.441561028195));
#285 = CARTESIAN_POINT('',(-21.85182982082,72.57970537469,
    53.449548600167));
#286 = CARTESIAN_POINT('',(-24.26876660378,71.839493355185,
    53.386304519704));
#287 = CARTESIAN_POINT('',(-26.65379142332,71.008135845331,
    53.254966616964));
#288 = CARTESIAN_POINT('',(-28.99993063393,70.088464324819,
    53.056192562834));
#289 = CARTESIAN_POINT('',(-31.30090539215,69.084006729759,
    52.791242874386));
#290 = CARTESIAN_POINT('',(-33.55107615141,67.99887494266,
    52.461893910939));
#291 = CARTESIAN_POINT('',(-35.7454050119,66.837689106135,
    52.070379288935));
#292 = CARTESIAN_POINT('',(-38.95851666756,64.982497313139,
    51.391299975456));
#293 = CARTESIAN_POINT('',(-40.02226620911,64.341261204047,
    51.148007245769));
#294 = CARTESIAN_POINT('',(-41.07015491193,63.682454364898,
    50.889810749324));
#295 = CARTESIAN_POINT('',(-42.10171332108,63.006710204493,
    50.617057196156));
#296 = CARTESIAN_POINT('',(-43.11652819521,62.314667657749,
    50.330107358513));
#297 = CARTESIAN_POINT('',(-44.11423853662,61.606967234833,
    50.029332645815));
#298 = CARTESIAN_POINT('',(-45.09453162137,60.884247070291,
    49.715111679605));
#299 = CARTESIAN_POINT('',(-47.84147868155,58.780796684806,
    48.781154551958));
#300 = CARTESIAN_POINT('',(-49.56501973611,57.365040340968,
    48.129604891548));
#301 = CARTESIAN_POINT('',(-51.22612213792,55.903852500783,
    47.435597875526));
#302 = CARTESIAN_POINT('',(-52.82368358402,54.401116968028,
    46.701584455761));
#303 = CARTESIAN_POINT('',(-54.35704916868,52.860563185704,
    45.929992033122));
#304 = CARTESIAN_POINT('',(-55.82593427264,51.285719269326,
    45.123178266383));
#305 = CARTESIAN_POINT('',(-57.23036069652,49.679873677969,
    44.283393204652));
#306 = CARTESIAN_POINT('',(-58.57060603831,48.046045523041,
    43.412749743326));
#307 = B_SPLINE_SURFACE_WITH_KNOTS('',1,1,(
    (#308,#309)
    ,(#310,#311
    )),.UNSPECIFIED.,.F.,.F.,.F.,(2,2),(2,2),(0.,500.),(0.,500.),
  .PIECEWISE_BEZIER_KNOTS.);
#308 = CARTESIAN_POINT('',(-333.1254297379,60.228327182939,
    101.98042295787));
#309 = CARTESIAN_POINT('',(-106.0633571219,-287.1788642917,
    -176.8583449547));
#310 = CARTESIAN_POINT('',(106.03347127288,287.2903997989,
    176.69504563854));
#311 = CARTESIAN_POINT('',(333.09554388885,-60.11679167577,
    -102.143722274));
#312 = ADVANCED_FACE('',(#313),#330,.T.);
#313 = FACE_BOUND('',#314,.T.);
#314 = EDGE_LOOP('',(#315,#316,#323,#328,#329));
#315 = ORIENTED_EDGE('',*,*,#219,.T.);
#316 = ORIENTED_EDGE('',*,*,#317,.T.);
#317 = EDGE_CURVE('',#220,#318,#320,.T.);
#318 = VERTEX_POINT('',#319);
#319 = CARTESIAN_POINT('',(-13.38337002969,50.333787257831,
    -18.47520861406));
#320 = B_SPLINE_CURVE_WITH_KNOTS('',1,(#321,#322),.UNSPECIFIED.,.F.,.F.,
  (2,2),(0.,1.),.PIECEWISE_BEZIER_KNOTS.);
#321 = CARTESIAN_POINT('',(36.868768043248,36.868767443248,
    18.311909644293));
#322 = CARTESIAN_POINT('',(-13.3833705029,50.333787384626,
    -18.47520896047));
#323 = ORIENTED_EDGE('',*,*,#324,.T.);
#324 = EDGE_CURVE('',#318,#49,#325,.T.);
#325 = B_SPLINE_CURVE_WITH_KNOTS('',1,(#326,#327),.UNSPECIFIED.,.F.,.F.,
  (2,2),(0.,1.),.PIECEWISE_BEZIER_KNOTS.);
#326 = CARTESIAN_POINT('',(-13.41325587876,50.445322764996,
    -18.39355895597));
#327 = CARTESIAN_POINT('',(0.111535507165,-2.988584907227E-02,
    -55.34397618411));
#328 = ORIENTED_EDGE('',*,*,#55,.F.);
#329 = ORIENTED_EDGE('',*,*,#86,.T.);
#330 = B_SPLINE_SURFACE_WITH_KNOTS('',1,1,(
    (#331,#332)
    ,(#333,#334
    )),.UNSPECIFIED.,.F.,.F.,.F.,(2,2),(2,2),(0.,64.),(0.,64.),
  .PIECEWISE_BEZIER_KNOTS.);
#331 = CARTESIAN_POINT('',(0.,0.,-55.4256258422));
#332 = CARTESIAN_POINT('',(-13.52479138593,50.475208614068,
    -18.47520861406));
#333 = CARTESIAN_POINT('',(50.475208614068,-13.52479138593,
    -18.47520861406));
#334 = CARTESIAN_POINT('',(36.950417228136,36.950417228136,
    18.475208614068));
#335 = ADVANCED_FACE('',(#336),#355,.F.);
#336 = FACE_BOUND('',#337,.F.);
#337 = EDGE_LOOP('',(#338,#339,#340,#350));
#338 = ORIENTED_EDGE('',*,*,#324,.T.);
#339 = ORIENTED_EDGE('',*,*,#48,.T.);
#340 = ORIENTED_EDGE('',*,*,#341,.T.);
#341 = EDGE_CURVE('',#40,#342,#344,.T.);
#342 = VERTEX_POINT('',#343);
#343 = CARTESIAN_POINT('',(-19.51042928074,73.200283683729,
    -26.84492720149));
#344 = B_SPLINE_CURVE_WITH_KNOTS('',4,(#345,#346,#347,#348,#349),
  .UNSPECIFIED.,.F.,.F.,(5,5),(0.,1.),.PIECEWISE_BEZIER_KNOTS.);
#345 = CARTESIAN_POINT('',(-19.51042928074,73.200283683729,-53.9000006)
  );
#346 = CARTESIAN_POINT('',(-19.51042928074,73.200283683729,
    -27.06261314995));
#347 = CARTESIAN_POINT('',(-19.51042928074,73.200283683729,
    -0.225225699917));
#348 = CARTESIAN_POINT('',(-19.51042928074,73.200283683729,
    26.612161750126));
#349 = CARTESIAN_POINT('',(-19.51042928074,73.200283683729,
    53.449549200167));
#350 = ORIENTED_EDGE('',*,*,#351,.T.);
#351 = EDGE_CURVE('',#342,#318,#352,.T.);
#352 = B_SPLINE_CURVE_WITH_KNOTS('',1,(#353,#354),.UNSPECIFIED.,.F.,.F.,
  (2,2),(0.,1.),.PIECEWISE_BEZIER_KNOTS.);
#353 = CARTESIAN_POINT('',(-21.22434192799,79.596692763002,
    -29.1861754175));
#354 = CARTESIAN_POINT('',(-3.783185338498,14.50541022824,
    -5.361112444871));
#355 = B_SPLINE_SURFACE_WITH_KNOTS('',1,1,(
    (#356,#357)
    ,(#358,#359
    )),.UNSPECIFIED.,.F.,.F.,.F.,(2,2),(2,2),(0.,500.),(0.,500.),
  .PIECEWISE_BEZIER_KNOTS.);
#356 = CARTESIAN_POINT('',(45.849768055684,-170.7272935685,
    306.18621784789));
#357 = CARTESIAN_POINT('',(-79.15023194431,295.77905737756,
    176.77669529663));
#358 = CARTESIAN_POINT('',(79.343417109574,-295.7272935685,
    -176.7766952966));
#359 = CARTESIAN_POINT('',(-45.65658289042,170.77905737756,
    -306.1862178478));
#360 = ADVANCED_FACE('',(#361),#420,.F.);
#361 = FACE_BOUND('',#362,.F.);
#362 = EDGE_LOOP('',(#363,#417,#418,#419));
#363 = ORIENTED_EDGE('',*,*,#364,.F.);
#364 = EDGE_CURVE('',#227,#342,#365,.T.);
#365 = B_SPLINE_CURVE_WITH_KNOTS('',8,(#366,#367,#368,#369,#370,#371,
    #372,#373,#374,#375,#376,#377,#378,#379,#380,#381,#382,#383,#384,
    #385,#386,#387,#388,#389,#390,#391,#392,#393,#394,#395,#396,#397,
    #398,#399,#400,#401,#402,#403,#404,#405,#406,#407,#408,#409,#410,
    #411,#412,#413,#414,#415,#416),.UNSPECIFIED.,.F.,.F.,(9,7,7,7,7,7,7,
    9),(0.,0.199184003835,0.330598827953,0.429734395369,0.505524418883,
    0.697435104175,0.912190745247,1.),.UNSPECIFIED.);
#366 = CARTESIAN_POINT('',(75.755781179374,1.112611798805E-14,
    51.619686300141));
#367 = CARTESIAN_POINT('',(75.755781179374,4.13713602052,50.86253785893)
  );
#368 = CARTESIAN_POINT('',(75.497569239206,8.22713400398,49.937654242323
    ));
#369 = CARTESIAN_POINT('',(74.991445171247,12.242342036818,
    48.857131004442));
#370 = CARTESIAN_POINT('',(74.252266971415,16.161249839602,
    47.635052999515));
#371 = CARTESIAN_POINT('',(73.296653571422,19.967198514536,
    46.28581995898));
#372 = CARTESIAN_POINT('',(72.14182230802,23.647818357557,
    44.823455355415));
#373 = CARTESIAN_POINT('',(70.804463862548,27.194497838506,
    43.260935155623));
#374 = CARTESIAN_POINT('',(68.307069437148,32.849993372653,
    40.520155523196));
#375 = CARTESIAN_POINT('',(67.241456059023,35.037589150259,
    39.391970236722));
#376 = CARTESIAN_POINT('',(66.10724234899,37.16330577218,38.228254723675
    ));
#377 = CARTESIAN_POINT('',(64.908519690787,39.2260944186,37.031995398463
    ));
#378 = CARTESIAN_POINT('',(63.649156293801,41.225211659234,
    35.805970354415));
#379 = CARTESIAN_POINT('',(62.332765894732,43.160186596409,
    34.552733999856));
#380 = CARTESIAN_POINT('',(60.962674478857,45.030785778984,
    33.274600749499));
#381 = CARTESIAN_POINT('',(58.470082276928,48.199513808072,
    30.992211136779));
#382 = CARTESIAN_POINT('',(57.369465888906,49.525350482318,
    29.997831211828));
#383 = CARTESIAN_POINT('',(56.241345683145,50.814453945166,
    28.991388474278));
#384 = CARTESIAN_POINT('',(55.086966340469,52.066812805743,
    27.973735141614));
#385 = CARTESIAN_POINT('',(53.907507560641,53.282436391951,
    26.945675256638));
#386 = CARTESIAN_POINT('',(52.704083237943,54.461353467916,
    25.90796435909));
#387 = CARTESIAN_POINT('',(51.47773964791,55.603609523943,
    24.861308743147));
#388 = CARTESIAN_POINT('',(49.275126122957,57.554544284843,
    22.999849886437));
#389 = CARTESIAN_POINT('',(48.307982404347,58.378425239268,
    22.188497762564));
#390 = CARTESIAN_POINT('',(47.32846149859,59.180928860875,
    21.372604186095));
#391 = CARTESIAN_POINT('',(46.336987314331,59.962076829657,
    20.552454724303));
#392 = CARTESIAN_POINT('',(45.333967659675,60.721889146991,
    19.728324254799));
#393 = CARTESIAN_POINT('',(44.319794242189,61.460384135636,
    18.900476965529));
#394 = CARTESIAN_POINT('',(43.294842668898,62.177578439734,
    18.069166354772));
#395 = CARTESIAN_POINT('',(39.637773708928,64.635622557552,
    15.121488508044));
#396 = CARTESIAN_POINT('',(36.94943995002,66.2611677333,12.987826989124)
  );
#397 = CARTESIAN_POINT('',(34.20013613522,67.75051003313,10.83744900392)
  );
#398 = CARTESIAN_POINT('',(31.395175191605,69.103669052612,
    8.673979762874));
#399 = CARTESIAN_POINT('',(28.539557450279,70.320393421125,6.50088055966
    ));
#400 = CARTESIAN_POINT('',(25.6379859438,71.400195001774,4.321452960504)
  );
#401 = CARTESIAN_POINT('',(22.694857558411,72.342320371878,2.13883798048
    ));
#402 = CARTESIAN_POINT('',(16.378790056044,74.044627910081,
    -2.486660251664));
#403 = CARTESIAN_POINT('',(12.996909465659,74.769662547697,
    -4.929218199174));
#404 = CARTESIAN_POINT('',(9.574217186138,75.319324057586,
    -7.367555538807));
#405 = CARTESIAN_POINT('',(6.116552184304,75.691399346532,
    -9.797279157885));
#406 = CARTESIAN_POINT('',(2.629996043603,75.88306448376,-12.21371844246
    ));
#407 = CARTESIAN_POINT('',(-0.879112549559,75.890954606129,
    -14.61192817652));
#408 = CARTESIAN_POINT('',(-4.404183725877,75.711101891838,
    -16.98668123384));
#409 = CARTESIAN_POINT('',(-9.383476993339,75.186436007693,
    -20.29158126091));
#410 = CARTESIAN_POINT('',(-10.8300146524,75.001985822847,
    -21.24582812913));
#411 = CARTESIAN_POINT('',(-12.27752525974,74.785030747299,
    -22.1947907255));
#412 = CARTESIAN_POINT('',(-13.72548753667,74.535232681518,
    -23.13805113356));
#413 = CARTESIAN_POINT('',(-15.17335169628,74.252237132362,
    -24.07516896511));
#414 = CARTESIAN_POINT('',(-16.62053941021,73.935673638536,
    -25.00568141542));
#415 = CARTESIAN_POINT('',(-18.06644377538,73.58515619606,
    -25.92910331835));
#416 = CARTESIAN_POINT('',(-19.51042928074,73.200283683729,
    -26.84492720149));
#417 = ORIENTED_EDGE('',*,*,#226,.F.);
#418 = ORIENTED_EDGE('',*,*,#317,.T.);
#419 = ORIENTED_EDGE('',*,*,#351,.F.);
#420 = B_SPLINE_SURFACE_WITH_KNOTS('',1,1,(
    (#421,#422)
    ,(#423,#424
    )),.UNSPECIFIED.,.F.,.F.,.F.,(2,2),(2,2),(0.,500.),(0.,500.),
  .PIECEWISE_BEZIER_KNOTS.);
#421 = CARTESIAN_POINT('',(60.228327182939,-333.1254297379,
    101.98042295787));
#422 = CARTESIAN_POINT('',(287.2903997989,106.03347127288,
    176.69504563854));
#423 = CARTESIAN_POINT('',(-287.1788642917,-106.0633571219,
    -176.8583449547));
#424 = CARTESIAN_POINT('',(-60.11679167577,333.09554388885,
    -102.143722274));
#425 = ADVANCED_FACE('',(#426),#435,.T.);
#426 = FACE_BOUND('',#427,.T.);
#427 = EDGE_LOOP('',(#428,#429,#430,#431,#432,#433,#434));
#428 = ORIENTED_EDGE('',*,*,#39,.T.);
#429 = ORIENTED_EDGE('',*,*,#341,.T.);
#430 = ORIENTED_EDGE('',*,*,#364,.F.);
#431 = ORIENTED_EDGE('',*,*,#233,.F.);
#432 = ORIENTED_EDGE('',*,*,#99,.F.);
#433 = ORIENTED_EDGE('',*,*,#77,.T.);
#434 = ORIENTED_EDGE('',*,*,#30,.T.);
#435 = CYLINDRICAL_SURFACE('',#436,75.755781179374);
#436 = AXIS2_PLACEMENT_3D('',#437,#438,#439);
#437 = CARTESIAN_POINT('',(0.,0.,-53.9));
#438 = DIRECTION('',(0.,0.,1.));
#439 = DIRECTION('',(1.,0.,0.));
#440 = ( GEOMETRIC_REPRESENTATION_CONTEXT(3) 
GLOBAL_UNCERTAINTY_ASSIGNED_CONTEXT((#444)) GLOBAL_UNIT_ASSIGNED_CONTEXT
((#441,#442,#443)) REPRESENTATION_CONTEXT('Context #1',
  '3D Context with UNIT and UNCERTAINTY') );
#441 = ( LENGTH_UNIT() NAMED_UNIT(*) SI_UNIT(.MILLI.,.METRE.) );
#442 = ( NAMED_UNIT(*) PLANE_ANGLE_UNIT() SI_UNIT($,.RADIAN.) );
#443 = ( NAMED_UNIT(*) SI_UNIT($,.STERADIAN.) SOLID_ANGLE_UNIT() );
#444 = UNCERTAINTY_MEASURE_WITH_UNIT(LENGTH_MEASURE(5.E-06),#441,
  'distance_accuracy_value','confusion accuracy');
#445 = PRODUCT_RELATED_PRODUCT_CATEGORY('part',$,(#7));
ENDSEC;
END-ISO-10303-21;
