ISO-10303-21;
HEADER;
FILE_DESCRIPTION(('FreeCAD Model'),'2;1');
FILE_NAME('Open CASCADE Shape Model','2026-07-29T20:08:02',('FreeCAD'),(
    'FreeCAD'),'Open CASCADE STEP processor 7.8','FreeCAD','Unknown');
FILE_SCHEMA(('AUTOMOTIVE_DESIGN { 1 0 10303 214 1 1 1 1 }'));
ENDSEC;
DATA;
#1 = APPLICATION_PROTOCOL_DEFINITION('international standard',
  'automotive_design',2000,#2);
#2 = APPLICATION_CONTEXT(
  'core data for automotive mechanical design processes');
#3 = SHAPE_DEFINITION_REPRESENTATION(#4,#10);
#4 = PRODUCT_DEFINITION_SHAPE('','',#5);
#5 = PRODUCT_DEFINITION('design','',#6,#9);
#6 = PRODUCT_DEFINITION_FORMATION('','',#7);
#7 = PRODUCT('Open CASCADE STEP translator 7.8 10',
  'Open CASCADE STEP translator 7.8 10','',(#8));
#8 = PRODUCT_CONTEXT('',#2,'mechanical');
#9 = PRODUCT_DEFINITION_CONTEXT('part definition',#2,'design');
#10 = ADVANCED_BREP_SHAPE_REPRESENTATION('',(#11,#15),#375);
#11 = AXIS2_PLACEMENT_3D('',#12,#13,#14);
#12 = CARTESIAN_POINT('',(0.,0.,0.));
#13 = DIRECTION('',(0.,0.,1.));
#14 = DIRECTION('',(1.,0.,-0.));
#15 = MANIFOLD_SOLID_BREP('',#16);
#16 = CLOSED_SHELL('',(#17,#252,#287,#302,#325,#347,#363));
#17 = ADVANCED_FACE('',(#18),#247,.T.);
#18 = FACE_BOUND('',#19,.T.);
#19 = EDGE_LOOP('',(#20,#34,#77,#228,#240));
#20 = ORIENTED_EDGE('',*,*,#21,.F.);
#21 = EDGE_CURVE('',#22,#24,#26,.T.);
#22 = VERTEX_POINT('',#23);
#23 = CARTESIAN_POINT('',(-45.13770419723,-44.88770419723,
    -22.61460527409));
#24 = VERTEX_POINT('',#25);
#25 = CARTESIAN_POINT('',(-45.13770419723,-44.88770419723,-48.));
#26 = B_SPLINE_CURVE_WITH_KNOTS('',6,(#27,#28,#29,#30,#31,#32,#33),
  .UNSPECIFIED.,.F.,.F.,(7,7),(0.,1.),.PIECEWISE_BEZIER_KNOTS.);
#27 = CARTESIAN_POINT('',(-45.13770419723,-44.88770419723,
    44.797340961699));
#28 = CARTESIAN_POINT('',(-45.13770419723,-44.88770419723,
    33.361360528048));
#29 = CARTESIAN_POINT('',(-45.13770419723,-44.88770419723,
    17.510707771648));
#30 = CARTESIAN_POINT('',(-45.13770419723,-44.88770419723,
    -1.730806635355));
#31 = CARTESIAN_POINT('',(-45.13770419723,-44.88770419723,
    -22.33723389587));
#32 = CARTESIAN_POINT('',(-45.13770419723,-44.88770419723,
    -40.19247200879));
#33 = CARTESIAN_POINT('',(-45.13770419723,-44.88770419723,-48.0000006));
#34 = ORIENTED_EDGE('',*,*,#35,.F.);
#35 = EDGE_CURVE('',#36,#22,#38,.T.);
#36 = VERTEX_POINT('',#37);
#37 = CARTESIAN_POINT('',(-61.48873451472,16.475856756831,
    22.289932527998));
#38 = B_SPLINE_CURVE_WITH_KNOTS('',7,(#39,#40,#41,#42,#43,#44,#45,#46,
    #47,#48,#49,#50,#51,#52,#53,#54,#55,#56,#57,#58,#59,#60,#61,#62,#63,
    #64,#65,#66,#67,#68,#69,#70,#71,#72,#73,#74,#75,#76),.UNSPECIFIED.,
  .F.,.F.,(8,6,6,6,6,6,8),(0.,0.173187488375,0.300608839335,
    0.395246370126,0.644340943055,0.897723979452,1.),.UNSPECIFIED.);
#39 = CARTESIAN_POINT('',(-47.93512791562,41.887251521303,
    37.165755760845));
#40 = CARTESIAN_POINT('',(-49.7042157064,39.862734598728,36.106750524006
    ));
#41 = CARTESIAN_POINT('',(-51.34884240694,37.779320582487,
    34.984739863683));
#42 = CARTESIAN_POINT('',(-52.86959668012,35.646461695391,
    33.806287500901));
#43 = CARTESIAN_POINT('',(-54.26799205874,33.472709492573,
    32.577511252165));
#44 = CARTESIAN_POINT('',(-55.54619581704,31.265627063641,
    31.303973442458));
#45 = CARTESIAN_POINT('',(-56.7067758919,29.031709761933,29.990580445677
    ));
#46 = CARTESIAN_POINT('',(-58.52182413055,25.116924865819,
    27.648909518674));
#47 = CARTESIAN_POINT('',(-59.22894372189,23.446009116838,
    26.637064705301));
#48 = CARTESIAN_POINT('',(-59.87489921235,21.765759928143,25.60765122669
    ));
#49 = CARTESIAN_POINT('',(-60.46075138136,20.078193362744,
    24.562240215593));
#50 = CARTESIAN_POINT('',(-60.98754448669,18.385148752541,
    23.502279071498));
#51 = CARTESIAN_POINT('',(-61.45629446621,16.688287570631,
    22.429088531171));
#52 = CARTESIAN_POINT('',(-62.17372350569,13.727075570459,
    20.537841748989));
#53 = CARTESIAN_POINT('',(-62.44799010468,12.463789634982,
    19.725195680257));
#54 = CARTESIAN_POINT('',(-62.69116265432,11.199850597145,
    18.906412928331));
#55 = CARTESIAN_POINT('',(-62.90361778428,9.935844752958,18.08196286885)
  );
#56 = CARTESIAN_POINT('',(-63.08571350423,8.672327589296,17.252290426722
    ));
#57 = CARTESIAN_POINT('',(-63.23778875351,7.409823826507,16.417816022812
    ));
#58 = CARTESIAN_POINT('',(-63.68226294804,2.829770544547,13.370925879153
    ));
#59 = CARTESIAN_POINT('',(-63.79856038828,-0.478470517755,
    11.132639121437));
#60 = CARTESIAN_POINT('',(-63.71500064869,-3.767387699683,8.870974417007
    ));
#61 = CARTESIAN_POINT('',(-63.43625907522,-7.028800645524,6.592374700376
    ));
#62 = CARTESIAN_POINT('',(-62.96619534063,-10.25491423339,4.302870507998
    ));
#63 = CARTESIAN_POINT('',(-62.3078105581,-13.43830808207,2.008079296284)
  );
#64 = CARTESIAN_POINT('',(-60.6034975141,-19.75938435483,-2.621207022697
    ));
#65 = CARTESIAN_POINT('',(-59.5512700399,-22.89467756692,-4.955223103768
    ));
#66 = CARTESIAN_POINT('',(-58.30828828013,-25.97035071694,
    -7.283428382352));
#67 = CARTESIAN_POINT('',(-56.87566613822,-28.9780431576,-9.5999085717)
  );
#68 = CARTESIAN_POINT('',(-55.25393641311,-31.90855241875,-11.8982807588
    ));
#69 = CARTESIAN_POINT('',(-53.44310899725,-34.75185356153,
    -14.17169597266));
#70 = CARTESIAN_POINT('',(-50.63455944052,-38.60491826575,
    -17.31738834963));
#71 = CARTESIAN_POINT('',(-49.79598082756,-39.6968756271,-18.21667963507
    ));
#72 = CARTESIAN_POINT('',(-48.9264308386,-40.7720233034,-19.11015784729)
  );
#73 = CARTESIAN_POINT('',(-48.02586836998,-41.82955906036,
    -19.99728257261));
#74 = CARTESIAN_POINT('',(-47.09425261301,-42.8686292941,-20.87747825722
    ));
#75 = CARTESIAN_POINT('',(-46.13154384093,-43.8883294095,-21.75013432167
    ));
#76 = CARTESIAN_POINT('',(-45.1377041959,-44.88770419858,-22.61460527525
    ));
#77 = ORIENTED_EDGE('',*,*,#78,.F.);
#78 = EDGE_CURVE('',#79,#36,#81,.T.);
#79 = VERTEX_POINT('',#80);
#80 = CARTESIAN_POINT('',(-16.64654640428,61.442744249441,
    -22.61460527352));
#81 = B_SPLINE_CURVE_WITH_KNOTS('',7,(#82,#83,#84,#85,#86,#87,#88,#89,
    #90,#91,#92,#93,#94,#95,#96,#97,#98,#99,#100,#101,#102,#103,#104,
    #105,#106,#107,#108,#109,#110,#111,#112,#113,#114,#115,#116,#117,
    #118,#119,#120,#121,#122,#123,#124,#125,#126,#127,#128,#129,#130,
    #131,#132,#133,#134,#135,#136,#137,#138,#139,#140,#141,#142,#143,
    #144,#145,#146,#147,#148,#149,#150,#151,#152,#153,#154,#155,#156,
    #157,#158,#159,#160,#161,#162,#163,#164,#165,#166,#167,#168,#169,
    #170,#171,#172,#173,#174,#175,#176,#177,#178,#179,#180,#181,#182,
    #183,#184,#185,#186,#187,#188,#189,#190,#191,#192,#193,#194,#195,
    #196,#197,#198,#199,#200,#201,#202,#203,#204,#205,#206,#207,#208,
    #209,#210,#211,#212,#213,#214,#215,#216,#217,#218,#219,#220,#221,
    #222,#223,#224,#225,#226,#227),.UNSPECIFIED.,.F.,.F.,(8,6,6,6,6,6,6,
    6,6,6,6,6,6,6,6,6,6,6,6,6,6,6,6,6,8),(0.,5.821445886485E-02,
    7.81375183413E-02,0.114909923347,0.162104343727,0.198251314437,
    0.225338324713,0.295373608143,0.365637156616,0.392759774617,
    0.428928965002,0.475403483261,0.512114124846,0.531952801702,
    0.572301198609,0.612934928636,0.632828873294,0.669584897992,
    0.715964072871,0.752092023215,0.779158944318,0.849109722217,
    0.928217589479,0.958926118104,1.),.UNSPECIFIED.);
#82 = CARTESIAN_POINT('',(50.052758162592,39.332425918232,
    -44.90909839135));
#83 = CARTESIAN_POINT('',(47.899782863225,42.072209937994,
    -45.20250275155));
#84 = CARTESIAN_POINT('',(45.558232716672,44.691821577618,
    -45.34153349809));
#85 = CARTESIAN_POINT('',(43.044850548756,47.161763451729,
    -45.31981335119));
#86 = CARTESIAN_POINT('',(40.380720808399,49.45978210186,-45.13675780607
    ));
#87 = CARTESIAN_POINT('',(37.589878057205,51.569255454452,
    -44.79607310677));
#88 = CARTESIAN_POINT('',(34.698910231505,53.478770643539,
    -44.30534678846));
#89 = CARTESIAN_POINT('',(30.723297475261,55.765264741156,
    -43.46078745915));
#90 = CARTESIAN_POINT('',(29.701020175067,56.324296573109,
    -43.22916472503));
#91 = CARTESIAN_POINT('',(28.67115425776,56.859183120016,-42.98167503983
    ));
#92 = CARTESIAN_POINT('',(27.634675527258,57.369831388643,
    -42.71875980889));
#93 = CARTESIAN_POINT('',(26.592523147035,57.856224425026,
    -42.44088013697));
#94 = CARTESIAN_POINT('',(25.545596777177,58.318410474658,
    -42.14850997686));
#95 = CARTESIAN_POINT('',(22.55519082168,59.565068583506,-41.27663605353
    ));
#96 = CARTESIAN_POINT('',(20.602318246777,60.291515297189,
    -40.66342312293));
#97 = CARTESIAN_POINT('',(18.641445542006,60.936522566842,
    -40.00549040537));
#98 = CARTESIAN_POINT('',(16.677346175927,61.50141508913,-39.30588698347
    ));
#99 = CARTESIAN_POINT('',(14.714250916182,61.987941855166,
    -38.56760273662));
#100 = CARTESIAN_POINT('',(12.755843853007,62.398112332765,
    -37.79348444383));
#101 = CARTESIAN_POINT('',(8.301845135289,63.165265046462,
    -35.95006144182));
#102 = CARTESIAN_POINT('',(5.811530622057,63.47418749234,-34.85936540814
    ));
#103 = CARTESIAN_POINT('',(3.34066896356,63.6654792101,-33.71958043777)
  );
#104 = CARTESIAN_POINT('',(0.894651915081,63.74396586729,-32.53581524213
    ));
#105 = CARTESIAN_POINT('',(-1.522044117059,63.714479859392,
    -31.31272422211));
#106 = CARTESIAN_POINT('',(-3.905813971254,63.581680461621,
    -30.05443959613));
#107 = CARTESIAN_POINT('',(-8.052301543735,63.172340537682,
    -27.77652584792));
#108 = CARTESIAN_POINT('',(-9.829690856608,62.936732744429,
    -26.77002729485));
#109 = CARTESIAN_POINT('',(-11.58475994762,62.645008022508,
    -25.74663038838));
#110 = CARTESIAN_POINT('',(-13.31635623047,62.29901961737,
    -24.70783804439));
#111 = CARTESIAN_POINT('',(-15.02346144377,61.900521159694,
    -23.6550362089));
#112 = CARTESIAN_POINT('',(-16.70518720624,61.451157084649,
    -22.58949129015));
#113 = CARTESIAN_POINT('',(-19.60138855853,60.578731403593,
    -20.70517777347));
#114 = CARTESIAN_POINT('',(-20.82731124153,60.177312267527,
    -19.89150686394));
#115 = CARTESIAN_POINT('',(-22.03820354919,59.748830193193,
    -19.07181967294));
#116 = CARTESIAN_POINT('',(-23.23375073354,59.293896810421,
    -18.24657938938));
#117 = CARTESIAN_POINT('',(-24.41365462352,58.813092522175,
    -17.41622530027));
#118 = CARTESIAN_POINT('',(-25.57763338269,58.306966171156,
    -16.58117274517));
#119 = CARTESIAN_POINT('',(-29.69310389346,56.403275762646,
    -13.57159228553));
#120 = CARTESIAN_POINT('',(-32.55224667908,54.864829610241,
    -11.37279781652));
#121 = CARTESIAN_POINT('',(-35.29868771708,53.169500428399,
    -9.151912706607));
#122 = CARTESIAN_POINT('',(-37.92794326467,51.32493588914,
    -6.915002663172));
#123 = CARTESIAN_POINT('',(-40.4354525568,49.33794875705,-4.667754451073
    ));
#124 = CARTESIAN_POINT('',(-42.81655041751,47.214488499607,
    -2.415475391991));
#125 = CARTESIAN_POINT('',(-47.32332717602,42.69700069055,2.096656891793
    ));
#126 = CARTESIAN_POINT('',(-49.44773201837,40.30253111693,4.356094099772
    ));
#127 = CARTESIAN_POINT('',(-51.43456228521,37.781004339745,
    6.610272621792));
#128 = CARTESIAN_POINT('',(-53.27778641643,35.137118167607,
    8.853827773462));
#129 = CARTESIAN_POINT('',(-54.97049247084,32.375472906501,
    11.081003431226));
#130 = CARTESIAN_POINT('',(-56.50491803292,29.500599950589,
    13.285652690222));
#131 = CARTESIAN_POINT('',(-58.39987785984,25.364893221338,
    16.300985968308));
#132 = CARTESIAN_POINT('',(-58.90269709912,24.196876680523,
    17.136403858354));
#133 = CARTESIAN_POINT('',(-59.38005618397,23.012929849427,
    17.967056816326));
#134 = CARTESIAN_POINT('',(-59.83140091408,21.813337012029,
    18.792525600083));
#135 = CARTESIAN_POINT('',(-60.25614522428,20.598399298872,
    19.612366611759));
#136 = CARTESIAN_POINT('',(-60.65367154154,19.368434942761,
    20.426111948447));
#137 = CARTESIAN_POINT('',(-61.51628829217,16.463977430356,
    22.309649079961));
#138 = CARTESIAN_POINT('',(-61.95967969466,14.778080206727,
    23.374293393021));
#139 = CARTESIAN_POINT('',(-62.35197618449,13.066861940419,
    24.426050771092));
#140 = CARTESIAN_POINT('',(-62.69152123117,11.331221201142,
    25.463643664071));
#141 = CARTESIAN_POINT('',(-62.97654886665,9.572189106763,26.485673529)
  );
#142 = CARTESIAN_POINT('',(-63.20519363478,7.790933899079,
    27.490623516906));
#143 = CARTESIAN_POINT('',(-63.59431307053,3.673115267909,
    29.744092550366));
#144 = CARTESIAN_POINT('',(-63.7167890501,1.323089631819,30.980343358198
    ));
#145 = CARTESIAN_POINT('',(-63.73878718105,-1.058636132624,
    32.182205305896));
#146 = CARTESIAN_POINT('',(-63.65584907417,-3.468590827135,
    33.345713599711));
#147 = CARTESIAN_POINT('',(-63.46335631966,-5.902469847627,
    34.466406732701));
#148 = CARTESIAN_POINT('',(-63.15670293583,-8.355093868057,
    35.539392050998));
#149 = CARTESIAN_POINT('',(-62.39558400411,-12.76770877617,
    37.365140039201));
#150 = CARTESIAN_POINT('',(-61.98572743384,-14.72283079609,
    38.137772764025));
#151 = CARTESIAN_POINT('',(-61.49976456743,-16.68261078023,
    38.874681322889));
#152 = CARTESIAN_POINT('',(-60.93569684864,-18.64338186818,
    39.57303300747));
#153 = CARTESIAN_POINT('',(-60.29178474145,-20.60093411501,
    40.229853077287));
#154 = CARTESIAN_POINT('',(-59.56671022117,-22.55051844681,
    40.842107983049));
#155 = CARTESIAN_POINT('',(-58.32371738508,-25.53326152445,
    41.711983103825));
#156 = CARTESIAN_POINT('',(-57.8637500318,-26.57579076611,
    42.003264048013));
#157 = CARTESIAN_POINT('',(-57.37978148498,-27.61359479295,
    42.280181788026));
#158 = CARTESIAN_POINT('',(-56.87176359747,-28.64578574904,
    42.542268322311));
#159 = CARTESIAN_POINT('',(-56.33971226301,-29.67143687655,
    42.789068218837));
#160 = CARTESIAN_POINT('',(-55.78371802908,-30.68958531137,
    43.020145319283));
#161 = CARTESIAN_POINT('',(-54.02482364558,-33.75268540748,
    43.672248175588));
#162 = CARTESIAN_POINT('',(-52.7471658473,-35.77135502555,
    44.042754085483));
#163 = CARTESIAN_POINT('',(-51.3727012222,-37.74631684763,
    44.343002683971));
#164 = CARTESIAN_POINT('',(-49.90439143478,-39.66882196869,
    44.570100350795));
#165 = CARTESIAN_POINT('',(-48.3465275809,-41.53035414483,
    44.721934511919));
#166 = CARTESIAN_POINT('',(-46.70493151773,-43.32276190755,
    44.797340361699));
#167 = CARTESIAN_POINT('',(-43.25746735681,-46.76630733326,
    44.795380994091));
#168 = CARTESIAN_POINT('',(-41.45002258413,-48.41685280995,
    44.716931346098));
#169 = CARTESIAN_POINT('',(-39.57270098769,-49.98228593336,
    44.560987109583));
#170 = CARTESIAN_POINT('',(-37.63384671947,-51.45669794566,
    44.328765981623));
#171 = CARTESIAN_POINT('',(-35.64216744825,-52.83575752812,
    44.022456137248));
#172 = CARTESIAN_POINT('',(-33.60659672723,-54.11649941279,
    43.64504171907));
#173 = CARTESIAN_POINT('',(-30.52260553275,-55.87531210317,
    42.982452467017));
#174 = CARTESIAN_POINT('',(-29.5005426965,-56.42947084369,
    42.748500419152));
#175 = CARTESIAN_POINT('',(-28.47105038076,-56.959540621,42.498789149937
    ));
#176 = CARTESIAN_POINT('',(-27.43509631801,-57.46543741594,
    42.233760516034));
#177 = CARTESIAN_POINT('',(-26.39361121099,-57.94715205599,
    41.953875282545));
#178 = CARTESIAN_POINT('',(-25.34748595179,-58.40473946307,
    41.659606356491));
#179 = CARTESIAN_POINT('',(-22.35774343568,-59.63936835015,
    40.782049541973));
#180 = CARTESIAN_POINT('',(-20.40500843247,-60.35842314853,
    40.165209439557));
#181 = CARTESIAN_POINT('',(-18.44463283716,-60.99620011663,
    39.503910125953));
#182 = CARTESIAN_POINT('',(-16.48135034063,-61.5540497602,
    38.801193699474));
#183 = CARTESIAN_POINT('',(-14.51935360376,-62.0337380126,
    38.060039457236));
#184 = CARTESIAN_POINT('',(-12.56229095506,-62.43728441518,
    37.283281334176));
#185 = CARTESIAN_POINT('',(-8.153962757069,-63.1826900036,
    35.451820029393));
#186 = CARTESIAN_POINT('',(-5.707637142313,-63.48070627005,
    34.37766535524));
#187 = CARTESIAN_POINT('',(-3.280288897265,-63.66529562243,
    33.256285908903));
#188 = CARTESIAN_POINT('',(-0.877017879951,-63.74103767531,
    32.092521426688));
#189 = CARTESIAN_POINT('',(1.497935697583,-63.71251699215,
    30.890784296338));
#190 = CARTESIAN_POINT('',(3.841150671544,-63.58415546563,
    29.654996046099));
#191 = CARTESIAN_POINT('',(7.948494962078,-63.18547990701,
    27.401986121521));
#192 = CARTESIAN_POINT('',(9.726050511582,-62.95282165925,
    26.396879222888));
#193 = CARTESIAN_POINT('',(11.481358918507,-62.6640272624,
    25.374827821002));
#194 = CARTESIAN_POINT('',(13.213264029764,-62.32095055353,
    24.337336910942));
#195 = CARTESIAN_POINT('',(14.920744734549,-61.92534610458,
    23.28579433407));
#196 = CARTESIAN_POINT('',(16.602910483812,-61.47885952961,
    22.221468171955));
#197 = CARTESIAN_POINT('',(19.499724215815,-60.61152118829,
    20.339392135294));
#198 = CARTESIAN_POINT('',(20.725797965448,-60.2123304666,
    19.526759899634));
#199 = CARTESIAN_POINT('',(21.936882582695,-59.78608034929,
    18.708092532356));
#200 = CARTESIAN_POINT('',(23.132663040278,-59.33338265175,
    17.883853454791));
#201 = CARTESIAN_POINT('',(24.312841034823,-58.85481800232,
    17.054482132807));
#202 = CARTESIAN_POINT('',(25.47713474034,-58.35093550063,
    16.220394029203));
#203 = CARTESIAN_POINT('',(29.592500180148,-56.45594271298,
    13.215214915472));
#204 = CARTESIAN_POINT('',(32.451557053413,-54.92412920162,
    11.01977972316));
#205 = CARTESIAN_POINT('',(35.198295043888,-53.23560954985,
    8.802150902033));
#206 = CARTESIAN_POINT('',(37.828245100495,-51.3980265679,6.568384382758
    ));
#207 = CARTESIAN_POINT('',(40.336866578526,-49.41818851982,4.3241546197)
  );
#208 = CARTESIAN_POINT('',(42.719519771892,-47.30204054406,
    2.074754035138));
#209 = CARTESIAN_POINT('',(47.517797511869,-42.51262052372,
    -2.719094845017));
#210 = CARTESIAN_POINT('',(49.896257453639,-39.80332984907,
    -5.262970153222));
#211 = CARTESIAN_POINT('',(52.099820973624,-36.93359845868,
    -7.799617608438));
#212 = CARTESIAN_POINT('',(54.11973976405,-33.91000949858,
    -10.32137148366));
#213 = CARTESIAN_POINT('',(55.94580621673,-30.73910100381,-12.8198589574
    ));
#214 = CARTESIAN_POINT('',(57.566442026483,-27.42744187063,
    -15.28600642886));
#215 = CARTESIAN_POINT('',(59.51205544188,-22.64330654579,
    -18.65088079898));
#216 = CARTESIAN_POINT('',(60.023067597535,-21.28529168127,
    -19.58539430907));
#217 = CARTESIAN_POINT('',(60.500219762548,-19.90747999501,
    -20.51287623471));
#218 = CARTESIAN_POINT('',(60.942645048984,-18.51031460098,
    -21.43267157494));
#219 = CARTESIAN_POINT('',(61.349421242716,-17.09427713914,
    -22.34407840273));
#220 = CARTESIAN_POINT('',(61.719572194103,-15.6598886442,
    -23.24634812589));
#221 = CARTESIAN_POINT('',(62.496797227841,-12.26536410945,
    -25.33222291014));
#222 = CARTESIAN_POINT('',(62.874145969663,-10.29125910009,
    -26.50794978572));
#223 = CARTESIAN_POINT('',(63.181672327967,-8.28668888171,
    -27.66399807407));
#224 = CARTESIAN_POINT('',(63.416710077589,-6.253233096404,
    -28.79824484153));
#225 = CARTESIAN_POINT('',(63.576419450615,-4.192776416827,
    -29.90832786784));
#226 = CARTESIAN_POINT('',(63.657822208242,-2.107522069833,
    -30.99165642015));
#227 = CARTESIAN_POINT('',(63.657822208242,-2.13162820728E-14,
    -32.04541745506));
#228 = ORIENTED_EDGE('',*,*,#229,.T.);
#229 = EDGE_CURVE('',#79,#230,#232,.T.);
#230 = VERTEX_POINT('',#231);
#231 = CARTESIAN_POINT('',(-16.64654640469,61.442744250989,-48.));
#232 = B_SPLINE_CURVE_WITH_KNOTS('',6,(#233,#234,#235,#236,#237,#238,
    #239),.UNSPECIFIED.,.F.,.F.,(7,7),(0.,1.),.PIECEWISE_BEZIER_KNOTS.);
#233 = CARTESIAN_POINT('',(-16.64654640469,61.442744250989,
    22.289933127998));
#234 = CARTESIAN_POINT('',(-16.64654640469,61.442744250989,
    9.699944132853));
#235 = CARTESIAN_POINT('',(-16.64654640469,61.442744250989,
    -0.987607161404));
#236 = CARTESIAN_POINT('',(-16.64654640469,61.442744250988,
    -13.71170417708));
#237 = CARTESIAN_POINT('',(-16.64654640469,61.442744250989,
    -29.07209323394));
#238 = CARTESIAN_POINT('',(-16.64654640469,61.442744250989,
    -43.42984286365));
#239 = CARTESIAN_POINT('',(-16.64654640469,61.442744250989,-48.0000006)
  );
#240 = ORIENTED_EDGE('',*,*,#241,.T.);
#241 = EDGE_CURVE('',#230,#24,#242,.T.);
#242 = CIRCLE('',#243,63.657822208242);
#243 = AXIS2_PLACEMENT_3D('',#244,#245,#246);
#244 = CARTESIAN_POINT('',(0.,0.,-48.));
#245 = DIRECTION('',(0.,0.,1.));
#246 = DIRECTION('',(1.,0.,-0.));
#247 = CYLINDRICAL_SURFACE('',#248,63.657822208242);
#248 = AXIS2_PLACEMENT_3D('',#249,#250,#251);
#249 = CARTESIAN_POINT('',(0.,0.,-48.));
#250 = DIRECTION('',(0.,0.,1.));
#251 = DIRECTION('',(1.,0.,-0.));
#252 = ADVANCED_FACE('',(#253),#282,.F.);
#253 = FACE_BOUND('',#254,.F.);
#254 = EDGE_LOOP('',(#255,#256,#263,#270,#277));
#255 = ORIENTED_EDGE('',*,*,#21,.F.);
#256 = ORIENTED_EDGE('',*,*,#257,.T.);
#257 = EDGE_CURVE('',#22,#258,#260,.T.);
#258 = VERTEX_POINT('',#259);
#259 = CARTESIAN_POINT('',(-30.07504521421,-29.82504521421,
    -15.08327578257));
#260 = B_SPLINE_CURVE_WITH_KNOTS('',1,(#261,#262),.UNSPECIFIED.,.F.,.F.,
  (2,2),(0.,1.),.PIECEWISE_BEZIER_KNOTS.);
#261 = CARTESIAN_POINT('',(-58.39923158029,-58.14923158029,
    -29.24536896562));
#262 = CARTESIAN_POINT('',(9.558674067174,9.808674067174,4.733583858114)
  );
#263 = ORIENTED_EDGE('',*,*,#264,.T.);
#264 = EDGE_CURVE('',#258,#265,#267,.T.);
#265 = VERTEX_POINT('',#266);
#266 = CARTESIAN_POINT('',(-0.197168783649,5.283121635134E-02,
    -44.96115221314));
#267 = B_SPLINE_CURVE_WITH_KNOTS('',1,(#268,#269),.UNSPECIFIED.,.F.,.F.,
  (2,2),(0.,1.),.PIECEWISE_BEZIER_KNOTS.);
#268 = CARTESIAN_POINT('',(-30.2193827815,-29.9693827815,-14.93893821528
    ));
#269 = CARTESIAN_POINT('',(-5.28312163513E-02,0.197168783649,
    -45.10548978043));
#270 = ORIENTED_EDGE('',*,*,#271,.T.);
#271 = EDGE_CURVE('',#265,#272,#274,.T.);
#272 = VERTEX_POINT('',#273);
#273 = CARTESIAN_POINT('',(-0.197168783649,5.283121635134E-02,-48.));
#274 = B_SPLINE_CURVE_WITH_KNOTS('',1,(#275,#276),.UNSPECIFIED.,.F.,.F.,
  (2,2),(0.,1.),.PIECEWISE_BEZIER_KNOTS.);
#275 = CARTESIAN_POINT('',(-0.197168783649,5.283121635133E-02,
    18.530429130128));
#276 = CARTESIAN_POINT('',(-0.197168783649,5.283121635136E-02,
    -111.5555155307));
#277 = ORIENTED_EDGE('',*,*,#278,.T.);
#278 = EDGE_CURVE('',#272,#24,#279,.T.);
#279 = B_SPLINE_CURVE_WITH_KNOTS('',1,(#280,#281),.UNSPECIFIED.,.F.,.F.,
  (2,2),(0.,1.),.PIECEWISE_BEZIER_KNOTS.);
#280 = CARTESIAN_POINT('',(63.407822208242,63.657822208242,-48.));
#281 = CARTESIAN_POINT('',(-63.65782220824,-63.40782220824,-48.));
#282 = B_SPLINE_SURFACE_WITH_KNOTS('',1,1,(
    (#283,#284)
    ,(#285,#286
    )),.UNSPECIFIED.,.F.,.F.,.F.,(2,2),(2,2),(0.,509.26257766593),(0.,
    509.26257766593),.PIECEWISE_BEZIER_KNOTS.);
#283 = CARTESIAN_POINT('',(-254.7562888329,-254.5062888329,
    2.84217094304E-14));
#284 = CARTESIAN_POINT('',(-0.125,0.125,-360.1030220721));
#285 = CARTESIAN_POINT('',(-0.125,0.125,360.10302207212));
#286 = CARTESIAN_POINT('',(254.50628883296,254.75628883296,
    -8.526512829121E-14));
#287 = ADVANCED_FACE('',(#288),#297,.F.);
#288 = FACE_BOUND('',#289,.F.);
#289 = EDGE_LOOP('',(#290,#291,#296));
#290 = ORIENTED_EDGE('',*,*,#278,.F.);
#291 = ORIENTED_EDGE('',*,*,#292,.T.);
#292 = EDGE_CURVE('',#272,#230,#293,.T.);
#293 = B_SPLINE_CURVE_WITH_KNOTS('',1,(#294,#295),.UNSPECIFIED.,.F.,.F.,
  (2,2),(0.,1.),.PIECEWISE_BEZIER_KNOTS.);
#294 = CARTESIAN_POINT('',(11.844611387845,-44.88770419723,-48.));
#295 = CARTESIAN_POINT('',(-17.24007475451,63.657822208242,-48.));
#296 = ORIENTED_EDGE('',*,*,#241,.T.);
#297 = PLANE('',#298);
#298 = AXIS2_PLACEMENT_3D('',#299,#300,#301);
#299 = CARTESIAN_POINT('',(0.,0.,-48.));
#300 = DIRECTION('',(0.,0.,1.));
#301 = DIRECTION('',(1.,0.,-0.));
#302 = ADVANCED_FACE('',(#303),#320,.F.);
#303 = FACE_BOUND('',#304,.F.);
#304 = EDGE_LOOP('',(#305,#312,#313,#314,#315));
#305 = ORIENTED_EDGE('',*,*,#306,.F.);
#306 = EDGE_CURVE('',#79,#307,#309,.T.);
#307 = VERTEX_POINT('',#308);
#308 = CARTESIAN_POINT('',(-11.13323056836,40.866769431633,
    -15.08327578257));
#309 = B_SPLINE_CURVE_WITH_KNOTS('',1,(#310,#311),.UNSPECIFIED.,.F.,.F.,
  (2,2),(0.,1.),.PIECEWISE_BEZIER_KNOTS.);
#310 = CARTESIAN_POINT('',(-17.83083018313,65.862551482693,
    -24.23236700072));
#311 = CARTESIAN_POINT('',(-2.073500199456,7.055395391982,
    -2.707453947209));
#312 = ORIENTED_EDGE('',*,*,#229,.T.);
#313 = ORIENTED_EDGE('',*,*,#292,.F.);
#314 = ORIENTED_EDGE('',*,*,#271,.F.);
#315 = ORIENTED_EDGE('',*,*,#316,.T.);
#316 = EDGE_CURVE('',#265,#307,#317,.T.);
#317 = B_SPLINE_CURVE_WITH_KNOTS('',1,(#318,#319),.UNSPECIFIED.,.F.,.F.,
  (2,2),(0.,1.),.PIECEWISE_BEZIER_KNOTS.);
#318 = CARTESIAN_POINT('',(-0.197168530059,5.283026994118E-02,
    -44.96115290596));
#319 = CARTESIAN_POINT('',(-11.13323082195,40.866770378043,
    -15.08327508975));
#320 = B_SPLINE_SURFACE_WITH_KNOTS('',1,1,(
    (#321,#322)
    ,(#323,#324
    )),.UNSPECIFIED.,.F.,.F.,.F.,(2,2),(2,2),(0.,509.26257766593),(0.,
    509.26257766593),.PIECEWISE_BEZIER_KNOTS.);
#321 = CARTESIAN_POINT('',(46.430006980146,-173.9621577475,
    -311.858365094));
#322 = CARTESIAN_POINT('',(-80.88563743633,301.18629581311,
    -180.051511036));
#323 = CARTESIAN_POINT('',(80.544131085391,-301.277802164,
    180.05151103606));
#324 = CARTESIAN_POINT('',(-46.77151333109,173.87065139663,311.858365094
    ));
#325 = ADVANCED_FACE('',(#326),#342,.F.);
#326 = FACE_BOUND('',#327,.F.);
#327 = EDGE_LOOP('',(#328,#329,#330,#337));
#328 = ORIENTED_EDGE('',*,*,#78,.F.);
#329 = ORIENTED_EDGE('',*,*,#306,.T.);
#330 = ORIENTED_EDGE('',*,*,#331,.T.);
#331 = EDGE_CURVE('',#307,#332,#334,.T.);
#332 = VERTEX_POINT('',#333);
#333 = CARTESIAN_POINT('',(-41.01110699893,10.98889300107,
    14.794600647984));
#334 = B_SPLINE_CURVE_WITH_KNOTS('',1,(#335,#336),.UNSPECIFIED.,.F.,.F.,
  (2,2),(0.,1.),.PIECEWISE_BEZIER_KNOTS.);
#335 = CARTESIAN_POINT('',(-10.98889300107,41.01110699893,
    -15.22761334987));
#336 = CARTESIAN_POINT('',(-41.15544456622,10.844555433772,
    14.938938215282));
#337 = ORIENTED_EDGE('',*,*,#338,.T.);
#338 = EDGE_CURVE('',#332,#36,#339,.T.);
#339 = B_SPLINE_CURVE_WITH_KNOTS('',1,(#340,#341),.UNSPECIFIED.,.F.,.F.,
  (2,2),(0.,1.),.PIECEWISE_BEZIER_KNOTS.);
#340 = CARTESIAN_POINT('',(50.823240893045,-13.61804635402,
    -18.81910362045));
#341 = CARTESIAN_POINT('',(-65.84185888529,17.642272916478,
    23.883286633462));
#342 = B_SPLINE_SURFACE_WITH_KNOTS('',1,1,(
    (#343,#344)
    ,(#345,#346
    )),.UNSPECIFIED.,.F.,.F.,.F.,(2,2),(2,2),(0.,509.26257766593),(0.,
    509.26257766593),.PIECEWISE_BEZIER_KNOTS.);
#343 = CARTESIAN_POINT('',(207.83340794568,207.83340794568,
    -208.0499142966));
#344 = CARTESIAN_POINT('',(-254.7034576166,254.55912004931,
    -0.144337567297));
#345 = CARTESIAN_POINT('',(254.55912004931,-254.7034576166,
    -0.144337567297));
#346 = CARTESIAN_POINT('',(-207.9777455129,-207.9777455129,
    207.76123916204));
#347 = ADVANCED_FACE('',(#348),#358,.F.);
#348 = FACE_BOUND('',#349,.F.);
#349 = EDGE_LOOP('',(#350,#351,#352,#357));
#350 = ORIENTED_EDGE('',*,*,#35,.F.);
#351 = ORIENTED_EDGE('',*,*,#338,.F.);
#352 = ORIENTED_EDGE('',*,*,#353,.T.);
#353 = EDGE_CURVE('',#332,#258,#354,.T.);
#354 = B_SPLINE_CURVE_WITH_KNOTS('',1,(#355,#356),.UNSPECIFIED.,.F.,.F.,
  (2,2),(0.,1.),.PIECEWISE_BEZIER_KNOTS.);
#355 = CARTESIAN_POINT('',(-41.01110712572,10.988893474275,
    14.794600994394));
#356 = CARTESIAN_POINT('',(-30.07504508741,-29.82504568741,
    -15.08327612898));
#357 = ORIENTED_EDGE('',*,*,#257,.F.);
#358 = B_SPLINE_SURFACE_WITH_KNOTS('',1,1,(
    (#359,#360)
    ,(#361,#362
    )),.UNSPECIFIED.,.F.,.F.,.F.,(2,2),(2,2),(0.,509.26257766593),(0.,
    509.26257766593),.PIECEWISE_BEZIER_KNOTS.);
#359 = CARTESIAN_POINT('',(-339.3078259324,61.385849831325,
    103.80845079737));
#360 = CARTESIAN_POINT('',(-108.0393931513,-292.4571138288,
    -180.1958486033));
#361 = CARTESIAN_POINT('',(107.98656193495,292.65428261247,
    179.90717346876));
#362 = CARTESIAN_POINT('',(339.2549947161,-61.18868104767,
    -104.0971259319));
#363 = ADVANCED_FACE('',(#364),#370,.T.);
#364 = FACE_BOUND('',#365,.T.);
#365 = EDGE_LOOP('',(#366,#367,#368,#369));
#366 = ORIENTED_EDGE('',*,*,#331,.T.);
#367 = ORIENTED_EDGE('',*,*,#353,.T.);
#368 = ORIENTED_EDGE('',*,*,#264,.T.);
#369 = ORIENTED_EDGE('',*,*,#316,.T.);
#370 = B_SPLINE_SURFACE_WITH_KNOTS('',1,1,(
    (#371,#372)
    ,(#373,#374
    )),.UNSPECIFIED.,.F.,.F.,.F.,(2,2),(2,2),(0.,52.25),(-52.25,0.),
  .PIECEWISE_BEZIER_KNOTS.);
#371 = CARTESIAN_POINT('',(-11.04172421742,41.208275782579,
    -15.08327578257));
#372 = CARTESIAN_POINT('',(-4.996003610813E-16,-4.996003610813E-16,
    -45.24982734773));
#373 = CARTESIAN_POINT('',(-41.20827578257,11.041724217421,
    15.083275782579));
#374 = CARTESIAN_POINT('',(-30.16655156515,-30.16655156515,
    -15.08327578257));
#375 = ( GEOMETRIC_REPRESENTATION_CONTEXT(3) 
GLOBAL_UNCERTAINTY_ASSIGNED_CONTEXT((#379)) GLOBAL_UNIT_ASSIGNED_CONTEXT
((#376,#377,#378)) REPRESENTATION_CONTEXT('Context #1',
  '3D Context with UNIT and UNCERTAINTY') );
#376 = ( LENGTH_UNIT() NAMED_UNIT(*) SI_UNIT(.MILLI.,.METRE.) );
#377 = ( NAMED_UNIT(*) PLANE_ANGLE_UNIT() SI_UNIT($,.RADIAN.) );
#378 = ( NAMED_UNIT(*) SI_UNIT($,.STERADIAN.) SOLID_ANGLE_UNIT() );
#379 = UNCERTAINTY_MEASURE_WITH_UNIT(LENGTH_MEASURE(5.E-06),#376,
  'distance_accuracy_value','confusion accuracy');
#380 = PRODUCT_RELATED_PRODUCT_CATEGORY('part',$,(#7));
ENDSEC;
END-ISO-10303-21;
