ISO-10303-21;
HEADER;
FILE_DESCRIPTION(('FreeCAD Model'),'2;1');
FILE_NAME('Open CASCADE Shape Model','2026-07-29T20:08:02',('FreeCAD'),(
    'FreeCAD'),'Open CASCADE STEP processor 7.8','FreeCAD','Unknown');
FILE_SCHEMA(('AUTOMOTIVE_DESIGN { 1 0 10303 214 1 1 1 1 }'));
ENDSEC;
DATA;
#1 = APPLICATION_PROTOCOL_DEFINITION('international standard',
  'automotive_design',2000,#2);
#2 = APPLICATION_CONTEXT(
  'core data for automotive mechanical design processes');
#3 = SHAPE_DEFINITION_REPRESENTATION(#4,#10);
#4 = PRODUCT_DEFINITION_SHAPE('','',#5);
#5 = PRODUCT_DEFINITION('design','',#6,#9);
#6 = PRODUCT_DEFINITION_FORMATION('','',#7);
#7 = PRODUCT('Open CASCADE STEP translator 7.8 9',
  'Open CASCADE STEP translator 7.8 9','',(#8));
#8 = PRODUCT_CONTEXT('',#2,'mechanical');
#9 = PRODUCT_DEFINITION_CONTEXT('part definition',#2,'design');
#10 = ADVANCED_BREP_SHAPE_REPRESENTATION('',(#11,#15),#284);
#11 = AXIS2_PLACEMENT_3D('',#12,#13,#14);
#12 = CARTESIAN_POINT('',(0.,0.,0.));
#13 = DIRECTION('',(0.,0.,1.));
#14 = DIRECTION('',(1.,0.,-0.));
#15 = MANIFOLD_SOLID_BREP('',#16);
#16 = CLOSED_SHELL('',(#17,#107,#145,#177,#233,#249,#269));
#17 = ADVANCED_FACE('',(#18),#102,.F.);
#18 = FACE_BOUND('',#19,.F.);
#19 = EDGE_LOOP('',(#20,#29,#36,#97));
#20 = ORIENTED_EDGE('',*,*,#21,.F.);
#21 = EDGE_CURVE('',#22,#24,#26,.T.);
#22 = VERTEX_POINT('',#23);
#23 = CARTESIAN_POINT('',(11.133230568367,-40.86676943163,
    15.083275782579));
#24 = VERTEX_POINT('',#25);
#25 = CARTESIAN_POINT('',(41.01110699893,-10.98889300107,-14.79460064798
    ));
#26 = B_SPLINE_CURVE_WITH_KNOTS('',1,(#27,#28),.UNSPECIFIED.,.F.,.F.,(2,
    2),(0.,1.),.PIECEWISE_BEZIER_KNOTS.);
#27 = CARTESIAN_POINT('',(10.98889300107,-41.01110699893,15.227613349876
    ));
#28 = CARTESIAN_POINT('',(41.155444566228,-10.84455543377,
    -14.93893821528));
#29 = ORIENTED_EDGE('',*,*,#30,.T.);
#30 = EDGE_CURVE('',#22,#31,#33,.T.);
#31 = VERTEX_POINT('',#32);
#32 = CARTESIAN_POINT('',(16.646546404403,-61.44274424989,
    22.614605273691));
#33 = B_SPLINE_CURVE_WITH_KNOTS('',1,(#34,#35),.UNSPECIFIED.,.F.,.F.,(2,
    2),(0.,1.),.PIECEWISE_BEZIER_KNOTS.);
#34 = CARTESIAN_POINT('',(-13.42994197137,50.804238481746,
    -18.47064190424));
#35 = CARTESIAN_POINT('',(17.826060464898,-65.8447506519,24.225851444448
    ));
#36 = ORIENTED_EDGE('',*,*,#37,.F.);
#37 = EDGE_CURVE('',#38,#31,#40,.T.);
#38 = VERTEX_POINT('',#39);
#39 = CARTESIAN_POINT('',(61.488734551006,-16.47585676655,
    -22.28993254128));
#40 = B_SPLINE_CURVE_WITH_KNOTS('',7,(#41,#42,#43,#44,#45,#46,#47,#48,
    #49,#50,#51,#52,#53,#54,#55,#56,#57,#58,#59,#60,#61,#62,#63,#64,#65,
    #66,#67,#68,#69,#70,#71,#72,#73,#74,#75,#76,#77,#78,#79,#80,#81,#82,
    #83,#84,#85,#86,#87,#88,#89,#90,#91,#92,#93,#94,#95,#96),
  .UNSPECIFIED.,.F.,.F.,(8,6,6,6,6,6,6,6,6,8),(0.,0.100565772041,
    0.175337232784,0.367382421083,0.53547375026,0.601943266842,
    0.68729352002,0.801374124107,0.890797397311,1.),.UNSPECIFIED.);
#41 = CARTESIAN_POINT('',(63.657822208242,-7.105427357601E-15,
    -31.61240475317));
#42 = CARTESIAN_POINT('',(63.657822208242,-2.114143877568,
    -30.55533281439));
#43 = CARTESIAN_POINT('',(63.575907114749,-4.20587935837,-29.46850752724
    ));
#44 = CARTESIAN_POINT('',(63.415202415919,-6.272653218223,-28.3547682479
    ));
#45 = CARTESIAN_POINT('',(63.178714065427,-8.312242673786,
    -27.21672934487));
#46 = CARTESIAN_POINT('',(62.86930773395,-10.32274713431,-26.05677394887
    ));
#47 = CARTESIAN_POINT('',(62.489673264501,-12.30257448335,
    -24.87704303962));
#48 = CARTESIAN_POINT('',(61.709629624915,-15.69866211148,
    -22.78897740576));
#49 = CARTESIAN_POINT('',(61.339533346623,-17.1291860336,-21.88866730556
    ));
#50 = CARTESIAN_POINT('',(60.933005860552,-18.54143728745,-20.9792779356
    ));
#51 = CARTESIAN_POINT('',(60.491015490995,-19.93489926349,-20.0615517628
    ));
#52 = CARTESIAN_POINT('',(60.014477156716,-21.3090942579,-19.13618509846
    ));
#53 = CARTESIAN_POINT('',(59.504251004926,-22.66358261861,
    -18.20382784221));
#54 = CARTESIAN_POINT('',(57.566201673551,-27.42522031507,
    -14.85398432829));
#55 = CARTESIAN_POINT('',(55.954569461693,-30.71924066958,-12.4011580451
    ));
#56 = CARTESIAN_POINT('',(54.139675215157,-33.87402545667,-9.9163185283)
  );
#57 = CARTESIAN_POINT('',(52.13292050204,-36.88311186192,-7.408397969108
    ));
#58 = CARTESIAN_POINT('',(49.944360608983,-39.74006856459,
    -4.885639671251));
#59 = CARTESIAN_POINT('',(47.582619070888,-42.43842233378,
    -2.355592017604));
#60 = CARTESIAN_POINT('',(42.841609524221,-47.18820006735,2.389801622514
    ));
#61 = CARTESIAN_POINT('',(40.501747880686,-49.27785727481,4.604561048009
    ));
#62 = CARTESIAN_POINT('',(38.039587623216,-51.23560365543,6.814514367064
    ));
#63 = CARTESIAN_POINT('',(35.459574777785,-53.05579386138,9.014615892737
    ));
#64 = CARTESIAN_POINT('',(32.766049493223,-54.73197866422,11.19947093645
    ));
#65 = CARTESIAN_POINT('',(29.963269827457,-56.25692919613,
    13.363336035283));
#66 = CARTESIAN_POINT('',(25.905228779498,-58.16228498277,
    16.345034452586));
#67 = CARTESIAN_POINT('',(24.73884437898,-58.67725574786,17.185712035386
    ));
#68 = CARTESIAN_POINT('',(23.5563060392,-59.16673972014,18.021723191418)
  );
#69 = CARTESIAN_POINT('',(22.357898202243,-59.63018398067,
    18.852649240161));
#70 = CARTESIAN_POINT('',(21.143921384592,-60.0670035671,19.678047442204
    ));
#71 = CARTESIAN_POINT('',(19.914692409608,-60.47658178578,
    20.497451039032));
#72 = CARTESIAN_POINT('',(17.072995378549,-61.34837835205,
    22.354197837697));
#73 = CARTESIAN_POINT('',(15.450874061514,-61.79249421442,
    23.387316427401));
#74 = CARTESIAN_POINT('',(13.804869700002,-62.18925333008,
    24.408698165987));
#75 = CARTESIAN_POINT('',(12.135774370024,-62.53718111156,
    25.417209721714));
#76 = CARTESIAN_POINT('',(10.444489708377,-62.83470728451,
    26.411615139016));
#77 = CARTESIAN_POINT('',(8.732030469782,-63.08017343537,27.390577833743
    ));
#78 = CARTESIAN_POINT('',(4.683828979863,-63.52801074838,29.638597235209
    ));
#79 = CARTESIAN_POINT('',(2.332474064516,-63.68804438223,30.894291509807
    ));
#80 = CARTESIAN_POINT('',(-5.195225404765E-02,-63.74780134177,
    32.116383148857));
#81 = CARTESIAN_POINT('',(-2.466090309129,-63.70279920168,
    33.300951106352));
#82 = CARTESIAN_POINT('',(-4.905766608909,-63.5483692475,34.443574279152
    ));
#83 = CARTESIAN_POINT('',(-7.365952331321,-63.27981906532,35.53939204927
    ));
#84 = CARTESIAN_POINT('',(-11.78059573331,-62.58906560607,
    37.401337020639));
#85 = CARTESIAN_POINT('',(-13.72931689422,-62.21263678543,
    38.187483190772));
#86 = CARTESIAN_POINT('',(-15.68392434762,-61.76114658087,
    38.939041815199));
#87 = CARTESIAN_POINT('',(-17.64092672521,-61.23254724401,
    39.653243335561));
#88 = CARTESIAN_POINT('',(-19.5963014248,-60.6250164219,40.327165274301)
  );
#89 = CARTESIAN_POINT('',(-21.54549534903,-59.93710984451,
    40.957808947718));
#90 = CARTESIAN_POINT('',(-25.8500057746,-58.22867398391,42.255846230206
    ));
#91 = CARTESIAN_POINT('',(-28.20013238796,-57.16809197047,
    42.900618530165));
#92 = CARTESIAN_POINT('',(-30.52389934048,-55.98481898254,
    43.470865512461));
#93 = CARTESIAN_POINT('',(-32.81059495055,-54.67880324249,
    43.961205447472));
#94 = CARTESIAN_POINT('',(-35.04884902751,-53.2517167344,44.366789231906
    ));
#95 = CARTESIAN_POINT('',(-37.22679830815,-51.70740108388,
    44.683606046964));
#96 = CARTESIAN_POINT('',(-39.33242591823,-50.05275816259,
    44.909098391358));
#97 = ORIENTED_EDGE('',*,*,#98,.T.);
#98 = EDGE_CURVE('',#38,#24,#99,.T.);
#99 = B_SPLINE_CURVE_WITH_KNOTS('',1,(#100,#101),.UNSPECIFIED.,.F.,.F.,(
    2,2),(0.,1.),.PIECEWISE_BEZIER_KNOTS.);
#100 = CARTESIAN_POINT('',(65.863186195355,-17.64798755198,
    -23.89109297073));
#101 = CARTESIAN_POINT('',(7.199732959282,-1.929162632159,
    -2.418778812615));
#102 = B_SPLINE_SURFACE_WITH_KNOTS('',1,1,(
    (#103,#104)
    ,(#105,#106
    )),.UNSPECIFIED.,.F.,.F.,.F.,(2,2),(2,2),(0.,509.26257766593),(0.,
    509.26257766593),.PIECEWISE_BEZIER_KNOTS.);
#103 = CARTESIAN_POINT('',(-207.8334079456,-207.8334079456,
    208.04991429663));
#104 = CARTESIAN_POINT('',(-254.5591200493,254.70345761661,
    0.144337567297));
#105 = CARTESIAN_POINT('',(254.70345761661,-254.5591200493,
    0.144337567297));
#106 = CARTESIAN_POINT('',(207.97774551298,207.97774551298,
    -207.761239162));
#107 = ADVANCED_FACE('',(#108),#140,.F.);
#108 = FACE_BOUND('',#109,.F.);
#109 = EDGE_LOOP('',(#110,#120,#121,#128,#135));
#110 = ORIENTED_EDGE('',*,*,#111,.F.);
#111 = EDGE_CURVE('',#31,#112,#114,.T.);
#112 = VERTEX_POINT('',#113);
#113 = CARTESIAN_POINT('',(16.646546404697,-61.44274425098,48.));
#114 = B_SPLINE_CURVE_WITH_KNOTS('',4,(#115,#116,#117,#118,#119),
  .UNSPECIFIED.,.F.,.F.,(5,5),(0.,1.),.PIECEWISE_BEZIER_KNOTS.);
#115 = CARTESIAN_POINT('',(16.646546404697,-61.44274425098,
    -31.61240535317));
#116 = CARTESIAN_POINT('',(16.646546404697,-61.44274425098,
    -11.70930386488));
#117 = CARTESIAN_POINT('',(16.646546404697,-61.44274425098,
    8.193797623413));
#118 = CARTESIAN_POINT('',(16.646546404697,-61.44274425098,
    28.096899111706));
#119 = CARTESIAN_POINT('',(16.646546404697,-61.44274425098,48.0000006));
#120 = ORIENTED_EDGE('',*,*,#30,.F.);
#121 = ORIENTED_EDGE('',*,*,#122,.F.);
#122 = EDGE_CURVE('',#123,#22,#125,.T.);
#123 = VERTEX_POINT('',#124);
#124 = CARTESIAN_POINT('',(0.197168783649,-5.283121635133E-02,
    44.961152213142));
#125 = B_SPLINE_CURVE_WITH_KNOTS('',1,(#126,#127),.UNSPECIFIED.,.F.,.F.,
  (2,2),(0.,1.),.PIECEWISE_BEZIER_KNOTS.);
#126 = CARTESIAN_POINT('',(0.197168656854,-5.283074314625E-02,
    44.961152559552));
#127 = CARTESIAN_POINT('',(11.133230695162,-40.86676990483,
    15.083275436169));
#128 = ORIENTED_EDGE('',*,*,#129,.F.);
#129 = EDGE_CURVE('',#130,#123,#132,.T.);
#130 = VERTEX_POINT('',#131);
#131 = CARTESIAN_POINT('',(0.197168783649,-5.283121635134E-02,48.));
#132 = B_SPLINE_CURVE_WITH_KNOTS('',1,(#133,#134),.UNSPECIFIED.,.F.,.F.,
  (2,2),(0.,1.),.PIECEWISE_BEZIER_KNOTS.);
#133 = CARTESIAN_POINT('',(0.197168783649,-5.283121635131E-02,
    111.55551553073));
#134 = CARTESIAN_POINT('',(0.197168783649,-5.283121635133E-02,
    -18.53042912778));
#135 = ORIENTED_EDGE('',*,*,#136,.F.);
#136 = EDGE_CURVE('',#112,#130,#137,.T.);
#137 = B_SPLINE_CURVE_WITH_KNOTS('',1,(#138,#139),.UNSPECIFIED.,.F.,.F.,
  (2,2),(0.,1.),.PIECEWISE_BEZIER_KNOTS.);
#138 = CARTESIAN_POINT('',(17.240074754515,-63.65782220824,48.));
#139 = CARTESIAN_POINT('',(-11.84461138784,44.887704197238,48.));
#140 = B_SPLINE_SURFACE_WITH_KNOTS('',1,1,(
    (#141,#142)
    ,(#143,#144
    )),.UNSPECIFIED.,.F.,.F.,.F.,(2,2),(2,2),(0.,509.26257766593),(0.,
    509.26257766593),.PIECEWISE_BEZIER_KNOTS.);
#141 = CARTESIAN_POINT('',(46.771513331092,-173.8706513966,311.858365094
    ));
#142 = CARTESIAN_POINT('',(-80.54413108539,301.27780216406,
    180.05151103606));
#143 = CARTESIAN_POINT('',(80.885637436337,-301.1862958131,
    -180.051511036));
#144 = CARTESIAN_POINT('',(-46.43000698014,173.96215774757,
    -311.858365094));
#145 = ADVANCED_FACE('',(#146),#172,.T.);
#146 = FACE_BOUND('',#147,.T.);
#147 = EDGE_LOOP('',(#148,#149,#158,#167));
#148 = ORIENTED_EDGE('',*,*,#136,.F.);
#149 = ORIENTED_EDGE('',*,*,#150,.T.);
#150 = EDGE_CURVE('',#112,#151,#153,.T.);
#151 = VERTEX_POINT('',#152);
#152 = CARTESIAN_POINT('',(63.657822208242,-1.55916696416E-14,48.));
#153 = CIRCLE('',#154,63.657822208242);
#154 = AXIS2_PLACEMENT_3D('',#155,#156,#157);
#155 = CARTESIAN_POINT('',(0.,0.,48.));
#156 = DIRECTION('',(0.,0.,1.));
#157 = DIRECTION('',(1.,0.,-0.));
#158 = ORIENTED_EDGE('',*,*,#159,.T.);
#159 = EDGE_CURVE('',#151,#160,#162,.T.);
#160 = VERTEX_POINT('',#161);
#161 = CARTESIAN_POINT('',(45.137704197238,44.887704197238,48.));
#162 = CIRCLE('',#163,63.657822208242);
#163 = AXIS2_PLACEMENT_3D('',#164,#165,#166);
#164 = CARTESIAN_POINT('',(0.,0.,48.));
#165 = DIRECTION('',(0.,0.,1.));
#166 = DIRECTION('',(1.,0.,-0.));
#167 = ORIENTED_EDGE('',*,*,#168,.T.);
#168 = EDGE_CURVE('',#160,#130,#169,.T.);
#169 = B_SPLINE_CURVE_WITH_KNOTS('',1,(#170,#171),.UNSPECIFIED.,.F.,.F.,
  (2,2),(0.,1.),.PIECEWISE_BEZIER_KNOTS.);
#170 = CARTESIAN_POINT('',(63.657822208242,63.407822208242,48.));
#171 = CARTESIAN_POINT('',(-63.40782220824,-63.65782220824,48.));
#172 = PLANE('',#173);
#173 = AXIS2_PLACEMENT_3D('',#174,#175,#176);
#174 = CARTESIAN_POINT('',(0.,0.,48.));
#175 = DIRECTION('',(0.,0.,1.));
#176 = DIRECTION('',(1.,0.,-0.));
#177 = ADVANCED_FACE('',(#178),#228,.F.);
#178 = FACE_BOUND('',#179,.F.);
#179 = EDGE_LOOP('',(#180,#194,#215,#222,#227));
#180 = ORIENTED_EDGE('',*,*,#181,.F.);
#181 = EDGE_CURVE('',#182,#38,#184,.T.);
#182 = VERTEX_POINT('',#183);
#183 = CARTESIAN_POINT('',(63.657822208242,-1.55916696416E-14,
    -11.43368368795));
#184 = B_SPLINE_CURVE_WITH_KNOTS('',8,(#185,#186,#187,#188,#189,#190,
    #191,#192,#193),.UNSPECIFIED.,.F.,.F.,(9,9),(0.,1.),
  .PIECEWISE_BEZIER_KNOTS.);
#185 = CARTESIAN_POINT('',(63.657822208242,-1.7763568394E-14,
    -11.43368368795));
#186 = CARTESIAN_POINT('',(63.657822208242,-3.982628216634,
    -14.15386934683));
#187 = CARTESIAN_POINT('',(63.373061197784,-7.99472559497,
    -16.84206793555));
#188 = CARTESIAN_POINT('',(62.796168617488,-12.02558577615,
    -19.48961796901));
#189 = CARTESIAN_POINT('',(61.916831725908,-16.06080639775,
    -22.08479508812));
#190 = CARTESIAN_POINT('',(60.723391243199,-20.082338911,-24.61313810844
    ));
#191 = CARTESIAN_POINT('',(59.203243224191,-24.0684497881,
    -27.05749607242));
#192 = CARTESIAN_POINT('',(57.343527775715,-27.99374099066,
    -29.39816827342));
#193 = CARTESIAN_POINT('',(55.129290581931,-31.82891214335,
    -31.61240535317));
#194 = ORIENTED_EDGE('',*,*,#195,.F.);
#195 = EDGE_CURVE('',#196,#182,#198,.T.);
#196 = VERTEX_POINT('',#197);
#197 = CARTESIAN_POINT('',(45.137704197238,44.887704197238,
    22.614605274092));
#198 = B_SPLINE_CURVE_WITH_KNOTS('',8,(#199,#200,#201,#202,#203,#204,
    #205,#206,#207,#208,#209,#210,#211,#212,#213,#214),.UNSPECIFIED.,.F.
  ,.F.,(9,7,9),(0.,0.664863399414,1.),.UNSPECIFIED.);
#199 = CARTESIAN_POINT('',(45.137704197238,44.887704197238,
    22.614605274092));
#200 = CARTESIAN_POINT('',(48.1827378025,41.825711417634,19.965945485069
    ));
#201 = CARTESIAN_POINT('',(50.940158403261,38.578148782731,
    17.243175960837));
#202 = CARTESIAN_POINT('',(53.41333919268,35.169025816219,
    14.462078173876));
#203 = CARTESIAN_POINT('',(55.603146667436,31.619311695497,
    11.636815758723));
#204 = CARTESIAN_POINT('',(57.509843964023,27.947869467093,
    8.780224258554));
#205 = CARTESIAN_POINT('',(59.132878269567,24.171390254445,
    5.903805094344));
#206 = CARTESIAN_POINT('',(60.470801281643,20.304411382504,3.0177525015)
  );
#207 = CARTESIAN_POINT('',(62.048837234477,14.36994662726,
    -1.324362928674));
#208 = CARTESIAN_POINT('',(62.504216790502,12.36153453679,
    -2.779474140034));
#209 = CARTESIAN_POINT('',(62.885651788654,10.335313310138,
    -4.233216424289));
#210 = CARTESIAN_POINT('',(63.192529941873,8.293053134981,
    -5.684268664462));
#211 = CARTESIAN_POINT('',(63.424112384872,6.236551668487,
    -7.131267816141));
#212 = CARTESIAN_POINT('',(63.579539334147,4.167635433997,
    -8.572808989383));
#213 = CARTESIAN_POINT('',(63.657822208242,2.088158722656,
    -10.00744475681));
#214 = CARTESIAN_POINT('',(63.657822208242,1.293853018487E-15,
    -11.43368368795));
#215 = ORIENTED_EDGE('',*,*,#216,.F.);
#216 = EDGE_CURVE('',#217,#196,#219,.T.);
#217 = VERTEX_POINT('',#218);
#218 = CARTESIAN_POINT('',(30.075045214212,29.825045214212,
    15.083275782579));
#219 = B_SPLINE_CURVE_WITH_KNOTS('',1,(#220,#221),.UNSPECIFIED.,.F.,.F.,
  (2,2),(0.,1.),.PIECEWISE_BEZIER_KNOTS.);
#220 = CARTESIAN_POINT('',(3.461013878281,3.211013878281,1.776260114613)
  );
#221 = CARTESIAN_POINT('',(58.399231580298,58.149231580298,
    29.245368965622));
#222 = ORIENTED_EDGE('',*,*,#223,.F.);
#223 = EDGE_CURVE('',#24,#217,#224,.T.);
#224 = B_SPLINE_CURVE_WITH_KNOTS('',1,(#225,#226),.UNSPECIFIED.,.F.,.F.,
  (2,2),(0.,1.),.PIECEWISE_BEZIER_KNOTS.);
#225 = CARTESIAN_POINT('',(41.01110725252,-10.98889394748,-14.7946013408
    ));
#226 = CARTESIAN_POINT('',(30.075044960622,29.825046160622,
    15.083276475399));
#227 = ORIENTED_EDGE('',*,*,#98,.F.);
#228 = B_SPLINE_SURFACE_WITH_KNOTS('',1,1,(
    (#229,#230)
    ,(#231,#232
    )),.UNSPECIFIED.,.F.,.F.,.F.,(2,2),(2,2),(0.,509.26257766593),(0.,
    509.26257766593),.PIECEWISE_BEZIER_KNOTS.);
#229 = CARTESIAN_POINT('',(-263.1562720447,-222.815618353,
    -103.8084507973));
#230 = CARTESIAN_POINT('',(-239.7934159929,199.25559351759,
    180.19584860335));
#231 = CARTESIAN_POINT('',(239.84624720925,-199.4527623012,
    -179.9071734687));
#232 = CARTESIAN_POINT('',(263.20910326106,222.6184495694,
    104.09712593196));
#233 = ADVANCED_FACE('',(#234),#244,.F.);
#234 = FACE_BOUND('',#235,.F.);
#235 = EDGE_LOOP('',(#236,#241,#242,#243));
#236 = ORIENTED_EDGE('',*,*,#237,.T.);
#237 = EDGE_CURVE('',#217,#123,#238,.T.);
#238 = B_SPLINE_CURVE_WITH_KNOTS('',1,(#239,#240),.UNSPECIFIED.,.F.,.F.,
  (2,2),(0.,1.),.PIECEWISE_BEZIER_KNOTS.);
#239 = CARTESIAN_POINT('',(30.219382781509,29.969382781509,
    14.938938215282));
#240 = CARTESIAN_POINT('',(5.283121635131E-02,-0.197168783649,
    45.10548978044));
#241 = ORIENTED_EDGE('',*,*,#122,.T.);
#242 = ORIENTED_EDGE('',*,*,#21,.T.);
#243 = ORIENTED_EDGE('',*,*,#223,.T.);
#244 = B_SPLINE_SURFACE_WITH_KNOTS('',1,1,(
    (#245,#246)
    ,(#247,#248
    )),.UNSPECIFIED.,.F.,.F.,.F.,(2,2),(2,2),(0.,52.25),(-52.25,0.),
  .PIECEWISE_BEZIER_KNOTS.);
#245 = CARTESIAN_POINT('',(30.166551565158,30.166551565158,
    15.083275782579));
#246 = CARTESIAN_POINT('',(41.208275782579,-11.04172421742,
    -15.08327578257));
#247 = CARTESIAN_POINT('',(4.996003610813E-16,4.996003610813E-16,
    45.249827347737));
#248 = CARTESIAN_POINT('',(11.041724217421,-41.20827578257,
    15.083275782579));
#249 = ADVANCED_FACE('',(#250),#264,.F.);
#250 = FACE_BOUND('',#251,.F.);
#251 = EDGE_LOOP('',(#252,#260,#261,#262,#263));
#252 = ORIENTED_EDGE('',*,*,#253,.T.);
#253 = EDGE_CURVE('',#196,#160,#254,.T.);
#254 = B_SPLINE_CURVE_WITH_KNOTS('',4,(#255,#256,#257,#258,#259),
  .UNSPECIFIED.,.F.,.F.,(5,5),(0.,1.),.PIECEWISE_BEZIER_KNOTS.);
#255 = CARTESIAN_POINT('',(45.137704197238,44.887704197238,-48.0000006)
  );
#256 = CARTESIAN_POINT('',(45.137704197238,44.887704197238,-24.0000003)
  );
#257 = CARTESIAN_POINT('',(45.137704197238,44.887704197238,
    7.105427357601E-14));
#258 = CARTESIAN_POINT('',(45.137704197238,44.887704197238,24.0000003));
#259 = CARTESIAN_POINT('',(45.137704197238,44.887704197238,48.0000006));
#260 = ORIENTED_EDGE('',*,*,#168,.T.);
#261 = ORIENTED_EDGE('',*,*,#129,.T.);
#262 = ORIENTED_EDGE('',*,*,#237,.F.);
#263 = ORIENTED_EDGE('',*,*,#216,.T.);
#264 = B_SPLINE_SURFACE_WITH_KNOTS('',1,1,(
    (#265,#266)
    ,(#267,#268
    )),.UNSPECIFIED.,.F.,.F.,.F.,(2,2),(2,2),(0.,509.26257766593),(0.,
    509.26257766593),.PIECEWISE_BEZIER_KNOTS.);
#265 = CARTESIAN_POINT('',(-254.5062888329,-254.7562888329,
    -8.526512829121E-14));
#266 = CARTESIAN_POINT('',(0.125,-0.125,360.10302207212));
#267 = CARTESIAN_POINT('',(0.125,-0.125,-360.1030220721));
#268 = CARTESIAN_POINT('',(254.75628883296,254.50628883296,
    2.84217094304E-14));
#269 = ADVANCED_FACE('',(#270),#279,.T.);
#270 = FACE_BOUND('',#271,.T.);
#271 = EDGE_LOOP('',(#272,#273,#274,#275,#276,#277,#278));
#272 = ORIENTED_EDGE('',*,*,#195,.F.);
#273 = ORIENTED_EDGE('',*,*,#253,.T.);
#274 = ORIENTED_EDGE('',*,*,#159,.F.);
#275 = ORIENTED_EDGE('',*,*,#150,.F.);
#276 = ORIENTED_EDGE('',*,*,#111,.F.);
#277 = ORIENTED_EDGE('',*,*,#37,.F.);
#278 = ORIENTED_EDGE('',*,*,#181,.F.);
#279 = CYLINDRICAL_SURFACE('',#280,63.657822208242);
#280 = AXIS2_PLACEMENT_3D('',#281,#282,#283);
#281 = CARTESIAN_POINT('',(0.,0.,-48.));
#282 = DIRECTION('',(0.,0.,1.));
#283 = DIRECTION('',(1.,0.,-0.));
#284 = ( GEOMETRIC_REPRESENTATION_CONTEXT(3) 
GLOBAL_UNCERTAINTY_ASSIGNED_CONTEXT((#288)) GLOBAL_UNIT_ASSIGNED_CONTEXT
((#285,#286,#287)) REPRESENTATION_CONTEXT('Context #1',
  '3D Context with UNIT and UNCERTAINTY') );
#285 = ( LENGTH_UNIT() NAMED_UNIT(*) SI_UNIT(.MILLI.,.METRE.) );
#286 = ( NAMED_UNIT(*) PLANE_ANGLE_UNIT() SI_UNIT($,.RADIAN.) );
#287 = ( NAMED_UNIT(*) SI_UNIT($,.STERADIAN.) SOLID_ANGLE_UNIT() );
#288 = UNCERTAINTY_MEASURE_WITH_UNIT(LENGTH_MEASURE(5.E-06),#285,
  'distance_accuracy_value','confusion accuracy');
#289 = PRODUCT_RELATED_PRODUCT_CATEGORY('part',$,(#7));
ENDSEC;
END-ISO-10303-21;
