ISO-10303-21;
HEADER;
FILE_DESCRIPTION(('FreeCAD Model'),'2;1');
FILE_NAME('Open CASCADE Shape Model','2026-07-28T22:26:06',('FreeCAD'),(
    'FreeCAD'),'Open CASCADE STEP processor 7.8','FreeCAD','Unknown');
FILE_SCHEMA(('AUTOMOTIVE_DESIGN { 1 0 10303 214 1 1 1 1 }'));
ENDSEC;
DATA;
#1 = APPLICATION_PROTOCOL_DEFINITION('international standard',
  'automotive_design',2000,#2);
#2 = APPLICATION_CONTEXT(
  'core data for automotive mechanical design processes');
#3 = SHAPE_DEFINITION_REPRESENTATION(#4,#10);
#4 = PRODUCT_DEFINITION_SHAPE('','',#5);
#5 = PRODUCT_DEFINITION('design','',#6,#9);
#6 = PRODUCT_DEFINITION_FORMATION('','',#7);
#7 = PRODUCT('Open CASCADE STEP translator 7.8 13',
  'Open CASCADE STEP translator 7.8 13','',(#8));
#8 = PRODUCT_CONTEXT('',#2,'mechanical');
#9 = PRODUCT_DEFINITION_CONTEXT('part definition',#2,'design');
#10 = ADVANCED_BREP_SHAPE_REPRESENTATION('',(#11,#15),#313);
#11 = AXIS2_PLACEMENT_3D('',#12,#13,#14);
#12 = CARTESIAN_POINT('',(0.,0.,0.));
#13 = DIRECTION('',(0.,0.,1.));
#14 = DIRECTION('',(1.,0.,-0.));
#15 = MANIFOLD_SOLID_BREP('',#16);
#16 = CLOSED_SHELL('',(#17,#190,#218,#240,#262,#284,#300));
#17 = ADVANCED_FACE('',(#18),#185,.T.);
#18 = FACE_BOUND('',#19,.T.);
#19 = EDGE_LOOP('',(#20,#31,#43,#98,#177));
#20 = ORIENTED_EDGE('',*,*,#21,.F.);
#21 = EDGE_CURVE('',#22,#24,#26,.T.);
#22 = VERTEX_POINT('',#23);
#23 = CARTESIAN_POINT('',(53.496669237728,53.638090593965,53.9));
#24 = VERTEX_POINT('',#25);
#25 = CARTESIAN_POINT('',(-73.1485198747,19.703614446001,53.9));
#26 = CIRCLE('',#27,75.755781179374);
#27 = AXIS2_PLACEMENT_3D('',#28,#29,#30);
#28 = CARTESIAN_POINT('',(0.,0.,53.9));
#29 = DIRECTION('',(0.,0.,1.));
#30 = DIRECTION('',(1.,0.,0.));
#31 = ORIENTED_EDGE('',*,*,#32,.T.);
#32 = EDGE_CURVE('',#22,#33,#35,.T.);
#33 = VERTEX_POINT('',#34);
#34 = CARTESIAN_POINT('',(53.496669237728,53.638090593965,
    26.844927201493));
#35 = B_SPLINE_CURVE_WITH_KNOTS('',6,(#36,#37,#38,#39,#40,#41,#42),
  .UNSPECIFIED.,.F.,.F.,(7,7),(0.,1.),.PIECEWISE_BEZIER_KNOTS.);
#36 = CARTESIAN_POINT('',(53.496669237728,53.638090593965,53.9000006));
#37 = CARTESIAN_POINT('',(53.496669237728,53.638090593965,
    42.885257219439));
#38 = CARTESIAN_POINT('',(53.496669237728,53.638090593965,
    24.227967149589));
#39 = CARTESIAN_POINT('',(53.496669237728,53.638090593965,0.992960141507
    ));
#40 = CARTESIAN_POINT('',(53.496669237728,53.638090593965,
    -24.70445019716));
#41 = CARTESIAN_POINT('',(53.496669237728,53.638090593965,
    -47.45797139657));
#42 = CARTESIAN_POINT('',(53.496669237728,53.638090593965,-53.9000006));
#43 = ORIENTED_EDGE('',*,*,#44,.F.);
#44 = EDGE_CURVE('',#45,#33,#47,.T.);
#45 = VERTEX_POINT('',#46);
#46 = CARTESIAN_POINT('',(-19.60703894532,73.174465529936,
    -26.66123880516));
#47 = B_SPLINE_CURVE_WITH_KNOTS('',7,(#48,#49,#50,#51,#52,#53,#54,#55,
    #56,#57,#58,#59,#60,#61,#62,#63,#64,#65,#66,#67,#68,#69,#70,#71,#72,
    #73,#74,#75,#76,#77,#78,#79,#80,#81,#82,#83,#84,#85,#86,#87,#88,#89,
    #90,#91,#92,#93,#94,#95,#96,#97),.UNSPECIFIED.,.F.,.F.,(8,6,6,6,6,6,
    6,6,8),(0.,0.157882612234,0.253836810169,0.377262504895,
    0.47237215355,0.543134085123,0.729093566022,0.92137854588,1.),
  .UNSPECIFIED.);
#48 = CARTESIAN_POINT('',(-73.14851987557,19.703614442793,
    -53.44490542871));
#49 = CARTESIAN_POINT('',(-72.03287737717,23.845372174878,
    -53.44090170466));
#50 = CARTESIAN_POINT('',(-70.64323152546,27.914938861582,
    -53.23653833168));
#51 = CARTESIAN_POINT('',(-68.99064327879,31.869855460433,
    -52.83159954072));
#52 = CARTESIAN_POINT('',(-67.09461937919,35.677350712001,
    -52.23341112763));
#53 = CARTESIAN_POINT('',(-64.97902514065,39.311839873008,
    -51.45359107201));
#54 = CARTESIAN_POINT('',(-62.67069460417,42.754051957064,
    -50.50694052942));
#55 = CARTESIAN_POINT('',(-58.69558660902,47.957200007759,
    -48.74413346044));
#56 = CARTESIAN_POINT('',(-57.13163440308,49.848891361881,
    -48.02213778449));
#57 = CARTESIAN_POINT('',(-55.51208829616,51.663029950802,
    -47.24797762693));
#58 = CARTESIAN_POINT('',(-53.84248627295,53.398176794707,
    -46.42517215006));
#59 = CARTESIAN_POINT('',(-52.12807178549,55.053625751886,
    -45.55717346531));
#60 = CARTESIAN_POINT('',(-50.37369658758,56.629244516224,
    -44.64727116847));
#61 = CARTESIAN_POINT('',(-46.28135041112,60.049808879819,
    -42.47815347559));
#62 = CARTESIAN_POINT('',(-43.92027307791,61.842565961322,
    -41.19360498417));
#63 = CARTESIAN_POINT('',(-41.50965296154,63.504550606713,
    -39.85128512572));
#64 = CARTESIAN_POINT('',(-39.05776856609,65.037454512843,
    -38.45715782566));
#65 = CARTESIAN_POINT('',(-36.57197743259,66.443522058166,
    -37.01665912773));
#66 = CARTESIAN_POINT('',(-34.05865371442,67.725339816326,
    -35.53461603551));
#67 = CARTESIAN_POINT('',(-29.56930061145,69.779737119283,
    -32.84431164408));
#68 = CARTESIAN_POINT('',(-27.60239116962,70.601632677228,
    -31.65130483857));
#69 = CARTESIAN_POINT('',(-25.6248962124,71.352557712912,-30.43807948456
    ));
#70 = CARTESIAN_POINT('',(-23.63911180426,72.033730495277,
    -29.20642678194));
#71 = CARTESIAN_POINT('',(-21.64713558747,72.646348469981,
    -27.95799859478));
#72 = CARTESIAN_POINT('',(-19.65086560123,73.19157548401,-26.69430430675
    ));
#73 = CARTESIAN_POINT('',(-16.16483301634,74.026854521306,
    -24.46616644551));
#74 = CARTESIAN_POINT('',(-14.6762501865,74.346494779535,-23.50794369221
    ));
#75 = CARTESIAN_POINT('',(-13.18695935632,74.629894287252,-22.542604848)
  );
#76 = CARTESIAN_POINT('',(-11.69763535328,74.877486829017,
    -21.57069021673));
#77 = CARTESIAN_POINT('',(-10.2089179936,75.089684829494,-20.59271227995
    ));
#78 = CARTESIAN_POINT('',(-8.721412129385,75.266878854621,
    -19.60915563784));
#79 = CARTESIAN_POINT('',(-3.331264253955,75.784074422631,
    -16.02226953215));
#80 = CARTESIAN_POINT('',(0.560450801595,75.919471812944,-13.3889581593)
  );
#81 = CARTESIAN_POINT('',(4.429661985445,75.822442065108,-10.72848009811
    ));
#82 = CARTESIAN_POINT('',(8.266957530993,75.498366529843,-8.048248560262
    ));
#83 = CARTESIAN_POINT('',(12.063372718479,74.951696449597,
    -5.355201197127));
#84 = CARTESIAN_POINT('',(15.810377757957,74.185902219603,
    -2.655799089983));
#85 = CARTESIAN_POINT('',(23.314731386392,72.186896585536,2.835613179917
    ));
#86 = CARTESIAN_POINT('',(27.067326212224,70.938877046914,5.627086538788
    ));
#87 = CARTESIAN_POINT('',(30.748639031244,69.461564368452,8.411836938656
    ));
#88 = CARTESIAN_POINT('',(34.348581164668,67.756337180153,
    11.182721376916));
#89 = CARTESIAN_POINT('',(37.856068341917,65.823863584576,
    13.932046884773));
#90 = CARTESIAN_POINT('',(41.259039388769,63.664162572936,
    16.651572051361));
#91 = CARTESIAN_POINT('',(45.887452555007,60.299567581053,
    20.428600653744));
#92 = CARTESIAN_POINT('',(47.210930113221,59.284967780636,
    21.518237287487));
#93 = CARTESIAN_POINT('',(48.513704562657,58.232177443862,
    22.600722788212));
#94 = CARTESIAN_POINT('',(49.794769890913,57.141144977928,
    23.675379478807));
#95 = CARTESIAN_POINT('',(51.05305443694,56.01181916039,24.741484775523)
  );
#96 = CARTESIAN_POINT('',(52.287421381516,54.844150166069,25.79827133503
    ));
#97 = CARTESIAN_POINT('',(53.496669237728,53.638090593965,
    26.844927201493));
#98 = ORIENTED_EDGE('',*,*,#99,.F.);
#99 = EDGE_CURVE('',#100,#45,#102,.T.);
#100 = VERTEX_POINT('',#101);
#101 = CARTESIAN_POINT('',(-73.14851987313,19.70361444558,
    26.844927200918));
#102 = B_SPLINE_CURVE_WITH_KNOTS('',7,(#103,#104,#105,#106,#107,#108,
    #109,#110,#111,#112,#113,#114,#115,#116,#117,#118,#119,#120,#121,
    #122,#123,#124,#125,#126,#127,#128,#129,#130,#131,#132,#133,#134,
    #135,#136,#137,#138,#139,#140,#141,#142,#143,#144,#145,#146,#147,
    #148,#149,#150,#151,#152,#153,#154,#155,#156,#157,#158,#159,#160,
    #161,#162,#163,#164,#165,#166,#167,#168,#169,#170,#171,#172,#173,
    #174,#175,#176),.UNSPECIFIED.,.F.,.F.,(8,6,6,6,6,6,6,6,6,6,6,6,8),(
    0.,0.107146507918,0.175165510252,0.260835113896,0.324696615151,
    0.373540940333,0.499653459376,0.626385418157,0.675350303008,
    0.741247952651,0.825862327112,0.891888963615,1.),.UNSPECIFIED.);
#103 = CARTESIAN_POINT('',(-53.63809059396,-53.49666923772,
    53.689854402986));
#104 = CARTESIAN_POINT('',(-56.63871437262,-50.48811314682,
    53.685888246864));
#105 = CARTESIAN_POINT('',(-59.44358738008,-47.28207320774,
    53.485304781057));
#106 = CARTESIAN_POINT('',(-62.02227286534,-43.90854658223,
    53.087884210924));
#107 = CARTESIAN_POINT('',(-64.35654887111,-40.39988476404,
    52.500691304719));
#108 = CARTESIAN_POINT('',(-66.43633312814,-36.78861076918,
    51.734946435805));
#109 = CARTESIAN_POINT('',(-68.2582650728,-33.10668755797,
    50.804950802528));
#110 = CARTESIAN_POINT('',(-70.81885937682,-27.02218527918,
    49.042996815146));
#111 = CARTESIAN_POINT('',(-71.71057504919,-24.64239640254,
    48.298960213007));
#112 = CARTESIAN_POINT('',(-72.50053071255,-22.2523359295,
    47.498907808169));
#113 = CARTESIAN_POINT('',(-73.1904044028,-19.85813100261,
    46.646742189851));
#114 = CARTESIAN_POINT('',(-73.7824330849,-17.46519915352,45.74629060635
    ));
#115 = CARTESIAN_POINT('',(-74.27919293876,-15.07824275198,
    44.801192332514));
#116 = CARTESIAN_POINT('',(-75.19259463367,-9.707432908657,
    42.572488258307));
#117 = CARTESIAN_POINT('',(-75.55495429694,-6.72965609477,
    41.264779682996));
#118 = CARTESIAN_POINT('',(-75.77612734986,-3.775561702339,
    39.898319013241));
#119 = CARTESIAN_POINT('',(-75.86194896138,-0.851628334496,
    38.47926313508));
#120 = CARTESIAN_POINT('',(-75.81825705617,2.036777956461,
    37.013214036996));
#121 = CARTESIAN_POINT('',(-75.65067194391,4.885349831088,
    35.505135543554));
#122 = CARTESIAN_POINT('',(-75.15097178206,9.7820665654,32.806927095471)
  );
#123 = CARTESIAN_POINT('',(-74.87161008546,11.849270305471,
    31.633644377135));
#124 = CARTESIAN_POINT('',(-74.52846474118,13.890972890165,
    30.441220412647));
#125 = CARTESIAN_POINT('',(-74.12359550198,15.905897827969,
    29.231323324146));
#126 = CARTESIAN_POINT('',(-73.65895316761,17.892914180518,
    28.005493980688));
#127 = CARTESIAN_POINT('',(-73.13636946766,19.851031865138,
    26.765143288401));
#128 = CARTESIAN_POINT('',(-72.11482114684,23.254296169277,
    24.552736975924));
#129 = CARTESIAN_POINT('',(-71.63920542118,24.711772779994,
    23.586190807733));
#130 = CARTESIAN_POINT('',(-71.13145374497,26.151429497543,
    22.612486610856));
#131 = CARTESIAN_POINT('',(-70.59229184354,27.572892745003,
    21.632174036408));
#132 = CARTESIAN_POINT('',(-70.02240846182,28.975808699805,
    20.64577436815));
#133 = CARTESIAN_POINT('',(-69.42245496358,30.359843004189,
    19.653780466839));
#134 = CARTESIAN_POINT('',(-67.16795369456,35.248592229409,
    16.082155219718));
#135 = CARTESIAN_POINT('',(-65.34665779966,38.644176577074,
    13.473715098438));
#136 = CARTESIAN_POINT('',(-63.33956450715,41.906515652092,
    10.838998914663));
#137 = CARTESIAN_POINT('',(-61.15571758096,45.030319023062,
    8.185173766098));
#138 = CARTESIAN_POINT('',(-58.80317444164,48.010210342626,
    5.518956536644));
#139 = CARTESIAN_POINT('',(-56.28897269125,50.840695121057,
    2.846613272237));
#140 = CARTESIAN_POINT('',(-50.93565323254,56.204311621719,
    -2.51185470745));
#141 = CARTESIAN_POINT('',(-48.09549094833,58.735422897104,
    -5.197491487247));
#142 = CARTESIAN_POINT('',(-45.10432312867,61.10344398018,
    -7.877085938609));
#143 = CARTESIAN_POINT('',(-41.96773172554,63.301247894517,
    -10.54428359735));
#144 = CARTESIAN_POINT('',(-38.69117553865,65.320670874568,
    -13.19227318081));
#145 = CARTESIAN_POINT('',(-35.28002342901,67.15254688456,
    -15.81378724063));
#146 = CARTESIAN_POINT('',(-30.37122951245,69.417553701486,
    -19.40068760737));
#147 = CARTESIAN_POINT('',(-28.98390549686,70.019190161333,
    -20.39516784509));
#148 = CARTESIAN_POINT('',(-27.57760474828,70.590611304107,
    -21.38402879077));
#149 = CARTESIAN_POINT('',(-26.15266404554,71.131161063594,
    -22.36677402188));
#150 = CARTESIAN_POINT('',(-24.70943981963,71.640145623087,
    -23.34287841458));
#151 = CARTESIAN_POINT('',(-23.24830844695,72.116833820908,
    -24.31178819983));
#152 = CARTESIAN_POINT('',(-19.7796888991,73.157492789485,
    -26.56642745805));
#153 = CARTESIAN_POINT('',(-17.75803338916,73.694629591673,
    -27.84582361411));
#154 = CARTESIAN_POINT('',(-15.70563946925,74.170007376399,
    -29.10970946643));
#155 = CARTESIAN_POINT('',(-13.62359856699,74.581608451605,
    -30.35653045516));
#156 = CARTESIAN_POINT('',(-11.51316409045,74.927280209366,
    -31.58458357231));
#157 = CARTESIAN_POINT('',(-9.375757049717,75.204747291026,
    -32.79202063351));
#158 = CARTESIAN_POINT('',(-4.435886414914,75.677235858064,
    -35.49820023443));
#159 = CARTESIAN_POINT('',(-1.61714831919,75.82643881857,-36.98217076255
    ));
#160 = CARTESIAN_POINT('',(1.23999655302,75.854189070771,-38.42461832475
    ));
#161 = CARTESIAN_POINT('',(4.131324551213,75.755051021436,
    -39.82071329918));
#162 = CARTESIAN_POINT('',(7.051588084708,75.523391448354,
    -41.16501527939));
#163 = CARTESIAN_POINT('',(9.994464463314,75.153593093815,
    -42.45155429142));
#164 = CARTESIAN_POINT('',(15.260734126288,74.239724832995,
    -44.6277549925));
#165 = CARTESIAN_POINT('',(17.578061333021,73.751807864016,
    -45.54246011137));
#166 = CARTESIAN_POINT('',(19.900804326238,73.174012656856,
    -46.4149340044));
#167 = CARTESIAN_POINT('',(22.224643522726,72.503994041101,
    -47.24184429477));
#168 = CARTESIAN_POINT('',(24.544623049,71.739711984003,-48.01969302936)
  );
#169 = CARTESIAN_POINT('',(26.855155486205,70.879621466248,
    -48.74491398908));
#170 = CARTESIAN_POINT('',(32.907622666367,68.356420082119,
    -50.5095468871));
#171 = CARTESIAN_POINT('',(36.625901819903,66.529784703044,
    -51.45536877433));
#172 = CARTESIAN_POINT('',(40.273390414205,64.440535606254,
    -52.23448852309));
#173 = CARTESIAN_POINT('',(43.817314823564,62.091920045427,
    -52.83214294735));
#174 = CARTESIAN_POINT('',(47.224277128998,59.494123634217,
    -53.23672589446));
#175 = CARTESIAN_POINT('',(50.461010739819,56.665745321846,
    -53.44090354369));
#176 = CARTESIAN_POINT('',(53.496669237728,53.638090593965,
    -53.4449054287));
#177 = ORIENTED_EDGE('',*,*,#178,.F.);
#178 = EDGE_CURVE('',#24,#100,#179,.T.);
#179 = B_SPLINE_CURVE_WITH_KNOTS('',4,(#180,#181,#182,#183,#184),
  .UNSPECIFIED.,.F.,.F.,(5,5),(0.,1.),.PIECEWISE_BEZIER_KNOTS.);
#180 = CARTESIAN_POINT('',(-73.1485198747,19.703614446001,53.9000006));
#181 = CARTESIAN_POINT('',(-73.1485198747,19.703614446001,
    27.063773942823));
#182 = CARTESIAN_POINT('',(-73.1485198747,19.703614446001,0.227547285646
    ));
#183 = CARTESIAN_POINT('',(-73.1485198747,19.703614446001,
    -26.60867937153));
#184 = CARTESIAN_POINT('',(-73.1485198747,19.703614446001,-53.4449060287
    ));
#185 = CYLINDRICAL_SURFACE('',#186,75.755781179374);
#186 = AXIS2_PLACEMENT_3D('',#187,#188,#189);
#187 = CARTESIAN_POINT('',(0.,0.,-53.9));
#188 = DIRECTION('',(0.,0.,1.));
#189 = DIRECTION('',(1.,0.,0.));
#190 = ADVANCED_FACE('',(#191),#213,.T.);
#191 = FACE_BOUND('',#192,.T.);
#192 = EDGE_LOOP('',(#193,#202,#207,#208));
#193 = ORIENTED_EDGE('',*,*,#194,.T.);
#194 = EDGE_CURVE('',#195,#197,#199,.T.);
#195 = VERTEX_POINT('',#196);
#196 = CARTESIAN_POINT('',(-1.890858491863,0.610181623937,53.9));
#197 = VERTEX_POINT('',#198);
#198 = CARTESIAN_POINT('',(1.332440676946,1.473862033184,53.9));
#199 = B_SPLINE_CURVE_WITH_KNOTS('',1,(#200,#201),.UNSPECIFIED.,.F.,.F.,
  (2,2),(0.,1.),.PIECEWISE_BEZIER_KNOTS.);
#200 = CARTESIAN_POINT('',(-2.084043657121,0.558417814917,53.9));
#201 = CARTESIAN_POINT('',(1.525625842204,1.525625842204,53.9));
#202 = ORIENTED_EDGE('',*,*,#203,.T.);
#203 = EDGE_CURVE('',#197,#22,#204,.T.);
#204 = B_SPLINE_CURVE_WITH_KNOTS('',1,(#205,#206),.UNSPECIFIED.,.F.,.F.,
  (2,2),(0.,1.),.PIECEWISE_BEZIER_KNOTS.);
#205 = CARTESIAN_POINT('',(-75.75578117937,-75.61435982313,53.9));
#206 = CARTESIAN_POINT('',(75.614359823137,75.755781179374,53.9));
#207 = ORIENTED_EDGE('',*,*,#21,.T.);
#208 = ORIENTED_EDGE('',*,*,#209,.F.);
#209 = EDGE_CURVE('',#195,#24,#210,.T.);
#210 = B_SPLINE_CURVE_WITH_KNOTS('',1,(#211,#212),.UNSPECIFIED.,.F.,.F.,
  (2,2),(0.,1.),.PIECEWISE_BEZIER_KNOTS.);
#211 = CARTESIAN_POINT('',(53.496669237728,-14.23086170196,53.9));
#212 = CARTESIAN_POINT('',(-75.75578117937,20.402228007043,53.9));
#213 = PLANE('',#214);
#214 = AXIS2_PLACEMENT_3D('',#215,#216,#217);
#215 = CARTESIAN_POINT('',(0.,0.,53.9));
#216 = DIRECTION('',(0.,0.,1.));
#217 = DIRECTION('',(1.,0.,0.));
#218 = ADVANCED_FACE('',(#219),#235,.F.);
#219 = FACE_BOUND('',#220,.F.);
#220 = EDGE_LOOP('',(#221,#222,#223,#230));
#221 = ORIENTED_EDGE('',*,*,#178,.F.);
#222 = ORIENTED_EDGE('',*,*,#209,.F.);
#223 = ORIENTED_EDGE('',*,*,#224,.F.);
#224 = EDGE_CURVE('',#225,#195,#227,.T.);
#225 = VERTEX_POINT('',#226);
#226 = CARTESIAN_POINT('',(-50.28202344881,13.576555194953,
    18.475208614068));
#227 = B_SPLINE_CURVE_WITH_KNOTS('',1,(#228,#229),.UNSPECIFIED.,.F.,.F.,
  (2,2),(0.,1.),.PIECEWISE_BEZIER_KNOTS.);
#228 = CARTESIAN_POINT('',(-50.28202392201,13.576555321747,
    18.475208267658));
#229 = CARTESIAN_POINT('',(-2.988537586717E-02,0.11153538037,
    55.262326872429));
#230 = ORIENTED_EDGE('',*,*,#231,.F.);
#231 = EDGE_CURVE('',#100,#225,#232,.T.);
#232 = B_SPLINE_CURVE_WITH_KNOTS('',1,(#233,#234),.UNSPECIFIED.,.F.,.F.,
  (2,2),(0.,1.),.PIECEWISE_BEZIER_KNOTS.);
#233 = CARTESIAN_POINT('',(-78.36649960581,21.101767901072,
    28.754840339509));
#234 = CARTESIAN_POINT('',(60.543574456549,-16.11907426448,
    -22.08977560889));
#235 = B_SPLINE_SURFACE_WITH_KNOTS('',1,1,(
    (#236,#237)
    ,(#238,#239
    )),.UNSPECIFIED.,.F.,.F.,.F.,(2,2),(2,2),(0.,500.),(0.,500.),
  .PIECEWISE_BEZIER_KNOTS.);
#236 = CARTESIAN_POINT('',(-170.7272935685,45.849768055684,
    306.18621784789));
#237 = CARTESIAN_POINT('',(-295.7272935685,79.343417109574,
    -176.7766952966));
#238 = CARTESIAN_POINT('',(295.77905737756,-79.15023194431,
    176.77669529663));
#239 = CARTESIAN_POINT('',(170.77905737756,-45.65658289042,
    -306.1862178478));
#240 = ADVANCED_FACE('',(#241),#257,.F.);
#241 = FACE_BOUND('',#242,.F.);
#242 = EDGE_LOOP('',(#243,#244,#245,#252));
#243 = ORIENTED_EDGE('',*,*,#99,.F.);
#244 = ORIENTED_EDGE('',*,*,#231,.T.);
#245 = ORIENTED_EDGE('',*,*,#246,.F.);
#246 = EDGE_CURVE('',#247,#225,#249,.T.);
#247 = VERTEX_POINT('',#248);
#248 = CARTESIAN_POINT('',(-13.49490553686,50.363673106903,
    -18.31190929788));
#249 = B_SPLINE_CURVE_WITH_KNOTS('',1,(#250,#251),.UNSPECIFIED.,.F.,.F.,
  (2,2),(0.,1.),.PIECEWISE_BEZIER_KNOTS.);
#250 = CARTESIAN_POINT('',(-13.41325587876,50.445322764996,
    -18.39355895597));
#251 = CARTESIAN_POINT('',(-50.3636731069,13.49490553686,18.556858272161
    ));
#252 = ORIENTED_EDGE('',*,*,#253,.T.);
#253 = EDGE_CURVE('',#247,#45,#254,.T.);
#254 = B_SPLINE_CURVE_WITH_KNOTS('',1,(#255,#256),.UNSPECIFIED.,.F.,.F.,
  (2,2),(0.,1.),.PIECEWISE_BEZIER_KNOTS.);
#255 = CARTESIAN_POINT('',(-2.340117843706,8.733438688408,
    -3.074185935212));
#256 = CARTESIAN_POINT('',(-20.99562407611,78.356735788658,
    -28.55808136913));
#257 = B_SPLINE_SURFACE_WITH_KNOTS('',1,1,(
    (#258,#259)
    ,(#260,#261
    )),.UNSPECIFIED.,.F.,.F.,.F.,(2,2),(2,2),(0.,500.),(0.,500.),
  .PIECEWISE_BEZIER_KNOTS.);
#258 = CARTESIAN_POINT('',(-204.0833204028,-204.0833204028,
    204.20579489002));
#259 = CARTESIAN_POINT('',(-249.9591751709,250.04082482904,
    8.164965809277E-02));
#260 = CARTESIAN_POINT('',(250.04082482904,-249.9591751709,
    8.164965809277E-02));
#261 = CARTESIAN_POINT('',(204.16497006097,204.16497006097,
    -204.0424955738));
#262 = ADVANCED_FACE('',(#263),#279,.F.);
#263 = FACE_BOUND('',#264,.F.);
#264 = EDGE_LOOP('',(#265,#266,#267,#274));
#265 = ORIENTED_EDGE('',*,*,#44,.F.);
#266 = ORIENTED_EDGE('',*,*,#253,.F.);
#267 = ORIENTED_EDGE('',*,*,#268,.F.);
#268 = EDGE_CURVE('',#269,#247,#271,.T.);
#269 = VERTEX_POINT('',#270);
#270 = CARTESIAN_POINT('',(36.757232062878,36.898653419116,
    18.475208614068));
#271 = B_SPLINE_CURVE_WITH_KNOTS('',1,(#272,#273),.UNSPECIFIED.,.F.,.F.,
  (2,2),(0.,1.),.PIECEWISE_BEZIER_KNOTS.);
#272 = CARTESIAN_POINT('',(36.757232536083,36.898653292321,
    18.475208960478));
#273 = CARTESIAN_POINT('',(-13.49490648327,50.363673360493,
    -18.3119099907));
#274 = ORIENTED_EDGE('',*,*,#275,.F.);
#275 = EDGE_CURVE('',#33,#269,#276,.T.);
#276 = B_SPLINE_CURVE_WITH_KNOTS('',1,(#277,#278),.UNSPECIFIED.,.F.,.F.,
  (2,2),(0.,1.),.PIECEWISE_BEZIER_KNOTS.);
#277 = CARTESIAN_POINT('',(67.630449385798,67.771870742035,
    33.911817275528));
#278 = CARTESIAN_POINT('',(3.967934079444,4.109355435681,2.080559622351)
  );
#279 = B_SPLINE_SURFACE_WITH_KNOTS('',1,1,(
    (#280,#281)
    ,(#282,#283
    )),.UNSPECIFIED.,.F.,.F.,.F.,(2,2),(2,2),(0.,500.),(0.,500.),
  .PIECEWISE_BEZIER_KNOTS.);
#280 = CARTESIAN_POINT('',(-218.7219762368,-258.3809212081,
    -101.9804229578));
#281 = CARTESIAN_POINT('',(-195.7840488527,235.47287967322,
    -176.6950456385));
#282 = CARTESIAN_POINT('',(195.67251334563,-235.4429938241,
    176.85834495473));
#283 = CARTESIAN_POINT('',(218.61044072966,258.41080705725,
    102.14372227405));
#284 = ADVANCED_FACE('',(#285),#295,.F.);
#285 = FACE_BOUND('',#286,.F.);
#286 = EDGE_LOOP('',(#287,#292,#293,#294));
#287 = ORIENTED_EDGE('',*,*,#288,.F.);
#288 = EDGE_CURVE('',#197,#269,#289,.T.);
#289 = B_SPLINE_CURVE_WITH_KNOTS('',1,(#290,#291),.UNSPECIFIED.,.F.,.F.,
  (2,2),(0.,1.),.PIECEWISE_BEZIER_KNOTS.);
#290 = CARTESIAN_POINT('',(-0.111535507165,2.988584907228E-02,
    55.343976184111));
#291 = CARTESIAN_POINT('',(36.838881720971,36.980303077208,
    18.393558955975));
#292 = ORIENTED_EDGE('',*,*,#203,.T.);
#293 = ORIENTED_EDGE('',*,*,#32,.T.);
#294 = ORIENTED_EDGE('',*,*,#275,.T.);
#295 = B_SPLINE_SURFACE_WITH_KNOTS('',1,1,(
    (#296,#297)
    ,(#298,#299
    )),.UNSPECIFIED.,.F.,.F.,.F.,(2,2),(2,2),(0.,500.),(0.,500.),
  .PIECEWISE_BEZIER_KNOTS.);
#296 = CARTESIAN_POINT('',(-250.0707106781,-249.9292893218,
    2.84217094304E-14));
#297 = CARTESIAN_POINT('',(-7.071067811876E-02,7.07106781187E-02,
    -353.5533905932));
#298 = CARTESIAN_POINT('',(-7.07106781186E-02,7.071067811863E-02,
    353.55339059327));
#299 = CARTESIAN_POINT('',(249.92928932188,250.07071067811,
    -2.84217094304E-14));
#300 = ADVANCED_FACE('',(#301),#308,.F.);
#301 = FACE_BOUND('',#302,.F.);
#302 = EDGE_LOOP('',(#303,#304,#305,#306,#307));
#303 = ORIENTED_EDGE('',*,*,#246,.T.);
#304 = ORIENTED_EDGE('',*,*,#224,.T.);
#305 = ORIENTED_EDGE('',*,*,#194,.T.);
#306 = ORIENTED_EDGE('',*,*,#288,.T.);
#307 = ORIENTED_EDGE('',*,*,#268,.T.);
#308 = B_SPLINE_SURFACE_WITH_KNOTS('',1,1,(
    (#309,#310)
    ,(#311,#312
    )),.UNSPECIFIED.,.F.,.F.,.F.,(2,2),(2,2),(0.,64.),(0.,64.),
  .PIECEWISE_BEZIER_KNOTS.);
#309 = CARTESIAN_POINT('',(-13.52479138593,50.475208614068,
    -18.47520861406));
#310 = CARTESIAN_POINT('',(36.950417228136,36.950417228136,
    18.475208614068));
#311 = CARTESIAN_POINT('',(-50.47520861406,13.524791385932,
    18.475208614068));
#312 = CARTESIAN_POINT('',(0.,0.,55.425625842204));
#313 = ( GEOMETRIC_REPRESENTATION_CONTEXT(3) 
GLOBAL_UNCERTAINTY_ASSIGNED_CONTEXT((#317)) GLOBAL_UNIT_ASSIGNED_CONTEXT
((#314,#315,#316)) REPRESENTATION_CONTEXT('Context #1',
  '3D Context with UNIT and UNCERTAINTY') );
#314 = ( LENGTH_UNIT() NAMED_UNIT(*) SI_UNIT(.MILLI.,.METRE.) );
#315 = ( NAMED_UNIT(*) PLANE_ANGLE_UNIT() SI_UNIT($,.RADIAN.) );
#316 = ( NAMED_UNIT(*) SI_UNIT($,.STERADIAN.) SOLID_ANGLE_UNIT() );
#317 = UNCERTAINTY_MEASURE_WITH_UNIT(LENGTH_MEASURE(5.E-06),#314,
  'distance_accuracy_value','confusion accuracy');
#318 = PRODUCT_RELATED_PRODUCT_CATEGORY('part',$,(#7));
ENDSEC;
END-ISO-10303-21;
