ISO-10303-21;
HEADER;
FILE_DESCRIPTION(('FreeCAD Model'),'2;1');
FILE_NAME('Open CASCADE Shape Model','2026-07-28T22:26:06',('FreeCAD'),(
    'FreeCAD'),'Open CASCADE STEP processor 7.8','FreeCAD','Unknown');
FILE_SCHEMA(('AUTOMOTIVE_DESIGN { 1 0 10303 214 1 1 1 1 }'));
ENDSEC;
DATA;
#1 = APPLICATION_PROTOCOL_DEFINITION('international standard',
  'automotive_design',2000,#2);
#2 = APPLICATION_CONTEXT(
  'core data for automotive mechanical design processes');
#3 = SHAPE_DEFINITION_REPRESENTATION(#4,#10);
#4 = PRODUCT_DEFINITION_SHAPE('','',#5);
#5 = PRODUCT_DEFINITION('design','',#6,#9);
#6 = PRODUCT_DEFINITION_FORMATION('','',#7);
#7 = PRODUCT('Open CASCADE STEP translator 7.8 12',
  'Open CASCADE STEP translator 7.8 12','',(#8));
#8 = PRODUCT_CONTEXT('',#2,'mechanical');
#9 = PRODUCT_DEFINITION_CONTEXT('part definition',#2,'design');
#10 = ADVANCED_BREP_SHAPE_REPRESENTATION('',(#11,#15),#330);
#11 = AXIS2_PLACEMENT_3D('',#12,#13,#14);
#12 = CARTESIAN_POINT('',(0.,0.,0.));
#13 = DIRECTION('',(0.,0.,1.));
#14 = DIRECTION('',(1.,0.,-0.));
#15 = MANIFOLD_SOLID_BREP('',#16);
#16 = CLOSED_SHELL('',(#17,#207,#235,#257,#279,#301,#317));
#17 = ADVANCED_FACE('',(#18),#202,.T.);
#18 = FACE_BOUND('',#19,.T.);
#19 = EDGE_LOOP('',(#20,#131,#141,#150,#161));
#20 = ORIENTED_EDGE('',*,*,#21,.F.);
#21 = EDGE_CURVE('',#22,#24,#26,.T.);
#22 = VERTEX_POINT('',#23);
#23 = CARTESIAN_POINT('',(-19.70361444558,73.148519873137,
    -26.84492720091));
#24 = VERTEX_POINT('',#25);
#25 = CARTESIAN_POINT('',(-73.17446552993,19.607038945326,
    26.661238805166));
#26 = B_SPLINE_CURVE_WITH_KNOTS('',7,(#27,#28,#29,#30,#31,#32,#33,#34,
    #35,#36,#37,#38,#39,#40,#41,#42,#43,#44,#45,#46,#47,#48,#49,#50,#51,
    #52,#53,#54,#55,#56,#57,#58,#59,#60,#61,#62,#63,#64,#65,#66,#67,#68,
    #69,#70,#71,#72,#73,#74,#75,#76,#77,#78,#79,#80,#81,#82,#83,#84,#85,
    #86,#87,#88,#89,#90,#91,#92,#93,#94,#95,#96,#97,#98,#99,#100,#101,
    #102,#103,#104,#105,#106,#107,#108,#109,#110,#111,#112,#113,#114,
    #115,#116,#117,#118,#119,#120,#121,#122,#123,#124,#125,#126,#127,
    #128,#129,#130),.UNSPECIFIED.,.F.,.F.,(8,6,6,6,6,6,6,6,6,6,6,6,6,6,6
    ,6,6,8),(0.,8.167463890153E-02,0.133350044226,0.198434966679,
    0.246951834741,0.284059851839,0.379870071254,0.476150891508,
    0.513350500212,0.563414271193,0.627697514795,0.67785927969,
    0.722157587259,0.760686053543,0.810543077639,0.834904923736,
    0.87831313006,1.),.UNSPECIFIED.);
#27 = CARTESIAN_POINT('',(53.56742658602,53.56742658602,-53.68990107315)
  );
#28 = CARTESIAN_POINT('',(50.552735397909,56.582117774131,
    -53.68990107315));
#29 = CARTESIAN_POINT('',(47.338757120127,59.400216237532,
    -53.49196116597));
#30 = CARTESIAN_POINT('',(43.955731593121,61.990856726473,
    -53.09576864693));
#31 = CARTESIAN_POINT('',(40.436316904237,64.335558069068,
    -52.50841197379));
#32 = CARTESIAN_POINT('',(36.813365364937,66.424083108998,-51.7411987241
    ));
#33 = CARTESIAN_POINT('',(33.119182394155,68.253006761623,
    -50.80856906502));
#34 = CARTESIAN_POINT('',(27.022185279186,70.818859376826,
    -49.04299681514));
#35 = CARTESIAN_POINT('',(24.642396402544,71.710575049193,-48.298960213)
  );
#36 = CARTESIAN_POINT('',(22.252335929505,72.500530712553,
    -47.49890780816));
#37 = CARTESIAN_POINT('',(19.858131002616,73.190404402807,
    -46.64674218985));
#38 = CARTESIAN_POINT('',(17.465199153524,73.7824330849,-45.74629060635)
  );
#39 = CARTESIAN_POINT('',(15.078242751985,74.279192938764,
    -44.80119233251));
#40 = CARTESIAN_POINT('',(9.707432908659,75.192594633677,-42.5724882583)
  );
#41 = CARTESIAN_POINT('',(6.729656094773,75.554954296944,-41.26477968299
    ));
#42 = CARTESIAN_POINT('',(3.775561702344,75.776127349864,-39.89831901324
    ));
#43 = CARTESIAN_POINT('',(0.851628334502,75.861948961386,-38.47926313508
    ));
#44 = CARTESIAN_POINT('',(-2.036777956454,75.818257056175,-37.013214037)
  );
#45 = CARTESIAN_POINT('',(-4.885349831078,75.650671943919,
    -35.50513554356));
#46 = CARTESIAN_POINT('',(-9.782066565388,75.150971782066,
    -32.80692709547));
#47 = CARTESIAN_POINT('',(-11.84927030546,74.871610085465,
    -31.63364437714));
#48 = CARTESIAN_POINT('',(-13.89097289015,74.528464741183,
    -30.44122041265));
#49 = CARTESIAN_POINT('',(-15.90589782795,74.123595501987,
    -29.23132332415));
#50 = CARTESIAN_POINT('',(-17.8929141805,73.658953167617,-28.00549398069
    ));
#51 = CARTESIAN_POINT('',(-19.85103186512,73.136369467665,-26.7651432884
    ));
#52 = CARTESIAN_POINT('',(-23.25429616926,72.114821146851,
    -24.55273697593));
#53 = CARTESIAN_POINT('',(-24.71177277998,71.639205421185,
    -23.58619080774));
#54 = CARTESIAN_POINT('',(-26.15142949753,71.131453744982,
    -22.61248661086));
#55 = CARTESIAN_POINT('',(-27.57289274499,70.592291843545,
    -21.63217403641));
#56 = CARTESIAN_POINT('',(-28.97580869979,70.02240846183,-20.64577436815
    ));
#57 = CARTESIAN_POINT('',(-30.35984300417,69.422454963593,
    -19.65378046684));
#58 = CARTESIAN_POINT('',(-35.2485922294,67.167953694572,-16.08215521972
    ));
#59 = CARTESIAN_POINT('',(-38.64417657705,65.34665779967,-13.47371509845
    ));
#60 = CARTESIAN_POINT('',(-41.90651565209,63.339564507174,
    -10.83899891466));
#61 = CARTESIAN_POINT('',(-45.03031902304,61.155717580958,
    -8.185173766109));
#62 = CARTESIAN_POINT('',(-48.01021034262,58.803174441657,
    -5.518956536653));
#63 = CARTESIAN_POINT('',(-50.84069512104,56.288972691263,
    -2.846613272248));
#64 = CARTESIAN_POINT('',(-56.20431162171,50.935653232552,2.51185470744)
  );
#65 = CARTESIAN_POINT('',(-58.73542289709,48.095490948347,5.197491487239
    ));
#66 = CARTESIAN_POINT('',(-61.10344398016,45.104323128685,7.877085938593
    ));
#67 = CARTESIAN_POINT('',(-63.30124789451,41.96773172555,10.544283597353
    ));
#68 = CARTESIAN_POINT('',(-65.32067087455,38.691175538671,13.1922731808)
  );
#69 = CARTESIAN_POINT('',(-67.15254688455,35.280023429022,
    15.813787240628));
#70 = CARTESIAN_POINT('',(-69.41755370148,30.37122951247,19.400687607366
    ));
#71 = CARTESIAN_POINT('',(-70.01919016132,28.983905496873,
    20.395167845089));
#72 = CARTESIAN_POINT('',(-70.5906113041,27.577604748294,21.384028790765
    ));
#73 = CARTESIAN_POINT('',(-71.13116106359,26.152664045552,22.36677402188
    ));
#74 = CARTESIAN_POINT('',(-71.64014562308,24.709439819643,
    23.342878414581));
#75 = CARTESIAN_POINT('',(-72.1168338209,23.248308446963,24.311788199831
    ));
#76 = CARTESIAN_POINT('',(-73.15749278948,19.779688899111,
    26.566427458046));
#77 = CARTESIAN_POINT('',(-73.69462959167,17.758033389183,
    27.845823614104));
#78 = CARTESIAN_POINT('',(-74.17000737639,15.705639469265,
    29.109709466428));
#79 = CARTESIAN_POINT('',(-74.5816084516,13.623598567001,30.356530455163
    ));
#80 = CARTESIAN_POINT('',(-74.92728020936,11.513164090473,
    31.584583572305));
#81 = CARTESIAN_POINT('',(-75.20474729102,9.375757049727,32.79202063351)
  );
#82 = CARTESIAN_POINT('',(-75.67723585806,4.435886414927,35.498200234429
    ));
#83 = CARTESIAN_POINT('',(-75.82643881857,1.617148319206,36.982170762544
    ));
#84 = CARTESIAN_POINT('',(-75.85418907077,-1.239996553001,
    38.424618324745));
#85 = CARTESIAN_POINT('',(-75.75505102143,-4.131324551192,
    39.820713299174));
#86 = CARTESIAN_POINT('',(-75.52339144835,-7.051588084685,
    41.165015279383));
#87 = CARTESIAN_POINT('',(-75.15359309381,-9.994464463287,
    42.451554291413));
#88 = CARTESIAN_POINT('',(-74.239724833,-15.26073412625,44.627754992491)
  );
#89 = CARTESIAN_POINT('',(-73.75180786402,-17.57806133299,45.54246011137
    ));
#90 = CARTESIAN_POINT('',(-73.17401265686,-19.9008043262,46.414934004396
    ));
#91 = CARTESIAN_POINT('',(-72.50399404111,-22.22464352269,
    47.241844294763));
#92 = CARTESIAN_POINT('',(-71.73971198401,-24.54462304897,
    48.019693029355));
#93 = CARTESIAN_POINT('',(-70.87962146626,-26.85515548617,
    48.744913989077));
#94 = CARTESIAN_POINT('',(-69.07804036215,-31.17665379129,
    50.004872589588));
#95 = CARTESIAN_POINT('',(-68.15780093923,-33.19110518557,
    50.551978575265));
#96 = CARTESIAN_POINT('',(-67.16169815949,-35.18895870511,
    51.052853945168));
#97 = CARTESIAN_POINT('',(-66.08969025156,-37.16549498856,
    51.505118132927));
#98 = CARTESIAN_POINT('',(-64.94228753282,-39.1157303045,51.906534431525
    ));
#99 = CARTESIAN_POINT('',(-63.72069086324,-41.03446191711,52.25510190304
    ));
#100 = CARTESIAN_POINT('',(-61.30176346715,-44.55308341594,
    52.804948954409));
#101 = CARTESIAN_POINT('',(-60.12192721984,-46.16205223223,
    53.019515238903));
#102 = CARTESIAN_POINT('',(-58.88885520954,-47.73964870805,
    53.191777471656));
#103 = CARTESIAN_POINT('',(-57.60430140482,-49.28241899672,
    53.320885713634));
#104 = CARTESIAN_POINT('',(-56.27039734504,-50.78705235941,
    53.406250365089));
#105 = CARTESIAN_POINT('',(-54.88968058546,-52.25040251964,
    53.447567065414));
#106 = CARTESIAN_POINT('',(-51.6217361392,-55.50590211483,53.44134463988
    ));
#107 = CARTESIAN_POINT('',(-49.70467036501,-57.26849152023,
    53.364106455488));
#108 = CARTESIAN_POINT('',(-47.72050182168,-58.95073282988,
    53.213142838645));
#109 = CARTESIAN_POINT('',(-45.67626047214,-60.54746627234,
    52.989388885103));
#110 = CARTESIAN_POINT('',(-43.57930466385,-62.05472124051,
    52.694538465046));
#111 = CARTESIAN_POINT('',(-41.43723059455,-63.46958270574,
    52.33093216301));
#112 = CARTESIAN_POINT('',(-38.19290300239,-65.4353954855,
    51.691674756811));
#113 = CARTESIAN_POINT('',(-37.11899842067,-66.05818032494,
    51.466114885671));
#114 = CARTESIAN_POINT('',(-36.0369823095,-66.65828259891,
    51.225157967071));
#115 = CARTESIAN_POINT('',(-34.94769771772,-67.235568181,50.969158462226
    ));
#116 = CARTESIAN_POINT('',(-33.85196420567,-67.78996410883,
    50.698489670112));
#117 = CARTESIAN_POINT('',(-32.75057559903,-68.32145132293,
    50.413538973845));
#118 = CARTESIAN_POINT('',(-29.67311964523,-69.73629733879,
    49.582234004877));
#119 = CARTESIAN_POINT('',(-27.68642485562,-70.56989050144,
    49.005683191397));
#120 = CARTESIAN_POINT('',(-25.68851092246,-71.33101309968,
    48.387287523934));
#121 = CARTESIAN_POINT('',(-23.6833304094,-72.02033643259,
    47.729358933864));
#122 = CARTESIAN_POINT('',(-21.6744786551,-72.63889161141,
    47.034210646122));
#123 = CARTESIAN_POINT('',(-19.66518463824,-73.187962572,46.304099117984
    ));
#124 = CARTESIAN_POINT('',(-12.03238928453,-75.01752744266,
    43.402483876457));
#125 = CARTESIAN_POINT('',(-6.430839084554,-75.83016559406,
    41.008027852172));
#126 = CARTESIAN_POINT('',(-0.907760679211,-76.14296374653,
    38.402887725738));
#127 = CARTESIAN_POINT('',(4.495201155373,-75.99466119164,
    35.627255530994));
#128 = CARTESIAN_POINT('',(9.747843776053,-75.42328120913,
    32.715244229404));
#129 = CARTESIAN_POINT('',(14.830540828985,-74.46324215977,
    29.693876178255));
#130 = CARTESIAN_POINT('',(19.732762219619,-73.14066226991,
    26.581475538007));
#131 = ORIENTED_EDGE('',*,*,#132,.T.);
#132 = EDGE_CURVE('',#22,#133,#135,.T.);
#133 = VERTEX_POINT('',#134);
#134 = CARTESIAN_POINT('',(-19.703614446,73.148519874708,-53.9));
#135 = B_SPLINE_CURVE_WITH_KNOTS('',4,(#136,#137,#138,#139,#140),
  .UNSPECIFIED.,.F.,.F.,(5,5),(0.,1.),.PIECEWISE_BEZIER_KNOTS.);
#136 = CARTESIAN_POINT('',(-19.703614446,73.148519874708,26.661239405406
    ));
#137 = CARTESIAN_POINT('',(-19.703614446,73.148519874708,6.520929404055)
  );
#138 = CARTESIAN_POINT('',(-19.703614446,73.148519874708,-13.61938059729
    ));
#139 = CARTESIAN_POINT('',(-19.703614446,73.148519874708,-33.75969059864
    ));
#140 = CARTESIAN_POINT('',(-19.703614446,73.148519874708,-53.9000006));
#141 = ORIENTED_EDGE('',*,*,#142,.T.);
#142 = EDGE_CURVE('',#133,#143,#145,.T.);
#143 = VERTEX_POINT('',#144);
#144 = CARTESIAN_POINT('',(-53.63809059396,-53.49666923772,-53.9));
#145 = CIRCLE('',#146,75.755781179374);
#146 = AXIS2_PLACEMENT_3D('',#147,#148,#149);
#147 = CARTESIAN_POINT('',(0.,0.,-53.9));
#148 = DIRECTION('',(0.,0.,1.));
#149 = DIRECTION('',(1.,0.,0.));
#150 = ORIENTED_EDGE('',*,*,#151,.F.);
#151 = EDGE_CURVE('',#152,#143,#154,.T.);
#152 = VERTEX_POINT('',#153);
#153 = CARTESIAN_POINT('',(-53.63809059396,-53.49666923772,
    -26.84492720149));
#154 = B_SPLINE_CURVE_WITH_KNOTS('',5,(#155,#156,#157,#158,#159,#160),
  .UNSPECIFIED.,.F.,.F.,(6,6),(0.,1.),.PIECEWISE_BEZIER_KNOTS.);
#155 = CARTESIAN_POINT('',(-53.63809059396,-53.49666923772,
    53.444944692899));
#156 = CARTESIAN_POINT('',(-53.63809059396,-53.49666923772,
    35.89837468735));
#157 = CARTESIAN_POINT('',(-53.63809059396,-53.49666923772,
    12.09300375853));
#158 = CARTESIAN_POINT('',(-53.63809059396,-53.49666923772,
    -13.23761668247));
#159 = CARTESIAN_POINT('',(-53.63809059396,-53.49666923772,
    -36.43453462185));
#160 = CARTESIAN_POINT('',(-53.63809059396,-53.49666923772,-53.9000006)
  );
#161 = ORIENTED_EDGE('',*,*,#162,.F.);
#162 = EDGE_CURVE('',#24,#152,#163,.T.);
#163 = B_SPLINE_CURVE_WITH_KNOTS('',7,(#164,#165,#166,#167,#168,#169,
    #170,#171,#172,#173,#174,#175,#176,#177,#178,#179,#180,#181,#182,
    #183,#184,#185,#186,#187,#188,#189,#190,#191,#192,#193,#194,#195,
    #196,#197,#198,#199,#200,#201),.UNSPECIFIED.,.F.,.F.,(8,6,6,6,6,6,8)
  ,(0.,0.17063353319,0.297815588539,0.390562161333,0.636836778289,
    0.895506250079,1.),.UNSPECIFIED.);
#164 = CARTESIAN_POINT('',(-58.57060603831,48.046045523041,
    43.412749743326));
#165 = CARTESIAN_POINT('',(-60.51792176057,45.672167282712,
    42.147744264204));
#166 = CARTESIAN_POINT('',(-62.32676410419,43.238177639201,
    40.816339546015));
#167 = CARTESIAN_POINT('',(-63.99828921206,40.753768031364,
    39.425366553432));
#168 = CARTESIAN_POINT('',(-65.53444205011,38.227693909219,
    37.981161323496));
#169 = CARTESIAN_POINT('',(-66.93772865527,35.667707602773,
    36.489477432661));
#170 = CARTESIAN_POINT('',(-68.21099142889,33.080493930684,
    34.955400892536));
#171 = CARTESIAN_POINT('',(-70.21150705966,28.527070456842,
    32.211474593573));
#172 = CARTESIAN_POINT('',(-70.99518770717,26.570599328734,
    31.01860347491));
#173 = CARTESIAN_POINT('',(-71.70944031294,24.604558321664,
    29.806489793856));
#174 = CARTESIAN_POINT('',(-72.35545077686,22.63112568996,
    28.576838360526));
#175 = CARTESIAN_POINT('',(-72.9343788155,20.652294895988,27.3312229779)
  );
#176 = CARTESIAN_POINT('',(-73.44734696197,18.669873718126,
    26.071083819391));
#177 = CARTESIAN_POINT('',(-74.2221735225,15.238379638061,
    23.869132878578));
#178 = CARTESIAN_POINT('',(-74.5144123726,13.790247035703,
    22.933523338698));
#179 = CARTESIAN_POINT('',(-74.77254796435,12.341723201787,
    21.991405253242));
#180 = CARTESIAN_POINT('',(-74.99697285182,10.893416745564,
    21.043266152435));
#181 = CARTESIAN_POINT('',(-75.188060121,9.445906273088,20.089569511043)
  );
#182 = CARTESIAN_POINT('',(-75.34616302766,7.999740427858,
    19.130754709832));
#183 = CARTESIAN_POINT('',(-75.8047325674,2.72030922149,15.608760187591)
  );
#184 = CARTESIAN_POINT('',(-75.90759664052,-1.101301984296,
    13.017376624295));
#185 = CARTESIAN_POINT('',(-75.78655878173,-4.900197536877,
    10.400531243151));
#186 = CARTESIAN_POINT('',(-75.4466464237,-8.667508506986,7.76520171954)
  );
#187 = CARTESIAN_POINT('',(-74.8920132574,-12.39475431899,5.11794057254)
  );
#188 = CARTESIAN_POINT('',(-74.1259001159,-16.07383254322,2.464874978156
    ));
#189 = CARTESIAN_POINT('',(-72.12562643957,-23.5024251224,
    -2.975023600638));
#190 = CARTESIAN_POINT('',(-70.87005145156,-27.24541744647,
    -5.761321072047));
#191 = CARTESIAN_POINT('',(-69.3860487768,-30.91703129193,
    -8.540671304065));
#192 = CARTESIAN_POINT('',(-67.67495934435,-34.50721824285,
    -11.30596569391));
#193 = CARTESIAN_POINT('',(-65.73742355562,-38.00492343158,-14.049536425
    ));
#194 = CARTESIAN_POINT('',(-63.57344706176,-41.39810657875,
    -16.76315879934));
#195 = CARTESIAN_POINT('',(-60.21570243104,-45.99664873261,
    -20.51853141774));
#196 = CARTESIAN_POINT('',(-59.21247081236,-47.30051073772,
    -21.5926898579));
#197 = CARTESIAN_POINT('',(-58.17208967879,-48.5841813033,-22.6598561215
    ));
#198 = CARTESIAN_POINT('',(-57.09450942721,-49.84669294557,
    -23.7193784828));
#199 = CARTESIAN_POINT('',(-55.97968091931,-51.08701598161,
    -24.77056264824));
#200 = CARTESIAN_POINT('',(-54.82755642962,-52.30405898441,
    -25.81267189367));
#201 = CARTESIAN_POINT('',(-53.63809059373,-53.49666923795,
    -26.84492720169));
#202 = CYLINDRICAL_SURFACE('',#203,75.755781179374);
#203 = AXIS2_PLACEMENT_3D('',#204,#205,#206);
#204 = CARTESIAN_POINT('',(0.,0.,-53.9));
#205 = DIRECTION('',(0.,0.,1.));
#206 = DIRECTION('',(1.,0.,0.));
#207 = ADVANCED_FACE('',(#208),#230,.F.);
#208 = FACE_BOUND('',#209,.F.);
#209 = EDGE_LOOP('',(#210,#211,#218,#225));
#210 = ORIENTED_EDGE('',*,*,#21,.F.);
#211 = ORIENTED_EDGE('',*,*,#212,.T.);
#212 = EDGE_CURVE('',#22,#213,#215,.T.);
#213 = VERTEX_POINT('',#214);
#214 = CARTESIAN_POINT('',(-13.57655519495,50.28202344881,
    -18.47520861406));
#215 = B_SPLINE_CURVE_WITH_KNOTS('',1,(#216,#217),.UNSPECIFIED.,.F.,.F.,
  (2,2),(0.,1.),.PIECEWISE_BEZIER_KNOTS.);
#216 = CARTESIAN_POINT('',(-21.10176790107,78.366499605812,
    -28.7548403395));
#217 = CARTESIAN_POINT('',(-2.421767501798,8.651789030315,
    -3.237485251398));
#218 = ORIENTED_EDGE('',*,*,#219,.T.);
#219 = EDGE_CURVE('',#213,#220,#222,.T.);
#220 = VERTEX_POINT('',#221);
#221 = CARTESIAN_POINT('',(-50.3636731069,13.49490553686,18.311909297882
    ));
#222 = B_SPLINE_CURVE_WITH_KNOTS('',1,(#223,#224),.UNSPECIFIED.,.F.,.F.,
  (2,2),(0.,1.),.PIECEWISE_BEZIER_KNOTS.);
#223 = CARTESIAN_POINT('',(-13.49490553686,50.363673106903,
    -18.55685827216));
#224 = CARTESIAN_POINT('',(-50.44532276499,13.413255878767,
    18.393558955975));
#225 = ORIENTED_EDGE('',*,*,#226,.T.);
#226 = EDGE_CURVE('',#220,#24,#227,.T.);
#227 = B_SPLINE_CURVE_WITH_KNOTS('',1,(#228,#229),.UNSPECIFIED.,.F.,.F.,
  (2,2),(0.,1.),.PIECEWISE_BEZIER_KNOTS.);
#228 = CARTESIAN_POINT('',(60.554323837766,-16.22548217054,
    -22.28689532075));
#229 = CARTESIAN_POINT('',(-78.35673578865,20.99562407611,
    28.558081369135));
#230 = B_SPLINE_SURFACE_WITH_KNOTS('',1,1,(
    (#231,#232)
    ,(#233,#234
    )),.UNSPECIFIED.,.F.,.F.,.F.,(2,2),(2,2),(0.,500.),(0.,500.),
  .PIECEWISE_BEZIER_KNOTS.);
#231 = CARTESIAN_POINT('',(204.08332040288,204.08332040288,-204.20579489
    ));
#232 = CARTESIAN_POINT('',(-250.040824829,249.95917517095,
    -8.16496580928E-02));
#233 = CARTESIAN_POINT('',(249.95917517095,-250.040824829,
    -8.164965809263E-02));
#234 = CARTESIAN_POINT('',(-204.1649700609,-204.1649700609,
    204.04249557383));
#235 = ADVANCED_FACE('',(#236),#252,.F.);
#236 = FACE_BOUND('',#237,.F.);
#237 = EDGE_LOOP('',(#238,#239,#240,#247));
#238 = ORIENTED_EDGE('',*,*,#162,.F.);
#239 = ORIENTED_EDGE('',*,*,#226,.F.);
#240 = ORIENTED_EDGE('',*,*,#241,.T.);
#241 = EDGE_CURVE('',#220,#242,#244,.T.);
#242 = VERTEX_POINT('',#243);
#243 = CARTESIAN_POINT('',(-36.89865341911,-36.75723206287,
    -18.47520861406));
#244 = B_SPLINE_CURVE_WITH_KNOTS('',1,(#245,#246),.UNSPECIFIED.,.F.,.F.,
  (2,2),(0.,1.),.PIECEWISE_BEZIER_KNOTS.);
#245 = CARTESIAN_POINT('',(-50.36367323369,13.494906010065,
    18.311909644293));
#246 = CARTESIAN_POINT('',(-36.89865329232,-36.75723253608,
    -18.47520896047));
#247 = ORIENTED_EDGE('',*,*,#248,.F.);
#248 = EDGE_CURVE('',#152,#242,#249,.T.);
#249 = B_SPLINE_CURVE_WITH_KNOTS('',1,(#250,#251),.UNSPECIFIED.,.F.,.F.,
  (2,2),(0.,1.),.PIECEWISE_BEZIER_KNOTS.);
#250 = CARTESIAN_POINT('',(-67.77187074203,-67.63044938579,
    -33.91181727552));
#251 = CARTESIAN_POINT('',(-4.109355435519,-3.967934079281,
    -2.08055962227));
#252 = B_SPLINE_SURFACE_WITH_KNOTS('',1,1,(
    (#253,#254)
    ,(#255,#256
    )),.UNSPECIFIED.,.F.,.F.,.F.,(2,2),(2,2),(0.,500.),(0.,500.),
  .PIECEWISE_BEZIER_KNOTS.);
#253 = CARTESIAN_POINT('',(-333.1254297379,60.228327182939,
    101.98042295787));
#254 = CARTESIAN_POINT('',(-106.0633571219,-287.1788642917,
    -176.8583449547));
#255 = CARTESIAN_POINT('',(106.03347127288,287.2903997989,
    176.69504563854));
#256 = CARTESIAN_POINT('',(333.09554388885,-60.11679167577,
    -102.143722274));
#257 = ADVANCED_FACE('',(#258),#274,.F.);
#258 = FACE_BOUND('',#259,.F.);
#259 = EDGE_LOOP('',(#260,#261,#262,#269));
#260 = ORIENTED_EDGE('',*,*,#151,.F.);
#261 = ORIENTED_EDGE('',*,*,#248,.T.);
#262 = ORIENTED_EDGE('',*,*,#263,.T.);
#263 = EDGE_CURVE('',#242,#264,#266,.T.);
#264 = VERTEX_POINT('',#265);
#265 = CARTESIAN_POINT('',(-1.473862033184,-1.332440676946,-53.9));
#266 = B_SPLINE_CURVE_WITH_KNOTS('',1,(#267,#268),.UNSPECIFIED.,.F.,.F.,
  (2,2),(0.,1.),.PIECEWISE_BEZIER_KNOTS.);
#267 = CARTESIAN_POINT('',(-36.9803030772,-36.83888172097,
    -18.39355895597));
#268 = CARTESIAN_POINT('',(-2.988584907227E-02,0.111535507165,
    -55.34397618411));
#269 = ORIENTED_EDGE('',*,*,#270,.T.);
#270 = EDGE_CURVE('',#264,#143,#271,.T.);
#271 = B_SPLINE_CURVE_WITH_KNOTS('',1,(#272,#273),.UNSPECIFIED.,.F.,.F.,
  (2,2),(0.,1.),.PIECEWISE_BEZIER_KNOTS.);
#272 = CARTESIAN_POINT('',(53.659404503984,53.800825860221,-53.9));
#273 = CARTESIAN_POINT('',(-75.75578117937,-75.61435982313,-53.9));
#274 = B_SPLINE_SURFACE_WITH_KNOTS('',1,1,(
    (#275,#276)
    ,(#277,#278
    )),.UNSPECIFIED.,.F.,.F.,.F.,(2,2),(2,2),(0.,500.),(0.,500.),
  .PIECEWISE_BEZIER_KNOTS.);
#275 = CARTESIAN_POINT('',(-250.0707106781,-249.9292893218,
    2.84217094304E-14));
#276 = CARTESIAN_POINT('',(-7.071067811876E-02,7.07106781187E-02,
    -353.5533905932));
#277 = CARTESIAN_POINT('',(-7.07106781186E-02,7.071067811863E-02,
    353.55339059327));
#278 = CARTESIAN_POINT('',(249.92928932188,250.07071067811,
    -2.84217094304E-14));
#279 = ADVANCED_FACE('',(#280),#296,.F.);
#280 = FACE_BOUND('',#281,.F.);
#281 = EDGE_LOOP('',(#282,#289,#290,#291));
#282 = ORIENTED_EDGE('',*,*,#283,.T.);
#283 = EDGE_CURVE('',#284,#133,#286,.T.);
#284 = VERTEX_POINT('',#285);
#285 = CARTESIAN_POINT('',(-0.610181623937,1.890858491863,-53.9));
#286 = B_SPLINE_CURVE_WITH_KNOTS('',1,(#287,#288),.UNSPECIFIED.,.F.,.F.,
  (2,2),(0.,1.),.PIECEWISE_BEZIER_KNOTS.);
#287 = CARTESIAN_POINT('',(14.230861701963,-53.49666923772,-53.9));
#288 = CARTESIAN_POINT('',(-20.40222800704,75.755781179374,-53.9));
#289 = ORIENTED_EDGE('',*,*,#142,.T.);
#290 = ORIENTED_EDGE('',*,*,#270,.F.);
#291 = ORIENTED_EDGE('',*,*,#292,.T.);
#292 = EDGE_CURVE('',#264,#284,#293,.T.);
#293 = B_SPLINE_CURVE_WITH_KNOTS('',1,(#294,#295),.UNSPECIFIED.,.F.,.F.,
  (2,2),(0.,1.),.PIECEWISE_BEZIER_KNOTS.);
#294 = CARTESIAN_POINT('',(-1.525625842204,-1.525625842204,-53.9));
#295 = CARTESIAN_POINT('',(-0.558417814917,2.084043657121,-53.9));
#296 = PLANE('',#297);
#297 = AXIS2_PLACEMENT_3D('',#298,#299,#300);
#298 = CARTESIAN_POINT('',(0.,0.,-53.9));
#299 = DIRECTION('',(0.,0.,1.));
#300 = DIRECTION('',(1.,0.,0.));
#301 = ADVANCED_FACE('',(#302),#312,.F.);
#302 = FACE_BOUND('',#303,.F.);
#303 = EDGE_LOOP('',(#304,#305,#306,#307));
#304 = ORIENTED_EDGE('',*,*,#212,.F.);
#305 = ORIENTED_EDGE('',*,*,#132,.T.);
#306 = ORIENTED_EDGE('',*,*,#283,.F.);
#307 = ORIENTED_EDGE('',*,*,#308,.T.);
#308 = EDGE_CURVE('',#284,#213,#309,.T.);
#309 = B_SPLINE_CURVE_WITH_KNOTS('',1,(#310,#311),.UNSPECIFIED.,.F.,.F.,
  (2,2),(0.,1.),.PIECEWISE_BEZIER_KNOTS.);
#310 = CARTESIAN_POINT('',(-0.111535253575,2.988490266213E-02,
    -55.26232721883));
#311 = CARTESIAN_POINT('',(-13.57655544854,50.28202439522,
    -18.47520792124));
#312 = B_SPLINE_SURFACE_WITH_KNOTS('',1,1,(
    (#313,#314)
    ,(#315,#316
    )),.UNSPECIFIED.,.F.,.F.,.F.,(2,2),(2,2),(0.,500.),(0.,500.),
  .PIECEWISE_BEZIER_KNOTS.);
#313 = CARTESIAN_POINT('',(45.656582890426,-170.7790573775,
    -306.1862178478));
#314 = CARTESIAN_POINT('',(-79.34341710957,295.72729356854,
    -176.7766952966));
#315 = CARTESIAN_POINT('',(79.150231944316,-295.7790573775,
    176.77669529663));
#316 = CARTESIAN_POINT('',(-45.84976805568,170.72729356854,
    306.18621784789));
#317 = ADVANCED_FACE('',(#318),#325,.T.);
#318 = FACE_BOUND('',#319,.T.);
#319 = EDGE_LOOP('',(#320,#321,#322,#323,#324));
#320 = ORIENTED_EDGE('',*,*,#219,.T.);
#321 = ORIENTED_EDGE('',*,*,#241,.T.);
#322 = ORIENTED_EDGE('',*,*,#263,.T.);
#323 = ORIENTED_EDGE('',*,*,#292,.T.);
#324 = ORIENTED_EDGE('',*,*,#308,.T.);
#325 = B_SPLINE_SURFACE_WITH_KNOTS('',1,1,(
    (#326,#327)
    ,(#328,#329
    )),.UNSPECIFIED.,.F.,.F.,.F.,(2,2),(2,2),(0.,64.),(-64.,0.),
  .PIECEWISE_BEZIER_KNOTS.);
#326 = CARTESIAN_POINT('',(-13.52479138593,50.475208614068,
    -18.47520861406));
#327 = CARTESIAN_POINT('',(0.,0.,-55.4256258422));
#328 = CARTESIAN_POINT('',(-50.47520861406,13.524791385932,
    18.475208614068));
#329 = CARTESIAN_POINT('',(-36.95041722813,-36.95041722813,
    -18.47520861406));
#330 = ( GEOMETRIC_REPRESENTATION_CONTEXT(3) 
GLOBAL_UNCERTAINTY_ASSIGNED_CONTEXT((#334)) GLOBAL_UNIT_ASSIGNED_CONTEXT
((#331,#332,#333)) REPRESENTATION_CONTEXT('Context #1',
  '3D Context with UNIT and UNCERTAINTY') );
#331 = ( LENGTH_UNIT() NAMED_UNIT(*) SI_UNIT(.MILLI.,.METRE.) );
#332 = ( NAMED_UNIT(*) PLANE_ANGLE_UNIT() SI_UNIT($,.RADIAN.) );
#333 = ( NAMED_UNIT(*) SI_UNIT($,.STERADIAN.) SOLID_ANGLE_UNIT() );
#334 = UNCERTAINTY_MEASURE_WITH_UNIT(LENGTH_MEASURE(5.E-06),#331,
  'distance_accuracy_value','confusion accuracy');
#335 = PRODUCT_RELATED_PRODUCT_CATEGORY('part',$,(#7));
ENDSEC;
END-ISO-10303-21;
