ISO-10303-21;
HEADER;
FILE_DESCRIPTION(('FreeCAD Model'),'2;1');
FILE_NAME('Open CASCADE Shape Model','2026-07-29T09:33:15',('FreeCAD'),(
    'FreeCAD'),'Open CASCADE STEP processor 7.8','FreeCAD','Unknown');
FILE_SCHEMA(('AUTOMOTIVE_DESIGN { 1 0 10303 214 1 1 1 1 }'));
ENDSEC;
DATA;
#1 = APPLICATION_PROTOCOL_DEFINITION('international standard',
  'automotive_design',2000,#2);
#2 = APPLICATION_CONTEXT(
  'core data for automotive mechanical design processes');
#3 = SHAPE_DEFINITION_REPRESENTATION(#4,#10);
#4 = PRODUCT_DEFINITION_SHAPE('','',#5);
#5 = PRODUCT_DEFINITION('design','',#6,#9);
#6 = PRODUCT_DEFINITION_FORMATION('','',#7);
#7 = PRODUCT('Open CASCADE STEP translator 7.8 15',
  'Open CASCADE STEP translator 7.8 15','',(#8));
#8 = PRODUCT_CONTEXT('',#2,'mechanical');
#9 = PRODUCT_DEFINITION_CONTEXT('part definition',#2,'design');
#10 = ADVANCED_BREP_SHAPE_REPRESENTATION('',(#11,#15),#1173);
#11 = AXIS2_PLACEMENT_3D('',#12,#13,#14);
#12 = CARTESIAN_POINT('',(0.,0.,0.));
#13 = DIRECTION('',(0.,0.,1.));
#14 = DIRECTION('',(1.,0.,-0.));
#15 = MANIFOLD_SOLID_BREP('',#16);
#16 = CLOSED_SHELL('',(#17,#124,#243,#993,#1022,#1037,#1058,#1085,#1101,
    #1118,#1140,#1151,#1162));
#17 = ADVANCED_FACE('',(#18),#119,.T.);
#18 = FACE_BOUND('',#19,.T.);
#19 = EDGE_LOOP('',(#20,#29,#36));
#20 = ORIENTED_EDGE('',*,*,#21,.T.);
#21 = EDGE_CURVE('',#22,#24,#26,.T.);
#22 = VERTEX_POINT('',#23);
#23 = CARTESIAN_POINT('',(-2.415141877316,-0.804418866284,3.004707417814
    ));
#24 = VERTEX_POINT('',#25);
#25 = CARTESIAN_POINT('',(-3.004707417814,-3.004707417814,3.004707417814
    ));
#26 = B_SPLINE_CURVE_WITH_KNOTS('',1,(#27,#28),.UNSPECIFIED.,.F.,.F.,(2,
    2),(0.,7.36),.PIECEWISE_BEZIER_KNOTS.);
#27 = CARTESIAN_POINT('',(-1.099799245859,4.104506663674,3.004707417814)
  );
#28 = CARTESIAN_POINT('',(-3.004707417814,-3.004707417814,3.004707417814
    ));
#29 = ORIENTED_EDGE('',*,*,#30,.T.);
#30 = EDGE_CURVE('',#24,#31,#33,.T.);
#31 = VERTEX_POINT('',#32);
#32 = CARTESIAN_POINT('',(-0.804418866284,-2.415141877316,3.004707417814
    ));
#33 = B_SPLINE_CURVE_WITH_KNOTS('',1,(#34,#35),.UNSPECIFIED.,.F.,.F.,(2,
    2),(0.,7.36),.PIECEWISE_BEZIER_KNOTS.);
#34 = CARTESIAN_POINT('',(-3.004707417814,-3.004707417814,3.004707417814
    ));
#35 = CARTESIAN_POINT('',(4.104506663674,-1.099799245859,3.004707417814)
  );
#36 = ORIENTED_EDGE('',*,*,#37,.T.);
#37 = EDGE_CURVE('',#31,#22,#38,.T.);
#38 = B_SPLINE_CURVE_WITH_KNOTS('',7,(#39,#40,#41,#42,#43,#44,#45,#46,
    #47,#48,#49,#50,#51,#52,#53,#54,#55,#56,#57,#58,#59,#60,#61,#62,#63,
    #64,#65,#66,#67,#68,#69,#70,#71,#72,#73,#74,#75,#76,#77,#78,#79,#80,
    #81,#82,#83,#84,#85,#86,#87,#88,#89,#90,#91,#92,#93,#94,#95,#96,#97,
    #98,#99,#100,#101,#102,#103,#104,#105,#106,#107,#108,#109,#110,#111,
    #112,#113,#114,#115,#116,#117,#118),.UNSPECIFIED.,.F.,.F.,(8,6,6,6,6
    ,6,6,6,6,6,6,6,6,8),(0.,2.972731010957E-02,9.696018874108E-02,
    0.225491562047,0.354008255902,0.395844525888,0.419616769108,
    0.583395912383,0.745553476567,0.758222739034,0.773295591036,
    0.823990863079,0.941091241853,1.),.UNSPECIFIED.);
#39 = CARTESIAN_POINT('',(-0.804418866284,-2.415141877316,3.004707417814
    ));
#40 = CARTESIAN_POINT('',(-0.849450538442,-2.400143037287,3.004707417814
    ));
#41 = CARTESIAN_POINT('',(-0.8941559652,-2.384164606529,3.004707417814)
  );
#42 = CARTESIAN_POINT('',(-0.938509529566,-2.367215118836,3.004707417814
    ));
#43 = CARTESIAN_POINT('',(-0.98248594627,-2.349303922752,3.004707417814)
  );
#44 = CARTESIAN_POINT('',(-1.026060261764,-2.330441181566,3.004707417814
    ));
#45 = CARTESIAN_POINT('',(-1.069207854225,-2.310637873314,3.004707417814
    ));
#46 = CARTESIAN_POINT('',(-1.208469306895,-2.243017001194,3.004707417814
    ));
#47 = CARTESIAN_POINT('',(-1.302728661415,-2.191376638776,3.004707417814
    ));
#48 = CARTESIAN_POINT('',(-1.394399727757,-2.135122175936,3.004707417814
    ));
#49 = CARTESIAN_POINT('',(-1.483212416943,-2.074410333958,3.004707417814
    ));
#50 = CARTESIAN_POINT('',(-1.568909544234,-2.00941692581,3.004707417814)
  );
#51 = CARTESIAN_POINT('',(-1.651247053004,-1.940336698971,3.004707417814
    ));
#52 = CARTESIAN_POINT('',(-1.880537902906,-1.727915459496,3.004707417814
    ));
#53 = CARTESIAN_POINT('',(-2.017993231901,-1.574261418972,3.004707417814
    ));
#54 = CARTESIAN_POINT('',(-2.140701155408,-1.407940845295,3.004707417814
    ));
#55 = CARTESIAN_POINT('',(-2.247300402047,-1.230666254418,3.004707417814
    ));
#56 = CARTESIAN_POINT('',(-2.336671340986,-1.044299899432,3.004707417814
    ));
#57 = CARTESIAN_POINT('',(-2.407939907253,-0.850846787351,3.004707417814
    ));
#58 = CARTESIAN_POINT('',(-2.51313730636,-0.454143273227,3.004707417814)
  );
#59 = CARTESIAN_POINT('',(-2.547090256967,-0.25081912231,3.004707417814)
  );
#60 = CARTESIAN_POINT('',(-2.561812364814,-4.468095572333E-02,
    3.004707417814));
#61 = CARTESIAN_POINT('',(-2.557069372549,0.162097318538,3.004707417814)
  );
#62 = CARTESIAN_POINT('',(-2.532910932275,0.367344096828,3.004707417814)
  );
#63 = CARTESIAN_POINT('',(-2.489670658438,0.568898085111,3.004707417814)
  );
#64 = CARTESIAN_POINT('',(-2.407972176966,0.828330793683,3.004707417814)
  );
#65 = CARTESIAN_POINT('',(-2.385957628876,0.891429690818,3.004707417814)
  );
#66 = CARTESIAN_POINT('',(-2.362015177259,0.953842583461,3.004707417814)
  );
#67 = CARTESIAN_POINT('',(-2.336170663033,1.015498894514,3.004707417814)
  );
#68 = CARTESIAN_POINT('',(-2.308453110925,1.076329380483,3.004707417814)
  );
#69 = CARTESIAN_POINT('',(-2.278894729469,1.136266131481,3.004707417814)
  );
#70 = CARTESIAN_POINT('',(-2.229709333674,1.228754217231,3.004707417814)
  );
#71 = CARTESIAN_POINT('',(-2.211304799817,1.261955856405,3.004707417814)
  );
#72 = CARTESIAN_POINT('',(-2.192323788717,1.294835305854,3.004707417814)
  );
#73 = CARTESIAN_POINT('',(-2.172773088013,1.327380567879,3.004707417814)
  );
#74 = CARTESIAN_POINT('',(-2.152659793704,1.359579829975,3.004707417814)
  );
#75 = CARTESIAN_POINT('',(-2.131991310145,1.391421464837,3.004707417814)
  );
#76 = CARTESIAN_POINT('',(-1.964607748793,1.639724632725,3.004707417814)
  );
#77 = CARTESIAN_POINT('',(-1.792379165357,1.839147249973,3.004707417814)
  );
#78 = CARTESIAN_POINT('',(-1.596699115213,2.017195529771,3.004707417814)
  );
#79 = CARTESIAN_POINT('',(-1.380811918381,2.170687146327,3.004707417814)
  );
#80 = CARTESIAN_POINT('',(-1.148370130322,2.297025989404,3.004707417814)
  );
#81 = CARTESIAN_POINT('',(-0.903444177758,2.394195178653,3.004707417814)
  );
#82 = CARTESIAN_POINT('',(-0.400320006254,2.527207635177,3.004707417814)
  );
#83 = CARTESIAN_POINT('',(-0.14204005703,2.563711288286,3.004707417814)
  );
#84 = CARTESIAN_POINT('',(0.11977732144,2.569321754175,3.004707417814));
#85 = CARTESIAN_POINT('',(0.38073153508,2.543777881506,3.004707417814));
#86 = CARTESIAN_POINT('',(0.636493231725,2.487502847676,3.004707417814)
  );
#87 = CARTESIAN_POINT('',(0.882793962437,2.401605296318,3.004707417814)
  );
#88 = CARTESIAN_POINT('',(1.133700687164,2.279283206487,3.004707417814)
  );
#89 = CARTESIAN_POINT('',(1.151801089457,2.270250263274,3.004707417814)
  );
#90 = CARTESIAN_POINT('',(1.169817435899,2.261049667045,3.004707417814)
  );
#91 = CARTESIAN_POINT('',(1.187747864005,2.251682358085,3.004707417814)
  );
#92 = CARTESIAN_POINT('',(1.205590524723,2.242149302392,3.004707417814)
  );
#93 = CARTESIAN_POINT('',(1.223343582439,2.23245149168,3.004707417814));
#94 = CARTESIAN_POINT('',(1.262017580446,2.210857479994,3.004707417814)
  );
#95 = CARTESIAN_POINT('',(1.282900541337,2.198893256878,3.004707417814)
  );
#96 = CARTESIAN_POINT('',(1.303651028745,2.186698987623,3.004707417814)
  );
#97 = CARTESIAN_POINT('',(1.32426600378,2.174276435605,3.004707417814));
#98 = CARTESIAN_POINT('',(1.344742457551,2.161627413986,3.004707417814)
  );
#99 = CARTESIAN_POINT('',(1.365077411173,2.148753785718,3.004707417814)
  );
#100 = CARTESIAN_POINT('',(1.453175643036,2.09160995244,3.004707417814)
  );
#101 = CARTESIAN_POINT('',(1.5194496849,2.045043052228,3.004707417814));
#102 = CARTESIAN_POINT('',(1.583977316161,1.996029924076,3.004707417814)
  );
#103 = CARTESIAN_POINT('',(1.646650533363,1.94464948458,3.004707417814)
  );
#104 = CARTESIAN_POINT('',(1.707366054794,1.890986405754,3.004707417814)
  );
#105 = CARTESIAN_POINT('',(1.766025320485,1.835131115032,3.004707417814)
  );
#106 = CARTESIAN_POINT('',(1.953064325589,1.643318762056,3.004707417814)
  );
#107 = CARTESIAN_POINT('',(2.072141150483,1.49825481758,3.004707417814)
  );
#108 = CARTESIAN_POINT('',(2.178578463225,1.343194276652,3.004707417814)
  );
#109 = CARTESIAN_POINT('',(2.271394252816,1.179467241603,3.004707417814)
  );
#110 = CARTESIAN_POINT('',(2.349778015384,1.008503594785,3.004707417814)
  );
#111 = CARTESIAN_POINT('',(2.413092957153,0.831828885015,3.004707417814)
  );
#112 = CARTESIAN_POINT('',(2.484970029474,0.560152255292,3.004707417814)
  );
#113 = CARTESIAN_POINT('',(2.505107201448,0.468186626028,3.004707417814)
  );
#114 = CARTESIAN_POINT('',(2.521270980314,0.375387301637,3.004707417814)
  );
#115 = CARTESIAN_POINT('',(2.53342088251,0.281960306219,3.004707417814)
  );
#116 = CARTESIAN_POINT('',(2.541529879071,0.188113479169,3.004707417814)
  );
#117 = CARTESIAN_POINT('',(2.545584412272,9.405634780327E-02,
    3.004707417814));
#118 = CARTESIAN_POINT('',(2.545584412272,-4.440892098501E-16,
    3.004707417814));
#119 = B_SPLINE_SURFACE_WITH_KNOTS('',1,1,(
    (#120,#121)
    ,(#122,#123
    )),.UNSPECIFIED.,.F.,.F.,.F.,(2,2),(2,2),(-3.68,3.68),(
    -2.124648990618,4.249297981236),.PIECEWISE_BEZIER_KNOTS.);
#120 = CARTESIAN_POINT('',(-3.004707417814,-3.004707417814,
    3.004707417814));
#121 = CARTESIAN_POINT('',(-4.654406286603,3.152052577696,3.004707417814
    ));
#122 = CARTESIAN_POINT('',(4.104506663674,-1.099799245859,3.004707417814
    ));
#123 = CARTESIAN_POINT('',(2.454807794884,5.056960749651,3.004707417814)
  );
#124 = ADVANCED_FACE('',(#125),#238,.T.);
#125 = FACE_BOUND('',#126,.T.);
#126 = EDGE_LOOP('',(#127,#136,#143,#148,#149));
#127 = ORIENTED_EDGE('',*,*,#128,.F.);
#128 = EDGE_CURVE('',#129,#131,#133,.T.);
#129 = VERTEX_POINT('',#130);
#130 = CARTESIAN_POINT('',(-1.099799245859,4.104506663674,3.004707417814
    ));
#131 = VERTEX_POINT('',#132);
#132 = CARTESIAN_POINT('',(-1.689364786357,1.904218112144,3.004707417814
    ));
#133 = B_SPLINE_CURVE_WITH_KNOTS('',1,(#134,#135),.UNSPECIFIED.,.F.,.F.,
  (2,2),(0.,7.36),.PIECEWISE_BEZIER_KNOTS.);
#134 = CARTESIAN_POINT('',(-1.099799245859,4.104506663674,3.004707417814
    ));
#135 = CARTESIAN_POINT('',(-3.004707417814,-3.004707417814,
    3.004707417814));
#136 = ORIENTED_EDGE('',*,*,#137,.T.);
#137 = EDGE_CURVE('',#129,#138,#140,.T.);
#138 = VERTEX_POINT('',#139);
#139 = CARTESIAN_POINT('',(-4.104506663674,1.099799245859,
    -3.004707417814));
#140 = B_SPLINE_CURVE_WITH_KNOTS('',1,(#141,#142),.UNSPECIFIED.,.F.,.F.,
  (2,2),(0.,7.36),.PIECEWISE_BEZIER_KNOTS.);
#141 = CARTESIAN_POINT('',(-1.099799245859,4.104506663674,3.004707417814
    ));
#142 = CARTESIAN_POINT('',(-4.104506663674,1.099799245859,
    -3.004707417814));
#143 = ORIENTED_EDGE('',*,*,#144,.T.);
#144 = EDGE_CURVE('',#138,#24,#145,.T.);
#145 = B_SPLINE_CURVE_WITH_KNOTS('',1,(#146,#147),.UNSPECIFIED.,.F.,.F.,
  (2,2),(0.,7.36),.PIECEWISE_BEZIER_KNOTS.);
#146 = CARTESIAN_POINT('',(-4.104506663674,1.099799245859,
    -3.004707417814));
#147 = CARTESIAN_POINT('',(-3.004707417814,-3.004707417814,
    3.004707417814));
#148 = ORIENTED_EDGE('',*,*,#21,.F.);
#149 = ORIENTED_EDGE('',*,*,#150,.T.);
#150 = EDGE_CURVE('',#22,#131,#151,.T.);
#151 = B_SPLINE_CURVE_WITH_KNOTS('',8,(#152,#153,#154,#155,#156,#157,
    #158,#159,#160,#161,#162,#163,#164,#165,#166,#167,#168,#169,#170,
    #171,#172,#173,#174,#175,#176,#177,#178,#179,#180,#181,#182,#183,
    #184,#185,#186,#187,#188,#189,#190,#191,#192,#193,#194,#195,#196,
    #197,#198,#199,#200,#201,#202,#203,#204,#205,#206,#207,#208,#209,
    #210,#211,#212,#213,#214,#215,#216,#217,#218,#219,#220,#221,#222,
    #223,#224,#225,#226,#227,#228,#229,#230,#231,#232,#233,#234,#235,
    #236,#237),.UNSPECIFIED.,.F.,.F.,(9,7,7,7,7,7,7,7,7,7,7,7,9),(0.,
    0.110275719422,0.218630649447,0.325674791587,0.356673750572,
    0.398336512556,0.424794320314,0.439325118535,0.469940696395,
    0.523421506437,0.675367343554,0.827731750117,1.),.UNSPECIFIED.);
#152 = CARTESIAN_POINT('',(-2.182308200701,-1.310546037785,
    4.011331656671));
#153 = CARTESIAN_POINT('',(-2.205946384457,-1.271183969782,
    3.917935903982));
#154 = CARTESIAN_POINT('',(-2.229173577454,-1.230667795135,
    3.824818134226));
#155 = CARTESIAN_POINT('',(-2.251963351854,-1.188932930682,
    3.732003271446));
#156 = CARTESIAN_POINT('',(-2.274284160612,-1.14590646743,3.63952413068)
  );
#157 = CARTESIAN_POINT('',(-2.296099021333,-1.101506303161,
    3.547421646721));
#158 = CARTESIAN_POINT('',(-2.317364301772,-1.055637898033,3.45574581711
    ));
#159 = CARTESIAN_POINT('',(-2.338027607007,-1.008188653184,
    3.364557359346));
#160 = CARTESIAN_POINT('',(-2.377673617717,-0.910707595685,
    3.184881356904));
#161 = CARTESIAN_POINT('',(-2.396675020866,-0.860745769488,
    3.096393962871));
#162 = CARTESIAN_POINT('',(-2.414971863621,-0.808994630337,
    3.008521595637));
#163 = CARTESIAN_POINT('',(-2.432491611091,-0.755299667575,
    2.921349314562));
#164 = CARTESIAN_POINT('',(-2.44914185394,-0.699481403569,2.834998199898
    ));
#165 = CARTESIAN_POINT('',(-2.464808061342,-0.641330036461,
    2.749627570061));
#166 = CARTESIAN_POINT('',(-2.479345221869,-0.580585596528,
    2.665443292595));
#167 = CARTESIAN_POINT('',(-2.505605083906,-0.453953464276,2.50099886063
    ));
#168 = CARTESIAN_POINT('',(-2.517324476503,-0.388305545074,
    2.420923272355));
#169 = CARTESIAN_POINT('',(-2.527569510718,-0.319451779546,
    2.342528863695));
#170 = CARTESIAN_POINT('',(-2.536093163145,-0.246910907572,
    2.266138208289));
#171 = CARTESIAN_POINT('',(-2.542558037229,-0.170228106308,
    2.192340137235));
#172 = CARTESIAN_POINT('',(-2.546480650219,-8.88835764771E-02,
    2.122075030494));
#173 = CARTESIAN_POINT('',(-2.547271662467,-2.359571804379E-03,
    2.056573977347));
#174 = CARTESIAN_POINT('',(-2.543029261569,0.117146347228,1.980680027609
    ));
#175 = CARTESIAN_POINT('',(-2.541735128714,0.144474385946,1.964210151507
    ));
#176 = CARTESIAN_POINT('',(-2.540078018807,0.172306562949,1.948362892316
    ));
#177 = CARTESIAN_POINT('',(-2.538034609241,0.200649926076,1.933196809204
    ));
#178 = CARTESIAN_POINT('',(-2.535580564146,0.229505294362,1.918777789433
    ));
#179 = CARTESIAN_POINT('',(-2.532691325977,0.258866330297,1.905177564839
    ));
#180 = CARTESIAN_POINT('',(-2.529342907111,0.288718612093,1.892472228309
    ));
#181 = CARTESIAN_POINT('',(-2.520364838229,0.35978906967,1.864973582785)
  );
#182 = CARTESIAN_POINT('',(-2.514343287646,0.401412244093,1.850954486466
    ));
#183 = CARTESIAN_POINT('',(-2.507396964399,0.443810009638,1.838894875997
    ));
#184 = CARTESIAN_POINT('',(-2.499485043591,0.486851795145,1.82900187179)
  );
#185 = CARTESIAN_POINT('',(-2.490582980833,0.530372198735,1.821463612944
    ));
#186 = CARTESIAN_POINT('',(-2.48069059616,0.574167659185,1.816429608287)
  );
#187 = CARTESIAN_POINT('',(-2.469842201766,0.617992277821,1.813986125489
    ));
#188 = CARTESIAN_POINT('',(-2.450673846811,0.689215759636,1.814215837744
    ));
#189 = CARTESIAN_POINT('',(-2.442873368297,0.716782068214,1.815347202912
    ));
#190 = CARTESIAN_POINT('',(-2.434736492056,0.744180844049,1.817520266241
    ));
#191 = CARTESIAN_POINT('',(-2.426285281687,0.771349381984,1.820720652217
    ));
#192 = CARTESIAN_POINT('',(-2.417544084738,0.79823257795,1.824922181084)
  );
#193 = CARTESIAN_POINT('',(-2.408538907108,0.824782362608,1.8300889926)
  );
#194 = CARTESIAN_POINT('',(-2.399296787459,0.850957134983,1.836177669798
    ));
#195 = CARTESIAN_POINT('',(-2.384654283392,0.890870984219,1.846962769291
    ));
#196 = CARTESIAN_POINT('',(-2.379399720985,0.904898091037,1.851049945884
    ));
#197 = CARTESIAN_POINT('',(-2.374085741525,0.918797588559,1.855392869373
    ));
#198 = CARTESIAN_POINT('',(-2.368716438846,0.932565274902,1.859983431188
    ));
#199 = CARTESIAN_POINT('',(-2.363295743482,0.946197674312,1.864813437338
    ));
#200 = CARTESIAN_POINT('',(-2.357827422668,0.95969203716,1.869874608413)
  );
#201 = CARTESIAN_POINT('',(-2.352315080341,0.973046339945,1.875158579581
    ));
#202 = CARTESIAN_POINT('',(-2.33506245902,1.014098220959,1.892241554946)
  );
#203 = CARTESIAN_POINT('',(-2.32318355557,1.041306742681,1.90477730241)
  );
#204 = CARTESIAN_POINT('',(-2.311155704646,1.067876004246,1.918187952854
    ));
#205 = CARTESIAN_POINT('',(-2.299005981701,1.093805326504,1.932400031941
    ));
#206 = CARTESIAN_POINT('',(-2.286758066261,1.119101052374,1.947344202656
    ));
#207 = CARTESIAN_POINT('',(-2.274432028416,1.143775401859,1.962956686841
    ));
#208 = CARTESIAN_POINT('',(-2.262044115289,1.167845327046,1.97918068673)
  );
#209 = CARTESIAN_POINT('',(-2.227879959753,1.232357946931,2.025292379968
    ));
#210 = CARTESIAN_POINT('',(-2.206011858697,1.271584307411,2.056321454249
    ));
#211 = CARTESIAN_POINT('',(-2.184062292984,1.309134361323,2.088800235691
    ));
#212 = CARTESIAN_POINT('',(-2.162079577638,1.345119505131,2.12251517732)
  );
#213 = CARTESIAN_POINT('',(-2.140100449077,1.379643968414,2.157289612027
    ));
#214 = CARTESIAN_POINT('',(-2.118150167535,1.412808302419,2.19298091895)
  );
#215 = CARTESIAN_POINT('',(-2.096242556902,1.444711007792,2.22947922304)
  );
#216 = CARTESIAN_POINT('',(-2.012265604095,1.562776893042,2.37247829813)
  );
#217 = CARTESIAN_POINT('',(-1.950664842746,1.640488662395,2.483885744406
    ));
#218 = CARTESIAN_POINT('',(-1.889621996485,1.710876458686,2.599130458716
    ));
#219 = CARTESIAN_POINT('',(-1.82922600579,1.775004597216,2.717190318262)
  );
#220 = CARTESIAN_POINT('',(-1.769506527265,1.833835268718,2.837279927218
    ));
#221 = CARTESIAN_POINT('',(-1.710449441887,1.888023368504,2.958958442806
    ));
#222 = CARTESIAN_POINT('',(-1.65197848817,1.938170470377,3.081993832706)
  );
#223 = CARTESIAN_POINT('',(-1.535776270289,2.031491938689,3.331148139668
    ));
#224 = CARTESIAN_POINT('',(-1.47815123928,2.07456460272,3.457051273684)
  );
#225 = CARTESIAN_POINT('',(-1.421041288212,2.114424393244,3.583899169777
    ));
#226 = CARTESIAN_POINT('',(-1.364418287038,2.15139540095,3.711531429813)
  );
#227 = CARTESIAN_POINT('',(-1.308259658291,2.185730389161,3.839824700986
    ));
#228 = CARTESIAN_POINT('',(-1.252543621479,2.217639505343,3.968684650083
    ));
#229 = CARTESIAN_POINT('',(-1.197246913547,2.247303745122,4.098042334956
    ));
#230 = CARTESIAN_POINT('',(-1.080271045094,2.306044073405,4.374625446074
    ));
#231 = CARTESIAN_POINT('',(-1.018710247235,2.334533515678,4.521956954356
    ));
#232 = CARTESIAN_POINT('',(-0.957633829285,2.360558382192,4.669769306791
    ));
#233 = CARTESIAN_POINT('',(-0.897019619585,2.384291358672,4.817996662754
    ));
#234 = CARTESIAN_POINT('',(-0.836849376387,2.405874306287,4.966585010044
    ));
#235 = CARTESIAN_POINT('',(-0.777106935108,2.425427552401,5.115490425379
    ));
#236 = CARTESIAN_POINT('',(-0.717777163796,2.443055095863,5.264678117577
    ));
#237 = CARTESIAN_POINT('',(-0.658845726812,2.458845726812,5.414122253442
    ));
#238 = B_SPLINE_SURFACE_WITH_KNOTS('',1,1,(
    (#239,#240)
    ,(#241,#242
    )),.UNSPECIFIED.,.F.,.F.,.F.,(2,2),(2,2),(-3.68,3.68),(
    -2.124648990618,4.249297981236),.PIECEWISE_BEZIER_KNOTS.);
#239 = CARTESIAN_POINT('',(-4.104506663674,1.099799245859,
    -3.004707417814));
#240 = CARTESIAN_POINT('',(-1.649698868789,6.15675999551,
    -3.480240239285E-17));
#241 = CARTESIAN_POINT('',(-3.004707417814,-3.004707417814,
    3.004707417814));
#242 = CARTESIAN_POINT('',(-0.54989962293,2.052253331837,6.009414835628)
  );
#243 = ADVANCED_FACE('',(#244),#988,.F.);
#244 = FACE_BOUND('',#245,.F.);
#245 = EDGE_LOOP('',(#246,#333,#341,#362,#389,#459,#520,#604,#665,#733,
    #734,#751,#819,#820,#821,#906));
#246 = ORIENTED_EDGE('',*,*,#247,.T.);
#247 = EDGE_CURVE('',#248,#250,#252,.T.);
#248 = VERTEX_POINT('',#249);
#249 = CARTESIAN_POINT('',(2.493783652641,0.510923765173,3.004707417814)
  );
#250 = VERTEX_POINT('',#251);
#251 = CARTESIAN_POINT('',(2.545584412272,-6.234883604896E-16,
    3.004707417814));
#252 = B_SPLINE_CURVE_WITH_KNOTS('',7,(#253,#254,#255,#256,#257,#258,
    #259,#260,#261,#262,#263,#264,#265,#266,#267,#268,#269,#270,#271,
    #272,#273,#274,#275,#276,#277,#278,#279,#280,#281,#282,#283,#284,
    #285,#286,#287,#288,#289,#290,#291,#292,#293,#294,#295,#296,#297,
    #298,#299,#300,#301,#302,#303,#304,#305,#306,#307,#308,#309,#310,
    #311,#312,#313,#314,#315,#316,#317,#318,#319,#320,#321,#322,#323,
    #324,#325,#326,#327,#328,#329,#330,#331,#332),.UNSPECIFIED.,.F.,.F.,
  (8,6,6,6,6,6,6,6,6,6,6,6,6,8),(0.,2.972731010957E-02,
    9.696018874108E-02,0.225491562047,0.354008255902,0.395844525888,
    0.419616769108,0.583395912383,0.745553476567,0.758222739034,
    0.773295591036,0.823990863079,0.941091241853,1.),.UNSPECIFIED.);
#253 = CARTESIAN_POINT('',(-0.804418866284,-2.415141877316,
    3.004707417814));
#254 = CARTESIAN_POINT('',(-0.849450538442,-2.400143037287,
    3.004707417814));
#255 = CARTESIAN_POINT('',(-0.8941559652,-2.384164606529,3.004707417814)
  );
#256 = CARTESIAN_POINT('',(-0.938509529566,-2.367215118836,
    3.004707417814));
#257 = CARTESIAN_POINT('',(-0.98248594627,-2.349303922752,3.004707417814
    ));
#258 = CARTESIAN_POINT('',(-1.026060261764,-2.330441181566,
    3.004707417814));
#259 = CARTESIAN_POINT('',(-1.069207854225,-2.310637873314,
    3.004707417814));
#260 = CARTESIAN_POINT('',(-1.208469306895,-2.243017001194,
    3.004707417814));
#261 = CARTESIAN_POINT('',(-1.302728661415,-2.191376638776,
    3.004707417814));
#262 = CARTESIAN_POINT('',(-1.394399727757,-2.135122175936,
    3.004707417814));
#263 = CARTESIAN_POINT('',(-1.483212416943,-2.074410333958,
    3.004707417814));
#264 = CARTESIAN_POINT('',(-1.568909544234,-2.00941692581,3.004707417814
    ));
#265 = CARTESIAN_POINT('',(-1.651247053004,-1.940336698971,
    3.004707417814));
#266 = CARTESIAN_POINT('',(-1.880537902906,-1.727915459496,
    3.004707417814));
#267 = CARTESIAN_POINT('',(-2.017993231901,-1.574261418972,
    3.004707417814));
#268 = CARTESIAN_POINT('',(-2.140701155408,-1.407940845295,
    3.004707417814));
#269 = CARTESIAN_POINT('',(-2.247300402047,-1.230666254418,
    3.004707417814));
#270 = CARTESIAN_POINT('',(-2.336671340986,-1.044299899432,
    3.004707417814));
#271 = CARTESIAN_POINT('',(-2.407939907253,-0.850846787351,
    3.004707417814));
#272 = CARTESIAN_POINT('',(-2.51313730636,-0.454143273227,3.004707417814
    ));
#273 = CARTESIAN_POINT('',(-2.547090256967,-0.25081912231,3.004707417814
    ));
#274 = CARTESIAN_POINT('',(-2.561812364814,-4.468095572333E-02,
    3.004707417814));
#275 = CARTESIAN_POINT('',(-2.557069372549,0.162097318538,3.004707417814
    ));
#276 = CARTESIAN_POINT('',(-2.532910932275,0.367344096828,3.004707417814
    ));
#277 = CARTESIAN_POINT('',(-2.489670658438,0.568898085111,3.004707417814
    ));
#278 = CARTESIAN_POINT('',(-2.407972176966,0.828330793683,3.004707417814
    ));
#279 = CARTESIAN_POINT('',(-2.385957628876,0.891429690818,3.004707417814
    ));
#280 = CARTESIAN_POINT('',(-2.362015177259,0.953842583461,3.004707417814
    ));
#281 = CARTESIAN_POINT('',(-2.336170663033,1.015498894514,3.004707417814
    ));
#282 = CARTESIAN_POINT('',(-2.308453110925,1.076329380483,3.004707417814
    ));
#283 = CARTESIAN_POINT('',(-2.278894729469,1.136266131481,3.004707417814
    ));
#284 = CARTESIAN_POINT('',(-2.229709333674,1.228754217231,3.004707417814
    ));
#285 = CARTESIAN_POINT('',(-2.211304799817,1.261955856405,3.004707417814
    ));
#286 = CARTESIAN_POINT('',(-2.192323788717,1.294835305854,3.004707417814
    ));
#287 = CARTESIAN_POINT('',(-2.172773088013,1.327380567879,3.004707417814
    ));
#288 = CARTESIAN_POINT('',(-2.152659793704,1.359579829975,3.004707417814
    ));
#289 = CARTESIAN_POINT('',(-2.131991310145,1.391421464837,3.004707417814
    ));
#290 = CARTESIAN_POINT('',(-1.964607748793,1.639724632725,3.004707417814
    ));
#291 = CARTESIAN_POINT('',(-1.792379165357,1.839147249973,3.004707417814
    ));
#292 = CARTESIAN_POINT('',(-1.596699115213,2.017195529771,3.004707417814
    ));
#293 = CARTESIAN_POINT('',(-1.380811918381,2.170687146327,3.004707417814
    ));
#294 = CARTESIAN_POINT('',(-1.148370130322,2.297025989404,3.004707417814
    ));
#295 = CARTESIAN_POINT('',(-0.903444177758,2.394195178653,3.004707417814
    ));
#296 = CARTESIAN_POINT('',(-0.400320006254,2.527207635177,3.004707417814
    ));
#297 = CARTESIAN_POINT('',(-0.14204005703,2.563711288286,3.004707417814)
  );
#298 = CARTESIAN_POINT('',(0.11977732144,2.569321754175,3.004707417814)
  );
#299 = CARTESIAN_POINT('',(0.38073153508,2.543777881506,3.004707417814)
  );
#300 = CARTESIAN_POINT('',(0.636493231725,2.487502847676,3.004707417814)
  );
#301 = CARTESIAN_POINT('',(0.882793962437,2.401605296318,3.004707417814)
  );
#302 = CARTESIAN_POINT('',(1.133700687164,2.279283206487,3.004707417814)
  );
#303 = CARTESIAN_POINT('',(1.151801089457,2.270250263274,3.004707417814)
  );
#304 = CARTESIAN_POINT('',(1.169817435899,2.261049667045,3.004707417814)
  );
#305 = CARTESIAN_POINT('',(1.187747864005,2.251682358085,3.004707417814)
  );
#306 = CARTESIAN_POINT('',(1.205590524723,2.242149302392,3.004707417814)
  );
#307 = CARTESIAN_POINT('',(1.223343582439,2.23245149168,3.004707417814)
  );
#308 = CARTESIAN_POINT('',(1.262017580446,2.210857479994,3.004707417814)
  );
#309 = CARTESIAN_POINT('',(1.282900541337,2.198893256878,3.004707417814)
  );
#310 = CARTESIAN_POINT('',(1.303651028745,2.186698987623,3.004707417814)
  );
#311 = CARTESIAN_POINT('',(1.32426600378,2.174276435605,3.004707417814)
  );
#312 = CARTESIAN_POINT('',(1.344742457551,2.161627413986,3.004707417814)
  );
#313 = CARTESIAN_POINT('',(1.365077411173,2.148753785718,3.004707417814)
  );
#314 = CARTESIAN_POINT('',(1.453175643036,2.09160995244,3.004707417814)
  );
#315 = CARTESIAN_POINT('',(1.5194496849,2.045043052228,3.004707417814));
#316 = CARTESIAN_POINT('',(1.583977316161,1.996029924076,3.004707417814)
  );
#317 = CARTESIAN_POINT('',(1.646650533363,1.94464948458,3.004707417814)
  );
#318 = CARTESIAN_POINT('',(1.707366054794,1.890986405754,3.004707417814)
  );
#319 = CARTESIAN_POINT('',(1.766025320485,1.835131115032,3.004707417814)
  );
#320 = CARTESIAN_POINT('',(1.953064325589,1.643318762056,3.004707417814)
  );
#321 = CARTESIAN_POINT('',(2.072141150483,1.49825481758,3.004707417814)
  );
#322 = CARTESIAN_POINT('',(2.178578463225,1.343194276652,3.004707417814)
  );
#323 = CARTESIAN_POINT('',(2.271394252816,1.179467241603,3.004707417814)
  );
#324 = CARTESIAN_POINT('',(2.349778015384,1.008503594785,3.004707417814)
  );
#325 = CARTESIAN_POINT('',(2.413092957153,0.831828885015,3.004707417814)
  );
#326 = CARTESIAN_POINT('',(2.484970029474,0.560152255292,3.004707417814)
  );
#327 = CARTESIAN_POINT('',(2.505107201448,0.468186626028,3.004707417814)
  );
#328 = CARTESIAN_POINT('',(2.521270980314,0.375387301637,3.004707417814)
  );
#329 = CARTESIAN_POINT('',(2.53342088251,0.281960306219,3.004707417814)
  );
#330 = CARTESIAN_POINT('',(2.541529879071,0.188113479169,3.004707417814)
  );
#331 = CARTESIAN_POINT('',(2.545584412272,9.405634780327E-02,
    3.004707417814));
#332 = CARTESIAN_POINT('',(2.545584412272,-4.440892098501E-16,
    3.004707417814));
#333 = ORIENTED_EDGE('',*,*,#334,.F.);
#334 = EDGE_CURVE('',#335,#250,#337,.T.);
#335 = VERTEX_POINT('',#336);
#336 = CARTESIAN_POINT('',(2.545584412272,-6.234883604896E-16,
    -2.059456304161));
#337 = LINE('',#338,#339);
#338 = CARTESIAN_POINT('',(2.545584412272,-6.234883604896E-16,
    -8.485281374239));
#339 = VECTOR('',#340,1.);
#340 = DIRECTION('',(0.,0.,1.));
#341 = ORIENTED_EDGE('',*,*,#342,.T.);
#342 = EDGE_CURVE('',#335,#343,#345,.T.);
#343 = VERTEX_POINT('',#344);
#344 = CARTESIAN_POINT('',(2.415141877316,0.804418866284,-3.004707417814
    ));
#345 = B_SPLINE_CURVE_WITH_KNOTS('',8,(#346,#347,#348,#349,#350,#351,
    #352,#353,#354,#355,#356,#357,#358,#359,#360,#361),.UNSPECIFIED.,.F.
  ,.F.,(9,7,9),(0.,0.373684800765,1.),.UNSPECIFIED.);
#346 = CARTESIAN_POINT('',(2.545584412272,-5.06902342609E-16,
    -2.059456304161));
#347 = CARTESIAN_POINT('',(2.545584412272,9.556904847963E-02,
    -2.129417703279));
#348 = CARTESIAN_POINT('',(2.541484188131,0.184373957793,-2.205629429532
    ));
#349 = CARTESIAN_POINT('',(2.534297060425,0.267669416686,-2.286241535536
    ));
#350 = CARTESIAN_POINT('',(2.524610059199,0.346079344291,-2.370106965882
    ));
#351 = CARTESIAN_POINT('',(2.512905505142,0.420206130366,-2.456348975855
    ));
#352 = CARTESIAN_POINT('',(2.499507595468,0.490535134877,-2.544437150347
    ));
#353 = CARTESIAN_POINT('',(2.484654528033,0.557562458022,-2.634083891265
    ));
#354 = CARTESIAN_POINT('',(2.441376024031,0.729382257244,-2.87810378585)
  );
#355 = CARTESIAN_POINT('',(2.410682049053,0.828605160567,-3.034597491483
    ));
#356 = CARTESIAN_POINT('',(2.377259854054,0.921195265234,-3.193689287217
    ));
#357 = CARTESIAN_POINT('',(2.341584109868,1.008044956153,-3.354735619304
    ));
#358 = CARTESIAN_POINT('',(2.304032432558,1.089902763927,-3.517252783911
    ));
#359 = CARTESIAN_POINT('',(2.264855766634,1.167302564456,-3.68094601217)
  );
#360 = CARTESIAN_POINT('',(2.224242070501,1.240718175724,-3.845648651006
    ));
#361 = CARTESIAN_POINT('',(2.182308200701,1.310546037785,-4.011331656671
    ));
#362 = ORIENTED_EDGE('',*,*,#363,.T.);
#363 = EDGE_CURVE('',#343,#364,#366,.T.);
#364 = VERTEX_POINT('',#365);
#365 = CARTESIAN_POINT('',(0.804418866284,2.415141877316,-3.004707417814
    ));
#366 = B_SPLINE_CURVE_WITH_KNOTS('',6,(#367,#368,#369,#370,#371,#372,
    #373,#374,#375,#376,#377,#378,#379,#380,#381,#382,#383,#384,#385,
    #386,#387,#388),.UNSPECIFIED.,.F.,.F.,(7,5,5,5,7),(0.,0.212090683086
    ,0.621407095581,0.897132807332,1.),.UNSPECIFIED.);
#367 = CARTESIAN_POINT('',(2.545584412272,-6.104809210926E-16,
    -3.004707417814));
#368 = CARTESIAN_POINT('',(2.545584412272,0.112411092423,-3.004707417814
    ));
#369 = CARTESIAN_POINT('',(2.539627544497,0.224823419744,-3.004707417814
    ));
#370 = CARTESIAN_POINT('',(2.527713949794,0.336839738872,-3.004707417814
    ));
#371 = CARTESIAN_POINT('',(2.509878419799,0.448066906542,-3.004707417814
    ));
#372 = CARTESIAN_POINT('',(2.486190328321,0.558116390308,-3.004707417814
    ));
#373 = CARTESIAN_POINT('',(2.399943187451,0.875977853517,-3.004707417814
    ));
#374 = CARTESIAN_POINT('',(2.32171181934,1.079573170378,-3.004707417814)
  );
#375 = CARTESIAN_POINT('',(2.222810085017,1.274577979365,-3.004707417814
    ));
#376 = CARTESIAN_POINT('',(2.104468676593,1.458436149749,-3.004707417814
    ));
#377 = CARTESIAN_POINT('',(1.96827188598,1.628794079585,-3.004707417814)
  );
#378 = CARTESIAN_POINT('',(1.713876063582,1.8878520227,-3.004707417814)
  );
#379 = CARTESIAN_POINT('',(1.604296676297,1.985070397699,-3.004707417814
    ));
#380 = CARTESIAN_POINT('',(1.488145380161,2.074612854804,-3.004707417814
    ));
#381 = CARTESIAN_POINT('',(1.366096811813,2.155934093039,-3.004707417814
    ));
#382 = CARTESIAN_POINT('',(1.238883802649,2.228569794227,-3.004707417814
    ));
#383 = CARTESIAN_POINT('',(1.058202783413,2.315853926071,-3.004707417814
    ));
#384 = CARTESIAN_POINT('',(1.008500516184,2.338308092286,-3.004707417814
    ));
#385 = CARTESIAN_POINT('',(0.958229292554,2.359480904804,-3.004707417814
    ));
#386 = CARTESIAN_POINT('',(0.907430447158,2.37935453602,-3.004707417814)
  );
#387 = CARTESIAN_POINT('',(0.856146041964,2.397912944967,-3.004707417814
    ));
#388 = CARTESIAN_POINT('',(0.804418866284,2.415141877316,-3.004707417814
    ));
#389 = ORIENTED_EDGE('',*,*,#390,.T.);
#390 = EDGE_CURVE('',#364,#391,#393,.T.);
#391 = VERTEX_POINT('',#392);
#392 = CARTESIAN_POINT('',(-1.904218112144,1.689364786357,
    -3.004707417814));
#393 = B_SPLINE_CURVE_WITH_KNOTS('',8,(#394,#395,#396,#397,#398,#399,
    #400,#401,#402,#403,#404,#405,#406,#407,#408,#409,#410,#411,#412,
    #413,#414,#415,#416,#417,#418,#419,#420,#421,#422,#423,#424,#425,
    #426,#427,#428,#429,#430,#431,#432,#433,#434,#435,#436,#437,#438,
    #439,#440,#441,#442,#443,#444,#445,#446,#447,#448,#449,#450,#451,
    #452,#453,#454,#455,#456,#457,#458),.UNSPECIFIED.,.F.,.F.,(9,7,7,7,7
    ,7,7,7,7,9),(0.,0.279249420773,0.39424211547,0.434602435271,
    0.499916450016,0.551550171618,0.579157685993,0.63327620495,
    0.841123088932,1.),.UNSPECIFIED.);
#394 = CARTESIAN_POINT('',(0.804418866284,2.415141877316,-3.004707417814
    ));
#395 = CARTESIAN_POINT('',(0.736863994851,2.437642589842,-2.893780729799
    ));
#396 = CARTESIAN_POINT('',(0.666191880235,2.458782010251,-2.784291180621
    ));
#397 = CARTESIAN_POINT('',(0.591909857327,2.478429604498,-2.676234740033
    ));
#398 = CARTESIAN_POINT('',(0.513476770775,2.496347443023,-2.569865290473
    ));
#399 = CARTESIAN_POINT('',(0.430345407974,2.512214255854,-2.465659970391
    ));
#400 = CARTESIAN_POINT('',(0.341765532337,2.52552475332,-2.364450045547)
  );
#401 = CARTESIAN_POINT('',(0.246942628567,2.535670233927,-2.267316893778
    ));
#402 = CARTESIAN_POINT('',(0.101794188029,2.543901752353,-2.138571934102
    ));
#403 = CARTESIAN_POINT('',(5.815962516593E-02,2.545567733976,
    -2.102077670683));
#404 = CARTESIAN_POINT('',(1.31065271653E-02,2.546421790221,
    -2.066763188854));
#405 = CARTESIAN_POINT('',(-3.346754443531E-02,2.546368890976,
    -2.032813125552));
#406 = CARTESIAN_POINT('',(-8.1645876989E-02,2.545296234294,
    -2.000474690852));
#407 = CARTESIAN_POINT('',(-0.131490917303,2.543074296181,
    -1.970056036652));
#408 = CARTESIAN_POINT('',(-0.183041556059,2.539558606366,-1.94192339312
    ));
#409 = CARTESIAN_POINT('',(-0.255005414228,2.53284915038,-1.907572767277
    ));
#410 = CARTESIAN_POINT('',(-0.273907927022,2.530927811492,-1.89898436298
    ));
#411 = CARTESIAN_POINT('',(-0.293014774023,2.528821877467,
    -1.890750698957));
#412 = CARTESIAN_POINT('',(-0.312322059869,2.526525018119,
    -1.882891921199));
#413 = CARTESIAN_POINT('',(-0.331823963962,2.524031119432,-1.87542899448
    ));
#414 = CARTESIAN_POINT('',(-0.351512560132,2.521334473992,
    -1.868383314106));
#415 = CARTESIAN_POINT('',(-0.371377636316,2.518429971412,
    -1.861776317663));
#416 = CARTESIAN_POINT('',(-0.423818706023,2.510269645464,
    -1.845681215328));
#417 = CARTESIAN_POINT('',(-0.456670231666,2.504668688308,
    -1.836934328975));
#418 = CARTESIAN_POINT('',(-0.489894128807,2.498493928603,
    -1.829482505481));
#419 = CARTESIAN_POINT('',(-0.523411988534,2.49173447264,-1.823412906321
    ));
#420 = CARTESIAN_POINT('',(-0.557133304994,2.484387391453,
    -1.818799788464));
#421 = CARTESIAN_POINT('',(-0.590954825025,2.47646009058,-1.815698506164
    ));
#422 = CARTESIAN_POINT('',(-0.624759897793,2.467972679822,
    -1.814139512759));
#423 = CARTESIAN_POINT('',(-0.685025957763,2.451835677774,
    -1.814108804367));
#424 = CARTESIAN_POINT('',(-0.711549605999,2.444380979552,
    -1.815058760553));
#425 = CARTESIAN_POINT('',(-0.737925945618,2.43661292352,-1.816972663591
    ));
#426 = CARTESIAN_POINT('',(-0.764098802158,2.428550766055,
    -1.819839026639));
#427 = CARTESIAN_POINT('',(-0.790018227973,2.420215844082,
    -1.823636120346));
#428 = CARTESIAN_POINT('',(-0.815640080003,2.411631074421,-1.82833364976
    ));
#429 = CARTESIAN_POINT('',(-0.840925597547,2.402820453131,
    -1.833894431233));
#430 = CARTESIAN_POINT('',(-0.879162734851,2.388990073768,
    -1.843688203099));
#431 = CARTESIAN_POINT('',(-0.892379670811,2.384113657253,
    -1.847335352134));
#432 = CARTESIAN_POINT('',(-0.90548738758,2.379182836351,-1.851211090715
    ));
#433 = CARTESIAN_POINT('',(-0.918482065457,2.374201027387,
    -1.855308881484));
#434 = CARTESIAN_POINT('',(-0.93136046537,2.369171531969,-1.859622075445
    ));
#435 = CARTESIAN_POINT('',(-0.944119928872,2.364097536992,
    -1.864143911959));
#436 = CARTESIAN_POINT('',(-0.956758378142,2.358982114633,-1.86886751875
    ));
#437 = CARTESIAN_POINT('',(-0.993809086137,2.343725139079,
    -1.883427350427));
#438 = CARTESIAN_POINT('',(-1.017871658889,2.333474638944,
    -1.893817211783));
#439 = CARTESIAN_POINT('',(-1.041452349256,2.323097977277,
    -1.904904515245));
#440 = CARTESIAN_POINT('',(-1.064547164097,2.312614513532,-1.91663929298
    ));
#441 = CARTESIAN_POINT('',(-1.087157076613,2.302041556817,
    -1.928973543196));
#442 = CARTESIAN_POINT('',(-1.109287300859,2.291394211411,
    -1.941862183279));
#443 = CARTESIAN_POINT('',(-1.130946566243,2.280685222288,
    -1.955264002946));
#444 = CARTESIAN_POINT('',(-1.233566168775,2.228598561208,
    -2.022444644506));
#445 = CARTESIAN_POINT('',(-1.30794591471,2.186648278103,-2.08260519626)
  );
#446 = CARTESIAN_POINT('',(-1.376425457364,2.144458548782,
    -2.147739175822));
#447 = CARTESIAN_POINT('',(-1.439691083219,2.10231188159,-2.216572359461
    ));
#448 = CARTESIAN_POINT('',(-1.498390390963,2.060391377901,
    -2.288130429781));
#449 = CARTESIAN_POINT('',(-1.553071948956,2.018778643249,
    -2.361788856405));
#450 = CARTESIAN_POINT('',(-1.604269090199,1.977457473246,-2.43720148369
    ));
#451 = CARTESIAN_POINT('',(-1.689334791225,1.904860967758,
    -2.573266410002));
#452 = CARTESIAN_POINT('',(-1.724368213104,1.873577490931,
    -2.633088213353));
#453 = CARTESIAN_POINT('',(-1.757756203006,1.842461891631,
    -2.693655906578));
#454 = CARTESIAN_POINT('',(-1.789638135632,1.811514574747,
    -2.754866354136));
#455 = CARTESIAN_POINT('',(-1.820130053685,1.7807349262,-2.816636284572)
  );
#456 = CARTESIAN_POINT('',(-1.849332667949,1.750120428537,
    -2.878898850279));
#457 = CARTESIAN_POINT('',(-1.87733563494,1.719666175616,-2.941601821967
    ));
#458 = CARTESIAN_POINT('',(-1.904218112144,1.689364786357,
    -3.004707417814));
#459 = ORIENTED_EDGE('',*,*,#460,.T.);
#460 = EDGE_CURVE('',#391,#461,#463,.T.);
#461 = VERTEX_POINT('',#462);
#462 = CARTESIAN_POINT('',(-2.493783652641,-0.510923765173,
    -3.004707417814));
#463 = B_SPLINE_CURVE_WITH_KNOTS('',7,(#464,#465,#466,#467,#468,#469,
    #470,#471,#472,#473,#474,#475,#476,#477,#478,#479,#480,#481,#482,
    #483,#484,#485,#486,#487,#488,#489,#490,#491,#492,#493,#494,#495,
    #496,#497,#498,#499,#500,#501,#502,#503,#504,#505,#506,#507,#508,
    #509,#510,#511,#512,#513,#514,#515,#516,#517,#518,#519),
  .UNSPECIFIED.,.F.,.F.,(8,6,6,6,6,6,6,6,6,8),(0.,3.375270456675E-02,
    0.110089631159,0.256025521583,0.401944744802,0.449446091402,
    0.476437349587,0.662393933508,0.846509359256,1.),.UNSPECIFIED.);
#464 = CARTESIAN_POINT('',(-1.904218112144,1.689364786357,
    -3.004707417814));
#465 = CARTESIAN_POINT('',(-1.935717264193,1.653859573786,
    -3.004707417814));
#466 = CARTESIAN_POINT('',(-1.966444084073,1.617669133458,
    -3.004707417814));
#467 = CARTESIAN_POINT('',(-1.996380653716,1.580813664352,
    -3.004707417814));
#468 = CARTESIAN_POINT('',(-2.025509749706,1.543313905179,
    -3.004707417814));
#469 = CARTESIAN_POINT('',(-2.053814843285,1.505191134379,
    -3.004707417814));
#470 = CARTESIAN_POINT('',(-2.081280100342,1.466467170124,
    -3.004707417814));
#471 = CARTESIAN_POINT('',(-2.168073620062,1.338275050707,
    -3.004707417814));
#472 = CARTESIAN_POINT('',(-2.223884434411,1.246423507732,
    -3.004707417814));
#473 = CARTESIAN_POINT('',(-2.275146675236,1.151870180666,
    -3.004707417814));
#474 = CARTESIAN_POINT('',(-2.32170479926,1.054885838609,-3.004707417814
    ));
#475 = CARTESIAN_POINT('',(-2.363423984451,0.95575133243,-3.004707417814
    ));
#476 = CARTESIAN_POINT('',(-2.400190245311,0.854757346702,
    -3.004707417814));
#477 = CARTESIAN_POINT('',(-2.492551326444,0.556149732062,
    -3.004707417814));
#478 = CARTESIAN_POINT('',(-2.534764112978,0.354353765077,
    -3.004707417814));
#479 = CARTESIAN_POINT('',(-2.557872005142,0.148961961347,
    -3.004707417814));
#480 = CARTESIAN_POINT('',(-2.561552365316,-5.786196111752E-02,
    -3.004707417814));
#481 = CARTESIAN_POINT('',(-2.545766691305,-0.263945428415,
    -3.004707417814));
#482 = CARTESIAN_POINT('',(-2.510760524143,-0.467115021052,
    -3.004707417814));
#483 = CARTESIAN_POINT('',(-2.40351238712,-0.863269041608,
    -3.004707417814));
#484 = CARTESIAN_POINT('',(-2.331254429421,-1.056329396808,
    -3.004707417814));
#485 = CARTESIAN_POINT('',(-2.24093506552,-1.242211339685,
    -3.004707417814));
#486 = CARTESIAN_POINT('',(-2.133438376598,-1.418915082014,
    -3.004707417814));
#487 = CARTESIAN_POINT('',(-2.00989316446,-1.58458478592,-3.004707417814
    ));
#488 = CARTESIAN_POINT('',(-1.871668994709,-1.737515523089,
    -3.004707417814));
#489 = CARTESIAN_POINT('',(-1.671199680017,-1.921341598549,
    -3.004707417814));
#490 = CARTESIAN_POINT('',(-1.620585073552,-1.964979572374,
    -3.004707417814));
#491 = CARTESIAN_POINT('',(-1.5686438559,-2.007059497118,-3.004707417814
    ));
#492 = CARTESIAN_POINT('',(-1.515433694506,-2.04753317168,
    -3.004707417814));
#493 = CARTESIAN_POINT('',(-1.461014347265,-2.0863551418,-3.004707417814
    ));
#494 = CARTESIAN_POINT('',(-1.405447662531,-2.123482700057,
    -3.004707417814));
#495 = CARTESIAN_POINT('',(-1.316607817402,-2.178987033966,
    -3.004707417814));
#496 = CARTESIAN_POINT('',(-1.28406820395,-2.19853823001,-3.004707417814
    ));
#497 = CARTESIAN_POINT('',(-1.251190441423,-2.217522162945,
    -3.004707417814));
#498 = CARTESIAN_POINT('',(-1.21798640694,-2.235931836279,
    -3.004707417814));
#499 = CARTESIAN_POINT('',(-1.184468152066,-2.253760568083,
    -3.004707417814));
#500 = CARTESIAN_POINT('',(-1.150647902816,-2.271001990992,
    -3.004707417814));
#501 = CARTESIAN_POINT('',(-0.881537902565,-2.402347061547,
    -3.004707417814));
#502 = CARTESIAN_POINT('',(-0.632672265426,-2.488937822456,
    -3.004707417814));
#503 = CARTESIAN_POINT('',(-0.374184231091,-2.545292130787,
    -3.004707417814));
#504 = CARTESIAN_POINT('',(-0.110474626001,-2.570276171578,
    -3.004707417814));
#505 = CARTESIAN_POINT('',(0.153995288894,-2.563467925138,
    -3.004707417814));
#506 = CARTESIAN_POINT('',(0.414691980487,-2.525155935211,
    -3.004707417814));
#507 = CARTESIAN_POINT('',(0.916916522529,-2.388786015828,
    -3.004707417814));
#508 = CARTESIAN_POINT('',(1.1588453464,-2.291259132139,-3.004707417814)
  );
#509 = CARTESIAN_POINT('',(1.38839108025,-2.165209248892,-3.004707417814
    ));
#510 = CARTESIAN_POINT('',(1.601612122154,-2.012610499429,
    -3.004707417814));
#511 = CARTESIAN_POINT('',(1.794970731847,-1.835994042212,
    -3.004707417814));
#512 = CARTESIAN_POINT('',(1.965324645936,-1.638454215257,
    -3.004707417814));
#513 = CARTESIAN_POINT('',(2.230869017071,-1.244914190827,
    -3.004707417814));
#514 = CARTESIAN_POINT('',(2.333926862395,-1.054007506366,
    -3.004707417814));
#515 = CARTESIAN_POINT('',(2.417830256469,-0.853283469287,
    -3.004707417814));
#516 = CARTESIAN_POINT('',(2.481511658166,-0.645054018546,
    -3.004707417814));
#517 = CARTESIAN_POINT('',(2.524232253911,-0.43173663716,-3.004707417814
    ));
#518 = CARTESIAN_POINT('',(2.545584412272,-0.215843853876,
    -3.004707417814));
#519 = CARTESIAN_POINT('',(2.545584412272,-4.440892098501E-16,
    -3.004707417814));
#520 = ORIENTED_EDGE('',*,*,#521,.F.);
#521 = EDGE_CURVE('',#522,#461,#524,.T.);
#522 = VERTEX_POINT('',#523);
#523 = CARTESIAN_POINT('',(-0.510923765173,-2.493783652641,
    -3.004707417814));
#524 = B_SPLINE_CURVE_WITH_KNOTS('',8,(#525,#526,#527,#528,#529,#530,
    #531,#532,#533,#534,#535,#536,#537,#538,#539,#540,#541,#542,#543,
    #544,#545,#546,#547,#548,#549,#550,#551,#552,#553,#554,#555,#556,
    #557,#558,#559,#560,#561,#562,#563,#564,#565,#566,#567,#568,#569,
    #570,#571,#572,#573,#574,#575,#576,#577,#578,#579,#580,#581,#582,
    #583,#584,#585,#586,#587,#588,#589,#590,#591,#592,#593,#594,#595,
    #596,#597,#598,#599,#600,#601,#602,#603),.UNSPECIFIED.,.F.,.F.,(9,7,
    7,7,7,7,7,7,7,7,7,9),(0.,0.184128990309,0.347329215603,
    0.487935137372,0.548856363932,0.568658541184,0.601948827639,
    0.627963280101,0.671553952106,0.721860514939,0.867533081979,1.),
  .UNSPECIFIED.);
#525 = CARTESIAN_POINT('',(0.658845726812,-2.458845726812,
    -5.414122253442));
#526 = CARTESIAN_POINT('',(0.595863451919,-2.475721776507,
    -5.254405604266));
#527 = CARTESIAN_POINT('',(0.531438583153,-2.491008100651,
    -5.094983218447));
#528 = CARTESIAN_POINT('',(0.4655014815,-2.504619924988,-4.935885366466)
  );
#529 = CARTESIAN_POINT('',(0.397971539733,-2.516455347122,
    -4.777154638665));
#530 = CARTESIAN_POINT('',(0.328756548117,-2.526394648619,
    -4.618846052438));
#531 = CARTESIAN_POINT('',(0.257747687849,-2.534294594343,
    -4.461028440454));
#532 = CARTESIAN_POINT('',(0.184810152254,-2.539977719021,-4.30378711991
    ));
#533 = CARTESIAN_POINT('',(4.325804217544E-02,-2.546087340034,
    -4.008463657726));
#534 = CARTESIAN_POINT('',(-2.489203363177E-02,-2.547037326378,
    -3.870263533423));
#535 = CARTESIAN_POINT('',(-9.481316260483E-02,-2.545908638781,
    -3.732678650671));
#536 = CARTESIAN_POINT('',(-0.166650002972,-2.542512012097,
    -3.595798223304));
#537 = CARTESIAN_POINT('',(-0.240572916594,-2.536610108753,
    -3.459756202747));
#538 = CARTESIAN_POINT('',(-0.316782793884,-2.5279116527,-3.324733360275
    ));
#539 = CARTESIAN_POINT('',(-0.395535321833,-2.516041731054,
    -3.190968147667));
#540 = CARTESIAN_POINT('',(-0.547582210119,-2.48702351395,
    -2.944910805305));
#541 = CARTESIAN_POINT('',(-0.619986636822,-2.470858917417,
    -2.832431144965));
#542 = CARTESIAN_POINT('',(-0.694780304905,-2.451607715664,
    -2.721346212302));
#543 = CARTESIAN_POINT('',(-0.772310806741,-2.428801183367,
    -2.611898273229));
#544 = CARTESIAN_POINT('',(-0.852894016909,-2.401895514107,
    -2.504543191408));
#545 = CARTESIAN_POINT('',(-0.93693529881,-2.370087470434,
    -2.400076714954));
#546 = CARTESIAN_POINT('',(-1.024834037552,-2.33245856973,
    -2.299537038877));
#547 = CARTESIAN_POINT('',(-1.157716647222,-2.267529725615,
    -2.163629507767));
#548 = CARTESIAN_POINT('',(-1.198732411407,-2.246489813103,
    -2.123677804422));
#549 = CARTESIAN_POINT('',(-1.240678992512,-2.223888501216,
    -2.084987265985));
#550 = CARTESIAN_POINT('',(-1.283612311349,-2.199566072262,
    -2.047765486219));
#551 = CARTESIAN_POINT('',(-1.327558243551,-2.173353843057,
    -2.012298080225));
#552 = CARTESIAN_POINT('',(-1.372511835438,-2.145075579353,
    -1.97894742386));
#553 = CARTESIAN_POINT('',(-1.418436519883,-2.114548910265,
    -1.948151393146));
#554 = CARTESIAN_POINT('',(-1.480484181947,-2.070872534833,
    -1.911408819884));
#555 = CARTESIAN_POINT('',(-1.495795599589,-2.059904343053,
    -1.902722368159));
#556 = CARTESIAN_POINT('',(-1.51119296417,-2.048677572093,
    -1.894381180916));
#557 = CARTESIAN_POINT('',(-1.526670216373,-2.037188455599,
    -1.886404909497));
#558 = CARTESIAN_POINT('',(-1.542219797896,-2.02543429661,-1.87881406443
    ));
#559 = CARTESIAN_POINT('',(-1.557832590838,-2.013413708047,
    -1.871629655671));
#560 = CARTESIAN_POINT('',(-1.573497857095,-2.001126853202,
    -1.864872832848));
#561 = CARTESIAN_POINT('',(-1.615606063499,-1.967475383011,
    -1.847959360421));
#562 = CARTESIAN_POINT('',(-1.642131463805,-1.945620552075,
    -1.838618221682));
#563 = CARTESIAN_POINT('',(-1.668708428596,-1.923029705915,
    -1.83064598442));
#564 = CARTESIAN_POINT('',(-1.6952575122,-1.89973316261,-1.824140903823)
  );
#565 = CARTESIAN_POINT('',(-1.721691475397,-1.875775940177,
    -1.819187422293));
#566 = CARTESIAN_POINT('',(-1.747915987469,-1.851220650944,
    -1.815848976616));
#567 = CARTESIAN_POINT('',(-1.773830328247,-1.82615039591,
    -1.814160805128));
#568 = CARTESIAN_POINT('',(-1.819253130942,-1.780761485384,
    -1.814093020791));
#569 = CARTESIAN_POINT('',(-1.838929805756,-1.760595908339,
    -1.815070825252));
#570 = CARTESIAN_POINT('',(-1.858308698547,-1.740224039707,
    -1.817056776935));
#571 = CARTESIAN_POINT('',(-1.877348156778,-1.719693757001,
    -1.820038425883));
#572 = CARTESIAN_POINT('',(-1.896013593699,-1.699051458125,
    -1.823992149794));
#573 = CARTESIAN_POINT('',(-1.914276790601,-1.678341815968,
    -1.828885040305));
#574 = CARTESIAN_POINT('',(-1.932115199077,-1.657607533008,
    -1.834676789272));
#575 = CARTESIAN_POINT('',(-1.978660627016,-1.602172601395,
    -1.852455796621));
#576 = CARTESIAN_POINT('',(-2.00656383921,-1.567505452052,
    -1.865983670919));
#577 = CARTESIAN_POINT('',(-2.033166707414,-1.533045600907,
    -1.881697636799));
#578 = CARTESIAN_POINT('',(-2.058464565883,-1.498913032089,
    -1.899367057499));
#579 = CARTESIAN_POINT('',(-2.082485315605,-1.465194325255,
    -1.918762971722));
#580 = CARTESIAN_POINT('',(-2.105277195876,-1.431946053485,
    -1.939675754719));
#581 = CARTESIAN_POINT('',(-2.126901267398,-1.399197014633,
    -1.961925689381));
#582 = CARTESIAN_POINT('',(-2.171118535227,-1.329733263399,
    -2.01241865619));
#583 = CARTESIAN_POINT('',(-2.193337897325,-1.293200287317,
    -2.041045884158));
#584 = CARTESIAN_POINT('',(-2.214200069907,-1.257348418286,
    -2.071025277056));
#585 = CARTESIAN_POINT('',(-2.233807058321,-1.222170353076,
    -2.102167430648));
#586 = CARTESIAN_POINT('',(-2.252252346695,-1.187651942907,
    -2.134313674237));
#587 = CARTESIAN_POINT('',(-2.269622757593,-1.153771218763,
    -2.16733430073));
#588 = CARTESIAN_POINT('',(-2.285999321207,-1.120497933929,
    -2.20112774317));
#589 = CARTESIAN_POINT('',(-2.34621835557,-0.993091848423,
    -2.335501845458));
#590 = CARTESIAN_POINT('',(-2.383170548201,-0.903385489447,
    -2.441010178147));
#591 = CARTESIAN_POINT('',(-2.414221645459,-0.817652845932,
    -2.550373270661));
#592 = CARTESIAN_POINT('',(-2.440306639324,-0.735468792498,
    -2.662571389796));
#593 = CARTESIAN_POINT('',(-2.462242606305,-0.656407478113,
    -2.776822084609));
#594 = CARTESIAN_POINT('',(-2.480577650578,-0.580143848982,
    -2.892679254322));
#595 = CARTESIAN_POINT('',(-2.495783336174,-0.506324991559,
    -3.009905597976));
#596 = CARTESIAN_POINT('',(-2.519513416598,-0.369370179354,
    -3.236355061538));
#597 = CARTESIAN_POINT('',(-2.528500898445,-0.305977711694,
    -3.345165033163));
#598 = CARTESIAN_POINT('',(-2.53543726715,-0.244235688914,
    -3.454776341314));
#599 = CARTESIAN_POINT('',(-2.540523428119,-0.184005590498,
    -3.565064216209));
#600 = CARTESIAN_POINT('',(-2.543919525866,-0.125176251334,
    -3.675930699043));
#601 = CARTESIAN_POINT('',(-2.545759229702,-6.765223970251E-02,
    -3.787299314632));
#602 = CARTESIAN_POINT('',(-2.54615686065,-1.134802551536E-02,
    -3.899112481111));
#603 = CARTESIAN_POINT('',(-2.545207359587,4.38120612009E-02,
    -4.011331656671));
#604 = ORIENTED_EDGE('',*,*,#605,.T.);
#605 = EDGE_CURVE('',#522,#606,#608,.T.);
#606 = VERTEX_POINT('',#607);
#607 = CARTESIAN_POINT('',(1.689364786357,-1.904218112144,
    -3.004707417814));
#608 = B_SPLINE_CURVE_WITH_KNOTS('',7,(#609,#610,#611,#612,#613,#614,
    #615,#616,#617,#618,#619,#620,#621,#622,#623,#624,#625,#626,#627,
    #628,#629,#630,#631,#632,#633,#634,#635,#636,#637,#638,#639,#640,
    #641,#642,#643,#644,#645,#646,#647,#648,#649,#650,#651,#652,#653,
    #654,#655,#656,#657,#658,#659,#660,#661,#662,#663,#664),
  .UNSPECIFIED.,.F.,.F.,(8,6,6,6,6,6,6,6,6,8),(0.,3.375270456675E-02,
    0.110089631159,0.256025521583,0.401944744802,0.449446091402,
    0.476437349587,0.662393933508,0.846509359256,1.),.UNSPECIFIED.);
#609 = CARTESIAN_POINT('',(-1.904218112144,1.689364786357,
    -3.004707417814));
#610 = CARTESIAN_POINT('',(-1.935717264193,1.653859573786,
    -3.004707417814));
#611 = CARTESIAN_POINT('',(-1.966444084073,1.617669133458,
    -3.004707417814));
#612 = CARTESIAN_POINT('',(-1.996380653716,1.580813664352,
    -3.004707417814));
#613 = CARTESIAN_POINT('',(-2.025509749706,1.543313905179,
    -3.004707417814));
#614 = CARTESIAN_POINT('',(-2.053814843285,1.505191134379,
    -3.004707417814));
#615 = CARTESIAN_POINT('',(-2.081280100342,1.466467170124,
    -3.004707417814));
#616 = CARTESIAN_POINT('',(-2.168073620062,1.338275050707,
    -3.004707417814));
#617 = CARTESIAN_POINT('',(-2.223884434411,1.246423507732,
    -3.004707417814));
#618 = CARTESIAN_POINT('',(-2.275146675236,1.151870180666,
    -3.004707417814));
#619 = CARTESIAN_POINT('',(-2.32170479926,1.054885838609,-3.004707417814
    ));
#620 = CARTESIAN_POINT('',(-2.363423984451,0.95575133243,-3.004707417814
    ));
#621 = CARTESIAN_POINT('',(-2.400190245311,0.854757346702,
    -3.004707417814));
#622 = CARTESIAN_POINT('',(-2.492551326444,0.556149732062,
    -3.004707417814));
#623 = CARTESIAN_POINT('',(-2.534764112978,0.354353765077,
    -3.004707417814));
#624 = CARTESIAN_POINT('',(-2.557872005142,0.148961961347,
    -3.004707417814));
#625 = CARTESIAN_POINT('',(-2.561552365316,-5.786196111752E-02,
    -3.004707417814));
#626 = CARTESIAN_POINT('',(-2.545766691305,-0.263945428415,
    -3.004707417814));
#627 = CARTESIAN_POINT('',(-2.510760524143,-0.467115021052,
    -3.004707417814));
#628 = CARTESIAN_POINT('',(-2.40351238712,-0.863269041608,
    -3.004707417814));
#629 = CARTESIAN_POINT('',(-2.331254429421,-1.056329396808,
    -3.004707417814));
#630 = CARTESIAN_POINT('',(-2.24093506552,-1.242211339685,
    -3.004707417814));
#631 = CARTESIAN_POINT('',(-2.133438376598,-1.418915082014,
    -3.004707417814));
#632 = CARTESIAN_POINT('',(-2.00989316446,-1.58458478592,-3.004707417814
    ));
#633 = CARTESIAN_POINT('',(-1.871668994709,-1.737515523089,
    -3.004707417814));
#634 = CARTESIAN_POINT('',(-1.671199680017,-1.921341598549,
    -3.004707417814));
#635 = CARTESIAN_POINT('',(-1.620585073552,-1.964979572374,
    -3.004707417814));
#636 = CARTESIAN_POINT('',(-1.5686438559,-2.007059497118,-3.004707417814
    ));
#637 = CARTESIAN_POINT('',(-1.515433694506,-2.04753317168,
    -3.004707417814));
#638 = CARTESIAN_POINT('',(-1.461014347265,-2.0863551418,-3.004707417814
    ));
#639 = CARTESIAN_POINT('',(-1.405447662531,-2.123482700057,
    -3.004707417814));
#640 = CARTESIAN_POINT('',(-1.316607817402,-2.178987033966,
    -3.004707417814));
#641 = CARTESIAN_POINT('',(-1.28406820395,-2.19853823001,-3.004707417814
    ));
#642 = CARTESIAN_POINT('',(-1.251190441423,-2.217522162945,
    -3.004707417814));
#643 = CARTESIAN_POINT('',(-1.21798640694,-2.235931836279,
    -3.004707417814));
#644 = CARTESIAN_POINT('',(-1.184468152066,-2.253760568083,
    -3.004707417814));
#645 = CARTESIAN_POINT('',(-1.150647902816,-2.271001990992,
    -3.004707417814));
#646 = CARTESIAN_POINT('',(-0.881537902565,-2.402347061547,
    -3.004707417814));
#647 = CARTESIAN_POINT('',(-0.632672265426,-2.488937822456,
    -3.004707417814));
#648 = CARTESIAN_POINT('',(-0.374184231091,-2.545292130787,
    -3.004707417814));
#649 = CARTESIAN_POINT('',(-0.110474626001,-2.570276171578,
    -3.004707417814));
#650 = CARTESIAN_POINT('',(0.153995288894,-2.563467925138,
    -3.004707417814));
#651 = CARTESIAN_POINT('',(0.414691980487,-2.525155935211,
    -3.004707417814));
#652 = CARTESIAN_POINT('',(0.916916522529,-2.388786015828,
    -3.004707417814));
#653 = CARTESIAN_POINT('',(1.1588453464,-2.291259132139,-3.004707417814)
  );
#654 = CARTESIAN_POINT('',(1.38839108025,-2.165209248892,-3.004707417814
    ));
#655 = CARTESIAN_POINT('',(1.601612122154,-2.012610499429,
    -3.004707417814));
#656 = CARTESIAN_POINT('',(1.794970731847,-1.835994042212,
    -3.004707417814));
#657 = CARTESIAN_POINT('',(1.965324645936,-1.638454215257,
    -3.004707417814));
#658 = CARTESIAN_POINT('',(2.230869017071,-1.244914190827,
    -3.004707417814));
#659 = CARTESIAN_POINT('',(2.333926862395,-1.054007506366,
    -3.004707417814));
#660 = CARTESIAN_POINT('',(2.417830256469,-0.853283469287,
    -3.004707417814));
#661 = CARTESIAN_POINT('',(2.481511658166,-0.645054018546,
    -3.004707417814));
#662 = CARTESIAN_POINT('',(2.524232253911,-0.43173663716,-3.004707417814
    ));
#663 = CARTESIAN_POINT('',(2.545584412272,-0.215843853876,
    -3.004707417814));
#664 = CARTESIAN_POINT('',(2.545584412272,-4.440892098501E-16,
    -3.004707417814));
#665 = ORIENTED_EDGE('',*,*,#666,.T.);
#666 = EDGE_CURVE('',#606,#335,#667,.T.);
#667 = B_SPLINE_CURVE_WITH_KNOTS('',8,(#668,#669,#670,#671,#672,#673,
    #674,#675,#676,#677,#678,#679,#680,#681,#682,#683,#684,#685,#686,
    #687,#688,#689,#690,#691,#692,#693,#694,#695,#696,#697,#698,#699,
    #700,#701,#702,#703,#704,#705,#706,#707,#708,#709,#710,#711,#712,
    #713,#714,#715,#716,#717,#718,#719,#720,#721,#722,#723,#724,#725,
    #726,#727,#728,#729,#730,#731,#732),.UNSPECIFIED.,.F.,.F.,(9,7,7,7,7
    ,7,7,7,7,9),(0.,0.267711348218,0.504993659221,0.709425350399,
    0.798000776084,0.82679182936,0.875193699455,0.917628669586,
    0.941832833465,1.),.UNSPECIFIED.);
#668 = CARTESIAN_POINT('',(0.658845726812,-2.458845726812,
    -5.414122253442));
#669 = CARTESIAN_POINT('',(0.721828001705,-2.441969677117,
    -5.254405604266));
#670 = CARTESIAN_POINT('',(0.785264736763,-2.422995587773,
    -5.094983218447));
#671 = CARTESIAN_POINT('',(0.849173854016,-2.401815222614,
    -4.935885366466));
#672 = CARTESIAN_POINT('',(0.913574210169,-2.378300027963,
    -4.777154638665));
#673 = CARTESIAN_POINT('',(0.97848580198,-2.352300219747,-4.618846052438
    ));
#674 = CARTESIAN_POINT('',(1.043931251727,-2.3236373433,-4.461028440454)
  );
#675 = CARTESIAN_POINT('',(1.109938572781,-2.292090305846,-4.30378711991
    ));
#676 = CARTESIAN_POINT('',(1.235581106575,-2.226605337811,
    -4.008463657725));
#677 = CARTESIAN_POINT('',(1.295075796666,-2.193353012214,
    -3.870263533424));
#678 = CARTESIAN_POINT('',(1.35506492682,-2.157414975596,-3.73267865067)
  );
#679 = CARTESIAN_POINT('',(1.415579142163,-2.118554990418,
    -3.595798223304));
#680 = CARTESIAN_POINT('',(1.47664731161,-2.07648233538,-3.459756202747)
  );
#681 = CARTESIAN_POINT('',(1.538297773335,-2.030844312818,
    -3.324733360274));
#682 = CARTESIAN_POINT('',(1.600564502329,-1.981188395158,
    -3.190968147667));
#683 = CARTESIAN_POINT('',(1.717731861598,-1.88003443783,-2.944910805305
    ));
#684 = CARTESIAN_POINT('',(1.772353636204,-1.829833273239,
    -2.832431144964));
#685 = CARTESIAN_POINT('',(1.827501251929,-1.775764409427,
    -2.721346212304));
#686 = CARTESIAN_POINT('',(1.883241369938,-1.717248122167,
    -2.611898273227));
#687 = CARTESIAN_POINT('',(1.939575642433,-1.653655523998,
    -2.504543191408));
#688 = CARTESIAN_POINT('',(1.996453505689,-1.584088309183,
    -2.400076714954));
#689 = CARTESIAN_POINT('',(2.053761596048,-1.507551355885,
    -2.299537038877));
#690 = CARTESIAN_POINT('',(2.136376889686,-1.384880022608,
    -2.163629507767));
#691 = CARTESIAN_POINT('',(2.16137762717,-1.346151041787,-2.123677804423
    ));
#692 = CARTESIAN_POINT('',(2.186403776065,-1.305604440981,
    -2.084987265985));
#693 = CARTESIAN_POINT('',(2.21142390637,-1.263073940207,-2.047765486219
    ));
#694 = CARTESIAN_POINT('',(2.236376085447,-1.218400517725,
    -2.012298080226));
#695 = CARTESIAN_POINT('',(2.26116790616,-1.171434027039,-1.97894742386)
  );
#696 = CARTESIAN_POINT('',(2.285676515006,-1.122034813893,
    -1.948151393147));
#697 = CARTESIAN_POINT('',(2.317573178882,-1.053186132193,
    -1.911408819885));
#698 = CARTESIAN_POINT('',(2.325349159639,-1.036031690657,-1.90272236816
    ));
#699 = CARTESIAN_POINT('',(2.333070283037,-1.018610339513,
    -1.894381180917));
#700 = CARTESIAN_POINT('',(2.340729418379,-1.00092184666,-1.886404909498
    ));
#701 = CARTESIAN_POINT('',(2.348318671502,-0.982967655614,
    -1.878814064431));
#702 = CARTESIAN_POINT('',(2.355829452532,-0.96475112408,-1.871629655672
    ));
#703 = CARTESIAN_POINT('',(2.363252543645,-0.946277762522,
    -1.864872832848));
#704 = CARTESIAN_POINT('',(2.382893585004,-0.89608063126,-1.847959360421
    ));
#705 = CARTESIAN_POINT('',(2.394937840046,-0.863891092321,
    -1.838618221682));
#706 = CARTESIAN_POINT('',(2.40665874363,-0.831038363259,-1.830645984421
    ));
#707 = CARTESIAN_POINT('',(2.418002652826,-0.797588423134,
    -1.824140903823));
#708 = CARTESIAN_POINT('',(2.428916525261,-0.763623878304,
    -1.819187422293));
#709 = CARTESIAN_POINT('',(2.439349974301,-0.729246117995,
    -1.815848976616));
#710 = CARTESIAN_POINT('',(2.44925732422,-0.694577469868,-1.814160805128
    ));
#711 = CARTESIAN_POINT('',(2.466790298666,-0.629241065928,
    -1.814089395402));
#712 = CARTESIAN_POINT('',(2.474549700532,-0.598595701282,
    -1.815324279205));
#713 = CARTESIAN_POINT('',(2.481851739334,-0.567923551575,
    -1.817828310159));
#714 = CARTESIAN_POINT('',(2.488680241258,-0.537312235112,
    -1.821581534903));
#715 = CARTESIAN_POINT('',(2.495027612798,-0.506841013738,
    -1.826546675575));
#716 = CARTESIAN_POINT('',(2.50089346325,-0.476581108011,-1.832672662536
    ));
#717 = CARTESIAN_POINT('',(2.50628322719,-0.446596012356,-1.8398981671)
  );
#718 = CARTESIAN_POINT('',(2.514015099237,-0.400027572624,
    -1.852864763742));
#719 = CARTESIAN_POINT('',(2.516672132178,-0.383218651014,
    -1.857910599389));
#720 = CARTESIAN_POINT('',(2.519179947197,-0.366523857685,
    -1.863280558281));
#721 = CARTESIAN_POINT('',(2.521541097489,-0.349950674026,
    -1.868962188199));
#722 = CARTESIAN_POINT('',(2.523758534294,-0.3335053311,-1.874942864755)
  );
#723 = CARTESIAN_POINT('',(2.525835513157,-0.317192890198,
    -1.881209988512));
#724 = CARTESIAN_POINT('',(2.527775500188,-0.301017323403,
    -1.887751182112));
#725 = CARTESIAN_POINT('',(2.53392362601,-0.246444715149,-1.910904111936
    ));
#726 = CARTESIAN_POINT('',(2.537493562552,-0.208725521279,
    -1.928763230259));
#727 = CARTESIAN_POINT('',(2.540344042319,-0.171851033827,
    -1.947969573026));
#728 = CARTESIAN_POINT('',(2.542528302232,-0.135830349243,
    -1.968371035207));
#729 = CARTESIAN_POINT('',(2.544098144854,-0.100657937824,
    -1.989830137587));
#730 = CARTESIAN_POINT('',(2.545102121059,-6.631605220634E-02,
    -2.012227228684));
#731 = CARTESIAN_POINT('',(2.545584412272,-3.277624563047E-02,
    -2.035462427078));
#732 = CARTESIAN_POINT('',(2.545584412272,-4.440892098501E-16,
    -2.059456304161));
#733 = ORIENTED_EDGE('',*,*,#334,.T.);
#734 = ORIENTED_EDGE('',*,*,#735,.T.);
#735 = EDGE_CURVE('',#250,#736,#738,.T.);
#736 = VERTEX_POINT('',#737);
#737 = CARTESIAN_POINT('',(1.904218112144,-1.689364786357,3.004707417814
    ));
#738 = B_SPLINE_CURVE_WITH_KNOTS('',6,(#739,#740,#741,#742,#743,#744,
    #745,#746,#747,#748,#749,#750),.UNSPECIFIED.,.F.,.F.,(7,5,7),(0.,
    0.82290316236,1.),.UNSPECIFIED.);
#739 = CARTESIAN_POINT('',(2.545584412272,-6.661338147751E-16,
    3.004707417814));
#740 = CARTESIAN_POINT('',(2.545584412272,-0.253340570559,3.004707417814
    ));
#741 = CARTESIAN_POINT('',(2.515328763712,-0.506751722878,3.004707417814
    ));
#742 = CARTESIAN_POINT('',(2.454787960041,-0.755555074388,3.004707417814
    ));
#743 = CARTESIAN_POINT('',(2.364947033379,-0.99534137114,3.004707417814)
  );
#744 = CARTESIAN_POINT('',(2.247469386992,-1.221909110178,3.004707417814
    ));
#745 = CARTESIAN_POINT('',(2.074357455822,-1.476486939732,3.004707417814
    ));
#746 = CARTESIAN_POINT('',(2.042541112884,-1.520783951708,3.004707417814
    ));
#747 = CARTESIAN_POINT('',(2.009591362401,-1.564255757031,3.004707417814
    ));
#748 = CARTESIAN_POINT('',(1.975535087414,-1.606866249227,3.004707417814
    ));
#749 = CARTESIAN_POINT('',(1.940400694173,-1.648580505424,3.004707417814
    ));
#750 = CARTESIAN_POINT('',(1.904218112144,-1.689364786357,3.004707417814
    ));
#751 = ORIENTED_EDGE('',*,*,#752,.T.);
#752 = EDGE_CURVE('',#736,#31,#753,.T.);
#753 = B_SPLINE_CURVE_WITH_KNOTS('',8,(#754,#755,#756,#757,#758,#759,
    #760,#761,#762,#763,#764,#765,#766,#767,#768,#769,#770,#771,#772,
    #773,#774,#775,#776,#777,#778,#779,#780,#781,#782,#783,#784,#785,
    #786,#787,#788,#789,#790,#791,#792,#793,#794,#795,#796,#797,#798,
    #799,#800,#801,#802,#803,#804,#805,#806,#807,#808,#809,#810,#811,
    #812,#813,#814,#815,#816,#817,#818),.UNSPECIFIED.,.F.,.F.,(9,7,7,7,7
    ,7,7,7,7,9),(0.,0.279249420771,0.394242115468,0.434602435269,
    0.499916450015,0.551550171616,0.579157685992,0.633276204948,
    0.841123088931,1.),.UNSPECIFIED.);
#754 = CARTESIAN_POINT('',(1.904218112144,-1.689364786357,3.004707417814
    ));
#755 = CARTESIAN_POINT('',(1.856964233596,-1.742628410725,2.893780729799
    ));
#756 = CARTESIAN_POINT('',(1.806330097205,-1.796271743127,2.784291180624
    ));
#757 = CARTESIAN_POINT('',(1.751823775441,-1.850428070328,2.676234740027
    ));
#758 = CARTESIAN_POINT('',(1.692857649261,-1.905161916938,2.56986529048)
  );
#759 = CARTESIAN_POINT('',(1.62879718363,-1.960468661335,2.465659970387)
  );
#760 = CARTESIAN_POINT('',(1.558740009803,-2.016285828091,2.364450045549
    ));
#761 = CARTESIAN_POINT('',(1.48169370658,-2.072483523918,2.267316893778)
  );
#762 = CARTESIAN_POINT('',(1.360107228967,-2.152186448255,2.138571934101
    ));
#763 = CARTESIAN_POINT('',(1.323151579856,-2.175446512094,2.102077670683
    ));
#764 = CARTESIAN_POINT('',(1.284561480591,-2.198712695499,2.066763188854
    ));
#765 = CARTESIAN_POINT('',(1.244200701805,-2.221953919209,2.032813125552
    ));
#766 = CARTESIAN_POINT('',(1.20194071356,-2.24511413755,2.000474690852)
  );
#767 = CARTESIAN_POINT('',(1.15766267334,-2.268112402856,1.970056036652)
  );
#768 = CARTESIAN_POINT('',(1.111260665688,-2.290843045542,1.94192339312)
  );
#769 = CARTESIAN_POINT('',(1.045583408366,-2.321014415297,1.907572767277
    ));
#770 = CARTESIAN_POINT('',(1.028252682647,-2.328801743408,1.89898436298)
  );
#771 = CARTESIAN_POINT('',(1.010652700745,-2.336531374544,1.890750698957
    ));
#772 = CARTESIAN_POINT('',(0.99278367105,-2.344195878922,1.882891921199)
  );
#773 = CARTESIAN_POINT('',(0.974647577341,-2.351787051351,1.87542899448)
  );
#774 = CARTESIAN_POINT('',(0.956248430172,-2.359295985981,1.868383314106
    ));
#775 = CARTESIAN_POINT('',(0.937592518259,-2.366713151053,1.861776317663
    ));
#776 = CARTESIAN_POINT('',(0.888097056717,-2.385866636333,1.845681215328
    ));
#777 = CARTESIAN_POINT('',(0.856846322379,-2.397441827971,1.836934328975
    ));
#778 = CARTESIAN_POINT('',(0.824986203589,-2.408706277775,1.829482505481
    ));
#779 = CARTESIAN_POINT('',(0.792579157604,-2.419611347059,1.823412906321
    ));
#780 = CARTESIAN_POINT('',(0.759702100308,-2.430109246337,1.818799788464
    ));
#781 = CARTESIAN_POINT('',(0.726448154329,-2.440154762413,1.815698506164
    ));
#782 = CARTESIAN_POINT('',(0.692928397157,-2.449706985469,1.814139512759
    ));
#783 = CARTESIAN_POINT('',(0.632667957212,-2.465864961739,1.814108804367
    ));
#784 = CARTESIAN_POINT('',(0.605970454929,-2.472670827819,1.815058760553
    ));
#785 = CARTESIAN_POINT('',(0.579243846743,-2.479131663767,1.816972663591
    ));
#786 = CARTESIAN_POINT('',(0.552546409357,-2.485236058862,1.819839026639
    ));
#787 = CARTESIAN_POINT('',(0.525932067164,-2.490977517603,1.823636120346
    ));
#788 = CARTESIAN_POINT('',(0.499450507583,-2.496353815006,1.82833364976)
  );
#789 = CARTESIAN_POINT('',(0.473147296397,-2.501366351918,1.833894431233
    ));
#790 = CARTESIAN_POINT('',(0.433117774443,-2.508507460697,1.843688203099
    ));
#791 = CARTESIAN_POINT('',(0.419233363883,-2.510892828096,1.847335352134
    ));
#792 = CARTESIAN_POINT('',(0.405416337725,-2.513176470318,1.851211090715
    ));
#793 = CARTESIAN_POINT('',(0.391671712087,-2.515359436137,1.855308881484
    ));
#794 = CARTESIAN_POINT('',(0.378003942894,-2.517442965293,1.859622075445
    ));
#795 = CARTESIAN_POINT('',(0.364416925874,-2.519428488495,1.86414391196)
  );
#796 = CARTESIAN_POINT('',(0.350913996562,-2.521317627417,1.86886751875)
  );
#797 = CARTESIAN_POINT('',(0.311198654432,-2.526630052999,1.883427350427
    ));
#798 = CARTESIAN_POINT('',(0.285234605082,-2.529784145857,1.893817211783
    ));
#799 = CARTESIAN_POINT('',(0.259624797351,-2.53258803843,1.904904515245)
  );
#800 = CARTESIAN_POINT('',(0.234382369131,-2.535056499927,1.91663929298)
  );
#801 = CARTESIAN_POINT('',(0.209515132157,-2.537205007077,1.928973543196
    ));
#802 = CARTESIAN_POINT('',(0.185026123066,-2.539049247596,1.941862183279
    ));
#803 = CARTESIAN_POINT('',(0.160914154455,-2.540604623658,1.955264002946
    ));
#804 = CARTESIAN_POINT('',(4.599964119533E-02,-2.546806053231,
    2.022444644507));
#805 = CARTESIAN_POINT('',(-3.939024986247E-02,-2.547665915334,
    2.08260519626));
#806 = CARTESIAN_POINT('',(-0.119790138105,-2.54536830929,2.147739175824
    ));
#807 = CARTESIAN_POINT('',(-0.195653110871,-2.540501037745,
    2.216572359459));
#808 = CARTESIAN_POINT('',(-0.267448454413,-2.533546470482,
    2.288130429783));
#809 = CARTESIAN_POINT('',(-0.335610440076,-2.524849564149,
    2.361788856404));
#810 = CARTESIAN_POINT('',(-0.400609049995,-2.514662951833,
    2.437201483691));
#811 = CARTESIAN_POINT('',(-0.510576360819,-2.494325384368,
    2.573266410003));
#812 = CARTESIAN_POINT('',(-0.556557932561,-2.484749809657,
    2.633088213353));
#813 = CARTESIAN_POINT('',(-0.601030579648,-2.47449690516,2.693655906578
    ));
#814 = CARTESIAN_POINT('',(-0.644114801665,-2.463636708873,
    2.754866354136));
#815 = CARTESIAN_POINT('',(-0.685911401583,-2.452226710338,
    2.816636284572));
#816 = CARTESIAN_POINT('',(-0.726508856224,-2.44031508477,2.878898850279
    ));
#817 = CARTESIAN_POINT('',(-0.76598726348,-2.427942411582,2.941601821967
    ));
#818 = CARTESIAN_POINT('',(-0.804418866284,-2.415141877316,
    3.004707417814));
#819 = ORIENTED_EDGE('',*,*,#37,.T.);
#820 = ORIENTED_EDGE('',*,*,#150,.T.);
#821 = ORIENTED_EDGE('',*,*,#822,.T.);
#822 = EDGE_CURVE('',#131,#823,#825,.T.);
#823 = VERTEX_POINT('',#824);
#824 = CARTESIAN_POINT('',(0.510923765173,2.493783652641,3.004707417814)
  );
#825 = B_SPLINE_CURVE_WITH_KNOTS('',7,(#826,#827,#828,#829,#830,#831,
    #832,#833,#834,#835,#836,#837,#838,#839,#840,#841,#842,#843,#844,
    #845,#846,#847,#848,#849,#850,#851,#852,#853,#854,#855,#856,#857,
    #858,#859,#860,#861,#862,#863,#864,#865,#866,#867,#868,#869,#870,
    #871,#872,#873,#874,#875,#876,#877,#878,#879,#880,#881,#882,#883,
    #884,#885,#886,#887,#888,#889,#890,#891,#892,#893,#894,#895,#896,
    #897,#898,#899,#900,#901,#902,#903,#904,#905),.UNSPECIFIED.,.F.,.F.,
  (8,6,6,6,6,6,6,6,6,6,6,6,6,8),(0.,2.972731010957E-02,
    9.696018874108E-02,0.225491562047,0.354008255902,0.395844525888,
    0.419616769108,0.583395912383,0.745553476567,0.758222739034,
    0.773295591036,0.823990863079,0.941091241853,1.),.UNSPECIFIED.);
#826 = CARTESIAN_POINT('',(-0.804418866284,-2.415141877316,
    3.004707417814));
#827 = CARTESIAN_POINT('',(-0.849450538442,-2.400143037287,
    3.004707417814));
#828 = CARTESIAN_POINT('',(-0.8941559652,-2.384164606529,3.004707417814)
  );
#829 = CARTESIAN_POINT('',(-0.938509529566,-2.367215118836,
    3.004707417814));
#830 = CARTESIAN_POINT('',(-0.98248594627,-2.349303922752,3.004707417814
    ));
#831 = CARTESIAN_POINT('',(-1.026060261764,-2.330441181566,
    3.004707417814));
#832 = CARTESIAN_POINT('',(-1.069207854225,-2.310637873314,
    3.004707417814));
#833 = CARTESIAN_POINT('',(-1.208469306895,-2.243017001194,
    3.004707417814));
#834 = CARTESIAN_POINT('',(-1.302728661415,-2.191376638776,
    3.004707417814));
#835 = CARTESIAN_POINT('',(-1.394399727757,-2.135122175936,
    3.004707417814));
#836 = CARTESIAN_POINT('',(-1.483212416943,-2.074410333958,
    3.004707417814));
#837 = CARTESIAN_POINT('',(-1.568909544234,-2.00941692581,3.004707417814
    ));
#838 = CARTESIAN_POINT('',(-1.651247053004,-1.940336698971,
    3.004707417814));
#839 = CARTESIAN_POINT('',(-1.880537902906,-1.727915459496,
    3.004707417814));
#840 = CARTESIAN_POINT('',(-2.017993231901,-1.574261418972,
    3.004707417814));
#841 = CARTESIAN_POINT('',(-2.140701155408,-1.407940845295,
    3.004707417814));
#842 = CARTESIAN_POINT('',(-2.247300402047,-1.230666254418,
    3.004707417814));
#843 = CARTESIAN_POINT('',(-2.336671340986,-1.044299899432,
    3.004707417814));
#844 = CARTESIAN_POINT('',(-2.407939907253,-0.850846787351,
    3.004707417814));
#845 = CARTESIAN_POINT('',(-2.51313730636,-0.454143273227,3.004707417814
    ));
#846 = CARTESIAN_POINT('',(-2.547090256967,-0.25081912231,3.004707417814
    ));
#847 = CARTESIAN_POINT('',(-2.561812364814,-4.468095572333E-02,
    3.004707417814));
#848 = CARTESIAN_POINT('',(-2.557069372549,0.162097318538,3.004707417814
    ));
#849 = CARTESIAN_POINT('',(-2.532910932275,0.367344096828,3.004707417814
    ));
#850 = CARTESIAN_POINT('',(-2.489670658438,0.568898085111,3.004707417814
    ));
#851 = CARTESIAN_POINT('',(-2.407972176966,0.828330793683,3.004707417814
    ));
#852 = CARTESIAN_POINT('',(-2.385957628876,0.891429690818,3.004707417814
    ));
#853 = CARTESIAN_POINT('',(-2.362015177259,0.953842583461,3.004707417814
    ));
#854 = CARTESIAN_POINT('',(-2.336170663033,1.015498894514,3.004707417814
    ));
#855 = CARTESIAN_POINT('',(-2.308453110925,1.076329380483,3.004707417814
    ));
#856 = CARTESIAN_POINT('',(-2.278894729469,1.136266131481,3.004707417814
    ));
#857 = CARTESIAN_POINT('',(-2.229709333674,1.228754217231,3.004707417814
    ));
#858 = CARTESIAN_POINT('',(-2.211304799817,1.261955856405,3.004707417814
    ));
#859 = CARTESIAN_POINT('',(-2.192323788717,1.294835305854,3.004707417814
    ));
#860 = CARTESIAN_POINT('',(-2.172773088013,1.327380567879,3.004707417814
    ));
#861 = CARTESIAN_POINT('',(-2.152659793704,1.359579829975,3.004707417814
    ));
#862 = CARTESIAN_POINT('',(-2.131991310145,1.391421464837,3.004707417814
    ));
#863 = CARTESIAN_POINT('',(-1.964607748793,1.639724632725,3.004707417814
    ));
#864 = CARTESIAN_POINT('',(-1.792379165357,1.839147249973,3.004707417814
    ));
#865 = CARTESIAN_POINT('',(-1.596699115213,2.017195529771,3.004707417814
    ));
#866 = CARTESIAN_POINT('',(-1.380811918381,2.170687146327,3.004707417814
    ));
#867 = CARTESIAN_POINT('',(-1.148370130322,2.297025989404,3.004707417814
    ));
#868 = CARTESIAN_POINT('',(-0.903444177758,2.394195178653,3.004707417814
    ));
#869 = CARTESIAN_POINT('',(-0.400320006254,2.527207635177,3.004707417814
    ));
#870 = CARTESIAN_POINT('',(-0.14204005703,2.563711288286,3.004707417814)
  );
#871 = CARTESIAN_POINT('',(0.11977732144,2.569321754175,3.004707417814)
  );
#872 = CARTESIAN_POINT('',(0.38073153508,2.543777881506,3.004707417814)
  );
#873 = CARTESIAN_POINT('',(0.636493231725,2.487502847676,3.004707417814)
  );
#874 = CARTESIAN_POINT('',(0.882793962437,2.401605296318,3.004707417814)
  );
#875 = CARTESIAN_POINT('',(1.133700687164,2.279283206487,3.004707417814)
  );
#876 = CARTESIAN_POINT('',(1.151801089457,2.270250263274,3.004707417814)
  );
#877 = CARTESIAN_POINT('',(1.169817435899,2.261049667045,3.004707417814)
  );
#878 = CARTESIAN_POINT('',(1.187747864005,2.251682358085,3.004707417814)
  );
#879 = CARTESIAN_POINT('',(1.205590524723,2.242149302392,3.004707417814)
  );
#880 = CARTESIAN_POINT('',(1.223343582439,2.23245149168,3.004707417814)
  );
#881 = CARTESIAN_POINT('',(1.262017580446,2.210857479994,3.004707417814)
  );
#882 = CARTESIAN_POINT('',(1.282900541337,2.198893256878,3.004707417814)
  );
#883 = CARTESIAN_POINT('',(1.303651028745,2.186698987623,3.004707417814)
  );
#884 = CARTESIAN_POINT('',(1.32426600378,2.174276435605,3.004707417814)
  );
#885 = CARTESIAN_POINT('',(1.344742457551,2.161627413986,3.004707417814)
  );
#886 = CARTESIAN_POINT('',(1.365077411173,2.148753785718,3.004707417814)
  );
#887 = CARTESIAN_POINT('',(1.453175643036,2.09160995244,3.004707417814)
  );
#888 = CARTESIAN_POINT('',(1.5194496849,2.045043052228,3.004707417814));
#889 = CARTESIAN_POINT('',(1.583977316161,1.996029924076,3.004707417814)
  );
#890 = CARTESIAN_POINT('',(1.646650533363,1.94464948458,3.004707417814)
  );
#891 = CARTESIAN_POINT('',(1.707366054794,1.890986405754,3.004707417814)
  );
#892 = CARTESIAN_POINT('',(1.766025320485,1.835131115032,3.004707417814)
  );
#893 = CARTESIAN_POINT('',(1.953064325589,1.643318762056,3.004707417814)
  );
#894 = CARTESIAN_POINT('',(2.072141150483,1.49825481758,3.004707417814)
  );
#895 = CARTESIAN_POINT('',(2.178578463225,1.343194276652,3.004707417814)
  );
#896 = CARTESIAN_POINT('',(2.271394252816,1.179467241603,3.004707417814)
  );
#897 = CARTESIAN_POINT('',(2.349778015384,1.008503594785,3.004707417814)
  );
#898 = CARTESIAN_POINT('',(2.413092957153,0.831828885015,3.004707417814)
  );
#899 = CARTESIAN_POINT('',(2.484970029474,0.560152255292,3.004707417814)
  );
#900 = CARTESIAN_POINT('',(2.505107201448,0.468186626028,3.004707417814)
  );
#901 = CARTESIAN_POINT('',(2.521270980314,0.375387301637,3.004707417814)
  );
#902 = CARTESIAN_POINT('',(2.53342088251,0.281960306219,3.004707417814)
  );
#903 = CARTESIAN_POINT('',(2.541529879071,0.188113479169,3.004707417814)
  );
#904 = CARTESIAN_POINT('',(2.545584412272,9.405634780327E-02,
    3.004707417814));
#905 = CARTESIAN_POINT('',(2.545584412272,-4.440892098501E-16,
    3.004707417814));
#906 = ORIENTED_EDGE('',*,*,#907,.T.);
#907 = EDGE_CURVE('',#823,#248,#908,.T.);
#908 = B_SPLINE_CURVE_WITH_KNOTS('',8,(#909,#910,#911,#912,#913,#914,
    #915,#916,#917,#918,#919,#920,#921,#922,#923,#924,#925,#926,#927,
    #928,#929,#930,#931,#932,#933,#934,#935,#936,#937,#938,#939,#940,
    #941,#942,#943,#944,#945,#946,#947,#948,#949,#950,#951,#952,#953,
    #954,#955,#956,#957,#958,#959,#960,#961,#962,#963,#964,#965,#966,
    #967,#968,#969,#970,#971,#972,#973,#974,#975,#976,#977,#978,#979,
    #980,#981,#982,#983,#984,#985,#986,#987),.UNSPECIFIED.,.F.,.F.,(9,7,
    7,7,7,7,7,7,7,7,7,9),(0.,0.186565312969,0.351924939705,
    0.494391303941,0.556118616304,0.576182808206,0.609913578689,
    0.636272244194,0.680439690893,0.730448198776,0.877053260031,1.),
  .UNSPECIFIED.);
#909 = CARTESIAN_POINT('',(-0.658845726812,2.458845726812,5.414122253442
    ));
#910 = CARTESIAN_POINT('',(-0.595863451919,2.475721776507,5.254405604266
    ));
#911 = CARTESIAN_POINT('',(-0.531438583153,2.491008100651,5.094983218447
    ));
#912 = CARTESIAN_POINT('',(-0.4655014815,2.504619924988,4.935885366466)
  );
#913 = CARTESIAN_POINT('',(-0.397971539733,2.516455347122,4.777154638665
    ));
#914 = CARTESIAN_POINT('',(-0.328756548117,2.526394648619,4.618846052438
    ));
#915 = CARTESIAN_POINT('',(-0.257747687849,2.534294594343,4.461028440454
    ));
#916 = CARTESIAN_POINT('',(-0.184810152255,2.539977719021,4.30378711991)
  );
#917 = CARTESIAN_POINT('',(-4.325804217545E-02,2.546087340034,
    4.008463657726));
#918 = CARTESIAN_POINT('',(2.489203363195E-02,2.547037326378,
    3.870263533423));
#919 = CARTESIAN_POINT('',(9.481316260462E-02,2.545908638781,
    3.73267865067));
#920 = CARTESIAN_POINT('',(0.166650002972,2.542512012097,3.595798223304)
  );
#921 = CARTESIAN_POINT('',(0.240572916594,2.536610108754,3.459756202747)
  );
#922 = CARTESIAN_POINT('',(0.316782793884,2.527911652699,3.324733360274)
  );
#923 = CARTESIAN_POINT('',(0.395535321833,2.516041731054,3.190968147667)
  );
#924 = CARTESIAN_POINT('',(0.547582210119,2.48702351395,2.944910805305)
  );
#925 = CARTESIAN_POINT('',(0.619986636822,2.470858917416,2.832431144964)
  );
#926 = CARTESIAN_POINT('',(0.694780304906,2.451607715666,2.721346212302)
  );
#927 = CARTESIAN_POINT('',(0.772310806739,2.428801183365,2.611898273229)
  );
#928 = CARTESIAN_POINT('',(0.852894016911,2.401895514108,2.504543191407)
  );
#929 = CARTESIAN_POINT('',(0.936935298809,2.370087470434,2.400076714955)
  );
#930 = CARTESIAN_POINT('',(1.024834037553,2.33245856973,2.299537038876)
  );
#931 = CARTESIAN_POINT('',(1.157716647222,2.267529725615,2.163629507767)
  );
#932 = CARTESIAN_POINT('',(1.198732411407,2.246489813103,2.123677804422)
  );
#933 = CARTESIAN_POINT('',(1.240678992512,2.223888501216,2.084987265985)
  );
#934 = CARTESIAN_POINT('',(1.283612311349,2.199566072263,2.047765486219)
  );
#935 = CARTESIAN_POINT('',(1.327558243551,2.173353843058,2.012298080226)
  );
#936 = CARTESIAN_POINT('',(1.372511835437,2.145075579354,1.97894742386)
  );
#937 = CARTESIAN_POINT('',(1.418436519882,2.114548910265,1.948151393147)
  );
#938 = CARTESIAN_POINT('',(1.480484181945,2.070872534834,1.911408819885)
  );
#939 = CARTESIAN_POINT('',(1.495795599588,2.059904343054,1.90272236816)
  );
#940 = CARTESIAN_POINT('',(1.511192964168,2.048677572094,1.894381180917)
  );
#941 = CARTESIAN_POINT('',(1.526670216372,2.0371884556,1.886404909498));
#942 = CARTESIAN_POINT('',(1.542219797895,2.025434296611,1.878814064431)
  );
#943 = CARTESIAN_POINT('',(1.557832590837,2.013413708049,1.871629655672)
  );
#944 = CARTESIAN_POINT('',(1.573497857094,2.001126853203,1.864872832848)
  );
#945 = CARTESIAN_POINT('',(1.615606063498,1.967475383013,1.847959360421)
  );
#946 = CARTESIAN_POINT('',(1.642131463804,1.945620552076,1.838618221683)
  );
#947 = CARTESIAN_POINT('',(1.668708428594,1.923029705917,1.830645984421)
  );
#948 = CARTESIAN_POINT('',(1.695257512198,1.899733162611,1.824140903823)
  );
#949 = CARTESIAN_POINT('',(1.721691475396,1.875775940179,1.819187422293)
  );
#950 = CARTESIAN_POINT('',(1.747915987468,1.851220650945,1.815848976616)
  );
#951 = CARTESIAN_POINT('',(1.773830328245,1.826150395912,1.814160805128)
  );
#952 = CARTESIAN_POINT('',(1.81925313094,1.780761485386,1.814093020791)
  );
#953 = CARTESIAN_POINT('',(1.838929805754,1.760595908341,1.815070825252)
  );
#954 = CARTESIAN_POINT('',(1.858308698545,1.740224039708,1.817056776935)
  );
#955 = CARTESIAN_POINT('',(1.877348156777,1.719693757003,1.820038425883)
  );
#956 = CARTESIAN_POINT('',(1.896013593698,1.699051458126,1.823992149794)
  );
#957 = CARTESIAN_POINT('',(1.914276790599,1.67834181597,1.828885040304)
  );
#958 = CARTESIAN_POINT('',(1.932115199075,1.65760753301,1.834676789271)
  );
#959 = CARTESIAN_POINT('',(1.978660627014,1.602172601397,1.85245579662)
  );
#960 = CARTESIAN_POINT('',(2.006563839208,1.567505452054,1.865983670918)
  );
#961 = CARTESIAN_POINT('',(2.033166707413,1.533045600909,1.881697636798)
  );
#962 = CARTESIAN_POINT('',(2.058464565881,1.498913032091,1.899367057498)
  );
#963 = CARTESIAN_POINT('',(2.082485315604,1.465194325257,1.918762971721)
  );
#964 = CARTESIAN_POINT('',(2.105277195875,1.431946053487,1.939675754718)
  );
#965 = CARTESIAN_POINT('',(2.126901267396,1.399197014635,1.96192568938)
  );
#966 = CARTESIAN_POINT('',(2.170670648201,1.330436877948,2.011907201144)
  );
#967 = CARTESIAN_POINT('',(2.192497754421,1.294581264399,2.039964215802)
  );
#968 = CARTESIAN_POINT('',(2.213015932332,1.259381567012,2.069327254754)
  );
#969 = CARTESIAN_POINT('',(2.23232207406,1.224830972197,2.099816160928)
  );
#970 = CARTESIAN_POINT('',(2.250505135183,1.190916160442,2.131279662192)
  );
#971 = CARTESIAN_POINT('',(2.267647312816,1.157616725505,2.163594176799)
  );
#972 = CARTESIAN_POINT('',(2.283825223701,1.124904593596,2.196662618847)
  );
#973 = CARTESIAN_POINT('',(2.343923141887,0.998459735324,2.329356499021)
  );
#974 = CARTESIAN_POINT('',(2.380962974525,0.909132510373,2.433931283646)
  );
#975 = CARTESIAN_POINT('',(2.412124159449,0.823753456399,2.542367021751)
  );
#976 = CARTESIAN_POINT('',(2.438337276042,0.741902298753,2.653643103844)
  );
#977 = CARTESIAN_POINT('',(2.460415219329,0.663157605366,2.766976604057)
  );
#978 = CARTESIAN_POINT('',(2.478904509206,0.587196463298,2.881920308433)
  );
#979 = CARTESIAN_POINT('',(2.49427532545,0.513667740793,2.998236120957)
  );
#980 = CARTESIAN_POINT('',(2.517449153618,0.382298122525,3.214627701157)
  );
#981 = CARTESIAN_POINT('',(2.526057870072,0.323929553104,3.31414740709)
  );
#982 = CARTESIAN_POINT('',(2.532911211624,0.26696958935,3.414360651493)
  );
#983 = CARTESIAN_POINT('',(2.538169926854,0.211307817223,3.515166765289)
  );
#984 = CARTESIAN_POINT('',(2.54196434392,0.15685405784,3.616485449921));
#985 = CARTESIAN_POINT('',(2.544404313247,0.103530302884,3.71825302118)
  );
#986 = CARTESIAN_POINT('',(2.545584412272,5.126647311579E-02,
    3.820420482667));
#987 = CARTESIAN_POINT('',(2.545584412272,-6.560377354037E-16,
    3.922953428899));
#988 = CYLINDRICAL_SURFACE('',#989,2.545584412272);
#989 = AXIS2_PLACEMENT_3D('',#990,#991,#992);
#990 = CARTESIAN_POINT('',(0.,0.,-8.485281374239));
#991 = DIRECTION('',(0.,0.,1.));
#992 = DIRECTION('',(1.,0.,-0.));
#993 = ADVANCED_FACE('',(#994),#1017,.T.);
#994 = FACE_BOUND('',#995,.T.);
#995 = EDGE_LOOP('',(#996,#1003,#1010,#1015,#1016));
#996 = ORIENTED_EDGE('',*,*,#997,.F.);
#997 = EDGE_CURVE('',#998,#24,#1000,.T.);
#998 = VERTEX_POINT('',#999);
#999 = CARTESIAN_POINT('',(1.099799245859,-4.104506663674,
    -3.004707417814));
#1000 = B_SPLINE_CURVE_WITH_KNOTS('',1,(#1001,#1002),.UNSPECIFIED.,.F.,
  .F.,(2,2),(0.,7.36),.PIECEWISE_BEZIER_KNOTS.);
#1001 = CARTESIAN_POINT('',(1.099799245859,-4.104506663674,
    -3.004707417814));
#1002 = CARTESIAN_POINT('',(-3.004707417814,-3.004707417814,
    3.004707417814));
#1003 = ORIENTED_EDGE('',*,*,#1004,.T.);
#1004 = EDGE_CURVE('',#998,#1005,#1007,.T.);
#1005 = VERTEX_POINT('',#1006);
#1006 = CARTESIAN_POINT('',(4.104506663674,-1.099799245859,
    3.004707417814));
#1007 = B_SPLINE_CURVE_WITH_KNOTS('',1,(#1008,#1009),.UNSPECIFIED.,.F.,
  .F.,(2,2),(0.,7.36),.PIECEWISE_BEZIER_KNOTS.);
#1008 = CARTESIAN_POINT('',(1.099799245859,-4.104506663674,
    -3.004707417814));
#1009 = CARTESIAN_POINT('',(4.104506663674,-1.099799245859,
    3.004707417814));
#1010 = ORIENTED_EDGE('',*,*,#1011,.F.);
#1011 = EDGE_CURVE('',#736,#1005,#1012,.T.);
#1012 = B_SPLINE_CURVE_WITH_KNOTS('',1,(#1013,#1014),.UNSPECIFIED.,.F.,
  .F.,(2,2),(0.,7.36),.PIECEWISE_BEZIER_KNOTS.);
#1013 = CARTESIAN_POINT('',(-3.004707417814,-3.004707417814,
    3.004707417814));
#1014 = CARTESIAN_POINT('',(4.104506663674,-1.099799245859,
    3.004707417814));
#1015 = ORIENTED_EDGE('',*,*,#752,.T.);
#1016 = ORIENTED_EDGE('',*,*,#30,.F.);
#1017 = B_SPLINE_SURFACE_WITH_KNOTS('',1,1,(
    (#1018,#1019)
    ,(#1020,#1021
    )),.UNSPECIFIED.,.F.,.F.,.F.,(2,2),(2,2),(-3.68,3.68),(
    -4.249297981236,2.124648990618),.PIECEWISE_BEZIER_KNOTS.);
#1018 = CARTESIAN_POINT('',(-2.454807794884,-5.056960749651,
    -3.004707417814));
#1019 = CARTESIAN_POINT('',(-3.004707417814,-3.004707417814,
    3.004707417814));
#1020 = CARTESIAN_POINT('',(4.654406286603,-3.152052577696,
    -3.004707417814));
#1021 = CARTESIAN_POINT('',(4.104506663674,-1.099799245859,
    3.004707417814));
#1022 = ADVANCED_FACE('',(#1023),#1032,.T.);
#1023 = FACE_BOUND('',#1024,.T.);
#1024 = EDGE_LOOP('',(#1025,#1026,#1027));
#1025 = ORIENTED_EDGE('',*,*,#128,.T.);
#1026 = ORIENTED_EDGE('',*,*,#822,.T.);
#1027 = ORIENTED_EDGE('',*,*,#1028,.T.);
#1028 = EDGE_CURVE('',#823,#129,#1029,.T.);
#1029 = B_SPLINE_CURVE_WITH_KNOTS('',1,(#1030,#1031),.UNSPECIFIED.,.F.,
  .F.,(2,2),(0.,7.36),.PIECEWISE_BEZIER_KNOTS.);
#1030 = CARTESIAN_POINT('',(4.104506663674,-1.099799245859,
    3.004707417814));
#1031 = CARTESIAN_POINT('',(-1.099799245859,4.104506663674,
    3.004707417814));
#1032 = B_SPLINE_SURFACE_WITH_KNOTS('',1,1,(
    (#1033,#1034)
    ,(#1035,#1036
    )),.UNSPECIFIED.,.F.,.F.,.F.,(2,2),(2,2),(-3.68,3.68),(
    -2.124648990618,4.249297981236),.PIECEWISE_BEZIER_KNOTS.);
#1033 = CARTESIAN_POINT('',(-3.004707417814,-3.004707417814,
    3.004707417814));
#1034 = CARTESIAN_POINT('',(-4.654406286603,3.152052577696,
    3.004707417814));
#1035 = CARTESIAN_POINT('',(4.104506663674,-1.099799245859,
    3.004707417814));
#1036 = CARTESIAN_POINT('',(2.454807794884,5.056960749651,3.004707417814
    ));
#1037 = ADVANCED_FACE('',(#1038),#1053,.T.);
#1038 = FACE_BOUND('',#1039,.T.);
#1039 = EDGE_LOOP('',(#1040,#1041,#1046,#1047,#1052));
#1040 = ORIENTED_EDGE('',*,*,#144,.F.);
#1041 = ORIENTED_EDGE('',*,*,#1042,.T.);
#1042 = EDGE_CURVE('',#138,#461,#1043,.T.);
#1043 = B_SPLINE_CURVE_WITH_KNOTS('',1,(#1044,#1045),.UNSPECIFIED.,.F.,
  .F.,(2,2),(0.,7.36),.PIECEWISE_BEZIER_KNOTS.);
#1044 = CARTESIAN_POINT('',(-4.104506663674,1.099799245859,
    -3.004707417814));
#1045 = CARTESIAN_POINT('',(1.099799245859,-4.104506663674,
    -3.004707417814));
#1046 = ORIENTED_EDGE('',*,*,#521,.F.);
#1047 = ORIENTED_EDGE('',*,*,#1048,.T.);
#1048 = EDGE_CURVE('',#522,#998,#1049,.T.);
#1049 = B_SPLINE_CURVE_WITH_KNOTS('',1,(#1050,#1051),.UNSPECIFIED.,.F.,
  .F.,(2,2),(0.,7.36),.PIECEWISE_BEZIER_KNOTS.);
#1050 = CARTESIAN_POINT('',(-4.104506663674,1.099799245859,
    -3.004707417814));
#1051 = CARTESIAN_POINT('',(1.099799245859,-4.104506663674,
    -3.004707417814));
#1052 = ORIENTED_EDGE('',*,*,#997,.T.);
#1053 = B_SPLINE_SURFACE_WITH_KNOTS('',1,1,(
    (#1054,#1055)
    ,(#1056,#1057
    )),.UNSPECIFIED.,.F.,.F.,.F.,(2,2),(2,2),(-3.68,3.68),(
    -4.249297981236,2.124648990618),.PIECEWISE_BEZIER_KNOTS.);
#1054 = CARTESIAN_POINT('',(0.54989962293,-2.052253331837,
    -6.009414835628));
#1055 = CARTESIAN_POINT('',(-4.104506663674,1.099799245859,
    -3.004707417814));
#1056 = CARTESIAN_POINT('',(1.649698868789,-6.15675999551,
    -9.220768571595E-16));
#1057 = CARTESIAN_POINT('',(-3.004707417814,-3.004707417814,
    3.004707417814));
#1058 = ADVANCED_FACE('',(#1059),#1080,.T.);
#1059 = FACE_BOUND('',#1060,.T.);
#1060 = EDGE_LOOP('',(#1061,#1066,#1067,#1074,#1079));
#1061 = ORIENTED_EDGE('',*,*,#1062,.F.);
#1062 = EDGE_CURVE('',#138,#391,#1063,.T.);
#1063 = B_SPLINE_CURVE_WITH_KNOTS('',1,(#1064,#1065),.UNSPECIFIED.,.F.,
  .F.,(2,2),(0.,7.36),.PIECEWISE_BEZIER_KNOTS.);
#1064 = CARTESIAN_POINT('',(-4.104506663674,1.099799245859,
    -3.004707417814));
#1065 = CARTESIAN_POINT('',(3.004707417814,3.004707417814,
    -3.004707417814));
#1066 = ORIENTED_EDGE('',*,*,#137,.F.);
#1067 = ORIENTED_EDGE('',*,*,#1068,.T.);
#1068 = EDGE_CURVE('',#129,#1069,#1071,.T.);
#1069 = VERTEX_POINT('',#1070);
#1070 = CARTESIAN_POINT('',(3.004707417814,3.004707417814,
    -3.004707417814));
#1071 = B_SPLINE_CURVE_WITH_KNOTS('',1,(#1072,#1073),.UNSPECIFIED.,.F.,
  .F.,(2,2),(0.,7.36),.PIECEWISE_BEZIER_KNOTS.);
#1072 = CARTESIAN_POINT('',(-1.099799245859,4.104506663674,
    3.004707417814));
#1073 = CARTESIAN_POINT('',(3.004707417814,3.004707417814,
    -3.004707417814));
#1074 = ORIENTED_EDGE('',*,*,#1075,.F.);
#1075 = EDGE_CURVE('',#364,#1069,#1076,.T.);
#1076 = B_SPLINE_CURVE_WITH_KNOTS('',1,(#1077,#1078),.UNSPECIFIED.,.F.,
  .F.,(2,2),(0.,7.36),.PIECEWISE_BEZIER_KNOTS.);
#1077 = CARTESIAN_POINT('',(-4.104506663674,1.099799245859,
    -3.004707417814));
#1078 = CARTESIAN_POINT('',(3.004707417814,3.004707417814,
    -3.004707417814));
#1079 = ORIENTED_EDGE('',*,*,#390,.T.);
#1080 = B_SPLINE_SURFACE_WITH_KNOTS('',1,1,(
    (#1081,#1082)
    ,(#1083,#1084
    )),.UNSPECIFIED.,.F.,.F.,.F.,(2,2),(2,2),(-3.68,3.68),(
    -2.124648990618,4.249297981236),.PIECEWISE_BEZIER_KNOTS.);
#1081 = CARTESIAN_POINT('',(3.004707417814,3.004707417814,
    -3.004707417814));
#1082 = CARTESIAN_POINT('',(2.454807794884,5.056960749651,3.004707417814
    ));
#1083 = CARTESIAN_POINT('',(-4.104506663674,1.099799245859,
    -3.004707417814));
#1084 = CARTESIAN_POINT('',(-4.654406286603,3.152052577696,
    3.004707417814));
#1085 = ADVANCED_FACE('',(#1086),#1096,.T.);
#1086 = FACE_BOUND('',#1087,.T.);
#1087 = EDGE_LOOP('',(#1088,#1089,#1090,#1095));
#1088 = ORIENTED_EDGE('',*,*,#735,.T.);
#1089 = ORIENTED_EDGE('',*,*,#1011,.T.);
#1090 = ORIENTED_EDGE('',*,*,#1091,.T.);
#1091 = EDGE_CURVE('',#1005,#248,#1092,.T.);
#1092 = B_SPLINE_CURVE_WITH_KNOTS('',1,(#1093,#1094),.UNSPECIFIED.,.F.,
  .F.,(2,2),(0.,7.36),.PIECEWISE_BEZIER_KNOTS.);
#1093 = CARTESIAN_POINT('',(4.104506663674,-1.099799245859,
    3.004707417814));
#1094 = CARTESIAN_POINT('',(-1.099799245859,4.104506663674,
    3.004707417814));
#1095 = ORIENTED_EDGE('',*,*,#247,.T.);
#1096 = B_SPLINE_SURFACE_WITH_KNOTS('',1,1,(
    (#1097,#1098)
    ,(#1099,#1100
    )),.UNSPECIFIED.,.F.,.F.,.F.,(2,2),(2,2),(-3.68,3.68),(
    -2.124648990618,4.249297981236),.PIECEWISE_BEZIER_KNOTS.);
#1097 = CARTESIAN_POINT('',(-3.004707417814,-3.004707417814,
    3.004707417814));
#1098 = CARTESIAN_POINT('',(-4.654406286603,3.152052577696,
    3.004707417814));
#1099 = CARTESIAN_POINT('',(4.104506663674,-1.099799245859,
    3.004707417814));
#1100 = CARTESIAN_POINT('',(2.454807794884,5.056960749651,3.004707417814
    ));
#1101 = ADVANCED_FACE('',(#1102),#1113,.T.);
#1102 = FACE_BOUND('',#1103,.T.);
#1103 = EDGE_LOOP('',(#1104,#1105,#1106,#1107,#1108));
#1104 = ORIENTED_EDGE('',*,*,#1068,.F.);
#1105 = ORIENTED_EDGE('',*,*,#1028,.F.);
#1106 = ORIENTED_EDGE('',*,*,#907,.T.);
#1107 = ORIENTED_EDGE('',*,*,#1091,.F.);
#1108 = ORIENTED_EDGE('',*,*,#1109,.T.);
#1109 = EDGE_CURVE('',#1005,#1069,#1110,.T.);
#1110 = B_SPLINE_CURVE_WITH_KNOTS('',1,(#1111,#1112),.UNSPECIFIED.,.F.,
  .F.,(2,2),(0.,7.36),.PIECEWISE_BEZIER_KNOTS.);
#1111 = CARTESIAN_POINT('',(4.104506663674,-1.099799245859,
    3.004707417814));
#1112 = CARTESIAN_POINT('',(3.004707417814,3.004707417814,
    -3.004707417814));
#1113 = B_SPLINE_SURFACE_WITH_KNOTS('',1,1,(
    (#1114,#1115)
    ,(#1116,#1117
    )),.UNSPECIFIED.,.F.,.F.,.F.,(2,2),(2,2),(-3.68,3.68),(
    -2.124648990618,4.249297981236),.PIECEWISE_BEZIER_KNOTS.);
#1114 = CARTESIAN_POINT('',(4.104506663674,-1.099799245859,
    3.004707417814));
#1115 = CARTESIAN_POINT('',(-0.54989962293,2.052253331837,6.009414835628
    ));
#1116 = CARTESIAN_POINT('',(3.004707417814,3.004707417814,
    -3.004707417814));
#1117 = CARTESIAN_POINT('',(-1.649698868789,6.15675999551,
    -3.480240239285E-17));
#1118 = ADVANCED_FACE('',(#1119),#1135,.T.);
#1119 = FACE_BOUND('',#1120,.T.);
#1120 = EDGE_LOOP('',(#1121,#1122,#1123,#1128,#1129,#1130));
#1121 = ORIENTED_EDGE('',*,*,#1109,.F.);
#1122 = ORIENTED_EDGE('',*,*,#1004,.F.);
#1123 = ORIENTED_EDGE('',*,*,#1124,.F.);
#1124 = EDGE_CURVE('',#606,#998,#1125,.T.);
#1125 = B_SPLINE_CURVE_WITH_KNOTS('',1,(#1126,#1127),.UNSPECIFIED.,.F.,
  .F.,(2,2),(0.,7.36),.PIECEWISE_BEZIER_KNOTS.);
#1126 = CARTESIAN_POINT('',(3.004707417814,3.004707417814,
    -3.004707417814));
#1127 = CARTESIAN_POINT('',(1.099799245859,-4.104506663674,
    -3.004707417814));
#1128 = ORIENTED_EDGE('',*,*,#666,.T.);
#1129 = ORIENTED_EDGE('',*,*,#342,.T.);
#1130 = ORIENTED_EDGE('',*,*,#1131,.F.);
#1131 = EDGE_CURVE('',#1069,#343,#1132,.T.);
#1132 = B_SPLINE_CURVE_WITH_KNOTS('',1,(#1133,#1134),.UNSPECIFIED.,.F.,
  .F.,(2,2),(0.,7.36),.PIECEWISE_BEZIER_KNOTS.);
#1133 = CARTESIAN_POINT('',(3.004707417814,3.004707417814,
    -3.004707417814));
#1134 = CARTESIAN_POINT('',(1.099799245859,-4.104506663674,
    -3.004707417814));
#1135 = B_SPLINE_SURFACE_WITH_KNOTS('',1,1,(
    (#1136,#1137)
    ,(#1138,#1139
    )),.UNSPECIFIED.,.F.,.F.,.F.,(2,2),(2,2),(-3.68,3.68),(
    -4.249297981236,2.124648990618),.PIECEWISE_BEZIER_KNOTS.);
#1136 = CARTESIAN_POINT('',(1.649698868789,-6.15675999551,
    3.480240239285E-17));
#1137 = CARTESIAN_POINT('',(4.104506663674,-1.099799245859,
    3.004707417814));
#1138 = CARTESIAN_POINT('',(0.54989962293,-2.052253331837,
    -6.009414835628));
#1139 = CARTESIAN_POINT('',(3.004707417814,3.004707417814,
    -3.004707417814));
#1140 = ADVANCED_FACE('',(#1141),#1146,.T.);
#1141 = FACE_BOUND('',#1142,.T.);
#1142 = EDGE_LOOP('',(#1143,#1144,#1145));
#1143 = ORIENTED_EDGE('',*,*,#605,.T.);
#1144 = ORIENTED_EDGE('',*,*,#1124,.T.);
#1145 = ORIENTED_EDGE('',*,*,#1048,.F.);
#1146 = B_SPLINE_SURFACE_WITH_KNOTS('',1,1,(
    (#1147,#1148)
    ,(#1149,#1150
    )),.UNSPECIFIED.,.F.,.F.,.F.,(2,2),(2,2),(-3.68,3.68),(
    -4.249297981236,2.124648990618),.PIECEWISE_BEZIER_KNOTS.);
#1147 = CARTESIAN_POINT('',(4.654406286603,-3.152052577696,
    -3.004707417814));
#1148 = CARTESIAN_POINT('',(3.004707417814,3.004707417814,
    -3.004707417814));
#1149 = CARTESIAN_POINT('',(-2.454807794884,-5.056960749651,
    -3.004707417814));
#1150 = CARTESIAN_POINT('',(-4.104506663674,1.099799245859,
    -3.004707417814));
#1151 = ADVANCED_FACE('',(#1152),#1157,.T.);
#1152 = FACE_BOUND('',#1153,.T.);
#1153 = EDGE_LOOP('',(#1154,#1155,#1156));
#1154 = ORIENTED_EDGE('',*,*,#1062,.T.);
#1155 = ORIENTED_EDGE('',*,*,#460,.T.);
#1156 = ORIENTED_EDGE('',*,*,#1042,.F.);
#1157 = B_SPLINE_SURFACE_WITH_KNOTS('',1,1,(
    (#1158,#1159)
    ,(#1160,#1161
    )),.UNSPECIFIED.,.F.,.F.,.F.,(2,2),(2,2),(-3.68,3.68),(
    -4.249297981236,2.124648990618),.PIECEWISE_BEZIER_KNOTS.);
#1158 = CARTESIAN_POINT('',(4.654406286603,-3.152052577696,
    -3.004707417814));
#1159 = CARTESIAN_POINT('',(3.004707417814,3.004707417814,
    -3.004707417814));
#1160 = CARTESIAN_POINT('',(-2.454807794884,-5.056960749651,
    -3.004707417814));
#1161 = CARTESIAN_POINT('',(-4.104506663674,1.099799245859,
    -3.004707417814));
#1162 = ADVANCED_FACE('',(#1163),#1168,.T.);
#1163 = FACE_BOUND('',#1164,.T.);
#1164 = EDGE_LOOP('',(#1165,#1166,#1167));
#1165 = ORIENTED_EDGE('',*,*,#1075,.T.);
#1166 = ORIENTED_EDGE('',*,*,#1131,.T.);
#1167 = ORIENTED_EDGE('',*,*,#363,.T.);
#1168 = B_SPLINE_SURFACE_WITH_KNOTS('',1,1,(
    (#1169,#1170)
    ,(#1171,#1172
    )),.UNSPECIFIED.,.F.,.F.,.F.,(2,2),(2,2),(-3.68,3.68),(
    -4.249297981236,2.124648990618),.PIECEWISE_BEZIER_KNOTS.);
#1169 = CARTESIAN_POINT('',(4.654406286603,-3.152052577696,
    -3.004707417814));
#1170 = CARTESIAN_POINT('',(3.004707417814,3.004707417814,
    -3.004707417814));
#1171 = CARTESIAN_POINT('',(-2.454807794884,-5.056960749651,
    -3.004707417814));
#1172 = CARTESIAN_POINT('',(-4.104506663674,1.099799245859,
    -3.004707417814));
#1173 = ( GEOMETRIC_REPRESENTATION_CONTEXT(3) 
GLOBAL_UNCERTAINTY_ASSIGNED_CONTEXT((#1177)) 
GLOBAL_UNIT_ASSIGNED_CONTEXT((#1174,#1175,#1176)) REPRESENTATION_CONTEXT
('Context #1','3D Context with UNIT and UNCERTAINTY') );
#1174 = ( LENGTH_UNIT() NAMED_UNIT(*) SI_UNIT(.MILLI.,.METRE.) );
#1175 = ( NAMED_UNIT(*) PLANE_ANGLE_UNIT() SI_UNIT($,.RADIAN.) );
#1176 = ( NAMED_UNIT(*) SI_UNIT($,.STERADIAN.) SOLID_ANGLE_UNIT() );
#1177 = UNCERTAINTY_MEASURE_WITH_UNIT(LENGTH_MEASURE(2.E-06),#1174,
  'distance_accuracy_value','confusion accuracy');
#1178 = PRODUCT_RELATED_PRODUCT_CATEGORY('part',$,(#7));
ENDSEC;
END-ISO-10303-21;
