ISO-10303-21;
HEADER;
FILE_DESCRIPTION(('FreeCAD Model'),'2;1');
FILE_NAME('Open CASCADE Shape Model','2026-07-28T22:26:06',('FreeCAD'),(
    'FreeCAD'),'Open CASCADE STEP processor 7.8','FreeCAD','Unknown');
FILE_SCHEMA(('AUTOMOTIVE_DESIGN { 1 0 10303 214 1 1 1 1 }'));
ENDSEC;
DATA;
#1 = APPLICATION_PROTOCOL_DEFINITION('international standard',
  'automotive_design',2000,#2);
#2 = APPLICATION_CONTEXT(
  'core data for automotive mechanical design processes');
#3 = SHAPE_DEFINITION_REPRESENTATION(#4,#10);
#4 = PRODUCT_DEFINITION_SHAPE('','',#5);
#5 = PRODUCT_DEFINITION('design','',#6,#9);
#6 = PRODUCT_DEFINITION_FORMATION('','',#7);
#7 = PRODUCT('Open CASCADE STEP translator 7.8 7',
  'Open CASCADE STEP translator 7.8 7','',(#8));
#8 = PRODUCT_CONTEXT('',#2,'mechanical');
#9 = PRODUCT_DEFINITION_CONTEXT('part definition',#2,'design');
#10 = ADVANCED_BREP_SHAPE_REPRESENTATION('',(#11,#15),#183);
#11 = AXIS2_PLACEMENT_3D('',#12,#13,#14);
#12 = CARTESIAN_POINT('',(0.,0.,0.));
#13 = DIRECTION('',(0.,0.,1.));
#14 = DIRECTION('',(1.,0.,-0.));
#15 = MANIFOLD_SOLID_BREP('',#16);
#16 = CLOSED_SHELL('',(#17,#60,#88,#117,#132,#155,#171));
#17 = ADVANCED_FACE('',(#18),#55,.F.);
#18 = FACE_BOUND('',#19,.F.);
#19 = EDGE_LOOP('',(#20,#29,#36,#43,#50));
#20 = ORIENTED_EDGE('',*,*,#21,.F.);
#21 = EDGE_CURVE('',#22,#24,#26,.T.);
#22 = VERTEX_POINT('',#23);
#23 = CARTESIAN_POINT('',(-11.7128129211,-43.7128129211,0.));
#24 = VERTEX_POINT('',#25);
#25 = CARTESIAN_POINT('',(-18.47520861406,-18.47520861406,
    18.475208614068));
#26 = B_SPLINE_CURVE_WITH_KNOTS('',1,(#27,#28),.UNSPECIFIED.,.F.,.F.,(2,
    2),(0.,32.),.PIECEWISE_BEZIER_KNOTS.);
#27 = CARTESIAN_POINT('',(-11.7128129211,-43.7128129211,0.));
#28 = CARTESIAN_POINT('',(-18.47520861406,-18.47520861406,
    18.475208614068));
#29 = ORIENTED_EDGE('',*,*,#30,.F.);
#30 = EDGE_CURVE('',#31,#22,#33,.T.);
#31 = VERTEX_POINT('',#32);
#32 = CARTESIAN_POINT('',(6.762395692966,-25.23760430703,-18.47520861406
    ));
#33 = B_SPLINE_CURVE_WITH_KNOTS('',1,(#34,#35),.UNSPECIFIED.,.F.,.F.,(2,
    2),(0.,32.),.PIECEWISE_BEZIER_KNOTS.);
#34 = CARTESIAN_POINT('',(6.762395692966,-25.23760430703,-18.47520861406
    ));
#35 = CARTESIAN_POINT('',(-11.7128129211,-43.7128129211,0.));
#36 = ORIENTED_EDGE('',*,*,#37,.T.);
#37 = EDGE_CURVE('',#31,#38,#40,.T.);
#38 = VERTEX_POINT('',#39);
#39 = CARTESIAN_POINT('',(1.195433962891,-4.461420286602,-3.265986323711
    ));
#40 = B_SPLINE_CURVE_WITH_KNOTS('',1,(#41,#42),.UNSPECIFIED.,.F.,.F.,(2,
    2),(0.,26.343145750508),.PIECEWISE_BEZIER_KNOTS.);
#41 = CARTESIAN_POINT('',(6.762395692966,-25.23760430703,-18.47520861406
    ));
#42 = CARTESIAN_POINT('',(1.195433962891,-4.461420286602,-3.265986323711
    ));
#43 = ORIENTED_EDGE('',*,*,#44,.T.);
#44 = EDGE_CURVE('',#38,#45,#47,.T.);
#45 = VERTEX_POINT('',#46);
#46 = CARTESIAN_POINT('',(-3.265986323711,-3.265986323711,3.265986323711
    ));
#47 = B_SPLINE_CURVE_WITH_KNOTS('',1,(#48,#49),.UNSPECIFIED.,.F.,.F.,(2,
    2),(0.,8.),.PIECEWISE_BEZIER_KNOTS.);
#48 = CARTESIAN_POINT('',(1.195433962891,-4.461420286602,-3.265986323711
    ));
#49 = CARTESIAN_POINT('',(-3.265986323711,-3.265986323711,3.265986323711
    ));
#50 = ORIENTED_EDGE('',*,*,#51,.T.);
#51 = EDGE_CURVE('',#45,#24,#52,.T.);
#52 = B_SPLINE_CURVE_WITH_KNOTS('',1,(#53,#54),.UNSPECIFIED.,.F.,.F.,(2,
    2),(5.656854249492,32.),.PIECEWISE_BEZIER_KNOTS.);
#53 = CARTESIAN_POINT('',(-3.265986323711,-3.265986323711,3.265986323711
    ));
#54 = CARTESIAN_POINT('',(-18.47520861406,-18.47520861406,
    18.475208614068));
#55 = B_SPLINE_SURFACE_WITH_KNOTS('',1,1,(
    (#56,#57)
    ,(#58,#59
  )),.UNSPECIFIED.,.F.,.F.,.F.,(2,2),(2,2),(0.,32.),(-32.,0.),
  .PIECEWISE_BEZIER_KNOTS.);
#56 = CARTESIAN_POINT('',(0.,0.,0.));
#57 = CARTESIAN_POINT('',(6.762395692966,-25.23760430703,-18.47520861406
    ));
#58 = CARTESIAN_POINT('',(-18.47520861406,-18.47520861406,
    18.475208614068));
#59 = CARTESIAN_POINT('',(-11.7128129211,-43.7128129211,0.));
#60 = ADVANCED_FACE('',(#61),#83,.T.);
#61 = FACE_BOUND('',#62,.T.);
#62 = EDGE_LOOP('',(#63,#64,#71,#78));
#63 = ORIENTED_EDGE('',*,*,#21,.F.);
#64 = ORIENTED_EDGE('',*,*,#65,.T.);
#65 = EDGE_CURVE('',#22,#66,#68,.T.);
#66 = VERTEX_POINT('',#67);
#67 = CARTESIAN_POINT('',(13.524791385932,-50.47520861406,
    18.475208614068));
#68 = B_SPLINE_CURVE_WITH_KNOTS('',1,(#69,#70),.UNSPECIFIED.,.F.,.F.,(2,
    2),(0.,32.),.PIECEWISE_BEZIER_KNOTS.);
#69 = CARTESIAN_POINT('',(-11.7128129211,-43.7128129211,0.));
#70 = CARTESIAN_POINT('',(13.524791385932,-50.47520861406,
    18.475208614068));
#71 = ORIENTED_EDGE('',*,*,#72,.T.);
#72 = EDGE_CURVE('',#66,#73,#75,.T.);
#73 = VERTEX_POINT('',#74);
#74 = CARTESIAN_POINT('',(6.762395692966,-25.23760430703,36.950417228136
    ));
#75 = B_SPLINE_CURVE_WITH_KNOTS('',1,(#76,#77),.UNSPECIFIED.,.F.,.F.,(2,
    2),(0.,32.),.PIECEWISE_BEZIER_KNOTS.);
#76 = CARTESIAN_POINT('',(13.524791385932,-50.47520861406,
    18.475208614068));
#77 = CARTESIAN_POINT('',(6.762395692966,-25.23760430703,36.950417228136
    ));
#78 = ORIENTED_EDGE('',*,*,#79,.F.);
#79 = EDGE_CURVE('',#24,#73,#80,.T.);
#80 = B_SPLINE_CURVE_WITH_KNOTS('',1,(#81,#82),.UNSPECIFIED.,.F.,.F.,(2,
    2),(0.,32.),.PIECEWISE_BEZIER_KNOTS.);
#81 = CARTESIAN_POINT('',(-18.47520861406,-18.47520861406,
    18.475208614068));
#82 = CARTESIAN_POINT('',(6.762395692966,-25.23760430703,36.950417228136
    ));
#83 = B_SPLINE_SURFACE_WITH_KNOTS('',1,1,(
    (#84,#85)
    ,(#86,#87)),.UNSPECIFIED.,.F.,.F.,.F.,(2,2),(2,2),(0.,32.),(0.,32.),
  .PIECEWISE_BEZIER_KNOTS.);
#84 = CARTESIAN_POINT('',(-11.7128129211,-43.7128129211,0.));
#85 = CARTESIAN_POINT('',(-18.47520861406,-18.47520861406,
    18.475208614068));
#86 = CARTESIAN_POINT('',(13.524791385932,-50.47520861406,
    18.475208614068));
#87 = CARTESIAN_POINT('',(6.762395692966,-25.23760430703,36.950417228136
    ));
#88 = ADVANCED_FACE('',(#89),#112,.T.);
#89 = FACE_BOUND('',#90,.T.);
#90 = EDGE_LOOP('',(#91,#100,#105,#106,#107));
#91 = ORIENTED_EDGE('',*,*,#92,.F.);
#92 = EDGE_CURVE('',#93,#95,#97,.T.);
#93 = VERTEX_POINT('',#94);
#94 = CARTESIAN_POINT('',(4.461420286602,-1.195433962891,3.265986323711)
  );
#95 = VERTEX_POINT('',#96);
#96 = CARTESIAN_POINT('',(25.237604307034,-6.762395692966,
    18.475208614068));
#97 = B_SPLINE_CURVE_WITH_KNOTS('',1,(#98,#99),.UNSPECIFIED.,.F.,.F.,(2,
    2),(5.656854249492,32.),.PIECEWISE_BEZIER_KNOTS.);
#98 = CARTESIAN_POINT('',(4.461420286602,-1.195433962891,3.265986323711)
  );
#99 = CARTESIAN_POINT('',(25.237604307034,-6.762395692966,
    18.475208614068));
#100 = ORIENTED_EDGE('',*,*,#101,.T.);
#101 = EDGE_CURVE('',#93,#45,#102,.T.);
#102 = B_SPLINE_CURVE_WITH_KNOTS('',1,(#103,#104),.UNSPECIFIED.,.F.,.F.,
  (2,2),(0.,8.),.PIECEWISE_BEZIER_KNOTS.);
#103 = CARTESIAN_POINT('',(4.461420286602,-1.195433962891,3.265986323711
    ));
#104 = CARTESIAN_POINT('',(-3.265986323711,-3.265986323711,
    3.265986323711));
#105 = ORIENTED_EDGE('',*,*,#51,.T.);
#106 = ORIENTED_EDGE('',*,*,#79,.T.);
#107 = ORIENTED_EDGE('',*,*,#108,.F.);
#108 = EDGE_CURVE('',#95,#73,#109,.T.);
#109 = B_SPLINE_CURVE_WITH_KNOTS('',1,(#110,#111),.UNSPECIFIED.,.F.,.F.,
  (2,2),(0.,32.),.PIECEWISE_BEZIER_KNOTS.);
#110 = CARTESIAN_POINT('',(25.237604307034,-6.762395692966,
    18.475208614068));
#111 = CARTESIAN_POINT('',(6.762395692966,-25.23760430703,
    36.950417228136));
#112 = B_SPLINE_SURFACE_WITH_KNOTS('',1,1,(
    (#113,#114)
    ,(#115,#116
    )),.UNSPECIFIED.,.F.,.F.,.F.,(2,2),(2,2),(0.,32.),(
    -2.601414362266E-16,32.),.PIECEWISE_BEZIER_KNOTS.);
#113 = CARTESIAN_POINT('',(-2.051670822297E-16,5.49743539969E-17,
    -1.501927282328E-16));
#114 = CARTESIAN_POINT('',(25.237604307034,-6.762395692966,
    18.475208614068));
#115 = CARTESIAN_POINT('',(-18.47520861406,-18.47520861406,
    18.475208614068));
#116 = CARTESIAN_POINT('',(6.762395692966,-25.23760430703,
    36.950417228136));
#117 = ADVANCED_FACE('',(#118),#127,.T.);
#118 = FACE_BOUND('',#119,.T.);
#119 = EDGE_LOOP('',(#120,#125,#126));
#120 = ORIENTED_EDGE('',*,*,#121,.T.);
#121 = EDGE_CURVE('',#93,#38,#122,.T.);
#122 = B_SPLINE_CURVE_WITH_KNOTS('',1,(#123,#124),.UNSPECIFIED.,.F.,.F.,
  (2,2),(0.,8.),.PIECEWISE_BEZIER_KNOTS.);
#123 = CARTESIAN_POINT('',(4.461420286602,-1.195433962891,3.265986323711
    ));
#124 = CARTESIAN_POINT('',(1.195433962891,-4.461420286602,
    -3.265986323711));
#125 = ORIENTED_EDGE('',*,*,#44,.T.);
#126 = ORIENTED_EDGE('',*,*,#101,.F.);
#127 = B_SPLINE_SURFACE_WITH_KNOTS('',1,1,(
    (#128,#129)
    ,(#130,#131
    )),.UNSPECIFIED.,.F.,.F.,.F.,(2,2),(2,2),(-4.,4.),(-4.618802153517,
    2.309401076759),.PIECEWISE_BEZIER_KNOTS.);
#128 = CARTESIAN_POINT('',(5.059137268047,-3.426144106192,
    -3.265986323711));
#129 = CARTESIAN_POINT('',(4.461420286602,-1.195433962891,3.265986323711
    ));
#130 = CARTESIAN_POINT('',(-2.668269342266,-5.496696467012,
    -3.265986323711));
#131 = CARTESIAN_POINT('',(-3.265986323711,-3.265986323711,
    3.265986323711));
#132 = ADVANCED_FACE('',(#133),#150,.F.);
#133 = FACE_BOUND('',#134,.F.);
#134 = EDGE_LOOP('',(#135,#136,#143,#148,#149));
#135 = ORIENTED_EDGE('',*,*,#37,.F.);
#136 = ORIENTED_EDGE('',*,*,#137,.T.);
#137 = EDGE_CURVE('',#31,#138,#140,.T.);
#138 = VERTEX_POINT('',#139);
#139 = CARTESIAN_POINT('',(32.,-32.,0.));
#140 = B_SPLINE_CURVE_WITH_KNOTS('',1,(#141,#142),.UNSPECIFIED.,.F.,.F.,
  (2,2),(0.,32.),.PIECEWISE_BEZIER_KNOTS.);
#141 = CARTESIAN_POINT('',(6.762395692966,-25.23760430703,
    -18.47520861406));
#142 = CARTESIAN_POINT('',(32.,-32.,0.));
#143 = ORIENTED_EDGE('',*,*,#144,.T.);
#144 = EDGE_CURVE('',#138,#95,#145,.T.);
#145 = B_SPLINE_CURVE_WITH_KNOTS('',1,(#146,#147),.UNSPECIFIED.,.F.,.F.,
  (2,2),(0.,32.),.PIECEWISE_BEZIER_KNOTS.);
#146 = CARTESIAN_POINT('',(32.,-32.,0.));
#147 = CARTESIAN_POINT('',(25.237604307034,-6.762395692966,
    18.475208614068));
#148 = ORIENTED_EDGE('',*,*,#92,.F.);
#149 = ORIENTED_EDGE('',*,*,#121,.T.);
#150 = B_SPLINE_SURFACE_WITH_KNOTS('',1,1,(
    (#151,#152)
    ,(#153,#154
    )),.UNSPECIFIED.,.F.,.F.,.F.,(2,2),(2,2),(-2.601414362266E-16,32.),(
    0.,32.),.PIECEWISE_BEZIER_KNOTS.);
#151 = CARTESIAN_POINT('',(6.762395692966,-25.23760430703,
    -18.47520861406));
#152 = CARTESIAN_POINT('',(-2.051670822297E-16,5.49743539969E-17,
    -1.501927282328E-16));
#153 = CARTESIAN_POINT('',(32.,-32.,0.));
#154 = CARTESIAN_POINT('',(25.237604307034,-6.762395692966,
    18.475208614068));
#155 = ADVANCED_FACE('',(#156),#166,.F.);
#156 = FACE_BOUND('',#157,.F.);
#157 = EDGE_LOOP('',(#158,#159,#160,#161));
#158 = ORIENTED_EDGE('',*,*,#137,.F.);
#159 = ORIENTED_EDGE('',*,*,#30,.T.);
#160 = ORIENTED_EDGE('',*,*,#65,.T.);
#161 = ORIENTED_EDGE('',*,*,#162,.F.);
#162 = EDGE_CURVE('',#138,#66,#163,.T.);
#163 = B_SPLINE_CURVE_WITH_KNOTS('',1,(#164,#165),.UNSPECIFIED.,.F.,.F.,
  (2,2),(0.,32.),.PIECEWISE_BEZIER_KNOTS.);
#164 = CARTESIAN_POINT('',(32.,-32.,0.));
#165 = CARTESIAN_POINT('',(13.524791385932,-50.47520861406,
    18.475208614068));
#166 = B_SPLINE_SURFACE_WITH_KNOTS('',1,1,(
    (#167,#168)
    ,(#169,#170
    )),.UNSPECIFIED.,.F.,.F.,.F.,(2,2),(2,2),(0.,32.),(0.,32.),
  .PIECEWISE_BEZIER_KNOTS.);
#167 = CARTESIAN_POINT('',(6.762395692966,-25.23760430703,
    -18.47520861406));
#168 = CARTESIAN_POINT('',(32.,-32.,0.));
#169 = CARTESIAN_POINT('',(-11.7128129211,-43.7128129211,0.));
#170 = CARTESIAN_POINT('',(13.524791385932,-50.47520861406,
    18.475208614068));
#171 = ADVANCED_FACE('',(#172),#178,.T.);
#172 = FACE_BOUND('',#173,.T.);
#173 = EDGE_LOOP('',(#174,#175,#176,#177));
#174 = ORIENTED_EDGE('',*,*,#162,.F.);
#175 = ORIENTED_EDGE('',*,*,#144,.T.);
#176 = ORIENTED_EDGE('',*,*,#108,.T.);
#177 = ORIENTED_EDGE('',*,*,#72,.F.);
#178 = B_SPLINE_SURFACE_WITH_KNOTS('',1,1,(
    (#179,#180)
    ,(#181,#182
    )),.UNSPECIFIED.,.F.,.F.,.F.,(2,2),(2,2),(0.,32.),(-32.,0.),
  .PIECEWISE_BEZIER_KNOTS.);
#179 = CARTESIAN_POINT('',(25.237604307034,-6.762395692966,
    18.475208614068));
#180 = CARTESIAN_POINT('',(32.,-32.,0.));
#181 = CARTESIAN_POINT('',(6.762395692966,-25.23760430703,
    36.950417228136));
#182 = CARTESIAN_POINT('',(13.524791385932,-50.47520861406,
    18.475208614068));
#183 = ( GEOMETRIC_REPRESENTATION_CONTEXT(3) 
GLOBAL_UNCERTAINTY_ASSIGNED_CONTEXT((#187)) GLOBAL_UNIT_ASSIGNED_CONTEXT
((#184,#185,#186)) REPRESENTATION_CONTEXT('Context #1',
  '3D Context with UNIT and UNCERTAINTY') );
#184 = ( LENGTH_UNIT() NAMED_UNIT(*) SI_UNIT(.MILLI.,.METRE.) );
#185 = ( NAMED_UNIT(*) PLANE_ANGLE_UNIT() SI_UNIT($,.RADIAN.) );
#186 = ( NAMED_UNIT(*) SI_UNIT($,.STERADIAN.) SOLID_ANGLE_UNIT() );
#187 = UNCERTAINTY_MEASURE_WITH_UNIT(LENGTH_MEASURE(1.E-07),#184,
  'distance_accuracy_value','confusion accuracy');
#188 = PRODUCT_RELATED_PRODUCT_CATEGORY('part',$,(#7));
ENDSEC;
END-ISO-10303-21;
