ISO-10303-21;
HEADER;
FILE_DESCRIPTION(('FreeCAD Model'),'2;1');
FILE_NAME('Open CASCADE Shape Model','2026-07-28T22:26:06',('FreeCAD'),(
    'FreeCAD'),'Open CASCADE STEP processor 7.8','FreeCAD','Unknown');
FILE_SCHEMA(('AUTOMOTIVE_DESIGN { 1 0 10303 214 1 1 1 1 }'));
ENDSEC;
DATA;
#1 = APPLICATION_PROTOCOL_DEFINITION('international standard',
  'automotive_design',2000,#2);
#2 = APPLICATION_CONTEXT(
  'core data for automotive mechanical design processes');
#3 = SHAPE_DEFINITION_REPRESENTATION(#4,#10);
#4 = PRODUCT_DEFINITION_SHAPE('','',#5);
#5 = PRODUCT_DEFINITION('design','',#6,#9);
#6 = PRODUCT_DEFINITION_FORMATION('','',#7);
#7 = PRODUCT('Open CASCADE STEP translator 7.8 3',
  'Open CASCADE STEP translator 7.8 3','',(#8));
#8 = PRODUCT_CONTEXT('',#2,'mechanical');
#9 = PRODUCT_DEFINITION_CONTEXT('part definition',#2,'design');
#10 = ADVANCED_BREP_SHAPE_REPRESENTATION('',(#11,#15),#183);
#11 = AXIS2_PLACEMENT_3D('',#12,#13,#14);
#12 = CARTESIAN_POINT('',(0.,0.,0.));
#13 = DIRECTION('',(0.,0.,1.));
#14 = DIRECTION('',(1.,0.,-0.));
#15 = MANIFOLD_SOLID_BREP('',#16);
#16 = CLOSED_SHELL('',(#17,#53,#81,#103,#132,#155,#172));
#17 = ADVANCED_FACE('',(#18),#48,.F.);
#18 = FACE_BOUND('',#19,.F.);
#19 = EDGE_LOOP('',(#20,#29,#36,#43));
#20 = ORIENTED_EDGE('',*,*,#21,.F.);
#21 = EDGE_CURVE('',#22,#24,#26,.T.);
#22 = VERTEX_POINT('',#23);
#23 = CARTESIAN_POINT('',(-18.47520861406,-18.47520861406,
    -36.95041722813));
#24 = VERTEX_POINT('',#25);
#25 = CARTESIAN_POINT('',(-36.95041722813,-36.95041722813,
    -18.47520861406));
#26 = B_SPLINE_CURVE_WITH_KNOTS('',1,(#27,#28),.UNSPECIFIED.,.F.,.F.,(2,
    2),(0.,32.),.PIECEWISE_BEZIER_KNOTS.);
#27 = CARTESIAN_POINT('',(-18.47520861406,-18.47520861406,
    -36.95041722813));
#28 = CARTESIAN_POINT('',(-36.95041722813,-36.95041722813,
    -18.47520861406));
#29 = ORIENTED_EDGE('',*,*,#30,.T.);
#30 = EDGE_CURVE('',#22,#31,#33,.T.);
#31 = VERTEX_POINT('',#32);
#32 = CARTESIAN_POINT('',(-25.23760430703,6.762395692966,-18.47520861406
    ));
#33 = B_SPLINE_CURVE_WITH_KNOTS('',1,(#34,#35),.UNSPECIFIED.,.F.,.F.,(2,
    2),(0.,32.),.PIECEWISE_BEZIER_KNOTS.);
#34 = CARTESIAN_POINT('',(-18.47520861406,-18.47520861406,
    -36.95041722813));
#35 = CARTESIAN_POINT('',(-25.23760430703,6.762395692966,-18.47520861406
    ));
#36 = ORIENTED_EDGE('',*,*,#37,.T.);
#37 = EDGE_CURVE('',#31,#38,#40,.T.);
#38 = VERTEX_POINT('',#39);
#39 = CARTESIAN_POINT('',(-43.7128129211,-11.7128129211,0.));
#40 = B_SPLINE_CURVE_WITH_KNOTS('',1,(#41,#42),.UNSPECIFIED.,.F.,.F.,(2,
    2),(0.,32.),.PIECEWISE_BEZIER_KNOTS.);
#41 = CARTESIAN_POINT('',(-25.23760430703,6.762395692966,-18.47520861406
    ));
#42 = CARTESIAN_POINT('',(-43.7128129211,-11.7128129211,0.));
#43 = ORIENTED_EDGE('',*,*,#44,.F.);
#44 = EDGE_CURVE('',#24,#38,#45,.T.);
#45 = B_SPLINE_CURVE_WITH_KNOTS('',1,(#46,#47),.UNSPECIFIED.,.F.,.F.,(2,
    2),(0.,32.),.PIECEWISE_BEZIER_KNOTS.);
#46 = CARTESIAN_POINT('',(-36.95041722813,-36.95041722813,
    -18.47520861406));
#47 = CARTESIAN_POINT('',(-43.7128129211,-11.7128129211,0.));
#48 = B_SPLINE_SURFACE_WITH_KNOTS('',1,1,(
    (#49,#50)
    ,(#51,#52
  )),.UNSPECIFIED.,.F.,.F.,.F.,(2,2),(2,2),(0.,32.),(-32.,0.),
  .PIECEWISE_BEZIER_KNOTS.);
#49 = CARTESIAN_POINT('',(-25.23760430703,6.762395692966,-18.47520861406
    ));
#50 = CARTESIAN_POINT('',(-18.47520861406,-18.47520861406,
    -36.95041722813));
#51 = CARTESIAN_POINT('',(-43.7128129211,-11.7128129211,0.));
#52 = CARTESIAN_POINT('',(-36.95041722813,-36.95041722813,
    -18.47520861406));
#53 = ADVANCED_FACE('',(#54),#76,.F.);
#54 = FACE_BOUND('',#55,.F.);
#55 = EDGE_LOOP('',(#56,#63,#64,#71));
#56 = ORIENTED_EDGE('',*,*,#57,.F.);
#57 = EDGE_CURVE('',#22,#58,#60,.T.);
#58 = VERTEX_POINT('',#59);
#59 = CARTESIAN_POINT('',(6.762395692966,-25.23760430703,-18.47520861406
    ));
#60 = B_SPLINE_CURVE_WITH_KNOTS('',1,(#61,#62),.UNSPECIFIED.,.F.,.F.,(2,
    2),(0.,32.),.PIECEWISE_BEZIER_KNOTS.);
#61 = CARTESIAN_POINT('',(-18.47520861406,-18.47520861406,
    -36.95041722813));
#62 = CARTESIAN_POINT('',(6.762395692966,-25.23760430703,-18.47520861406
    ));
#63 = ORIENTED_EDGE('',*,*,#21,.T.);
#64 = ORIENTED_EDGE('',*,*,#65,.T.);
#65 = EDGE_CURVE('',#24,#66,#68,.T.);
#66 = VERTEX_POINT('',#67);
#67 = CARTESIAN_POINT('',(-11.7128129211,-43.7128129211,0.));
#68 = B_SPLINE_CURVE_WITH_KNOTS('',1,(#69,#70),.UNSPECIFIED.,.F.,.F.,(2,
    2),(0.,32.),.PIECEWISE_BEZIER_KNOTS.);
#69 = CARTESIAN_POINT('',(-36.95041722813,-36.95041722813,
    -18.47520861406));
#70 = CARTESIAN_POINT('',(-11.7128129211,-43.7128129211,0.));
#71 = ORIENTED_EDGE('',*,*,#72,.F.);
#72 = EDGE_CURVE('',#58,#66,#73,.T.);
#73 = B_SPLINE_CURVE_WITH_KNOTS('',1,(#74,#75),.UNSPECIFIED.,.F.,.F.,(2,
    2),(0.,32.),.PIECEWISE_BEZIER_KNOTS.);
#74 = CARTESIAN_POINT('',(6.762395692966,-25.23760430703,-18.47520861406
    ));
#75 = CARTESIAN_POINT('',(-11.7128129211,-43.7128129211,0.));
#76 = B_SPLINE_SURFACE_WITH_KNOTS('',1,1,(
    (#77,#78)
    ,(#79,#80)),.UNSPECIFIED.,.F.,.F.,.F.,(2,2),(2,2),(0.,32.),(0.,32.),
  .PIECEWISE_BEZIER_KNOTS.);
#77 = CARTESIAN_POINT('',(-18.47520861406,-18.47520861406,
    -36.95041722813));
#78 = CARTESIAN_POINT('',(6.762395692966,-25.23760430703,-18.47520861406
    ));
#79 = CARTESIAN_POINT('',(-36.95041722813,-36.95041722813,
    -18.47520861406));
#80 = CARTESIAN_POINT('',(-11.7128129211,-43.7128129211,0.));
#81 = ADVANCED_FACE('',(#82),#98,.T.);
#82 = FACE_BOUND('',#83,.T.);
#83 = EDGE_LOOP('',(#84,#85,#86,#93));
#84 = ORIENTED_EDGE('',*,*,#44,.F.);
#85 = ORIENTED_EDGE('',*,*,#65,.T.);
#86 = ORIENTED_EDGE('',*,*,#87,.T.);
#87 = EDGE_CURVE('',#66,#88,#90,.T.);
#88 = VERTEX_POINT('',#89);
#89 = CARTESIAN_POINT('',(-18.47520861406,-18.47520861406,
    18.475208614068));
#90 = B_SPLINE_CURVE_WITH_KNOTS('',1,(#91,#92),.UNSPECIFIED.,.F.,.F.,(2,
    2),(0.,32.),.PIECEWISE_BEZIER_KNOTS.);
#91 = CARTESIAN_POINT('',(-11.7128129211,-43.7128129211,0.));
#92 = CARTESIAN_POINT('',(-18.47520861406,-18.47520861406,
    18.475208614068));
#93 = ORIENTED_EDGE('',*,*,#94,.F.);
#94 = EDGE_CURVE('',#38,#88,#95,.T.);
#95 = B_SPLINE_CURVE_WITH_KNOTS('',1,(#96,#97),.UNSPECIFIED.,.F.,.F.,(2,
    2),(0.,32.),.PIECEWISE_BEZIER_KNOTS.);
#96 = CARTESIAN_POINT('',(-43.7128129211,-11.7128129211,0.));
#97 = CARTESIAN_POINT('',(-18.47520861406,-18.47520861406,
    18.475208614068));
#98 = B_SPLINE_SURFACE_WITH_KNOTS('',1,1,(
    (#99,#100)
    ,(#101,#102
    )),.UNSPECIFIED.,.F.,.F.,.F.,(2,2),(2,2),(0.,32.),(0.,32.),
  .PIECEWISE_BEZIER_KNOTS.);
#99 = CARTESIAN_POINT('',(-36.95041722813,-36.95041722813,
    -18.47520861406));
#100 = CARTESIAN_POINT('',(-43.7128129211,-11.7128129211,0.));
#101 = CARTESIAN_POINT('',(-11.7128129211,-43.7128129211,0.));
#102 = CARTESIAN_POINT('',(-18.47520861406,-18.47520861406,
    18.475208614068));
#103 = ADVANCED_FACE('',(#104),#127,.T.);
#104 = FACE_BOUND('',#105,.T.);
#105 = EDGE_LOOP('',(#106,#113,#114,#115,#122));
#106 = ORIENTED_EDGE('',*,*,#107,.F.);
#107 = EDGE_CURVE('',#31,#108,#110,.T.);
#108 = VERTEX_POINT('',#109);
#109 = CARTESIAN_POINT('',(-4.461420286602,1.195433962891,
    -3.265986323711));
#110 = B_SPLINE_CURVE_WITH_KNOTS('',1,(#111,#112),.UNSPECIFIED.,.F.,.F.,
  (2,2),(0.,26.343145750508),.PIECEWISE_BEZIER_KNOTS.);
#111 = CARTESIAN_POINT('',(-25.23760430703,6.762395692966,
    -18.47520861406));
#112 = CARTESIAN_POINT('',(-4.461420286602,1.195433962891,
    -3.265986323711));
#113 = ORIENTED_EDGE('',*,*,#37,.T.);
#114 = ORIENTED_EDGE('',*,*,#94,.T.);
#115 = ORIENTED_EDGE('',*,*,#116,.F.);
#116 = EDGE_CURVE('',#117,#88,#119,.T.);
#117 = VERTEX_POINT('',#118);
#118 = CARTESIAN_POINT('',(-3.265986323711,-3.265986323711,
    3.265986323711));
#119 = B_SPLINE_CURVE_WITH_KNOTS('',1,(#120,#121),.UNSPECIFIED.,.F.,.F.,
  (2,2),(5.656854249492,32.),.PIECEWISE_BEZIER_KNOTS.);
#120 = CARTESIAN_POINT('',(-3.265986323711,-3.265986323711,
    3.265986323711));
#121 = CARTESIAN_POINT('',(-18.47520861406,-18.47520861406,
    18.475208614068));
#122 = ORIENTED_EDGE('',*,*,#123,.F.);
#123 = EDGE_CURVE('',#108,#117,#124,.T.);
#124 = B_SPLINE_CURVE_WITH_KNOTS('',1,(#125,#126),.UNSPECIFIED.,.F.,.F.,
  (2,2),(0.,8.),.PIECEWISE_BEZIER_KNOTS.);
#125 = CARTESIAN_POINT('',(-4.461420286602,1.195433962891,
    -3.265986323711));
#126 = CARTESIAN_POINT('',(-3.265986323711,-3.265986323711,
    3.265986323711));
#127 = B_SPLINE_SURFACE_WITH_KNOTS('',1,1,(
    (#128,#129)
    ,(#130,#131
    )),.UNSPECIFIED.,.F.,.F.,.F.,(2,2),(2,2),(0.,32.),(0.,32.),
  .PIECEWISE_BEZIER_KNOTS.);
#128 = CARTESIAN_POINT('',(-25.23760430703,6.762395692966,
    -18.47520861406));
#129 = CARTESIAN_POINT('',(0.,0.,0.));
#130 = CARTESIAN_POINT('',(-43.7128129211,-11.7128129211,0.));
#131 = CARTESIAN_POINT('',(-18.47520861406,-18.47520861406,
    18.475208614068));
#132 = ADVANCED_FACE('',(#133),#150,.F.);
#133 = FACE_BOUND('',#134,.F.);
#134 = EDGE_LOOP('',(#135,#136,#137,#138,#145));
#135 = ORIENTED_EDGE('',*,*,#107,.F.);
#136 = ORIENTED_EDGE('',*,*,#30,.F.);
#137 = ORIENTED_EDGE('',*,*,#57,.T.);
#138 = ORIENTED_EDGE('',*,*,#139,.T.);
#139 = EDGE_CURVE('',#58,#140,#142,.T.);
#140 = VERTEX_POINT('',#141);
#141 = CARTESIAN_POINT('',(1.195433962891,-4.461420286602,
    -3.265986323711));
#142 = B_SPLINE_CURVE_WITH_KNOTS('',1,(#143,#144),.UNSPECIFIED.,.F.,.F.,
  (2,2),(0.,26.343145750508),.PIECEWISE_BEZIER_KNOTS.);
#143 = CARTESIAN_POINT('',(6.762395692966,-25.23760430703,
    -18.47520861406));
#144 = CARTESIAN_POINT('',(1.195433962891,-4.461420286602,
    -3.265986323711));
#145 = ORIENTED_EDGE('',*,*,#146,.F.);
#146 = EDGE_CURVE('',#108,#140,#147,.T.);
#147 = B_SPLINE_CURVE_WITH_KNOTS('',1,(#148,#149),.UNSPECIFIED.,.F.,.F.,
  (2,2),(0.,8.),.PIECEWISE_BEZIER_KNOTS.);
#148 = CARTESIAN_POINT('',(-4.461420286602,1.195433962891,
    -3.265986323711));
#149 = CARTESIAN_POINT('',(1.195433962891,-4.461420286602,
    -3.265986323711));
#150 = B_SPLINE_SURFACE_WITH_KNOTS('',1,1,(
    (#151,#152)
    ,(#153,#154
    )),.UNSPECIFIED.,.F.,.F.,.F.,(2,2),(2,2),(0.,32.),(0.,32.),
  .PIECEWISE_BEZIER_KNOTS.);
#151 = CARTESIAN_POINT('',(-18.47520861406,-18.47520861406,
    -36.95041722813));
#152 = CARTESIAN_POINT('',(-25.23760430703,6.762395692966,
    -18.47520861406));
#153 = CARTESIAN_POINT('',(6.762395692966,-25.23760430703,
    -18.47520861406));
#154 = CARTESIAN_POINT('',(0.,0.,0.));
#155 = ADVANCED_FACE('',(#156),#167,.T.);
#156 = FACE_BOUND('',#157,.T.);
#157 = EDGE_LOOP('',(#158,#159,#160,#161,#166));
#158 = ORIENTED_EDGE('',*,*,#87,.F.);
#159 = ORIENTED_EDGE('',*,*,#72,.F.);
#160 = ORIENTED_EDGE('',*,*,#139,.T.);
#161 = ORIENTED_EDGE('',*,*,#162,.T.);
#162 = EDGE_CURVE('',#140,#117,#163,.T.);
#163 = B_SPLINE_CURVE_WITH_KNOTS('',1,(#164,#165),.UNSPECIFIED.,.F.,.F.,
  (2,2),(0.,8.),.PIECEWISE_BEZIER_KNOTS.);
#164 = CARTESIAN_POINT('',(1.195433962891,-4.461420286602,
    -3.265986323711));
#165 = CARTESIAN_POINT('',(-3.265986323711,-3.265986323711,
    3.265986323711));
#166 = ORIENTED_EDGE('',*,*,#116,.T.);
#167 = B_SPLINE_SURFACE_WITH_KNOTS('',1,1,(
    (#168,#169)
    ,(#170,#171
    )),.UNSPECIFIED.,.F.,.F.,.F.,(2,2),(2,2),(0.,32.),(-32.,0.),
  .PIECEWISE_BEZIER_KNOTS.);
#168 = CARTESIAN_POINT('',(0.,0.,0.));
#169 = CARTESIAN_POINT('',(6.762395692966,-25.23760430703,
    -18.47520861406));
#170 = CARTESIAN_POINT('',(-18.47520861406,-18.47520861406,
    18.475208614068));
#171 = CARTESIAN_POINT('',(-11.7128129211,-43.7128129211,0.));
#172 = ADVANCED_FACE('',(#173),#178,.F.);
#173 = FACE_BOUND('',#174,.F.);
#174 = EDGE_LOOP('',(#175,#176,#177));
#175 = ORIENTED_EDGE('',*,*,#146,.T.);
#176 = ORIENTED_EDGE('',*,*,#162,.T.);
#177 = ORIENTED_EDGE('',*,*,#123,.F.);
#178 = B_SPLINE_SURFACE_WITH_KNOTS('',1,1,(
    (#179,#180)
    ,(#181,#182
    )),.UNSPECIFIED.,.F.,.F.,.F.,(2,2),(2,2),(-4.,4.),(-4.618802153517,
    2.309401076759),.PIECEWISE_BEZIER_KNOTS.);
#179 = CARTESIAN_POINT('',(0.597716981445,-2.230710143301,
    -6.531972647422));
#180 = CARTESIAN_POINT('',(-4.461420286602,1.195433962891,
    -3.265986323711));
#181 = CARTESIAN_POINT('',(1.793150944336,-6.692130429902,
    -5.335791651413E-16));
#182 = CARTESIAN_POINT('',(-3.265986323711,-3.265986323711,
    3.265986323711));
#183 = ( GEOMETRIC_REPRESENTATION_CONTEXT(3) 
GLOBAL_UNCERTAINTY_ASSIGNED_CONTEXT((#187)) GLOBAL_UNIT_ASSIGNED_CONTEXT
((#184,#185,#186)) REPRESENTATION_CONTEXT('Context #1',
  '3D Context with UNIT and UNCERTAINTY') );
#184 = ( LENGTH_UNIT() NAMED_UNIT(*) SI_UNIT(.MILLI.,.METRE.) );
#185 = ( NAMED_UNIT(*) PLANE_ANGLE_UNIT() SI_UNIT($,.RADIAN.) );
#186 = ( NAMED_UNIT(*) SI_UNIT($,.STERADIAN.) SOLID_ANGLE_UNIT() );
#187 = UNCERTAINTY_MEASURE_WITH_UNIT(LENGTH_MEASURE(1.E-07),#184,
  'distance_accuracy_value','confusion accuracy');
#188 = PRODUCT_RELATED_PRODUCT_CATEGORY('part',$,(#7));
ENDSEC;
END-ISO-10303-21;
