ISO-10303-21;
HEADER;
FILE_DESCRIPTION(('FreeCAD Model'),'2;1');
FILE_NAME('Open CASCADE Shape Model','2026-07-29T20:08:02',('FreeCAD'),(
    'FreeCAD'),'Open CASCADE STEP processor 7.8','FreeCAD','Unknown');
FILE_SCHEMA(('AUTOMOTIVE_DESIGN { 1 0 10303 214 1 1 1 1 }'));
ENDSEC;
DATA;
#1 = APPLICATION_PROTOCOL_DEFINITION('international standard',
  'automotive_design',2000,#2);
#2 = APPLICATION_CONTEXT(
  'core data for automotive mechanical design processes');
#3 = SHAPE_DEFINITION_REPRESENTATION(#4,#10);
#4 = PRODUCT_DEFINITION_SHAPE('','',#5);
#5 = PRODUCT_DEFINITION('design','',#6,#9);
#6 = PRODUCT_DEFINITION_FORMATION('','',#7);
#7 = PRODUCT('Open CASCADE STEP translator 7.8 4',
  'Open CASCADE STEP translator 7.8 4','',(#8));
#8 = PRODUCT_CONTEXT('',#2,'mechanical');
#9 = PRODUCT_DEFINITION_CONTEXT('part definition',#2,'design');
#10 = ADVANCED_BREP_SHAPE_REPRESENTATION('',(#11,#15),#183);
#11 = AXIS2_PLACEMENT_3D('',#12,#13,#14);
#12 = CARTESIAN_POINT('',(0.,0.,0.));
#13 = DIRECTION('',(0.,0.,1.));
#14 = DIRECTION('',(1.,0.,-0.));
#15 = MANIFOLD_SOLID_BREP('',#16);
#16 = CLOSED_SHELL('',(#17,#53,#88,#110,#132,#155,#170));
#17 = ADVANCED_FACE('',(#18),#48,.F.);
#18 = FACE_BOUND('',#19,.F.);
#19 = EDGE_LOOP('',(#20,#29,#36,#43));
#20 = ORIENTED_EDGE('',*,*,#21,.F.);
#21 = EDGE_CURVE('',#22,#24,#26,.T.);
#22 = VERTEX_POINT('',#23);
#23 = CARTESIAN_POINT('',(-20.50555349946,5.494446500535,-15.01110699893
    ));
#24 = VERTEX_POINT('',#25);
#25 = CARTESIAN_POINT('',(-35.51666049839,-9.516660498395,
    -8.881784197001E-16));
#26 = B_SPLINE_CURVE_WITH_KNOTS('',1,(#27,#28),.UNSPECIFIED.,.F.,.F.,(2,
    2),(0.,26.),.PIECEWISE_BEZIER_KNOTS.);
#27 = CARTESIAN_POINT('',(-20.50555349946,5.494446500535,-15.01110699893
    ));
#28 = CARTESIAN_POINT('',(-35.51666049839,-9.516660498395,
    -8.881784197001E-16));
#29 = ORIENTED_EDGE('',*,*,#30,.T.);
#30 = EDGE_CURVE('',#22,#31,#33,.T.);
#31 = VERTEX_POINT('',#32);
#32 = CARTESIAN_POINT('',(-26.,26.,8.881784197001E-16));
#33 = B_SPLINE_CURVE_WITH_KNOTS('',1,(#34,#35),.UNSPECIFIED.,.F.,.F.,(2,
    2),(0.,26.),.PIECEWISE_BEZIER_KNOTS.);
#34 = CARTESIAN_POINT('',(-20.50555349946,5.494446500535,-15.01110699893
    ));
#35 = CARTESIAN_POINT('',(-26.,26.,8.881784197001E-16));
#36 = ORIENTED_EDGE('',*,*,#37,.T.);
#37 = EDGE_CURVE('',#31,#38,#40,.T.);
#38 = VERTEX_POINT('',#39);
#39 = CARTESIAN_POINT('',(-41.01110699893,10.98889300107,15.01110699893)
  );
#40 = B_SPLINE_CURVE_WITH_KNOTS('',1,(#41,#42),.UNSPECIFIED.,.F.,.F.,(2,
    2),(0.,26.),.PIECEWISE_BEZIER_KNOTS.);
#41 = CARTESIAN_POINT('',(-26.,26.,8.881784197001E-16));
#42 = CARTESIAN_POINT('',(-41.01110699893,10.98889300107,15.01110699893)
  );
#43 = ORIENTED_EDGE('',*,*,#44,.F.);
#44 = EDGE_CURVE('',#24,#38,#45,.T.);
#45 = B_SPLINE_CURVE_WITH_KNOTS('',1,(#46,#47),.UNSPECIFIED.,.F.,.F.,(2,
    2),(0.,26.),.PIECEWISE_BEZIER_KNOTS.);
#46 = CARTESIAN_POINT('',(-35.51666049839,-9.516660498395,
    -8.881784197001E-16));
#47 = CARTESIAN_POINT('',(-41.01110699893,10.98889300107,15.01110699893)
  );
#48 = B_SPLINE_SURFACE_WITH_KNOTS('',1,1,(
    (#49,#50)
    ,(#51,#52
  )),.UNSPECIFIED.,.F.,.F.,.F.,(2,2),(2,2),(0.,26.),(-26.,0.),
  .PIECEWISE_BEZIER_KNOTS.);
#49 = CARTESIAN_POINT('',(-26.,26.,8.881784197001E-16));
#50 = CARTESIAN_POINT('',(-20.50555349946,5.494446500535,-15.01110699893
    ));
#51 = CARTESIAN_POINT('',(-41.01110699893,10.98889300107,15.01110699893)
  );
#52 = CARTESIAN_POINT('',(-35.51666049839,-9.516660498395,
    -8.881784197001E-16));
#53 = ADVANCED_FACE('',(#54),#83,.F.);
#54 = FACE_BOUND('',#55,.F.);
#55 = EDGE_LOOP('',(#56,#63,#64,#71,#78));
#56 = ORIENTED_EDGE('',*,*,#57,.F.);
#57 = EDGE_CURVE('',#22,#58,#60,.T.);
#58 = VERTEX_POINT('',#59);
#59 = CARTESIAN_POINT('',(-4.461420286602,1.195433962891,-3.265986323711
    ));
#60 = B_SPLINE_CURVE_WITH_KNOTS('',1,(#61,#62),.UNSPECIFIED.,.F.,.F.,(2,
    2),(0.,20.343145750508),.PIECEWISE_BEZIER_KNOTS.);
#61 = CARTESIAN_POINT('',(-20.50555349946,5.494446500535,-15.01110699893
    ));
#62 = CARTESIAN_POINT('',(-4.461420286602,1.195433962891,-3.265986323711
    ));
#63 = ORIENTED_EDGE('',*,*,#21,.T.);
#64 = ORIENTED_EDGE('',*,*,#65,.T.);
#65 = EDGE_CURVE('',#24,#66,#68,.T.);
#66 = VERTEX_POINT('',#67);
#67 = CARTESIAN_POINT('',(-15.01110699893,-15.01110699893,15.01110699893
    ));
#68 = B_SPLINE_CURVE_WITH_KNOTS('',1,(#69,#70),.UNSPECIFIED.,.F.,.F.,(2,
    2),(0.,26.),.PIECEWISE_BEZIER_KNOTS.);
#69 = CARTESIAN_POINT('',(-35.51666049839,-9.516660498395,
    -8.881784197001E-16));
#70 = CARTESIAN_POINT('',(-15.01110699893,-15.01110699893,15.01110699893
    ));
#71 = ORIENTED_EDGE('',*,*,#72,.F.);
#72 = EDGE_CURVE('',#73,#66,#75,.T.);
#73 = VERTEX_POINT('',#74);
#74 = CARTESIAN_POINT('',(-3.265986323711,-3.265986323711,3.265986323711
    ));
#75 = B_SPLINE_CURVE_WITH_KNOTS('',1,(#76,#77),.UNSPECIFIED.,.F.,.F.,(2,
    2),(5.656854249492,26.),.PIECEWISE_BEZIER_KNOTS.);
#76 = CARTESIAN_POINT('',(-3.265986323711,-3.265986323711,3.265986323711
    ));
#77 = CARTESIAN_POINT('',(-15.01110699893,-15.01110699893,15.01110699893
    ));
#78 = ORIENTED_EDGE('',*,*,#79,.F.);
#79 = EDGE_CURVE('',#58,#73,#80,.T.);
#80 = B_SPLINE_CURVE_WITH_KNOTS('',1,(#81,#82),.UNSPECIFIED.,.F.,.F.,(2,
    2),(0.,8.),.PIECEWISE_BEZIER_KNOTS.);
#81 = CARTESIAN_POINT('',(-4.461420286602,1.195433962891,-3.265986323711
    ));
#82 = CARTESIAN_POINT('',(-3.265986323711,-3.265986323711,3.265986323711
    ));
#83 = B_SPLINE_SURFACE_WITH_KNOTS('',1,1,(
    (#84,#85)
    ,(#86,#87)),.UNSPECIFIED.,.F.,.F.,.F.,(2,2),(2,2),(0.,26.),(0.,26.),
  .PIECEWISE_BEZIER_KNOTS.);
#84 = CARTESIAN_POINT('',(-20.50555349946,5.494446500535,-15.01110699893
    ));
#85 = CARTESIAN_POINT('',(0.,0.,0.));
#86 = CARTESIAN_POINT('',(-35.51666049839,-9.516660498395,
    -8.881784197001E-16));
#87 = CARTESIAN_POINT('',(-15.01110699893,-15.01110699893,15.01110699893
    ));
#88 = ADVANCED_FACE('',(#89),#105,.T.);
#89 = FACE_BOUND('',#90,.T.);
#90 = EDGE_LOOP('',(#91,#92,#93,#100));
#91 = ORIENTED_EDGE('',*,*,#44,.F.);
#92 = ORIENTED_EDGE('',*,*,#65,.T.);
#93 = ORIENTED_EDGE('',*,*,#94,.T.);
#94 = EDGE_CURVE('',#66,#95,#97,.T.);
#95 = VERTEX_POINT('',#96);
#96 = CARTESIAN_POINT('',(-20.50555349946,5.494446500535,30.022213997861
    ));
#97 = B_SPLINE_CURVE_WITH_KNOTS('',1,(#98,#99),.UNSPECIFIED.,.F.,.F.,(2,
    2),(0.,26.),.PIECEWISE_BEZIER_KNOTS.);
#98 = CARTESIAN_POINT('',(-15.01110699893,-15.01110699893,15.01110699893
    ));
#99 = CARTESIAN_POINT('',(-20.50555349946,5.494446500535,30.022213997861
    ));
#100 = ORIENTED_EDGE('',*,*,#101,.F.);
#101 = EDGE_CURVE('',#38,#95,#102,.T.);
#102 = B_SPLINE_CURVE_WITH_KNOTS('',1,(#103,#104),.UNSPECIFIED.,.F.,.F.,
  (2,2),(0.,26.),.PIECEWISE_BEZIER_KNOTS.);
#103 = CARTESIAN_POINT('',(-41.01110699893,10.98889300107,15.01110699893
    ));
#104 = CARTESIAN_POINT('',(-20.50555349946,5.494446500535,
    30.022213997861));
#105 = B_SPLINE_SURFACE_WITH_KNOTS('',1,1,(
    (#106,#107)
    ,(#108,#109
    )),.UNSPECIFIED.,.F.,.F.,.F.,(2,2),(2,2),(0.,26.),(0.,26.),
  .PIECEWISE_BEZIER_KNOTS.);
#106 = CARTESIAN_POINT('',(-35.51666049839,-9.516660498395,
    -8.881784197001E-16));
#107 = CARTESIAN_POINT('',(-41.01110699893,10.98889300107,15.01110699893
    ));
#108 = CARTESIAN_POINT('',(-15.01110699893,-15.01110699893,
    15.01110699893));
#109 = CARTESIAN_POINT('',(-20.50555349946,5.494446500535,
    30.022213997861));
#110 = ADVANCED_FACE('',(#111),#127,.T.);
#111 = FACE_BOUND('',#112,.T.);
#112 = EDGE_LOOP('',(#113,#120,#121,#122));
#113 = ORIENTED_EDGE('',*,*,#114,.F.);
#114 = EDGE_CURVE('',#31,#115,#117,.T.);
#115 = VERTEX_POINT('',#116);
#116 = CARTESIAN_POINT('',(-5.494446500535,20.505553499465,
    15.01110699893));
#117 = B_SPLINE_CURVE_WITH_KNOTS('',1,(#118,#119),.UNSPECIFIED.,.F.,.F.,
  (2,2),(0.,26.),.PIECEWISE_BEZIER_KNOTS.);
#118 = CARTESIAN_POINT('',(-26.,26.,8.881784197001E-16));
#119 = CARTESIAN_POINT('',(-5.494446500535,20.505553499465,
    15.01110699893));
#120 = ORIENTED_EDGE('',*,*,#37,.T.);
#121 = ORIENTED_EDGE('',*,*,#101,.T.);
#122 = ORIENTED_EDGE('',*,*,#123,.F.);
#123 = EDGE_CURVE('',#115,#95,#124,.T.);
#124 = B_SPLINE_CURVE_WITH_KNOTS('',1,(#125,#126),.UNSPECIFIED.,.F.,.F.,
  (2,2),(0.,26.),.PIECEWISE_BEZIER_KNOTS.);
#125 = CARTESIAN_POINT('',(-5.494446500535,20.505553499465,
    15.01110699893));
#126 = CARTESIAN_POINT('',(-20.50555349946,5.494446500535,
    30.022213997861));
#127 = B_SPLINE_SURFACE_WITH_KNOTS('',1,1,(
    (#128,#129)
    ,(#130,#131
    )),.UNSPECIFIED.,.F.,.F.,.F.,(2,2),(2,2),(0.,26.),(0.,26.),
  .PIECEWISE_BEZIER_KNOTS.);
#128 = CARTESIAN_POINT('',(-26.,26.,8.881784197001E-16));
#129 = CARTESIAN_POINT('',(-5.494446500535,20.505553499465,
    15.01110699893));
#130 = CARTESIAN_POINT('',(-41.01110699893,10.98889300107,15.01110699893
    ));
#131 = CARTESIAN_POINT('',(-20.50555349946,5.494446500535,
    30.022213997861));
#132 = ADVANCED_FACE('',(#133),#150,.F.);
#133 = FACE_BOUND('',#134,.F.);
#134 = EDGE_LOOP('',(#135,#136,#137,#138,#145));
#135 = ORIENTED_EDGE('',*,*,#114,.F.);
#136 = ORIENTED_EDGE('',*,*,#30,.F.);
#137 = ORIENTED_EDGE('',*,*,#57,.T.);
#138 = ORIENTED_EDGE('',*,*,#139,.T.);
#139 = EDGE_CURVE('',#58,#140,#142,.T.);
#140 = VERTEX_POINT('',#141);
#141 = CARTESIAN_POINT('',(-1.195433962891,4.461420286602,3.265986323711
    ));
#142 = B_SPLINE_CURVE_WITH_KNOTS('',1,(#143,#144),.UNSPECIFIED.,.F.,.F.,
  (2,2),(0.,8.),.PIECEWISE_BEZIER_KNOTS.);
#143 = CARTESIAN_POINT('',(-4.461420286602,1.195433962891,
    -3.265986323711));
#144 = CARTESIAN_POINT('',(-1.195433962891,4.461420286602,3.265986323711
    ));
#145 = ORIENTED_EDGE('',*,*,#146,.T.);
#146 = EDGE_CURVE('',#140,#115,#147,.T.);
#147 = B_SPLINE_CURVE_WITH_KNOTS('',1,(#148,#149),.UNSPECIFIED.,.F.,.F.,
  (2,2),(5.656854249492,26.),.PIECEWISE_BEZIER_KNOTS.);
#148 = CARTESIAN_POINT('',(-1.195433962891,4.461420286602,3.265986323711
    ));
#149 = CARTESIAN_POINT('',(-5.494446500535,20.505553499465,
    15.01110699893));
#150 = B_SPLINE_SURFACE_WITH_KNOTS('',1,1,(
    (#151,#152)
    ,(#153,#154
    )),.UNSPECIFIED.,.F.,.F.,.F.,(2,2),(2,2),(0.,26.),(0.,26.),
  .PIECEWISE_BEZIER_KNOTS.);
#151 = CARTESIAN_POINT('',(-20.50555349946,5.494446500535,
    -15.01110699893));
#152 = CARTESIAN_POINT('',(-26.,26.,8.881784197001E-16));
#153 = CARTESIAN_POINT('',(0.,0.,0.));
#154 = CARTESIAN_POINT('',(-5.494446500535,20.505553499465,
    15.01110699893));
#155 = ADVANCED_FACE('',(#156),#165,.T.);
#156 = FACE_BOUND('',#157,.T.);
#157 = EDGE_LOOP('',(#158,#159,#164));
#158 = ORIENTED_EDGE('',*,*,#139,.T.);
#159 = ORIENTED_EDGE('',*,*,#160,.T.);
#160 = EDGE_CURVE('',#140,#73,#161,.T.);
#161 = B_SPLINE_CURVE_WITH_KNOTS('',1,(#162,#163),.UNSPECIFIED.,.F.,.F.,
  (2,2),(0.,8.),.PIECEWISE_BEZIER_KNOTS.);
#162 = CARTESIAN_POINT('',(-1.195433962891,4.461420286602,3.265986323711
    ));
#163 = CARTESIAN_POINT('',(-3.265986323711,-3.265986323711,
    3.265986323711));
#164 = ORIENTED_EDGE('',*,*,#79,.F.);
#165 = B_SPLINE_SURFACE_WITH_KNOTS('',1,1,(
    (#166,#167)
    ,(#168,#169
    )),.UNSPECIFIED.,.F.,.F.,.F.,(2,2),(2,2),(-4.,4.),(-2.309401076759,
    4.618802153517),.PIECEWISE_BEZIER_KNOTS.);
#166 = CARTESIAN_POINT('',(-3.265986323711,-3.265986323711,
    3.265986323711));
#167 = CARTESIAN_POINT('',(-0.597716981445,2.230710143301,6.531972647422
    ));
#168 = CARTESIAN_POINT('',(-4.461420286602,1.195433962891,
    -3.265986323711));
#169 = CARTESIAN_POINT('',(-1.793150944336,6.692130429902,
    -4.791172441321E-17));
#170 = ADVANCED_FACE('',(#171),#178,.T.);
#171 = FACE_BOUND('',#172,.T.);
#172 = EDGE_LOOP('',(#173,#174,#175,#176,#177));
#173 = ORIENTED_EDGE('',*,*,#72,.F.);
#174 = ORIENTED_EDGE('',*,*,#160,.F.);
#175 = ORIENTED_EDGE('',*,*,#146,.T.);
#176 = ORIENTED_EDGE('',*,*,#123,.T.);
#177 = ORIENTED_EDGE('',*,*,#94,.F.);
#178 = B_SPLINE_SURFACE_WITH_KNOTS('',1,1,(
    (#179,#180)
    ,(#181,#182)),.UNSPECIFIED.,.F.,.F.,.F.,(2,2),(2,2),(0.,26.),(-26.,
    2.601414362266E-16),.PIECEWISE_BEZIER_KNOTS.);
#179 = CARTESIAN_POINT('',(-5.494446500535,20.505553499465,
    15.01110699893));
#180 = CARTESIAN_POINT('',(5.49743539969E-17,-2.051670822297E-16,
    -1.501927282328E-16));
#181 = CARTESIAN_POINT('',(-20.50555349946,5.494446500535,
    30.022213997861));
#182 = CARTESIAN_POINT('',(-15.01110699893,-15.01110699893,
    15.01110699893));
#183 = ( GEOMETRIC_REPRESENTATION_CONTEXT(3) 
GLOBAL_UNCERTAINTY_ASSIGNED_CONTEXT((#187)) GLOBAL_UNIT_ASSIGNED_CONTEXT
((#184,#185,#186)) REPRESENTATION_CONTEXT('Context #1',
  '3D Context with UNIT and UNCERTAINTY') );
#184 = ( LENGTH_UNIT() NAMED_UNIT(*) SI_UNIT(.MILLI.,.METRE.) );
#185 = ( NAMED_UNIT(*) PLANE_ANGLE_UNIT() SI_UNIT($,.RADIAN.) );
#186 = ( NAMED_UNIT(*) SI_UNIT($,.STERADIAN.) SOLID_ANGLE_UNIT() );
#187 = UNCERTAINTY_MEASURE_WITH_UNIT(LENGTH_MEASURE(1.E-07),#184,
  'distance_accuracy_value','confusion accuracy');
#188 = PRODUCT_RELATED_PRODUCT_CATEGORY('part',$,(#7));
ENDSEC;
END-ISO-10303-21;
