ISO-10303-21;
HEADER;
FILE_DESCRIPTION(('FreeCAD Model'),'2;1');
FILE_NAME('Open CASCADE Shape Model','2026-07-29T09:33:30',('FreeCAD'),(
    'FreeCAD'),'Open CASCADE STEP processor 7.8','FreeCAD','Unknown');
FILE_SCHEMA(('AUTOMOTIVE_DESIGN { 1 0 10303 214 1 1 1 1 }'));
ENDSEC;
DATA;
#1 = APPLICATION_PROTOCOL_DEFINITION('international standard',
  'automotive_design',2000,#2);
#2 = APPLICATION_CONTEXT(
  'core data for automotive mechanical design processes');
#3 = SHAPE_DEFINITION_REPRESENTATION(#4,#10);
#4 = PRODUCT_DEFINITION_SHAPE('','',#5);
#5 = PRODUCT_DEFINITION('design','',#6,#9);
#6 = PRODUCT_DEFINITION_FORMATION('','',#7);
#7 = PRODUCT('Open CASCADE STEP translator 7.8 5',
  'Open CASCADE STEP translator 7.8 5','',(#8));
#8 = PRODUCT_CONTEXT('',#2,'mechanical');
#9 = PRODUCT_DEFINITION_CONTEXT('part definition',#2,'design');
#10 = ADVANCED_BREP_SHAPE_REPRESENTATION('',(#11,#15),#183);
#11 = AXIS2_PLACEMENT_3D('',#12,#13,#14);
#12 = CARTESIAN_POINT('',(0.,0.,0.));
#13 = DIRECTION('',(0.,0.,1.));
#14 = DIRECTION('',(1.,0.,-0.));
#15 = MANIFOLD_SOLID_BREP('',#16);
#16 = CLOSED_SHELL('',(#17,#60,#95,#110,#133,#155,#171));
#17 = ADVANCED_FACE('',(#18),#55,.F.);
#18 = FACE_BOUND('',#19,.F.);
#19 = EDGE_LOOP('',(#20,#29,#36,#43,#50));
#20 = ORIENTED_EDGE('',*,*,#21,.F.);
#21 = EDGE_CURVE('',#22,#24,#26,.T.);
#22 = VERTEX_POINT('',#23);
#23 = CARTESIAN_POINT('',(5.494446500535,-20.50555349946,-15.01110699893
    ));
#24 = VERTEX_POINT('',#25);
#25 = CARTESIAN_POINT('',(1.195433962891,-4.461420286602,-3.265986323711
    ));
#26 = B_SPLINE_CURVE_WITH_KNOTS('',1,(#27,#28),.UNSPECIFIED.,.F.,.F.,(2,
    2),(0.,20.343145750508),.PIECEWISE_BEZIER_KNOTS.);
#27 = CARTESIAN_POINT('',(5.494446500535,-20.50555349946,-15.01110699893
    ));
#28 = CARTESIAN_POINT('',(1.195433962891,-4.461420286602,-3.265986323711
    ));
#29 = ORIENTED_EDGE('',*,*,#30,.F.);
#30 = EDGE_CURVE('',#31,#22,#33,.T.);
#31 = VERTEX_POINT('',#32);
#32 = CARTESIAN_POINT('',(20.505553499465,-5.494446500535,
    -30.02221399786));
#33 = B_SPLINE_CURVE_WITH_KNOTS('',1,(#34,#35),.UNSPECIFIED.,.F.,.F.,(2,
    2),(0.,26.),.PIECEWISE_BEZIER_KNOTS.);
#34 = CARTESIAN_POINT('',(20.505553499465,-5.494446500535,
    -30.02221399786));
#35 = CARTESIAN_POINT('',(5.494446500535,-20.50555349946,-15.01110699893
    ));
#36 = ORIENTED_EDGE('',*,*,#37,.T.);
#37 = EDGE_CURVE('',#31,#38,#40,.T.);
#38 = VERTEX_POINT('',#39);
#39 = CARTESIAN_POINT('',(15.01110699893,15.01110699893,-15.01110699893)
  );
#40 = B_SPLINE_CURVE_WITH_KNOTS('',1,(#41,#42),.UNSPECIFIED.,.F.,.F.,(2,
    2),(0.,26.),.PIECEWISE_BEZIER_KNOTS.);
#41 = CARTESIAN_POINT('',(20.505553499465,-5.494446500535,
    -30.02221399786));
#42 = CARTESIAN_POINT('',(15.01110699893,15.01110699893,-15.01110699893)
  );
#43 = ORIENTED_EDGE('',*,*,#44,.T.);
#44 = EDGE_CURVE('',#38,#45,#47,.T.);
#45 = VERTEX_POINT('',#46);
#46 = CARTESIAN_POINT('',(3.265986323711,3.265986323711,-3.265986323711)
  );
#47 = B_SPLINE_CURVE_WITH_KNOTS('',1,(#48,#49),.UNSPECIFIED.,.F.,.F.,(2,
    2),(0.,20.343145750508),.PIECEWISE_BEZIER_KNOTS.);
#48 = CARTESIAN_POINT('',(15.01110699893,15.01110699893,-15.01110699893)
  );
#49 = CARTESIAN_POINT('',(3.265986323711,3.265986323711,-3.265986323711)
  );
#50 = ORIENTED_EDGE('',*,*,#51,.F.);
#51 = EDGE_CURVE('',#24,#45,#52,.T.);
#52 = B_SPLINE_CURVE_WITH_KNOTS('',1,(#53,#54),.UNSPECIFIED.,.F.,.F.,(2,
    2),(0.,8.),.PIECEWISE_BEZIER_KNOTS.);
#53 = CARTESIAN_POINT('',(1.195433962891,-4.461420286602,-3.265986323711
    ));
#54 = CARTESIAN_POINT('',(3.265986323711,3.265986323711,-3.265986323711)
  );
#55 = B_SPLINE_SURFACE_WITH_KNOTS('',1,1,(
    (#56,#57)
    ,(#58,#59
  )),.UNSPECIFIED.,.F.,.F.,.F.,(2,2),(2,2),(0.,26.),(-26.,0.),
  .PIECEWISE_BEZIER_KNOTS.);
#56 = CARTESIAN_POINT('',(15.01110699893,15.01110699893,-15.01110699893)
  );
#57 = CARTESIAN_POINT('',(20.505553499465,-5.494446500535,
    -30.02221399786));
#58 = CARTESIAN_POINT('',(0.,0.,0.));
#59 = CARTESIAN_POINT('',(5.494446500535,-20.50555349946,-15.01110699893
    ));
#60 = ADVANCED_FACE('',(#61),#90,.T.);
#61 = FACE_BOUND('',#62,.T.);
#62 = EDGE_LOOP('',(#63,#64,#71,#78,#85));
#63 = ORIENTED_EDGE('',*,*,#21,.F.);
#64 = ORIENTED_EDGE('',*,*,#65,.T.);
#65 = EDGE_CURVE('',#22,#66,#68,.T.);
#66 = VERTEX_POINT('',#67);
#67 = CARTESIAN_POINT('',(26.,-26.,-8.881784197001E-16));
#68 = B_SPLINE_CURVE_WITH_KNOTS('',1,(#69,#70),.UNSPECIFIED.,.F.,.F.,(2,
    2),(0.,26.),.PIECEWISE_BEZIER_KNOTS.);
#69 = CARTESIAN_POINT('',(5.494446500535,-20.50555349946,-15.01110699893
    ));
#70 = CARTESIAN_POINT('',(26.,-26.,-8.881784197001E-16));
#71 = ORIENTED_EDGE('',*,*,#72,.T.);
#72 = EDGE_CURVE('',#66,#73,#75,.T.);
#73 = VERTEX_POINT('',#74);
#74 = CARTESIAN_POINT('',(20.505553499465,-5.494446500535,15.01110699893
    ));
#75 = B_SPLINE_CURVE_WITH_KNOTS('',1,(#76,#77),.UNSPECIFIED.,.F.,.F.,(2,
    2),(0.,26.),.PIECEWISE_BEZIER_KNOTS.);
#76 = CARTESIAN_POINT('',(26.,-26.,-8.881784197001E-16));
#77 = CARTESIAN_POINT('',(20.505553499465,-5.494446500535,15.01110699893
    ));
#78 = ORIENTED_EDGE('',*,*,#79,.F.);
#79 = EDGE_CURVE('',#80,#73,#82,.T.);
#80 = VERTEX_POINT('',#81);
#81 = CARTESIAN_POINT('',(4.461420286602,-1.195433962891,3.265986323711)
  );
#82 = B_SPLINE_CURVE_WITH_KNOTS('',1,(#83,#84),.UNSPECIFIED.,.F.,.F.,(2,
    2),(5.656854249492,26.),.PIECEWISE_BEZIER_KNOTS.);
#83 = CARTESIAN_POINT('',(4.461420286602,-1.195433962891,3.265986323711)
  );
#84 = CARTESIAN_POINT('',(20.505553499465,-5.494446500535,15.01110699893
    ));
#85 = ORIENTED_EDGE('',*,*,#86,.T.);
#86 = EDGE_CURVE('',#80,#24,#87,.T.);
#87 = B_SPLINE_CURVE_WITH_KNOTS('',1,(#88,#89),.UNSPECIFIED.,.F.,.F.,(2,
    2),(0.,8.),.PIECEWISE_BEZIER_KNOTS.);
#88 = CARTESIAN_POINT('',(4.461420286602,-1.195433962891,3.265986323711)
  );
#89 = CARTESIAN_POINT('',(1.195433962891,-4.461420286602,-3.265986323711
    ));
#90 = B_SPLINE_SURFACE_WITH_KNOTS('',1,1,(
    (#91,#92)
    ,(#93,#94
    )),.UNSPECIFIED.,.F.,.F.,.F.,(2,2),(2,2),(-2.601414362266E-16,26.),(
    0.,26.),.PIECEWISE_BEZIER_KNOTS.);
#91 = CARTESIAN_POINT('',(5.494446500535,-20.50555349946,-15.01110699893
    ));
#92 = CARTESIAN_POINT('',(-2.051670822297E-16,5.49743539969E-17,
    -1.501927282328E-16));
#93 = CARTESIAN_POINT('',(26.,-26.,-8.881784197001E-16));
#94 = CARTESIAN_POINT('',(20.505553499465,-5.494446500535,15.01110699893
    ));
#95 = ADVANCED_FACE('',(#96),#105,.F.);
#96 = FACE_BOUND('',#97,.F.);
#97 = EDGE_LOOP('',(#98,#99,#100));
#98 = ORIENTED_EDGE('',*,*,#86,.T.);
#99 = ORIENTED_EDGE('',*,*,#51,.T.);
#100 = ORIENTED_EDGE('',*,*,#101,.F.);
#101 = EDGE_CURVE('',#80,#45,#102,.T.);
#102 = B_SPLINE_CURVE_WITH_KNOTS('',1,(#103,#104),.UNSPECIFIED.,.F.,.F.,
  (2,2),(0.,8.),.PIECEWISE_BEZIER_KNOTS.);
#103 = CARTESIAN_POINT('',(4.461420286602,-1.195433962891,3.265986323711
    ));
#104 = CARTESIAN_POINT('',(3.265986323711,3.265986323711,-3.265986323711
    ));
#105 = B_SPLINE_SURFACE_WITH_KNOTS('',1,1,(
    (#106,#107)
    ,(#108,#109
    )),.UNSPECIFIED.,.F.,.F.,.F.,(2,2),(2,2),(-4.,4.),(-4.618802153517,
    2.309401076759),.PIECEWISE_BEZIER_KNOTS.);
#106 = CARTESIAN_POINT('',(1.793150944336,-6.692130429902,
    4.791172441321E-17));
#107 = CARTESIAN_POINT('',(4.461420286602,-1.195433962891,3.265986323711
    ));
#108 = CARTESIAN_POINT('',(0.597716981445,-2.230710143301,
    -6.531972647422));
#109 = CARTESIAN_POINT('',(3.265986323711,3.265986323711,-3.265986323711
    ));
#110 = ADVANCED_FACE('',(#111),#128,.T.);
#111 = FACE_BOUND('',#112,.T.);
#112 = EDGE_LOOP('',(#113,#120,#125,#126,#127));
#113 = ORIENTED_EDGE('',*,*,#114,.F.);
#114 = EDGE_CURVE('',#115,#73,#117,.T.);
#115 = VERTEX_POINT('',#116);
#116 = CARTESIAN_POINT('',(35.516660498395,9.516660498395,
    8.881784197001E-16));
#117 = B_SPLINE_CURVE_WITH_KNOTS('',1,(#118,#119),.UNSPECIFIED.,.F.,.F.,
  (2,2),(0.,26.),.PIECEWISE_BEZIER_KNOTS.);
#118 = CARTESIAN_POINT('',(35.516660498395,9.516660498395,
    8.881784197001E-16));
#119 = CARTESIAN_POINT('',(20.505553499465,-5.494446500535,
    15.01110699893));
#120 = ORIENTED_EDGE('',*,*,#121,.F.);
#121 = EDGE_CURVE('',#38,#115,#122,.T.);
#122 = B_SPLINE_CURVE_WITH_KNOTS('',1,(#123,#124),.UNSPECIFIED.,.F.,.F.,
  (2,2),(0.,26.),.PIECEWISE_BEZIER_KNOTS.);
#123 = CARTESIAN_POINT('',(15.01110699893,15.01110699893,-15.01110699893
    ));
#124 = CARTESIAN_POINT('',(35.516660498395,9.516660498395,
    8.881784197001E-16));
#125 = ORIENTED_EDGE('',*,*,#44,.T.);
#126 = ORIENTED_EDGE('',*,*,#101,.F.);
#127 = ORIENTED_EDGE('',*,*,#79,.T.);
#128 = B_SPLINE_SURFACE_WITH_KNOTS('',1,1,(
    (#129,#130)
    ,(#131,#132
    )),.UNSPECIFIED.,.F.,.F.,.F.,(2,2),(2,2),(0.,26.),(
    -2.601414362266E-16,26.),.PIECEWISE_BEZIER_KNOTS.);
#129 = CARTESIAN_POINT('',(15.01110699893,15.01110699893,-15.01110699893
    ));
#130 = CARTESIAN_POINT('',(35.516660498395,9.516660498395,
    8.881784197001E-16));
#131 = CARTESIAN_POINT('',(-2.051670822297E-16,5.49743539969E-17,
    -1.501927282328E-16));
#132 = CARTESIAN_POINT('',(20.505553499465,-5.494446500535,
    15.01110699893));
#133 = ADVANCED_FACE('',(#134),#150,.F.);
#134 = FACE_BOUND('',#135,.F.);
#135 = EDGE_LOOP('',(#136,#137,#144,#149));
#136 = ORIENTED_EDGE('',*,*,#37,.F.);
#137 = ORIENTED_EDGE('',*,*,#138,.T.);
#138 = EDGE_CURVE('',#31,#139,#141,.T.);
#139 = VERTEX_POINT('',#140);
#140 = CARTESIAN_POINT('',(41.01110699893,-10.98889300107,
    -15.01110699893));
#141 = B_SPLINE_CURVE_WITH_KNOTS('',1,(#142,#143),.UNSPECIFIED.,.F.,.F.,
  (2,2),(0.,26.),.PIECEWISE_BEZIER_KNOTS.);
#142 = CARTESIAN_POINT('',(20.505553499465,-5.494446500535,
    -30.02221399786));
#143 = CARTESIAN_POINT('',(41.01110699893,-10.98889300107,
    -15.01110699893));
#144 = ORIENTED_EDGE('',*,*,#145,.T.);
#145 = EDGE_CURVE('',#139,#115,#146,.T.);
#146 = B_SPLINE_CURVE_WITH_KNOTS('',1,(#147,#148),.UNSPECIFIED.,.F.,.F.,
  (2,2),(0.,26.),.PIECEWISE_BEZIER_KNOTS.);
#147 = CARTESIAN_POINT('',(41.01110699893,-10.98889300107,
    -15.01110699893));
#148 = CARTESIAN_POINT('',(35.516660498395,9.516660498395,
    8.881784197001E-16));
#149 = ORIENTED_EDGE('',*,*,#121,.F.);
#150 = B_SPLINE_SURFACE_WITH_KNOTS('',1,1,(
    (#151,#152)
    ,(#153,#154
    )),.UNSPECIFIED.,.F.,.F.,.F.,(2,2),(2,2),(0.,26.),(0.,26.),
  .PIECEWISE_BEZIER_KNOTS.);
#151 = CARTESIAN_POINT('',(20.505553499465,-5.494446500535,
    -30.02221399786));
#152 = CARTESIAN_POINT('',(15.01110699893,15.01110699893,-15.01110699893
    ));
#153 = CARTESIAN_POINT('',(41.01110699893,-10.98889300107,
    -15.01110699893));
#154 = CARTESIAN_POINT('',(35.516660498395,9.516660498395,
    8.881784197001E-16));
#155 = ADVANCED_FACE('',(#156),#166,.F.);
#156 = FACE_BOUND('',#157,.F.);
#157 = EDGE_LOOP('',(#158,#159,#160,#161));
#158 = ORIENTED_EDGE('',*,*,#138,.F.);
#159 = ORIENTED_EDGE('',*,*,#30,.T.);
#160 = ORIENTED_EDGE('',*,*,#65,.T.);
#161 = ORIENTED_EDGE('',*,*,#162,.F.);
#162 = EDGE_CURVE('',#139,#66,#163,.T.);
#163 = B_SPLINE_CURVE_WITH_KNOTS('',1,(#164,#165),.UNSPECIFIED.,.F.,.F.,
  (2,2),(0.,26.),.PIECEWISE_BEZIER_KNOTS.);
#164 = CARTESIAN_POINT('',(41.01110699893,-10.98889300107,
    -15.01110699893));
#165 = CARTESIAN_POINT('',(26.,-26.,-8.881784197001E-16));
#166 = B_SPLINE_SURFACE_WITH_KNOTS('',1,1,(
    (#167,#168)
    ,(#169,#170
    )),.UNSPECIFIED.,.F.,.F.,.F.,(2,2),(2,2),(0.,26.),(0.,26.),
  .PIECEWISE_BEZIER_KNOTS.);
#167 = CARTESIAN_POINT('',(20.505553499465,-5.494446500535,
    -30.02221399786));
#168 = CARTESIAN_POINT('',(41.01110699893,-10.98889300107,
    -15.01110699893));
#169 = CARTESIAN_POINT('',(5.494446500535,-20.50555349946,
    -15.01110699893));
#170 = CARTESIAN_POINT('',(26.,-26.,-8.881784197001E-16));
#171 = ADVANCED_FACE('',(#172),#178,.T.);
#172 = FACE_BOUND('',#173,.T.);
#173 = EDGE_LOOP('',(#174,#175,#176,#177));
#174 = ORIENTED_EDGE('',*,*,#162,.F.);
#175 = ORIENTED_EDGE('',*,*,#145,.T.);
#176 = ORIENTED_EDGE('',*,*,#114,.T.);
#177 = ORIENTED_EDGE('',*,*,#72,.F.);
#178 = B_SPLINE_SURFACE_WITH_KNOTS('',1,1,(
    (#179,#180)
    ,(#181,#182
    )),.UNSPECIFIED.,.F.,.F.,.F.,(2,2),(2,2),(0.,26.),(-26.,0.),
  .PIECEWISE_BEZIER_KNOTS.);
#179 = CARTESIAN_POINT('',(35.516660498395,9.516660498395,
    8.881784197001E-16));
#180 = CARTESIAN_POINT('',(41.01110699893,-10.98889300107,
    -15.01110699893));
#181 = CARTESIAN_POINT('',(20.505553499465,-5.494446500535,
    15.01110699893));
#182 = CARTESIAN_POINT('',(26.,-26.,-8.881784197001E-16));
#183 = ( GEOMETRIC_REPRESENTATION_CONTEXT(3) 
GLOBAL_UNCERTAINTY_ASSIGNED_CONTEXT((#187)) GLOBAL_UNIT_ASSIGNED_CONTEXT
((#184,#185,#186)) REPRESENTATION_CONTEXT('Context #1',
  '3D Context with UNIT and UNCERTAINTY') );
#184 = ( LENGTH_UNIT() NAMED_UNIT(*) SI_UNIT(.MILLI.,.METRE.) );
#185 = ( NAMED_UNIT(*) PLANE_ANGLE_UNIT() SI_UNIT($,.RADIAN.) );
#186 = ( NAMED_UNIT(*) SI_UNIT($,.STERADIAN.) SOLID_ANGLE_UNIT() );
#187 = UNCERTAINTY_MEASURE_WITH_UNIT(LENGTH_MEASURE(1.E-07),#184,
  'distance_accuracy_value','confusion accuracy');
#188 = PRODUCT_RELATED_PRODUCT_CATEGORY('part',$,(#7));
ENDSEC;
END-ISO-10303-21;
