ISO-10303-21;
HEADER;
FILE_DESCRIPTION(('FreeCAD Model'),'2;1');
FILE_NAME('Open CASCADE Shape Model','2026-07-29T09:33:30',('FreeCAD'),(
    'FreeCAD'),'Open CASCADE STEP processor 7.8','FreeCAD','Unknown');
FILE_SCHEMA(('AUTOMOTIVE_DESIGN { 1 0 10303 214 1 1 1 1 }'));
ENDSEC;
DATA;
#1 = APPLICATION_PROTOCOL_DEFINITION('international standard',
  'automotive_design',2000,#2);
#2 = APPLICATION_CONTEXT(
  'core data for automotive mechanical design processes');
#3 = SHAPE_DEFINITION_REPRESENTATION(#4,#10);
#4 = PRODUCT_DEFINITION_SHAPE('','',#5);
#5 = PRODUCT_DEFINITION('design','',#6,#9);
#6 = PRODUCT_DEFINITION_FORMATION('','',#7);
#7 = PRODUCT('Open CASCADE STEP translator 7.8 7',
  'Open CASCADE STEP translator 7.8 7','',(#8));
#8 = PRODUCT_CONTEXT('',#2,'mechanical');
#9 = PRODUCT_DEFINITION_CONTEXT('part definition',#2,'design');
#10 = ADVANCED_BREP_SHAPE_REPRESENTATION('',(#11,#15),#183);
#11 = AXIS2_PLACEMENT_3D('',#12,#13,#14);
#12 = CARTESIAN_POINT('',(0.,0.,0.));
#13 = DIRECTION('',(0.,0.,1.));
#14 = DIRECTION('',(1.,0.,-0.));
#15 = MANIFOLD_SOLID_BREP('',#16);
#16 = CLOSED_SHELL('',(#17,#60,#95,#110,#133,#155,#171));
#17 = ADVANCED_FACE('',(#18),#55,.F.);
#18 = FACE_BOUND('',#19,.F.);
#19 = EDGE_LOOP('',(#20,#29,#36,#43,#50));
#20 = ORIENTED_EDGE('',*,*,#21,.F.);
#21 = EDGE_CURVE('',#22,#24,#26,.T.);
#22 = VERTEX_POINT('',#23);
#23 = CARTESIAN_POINT('',(15.01110699893,15.01110699893,-15.01110699893)
  );
#24 = VERTEX_POINT('',#25);
#25 = CARTESIAN_POINT('',(3.265986323711,3.265986323711,-3.265986323711)
  );
#26 = B_SPLINE_CURVE_WITH_KNOTS('',1,(#27,#28),.UNSPECIFIED.,.F.,.F.,(2,
    2),(0.,20.343145750508),.PIECEWISE_BEZIER_KNOTS.);
#27 = CARTESIAN_POINT('',(15.01110699893,15.01110699893,-15.01110699893)
  );
#28 = CARTESIAN_POINT('',(3.265986323711,3.265986323711,-3.265986323711)
  );
#29 = ORIENTED_EDGE('',*,*,#30,.T.);
#30 = EDGE_CURVE('',#22,#31,#33,.T.);
#31 = VERTEX_POINT('',#32);
#32 = CARTESIAN_POINT('',(9.516660498395,35.516660498395,
    8.881784197001E-16));
#33 = B_SPLINE_CURVE_WITH_KNOTS('',1,(#34,#35),.UNSPECIFIED.,.F.,.F.,(2,
    2),(0.,26.),.PIECEWISE_BEZIER_KNOTS.);
#34 = CARTESIAN_POINT('',(15.01110699893,15.01110699893,-15.01110699893)
  );
#35 = CARTESIAN_POINT('',(9.516660498395,35.516660498395,
    8.881784197001E-16));
#36 = ORIENTED_EDGE('',*,*,#37,.T.);
#37 = EDGE_CURVE('',#31,#38,#40,.T.);
#38 = VERTEX_POINT('',#39);
#39 = CARTESIAN_POINT('',(-5.494446500535,20.505553499465,15.01110699893
    ));
#40 = B_SPLINE_CURVE_WITH_KNOTS('',1,(#41,#42),.UNSPECIFIED.,.F.,.F.,(2,
    2),(0.,26.),.PIECEWISE_BEZIER_KNOTS.);
#41 = CARTESIAN_POINT('',(9.516660498395,35.516660498395,
    8.881784197001E-16));
#42 = CARTESIAN_POINT('',(-5.494446500535,20.505553499465,15.01110699893
    ));
#43 = ORIENTED_EDGE('',*,*,#44,.F.);
#44 = EDGE_CURVE('',#45,#38,#47,.T.);
#45 = VERTEX_POINT('',#46);
#46 = CARTESIAN_POINT('',(-1.195433962891,4.461420286602,3.265986323711)
  );
#47 = B_SPLINE_CURVE_WITH_KNOTS('',1,(#48,#49),.UNSPECIFIED.,.F.,.F.,(2,
    2),(5.656854249492,26.),.PIECEWISE_BEZIER_KNOTS.);
#48 = CARTESIAN_POINT('',(-1.195433962891,4.461420286602,3.265986323711)
  );
#49 = CARTESIAN_POINT('',(-5.494446500535,20.505553499465,15.01110699893
    ));
#50 = ORIENTED_EDGE('',*,*,#51,.T.);
#51 = EDGE_CURVE('',#45,#24,#52,.T.);
#52 = B_SPLINE_CURVE_WITH_KNOTS('',1,(#53,#54),.UNSPECIFIED.,.F.,.F.,(2,
    2),(0.,8.),.PIECEWISE_BEZIER_KNOTS.);
#53 = CARTESIAN_POINT('',(-1.195433962891,4.461420286602,3.265986323711)
  );
#54 = CARTESIAN_POINT('',(3.265986323711,3.265986323711,-3.265986323711)
  );
#55 = B_SPLINE_SURFACE_WITH_KNOTS('',1,1,(
    (#56,#57)
    ,(#58,#59)),.UNSPECIFIED.,.F.,.F.,.F.,(2,2),(2,2),(0.,26.),(-26.,
    2.601414362266E-16),.PIECEWISE_BEZIER_KNOTS.);
#56 = CARTESIAN_POINT('',(9.516660498395,35.516660498395,
    8.881784197001E-16));
#57 = CARTESIAN_POINT('',(15.01110699893,15.01110699893,-15.01110699893)
  );
#58 = CARTESIAN_POINT('',(-5.494446500535,20.505553499465,15.01110699893
    ));
#59 = CARTESIAN_POINT('',(5.49743539969E-17,-2.051670822297E-16,
    -1.501927282328E-16));
#60 = ADVANCED_FACE('',(#61),#90,.F.);
#61 = FACE_BOUND('',#62,.F.);
#62 = EDGE_LOOP('',(#63,#72,#77,#78,#85));
#63 = ORIENTED_EDGE('',*,*,#64,.F.);
#64 = EDGE_CURVE('',#65,#67,#69,.T.);
#65 = VERTEX_POINT('',#66);
#66 = CARTESIAN_POINT('',(35.516660498395,9.516660498395,
    8.881784197001E-16));
#67 = VERTEX_POINT('',#68);
#68 = CARTESIAN_POINT('',(20.505553499465,-5.494446500535,15.01110699893
    ));
#69 = B_SPLINE_CURVE_WITH_KNOTS('',1,(#70,#71),.UNSPECIFIED.,.F.,.F.,(2,
    2),(0.,26.),.PIECEWISE_BEZIER_KNOTS.);
#70 = CARTESIAN_POINT('',(35.516660498395,9.516660498395,
    8.881784197001E-16));
#71 = CARTESIAN_POINT('',(20.505553499465,-5.494446500535,15.01110699893
    ));
#72 = ORIENTED_EDGE('',*,*,#73,.F.);
#73 = EDGE_CURVE('',#22,#65,#74,.T.);
#74 = B_SPLINE_CURVE_WITH_KNOTS('',1,(#75,#76),.UNSPECIFIED.,.F.,.F.,(2,
    2),(0.,26.),.PIECEWISE_BEZIER_KNOTS.);
#75 = CARTESIAN_POINT('',(15.01110699893,15.01110699893,-15.01110699893)
  );
#76 = CARTESIAN_POINT('',(35.516660498395,9.516660498395,
    8.881784197001E-16));
#77 = ORIENTED_EDGE('',*,*,#21,.T.);
#78 = ORIENTED_EDGE('',*,*,#79,.F.);
#79 = EDGE_CURVE('',#80,#24,#82,.T.);
#80 = VERTEX_POINT('',#81);
#81 = CARTESIAN_POINT('',(4.461420286602,-1.195433962891,3.265986323711)
  );
#82 = B_SPLINE_CURVE_WITH_KNOTS('',1,(#83,#84),.UNSPECIFIED.,.F.,.F.,(2,
    2),(0.,8.),.PIECEWISE_BEZIER_KNOTS.);
#83 = CARTESIAN_POINT('',(4.461420286602,-1.195433962891,3.265986323711)
  );
#84 = CARTESIAN_POINT('',(3.265986323711,3.265986323711,-3.265986323711)
  );
#85 = ORIENTED_EDGE('',*,*,#86,.T.);
#86 = EDGE_CURVE('',#80,#67,#87,.T.);
#87 = B_SPLINE_CURVE_WITH_KNOTS('',1,(#88,#89),.UNSPECIFIED.,.F.,.F.,(2,
    2),(5.656854249492,26.),.PIECEWISE_BEZIER_KNOTS.);
#88 = CARTESIAN_POINT('',(4.461420286602,-1.195433962891,3.265986323711)
  );
#89 = CARTESIAN_POINT('',(20.505553499465,-5.494446500535,15.01110699893
    ));
#90 = B_SPLINE_SURFACE_WITH_KNOTS('',1,1,(
    (#91,#92)
    ,(#93,#94
    )),.UNSPECIFIED.,.F.,.F.,.F.,(2,2),(2,2),(0.,26.),(
    -2.601414362266E-16,26.),.PIECEWISE_BEZIER_KNOTS.);
#91 = CARTESIAN_POINT('',(15.01110699893,15.01110699893,-15.01110699893)
  );
#92 = CARTESIAN_POINT('',(35.516660498395,9.516660498395,
    8.881784197001E-16));
#93 = CARTESIAN_POINT('',(-2.051670822297E-16,5.49743539969E-17,
    -1.501927282328E-16));
#94 = CARTESIAN_POINT('',(20.505553499465,-5.494446500535,15.01110699893
    ));
#95 = ADVANCED_FACE('',(#96),#105,.T.);
#96 = FACE_BOUND('',#97,.T.);
#97 = EDGE_LOOP('',(#98,#103,#104));
#98 = ORIENTED_EDGE('',*,*,#99,.T.);
#99 = EDGE_CURVE('',#80,#45,#100,.T.);
#100 = B_SPLINE_CURVE_WITH_KNOTS('',1,(#101,#102),.UNSPECIFIED.,.F.,.F.,
  (2,2),(0.,8.),.PIECEWISE_BEZIER_KNOTS.);
#101 = CARTESIAN_POINT('',(4.461420286602,-1.195433962891,3.265986323711
    ));
#102 = CARTESIAN_POINT('',(-1.195433962891,4.461420286602,3.265986323711
    ));
#103 = ORIENTED_EDGE('',*,*,#51,.T.);
#104 = ORIENTED_EDGE('',*,*,#79,.F.);
#105 = B_SPLINE_SURFACE_WITH_KNOTS('',1,1,(
    (#106,#107)
    ,(#108,#109
    )),.UNSPECIFIED.,.F.,.F.,.F.,(2,2),(2,2),(-4.,4.),(-2.309401076759,
    4.618802153517),.PIECEWISE_BEZIER_KNOTS.);
#106 = CARTESIAN_POINT('',(3.265986323711,3.265986323711,-3.265986323711
    ));
#107 = CARTESIAN_POINT('',(-1.793150944336,6.692130429902,
    5.335791651413E-16));
#108 = CARTESIAN_POINT('',(4.461420286602,-1.195433962891,3.265986323711
    ));
#109 = CARTESIAN_POINT('',(-0.597716981445,2.230710143301,6.531972647422
    ));
#110 = ADVANCED_FACE('',(#111),#128,.T.);
#111 = FACE_BOUND('',#112,.T.);
#112 = EDGE_LOOP('',(#113,#114,#115,#116,#123));
#113 = ORIENTED_EDGE('',*,*,#44,.F.);
#114 = ORIENTED_EDGE('',*,*,#99,.F.);
#115 = ORIENTED_EDGE('',*,*,#86,.T.);
#116 = ORIENTED_EDGE('',*,*,#117,.T.);
#117 = EDGE_CURVE('',#67,#118,#120,.T.);
#118 = VERTEX_POINT('',#119);
#119 = CARTESIAN_POINT('',(15.01110699893,15.01110699893,30.022213997861
    ));
#120 = B_SPLINE_CURVE_WITH_KNOTS('',1,(#121,#122),.UNSPECIFIED.,.F.,.F.,
  (2,2),(0.,26.),.PIECEWISE_BEZIER_KNOTS.);
#121 = CARTESIAN_POINT('',(20.505553499465,-5.494446500535,
    15.01110699893));
#122 = CARTESIAN_POINT('',(15.01110699893,15.01110699893,30.022213997861
    ));
#123 = ORIENTED_EDGE('',*,*,#124,.F.);
#124 = EDGE_CURVE('',#38,#118,#125,.T.);
#125 = B_SPLINE_CURVE_WITH_KNOTS('',1,(#126,#127),.UNSPECIFIED.,.F.,.F.,
  (2,2),(0.,26.),.PIECEWISE_BEZIER_KNOTS.);
#126 = CARTESIAN_POINT('',(-5.494446500535,20.505553499465,
    15.01110699893));
#127 = CARTESIAN_POINT('',(15.01110699893,15.01110699893,30.022213997861
    ));
#128 = B_SPLINE_SURFACE_WITH_KNOTS('',1,1,(
    (#129,#130)
    ,(#131,#132
    )),.UNSPECIFIED.,.F.,.F.,.F.,(2,2),(2,2),(-2.601414362266E-16,26.),(
    0.,26.),.PIECEWISE_BEZIER_KNOTS.);
#129 = CARTESIAN_POINT('',(-2.051670822297E-16,5.49743539969E-17,
    -1.501927282328E-16));
#130 = CARTESIAN_POINT('',(-5.494446500535,20.505553499465,
    15.01110699893));
#131 = CARTESIAN_POINT('',(20.505553499465,-5.494446500535,
    15.01110699893));
#132 = CARTESIAN_POINT('',(15.01110699893,15.01110699893,30.022213997861
    ));
#133 = ADVANCED_FACE('',(#134),#150,.T.);
#134 = FACE_BOUND('',#135,.T.);
#135 = EDGE_LOOP('',(#136,#143,#144,#145));
#136 = ORIENTED_EDGE('',*,*,#137,.F.);
#137 = EDGE_CURVE('',#31,#138,#140,.T.);
#138 = VERTEX_POINT('',#139);
#139 = CARTESIAN_POINT('',(30.022213997861,30.022213997861,
    15.01110699893));
#140 = B_SPLINE_CURVE_WITH_KNOTS('',1,(#141,#142),.UNSPECIFIED.,.F.,.F.,
  (2,2),(0.,26.),.PIECEWISE_BEZIER_KNOTS.);
#141 = CARTESIAN_POINT('',(9.516660498395,35.516660498395,
    8.881784197001E-16));
#142 = CARTESIAN_POINT('',(30.022213997861,30.022213997861,
    15.01110699893));
#143 = ORIENTED_EDGE('',*,*,#37,.T.);
#144 = ORIENTED_EDGE('',*,*,#124,.T.);
#145 = ORIENTED_EDGE('',*,*,#146,.F.);
#146 = EDGE_CURVE('',#138,#118,#147,.T.);
#147 = B_SPLINE_CURVE_WITH_KNOTS('',1,(#148,#149),.UNSPECIFIED.,.F.,.F.,
  (2,2),(0.,26.),.PIECEWISE_BEZIER_KNOTS.);
#148 = CARTESIAN_POINT('',(30.022213997861,30.022213997861,
    15.01110699893));
#149 = CARTESIAN_POINT('',(15.01110699893,15.01110699893,30.022213997861
    ));
#150 = B_SPLINE_SURFACE_WITH_KNOTS('',1,1,(
    (#151,#152)
    ,(#153,#154
    )),.UNSPECIFIED.,.F.,.F.,.F.,(2,2),(2,2),(0.,26.),(0.,26.),
  .PIECEWISE_BEZIER_KNOTS.);
#151 = CARTESIAN_POINT('',(9.516660498395,35.516660498395,
    8.881784197001E-16));
#152 = CARTESIAN_POINT('',(30.022213997861,30.022213997861,
    15.01110699893));
#153 = CARTESIAN_POINT('',(-5.494446500535,20.505553499465,
    15.01110699893));
#154 = CARTESIAN_POINT('',(15.01110699893,15.01110699893,30.022213997861
    ));
#155 = ADVANCED_FACE('',(#156),#166,.F.);
#156 = FACE_BOUND('',#157,.F.);
#157 = EDGE_LOOP('',(#158,#159,#160,#165));
#158 = ORIENTED_EDGE('',*,*,#30,.F.);
#159 = ORIENTED_EDGE('',*,*,#73,.T.);
#160 = ORIENTED_EDGE('',*,*,#161,.T.);
#161 = EDGE_CURVE('',#65,#138,#162,.T.);
#162 = B_SPLINE_CURVE_WITH_KNOTS('',1,(#163,#164),.UNSPECIFIED.,.F.,.F.,
  (2,2),(0.,26.),.PIECEWISE_BEZIER_KNOTS.);
#163 = CARTESIAN_POINT('',(35.516660498395,9.516660498395,
    8.881784197001E-16));
#164 = CARTESIAN_POINT('',(30.022213997861,30.022213997861,
    15.01110699893));
#165 = ORIENTED_EDGE('',*,*,#137,.F.);
#166 = B_SPLINE_SURFACE_WITH_KNOTS('',1,1,(
    (#167,#168)
    ,(#169,#170
    )),.UNSPECIFIED.,.F.,.F.,.F.,(2,2),(2,2),(0.,26.),(0.,26.),
  .PIECEWISE_BEZIER_KNOTS.);
#167 = CARTESIAN_POINT('',(15.01110699893,15.01110699893,-15.01110699893
    ));
#168 = CARTESIAN_POINT('',(9.516660498395,35.516660498395,
    8.881784197001E-16));
#169 = CARTESIAN_POINT('',(35.516660498395,9.516660498395,
    8.881784197001E-16));
#170 = CARTESIAN_POINT('',(30.022213997861,30.022213997861,
    15.01110699893));
#171 = ADVANCED_FACE('',(#172),#178,.T.);
#172 = FACE_BOUND('',#173,.T.);
#173 = EDGE_LOOP('',(#174,#175,#176,#177));
#174 = ORIENTED_EDGE('',*,*,#64,.F.);
#175 = ORIENTED_EDGE('',*,*,#161,.T.);
#176 = ORIENTED_EDGE('',*,*,#146,.T.);
#177 = ORIENTED_EDGE('',*,*,#117,.F.);
#178 = B_SPLINE_SURFACE_WITH_KNOTS('',1,1,(
    (#179,#180)
    ,(#181,#182
    )),.UNSPECIFIED.,.F.,.F.,.F.,(2,2),(2,2),(0.,26.),(-26.,0.),
  .PIECEWISE_BEZIER_KNOTS.);
#179 = CARTESIAN_POINT('',(30.022213997861,30.022213997861,
    15.01110699893));
#180 = CARTESIAN_POINT('',(35.516660498395,9.516660498395,
    8.881784197001E-16));
#181 = CARTESIAN_POINT('',(15.01110699893,15.01110699893,30.022213997861
    ));
#182 = CARTESIAN_POINT('',(20.505553499465,-5.494446500535,
    15.01110699893));
#183 = ( GEOMETRIC_REPRESENTATION_CONTEXT(3) 
GLOBAL_UNCERTAINTY_ASSIGNED_CONTEXT((#187)) GLOBAL_UNIT_ASSIGNED_CONTEXT
((#184,#185,#186)) REPRESENTATION_CONTEXT('Context #1',
  '3D Context with UNIT and UNCERTAINTY') );
#184 = ( LENGTH_UNIT() NAMED_UNIT(*) SI_UNIT(.MILLI.,.METRE.) );
#185 = ( NAMED_UNIT(*) PLANE_ANGLE_UNIT() SI_UNIT($,.RADIAN.) );
#186 = ( NAMED_UNIT(*) SI_UNIT($,.STERADIAN.) SOLID_ANGLE_UNIT() );
#187 = UNCERTAINTY_MEASURE_WITH_UNIT(LENGTH_MEASURE(1.E-07),#184,
  'distance_accuracy_value','confusion accuracy');
#188 = PRODUCT_RELATED_PRODUCT_CATEGORY('part',$,(#7));
ENDSEC;
END-ISO-10303-21;
