ISO-10303-21;
HEADER;
FILE_DESCRIPTION(('FreeCAD Model'),'2;1');
FILE_NAME('Open CASCADE Shape Model','2026-07-29T08:46:34',('FreeCAD'),(
    'FreeCAD'),'Open CASCADE STEP processor 7.8','FreeCAD','Unknown');
FILE_SCHEMA(('AUTOMOTIVE_DESIGN { 1 0 10303 214 1 1 1 1 }'));
ENDSEC;
DATA;
#1 = APPLICATION_PROTOCOL_DEFINITION('international standard',
  'automotive_design',2000,#2);
#2 = APPLICATION_CONTEXT(
  'core data for automotive mechanical design processes');
#3 = SHAPE_DEFINITION_REPRESENTATION(#4,#10);
#4 = PRODUCT_DEFINITION_SHAPE('','',#5);
#5 = PRODUCT_DEFINITION('design','',#6,#9);
#6 = PRODUCT_DEFINITION_FORMATION('','',#7);
#7 = PRODUCT('Open CASCADE STEP translator 7.8 14',
  'Open CASCADE STEP translator 7.8 14','',(#8));
#8 = PRODUCT_CONTEXT('',#2,'mechanical');
#9 = PRODUCT_DEFINITION_CONTEXT('part definition',#2,'design');
#10 = ADVANCED_BREP_SHAPE_REPRESENTATION('',(#11,#15),#733);
#11 = AXIS2_PLACEMENT_3D('',#12,#13,#14);
#12 = CARTESIAN_POINT('',(0.,0.,0.));
#13 = DIRECTION('',(0.,0.,1.));
#14 = DIRECTION('',(1.,0.,-0.));
#15 = MANIFOLD_SOLID_BREP('',#16);
#16 = CLOSED_SHELL('',(#17,#60,#83,#106,#129,#222,#238,#254,#270,#385,
    #427,#437,#479,#497,#524,#548,#590,#607,#631,#673,#690,#702,#715,
    #724));
#17 = ADVANCED_FACE('',(#18,#44),#55,.T.);
#18 = FACE_BOUND('',#19,.T.);
#19 = EDGE_LOOP('',(#20,#30,#38));
#20 = ORIENTED_EDGE('',*,*,#21,.T.);
#21 = EDGE_CURVE('',#22,#24,#26,.T.);
#22 = VERTEX_POINT('',#23);
#23 = CARTESIAN_POINT('',(3.798964771268,6.58,-5.372547502504));
#24 = VERTEX_POINT('',#25);
#25 = CARTESIAN_POINT('',(3.798964771268,-6.58,-5.372547502504));
#26 = LINE('',#27,#28);
#27 = CARTESIAN_POINT('',(3.798964771268,6.58,-5.372547502504));
#28 = VECTOR('',#29,1.);
#29 = DIRECTION('',(-4.3868994894E-16,-1.,0.));
#30 = ORIENTED_EDGE('',*,*,#31,.T.);
#31 = EDGE_CURVE('',#24,#32,#34,.T.);
#32 = VERTEX_POINT('',#33);
#33 = CARTESIAN_POINT('',(-7.597929542535,9.304780094413E-16,
    -5.372547502504));
#34 = LINE('',#35,#36);
#35 = CARTESIAN_POINT('',(3.798964771268,-6.58,-5.372547502504));
#36 = VECTOR('',#37,1.);
#37 = DIRECTION('',(-0.866025403784,0.5,0.));
#38 = ORIENTED_EDGE('',*,*,#39,.T.);
#39 = EDGE_CURVE('',#32,#22,#40,.T.);
#40 = LINE('',#41,#42);
#41 = CARTESIAN_POINT('',(-7.597929542535,9.304780094413E-16,
    -5.372547502504));
#42 = VECTOR('',#43,1.);
#43 = DIRECTION('',(0.866025403784,0.5,0.));
#44 = FACE_BOUND('',#45,.T.);
#45 = EDGE_LOOP('',(#46));
#46 = ORIENTED_EDGE('',*,*,#47,.T.);
#47 = EDGE_CURVE('',#48,#48,#50,.T.);
#48 = VERTEX_POINT('',#49);
#49 = CARTESIAN_POINT('',(2.55,-6.245698675652E-16,-5.372547502504));
#50 = CIRCLE('',#51,2.55);
#51 = AXIS2_PLACEMENT_3D('',#52,#53,#54);
#52 = CARTESIAN_POINT('',(0.,0.,-5.372547502504));
#53 = DIRECTION('',(0.,0.,1.));
#54 = DIRECTION('',(1.,0.,-0.));
#55 = PLANE('',#56);
#56 = AXIS2_PLACEMENT_3D('',#57,#58,#59);
#57 = CARTESIAN_POINT('',(-1.259827545674E-15,-8.998768183385E-16,
    -5.372547502504));
#58 = DIRECTION('',(-0.,-0.,-1.));
#59 = DIRECTION('',(-1.,0.,0.));
#60 = ADVANCED_FACE('',(#61),#78,.T.);
#61 = FACE_BOUND('',#62,.T.);
#62 = EDGE_LOOP('',(#63,#64,#72));
#63 = ORIENTED_EDGE('',*,*,#21,.F.);
#64 = ORIENTED_EDGE('',*,*,#65,.T.);
#65 = EDGE_CURVE('',#22,#66,#68,.T.);
#66 = VERTEX_POINT('',#67);
#67 = CARTESIAN_POINT('',(7.597929542535,0.,5.372547502504));
#68 = LINE('',#69,#70);
#69 = CARTESIAN_POINT('',(3.798964771268,6.58,-5.372547502504));
#70 = VECTOR('',#71,1.);
#71 = DIRECTION('',(0.288675134595,-0.5,0.816496580928));
#72 = ORIENTED_EDGE('',*,*,#73,.T.);
#73 = EDGE_CURVE('',#66,#24,#74,.T.);
#74 = LINE('',#75,#76);
#75 = CARTESIAN_POINT('',(7.597929542535,0.,5.372547502504));
#76 = VECTOR('',#77,1.);
#77 = DIRECTION('',(-0.288675134595,-0.5,-0.816496580928));
#78 = PLANE('',#79);
#79 = AXIS2_PLACEMENT_3D('',#80,#81,#82);
#80 = CARTESIAN_POINT('',(5.06528636169,-1.619778273009E-15,
    -1.790849167501));
#81 = DIRECTION('',(0.942809041582,-3.81616217206E-16,-0.333333333333));
#82 = DIRECTION('',(0.333333333333,4.261308139337E-33,0.942809041582));
#83 = ADVANCED_FACE('',(#84),#101,.T.);
#84 = FACE_BOUND('',#85,.T.);
#85 = EDGE_LOOP('',(#86,#87,#95));
#86 = ORIENTED_EDGE('',*,*,#39,.F.);
#87 = ORIENTED_EDGE('',*,*,#88,.T.);
#88 = EDGE_CURVE('',#32,#89,#91,.T.);
#89 = VERTEX_POINT('',#90);
#90 = CARTESIAN_POINT('',(-3.798964771268,6.58,5.372547502504));
#91 = LINE('',#92,#93);
#92 = CARTESIAN_POINT('',(-7.597929542535,9.304780094413E-16,
    -5.372547502504));
#93 = VECTOR('',#94,1.);
#94 = DIRECTION('',(0.288675134595,0.5,0.816496580928));
#95 = ORIENTED_EDGE('',*,*,#96,.T.);
#96 = EDGE_CURVE('',#89,#22,#97,.T.);
#97 = LINE('',#98,#99);
#98 = CARTESIAN_POINT('',(-3.798964771268,6.58,5.372547502504));
#99 = VECTOR('',#100,1.);
#100 = DIRECTION('',(0.57735026919,-6.749076137539E-17,-0.816496580928)
  );
#101 = PLANE('',#102);
#102 = AXIS2_PLACEMENT_3D('',#103,#104,#105);
#103 = CARTESIAN_POINT('',(-2.532643180845,4.386666666667,
    -1.790849167501));
#104 = DIRECTION('',(-0.471404520791,0.816496580928,-0.333333333333));
#105 = DIRECTION('',(0.866025403784,0.5,1.543418778987E-17));
#106 = ADVANCED_FACE('',(#107),#124,.T.);
#107 = FACE_BOUND('',#108,.T.);
#108 = EDGE_LOOP('',(#109,#110,#118));
#109 = ORIENTED_EDGE('',*,*,#31,.F.);
#110 = ORIENTED_EDGE('',*,*,#111,.T.);
#111 = EDGE_CURVE('',#24,#112,#114,.T.);
#112 = VERTEX_POINT('',#113);
#113 = CARTESIAN_POINT('',(-3.798964771268,-6.58,5.372547502504));
#114 = LINE('',#115,#116);
#115 = CARTESIAN_POINT('',(3.798964771268,-6.58,-5.372547502504));
#116 = VECTOR('',#117,1.);
#117 = DIRECTION('',(-0.57735026919,4.049445682523E-16,0.816496580928));
#118 = ORIENTED_EDGE('',*,*,#119,.T.);
#119 = EDGE_CURVE('',#112,#32,#120,.T.);
#120 = LINE('',#121,#122);
#121 = CARTESIAN_POINT('',(-3.798964771268,-6.58,5.372547502504));
#122 = VECTOR('',#123,1.);
#123 = DIRECTION('',(-0.288675134595,0.5,-0.816496580928));
#124 = PLANE('',#125);
#125 = AXIS2_PLACEMENT_3D('',#126,#127,#128);
#126 = CARTESIAN_POINT('',(-2.532643180845,-4.386666666667,
    -1.790849167501));
#127 = DIRECTION('',(-0.471404520791,-0.816496580928,-0.333333333333));
#128 = DIRECTION('',(-0.866025403784,0.5,1.397166451845E-17));
#129 = ADVANCED_FACE('',(#130),#217,.F.);
#130 = FACE_BOUND('',#131,.F.);
#131 = EDGE_LOOP('',(#132,#143,#151,#160,#166,#167,#168,#177,#185,#194,
    #202,#211));
#132 = ORIENTED_EDGE('',*,*,#133,.F.);
#133 = EDGE_CURVE('',#134,#136,#138,.T.);
#134 = VERTEX_POINT('',#135);
#135 = CARTESIAN_POINT('',(2.5359375,0.26743409673,5.372547502504));
#136 = VERTEX_POINT('',#137);
#137 = CARTESIAN_POINT('',(-1.036364028394,2.329903345775,5.372547502504
    ));
#138 = CIRCLE('',#139,2.55);
#139 = AXIS2_PLACEMENT_3D('',#140,#141,#142);
#140 = CARTESIAN_POINT('',(0.,0.,5.372547502504));
#141 = DIRECTION('',(0.,0.,1.));
#142 = DIRECTION('',(1.,0.,-0.));
#143 = ORIENTED_EDGE('',*,*,#144,.F.);
#144 = EDGE_CURVE('',#145,#134,#147,.T.);
#145 = VERTEX_POINT('',#146);
#146 = CARTESIAN_POINT('',(2.5359375,0.26743409673,4.822547502504));
#147 = LINE('',#148,#149);
#148 = CARTESIAN_POINT('',(2.5359375,0.26743409673,-5.447547502504));
#149 = VECTOR('',#150,1.);
#150 = DIRECTION('',(0.,0.,1.));
#151 = ORIENTED_EDGE('',*,*,#152,.F.);
#152 = EDGE_CURVE('',#153,#145,#155,.T.);
#153 = VERTEX_POINT('',#154);
#154 = CARTESIAN_POINT('',(2.55,-6.245698675652E-16,4.822547502504));
#155 = CIRCLE('',#156,2.55);
#156 = AXIS2_PLACEMENT_3D('',#157,#158,#159);
#157 = CARTESIAN_POINT('',(0.,0.,4.822547502504));
#158 = DIRECTION('',(0.,0.,1.));
#159 = DIRECTION('',(1.,0.,-0.));
#160 = ORIENTED_EDGE('',*,*,#161,.F.);
#161 = EDGE_CURVE('',#48,#153,#162,.T.);
#162 = LINE('',#163,#164);
#163 = CARTESIAN_POINT('',(2.55,-6.245698675652E-16,-5.447547502504));
#164 = VECTOR('',#165,1.);
#165 = DIRECTION('',(0.,0.,1.));
#166 = ORIENTED_EDGE('',*,*,#47,.T.);
#167 = ORIENTED_EDGE('',*,*,#161,.T.);
#168 = ORIENTED_EDGE('',*,*,#169,.F.);
#169 = EDGE_CURVE('',#170,#153,#172,.T.);
#170 = VERTEX_POINT('',#171);
#171 = CARTESIAN_POINT('',(2.5359375,-0.26743409673,4.822547502504));
#172 = CIRCLE('',#173,2.55);
#173 = AXIS2_PLACEMENT_3D('',#174,#175,#176);
#174 = CARTESIAN_POINT('',(0.,0.,4.822547502504));
#175 = DIRECTION('',(0.,0.,1.));
#176 = DIRECTION('',(1.,0.,-0.));
#177 = ORIENTED_EDGE('',*,*,#178,.T.);
#178 = EDGE_CURVE('',#170,#179,#181,.T.);
#179 = VERTEX_POINT('',#180);
#180 = CARTESIAN_POINT('',(2.5359375,-0.26743409673,5.372547502504));
#181 = LINE('',#182,#183);
#182 = CARTESIAN_POINT('',(2.5359375,-0.26743409673,-5.447547502504));
#183 = VECTOR('',#184,1.);
#184 = DIRECTION('',(0.,0.,1.));
#185 = ORIENTED_EDGE('',*,*,#186,.F.);
#186 = EDGE_CURVE('',#187,#179,#189,.T.);
#187 = VERTEX_POINT('',#188);
#188 = CARTESIAN_POINT('',(-1.499573471606,2.062469249045,5.372547502504
    ));
#189 = CIRCLE('',#190,2.55);
#190 = AXIS2_PLACEMENT_3D('',#191,#192,#193);
#191 = CARTESIAN_POINT('',(0.,0.,5.372547502504));
#192 = DIRECTION('',(0.,0.,1.));
#193 = DIRECTION('',(1.,0.,-0.));
#194 = ORIENTED_EDGE('',*,*,#195,.F.);
#195 = EDGE_CURVE('',#196,#187,#198,.T.);
#196 = VERTEX_POINT('',#197);
#197 = CARTESIAN_POINT('',(-1.499573471606,2.062469249045,4.822547502504
    ));
#198 = LINE('',#199,#200);
#199 = CARTESIAN_POINT('',(-1.499573471606,2.062469249045,
    -5.447547502504));
#200 = VECTOR('',#201,1.);
#201 = DIRECTION('',(0.,0.,1.));
#202 = ORIENTED_EDGE('',*,*,#203,.F.);
#203 = EDGE_CURVE('',#204,#196,#206,.T.);
#204 = VERTEX_POINT('',#205);
#205 = CARTESIAN_POINT('',(-1.036364028394,2.329903345775,4.822547502504
    ));
#206 = CIRCLE('',#207,2.55);
#207 = AXIS2_PLACEMENT_3D('',#208,#209,#210);
#208 = CARTESIAN_POINT('',(0.,0.,4.822547502504));
#209 = DIRECTION('',(0.,0.,1.));
#210 = DIRECTION('',(1.,0.,-0.));
#211 = ORIENTED_EDGE('',*,*,#212,.T.);
#212 = EDGE_CURVE('',#204,#136,#213,.T.);
#213 = LINE('',#214,#215);
#214 = CARTESIAN_POINT('',(-1.036364028394,2.329903345775,
    -5.447547502504));
#215 = VECTOR('',#216,1.);
#216 = DIRECTION('',(0.,0.,1.));
#217 = CYLINDRICAL_SURFACE('',#218,2.55);
#218 = AXIS2_PLACEMENT_3D('',#219,#220,#221);
#219 = CARTESIAN_POINT('',(0.,0.,-5.447547502504));
#220 = DIRECTION('',(0.,0.,1.));
#221 = DIRECTION('',(1.,0.,-0.));
#222 = ADVANCED_FACE('',(#223),#233,.F.);
#223 = FACE_BOUND('',#224,.F.);
#224 = EDGE_LOOP('',(#225,#231,#232));
#225 = ORIENTED_EDGE('',*,*,#226,.T.);
#226 = EDGE_CURVE('',#66,#89,#227,.T.);
#227 = LINE('',#228,#229);
#228 = CARTESIAN_POINT('',(7.597929542535,0.,5.372547502504));
#229 = VECTOR('',#230,1.);
#230 = DIRECTION('',(-0.866025403784,0.5,0.));
#231 = ORIENTED_EDGE('',*,*,#96,.T.);
#232 = ORIENTED_EDGE('',*,*,#65,.T.);
#233 = PLANE('',#234);
#234 = AXIS2_PLACEMENT_3D('',#235,#236,#237);
#235 = CARTESIAN_POINT('',(2.532643180845,4.386666666667,1.790849167501)
  );
#236 = DIRECTION('',(-0.471404520791,-0.816496580928,-0.333333333333));
#237 = DIRECTION('',(-0.866025403784,0.5,4.884303754091E-18));
#238 = ADVANCED_FACE('',(#239),#249,.F.);
#239 = FACE_BOUND('',#240,.F.);
#240 = EDGE_LOOP('',(#241,#247,#248));
#241 = ORIENTED_EDGE('',*,*,#242,.T.);
#242 = EDGE_CURVE('',#112,#66,#243,.T.);
#243 = LINE('',#244,#245);
#244 = CARTESIAN_POINT('',(-3.798964771268,-6.58,5.372547502504));
#245 = VECTOR('',#246,1.);
#246 = DIRECTION('',(0.866025403784,0.5,0.));
#247 = ORIENTED_EDGE('',*,*,#73,.T.);
#248 = ORIENTED_EDGE('',*,*,#111,.T.);
#249 = PLANE('',#250);
#250 = AXIS2_PLACEMENT_3D('',#251,#252,#253);
#251 = CARTESIAN_POINT('',(2.532643180845,-4.386666666667,1.790849167501
    ));
#252 = DIRECTION('',(-0.471404520791,0.816496580928,-0.333333333333));
#253 = DIRECTION('',(0.866025403784,0.5,-3.102105703793E-17));
#254 = ADVANCED_FACE('',(#255),#265,.F.);
#255 = FACE_BOUND('',#256,.F.);
#256 = EDGE_LOOP('',(#257,#263,#264));
#257 = ORIENTED_EDGE('',*,*,#258,.T.);
#258 = EDGE_CURVE('',#89,#112,#259,.T.);
#259 = LINE('',#260,#261);
#260 = CARTESIAN_POINT('',(-3.798964771268,6.58,5.372547502504));
#261 = VECTOR('',#262,1.);
#262 = DIRECTION('',(-3.711991875646E-16,-1.,0.));
#263 = ORIENTED_EDGE('',*,*,#119,.T.);
#264 = ORIENTED_EDGE('',*,*,#88,.T.);
#265 = PLANE('',#266);
#266 = AXIS2_PLACEMENT_3D('',#267,#268,#269);
#267 = CARTESIAN_POINT('',(-5.06528636169,1.619778273009E-15,
    1.790849167501));
#268 = DIRECTION('',(0.942809041582,-3.543789729654E-16,-0.333333333333)
  );
#269 = DIRECTION('',(0.333333333333,4.069985459458E-33,0.942809041582));
#270 = ADVANCED_FACE('',(#271,#276),#380,.T.);
#271 = FACE_BOUND('',#272,.T.);
#272 = EDGE_LOOP('',(#273,#274,#275));
#273 = ORIENTED_EDGE('',*,*,#226,.T.);
#274 = ORIENTED_EDGE('',*,*,#258,.T.);
#275 = ORIENTED_EDGE('',*,*,#242,.T.);
#276 = FACE_BOUND('',#277,.T.);
#277 = EDGE_LOOP('',(#278,#279,#288,#296,#305,#314,#322,#329,#330,#339,
    #347,#356,#365,#373));
#278 = ORIENTED_EDGE('',*,*,#133,.F.);
#279 = ORIENTED_EDGE('',*,*,#280,.F.);
#280 = EDGE_CURVE('',#281,#134,#283,.T.);
#281 = VERTEX_POINT('',#282);
#282 = CARTESIAN_POINT('',(2.565831239518,0.25,5.372547502504));
#283 = CIRCLE('',#284,0.3);
#284 = AXIS2_PLACEMENT_3D('',#285,#286,#287);
#285 = CARTESIAN_POINT('',(2.4,0.,5.372547502504));
#286 = DIRECTION('',(0.,0.,1.));
#287 = DIRECTION('',(1.,0.,-0.));
#288 = ORIENTED_EDGE('',*,*,#289,.F.);
#289 = EDGE_CURVE('',#290,#281,#292,.T.);
#290 = VERTEX_POINT('',#291);
#291 = CARTESIAN_POINT('',(6.642627678977,0.25,5.372547502504));
#292 = LINE('',#293,#294);
#293 = CARTESIAN_POINT('',(1.25,0.25,5.372547502504));
#294 = VECTOR('',#295,1.);
#295 = DIRECTION('',(-1.,0.,0.));
#296 = ORIENTED_EDGE('',*,*,#297,.F.);
#297 = EDGE_CURVE('',#298,#290,#300,.T.);
#298 = VERTEX_POINT('',#299);
#299 = CARTESIAN_POINT('',(7.17529327555,-7.960204194458E-17,
    5.372547502504));
#300 = CIRCLE('',#301,0.325);
#301 = AXIS2_PLACEMENT_3D('',#302,#303,#304);
#302 = CARTESIAN_POINT('',(6.85029327555,0.,5.372547502504));
#303 = DIRECTION('',(0.,0.,1.));
#304 = DIRECTION('',(1.,0.,-0.));
#305 = ORIENTED_EDGE('',*,*,#306,.F.);
#306 = EDGE_CURVE('',#307,#298,#309,.T.);
#307 = VERTEX_POINT('',#308);
#308 = CARTESIAN_POINT('',(6.642627678977,-0.25,5.372547502504));
#309 = CIRCLE('',#310,0.325);
#310 = AXIS2_PLACEMENT_3D('',#311,#312,#313);
#311 = CARTESIAN_POINT('',(6.85029327555,0.,5.372547502504));
#312 = DIRECTION('',(0.,0.,1.));
#313 = DIRECTION('',(1.,0.,-0.));
#314 = ORIENTED_EDGE('',*,*,#315,.T.);
#315 = EDGE_CURVE('',#307,#316,#318,.T.);
#316 = VERTEX_POINT('',#317);
#317 = CARTESIAN_POINT('',(2.565831239518,-0.25,5.372547502504));
#318 = LINE('',#319,#320);
#319 = CARTESIAN_POINT('',(1.25,-0.25,5.372547502504));
#320 = VECTOR('',#321,1.);
#321 = DIRECTION('',(-1.,0.,0.));
#322 = ORIENTED_EDGE('',*,*,#323,.F.);
#323 = EDGE_CURVE('',#179,#316,#324,.T.);
#324 = CIRCLE('',#325,0.3);
#325 = AXIS2_PLACEMENT_3D('',#326,#327,#328);
#326 = CARTESIAN_POINT('',(2.4,0.,5.372547502504));
#327 = DIRECTION('',(0.,0.,1.));
#328 = DIRECTION('',(1.,0.,-0.));
#329 = ORIENTED_EDGE('',*,*,#186,.F.);
#330 = ORIENTED_EDGE('',*,*,#331,.F.);
#331 = EDGE_CURVE('',#332,#187,#334,.T.);
#332 = VERTEX_POINT('',#333);
#333 = CARTESIAN_POINT('',(-1.499421970705,2.097075035246,5.372547502504
    ));
#334 = CIRCLE('',#335,0.3);
#335 = AXIS2_PLACEMENT_3D('',#336,#337,#338);
#336 = CARTESIAN_POINT('',(-1.2,2.078460969083,5.372547502504));
#337 = DIRECTION('',(0.,0.,1.));
#338 = DIRECTION('',(1.,0.,-0.));
#339 = ORIENTED_EDGE('',*,*,#340,.F.);
#340 = EDGE_CURVE('',#341,#332,#343,.T.);
#341 = VERTEX_POINT('',#342);
#342 = CARTESIAN_POINT('',(-3.537820190435,5.627684317876,5.372547502504
    ));
#343 = LINE('',#344,#345);
#344 = CARTESIAN_POINT('',(-0.841506350946,0.957531754731,5.372547502504
    ));
#345 = VECTOR('',#346,1.);
#346 = DIRECTION('',(0.5,-0.866025403784,0.));
#347 = ORIENTED_EDGE('',*,*,#348,.F.);
#348 = EDGE_CURVE('',#349,#341,#351,.T.);
#349 = VERTEX_POINT('',#350);
#350 = CARTESIAN_POINT('',(-3.100146637775,5.932528,5.372547502504));
#351 = CIRCLE('',#352,0.325);
#352 = AXIS2_PLACEMENT_3D('',#353,#354,#355);
#353 = CARTESIAN_POINT('',(-3.425146637775,5.932528,5.372547502504));
#354 = DIRECTION('',(0.,0.,1.));
#355 = DIRECTION('',(1.,0.,-0.));
#356 = ORIENTED_EDGE('',*,*,#357,.F.);
#357 = EDGE_CURVE('',#358,#349,#360,.T.);
#358 = VERTEX_POINT('',#359);
#359 = CARTESIAN_POINT('',(-3.104807488542,5.877684317876,5.372547502504
    ));
#360 = CIRCLE('',#361,0.325);
#361 = AXIS2_PLACEMENT_3D('',#362,#363,#364);
#362 = CARTESIAN_POINT('',(-3.425146637775,5.932528,5.372547502504));
#363 = DIRECTION('',(0.,0.,1.));
#364 = DIRECTION('',(1.,0.,-0.));
#365 = ORIENTED_EDGE('',*,*,#366,.T.);
#366 = EDGE_CURVE('',#358,#367,#369,.T.);
#367 = VERTEX_POINT('',#368);
#368 = CARTESIAN_POINT('',(-1.066409268813,2.347075035246,5.372547502504
    ));
#369 = LINE('',#370,#371);
#370 = CARTESIAN_POINT('',(-0.408493649054,1.207531754731,5.372547502504
    ));
#371 = VECTOR('',#372,1.);
#372 = DIRECTION('',(0.5,-0.866025403784,0.));
#373 = ORIENTED_EDGE('',*,*,#374,.F.);
#374 = EDGE_CURVE('',#136,#367,#375,.T.);
#375 = CIRCLE('',#376,0.3);
#376 = AXIS2_PLACEMENT_3D('',#377,#378,#379);
#377 = CARTESIAN_POINT('',(-1.2,2.078460969083,5.372547502504));
#378 = DIRECTION('',(0.,0.,1.));
#379 = DIRECTION('',(1.,0.,-0.));
#380 = PLANE('',#381);
#381 = AXIS2_PLACEMENT_3D('',#382,#383,#384);
#382 = CARTESIAN_POINT('',(-3.599507273354E-16,7.351937363525E-16,
    5.372547502504));
#383 = DIRECTION('',(0.,0.,1.));
#384 = DIRECTION('',(1.,0.,-0.));
#385 = ADVANCED_FACE('',(#386),#422,.F.);
#386 = FACE_BOUND('',#387,.F.);
#387 = EDGE_LOOP('',(#388,#389,#396,#397,#398,#406,#415,#421));
#388 = ORIENTED_EDGE('',*,*,#212,.F.);
#389 = ORIENTED_EDGE('',*,*,#390,.T.);
#390 = EDGE_CURVE('',#204,#196,#391,.T.);
#391 = CIRCLE('',#392,0.3);
#392 = AXIS2_PLACEMENT_3D('',#393,#394,#395);
#393 = CARTESIAN_POINT('',(-1.2,2.078460969083,4.822547502504));
#394 = DIRECTION('',(0.,0.,1.));
#395 = DIRECTION('',(1.,0.,-0.));
#396 = ORIENTED_EDGE('',*,*,#195,.T.);
#397 = ORIENTED_EDGE('',*,*,#331,.F.);
#398 = ORIENTED_EDGE('',*,*,#399,.F.);
#399 = EDGE_CURVE('',#400,#332,#402,.T.);
#400 = VERTEX_POINT('',#401);
#401 = CARTESIAN_POINT('',(-1.499421970705,2.097075035246,4.892547502504
    ));
#402 = LINE('',#403,#404);
#403 = CARTESIAN_POINT('',(-1.499421970705,2.097075035246,4.822547502504
    ));
#404 = VECTOR('',#405,1.);
#405 = DIRECTION('',(0.,0.,1.));
#406 = ORIENTED_EDGE('',*,*,#407,.F.);
#407 = EDGE_CURVE('',#408,#400,#410,.T.);
#408 = VERTEX_POINT('',#409);
#409 = CARTESIAN_POINT('',(-1.066409268813,2.347075035246,4.892547502504
    ));
#410 = CIRCLE('',#411,0.3);
#411 = AXIS2_PLACEMENT_3D('',#412,#413,#414);
#412 = CARTESIAN_POINT('',(-1.2,2.078460969083,4.892547502504));
#413 = DIRECTION('',(0.,0.,1.));
#414 = DIRECTION('',(1.,0.,-0.));
#415 = ORIENTED_EDGE('',*,*,#416,.T.);
#416 = EDGE_CURVE('',#408,#367,#417,.T.);
#417 = LINE('',#418,#419);
#418 = CARTESIAN_POINT('',(-1.066409268813,2.347075035246,4.822547502504
    ));
#419 = VECTOR('',#420,1.);
#420 = DIRECTION('',(0.,0.,1.));
#421 = ORIENTED_EDGE('',*,*,#374,.F.);
#422 = CYLINDRICAL_SURFACE('',#423,0.3);
#423 = AXIS2_PLACEMENT_3D('',#424,#425,#426);
#424 = CARTESIAN_POINT('',(-1.2,2.078460969083,4.822547502504));
#425 = DIRECTION('',(0.,0.,1.));
#426 = DIRECTION('',(1.,0.,-0.));
#427 = ADVANCED_FACE('',(#428),#432,.T.);
#428 = FACE_BOUND('',#429,.T.);
#429 = EDGE_LOOP('',(#430,#431));
#430 = ORIENTED_EDGE('',*,*,#203,.F.);
#431 = ORIENTED_EDGE('',*,*,#390,.T.);
#432 = PLANE('',#433);
#433 = AXIS2_PLACEMENT_3D('',#434,#435,#436);
#434 = CARTESIAN_POINT('',(-1.2,2.078460969083,4.822547502504));
#435 = DIRECTION('',(0.,0.,1.));
#436 = DIRECTION('',(1.,0.,-0.));
#437 = ADVANCED_FACE('',(#438),#474,.F.);
#438 = FACE_BOUND('',#439,.F.);
#439 = EDGE_LOOP('',(#440,#450,#459,#465,#466,#467));
#440 = ORIENTED_EDGE('',*,*,#441,.T.);
#441 = EDGE_CURVE('',#442,#444,#446,.T.);
#442 = VERTEX_POINT('',#443);
#443 = CARTESIAN_POINT('',(2.7,-7.347880794884E-17,4.822547502504));
#444 = VERTEX_POINT('',#445);
#445 = CARTESIAN_POINT('',(2.7,-7.347880794884E-17,4.892547502504));
#446 = LINE('',#447,#448);
#447 = CARTESIAN_POINT('',(2.7,-7.347880794884E-17,4.822547502504));
#448 = VECTOR('',#449,1.);
#449 = DIRECTION('',(0.,0.,1.));
#450 = ORIENTED_EDGE('',*,*,#451,.F.);
#451 = EDGE_CURVE('',#452,#444,#454,.T.);
#452 = VERTEX_POINT('',#453);
#453 = CARTESIAN_POINT('',(2.565831239518,-0.25,4.892547502504));
#454 = CIRCLE('',#455,0.3);
#455 = AXIS2_PLACEMENT_3D('',#456,#457,#458);
#456 = CARTESIAN_POINT('',(2.4,0.,4.892547502504));
#457 = DIRECTION('',(0.,0.,1.));
#458 = DIRECTION('',(1.,0.,-0.));
#459 = ORIENTED_EDGE('',*,*,#460,.T.);
#460 = EDGE_CURVE('',#452,#316,#461,.T.);
#461 = LINE('',#462,#463);
#462 = CARTESIAN_POINT('',(2.565831239518,-0.25,4.822547502504));
#463 = VECTOR('',#464,1.);
#464 = DIRECTION('',(0.,0.,1.));
#465 = ORIENTED_EDGE('',*,*,#323,.F.);
#466 = ORIENTED_EDGE('',*,*,#178,.F.);
#467 = ORIENTED_EDGE('',*,*,#468,.T.);
#468 = EDGE_CURVE('',#170,#442,#469,.T.);
#469 = CIRCLE('',#470,0.3);
#470 = AXIS2_PLACEMENT_3D('',#471,#472,#473);
#471 = CARTESIAN_POINT('',(2.4,0.,4.822547502504));
#472 = DIRECTION('',(0.,0.,1.));
#473 = DIRECTION('',(1.,0.,-0.));
#474 = CYLINDRICAL_SURFACE('',#475,0.3);
#475 = AXIS2_PLACEMENT_3D('',#476,#477,#478);
#476 = CARTESIAN_POINT('',(2.4,0.,4.822547502504));
#477 = DIRECTION('',(0.,0.,1.));
#478 = DIRECTION('',(1.,0.,-0.));
#479 = ADVANCED_FACE('',(#480),#492,.T.);
#480 = FACE_BOUND('',#481,.T.);
#481 = EDGE_LOOP('',(#482,#483,#490,#491));
#482 = ORIENTED_EDGE('',*,*,#468,.T.);
#483 = ORIENTED_EDGE('',*,*,#484,.T.);
#484 = EDGE_CURVE('',#442,#145,#485,.T.);
#485 = CIRCLE('',#486,0.3);
#486 = AXIS2_PLACEMENT_3D('',#487,#488,#489);
#487 = CARTESIAN_POINT('',(2.4,0.,4.822547502504));
#488 = DIRECTION('',(0.,0.,1.));
#489 = DIRECTION('',(1.,0.,-0.));
#490 = ORIENTED_EDGE('',*,*,#152,.F.);
#491 = ORIENTED_EDGE('',*,*,#169,.F.);
#492 = PLANE('',#493);
#493 = AXIS2_PLACEMENT_3D('',#494,#495,#496);
#494 = CARTESIAN_POINT('',(2.4,0.,4.822547502504));
#495 = DIRECTION('',(0.,0.,1.));
#496 = DIRECTION('',(1.,0.,-0.));
#497 = ADVANCED_FACE('',(#498),#519,.F.);
#498 = FACE_BOUND('',#499,.F.);
#499 = EDGE_LOOP('',(#500,#509,#510,#511,#512,#513));
#500 = ORIENTED_EDGE('',*,*,#501,.F.);
#501 = EDGE_CURVE('',#444,#502,#504,.T.);
#502 = VERTEX_POINT('',#503);
#503 = CARTESIAN_POINT('',(2.565831239518,0.25,4.892547502504));
#504 = CIRCLE('',#505,0.3);
#505 = AXIS2_PLACEMENT_3D('',#506,#507,#508);
#506 = CARTESIAN_POINT('',(2.4,0.,4.892547502504));
#507 = DIRECTION('',(0.,0.,1.));
#508 = DIRECTION('',(1.,0.,-0.));
#509 = ORIENTED_EDGE('',*,*,#441,.F.);
#510 = ORIENTED_EDGE('',*,*,#484,.T.);
#511 = ORIENTED_EDGE('',*,*,#144,.T.);
#512 = ORIENTED_EDGE('',*,*,#280,.F.);
#513 = ORIENTED_EDGE('',*,*,#514,.F.);
#514 = EDGE_CURVE('',#502,#281,#515,.T.);
#515 = LINE('',#516,#517);
#516 = CARTESIAN_POINT('',(2.565831239518,0.25,4.822547502504));
#517 = VECTOR('',#518,1.);
#518 = DIRECTION('',(0.,0.,1.));
#519 = CYLINDRICAL_SURFACE('',#520,0.3);
#520 = AXIS2_PLACEMENT_3D('',#521,#522,#523);
#521 = CARTESIAN_POINT('',(2.4,0.,4.822547502504));
#522 = DIRECTION('',(0.,0.,1.));
#523 = DIRECTION('',(1.,0.,-0.));
#524 = ADVANCED_FACE('',(#525),#543,.T.);
#525 = FACE_BOUND('',#526,.T.);
#526 = EDGE_LOOP('',(#527,#535,#536,#537));
#527 = ORIENTED_EDGE('',*,*,#528,.F.);
#528 = EDGE_CURVE('',#408,#529,#531,.T.);
#529 = VERTEX_POINT('',#530);
#530 = CARTESIAN_POINT('',(-3.104807488542,5.877684317876,4.892547502504
    ));
#531 = LINE('',#532,#533);
#532 = CARTESIAN_POINT('',(-1.033493649054,2.290063509461,4.892547502504
    ));
#533 = VECTOR('',#534,1.);
#534 = DIRECTION('',(-0.5,0.866025403784,0.));
#535 = ORIENTED_EDGE('',*,*,#416,.T.);
#536 = ORIENTED_EDGE('',*,*,#366,.F.);
#537 = ORIENTED_EDGE('',*,*,#538,.F.);
#538 = EDGE_CURVE('',#529,#358,#539,.T.);
#539 = LINE('',#540,#541);
#540 = CARTESIAN_POINT('',(-3.104807488542,5.877684317876,4.852547502504
    ));
#541 = VECTOR('',#542,1.);
#542 = DIRECTION('',(0.,0.,1.));
#543 = PLANE('',#544);
#544 = AXIS2_PLACEMENT_3D('',#545,#546,#547);
#545 = CARTESIAN_POINT('',(-1.033493649054,2.290063509461,4.892547502504
    ));
#546 = DIRECTION('',(-0.866025403784,-0.5,0.));
#547 = DIRECTION('',(0.,0.,1.));
#548 = ADVANCED_FACE('',(#549),#585,.F.);
#549 = FACE_BOUND('',#550,.F.);
#550 = EDGE_LOOP('',(#551,#552,#560,#567,#568,#569,#570,#579));
#551 = ORIENTED_EDGE('',*,*,#348,.F.);
#552 = ORIENTED_EDGE('',*,*,#553,.F.);
#553 = EDGE_CURVE('',#554,#349,#556,.T.);
#554 = VERTEX_POINT('',#555);
#555 = CARTESIAN_POINT('',(-3.100146637775,5.932528,4.852547502504));
#556 = LINE('',#557,#558);
#557 = CARTESIAN_POINT('',(-3.100146637775,5.932528,4.852547502504));
#558 = VECTOR('',#559,1.);
#559 = DIRECTION('',(0.,0.,1.));
#560 = ORIENTED_EDGE('',*,*,#561,.T.);
#561 = EDGE_CURVE('',#554,#554,#562,.T.);
#562 = CIRCLE('',#563,0.325);
#563 = AXIS2_PLACEMENT_3D('',#564,#565,#566);
#564 = CARTESIAN_POINT('',(-3.425146637775,5.932528,4.852547502504));
#565 = DIRECTION('',(0.,0.,1.));
#566 = DIRECTION('',(1.,0.,-0.));
#567 = ORIENTED_EDGE('',*,*,#553,.T.);
#568 = ORIENTED_EDGE('',*,*,#357,.F.);
#569 = ORIENTED_EDGE('',*,*,#538,.F.);
#570 = ORIENTED_EDGE('',*,*,#571,.F.);
#571 = EDGE_CURVE('',#572,#529,#574,.T.);
#572 = VERTEX_POINT('',#573);
#573 = CARTESIAN_POINT('',(-3.537820190435,5.627684317876,4.892547502504
    ));
#574 = CIRCLE('',#575,0.325);
#575 = AXIS2_PLACEMENT_3D('',#576,#577,#578);
#576 = CARTESIAN_POINT('',(-3.425146637775,5.932528,4.892547502504));
#577 = DIRECTION('',(0.,0.,1.));
#578 = DIRECTION('',(1.,0.,-0.));
#579 = ORIENTED_EDGE('',*,*,#580,.T.);
#580 = EDGE_CURVE('',#572,#341,#581,.T.);
#581 = LINE('',#582,#583);
#582 = CARTESIAN_POINT('',(-3.537820190435,5.627684317876,4.852547502504
    ));
#583 = VECTOR('',#584,1.);
#584 = DIRECTION('',(0.,0.,1.));
#585 = CYLINDRICAL_SURFACE('',#586,0.325);
#586 = AXIS2_PLACEMENT_3D('',#587,#588,#589);
#587 = CARTESIAN_POINT('',(-3.425146637775,5.932528,4.852547502504));
#588 = DIRECTION('',(0.,0.,1.));
#589 = DIRECTION('',(1.,0.,-0.));
#590 = ADVANCED_FACE('',(#591),#602,.F.);
#591 = FACE_BOUND('',#592,.F.);
#592 = EDGE_LOOP('',(#593,#599,#600,#601));
#593 = ORIENTED_EDGE('',*,*,#594,.F.);
#594 = EDGE_CURVE('',#400,#572,#595,.T.);
#595 = LINE('',#596,#597);
#596 = CARTESIAN_POINT('',(-1.466506350946,2.040063509461,4.892547502504
    ));
#597 = VECTOR('',#598,1.);
#598 = DIRECTION('',(-0.5,0.866025403784,0.));
#599 = ORIENTED_EDGE('',*,*,#399,.T.);
#600 = ORIENTED_EDGE('',*,*,#340,.F.);
#601 = ORIENTED_EDGE('',*,*,#580,.F.);
#602 = PLANE('',#603);
#603 = AXIS2_PLACEMENT_3D('',#604,#605,#606);
#604 = CARTESIAN_POINT('',(-1.466506350946,2.040063509461,4.892547502504
    ));
#605 = DIRECTION('',(-0.866025403784,-0.5,0.));
#606 = DIRECTION('',(0.,0.,1.));
#607 = ADVANCED_FACE('',(#608),#626,.T.);
#608 = FACE_BOUND('',#609,.T.);
#609 = EDGE_LOOP('',(#610,#618,#619,#620));
#610 = ORIENTED_EDGE('',*,*,#611,.F.);
#611 = EDGE_CURVE('',#452,#612,#614,.T.);
#612 = VERTEX_POINT('',#613);
#613 = CARTESIAN_POINT('',(6.642627678977,-0.25,4.892547502504));
#614 = LINE('',#615,#616);
#615 = CARTESIAN_POINT('',(2.5,-0.25,4.892547502504));
#616 = VECTOR('',#617,1.);
#617 = DIRECTION('',(1.,0.,0.));
#618 = ORIENTED_EDGE('',*,*,#460,.T.);
#619 = ORIENTED_EDGE('',*,*,#315,.F.);
#620 = ORIENTED_EDGE('',*,*,#621,.F.);
#621 = EDGE_CURVE('',#612,#307,#622,.T.);
#622 = LINE('',#623,#624);
#623 = CARTESIAN_POINT('',(6.642627678977,-0.25,4.852547502504));
#624 = VECTOR('',#625,1.);
#625 = DIRECTION('',(0.,0.,1.));
#626 = PLANE('',#627);
#627 = AXIS2_PLACEMENT_3D('',#628,#629,#630);
#628 = CARTESIAN_POINT('',(2.5,-0.25,4.892547502504));
#629 = DIRECTION('',(0.,1.,0.));
#630 = DIRECTION('',(0.,0.,1.));
#631 = ADVANCED_FACE('',(#632),#668,.F.);
#632 = FACE_BOUND('',#633,.F.);
#633 = EDGE_LOOP('',(#634,#635,#643,#650,#651,#652,#653,#662));
#634 = ORIENTED_EDGE('',*,*,#297,.F.);
#635 = ORIENTED_EDGE('',*,*,#636,.F.);
#636 = EDGE_CURVE('',#637,#298,#639,.T.);
#637 = VERTEX_POINT('',#638);
#638 = CARTESIAN_POINT('',(7.17529327555,-7.960204194458E-17,
    4.852547502504));
#639 = LINE('',#640,#641);
#640 = CARTESIAN_POINT('',(7.17529327555,-7.960204194458E-17,
    4.852547502504));
#641 = VECTOR('',#642,1.);
#642 = DIRECTION('',(0.,0.,1.));
#643 = ORIENTED_EDGE('',*,*,#644,.T.);
#644 = EDGE_CURVE('',#637,#637,#645,.T.);
#645 = CIRCLE('',#646,0.325);
#646 = AXIS2_PLACEMENT_3D('',#647,#648,#649);
#647 = CARTESIAN_POINT('',(6.85029327555,0.,4.852547502504));
#648 = DIRECTION('',(0.,0.,1.));
#649 = DIRECTION('',(1.,0.,-0.));
#650 = ORIENTED_EDGE('',*,*,#636,.T.);
#651 = ORIENTED_EDGE('',*,*,#306,.F.);
#652 = ORIENTED_EDGE('',*,*,#621,.F.);
#653 = ORIENTED_EDGE('',*,*,#654,.F.);
#654 = EDGE_CURVE('',#655,#612,#657,.T.);
#655 = VERTEX_POINT('',#656);
#656 = CARTESIAN_POINT('',(6.642627678977,0.25,4.892547502504));
#657 = CIRCLE('',#658,0.325);
#658 = AXIS2_PLACEMENT_3D('',#659,#660,#661);
#659 = CARTESIAN_POINT('',(6.85029327555,0.,4.892547502504));
#660 = DIRECTION('',(0.,0.,1.));
#661 = DIRECTION('',(1.,0.,-0.));
#662 = ORIENTED_EDGE('',*,*,#663,.T.);
#663 = EDGE_CURVE('',#655,#290,#664,.T.);
#664 = LINE('',#665,#666);
#665 = CARTESIAN_POINT('',(6.642627678977,0.25,4.852547502504));
#666 = VECTOR('',#667,1.);
#667 = DIRECTION('',(0.,0.,1.));
#668 = CYLINDRICAL_SURFACE('',#669,0.325);
#669 = AXIS2_PLACEMENT_3D('',#670,#671,#672);
#670 = CARTESIAN_POINT('',(6.85029327555,0.,4.852547502504));
#671 = DIRECTION('',(0.,0.,1.));
#672 = DIRECTION('',(1.,0.,-0.));
#673 = ADVANCED_FACE('',(#674),#685,.F.);
#674 = FACE_BOUND('',#675,.F.);
#675 = EDGE_LOOP('',(#676,#682,#683,#684));
#676 = ORIENTED_EDGE('',*,*,#677,.F.);
#677 = EDGE_CURVE('',#502,#655,#678,.T.);
#678 = LINE('',#679,#680);
#679 = CARTESIAN_POINT('',(2.5,0.25,4.892547502504));
#680 = VECTOR('',#681,1.);
#681 = DIRECTION('',(1.,0.,0.));
#682 = ORIENTED_EDGE('',*,*,#514,.T.);
#683 = ORIENTED_EDGE('',*,*,#289,.F.);
#684 = ORIENTED_EDGE('',*,*,#663,.F.);
#685 = PLANE('',#686);
#686 = AXIS2_PLACEMENT_3D('',#687,#688,#689);
#687 = CARTESIAN_POINT('',(2.5,0.25,4.892547502504));
#688 = DIRECTION('',(0.,1.,0.));
#689 = DIRECTION('',(0.,0.,1.));
#690 = ADVANCED_FACE('',(#691),#697,.T.);
#691 = FACE_BOUND('',#692,.T.);
#692 = EDGE_LOOP('',(#693,#694,#695,#696));
#693 = ORIENTED_EDGE('',*,*,#594,.F.);
#694 = ORIENTED_EDGE('',*,*,#407,.F.);
#695 = ORIENTED_EDGE('',*,*,#528,.T.);
#696 = ORIENTED_EDGE('',*,*,#571,.F.);
#697 = PLANE('',#698);
#698 = AXIS2_PLACEMENT_3D('',#699,#700,#701);
#699 = CARTESIAN_POINT('',(-1.033493649054,2.290063509461,4.892547502504
    ));
#700 = DIRECTION('',(0.,0.,1.));
#701 = DIRECTION('',(-0.5,0.866025403784,0.));
#702 = ADVANCED_FACE('',(#703),#710,.T.);
#703 = FACE_BOUND('',#704,.T.);
#704 = EDGE_LOOP('',(#705,#706,#707,#708,#709));
#705 = ORIENTED_EDGE('',*,*,#677,.F.);
#706 = ORIENTED_EDGE('',*,*,#501,.F.);
#707 = ORIENTED_EDGE('',*,*,#451,.F.);
#708 = ORIENTED_EDGE('',*,*,#611,.T.);
#709 = ORIENTED_EDGE('',*,*,#654,.F.);
#710 = PLANE('',#711);
#711 = AXIS2_PLACEMENT_3D('',#712,#713,#714);
#712 = CARTESIAN_POINT('',(2.5,-0.25,4.892547502504));
#713 = DIRECTION('',(0.,0.,1.));
#714 = DIRECTION('',(1.,0.,0.));
#715 = ADVANCED_FACE('',(#716),#719,.T.);
#716 = FACE_BOUND('',#717,.F.);
#717 = EDGE_LOOP('',(#718));
#718 = ORIENTED_EDGE('',*,*,#561,.F.);
#719 = PLANE('',#720);
#720 = AXIS2_PLACEMENT_3D('',#721,#722,#723);
#721 = CARTESIAN_POINT('',(-3.425146637775,5.932528,4.852547502504));
#722 = DIRECTION('',(0.,0.,1.));
#723 = DIRECTION('',(1.,0.,-0.));
#724 = ADVANCED_FACE('',(#725),#728,.T.);
#725 = FACE_BOUND('',#726,.F.);
#726 = EDGE_LOOP('',(#727));
#727 = ORIENTED_EDGE('',*,*,#644,.F.);
#728 = PLANE('',#729);
#729 = AXIS2_PLACEMENT_3D('',#730,#731,#732);
#730 = CARTESIAN_POINT('',(6.85029327555,0.,4.852547502504));
#731 = DIRECTION('',(0.,0.,1.));
#732 = DIRECTION('',(1.,0.,-0.));
#733 = ( GEOMETRIC_REPRESENTATION_CONTEXT(3) 
GLOBAL_UNCERTAINTY_ASSIGNED_CONTEXT((#737)) GLOBAL_UNIT_ASSIGNED_CONTEXT
((#734,#735,#736)) REPRESENTATION_CONTEXT('Context #1',
  '3D Context with UNIT and UNCERTAINTY') );
#734 = ( LENGTH_UNIT() NAMED_UNIT(*) SI_UNIT(.MILLI.,.METRE.) );
#735 = ( NAMED_UNIT(*) PLANE_ANGLE_UNIT() SI_UNIT($,.RADIAN.) );
#736 = ( NAMED_UNIT(*) SI_UNIT($,.STERADIAN.) SOLID_ANGLE_UNIT() );
#737 = UNCERTAINTY_MEASURE_WITH_UNIT(LENGTH_MEASURE(1.E-07),#734,
  'distance_accuracy_value','confusion accuracy');
#738 = PRODUCT_RELATED_PRODUCT_CATEGORY('part',$,(#7));
ENDSEC;
END-ISO-10303-21;
