ISO-10303-21;
HEADER;
FILE_DESCRIPTION(('FreeCAD Model'),'2;1');
FILE_NAME('Open CASCADE Shape Model','2026-07-29T09:33:04',('FreeCAD'),(
    'FreeCAD'),'Open CASCADE STEP processor 7.8','FreeCAD','Unknown');
FILE_SCHEMA(('AUTOMOTIVE_DESIGN { 1 0 10303 214 1 1 1 1 }'));
ENDSEC;
DATA;
#1 = APPLICATION_PROTOCOL_DEFINITION('international standard',
  'automotive_design',2000,#2);
#2 = APPLICATION_CONTEXT(
  'core data for automotive mechanical design processes');
#3 = SHAPE_DEFINITION_REPRESENTATION(#4,#10);
#4 = PRODUCT_DEFINITION_SHAPE('','',#5);
#5 = PRODUCT_DEFINITION('design','',#6,#9);
#6 = PRODUCT_DEFINITION_FORMATION('','',#7);
#7 = PRODUCT('Open CASCADE STEP translator 7.8 82',
  'Open CASCADE STEP translator 7.8 82','',(#8));
#8 = PRODUCT_CONTEXT('',#2,'mechanical');
#9 = PRODUCT_DEFINITION_CONTEXT('part definition',#2,'design');
#10 = ADVANCED_BREP_SHAPE_REPRESENTATION('',(#11,#15),#203);
#11 = AXIS2_PLACEMENT_3D('',#12,#13,#14);
#12 = CARTESIAN_POINT('',(0.,0.,0.));
#13 = DIRECTION('',(0.,0.,1.));
#14 = DIRECTION('',(1.,0.,-0.));
#15 = MANIFOLD_SOLID_BREP('',#16);
#16 = CLOSED_SHELL('',(#17,#65,#102,#125,#148,#157,#194));
#17 = ADVANCED_FACE('',(#18),#50,.T.);
#18 = FACE_BOUND('',#19,.T.);
#19 = EDGE_LOOP('',(#20,#29,#39,#40));
#20 = ORIENTED_EDGE('',*,*,#21,.T.);
#21 = EDGE_CURVE('',#22,#24,#26,.T.);
#22 = VERTEX_POINT('',#23);
#23 = CARTESIAN_POINT('',(-0.173296230199,0.646750335863,93.090729038445
    ));
#24 = VERTEX_POINT('',#25);
#25 = CARTESIAN_POINT('',(-0.173296230199,0.646750335863,93.163772516706
    ));
#26 = B_SPLINE_CURVE_WITH_KNOTS('',1,(#27,#28),.UNSPECIFIED.,.F.,.F.,(2,
    2),(1.48,1.6),.PIECEWISE_BEZIER_KNOTS.);
#27 = CARTESIAN_POINT('',(-0.173296230199,0.646750335863,93.090729038445
    ));
#28 = CARTESIAN_POINT('',(-0.173296230199,0.646750335863,93.163772516706
    ));
#29 = ORIENTED_EDGE('',*,*,#30,.F.);
#30 = EDGE_CURVE('',#24,#24,#31,.T.);
#31 = ( BOUNDED_CURVE() B_SPLINE_CURVE(2,(#32,#33,#34,#35,#36,#37,#38),
.UNSPECIFIED.,.T.,.F.) B_SPLINE_CURVE_WITH_KNOTS((1,2,2,2,2,1),(
    -2.094395102393,0.,2.094395102393,4.188790204786,6.28318530718,
8.377580409573),.UNSPECIFIED.) CURVE() GEOMETRIC_REPRESENTATION_ITEM() 
RATIONAL_B_SPLINE_CURVE((1.,0.5,1.,0.5,1.,0.5,1.)) REPRESENTATION_ITEM(
  '') );
#32 = CARTESIAN_POINT('',(-0.173296230199,0.646750335863,93.163772516706
    ));
#33 = CARTESIAN_POINT('',(-1.293500671726,0.346592460398,93.163772516706
    ));
#34 = CARTESIAN_POINT('',(-0.473454105664,-0.473454105664,
    93.163772516706));
#35 = CARTESIAN_POINT('',(0.346592460398,-1.293500671726,93.163772516706
    ));
#36 = CARTESIAN_POINT('',(0.646750335863,-0.173296230199,93.163772516706
    ));
#37 = CARTESIAN_POINT('',(0.946908211328,0.946908211328,93.163772516706)
  );
#38 = CARTESIAN_POINT('',(-0.173296230199,0.646750335863,93.163772516706
    ));
#39 = ORIENTED_EDGE('',*,*,#21,.F.);
#40 = ORIENTED_EDGE('',*,*,#41,.T.);
#41 = EDGE_CURVE('',#22,#22,#42,.T.);
#42 = ( BOUNDED_CURVE() B_SPLINE_CURVE(2,(#43,#44,#45,#46,#47,#48,#49),
.UNSPECIFIED.,.T.,.F.) B_SPLINE_CURVE_WITH_KNOTS((1,2,2,2,2,1),(
    -2.094395102393,0.,2.094395102393,4.188790204786,6.28318530718,
8.377580409573),.UNSPECIFIED.) CURVE() GEOMETRIC_REPRESENTATION_ITEM() 
RATIONAL_B_SPLINE_CURVE((1.,0.5,1.,0.5,1.,0.5,1.)) REPRESENTATION_ITEM(
  '') );
#43 = CARTESIAN_POINT('',(-0.173296230199,0.646750335863,93.090729038445
    ));
#44 = CARTESIAN_POINT('',(-1.293500671726,0.346592460398,93.090729038445
    ));
#45 = CARTESIAN_POINT('',(-0.473454105664,-0.473454105664,
    93.090729038445));
#46 = CARTESIAN_POINT('',(0.346592460398,-1.293500671726,93.090729038445
    ));
#47 = CARTESIAN_POINT('',(0.646750335863,-0.173296230199,93.090729038445
    ));
#48 = CARTESIAN_POINT('',(0.946908211328,0.946908211328,93.090729038445)
  );
#49 = CARTESIAN_POINT('',(-0.173296230199,0.646750335863,93.090729038445
    ));
#50 = ( BOUNDED_SURFACE() B_SPLINE_SURFACE(2,1,(
    (#51,#52)
    ,(#53,#54)
    ,(#55,#56)
    ,(#57,#58)
    ,(#59,#60)
    ,(#61,#62)
,(#63,#64
    )),.UNSPECIFIED.,.T.,.F.,.F.) B_SPLINE_SURFACE_WITH_KNOTS((1,2,2,2,2
    ,1),(2,2),(-2.094395102393,0.,2.094395102393,4.188790204786,
    6.28318530718,8.377580409573),(1.48,1.6),.UNSPECIFIED.) 
GEOMETRIC_REPRESENTATION_ITEM() RATIONAL_B_SPLINE_SURFACE((
    (1.,1.)
    ,(0.5,0.5)
    ,(1.,1.)
    ,(0.5,0.5)
    ,(1.,1.)
    ,(0.5,0.5)
,(1.,1.))) REPRESENTATION_ITEM('') SURFACE() );
#51 = CARTESIAN_POINT('',(-0.173296230199,0.646750335863,93.090729038445
    ));
#52 = CARTESIAN_POINT('',(-0.173296230199,0.646750335863,93.163772516706
    ));
#53 = CARTESIAN_POINT('',(-1.293500671726,0.346592460398,93.090729038445
    ));
#54 = CARTESIAN_POINT('',(-1.293500671726,0.346592460398,93.163772516706
    ));
#55 = CARTESIAN_POINT('',(-0.473454105664,-0.473454105664,
    93.090729038445));
#56 = CARTESIAN_POINT('',(-0.473454105664,-0.473454105664,
    93.163772516706));
#57 = CARTESIAN_POINT('',(0.346592460398,-1.293500671726,93.090729038445
    ));
#58 = CARTESIAN_POINT('',(0.346592460398,-1.293500671726,93.163772516706
    ));
#59 = CARTESIAN_POINT('',(0.646750335863,-0.173296230199,93.090729038445
    ));
#60 = CARTESIAN_POINT('',(0.646750335863,-0.173296230199,93.163772516706
    ));
#61 = CARTESIAN_POINT('',(0.946908211328,0.946908211328,93.090729038445)
  );
#62 = CARTESIAN_POINT('',(0.946908211328,0.946908211328,93.163772516706)
  );
#63 = CARTESIAN_POINT('',(-0.173296230199,0.646750335863,93.090729038445
    ));
#64 = CARTESIAN_POINT('',(-0.173296230199,0.646750335863,93.163772516706
    ));
#65 = ADVANCED_FACE('',(#66),#87,.T.);
#66 = FACE_BOUND('',#67,.T.);
#67 = EDGE_LOOP('',(#68,#69,#76,#86));
#68 = ORIENTED_EDGE('',*,*,#41,.F.);
#69 = ORIENTED_EDGE('',*,*,#70,.F.);
#70 = EDGE_CURVE('',#71,#22,#73,.T.);
#71 = VERTEX_POINT('',#72);
#72 = CARTESIAN_POINT('',(-0.173296230199,0.646750335863,92.189859473228
    ));
#73 = B_SPLINE_CURVE_WITH_KNOTS('',1,(#74,#75),.UNSPECIFIED.,.F.,.F.,(2,
    2),(0.,1.48),.PIECEWISE_BEZIER_KNOTS.);
#74 = CARTESIAN_POINT('',(-0.173296230199,0.646750335863,92.189859473228
    ));
#75 = CARTESIAN_POINT('',(-0.173296230199,0.646750335863,93.090729038445
    ));
#76 = ORIENTED_EDGE('',*,*,#77,.T.);
#77 = EDGE_CURVE('',#71,#71,#78,.T.);
#78 = ( BOUNDED_CURVE() B_SPLINE_CURVE(2,(#79,#80,#81,#82,#83,#84,#85),
.UNSPECIFIED.,.T.,.F.) B_SPLINE_CURVE_WITH_KNOTS((1,2,2,2,2,1),(
    -2.094395102393,0.,2.094395102393,4.188790204786,6.28318530718,
8.377580409573),.UNSPECIFIED.) CURVE() GEOMETRIC_REPRESENTATION_ITEM() 
RATIONAL_B_SPLINE_CURVE((1.,0.5,1.,0.5,1.,0.5,1.)) REPRESENTATION_ITEM(
  '') );
#79 = CARTESIAN_POINT('',(-0.173296230199,0.646750335863,92.189859473228
    ));
#80 = CARTESIAN_POINT('',(-1.293500671726,0.346592460398,92.189859473228
    ));
#81 = CARTESIAN_POINT('',(-0.473454105664,-0.473454105664,
    92.189859473228));
#82 = CARTESIAN_POINT('',(0.346592460398,-1.293500671726,92.189859473228
    ));
#83 = CARTESIAN_POINT('',(0.646750335863,-0.173296230199,92.189859473228
    ));
#84 = CARTESIAN_POINT('',(0.946908211328,0.946908211328,92.189859473228)
  );
#85 = CARTESIAN_POINT('',(-0.173296230199,0.646750335863,92.189859473228
    ));
#86 = ORIENTED_EDGE('',*,*,#70,.T.);
#87 = ( BOUNDED_SURFACE() B_SPLINE_SURFACE(2,1,(
    (#88,#89)
    ,(#90,#91)
    ,(#92,#93)
    ,(#94,#95)
    ,(#96,#97)
    ,(#98,#99)
,(#100,#101
    )),.UNSPECIFIED.,.T.,.F.,.F.) B_SPLINE_SURFACE_WITH_KNOTS((1,2,2,2,2
    ,1),(2,2),(-2.094395102393,0.,2.094395102393,4.188790204786,
    6.28318530718,8.377580409573),(0.,1.48),.UNSPECIFIED.) 
GEOMETRIC_REPRESENTATION_ITEM() RATIONAL_B_SPLINE_SURFACE((
    (1.,1.)
    ,(0.5,0.5)
    ,(1.,1.)
    ,(0.5,0.5)
    ,(1.,1.)
    ,(0.5,0.5)
,(1.,1.))) REPRESENTATION_ITEM('') SURFACE() );
#88 = CARTESIAN_POINT('',(-0.173296230199,0.646750335863,92.189859473228
    ));
#89 = CARTESIAN_POINT('',(-0.173296230199,0.646750335863,93.090729038445
    ));
#90 = CARTESIAN_POINT('',(-1.293500671726,0.346592460398,92.189859473228
    ));
#91 = CARTESIAN_POINT('',(-1.293500671726,0.346592460398,93.090729038445
    ));
#92 = CARTESIAN_POINT('',(-0.473454105664,-0.473454105664,
    92.189859473228));
#93 = CARTESIAN_POINT('',(-0.473454105664,-0.473454105664,
    93.090729038445));
#94 = CARTESIAN_POINT('',(0.346592460398,-1.293500671726,92.189859473228
    ));
#95 = CARTESIAN_POINT('',(0.346592460398,-1.293500671726,93.090729038445
    ));
#96 = CARTESIAN_POINT('',(0.646750335863,-0.173296230199,92.189859473228
    ));
#97 = CARTESIAN_POINT('',(0.646750335863,-0.173296230199,93.090729038445
    ));
#98 = CARTESIAN_POINT('',(0.946908211328,0.946908211328,92.189859473228)
  );
#99 = CARTESIAN_POINT('',(0.946908211328,0.946908211328,93.090729038445)
  );
#100 = CARTESIAN_POINT('',(-0.173296230199,0.646750335863,
    92.189859473228));
#101 = CARTESIAN_POINT('',(-0.173296230199,0.646750335863,
    93.090729038445));
#102 = ADVANCED_FACE('',(#103,#106),#120,.T.);
#103 = FACE_BOUND('',#104,.T.);
#104 = EDGE_LOOP('',(#105));
#105 = ORIENTED_EDGE('',*,*,#30,.T.);
#106 = FACE_BOUND('',#107,.T.);
#107 = EDGE_LOOP('',(#108));
#108 = ORIENTED_EDGE('',*,*,#109,.F.);
#109 = EDGE_CURVE('',#110,#110,#112,.T.);
#110 = VERTEX_POINT('',#111);
#111 = CARTESIAN_POINT('',(-0.133910723336,0.499761623167,
    93.163772516706));
#112 = ( BOUNDED_CURVE() B_SPLINE_CURVE(2,(#113,#114,#115,#116,#117,#118
,#119),.UNSPECIFIED.,.T.,.F.) B_SPLINE_CURVE_WITH_KNOTS((1,2,2,2,2,1),(
    -2.094395102393,0.,2.094395102393,4.188790204786,6.28318530718,
8.377580409573),.UNSPECIFIED.) CURVE() GEOMETRIC_REPRESENTATION_ITEM() 
RATIONAL_B_SPLINE_CURVE((1.,0.5,1.,0.5,1.,0.5,1.)) REPRESENTATION_ITEM(
  '') );
#113 = CARTESIAN_POINT('',(-0.133910723336,0.499761623167,
    93.163772516706));
#114 = CARTESIAN_POINT('',(-0.999523246334,0.267821446671,
    93.163772516706));
#115 = CARTESIAN_POINT('',(-0.365850899831,-0.365850899831,
    93.163772516706));
#116 = CARTESIAN_POINT('',(0.267821446671,-0.999523246334,
    93.163772516706));
#117 = CARTESIAN_POINT('',(0.499761623167,-0.133910723336,
    93.163772516706));
#118 = CARTESIAN_POINT('',(0.731701799663,0.731701799663,93.163772516706
    ));
#119 = CARTESIAN_POINT('',(-0.133910723336,0.499761623167,
    93.163772516706));
#120 = B_SPLINE_SURFACE_WITH_KNOTS('',1,1,(
    (#121,#122)
    ,(#123,#124
    )),.UNSPECIFIED.,.F.,.F.,.F.,(2,2),(2,2),(-1.1,1.1),(-1.1,1.1),
  .PIECEWISE_BEZIER_KNOTS.);
#121 = CARTESIAN_POINT('',(0.820046566062,-0.473454105664,
    93.163772516706));
#122 = CARTESIAN_POINT('',(-0.473454105664,-0.820046566062,
    93.163772516706));
#123 = CARTESIAN_POINT('',(0.473454105664,0.820046566062,93.163772516706
    ));
#124 = CARTESIAN_POINT('',(-0.820046566062,0.473454105664,
    93.163772516706));
#125 = ADVANCED_FACE('',(#126,#129),#143,.F.);
#126 = FACE_BOUND('',#127,.F.);
#127 = EDGE_LOOP('',(#128));
#128 = ORIENTED_EDGE('',*,*,#77,.T.);
#129 = FACE_BOUND('',#130,.F.);
#130 = EDGE_LOOP('',(#131));
#131 = ORIENTED_EDGE('',*,*,#132,.F.);
#132 = EDGE_CURVE('',#133,#133,#135,.T.);
#133 = VERTEX_POINT('',#134);
#134 = CARTESIAN_POINT('',(-0.133910723336,0.499761623167,
    92.189859473228));
#135 = ( BOUNDED_CURVE() B_SPLINE_CURVE(2,(#136,#137,#138,#139,#140,#141
,#142),.UNSPECIFIED.,.T.,.F.) B_SPLINE_CURVE_WITH_KNOTS((1,2,2,2,2,1),(
    -2.094395102393,0.,2.094395102393,4.188790204786,6.28318530718,
8.377580409573),.UNSPECIFIED.) CURVE() GEOMETRIC_REPRESENTATION_ITEM() 
RATIONAL_B_SPLINE_CURVE((1.,0.5,1.,0.5,1.,0.5,1.)) REPRESENTATION_ITEM(
  '') );
#136 = CARTESIAN_POINT('',(-0.133910723336,0.499761623167,
    92.189859473228));
#137 = CARTESIAN_POINT('',(-0.999523246334,0.267821446671,
    92.189859473228));
#138 = CARTESIAN_POINT('',(-0.365850899831,-0.365850899831,
    92.189859473228));
#139 = CARTESIAN_POINT('',(0.267821446671,-0.999523246334,
    92.189859473228));
#140 = CARTESIAN_POINT('',(0.499761623167,-0.133910723336,
    92.189859473228));
#141 = CARTESIAN_POINT('',(0.731701799663,0.731701799663,92.189859473228
    ));
#142 = CARTESIAN_POINT('',(-0.133910723336,0.499761623167,
    92.189859473228));
#143 = B_SPLINE_SURFACE_WITH_KNOTS('',1,1,(
    (#144,#145)
    ,(#146,#147
    )),.UNSPECIFIED.,.F.,.F.,.F.,(2,2),(2,2),(-1.1,1.1),(-1.1,1.1),
  .PIECEWISE_BEZIER_KNOTS.);
#144 = CARTESIAN_POINT('',(0.820046566062,-0.473454105664,
    92.189859473228));
#145 = CARTESIAN_POINT('',(-0.473454105664,-0.820046566062,
    92.189859473228));
#146 = CARTESIAN_POINT('',(0.473454105664,0.820046566062,92.189859473228
    ));
#147 = CARTESIAN_POINT('',(-0.820046566062,0.473454105664,
    92.189859473228));
#148 = ADVANCED_FACE('',(#149),#152,.T.);
#149 = FACE_BOUND('',#150,.T.);
#150 = EDGE_LOOP('',(#151));
#151 = ORIENTED_EDGE('',*,*,#109,.T.);
#152 = B_SPLINE_SURFACE_WITH_KNOTS('',1,1,(
    (#153,#154)
    ,(#155,#156
    )),.UNSPECIFIED.,.F.,.F.,.F.,(2,2),(2,2),(-0.85,0.85),(-0.85,0.85),
  .PIECEWISE_BEZIER_KNOTS.);
#153 = CARTESIAN_POINT('',(0.633672346503,-0.365850899831,
    93.163772516706));
#154 = CARTESIAN_POINT('',(-0.365850899831,-0.633672346503,
    93.163772516706));
#155 = CARTESIAN_POINT('',(0.365850899831,0.633672346503,93.163772516706
    ));
#156 = CARTESIAN_POINT('',(-0.633672346503,0.365850899831,
    93.163772516706));
#157 = ADVANCED_FACE('',(#158),#179,.F.);
#158 = FACE_BOUND('',#159,.F.);
#159 = EDGE_LOOP('',(#160,#172,#177,#178));
#160 = ORIENTED_EDGE('',*,*,#161,.F.);
#161 = EDGE_CURVE('',#162,#162,#164,.T.);
#162 = VERTEX_POINT('',#163);
#163 = CARTESIAN_POINT('',(-0.133910723336,0.499761623167,
    93.090729038445));
#164 = ( BOUNDED_CURVE() B_SPLINE_CURVE(2,(#165,#166,#167,#168,#169,#170
,#171),.UNSPECIFIED.,.T.,.F.) B_SPLINE_CURVE_WITH_KNOTS((1,2,2,2,2,1),(
    -2.094395102393,0.,2.094395102393,4.188790204786,6.28318530718,
8.377580409573),.UNSPECIFIED.) CURVE() GEOMETRIC_REPRESENTATION_ITEM() 
RATIONAL_B_SPLINE_CURVE((1.,0.5,1.,0.5,1.,0.5,1.)) REPRESENTATION_ITEM(
  '') );
#165 = CARTESIAN_POINT('',(-0.133910723336,0.499761623167,
    93.090729038445));
#166 = CARTESIAN_POINT('',(-0.999523246334,0.267821446671,
    93.090729038445));
#167 = CARTESIAN_POINT('',(-0.365850899831,-0.365850899831,
    93.090729038445));
#168 = CARTESIAN_POINT('',(0.267821446671,-0.999523246334,
    93.090729038445));
#169 = CARTESIAN_POINT('',(0.499761623167,-0.133910723336,
    93.090729038445));
#170 = CARTESIAN_POINT('',(0.731701799663,0.731701799663,93.090729038445
    ));
#171 = CARTESIAN_POINT('',(-0.133910723336,0.499761623167,
    93.090729038445));
#172 = ORIENTED_EDGE('',*,*,#173,.F.);
#173 = EDGE_CURVE('',#133,#162,#174,.T.);
#174 = B_SPLINE_CURVE_WITH_KNOTS('',1,(#175,#176),.UNSPECIFIED.,.F.,.F.,
  (2,2),(0.2,1.68),.PIECEWISE_BEZIER_KNOTS.);
#175 = CARTESIAN_POINT('',(-0.133910723336,0.499761623167,
    92.189859473228));
#176 = CARTESIAN_POINT('',(-0.133910723336,0.499761623167,
    93.090729038445));
#177 = ORIENTED_EDGE('',*,*,#132,.T.);
#178 = ORIENTED_EDGE('',*,*,#173,.T.);
#179 = ( BOUNDED_SURFACE() B_SPLINE_SURFACE(2,1,(
    (#180,#181)
    ,(#182,#183)
    ,(#184,#185)
    ,(#186,#187)
    ,(#188,#189)
    ,(#190,#191)
,(#192,#193
    )),.UNSPECIFIED.,.T.,.F.,.F.) B_SPLINE_SURFACE_WITH_KNOTS((1,2,2,2,2
    ,1),(2,2),(-2.094395102393,0.,2.094395102393,4.188790204786,
    6.28318530718,8.377580409573),(0.2,1.68),.UNSPECIFIED.) 
GEOMETRIC_REPRESENTATION_ITEM() RATIONAL_B_SPLINE_SURFACE((
    (1.,1.)
    ,(0.5,0.5)
    ,(1.,1.)
    ,(0.5,0.5)
    ,(1.,1.)
    ,(0.5,0.5)
,(1.,1.))) REPRESENTATION_ITEM('') SURFACE() );
#180 = CARTESIAN_POINT('',(-0.133910723336,0.499761623167,
    92.189859473228));
#181 = CARTESIAN_POINT('',(-0.133910723336,0.499761623167,
    93.090729038445));
#182 = CARTESIAN_POINT('',(-0.999523246334,0.267821446671,
    92.189859473228));
#183 = CARTESIAN_POINT('',(-0.999523246334,0.267821446671,
    93.090729038445));
#184 = CARTESIAN_POINT('',(-0.365850899831,-0.365850899831,
    92.189859473228));
#185 = CARTESIAN_POINT('',(-0.365850899831,-0.365850899831,
    93.090729038445));
#186 = CARTESIAN_POINT('',(0.267821446671,-0.999523246334,
    92.189859473228));
#187 = CARTESIAN_POINT('',(0.267821446671,-0.999523246334,
    93.090729038445));
#188 = CARTESIAN_POINT('',(0.499761623167,-0.133910723336,
    92.189859473228));
#189 = CARTESIAN_POINT('',(0.499761623167,-0.133910723336,
    93.090729038445));
#190 = CARTESIAN_POINT('',(0.731701799663,0.731701799663,92.189859473228
    ));
#191 = CARTESIAN_POINT('',(0.731701799663,0.731701799663,93.090729038445
    ));
#192 = CARTESIAN_POINT('',(-0.133910723336,0.499761623167,
    92.189859473228));
#193 = CARTESIAN_POINT('',(-0.133910723336,0.499761623167,
    93.090729038445));
#194 = ADVANCED_FACE('',(#195),#198,.F.);
#195 = FACE_BOUND('',#196,.F.);
#196 = EDGE_LOOP('',(#197));
#197 = ORIENTED_EDGE('',*,*,#161,.T.);
#198 = B_SPLINE_SURFACE_WITH_KNOTS('',1,1,(
    (#199,#200)
    ,(#201,#202
    )),.UNSPECIFIED.,.F.,.F.,.F.,(2,2),(2,2),(-0.85,0.85),(-0.85,0.85),
  .PIECEWISE_BEZIER_KNOTS.);
#199 = CARTESIAN_POINT('',(0.633672346503,-0.365850899831,
    93.090729038445));
#200 = CARTESIAN_POINT('',(-0.365850899831,-0.633672346503,
    93.090729038445));
#201 = CARTESIAN_POINT('',(0.365850899831,0.633672346503,93.090729038445
    ));
#202 = CARTESIAN_POINT('',(-0.633672346503,0.365850899831,
    93.090729038445));
#203 = ( GEOMETRIC_REPRESENTATION_CONTEXT(3) 
GLOBAL_UNCERTAINTY_ASSIGNED_CONTEXT((#207)) GLOBAL_UNIT_ASSIGNED_CONTEXT
((#204,#205,#206)) REPRESENTATION_CONTEXT('Context #1',
  '3D Context with UNIT and UNCERTAINTY') );
#204 = ( LENGTH_UNIT() NAMED_UNIT(*) SI_UNIT(.MILLI.,.METRE.) );
#205 = ( NAMED_UNIT(*) PLANE_ANGLE_UNIT() SI_UNIT($,.RADIAN.) );
#206 = ( NAMED_UNIT(*) SI_UNIT($,.STERADIAN.) SOLID_ANGLE_UNIT() );
#207 = UNCERTAINTY_MEASURE_WITH_UNIT(LENGTH_MEASURE(1.E-07),#204,
  'distance_accuracy_value','confusion accuracy');
#208 = PRODUCT_RELATED_PRODUCT_CATEGORY('part',$,(#7));
ENDSEC;
END-ISO-10303-21;
