ISO-10303-21;
HEADER;
FILE_DESCRIPTION(('FreeCAD Model'),'2;1');
FILE_NAME('Open CASCADE Shape Model','2026-07-29T09:33:04',('FreeCAD'),(
    'FreeCAD'),'Open CASCADE STEP processor 7.8','FreeCAD','Unknown');
FILE_SCHEMA(('AUTOMOTIVE_DESIGN { 1 0 10303 214 1 1 1 1 }'));
ENDSEC;
DATA;
#1 = APPLICATION_PROTOCOL_DEFINITION('international standard',
  'automotive_design',2000,#2);
#2 = APPLICATION_CONTEXT(
  'core data for automotive mechanical design processes');
#3 = SHAPE_DEFINITION_REPRESENTATION(#4,#10);
#4 = PRODUCT_DEFINITION_SHAPE('','',#5);
#5 = PRODUCT_DEFINITION('design','',#6,#9);
#6 = PRODUCT_DEFINITION_FORMATION('','',#7);
#7 = PRODUCT('Open CASCADE STEP translator 7.8 76',
  'Open CASCADE STEP translator 7.8 76','',(#8));
#8 = PRODUCT_CONTEXT('',#2,'mechanical');
#9 = PRODUCT_DEFINITION_CONTEXT('part definition',#2,'design');
#10 = ADVANCED_BREP_SHAPE_REPRESENTATION('',(#11,#15),#137);
#11 = AXIS2_PLACEMENT_3D('',#12,#13,#14);
#12 = CARTESIAN_POINT('',(0.,0.,0.));
#13 = DIRECTION('',(0.,0.,1.));
#14 = DIRECTION('',(1.,0.,-0.));
#15 = MANIFOLD_SOLID_BREP('',#16);
#16 = CLOSED_SHELL('',(#17,#65,#88,#111));
#17 = ADVANCED_FACE('',(#18),#50,.T.);
#18 = FACE_BOUND('',#19,.T.);
#19 = EDGE_LOOP('',(#20,#32,#39,#49));
#20 = ORIENTED_EDGE('',*,*,#21,.F.);
#21 = EDGE_CURVE('',#22,#22,#24,.T.);
#22 = VERTEX_POINT('',#23);
#23 = CARTESIAN_POINT('',(-0.385977967262,1.440489384422,94.563772516706
    ));
#24 = ( BOUNDED_CURVE() B_SPLINE_CURVE(2,(#25,#26,#27,#28,#29,#30,#31),
.UNSPECIFIED.,.T.,.F.) B_SPLINE_CURVE_WITH_KNOTS((1,2,2,2,2,1),(
    -2.094395102393,0.,2.094395102393,4.188790204786,6.28318530718,
8.377580409573),.UNSPECIFIED.) CURVE() GEOMETRIC_REPRESENTATION_ITEM() 
RATIONAL_B_SPLINE_CURVE((1.,0.5,1.,0.5,1.,0.5,1.)) REPRESENTATION_ITEM(
  '') );
#25 = CARTESIAN_POINT('',(-0.385977967262,1.440489384422,94.563772516706
    ));
#26 = CARTESIAN_POINT('',(-2.880978768845,0.771955934523,94.563772516706
    ));
#27 = CARTESIAN_POINT('',(-1.054511417161,-1.054511417161,
    94.563772516706));
#28 = CARTESIAN_POINT('',(0.771955934523,-2.880978768845,94.563772516706
    ));
#29 = CARTESIAN_POINT('',(1.440489384422,-0.385977967262,94.563772516706
    ));
#30 = CARTESIAN_POINT('',(2.109022834322,2.109022834322,94.563772516706)
  );
#31 = CARTESIAN_POINT('',(-0.385977967262,1.440489384422,94.563772516706
    ));
#32 = ORIENTED_EDGE('',*,*,#33,.F.);
#33 = EDGE_CURVE('',#34,#22,#36,.T.);
#34 = VERTEX_POINT('',#35);
#35 = CARTESIAN_POINT('',(-0.385977967262,1.440489384422,90.789859473228
    ));
#36 = B_SPLINE_CURVE_WITH_KNOTS('',1,(#37,#38),.UNSPECIFIED.,.F.,.F.,(2,
    2),(0.,6.2),.PIECEWISE_BEZIER_KNOTS.);
#37 = CARTESIAN_POINT('',(-0.385977967262,1.440489384422,90.789859473228
    ));
#38 = CARTESIAN_POINT('',(-0.385977967262,1.440489384422,94.563772516706
    ));
#39 = ORIENTED_EDGE('',*,*,#40,.T.);
#40 = EDGE_CURVE('',#34,#34,#41,.T.);
#41 = ( BOUNDED_CURVE() B_SPLINE_CURVE(2,(#42,#43,#44,#45,#46,#47,#48),
.UNSPECIFIED.,.T.,.F.) B_SPLINE_CURVE_WITH_KNOTS((1,2,2,2,2,1),(
    -2.094395102393,0.,2.094395102393,4.188790204786,6.28318530718,
8.377580409573),.UNSPECIFIED.) CURVE() GEOMETRIC_REPRESENTATION_ITEM() 
RATIONAL_B_SPLINE_CURVE((1.,0.5,1.,0.5,1.,0.5,1.)) REPRESENTATION_ITEM(
  '') );
#42 = CARTESIAN_POINT('',(-0.385977967262,1.440489384422,90.789859473228
    ));
#43 = CARTESIAN_POINT('',(-2.880978768845,0.771955934523,90.789859473228
    ));
#44 = CARTESIAN_POINT('',(-1.054511417161,-1.054511417161,
    90.789859473228));
#45 = CARTESIAN_POINT('',(0.771955934523,-2.880978768845,90.789859473228
    ));
#46 = CARTESIAN_POINT('',(1.440489384422,-0.385977967262,90.789859473228
    ));
#47 = CARTESIAN_POINT('',(2.109022834322,2.109022834322,90.789859473228)
  );
#48 = CARTESIAN_POINT('',(-0.385977967262,1.440489384422,90.789859473228
    ));
#49 = ORIENTED_EDGE('',*,*,#33,.T.);
#50 = ( BOUNDED_SURFACE() B_SPLINE_SURFACE(2,1,(
    (#51,#52)
    ,(#53,#54)
    ,(#55,#56)
    ,(#57,#58)
    ,(#59,#60)
    ,(#61,#62)
,(#63,#64
    )),.UNSPECIFIED.,.T.,.F.,.F.) B_SPLINE_SURFACE_WITH_KNOTS((1,2,2,2,2
    ,1),(2,2),(-2.094395102393,0.,2.094395102393,4.188790204786,
    6.28318530718,8.377580409573),(0.,6.2),.UNSPECIFIED.) 
GEOMETRIC_REPRESENTATION_ITEM() RATIONAL_B_SPLINE_SURFACE((
    (1.,1.)
    ,(0.5,0.5)
    ,(1.,1.)
    ,(0.5,0.5)
    ,(1.,1.)
    ,(0.5,0.5)
,(1.,1.))) REPRESENTATION_ITEM('') SURFACE() );
#51 = CARTESIAN_POINT('',(-0.385977967262,1.440489384422,90.789859473228
    ));
#52 = CARTESIAN_POINT('',(-0.385977967262,1.440489384422,94.563772516706
    ));
#53 = CARTESIAN_POINT('',(-2.880978768845,0.771955934523,90.789859473228
    ));
#54 = CARTESIAN_POINT('',(-2.880978768845,0.771955934523,94.563772516706
    ));
#55 = CARTESIAN_POINT('',(-1.054511417161,-1.054511417161,
    90.789859473228));
#56 = CARTESIAN_POINT('',(-1.054511417161,-1.054511417161,
    94.563772516706));
#57 = CARTESIAN_POINT('',(0.771955934523,-2.880978768845,90.789859473228
    ));
#58 = CARTESIAN_POINT('',(0.771955934523,-2.880978768845,94.563772516706
    ));
#59 = CARTESIAN_POINT('',(1.440489384422,-0.385977967262,90.789859473228
    ));
#60 = CARTESIAN_POINT('',(1.440489384422,-0.385977967262,94.563772516706
    ));
#61 = CARTESIAN_POINT('',(2.109022834322,2.109022834322,90.789859473228)
  );
#62 = CARTESIAN_POINT('',(2.109022834322,2.109022834322,94.563772516706)
  );
#63 = CARTESIAN_POINT('',(-0.385977967262,1.440489384422,90.789859473228
    ));
#64 = CARTESIAN_POINT('',(-0.385977967262,1.440489384422,94.563772516706
    ));
#65 = ADVANCED_FACE('',(#66,#69),#83,.T.);
#66 = FACE_BOUND('',#67,.T.);
#67 = EDGE_LOOP('',(#68));
#68 = ORIENTED_EDGE('',*,*,#21,.T.);
#69 = FACE_BOUND('',#70,.T.);
#70 = EDGE_LOOP('',(#71));
#71 = ORIENTED_EDGE('',*,*,#72,.F.);
#72 = EDGE_CURVE('',#73,#73,#75,.T.);
#73 = VERTEX_POINT('',#74);
#74 = CARTESIAN_POINT('',(-0.307206953535,1.14651195903,94.563772516706)
  );
#75 = ( BOUNDED_CURVE() B_SPLINE_CURVE(2,(#76,#77,#78,#79,#80,#81,#82),
.UNSPECIFIED.,.T.,.F.) B_SPLINE_CURVE_WITH_KNOTS((1,2,2,2,2,1),(
    -2.094395102393,0.,2.094395102393,4.188790204786,6.28318530718,
8.377580409573),.UNSPECIFIED.) CURVE() GEOMETRIC_REPRESENTATION_ITEM() 
RATIONAL_B_SPLINE_CURVE((1.,0.5,1.,0.5,1.,0.5,1.)) REPRESENTATION_ITEM(
  '') );
#76 = CARTESIAN_POINT('',(-0.307206953535,1.14651195903,94.563772516706)
  );
#77 = CARTESIAN_POINT('',(-2.29302391806,0.614413907069,94.563772516706)
  );
#78 = CARTESIAN_POINT('',(-0.839305005495,-0.839305005495,
    94.563772516706));
#79 = CARTESIAN_POINT('',(0.614413907069,-2.29302391806,94.563772516706)
  );
#80 = CARTESIAN_POINT('',(1.14651195903,-0.307206953535,94.563772516706)
  );
#81 = CARTESIAN_POINT('',(1.678610010991,1.678610010991,94.563772516706)
  );
#82 = CARTESIAN_POINT('',(-0.307206953535,1.14651195903,94.563772516706)
  );
#83 = B_SPLINE_SURFACE_WITH_KNOTS('',1,1,(
    (#84,#85)
    ,(#86,#87
    )),.UNSPECIFIED.,.F.,.F.,.F.,(2,2),(2,2),(-2.45,2.45),(-2.45,2.45),
  .PIECEWISE_BEZIER_KNOTS.);
#84 = CARTESIAN_POINT('',(1.826467351684,-1.054511417161,94.563772516706
    ));
#85 = CARTESIAN_POINT('',(-1.054511417161,-1.826467351684,
    94.563772516706));
#86 = CARTESIAN_POINT('',(1.054511417161,1.826467351684,94.563772516706)
  );
#87 = CARTESIAN_POINT('',(-1.826467351684,1.054511417161,94.563772516706
    ));
#88 = ADVANCED_FACE('',(#89,#92),#106,.F.);
#89 = FACE_BOUND('',#90,.F.);
#90 = EDGE_LOOP('',(#91));
#91 = ORIENTED_EDGE('',*,*,#40,.T.);
#92 = FACE_BOUND('',#93,.F.);
#93 = EDGE_LOOP('',(#94));
#94 = ORIENTED_EDGE('',*,*,#95,.F.);
#95 = EDGE_CURVE('',#96,#96,#98,.T.);
#96 = VERTEX_POINT('',#97);
#97 = CARTESIAN_POINT('',(-0.307206953535,1.14651195903,90.789859473228)
  );
#98 = ( BOUNDED_CURVE() B_SPLINE_CURVE(2,(#99,#100,#101,#102,#103,#104,
#105),.UNSPECIFIED.,.T.,.F.) B_SPLINE_CURVE_WITH_KNOTS((1,2,2,2,2,1),(
    -2.094395102393,0.,2.094395102393,4.188790204786,6.28318530718,
8.377580409573),.UNSPECIFIED.) CURVE() GEOMETRIC_REPRESENTATION_ITEM() 
RATIONAL_B_SPLINE_CURVE((1.,0.5,1.,0.5,1.,0.5,1.)) REPRESENTATION_ITEM(
  '') );
#99 = CARTESIAN_POINT('',(-0.307206953535,1.14651195903,90.789859473228)
  );
#100 = CARTESIAN_POINT('',(-2.29302391806,0.614413907069,90.789859473228
    ));
#101 = CARTESIAN_POINT('',(-0.839305005495,-0.839305005495,
    90.789859473228));
#102 = CARTESIAN_POINT('',(0.614413907069,-2.29302391806,90.789859473228
    ));
#103 = CARTESIAN_POINT('',(1.14651195903,-0.307206953535,90.789859473228
    ));
#104 = CARTESIAN_POINT('',(1.678610010991,1.678610010991,90.789859473228
    ));
#105 = CARTESIAN_POINT('',(-0.307206953535,1.14651195903,90.789859473228
    ));
#106 = B_SPLINE_SURFACE_WITH_KNOTS('',1,1,(
    (#107,#108)
    ,(#109,#110
    )),.UNSPECIFIED.,.F.,.F.,.F.,(2,2),(2,2),(-2.45,2.45),(-2.45,2.45),
  .PIECEWISE_BEZIER_KNOTS.);
#107 = CARTESIAN_POINT('',(1.826467351684,-1.054511417161,
    90.789859473228));
#108 = CARTESIAN_POINT('',(-1.054511417161,-1.826467351684,
    90.789859473228));
#109 = CARTESIAN_POINT('',(1.054511417161,1.826467351684,90.789859473228
    ));
#110 = CARTESIAN_POINT('',(-1.826467351684,1.054511417161,
    90.789859473228));
#111 = ADVANCED_FACE('',(#112),#122,.F.);
#112 = FACE_BOUND('',#113,.F.);
#113 = EDGE_LOOP('',(#114,#115,#120,#121));
#114 = ORIENTED_EDGE('',*,*,#72,.F.);
#115 = ORIENTED_EDGE('',*,*,#116,.F.);
#116 = EDGE_CURVE('',#96,#73,#117,.T.);
#117 = B_SPLINE_CURVE_WITH_KNOTS('',1,(#118,#119),.UNSPECIFIED.,.F.,.F.,
  (2,2),(0.2,6.4),.PIECEWISE_BEZIER_KNOTS.);
#118 = CARTESIAN_POINT('',(-0.307206953535,1.14651195903,90.789859473228
    ));
#119 = CARTESIAN_POINT('',(-0.307206953535,1.14651195903,94.563772516706
    ));
#120 = ORIENTED_EDGE('',*,*,#95,.T.);
#121 = ORIENTED_EDGE('',*,*,#116,.T.);
#122 = ( BOUNDED_SURFACE() B_SPLINE_SURFACE(2,1,(
    (#123,#124)
    ,(#125,#126)
    ,(#127,#128)
    ,(#129,#130)
    ,(#131,#132)
    ,(#133,#134)
,(#135,#136
    )),.UNSPECIFIED.,.T.,.F.,.F.) B_SPLINE_SURFACE_WITH_KNOTS((1,2,2,2,2
    ,1),(2,2),(-2.094395102393,0.,2.094395102393,4.188790204786,
    6.28318530718,8.377580409573),(0.2,6.4),.UNSPECIFIED.) 
GEOMETRIC_REPRESENTATION_ITEM() RATIONAL_B_SPLINE_SURFACE((
    (1.,1.)
    ,(0.5,0.5)
    ,(1.,1.)
    ,(0.5,0.5)
    ,(1.,1.)
    ,(0.5,0.5)
,(1.,1.))) REPRESENTATION_ITEM('') SURFACE() );
#123 = CARTESIAN_POINT('',(-0.307206953535,1.14651195903,90.789859473228
    ));
#124 = CARTESIAN_POINT('',(-0.307206953535,1.14651195903,94.563772516706
    ));
#125 = CARTESIAN_POINT('',(-2.29302391806,0.614413907069,90.789859473228
    ));
#126 = CARTESIAN_POINT('',(-2.29302391806,0.614413907069,94.563772516706
    ));
#127 = CARTESIAN_POINT('',(-0.839305005495,-0.839305005495,
    90.789859473228));
#128 = CARTESIAN_POINT('',(-0.839305005495,-0.839305005495,
    94.563772516706));
#129 = CARTESIAN_POINT('',(0.614413907069,-2.29302391806,90.789859473228
    ));
#130 = CARTESIAN_POINT('',(0.614413907069,-2.29302391806,94.563772516706
    ));
#131 = CARTESIAN_POINT('',(1.14651195903,-0.307206953535,90.789859473228
    ));
#132 = CARTESIAN_POINT('',(1.14651195903,-0.307206953535,94.563772516706
    ));
#133 = CARTESIAN_POINT('',(1.678610010991,1.678610010991,90.789859473228
    ));
#134 = CARTESIAN_POINT('',(1.678610010991,1.678610010991,94.563772516706
    ));
#135 = CARTESIAN_POINT('',(-0.307206953535,1.14651195903,90.789859473228
    ));
#136 = CARTESIAN_POINT('',(-0.307206953535,1.14651195903,94.563772516706
    ));
#137 = ( GEOMETRIC_REPRESENTATION_CONTEXT(3) 
GLOBAL_UNCERTAINTY_ASSIGNED_CONTEXT((#141)) GLOBAL_UNIT_ASSIGNED_CONTEXT
((#138,#139,#140)) REPRESENTATION_CONTEXT('Context #1',
  '3D Context with UNIT and UNCERTAINTY') );
#138 = ( LENGTH_UNIT() NAMED_UNIT(*) SI_UNIT(.MILLI.,.METRE.) );
#139 = ( NAMED_UNIT(*) PLANE_ANGLE_UNIT() SI_UNIT($,.RADIAN.) );
#140 = ( NAMED_UNIT(*) SI_UNIT($,.STERADIAN.) SOLID_ANGLE_UNIT() );
#141 = UNCERTAINTY_MEASURE_WITH_UNIT(LENGTH_MEASURE(1.E-07),#138,
  'distance_accuracy_value','confusion accuracy');
#142 = PRODUCT_RELATED_PRODUCT_CATEGORY('part',$,(#7));
ENDSEC;
END-ISO-10303-21;
