ISO-10303-21;
HEADER;
FILE_DESCRIPTION(('FreeCAD Model'),'2;1');
FILE_NAME('Open CASCADE Shape Model','2026-08-13T22:11:32',('FreeCAD'),(
    'FreeCAD'),'Open CASCADE STEP processor 7.8','FreeCAD','Unknown');
FILE_SCHEMA(('AUTOMOTIVE_DESIGN { 1 0 10303 214 1 1 1 1 }'));
ENDSEC;
DATA;
#1 = APPLICATION_PROTOCOL_DEFINITION('international standard',
  'automotive_design',2000,#2);
#2 = APPLICATION_CONTEXT(
  'core data for automotive mechanical design processes');
#3 = SHAPE_DEFINITION_REPRESENTATION(#4,#10);
#4 = PRODUCT_DEFINITION_SHAPE('','',#5);
#5 = PRODUCT_DEFINITION('design','',#6,#9);
#6 = PRODUCT_DEFINITION_FORMATION('','',#7);
#7 = PRODUCT('Open CASCADE STEP translator 7.8 79',
  'Open CASCADE STEP translator 7.8 79','',(#8));
#8 = PRODUCT_CONTEXT('',#2,'mechanical');
#9 = PRODUCT_DEFINITION_CONTEXT('part definition',#2,'design');
#10 = ADVANCED_BREP_SHAPE_REPRESENTATION('',(#11,#15),#257);
#11 = AXIS2_PLACEMENT_3D('',#12,#13,#14);
#12 = CARTESIAN_POINT('',(0.,0.,0.));
#13 = DIRECTION('',(0.,0.,1.));
#14 = DIRECTION('',(1.,0.,-0.));
#15 = MANIFOLD_SOLID_BREP('',#16);
#16 = CLOSED_SHELL('',(#17,#65,#88,#111,#148,#171,#208,#231));
#17 = ADVANCED_FACE('',(#18),#50,.T.);
#18 = FACE_BOUND('',#19,.T.);
#19 = EDGE_LOOP('',(#20,#32,#39,#49));
#20 = ORIENTED_EDGE('',*,*,#21,.F.);
#21 = EDGE_CURVE('',#22,#22,#24,.T.);
#22 = VERTEX_POINT('',#23);
#23 = CARTESIAN_POINT('',(-0.291452750789,1.087716473952,85.573755435699
    ));
#24 = ( BOUNDED_CURVE() B_SPLINE_CURVE(2,(#25,#26,#27,#28,#29,#30,#31),
.UNSPECIFIED.,.T.,.F.) B_SPLINE_CURVE_WITH_KNOTS((1,2,2,2,2,1),(
    -2.094395102393,0.,2.094395102393,4.188790204786,6.28318530718,
8.377580409573),.UNSPECIFIED.) CURVE() GEOMETRIC_REPRESENTATION_ITEM() 
RATIONAL_B_SPLINE_CURVE((1.,0.5,1.,0.5,1.,0.5,1.)) REPRESENTATION_ITEM(
  '') );
#25 = CARTESIAN_POINT('',(-0.291452750789,1.087716473952,85.573755435699
    ));
#26 = CARTESIAN_POINT('',(-2.175432947903,0.582905501579,85.573755435699
    ));
#27 = CARTESIAN_POINT('',(-0.796263723162,-0.796263723162,
    85.573755435699));
#28 = CARTESIAN_POINT('',(0.582905501579,-2.175432947903,85.573755435699
    ));
#29 = CARTESIAN_POINT('',(1.087716473952,-0.291452750789,85.573755435699
    ));
#30 = CARTESIAN_POINT('',(1.592527446324,1.592527446324,85.573755435699)
  );
#31 = CARTESIAN_POINT('',(-0.291452750789,1.087716473952,85.573755435699
    ));
#32 = ORIENTED_EDGE('',*,*,#33,.F.);
#33 = EDGE_CURVE('',#34,#22,#36,.T.);
#34 = VERTEX_POINT('',#35);
#35 = CARTESIAN_POINT('',(-0.291452750789,1.087716473952,84.721581522656
    ));
#36 = B_SPLINE_CURVE_WITH_KNOTS('',1,(#37,#38),.UNSPECIFIED.,.F.,.F.,(2,
    2),(0.,1.4),.PIECEWISE_BEZIER_KNOTS.);
#37 = CARTESIAN_POINT('',(-0.291452750789,1.087716473952,84.721581522656
    ));
#38 = CARTESIAN_POINT('',(-0.291452750789,1.087716473952,85.573755435699
    ));
#39 = ORIENTED_EDGE('',*,*,#40,.T.);
#40 = EDGE_CURVE('',#34,#34,#41,.T.);
#41 = ( BOUNDED_CURVE() B_SPLINE_CURVE(2,(#42,#43,#44,#45,#46,#47,#48),
.UNSPECIFIED.,.T.,.F.) B_SPLINE_CURVE_WITH_KNOTS((1,2,2,2,2,1),(
    -2.094395102393,0.,2.094395102393,4.188790204786,6.28318530718,
8.377580409573),.UNSPECIFIED.) CURVE() GEOMETRIC_REPRESENTATION_ITEM() 
RATIONAL_B_SPLINE_CURVE((1.,0.5,1.,0.5,1.,0.5,1.)) REPRESENTATION_ITEM(
  '') );
#42 = CARTESIAN_POINT('',(-0.291452750789,1.087716473952,84.721581522656
    ));
#43 = CARTESIAN_POINT('',(-2.175432947903,0.582905501579,84.721581522656
    ));
#44 = CARTESIAN_POINT('',(-0.796263723162,-0.796263723162,
    84.721581522656));
#45 = CARTESIAN_POINT('',(0.582905501579,-2.175432947903,84.721581522656
    ));
#46 = CARTESIAN_POINT('',(1.087716473952,-0.291452750789,84.721581522656
    ));
#47 = CARTESIAN_POINT('',(1.592527446324,1.592527446324,84.721581522656)
  );
#48 = CARTESIAN_POINT('',(-0.291452750789,1.087716473952,84.721581522656
    ));
#49 = ORIENTED_EDGE('',*,*,#33,.T.);
#50 = ( BOUNDED_SURFACE() B_SPLINE_SURFACE(2,1,(
    (#51,#52)
    ,(#53,#54)
    ,(#55,#56)
    ,(#57,#58)
    ,(#59,#60)
    ,(#61,#62)
,(#63,#64
    )),.UNSPECIFIED.,.T.,.F.,.F.) B_SPLINE_SURFACE_WITH_KNOTS((1,2,2,2,2
    ,1),(2,2),(-2.094395102393,0.,2.094395102393,4.188790204786,
    6.28318530718,8.377580409573),(0.,1.4),.UNSPECIFIED.) 
GEOMETRIC_REPRESENTATION_ITEM() RATIONAL_B_SPLINE_SURFACE((
    (1.,1.)
    ,(0.5,0.5)
    ,(1.,1.)
    ,(0.5,0.5)
    ,(1.,1.)
    ,(0.5,0.5)
,(1.,1.))) REPRESENTATION_ITEM('') SURFACE() );
#51 = CARTESIAN_POINT('',(-0.291452750789,1.087716473952,84.721581522656
    ));
#52 = CARTESIAN_POINT('',(-0.291452750789,1.087716473952,85.573755435699
    ));
#53 = CARTESIAN_POINT('',(-2.175432947903,0.582905501579,84.721581522656
    ));
#54 = CARTESIAN_POINT('',(-2.175432947903,0.582905501579,85.573755435699
    ));
#55 = CARTESIAN_POINT('',(-0.796263723162,-0.796263723162,
    84.721581522656));
#56 = CARTESIAN_POINT('',(-0.796263723162,-0.796263723162,
    85.573755435699));
#57 = CARTESIAN_POINT('',(0.582905501579,-2.175432947903,84.721581522656
    ));
#58 = CARTESIAN_POINT('',(0.582905501579,-2.175432947903,85.573755435699
    ));
#59 = CARTESIAN_POINT('',(1.087716473952,-0.291452750789,84.721581522656
    ));
#60 = CARTESIAN_POINT('',(1.087716473952,-0.291452750789,85.573755435699
    ));
#61 = CARTESIAN_POINT('',(1.592527446324,1.592527446324,84.721581522656)
  );
#62 = CARTESIAN_POINT('',(1.592527446324,1.592527446324,85.573755435699)
  );
#63 = CARTESIAN_POINT('',(-0.291452750789,1.087716473952,84.721581522656
    ));
#64 = CARTESIAN_POINT('',(-0.291452750789,1.087716473952,85.573755435699
    ));
#65 = ADVANCED_FACE('',(#66,#69),#83,.T.);
#66 = FACE_BOUND('',#67,.T.);
#67 = EDGE_LOOP('',(#68));
#68 = ORIENTED_EDGE('',*,*,#21,.T.);
#69 = FACE_BOUND('',#70,.T.);
#70 = EDGE_LOOP('',(#71));
#71 = ORIENTED_EDGE('',*,*,#72,.F.);
#72 = EDGE_CURVE('',#73,#73,#75,.T.);
#73 = VERTEX_POINT('',#74);
#74 = CARTESIAN_POINT('',(-0.244190142553,0.911330018716,85.573755435699
    ));
#75 = ( BOUNDED_CURVE() B_SPLINE_CURVE(2,(#76,#77,#78,#79,#80,#81,#82),
.UNSPECIFIED.,.T.,.F.) B_SPLINE_CURVE_WITH_KNOTS((1,2,2,2,2,1),(
    -2.094395102393,0.,2.094395102393,4.188790204786,6.28318530718,
8.377580409573),.UNSPECIFIED.) CURVE() GEOMETRIC_REPRESENTATION_ITEM() 
RATIONAL_B_SPLINE_CURVE((1.,0.5,1.,0.5,1.,0.5,1.)) REPRESENTATION_ITEM(
  '') );
#76 = CARTESIAN_POINT('',(-0.244190142553,0.911330018716,85.573755435699
    ));
#77 = CARTESIAN_POINT('',(-1.822660037432,0.488380285106,85.573755435699
    ));
#78 = CARTESIAN_POINT('',(-0.667139876163,-0.667139876163,
    85.573755435699));
#79 = CARTESIAN_POINT('',(0.488380285106,-1.822660037432,85.573755435699
    ));
#80 = CARTESIAN_POINT('',(0.911330018716,-0.244190142553,85.573755435699
    ));
#81 = CARTESIAN_POINT('',(1.334279752326,1.334279752326,85.573755435699)
  );
#82 = CARTESIAN_POINT('',(-0.244190142553,0.911330018716,85.573755435699
    ));
#83 = B_SPLINE_SURFACE_WITH_KNOTS('',1,1,(
    (#84,#85)
    ,(#86,#87
    )),.UNSPECIFIED.,.F.,.F.,.F.,(2,2),(2,2),(-1.85,1.85),(-1.85,1.85),
  .PIECEWISE_BEZIER_KNOTS.);
#84 = CARTESIAN_POINT('',(1.379169224741,-0.796263723162,85.573755435699
    ));
#85 = CARTESIAN_POINT('',(-0.796263723162,-1.379169224741,
    85.573755435699));
#86 = CARTESIAN_POINT('',(0.796263723162,1.379169224741,85.573755435699)
  );
#87 = CARTESIAN_POINT('',(-1.379169224741,0.796263723162,85.573755435699
    ));
#88 = ADVANCED_FACE('',(#89,#92),#106,.F.);
#89 = FACE_BOUND('',#90,.F.);
#90 = EDGE_LOOP('',(#91));
#91 = ORIENTED_EDGE('',*,*,#40,.T.);
#92 = FACE_BOUND('',#93,.F.);
#93 = EDGE_LOOP('',(#94));
#94 = ORIENTED_EDGE('',*,*,#95,.F.);
#95 = EDGE_CURVE('',#96,#96,#98,.T.);
#96 = VERTEX_POINT('',#97);
#97 = CARTESIAN_POINT('',(-0.196927534317,0.734943563481,84.721581522656
    ));
#98 = ( BOUNDED_CURVE() B_SPLINE_CURVE(2,(#99,#100,#101,#102,#103,#104,
#105),.UNSPECIFIED.,.T.,.F.) B_SPLINE_CURVE_WITH_KNOTS((1,2,2,2,2,1),(
    -2.094395102393,0.,2.094395102393,4.188790204786,6.28318530718,
8.377580409573),.UNSPECIFIED.) CURVE() GEOMETRIC_REPRESENTATION_ITEM() 
RATIONAL_B_SPLINE_CURVE((1.,0.5,1.,0.5,1.,0.5,1.)) REPRESENTATION_ITEM(
  '') );
#99 = CARTESIAN_POINT('',(-0.196927534317,0.734943563481,84.721581522656
    ));
#100 = CARTESIAN_POINT('',(-1.469887126962,0.393855068634,
    84.721581522656));
#101 = CARTESIAN_POINT('',(-0.538016029164,-0.538016029164,
    84.721581522656));
#102 = CARTESIAN_POINT('',(0.393855068634,-1.469887126962,
    84.721581522656));
#103 = CARTESIAN_POINT('',(0.734943563481,-0.196927534317,
    84.721581522656));
#104 = CARTESIAN_POINT('',(1.076032058327,1.076032058327,84.721581522656
    ));
#105 = CARTESIAN_POINT('',(-0.196927534317,0.734943563481,
    84.721581522656));
#106 = B_SPLINE_SURFACE_WITH_KNOTS('',1,1,(
    (#107,#108)
    ,(#109,#110
    )),.UNSPECIFIED.,.F.,.F.,.F.,(2,2),(2,2),(-1.85,1.85),(-1.85,1.85),
  .PIECEWISE_BEZIER_KNOTS.);
#107 = CARTESIAN_POINT('',(1.379169224741,-0.796263723162,
    84.721581522656));
#108 = CARTESIAN_POINT('',(-0.796263723162,-1.379169224741,
    84.721581522656));
#109 = CARTESIAN_POINT('',(0.796263723162,1.379169224741,84.721581522656
    ));
#110 = CARTESIAN_POINT('',(-1.379169224741,0.796263723162,
    84.721581522656));
#111 = ADVANCED_FACE('',(#112),#133,.T.);
#112 = FACE_BOUND('',#113,.T.);
#113 = EDGE_LOOP('',(#114,#126,#131,#132));
#114 = ORIENTED_EDGE('',*,*,#115,.F.);
#115 = EDGE_CURVE('',#116,#116,#118,.T.);
#116 = VERTEX_POINT('',#117);
#117 = CARTESIAN_POINT('',(-0.244190142553,0.911330018716,
    87.034625000916));
#118 = ( BOUNDED_CURVE() B_SPLINE_CURVE(2,(#119,#120,#121,#122,#123,#124
,#125),.UNSPECIFIED.,.T.,.F.) B_SPLINE_CURVE_WITH_KNOTS((1,2,2,2,2,1),(
    -2.094395102393,0.,2.094395102393,4.188790204786,6.28318530718,
8.377580409573),.UNSPECIFIED.) CURVE() GEOMETRIC_REPRESENTATION_ITEM() 
RATIONAL_B_SPLINE_CURVE((1.,0.5,1.,0.5,1.,0.5,1.)) REPRESENTATION_ITEM(
  '') );
#119 = CARTESIAN_POINT('',(-0.244190142553,0.911330018716,
    87.034625000916));
#120 = CARTESIAN_POINT('',(-1.822660037432,0.488380285106,
    87.034625000916));
#121 = CARTESIAN_POINT('',(-0.667139876163,-0.667139876163,
    87.034625000916));
#122 = CARTESIAN_POINT('',(0.488380285106,-1.822660037432,
    87.034625000916));
#123 = CARTESIAN_POINT('',(0.911330018716,-0.244190142553,
    87.034625000916));
#124 = CARTESIAN_POINT('',(1.334279752326,1.334279752326,87.034625000916
    ));
#125 = CARTESIAN_POINT('',(-0.244190142553,0.911330018716,
    87.034625000916));
#126 = ORIENTED_EDGE('',*,*,#127,.F.);
#127 = EDGE_CURVE('',#73,#116,#128,.T.);
#128 = B_SPLINE_CURVE_WITH_KNOTS('',1,(#129,#130),.UNSPECIFIED.,.F.,.F.,
  (2,2),(0.,2.4),.PIECEWISE_BEZIER_KNOTS.);
#129 = CARTESIAN_POINT('',(-0.244190142553,0.911330018716,
    85.573755435699));
#130 = CARTESIAN_POINT('',(-0.244190142553,0.911330018716,
    87.034625000916));
#131 = ORIENTED_EDGE('',*,*,#72,.T.);
#132 = ORIENTED_EDGE('',*,*,#127,.T.);
#133 = ( BOUNDED_SURFACE() B_SPLINE_SURFACE(2,1,(
    (#134,#135)
    ,(#136,#137)
    ,(#138,#139)
    ,(#140,#141)
    ,(#142,#143)
    ,(#144,#145)
,(#146,#147
    )),.UNSPECIFIED.,.T.,.F.,.F.) B_SPLINE_SURFACE_WITH_KNOTS((1,2,2,2,2
    ,1),(2,2),(-2.094395102393,0.,2.094395102393,4.188790204786,
    6.28318530718,8.377580409573),(0.,2.4),.UNSPECIFIED.) 
GEOMETRIC_REPRESENTATION_ITEM() RATIONAL_B_SPLINE_SURFACE((
    (1.,1.)
    ,(0.5,0.5)
    ,(1.,1.)
    ,(0.5,0.5)
    ,(1.,1.)
    ,(0.5,0.5)
,(1.,1.))) REPRESENTATION_ITEM('') SURFACE() );
#134 = CARTESIAN_POINT('',(-0.244190142553,0.911330018716,
    85.573755435699));
#135 = CARTESIAN_POINT('',(-0.244190142553,0.911330018716,
    87.034625000916));
#136 = CARTESIAN_POINT('',(-1.822660037432,0.488380285106,
    85.573755435699));
#137 = CARTESIAN_POINT('',(-1.822660037432,0.488380285106,
    87.034625000916));
#138 = CARTESIAN_POINT('',(-0.667139876163,-0.667139876163,
    85.573755435699));
#139 = CARTESIAN_POINT('',(-0.667139876163,-0.667139876163,
    87.034625000916));
#140 = CARTESIAN_POINT('',(0.488380285106,-1.822660037432,
    85.573755435699));
#141 = CARTESIAN_POINT('',(0.488380285106,-1.822660037432,
    87.034625000916));
#142 = CARTESIAN_POINT('',(0.911330018716,-0.244190142553,
    85.573755435699));
#143 = CARTESIAN_POINT('',(0.911330018716,-0.244190142553,
    87.034625000916));
#144 = CARTESIAN_POINT('',(1.334279752326,1.334279752326,85.573755435699
    ));
#145 = CARTESIAN_POINT('',(1.334279752326,1.334279752326,87.034625000916
    ));
#146 = CARTESIAN_POINT('',(-0.244190142553,0.911330018716,
    85.573755435699));
#147 = CARTESIAN_POINT('',(-0.244190142553,0.911330018716,
    87.034625000916));
#148 = ADVANCED_FACE('',(#149,#163),#166,.F.);
#149 = FACE_BOUND('',#150,.F.);
#150 = EDGE_LOOP('',(#151));
#151 = ORIENTED_EDGE('',*,*,#152,.T.);
#152 = EDGE_CURVE('',#153,#153,#155,.T.);
#153 = VERTEX_POINT('',#154);
#154 = CARTESIAN_POINT('',(-0.291452750789,1.087716473952,
    87.034625000916));
#155 = ( BOUNDED_CURVE() B_SPLINE_CURVE(2,(#156,#157,#158,#159,#160,#161
,#162),.UNSPECIFIED.,.T.,.F.) B_SPLINE_CURVE_WITH_KNOTS((1,2,2,2,2,1),(
    -2.094395102393,0.,2.094395102393,4.188790204786,6.28318530718,
8.377580409573),.UNSPECIFIED.) CURVE() GEOMETRIC_REPRESENTATION_ITEM() 
RATIONAL_B_SPLINE_CURVE((1.,0.5,1.,0.5,1.,0.5,1.)) REPRESENTATION_ITEM(
  '') );
#156 = CARTESIAN_POINT('',(-0.291452750789,1.087716473952,
    87.034625000916));
#157 = CARTESIAN_POINT('',(-2.175432947903,0.582905501579,
    87.034625000916));
#158 = CARTESIAN_POINT('',(-0.796263723162,-0.796263723162,
    87.034625000916));
#159 = CARTESIAN_POINT('',(0.582905501579,-2.175432947903,
    87.034625000916));
#160 = CARTESIAN_POINT('',(1.087716473952,-0.291452750789,
    87.034625000916));
#161 = CARTESIAN_POINT('',(1.592527446324,1.592527446324,87.034625000916
    ));
#162 = CARTESIAN_POINT('',(-0.291452750789,1.087716473952,
    87.034625000916));
#163 = FACE_BOUND('',#164,.F.);
#164 = EDGE_LOOP('',(#165));
#165 = ORIENTED_EDGE('',*,*,#115,.F.);
#166 = B_SPLINE_SURFACE_WITH_KNOTS('',1,1,(
    (#167,#168)
    ,(#169,#170
    )),.UNSPECIFIED.,.F.,.F.,.F.,(2,2),(2,2),(-1.85,1.85),(-1.85,1.85),
  .PIECEWISE_BEZIER_KNOTS.);
#167 = CARTESIAN_POINT('',(1.379169224741,-0.796263723162,
    87.034625000916));
#168 = CARTESIAN_POINT('',(-0.796263723162,-1.379169224741,
    87.034625000916));
#169 = CARTESIAN_POINT('',(0.796263723162,1.379169224741,87.034625000916
    ));
#170 = CARTESIAN_POINT('',(-1.379169224741,0.796263723162,
    87.034625000916));
#171 = ADVANCED_FACE('',(#172),#193,.T.);
#172 = FACE_BOUND('',#173,.T.);
#173 = EDGE_LOOP('',(#174,#186,#191,#192));
#174 = ORIENTED_EDGE('',*,*,#175,.F.);
#175 = EDGE_CURVE('',#176,#176,#178,.T.);
#176 = VERTEX_POINT('',#177);
#177 = CARTESIAN_POINT('',(-0.291452750789,1.087716473952,87.88679891396
    ));
#178 = ( BOUNDED_CURVE() B_SPLINE_CURVE(2,(#179,#180,#181,#182,#183,#184
,#185),.UNSPECIFIED.,.T.,.F.) B_SPLINE_CURVE_WITH_KNOTS((1,2,2,2,2,1),(
    -2.094395102393,0.,2.094395102393,4.188790204786,6.28318530718,
8.377580409573),.UNSPECIFIED.) CURVE() GEOMETRIC_REPRESENTATION_ITEM() 
RATIONAL_B_SPLINE_CURVE((1.,0.5,1.,0.5,1.,0.5,1.)) REPRESENTATION_ITEM(
  '') );
#179 = CARTESIAN_POINT('',(-0.291452750789,1.087716473952,87.88679891396
    ));
#180 = CARTESIAN_POINT('',(-2.175432947903,0.582905501579,87.88679891396
    ));
#181 = CARTESIAN_POINT('',(-0.796263723162,-0.796263723162,
    87.88679891396));
#182 = CARTESIAN_POINT('',(0.582905501579,-2.175432947903,87.88679891396
    ));
#183 = CARTESIAN_POINT('',(1.087716473952,-0.291452750789,87.88679891396
    ));
#184 = CARTESIAN_POINT('',(1.592527446324,1.592527446324,87.88679891396)
  );
#185 = CARTESIAN_POINT('',(-0.291452750789,1.087716473952,87.88679891396
    ));
#186 = ORIENTED_EDGE('',*,*,#187,.F.);
#187 = EDGE_CURVE('',#153,#176,#188,.T.);
#188 = B_SPLINE_CURVE_WITH_KNOTS('',1,(#189,#190),.UNSPECIFIED.,.F.,.F.,
  (2,2),(0.,1.4),.PIECEWISE_BEZIER_KNOTS.);
#189 = CARTESIAN_POINT('',(-0.291452750789,1.087716473952,
    87.034625000916));
#190 = CARTESIAN_POINT('',(-0.291452750789,1.087716473952,87.88679891396
    ));
#191 = ORIENTED_EDGE('',*,*,#152,.T.);
#192 = ORIENTED_EDGE('',*,*,#187,.T.);
#193 = ( BOUNDED_SURFACE() B_SPLINE_SURFACE(2,1,(
    (#194,#195)
    ,(#196,#197)
    ,(#198,#199)
    ,(#200,#201)
    ,(#202,#203)
    ,(#204,#205)
,(#206,#207
    )),.UNSPECIFIED.,.T.,.F.,.F.) B_SPLINE_SURFACE_WITH_KNOTS((1,2,2,2,2
    ,1),(2,2),(-2.094395102393,0.,2.094395102393,4.188790204786,
    6.28318530718,8.377580409573),(0.,1.4),.UNSPECIFIED.) 
GEOMETRIC_REPRESENTATION_ITEM() RATIONAL_B_SPLINE_SURFACE((
    (1.,1.)
    ,(0.5,0.5)
    ,(1.,1.)
    ,(0.5,0.5)
    ,(1.,1.)
    ,(0.5,0.5)
,(1.,1.))) REPRESENTATION_ITEM('') SURFACE() );
#194 = CARTESIAN_POINT('',(-0.291452750789,1.087716473952,
    87.034625000916));
#195 = CARTESIAN_POINT('',(-0.291452750789,1.087716473952,87.88679891396
    ));
#196 = CARTESIAN_POINT('',(-2.175432947903,0.582905501579,
    87.034625000916));
#197 = CARTESIAN_POINT('',(-2.175432947903,0.582905501579,87.88679891396
    ));
#198 = CARTESIAN_POINT('',(-0.796263723162,-0.796263723162,
    87.034625000916));
#199 = CARTESIAN_POINT('',(-0.796263723162,-0.796263723162,
    87.88679891396));
#200 = CARTESIAN_POINT('',(0.582905501579,-2.175432947903,
    87.034625000916));
#201 = CARTESIAN_POINT('',(0.582905501579,-2.175432947903,87.88679891396
    ));
#202 = CARTESIAN_POINT('',(1.087716473952,-0.291452750789,
    87.034625000916));
#203 = CARTESIAN_POINT('',(1.087716473952,-0.291452750789,87.88679891396
    ));
#204 = CARTESIAN_POINT('',(1.592527446324,1.592527446324,87.034625000916
    ));
#205 = CARTESIAN_POINT('',(1.592527446324,1.592527446324,87.88679891396)
  );
#206 = CARTESIAN_POINT('',(-0.291452750789,1.087716473952,
    87.034625000916));
#207 = CARTESIAN_POINT('',(-0.291452750789,1.087716473952,87.88679891396
    ));
#208 = ADVANCED_FACE('',(#209,#212),#226,.T.);
#209 = FACE_BOUND('',#210,.T.);
#210 = EDGE_LOOP('',(#211));
#211 = ORIENTED_EDGE('',*,*,#175,.T.);
#212 = FACE_BOUND('',#213,.T.);
#213 = EDGE_LOOP('',(#214));
#214 = ORIENTED_EDGE('',*,*,#215,.F.);
#215 = EDGE_CURVE('',#216,#216,#218,.T.);
#216 = VERTEX_POINT('',#217);
#217 = CARTESIAN_POINT('',(-0.196927534317,0.734943563481,87.88679891396
    ));
#218 = ( BOUNDED_CURVE() B_SPLINE_CURVE(2,(#219,#220,#221,#222,#223,#224
,#225),.UNSPECIFIED.,.T.,.F.) B_SPLINE_CURVE_WITH_KNOTS((1,2,2,2,2,1),(
    -2.094395102393,0.,2.094395102393,4.188790204786,6.28318530718,
8.377580409573),.UNSPECIFIED.) CURVE() GEOMETRIC_REPRESENTATION_ITEM() 
RATIONAL_B_SPLINE_CURVE((1.,0.5,1.,0.5,1.,0.5,1.)) REPRESENTATION_ITEM(
  '') );
#219 = CARTESIAN_POINT('',(-0.196927534317,0.734943563481,87.88679891396
    ));
#220 = CARTESIAN_POINT('',(-1.469887126962,0.393855068634,87.88679891396
    ));
#221 = CARTESIAN_POINT('',(-0.538016029164,-0.538016029164,
    87.88679891396));
#222 = CARTESIAN_POINT('',(0.393855068634,-1.469887126962,87.88679891396
    ));
#223 = CARTESIAN_POINT('',(0.734943563481,-0.196927534317,87.88679891396
    ));
#224 = CARTESIAN_POINT('',(1.076032058327,1.076032058327,87.88679891396)
  );
#225 = CARTESIAN_POINT('',(-0.196927534317,0.734943563481,87.88679891396
    ));
#226 = B_SPLINE_SURFACE_WITH_KNOTS('',1,1,(
    (#227,#228)
    ,(#229,#230
    )),.UNSPECIFIED.,.F.,.F.,.F.,(2,2),(2,2),(-1.85,1.85),(-1.85,1.85),
  .PIECEWISE_BEZIER_KNOTS.);
#227 = CARTESIAN_POINT('',(1.379169224741,-0.796263723162,87.88679891396
    ));
#228 = CARTESIAN_POINT('',(-0.796263723162,-1.379169224741,
    87.88679891396));
#229 = CARTESIAN_POINT('',(0.796263723162,1.379169224741,87.88679891396)
  );
#230 = CARTESIAN_POINT('',(-1.379169224741,0.796263723162,87.88679891396
    ));
#231 = ADVANCED_FACE('',(#232),#242,.F.);
#232 = FACE_BOUND('',#233,.F.);
#233 = EDGE_LOOP('',(#234,#235,#240,#241));
#234 = ORIENTED_EDGE('',*,*,#215,.F.);
#235 = ORIENTED_EDGE('',*,*,#236,.F.);
#236 = EDGE_CURVE('',#96,#216,#237,.T.);
#237 = B_SPLINE_CURVE_WITH_KNOTS('',1,(#238,#239),.UNSPECIFIED.,.F.,.F.,
  (2,2),(0.2,5.4),.PIECEWISE_BEZIER_KNOTS.);
#238 = CARTESIAN_POINT('',(-0.196927534317,0.734943563481,
    84.721581522656));
#239 = CARTESIAN_POINT('',(-0.196927534317,0.734943563481,87.88679891396
    ));
#240 = ORIENTED_EDGE('',*,*,#95,.T.);
#241 = ORIENTED_EDGE('',*,*,#236,.T.);
#242 = ( BOUNDED_SURFACE() B_SPLINE_SURFACE(2,1,(
    (#243,#244)
    ,(#245,#246)
    ,(#247,#248)
    ,(#249,#250)
    ,(#251,#252)
    ,(#253,#254)
,(#255,#256
    )),.UNSPECIFIED.,.T.,.F.,.F.) B_SPLINE_SURFACE_WITH_KNOTS((1,2,2,2,2
    ,1),(2,2),(-2.094395102393,0.,2.094395102393,4.188790204786,
    6.28318530718,8.377580409573),(0.2,5.4),.UNSPECIFIED.) 
GEOMETRIC_REPRESENTATION_ITEM() RATIONAL_B_SPLINE_SURFACE((
    (1.,1.)
    ,(0.5,0.5)
    ,(1.,1.)
    ,(0.5,0.5)
    ,(1.,1.)
    ,(0.5,0.5)
,(1.,1.))) REPRESENTATION_ITEM('') SURFACE() );
#243 = CARTESIAN_POINT('',(-0.196927534317,0.734943563481,
    84.721581522656));
#244 = CARTESIAN_POINT('',(-0.196927534317,0.734943563481,87.88679891396
    ));
#245 = CARTESIAN_POINT('',(-1.469887126962,0.393855068634,
    84.721581522656));
#246 = CARTESIAN_POINT('',(-1.469887126962,0.393855068634,87.88679891396
    ));
#247 = CARTESIAN_POINT('',(-0.538016029164,-0.538016029164,
    84.721581522656));
#248 = CARTESIAN_POINT('',(-0.538016029164,-0.538016029164,
    87.88679891396));
#249 = CARTESIAN_POINT('',(0.393855068634,-1.469887126962,
    84.721581522656));
#250 = CARTESIAN_POINT('',(0.393855068634,-1.469887126962,87.88679891396
    ));
#251 = CARTESIAN_POINT('',(0.734943563481,-0.196927534317,
    84.721581522656));
#252 = CARTESIAN_POINT('',(0.734943563481,-0.196927534317,87.88679891396
    ));
#253 = CARTESIAN_POINT('',(1.076032058327,1.076032058327,84.721581522656
    ));
#254 = CARTESIAN_POINT('',(1.076032058327,1.076032058327,87.88679891396)
  );
#255 = CARTESIAN_POINT('',(-0.196927534317,0.734943563481,
    84.721581522656));
#256 = CARTESIAN_POINT('',(-0.196927534317,0.734943563481,87.88679891396
    ));
#257 = ( GEOMETRIC_REPRESENTATION_CONTEXT(3) 
GLOBAL_UNCERTAINTY_ASSIGNED_CONTEXT((#261)) GLOBAL_UNIT_ASSIGNED_CONTEXT
((#258,#259,#260)) REPRESENTATION_CONTEXT('Context #1',
  '3D Context with UNIT and UNCERTAINTY') );
#258 = ( LENGTH_UNIT() NAMED_UNIT(*) SI_UNIT(.MILLI.,.METRE.) );
#259 = ( NAMED_UNIT(*) PLANE_ANGLE_UNIT() SI_UNIT($,.RADIAN.) );
#260 = ( NAMED_UNIT(*) SI_UNIT($,.STERADIAN.) SOLID_ANGLE_UNIT() );
#261 = UNCERTAINTY_MEASURE_WITH_UNIT(LENGTH_MEASURE(1.E-06),#258,
  'distance_accuracy_value','confusion accuracy');
#262 = PRODUCT_RELATED_PRODUCT_CATEGORY('part',$,(#7));
ENDSEC;
END-ISO-10303-21;
