ISO-10303-21;
HEADER;
FILE_DESCRIPTION(('FreeCAD Model'),'2;1');
FILE_NAME('Open CASCADE Shape Model','2026-07-29T09:33:04',('FreeCAD'),(
    'FreeCAD'),'Open CASCADE STEP processor 7.8','FreeCAD','Unknown');
FILE_SCHEMA(('AUTOMOTIVE_DESIGN { 1 0 10303 214 1 1 1 1 }'));
ENDSEC;
DATA;
#1 = APPLICATION_PROTOCOL_DEFINITION('international standard',
  'automotive_design',2000,#2);
#2 = APPLICATION_CONTEXT(
  'core data for automotive mechanical design processes');
#3 = SHAPE_DEFINITION_REPRESENTATION(#4,#10);
#4 = PRODUCT_DEFINITION_SHAPE('','',#5);
#5 = PRODUCT_DEFINITION('design','',#6,#9);
#6 = PRODUCT_DEFINITION_FORMATION('','',#7);
#7 = PRODUCT('Open CASCADE STEP translator 7.8 71',
  'Open CASCADE STEP translator 7.8 71','',(#8));
#8 = PRODUCT_CONTEXT('',#2,'mechanical');
#9 = PRODUCT_DEFINITION_CONTEXT('part definition',#2,'design');
#10 = ADVANCED_BREP_SHAPE_REPRESENTATION('',(#11,#15),#241);
#11 = AXIS2_PLACEMENT_3D('',#12,#13,#14);
#12 = CARTESIAN_POINT('',(0.,0.,0.));
#13 = DIRECTION('',(0.,0.,1.));
#14 = DIRECTION('',(1.,0.,-0.));
#15 = MANIFOLD_SOLID_BREP('',#16);
#16 = CLOSED_SHELL('',(#17,#118,#153,#175,#197,#218,#229));
#17 = ADVANCED_FACE('',(#18),#113,.T.);
#18 = FACE_BOUND('',#19,.T.);
#19 = EDGE_LOOP('',(#20,#32,#41,#51,#83));
#20 = ORIENTED_EDGE('',*,*,#21,.F.);
#21 = EDGE_CURVE('',#22,#24,#26,.T.);
#22 = VERTEX_POINT('',#23);
#23 = CARTESIAN_POINT('',(61.455081973882,16.600940572134,
    47.676815994967));
#24 = VERTEX_POINT('',#25);
#25 = CARTESIAN_POINT('',(62.707642304728,10.957642304728,
    55.844173690239));
#26 = B_SPLINE_CURVE_WITH_KNOTS('',4,(#27,#28,#29,#30,#31),
  .UNSPECIFIED.,.F.,.F.,(5,5),(0.,1.),.PIECEWISE_BEZIER_KNOTS.);
#27 = CARTESIAN_POINT('',(61.455081863241,16.600940981719,
    47.676815394967));
#28 = CARTESIAN_POINT('',(61.831723230626,15.206650977842,
    49.719311269084));
#29 = CARTESIAN_POINT('',(62.166168687317,13.80103255352,51.761837278065
    ));
#30 = CARTESIAN_POINT('',(62.458299702377,12.384563013104,
    53.803698026705));
#31 = CARTESIAN_POINT('',(62.707642304728,10.957642304728,
    55.844173690239));
#32 = ORIENTED_EDGE('',*,*,#33,.T.);
#33 = EDGE_CURVE('',#22,#34,#36,.T.);
#34 = VERTEX_POINT('',#35);
#35 = CARTESIAN_POINT('',(16.600940572134,61.455081973882,
    47.676815994967));
#36 = CIRCLE('',#37,63.657822208242);
#37 = AXIS2_PLACEMENT_3D('',#38,#39,#40);
#38 = CARTESIAN_POINT('',(0.,0.,47.676815994967));
#39 = DIRECTION('',(0.,0.,1.));
#40 = DIRECTION('',(1.,0.,-0.));
#41 = ORIENTED_EDGE('',*,*,#42,.F.);
#42 = EDGE_CURVE('',#43,#34,#45,.T.);
#43 = VERTEX_POINT('',#44);
#44 = CARTESIAN_POINT('',(10.957642304728,62.707642304728,
    55.844173690239));
#45 = B_SPLINE_CURVE_WITH_KNOTS('',4,(#46,#47,#48,#49,#50),
  .UNSPECIFIED.,.F.,.F.,(5,5),(0.,1.),.PIECEWISE_BEZIER_KNOTS.);
#46 = CARTESIAN_POINT('',(10.957642304728,62.707642304728,
    55.844173690239));
#47 = CARTESIAN_POINT('',(12.384563013204,62.458299702359,
    53.803698026563));
#48 = CARTESIAN_POINT('',(13.801032553465,62.166168687329,
    51.761837278144));
#49 = CARTESIAN_POINT('',(15.206650977911,61.831723230608,
    49.719311268984));
#50 = CARTESIAN_POINT('',(16.600940981719,61.455081863241,
    47.676815394967));
#51 = ORIENTED_EDGE('',*,*,#52,.T.);
#52 = EDGE_CURVE('',#43,#53,#55,.T.);
#53 = VERTEX_POINT('',#54);
#54 = CARTESIAN_POINT('',(45.012877759015,45.012877759015,
    92.480752881796));
#55 = B_SPLINE_CURVE_WITH_KNOTS('',6,(#56,#57,#58,#59,#60,#61,#62,#63,
    #64,#65,#66,#67,#68,#69,#70,#71,#72,#73,#74,#75,#76,#77,#78,#79,#80,
    #81,#82),.UNSPECIFIED.,.F.,.F.,(7,5,5,5,5,7),(0.,0.225703386592,
    0.458153639988,0.701378534486,0.957216641995,1.),.UNSPECIFIED.);
#56 = CARTESIAN_POINT('',(10.957642304728,62.707642304728,
    55.844173690239));
#57 = CARTESIAN_POINT('',(12.745622375378,62.395207562453,
    56.925413612529));
#58 = CARTESIAN_POINT('',(14.476975566071,62.02962340295,58.058530112349
    ));
#59 = CARTESIAN_POINT('',(16.153095157833,61.616718820069,
    59.236070612269));
#60 = CARTESIAN_POINT('',(17.775679710121,61.161469961585,
    60.451859283928));
#61 = CARTESIAN_POINT('',(19.346816207768,60.668070870322,
    61.700930847749));
#62 = CARTESIAN_POINT('',(22.436534436636,59.595918925588,
    64.296433003273));
#63 = CARTESIAN_POINT('',(23.951929911379,59.015129354073,
    65.644479552753));
#64 = CARTESIAN_POINT('',(25.417632270276,58.401269831371,
    67.019511552862));
#65 = CARTESIAN_POINT('',(26.835851225835,57.757443207932,
    68.418099241975));
#66 = CARTESIAN_POINT('',(28.208707327357,57.086249650003,
    69.837466901859));
#67 = CARTESIAN_POINT('',(30.929432992942,55.661071882558,
    72.780150647432));
#68 = CARTESIAN_POINT('',(32.273106110483,54.904739116663,
    74.305138914761));
#69 = CARTESIAN_POINT('',(33.571579649715,54.123263870443,
    75.847928255026));
#70 = CARTESIAN_POINT('',(34.826805014335,53.318695246841,77.40643380488
    ));
#71 = CARTESIAN_POINT('',(36.040553342772,52.492764813196,
    78.978938481006));
#72 = CARTESIAN_POINT('',(38.449226596971,50.757182536681,
    82.231423561537));
#73 = CARTESIAN_POINT('',(39.639872369447,49.845438549951,
    83.912695608792));
#74 = CARTESIAN_POINT('',(40.788263026197,48.913363666238,
    85.606273732015));
#75 = CARTESIAN_POINT('',(41.89597719937,47.96238504147,87.310786219415)
  );
#76 = CARTESIAN_POINT('',(42.964415297944,46.993722524608,
    89.025079311592));
#77 = CARTESIAN_POINT('',(44.167145554653,45.843630139636,
    91.036364554019));
#78 = CARTESIAN_POINT('',(44.338396543146,45.678391429193,
    91.324767042385));
#79 = CARTESIAN_POINT('',(44.508589684346,45.512692111102,
    91.613411533515));
#80 = CARTESIAN_POINT('',(44.677730616177,45.346536969744,91.90229355545
    ));
#81 = CARTESIAN_POINT('',(44.84582484768,45.179930670351,92.191408751811
    ));
#82 = CARTESIAN_POINT('',(45.012877759015,45.012877759015,
    92.480752881796));
#83 = ORIENTED_EDGE('',*,*,#84,.T.);
#84 = EDGE_CURVE('',#53,#24,#85,.T.);
#85 = B_SPLINE_CURVE_WITH_KNOTS('',6,(#86,#87,#88,#89,#90,#91,#92,#93,
    #94,#95,#96,#97,#98,#99,#100,#101,#102,#103,#104,#105,#106,#107,#108
    ,#109,#110,#111,#112),.UNSPECIFIED.,.F.,.F.,(7,5,5,5,5,7),(0.,
    0.265412746807,0.515228286263,0.753558753453,0.983264894826,1.),
  .UNSPECIFIED.);
#86 = CARTESIAN_POINT('',(45.012877759015,45.012877759015,
    92.480752881796));
#87 = CARTESIAN_POINT('',(46.049215181343,43.976540336687,
    90.685763812539));
#88 = CARTESIAN_POINT('',(47.068353215771,42.900138808367,
    88.899605063511));
#89 = CARTESIAN_POINT('',(48.069229543324,41.782367523585,
    87.123249888175));
#90 = CARTESIAN_POINT('',(49.050578426726,40.621758720642,85.35789007774
    ));
#91 = CARTESIAN_POINT('',(50.010915275858,39.416648822651,
    83.604944708618));
#92 = CARTESIAN_POINT('',(51.830942302274,36.987001637596,
    80.229428962996));
#93 = CARTESIAN_POINT('',(52.693203735152,35.767803239591,
    78.605300355059));
#94 = CARTESIAN_POINT('',(53.533810150361,34.505779874713,
    76.995078025583));
#95 = CARTESIAN_POINT('',(54.351004620177,33.199099077978,
    75.400491253742));
#96 = CARTESIAN_POINT('',(55.142704244383,31.845731820432,
    73.823642657998));
#97 = CARTESIAN_POINT('',(56.63498882325,29.105281589571,70.782069611287
    ));
#98 = CARTESIAN_POINT('',(57.338044384833,27.722690847619,
    69.315614519301));
#99 = CARTESIAN_POINT('',(58.013428194889,26.293358131732,
    67.869850992985));
#100 = CARTESIAN_POINT('',(58.658497417642,24.815059158514,
    66.447575068919));
#101 = CARTESIAN_POINT('',(59.270089501043,23.285455227108,
    65.052250849617));
#102 = CARTESIAN_POINT('',(60.397861385152,20.175545217046,
    62.373379739084));
#103 = CARTESIAN_POINT('',(60.9166198145,18.599276974016,61.08778832604)
  );
#104 = CARTESIAN_POINT('',(61.397272001369,16.970512165285,
    59.835035931604));
#105 = CARTESIAN_POINT('',(61.835603513888,15.287012315773,
    58.620060238038));
#106 = CARTESIAN_POINT('',(62.22659289911,13.546879228847,
    57.449025889433));
#107 = CARTESIAN_POINT('',(62.588912808715,11.617404814476,
    56.247851037004));
#108 = CARTESIAN_POINT('',(62.613233948871,11.486071280679,
    56.166556331964));
#109 = CARTESIAN_POINT('',(62.637269825831,11.354428700726,
    56.085538184951));
#110 = CARTESIAN_POINT('',(62.661018095855,11.222476621454,
    56.004799631706));
#111 = CARTESIAN_POINT('',(62.684476388121,11.090214620184,
    55.924343756121));
#112 = CARTESIAN_POINT('',(62.707642304728,10.957642304728,
    55.844173690239));
#113 = CYLINDRICAL_SURFACE('',#114,63.657822208242);
#114 = AXIS2_PLACEMENT_3D('',#115,#116,#117);
#115 = CARTESIAN_POINT('',(0.,0.,47.676815994967));
#116 = DIRECTION('',(0.,0.,1.));
#117 = DIRECTION('',(1.,0.,-0.));
#118 = ADVANCED_FACE('',(#119),#148,.F.);
#119 = FACE_BOUND('',#120,.F.);
#120 = EDGE_LOOP('',(#121,#128,#129,#136,#143));
#121 = ORIENTED_EDGE('',*,*,#122,.F.);
#122 = EDGE_CURVE('',#24,#123,#125,.T.);
#123 = VERTEX_POINT('',#124);
#124 = CARTESIAN_POINT('',(40.88610699893,-10.86389300107,
    77.665708996037));
#125 = B_SPLINE_CURVE_WITH_KNOTS('',1,(#126,#127),.UNSPECIFIED.,.F.,.F.,
  (2,2),(0.,94.657822208242),.PIECEWISE_BEZIER_KNOTS.);
#126 = CARTESIAN_POINT('',(95.536826131762,43.786826131762,
    23.014989863205));
#127 = CARTESIAN_POINT('',(40.88610699893,-10.86389300107,
    77.665708996037));
#128 = ORIENTED_EDGE('',*,*,#21,.F.);
#129 = ORIENTED_EDGE('',*,*,#130,.F.);
#130 = EDGE_CURVE('',#131,#22,#133,.T.);
#131 = VERTEX_POINT('',#132);
#132 = CARTESIAN_POINT('',(0.183185354155,0.183185354155,47.676815994967
    ));
#133 = B_SPLINE_CURVE_WITH_KNOTS('',1,(#134,#135),.UNSPECIFIED.,.F.,.F.,
  (2,2),(0.,1.),.PIECEWISE_BEZIER_KNOTS.);
#134 = CARTESIAN_POINT('',(0.183185354155,0.183185354155,47.676815994967
    ));
#135 = CARTESIAN_POINT('',(63.657822208242,17.191163039067,
    47.676815994967));
#136 = ORIENTED_EDGE('',*,*,#137,.T.);
#137 = EDGE_CURVE('',#131,#138,#140,.T.);
#138 = VERTEX_POINT('',#139);
#139 = CARTESIAN_POINT('',(7.21687836487E-02,7.21687836487E-02,
    47.787832565474));
#140 = B_SPLINE_CURVE_WITH_KNOTS('',1,(#141,#142),.UNSPECIFIED.,.F.,.F.,
  (2,2),(0.,94.657822208242),.PIECEWISE_BEZIER_KNOTS.);
#141 = CARTESIAN_POINT('',(54.722887916481,54.722887916481,
    -6.862886567358));
#142 = CARTESIAN_POINT('',(7.21687836487E-02,7.21687836487E-02,
    47.787832565474));
#143 = ORIENTED_EDGE('',*,*,#144,.T.);
#144 = EDGE_CURVE('',#138,#123,#145,.T.);
#145 = B_SPLINE_CURVE_WITH_KNOTS('',1,(#146,#147),.UNSPECIFIED.,.F.,.F.,
  (2,2),(0.,51.75),.PIECEWISE_BEZIER_KNOTS.);
#146 = CARTESIAN_POINT('',(7.21687836487E-02,7.21687836487E-02,
    47.787832565474));
#147 = CARTESIAN_POINT('',(40.88610699893,-10.86389300107,
    77.665708996037));
#148 = B_SPLINE_SURFACE_WITH_KNOTS('',1,1,(
    (#149,#150)
    ,(#151,#152
    )),.UNSPECIFIED.,.F.,.F.,.F.,(2,2),(2,2),(0.,94.657822208242),(0.,
    51.75),.PIECEWISE_BEZIER_KNOTS.);
#149 = CARTESIAN_POINT('',(54.722887916481,54.722887916481,
    -6.862886567358));
#150 = CARTESIAN_POINT('',(95.536826131762,43.786826131762,
    23.014989863205));
#151 = CARTESIAN_POINT('',(7.21687836487E-02,7.21687836487E-02,
    47.787832565474));
#152 = CARTESIAN_POINT('',(40.88610699893,-10.86389300107,
    77.665708996037));
#153 = ADVANCED_FACE('',(#154),#170,.T.);
#154 = FACE_BOUND('',#155,.T.);
#155 = EDGE_LOOP('',(#156,#157,#158,#165));
#156 = ORIENTED_EDGE('',*,*,#122,.F.);
#157 = ORIENTED_EDGE('',*,*,#84,.F.);
#158 = ORIENTED_EDGE('',*,*,#159,.T.);
#159 = EDGE_CURVE('',#53,#160,#162,.T.);
#160 = VERTEX_POINT('',#161);
#161 = CARTESIAN_POINT('',(29.950045214212,29.950045214212,
    107.5435854266));
#162 = B_SPLINE_CURVE_WITH_KNOTS('',1,(#163,#164),.UNSPECIFIED.,.F.,.F.,
  (2,2),(0.,94.657822208242),.PIECEWISE_BEZIER_KNOTS.);
#163 = CARTESIAN_POINT('',(84.600764347044,84.600764347044,
    52.892866293768));
#164 = CARTESIAN_POINT('',(29.950045214212,29.950045214212,
    107.5435854266));
#165 = ORIENTED_EDGE('',*,*,#166,.F.);
#166 = EDGE_CURVE('',#123,#160,#167,.T.);
#167 = B_SPLINE_CURVE_WITH_KNOTS('',1,(#168,#169),.UNSPECIFIED.,.F.,.F.,
  (2,2),(0.,51.75),.PIECEWISE_BEZIER_KNOTS.);
#168 = CARTESIAN_POINT('',(40.88610699893,-10.86389300107,
    77.665708996037));
#169 = CARTESIAN_POINT('',(29.950045214212,29.950045214212,
    107.5435854266));
#170 = B_SPLINE_SURFACE_WITH_KNOTS('',1,1,(
    (#171,#172)
    ,(#173,#174
    )),.UNSPECIFIED.,.F.,.F.,.F.,(2,2),(2,2),(0.,94.657822208242),(
    -51.75,0.),.PIECEWISE_BEZIER_KNOTS.);
#171 = CARTESIAN_POINT('',(84.600764347044,84.600764347044,
    52.892866293768));
#172 = CARTESIAN_POINT('',(95.536826131762,43.786826131762,
    23.014989863205));
#173 = CARTESIAN_POINT('',(29.950045214212,29.950045214212,
    107.5435854266));
#174 = CARTESIAN_POINT('',(40.88610699893,-10.86389300107,
    77.665708996037));
#175 = ADVANCED_FACE('',(#176),#192,.T.);
#176 = FACE_BOUND('',#177,.T.);
#177 = EDGE_LOOP('',(#178,#179,#180,#187));
#178 = ORIENTED_EDGE('',*,*,#159,.F.);
#179 = ORIENTED_EDGE('',*,*,#52,.F.);
#180 = ORIENTED_EDGE('',*,*,#181,.T.);
#181 = EDGE_CURVE('',#43,#182,#184,.T.);
#182 = VERTEX_POINT('',#183);
#183 = CARTESIAN_POINT('',(-10.86389300107,40.88610699893,
    77.665708996037));
#184 = B_SPLINE_CURVE_WITH_KNOTS('',1,(#185,#186),.UNSPECIFIED.,.F.,.F.,
  (2,2),(0.,94.657822208242),.PIECEWISE_BEZIER_KNOTS.);
#185 = CARTESIAN_POINT('',(43.786826131762,95.536826131762,
    23.014989863205));
#186 = CARTESIAN_POINT('',(-10.86389300107,40.88610699893,
    77.665708996037));
#187 = ORIENTED_EDGE('',*,*,#188,.T.);
#188 = EDGE_CURVE('',#182,#160,#189,.T.);
#189 = B_SPLINE_CURVE_WITH_KNOTS('',1,(#190,#191),.UNSPECIFIED.,.F.,.F.,
  (2,2),(0.,51.75),.PIECEWISE_BEZIER_KNOTS.);
#190 = CARTESIAN_POINT('',(-10.86389300107,40.88610699893,
    77.665708996037));
#191 = CARTESIAN_POINT('',(29.950045214212,29.950045214212,
    107.5435854266));
#192 = B_SPLINE_SURFACE_WITH_KNOTS('',1,1,(
    (#193,#194)
    ,(#195,#196
    )),.UNSPECIFIED.,.F.,.F.,.F.,(2,2),(2,2),(0.,94.657822208242),(0.,
    51.75),.PIECEWISE_BEZIER_KNOTS.);
#193 = CARTESIAN_POINT('',(43.786826131762,95.536826131762,
    23.014989863205));
#194 = CARTESIAN_POINT('',(84.600764347044,84.600764347044,
    52.892866293768));
#195 = CARTESIAN_POINT('',(-10.86389300107,40.88610699893,
    77.665708996037));
#196 = CARTESIAN_POINT('',(29.950045214212,29.950045214212,
    107.5435854266));
#197 = ADVANCED_FACE('',(#198),#213,.F.);
#198 = FACE_BOUND('',#199,.F.);
#199 = EDGE_LOOP('',(#200,#201,#206,#207,#208));
#200 = ORIENTED_EDGE('',*,*,#137,.F.);
#201 = ORIENTED_EDGE('',*,*,#202,.F.);
#202 = EDGE_CURVE('',#34,#131,#203,.T.);
#203 = B_SPLINE_CURVE_WITH_KNOTS('',1,(#204,#205),.UNSPECIFIED.,.F.,.F.,
  (2,2),(0.,1.),.PIECEWISE_BEZIER_KNOTS.);
#204 = CARTESIAN_POINT('',(17.191163039067,63.657822208242,
    47.676815994967));
#205 = CARTESIAN_POINT('',(0.183185354155,0.183185354155,47.676815994967
    ));
#206 = ORIENTED_EDGE('',*,*,#42,.F.);
#207 = ORIENTED_EDGE('',*,*,#181,.T.);
#208 = ORIENTED_EDGE('',*,*,#209,.F.);
#209 = EDGE_CURVE('',#138,#182,#210,.T.);
#210 = B_SPLINE_CURVE_WITH_KNOTS('',1,(#211,#212),.UNSPECIFIED.,.F.,.F.,
  (2,2),(0.,51.75),.PIECEWISE_BEZIER_KNOTS.);
#211 = CARTESIAN_POINT('',(7.21687836487E-02,7.21687836487E-02,
    47.787832565474));
#212 = CARTESIAN_POINT('',(-10.86389300107,40.88610699893,
    77.665708996037));
#213 = B_SPLINE_SURFACE_WITH_KNOTS('',1,1,(
    (#214,#215)
    ,(#216,#217
    )),.UNSPECIFIED.,.F.,.F.,.F.,(2,2),(2,2),(0.,94.657822208242),(
    -51.75,0.),.PIECEWISE_BEZIER_KNOTS.);
#214 = CARTESIAN_POINT('',(43.786826131762,95.536826131762,
    23.014989863205));
#215 = CARTESIAN_POINT('',(54.722887916481,54.722887916481,
    -6.862886567358));
#216 = CARTESIAN_POINT('',(-10.86389300107,40.88610699893,
    77.665708996037));
#217 = CARTESIAN_POINT('',(7.21687836487E-02,7.21687836487E-02,
    47.787832565474));
#218 = ADVANCED_FACE('',(#219),#224,.F.);
#219 = FACE_BOUND('',#220,.F.);
#220 = EDGE_LOOP('',(#221,#222,#223));
#221 = ORIENTED_EDGE('',*,*,#130,.T.);
#222 = ORIENTED_EDGE('',*,*,#33,.T.);
#223 = ORIENTED_EDGE('',*,*,#202,.T.);
#224 = PLANE('',#225);
#225 = AXIS2_PLACEMENT_3D('',#226,#227,#228);
#226 = CARTESIAN_POINT('',(0.,0.,47.676815994967));
#227 = DIRECTION('',(0.,0.,1.));
#228 = DIRECTION('',(1.,0.,-0.));
#229 = ADVANCED_FACE('',(#230),#236,.T.);
#230 = FACE_BOUND('',#231,.T.);
#231 = EDGE_LOOP('',(#232,#233,#234,#235));
#232 = ORIENTED_EDGE('',*,*,#209,.F.);
#233 = ORIENTED_EDGE('',*,*,#144,.T.);
#234 = ORIENTED_EDGE('',*,*,#166,.T.);
#235 = ORIENTED_EDGE('',*,*,#188,.F.);
#236 = B_SPLINE_SURFACE_WITH_KNOTS('',1,1,(
    (#237,#238)
    ,(#239,#240
    )),.UNSPECIFIED.,.F.,.F.,.F.,(2,2),(2,2),(0.,51.75),(0.,51.75),
  .PIECEWISE_BEZIER_KNOTS.);
#237 = CARTESIAN_POINT('',(7.21687836487E-02,7.21687836487E-02,
    47.787832565474));
#238 = CARTESIAN_POINT('',(-10.86389300107,40.88610699893,
    77.665708996037));
#239 = CARTESIAN_POINT('',(40.88610699893,-10.86389300107,
    77.665708996037));
#240 = CARTESIAN_POINT('',(29.950045214212,29.950045214212,
    107.5435854266));
#241 = ( GEOMETRIC_REPRESENTATION_CONTEXT(3) 
GLOBAL_UNCERTAINTY_ASSIGNED_CONTEXT((#245)) GLOBAL_UNIT_ASSIGNED_CONTEXT
((#242,#243,#244)) REPRESENTATION_CONTEXT('Context #1',
  '3D Context with UNIT and UNCERTAINTY') );
#242 = ( LENGTH_UNIT() NAMED_UNIT(*) SI_UNIT(.MILLI.,.METRE.) );
#243 = ( NAMED_UNIT(*) PLANE_ANGLE_UNIT() SI_UNIT($,.RADIAN.) );
#244 = ( NAMED_UNIT(*) SI_UNIT($,.STERADIAN.) SOLID_ANGLE_UNIT() );
#245 = UNCERTAINTY_MEASURE_WITH_UNIT(LENGTH_MEASURE(2.E-06),#242,
  'distance_accuracy_value','confusion accuracy');
#246 = PRODUCT_RELATED_PRODUCT_CATEGORY('part',$,(#7));
ENDSEC;
END-ISO-10303-21;
