ISO-10303-21;
HEADER;
FILE_DESCRIPTION(('FreeCAD Model'),'2;1');
FILE_NAME('Open CASCADE Shape Model','2026-07-29T09:33:04',('FreeCAD'),(
    'FreeCAD'),'Open CASCADE STEP processor 7.8','FreeCAD','Unknown');
FILE_SCHEMA(('AUTOMOTIVE_DESIGN { 1 0 10303 214 1 1 1 1 }'));
ENDSEC;
DATA;
#1 = APPLICATION_PROTOCOL_DEFINITION('international standard',
  'automotive_design',2000,#2);
#2 = APPLICATION_CONTEXT(
  'core data for automotive mechanical design processes');
#3 = SHAPE_DEFINITION_REPRESENTATION(#4,#10);
#4 = PRODUCT_DEFINITION_SHAPE('','',#5);
#5 = PRODUCT_DEFINITION('design','',#6,#9);
#6 = PRODUCT_DEFINITION_FORMATION('','',#7);
#7 = PRODUCT('Open CASCADE STEP translator 7.8 67',
  'Open CASCADE STEP translator 7.8 67','',(#8));
#8 = PRODUCT_CONTEXT('',#2,'mechanical');
#9 = PRODUCT_DEFINITION_CONTEXT('part definition',#2,'design');
#10 = ADVANCED_BREP_SHAPE_REPRESENTATION('',(#11,#15),#241);
#11 = AXIS2_PLACEMENT_3D('',#12,#13,#14);
#12 = CARTESIAN_POINT('',(0.,0.,0.));
#13 = DIRECTION('',(0.,0.,1.));
#14 = DIRECTION('',(1.,0.,-0.));
#15 = MANIFOLD_SOLID_BREP('',#16);
#16 = CLOSED_SHELL('',(#17,#118,#153,#175,#197,#218,#229));
#17 = ADVANCED_FACE('',(#18),#113,.T.);
#18 = FACE_BOUND('',#19,.T.);
#19 = EDGE_LOOP('',(#20,#32,#41,#51,#83));
#20 = ORIENTED_EDGE('',*,*,#21,.F.);
#21 = EDGE_CURVE('',#22,#24,#26,.T.);
#22 = VERTEX_POINT('',#23);
#23 = CARTESIAN_POINT('',(-45.10437724912,44.92119189497,47.676815994967
    ));
#24 = VERTEX_POINT('',#25);
#25 = CARTESIAN_POINT('',(-40.84341775384,48.827590094958,
    55.844173690239));
#26 = B_SPLINE_CURVE_WITH_KNOTS('',4,(#27,#28,#29,#30,#31),
  .UNSPECIFIED.,.F.,.F.,(5,5),(0.,1.),.PIECEWISE_BEZIER_KNOTS.);
#27 = CARTESIAN_POINT('',(-45.10437754851,44.921191594359,
    47.676815394967));
#28 = CARTESIAN_POINT('',(-44.0852076686,45.944517588569,49.719311269084
    ));
#29 = CARTESIAN_POINT('',(-43.03512913346,46.936965062406,
    51.761837278065));
#30 = CARTESIAN_POINT('',(-41.9544960353,47.898192712888,53.803698026705
    ));
#31 = CARTESIAN_POINT('',(-40.84341775384,48.827590094958,
    55.844173690239));
#32 = ORIENTED_EDGE('',*,*,#33,.T.);
#33 = EDGE_CURVE('',#22,#34,#36,.T.);
#34 = VERTEX_POINT('',#35);
#35 = CARTESIAN_POINT('',(-61.5221324671,-16.35070472475,47.676815994967
    ));
#36 = CIRCLE('',#37,63.657822208242);
#37 = AXIS2_PLACEMENT_3D('',#38,#39,#40);
#38 = CARTESIAN_POINT('',(0.,0.,47.676815994967));
#39 = DIRECTION('',(0.,0.,1.));
#40 = DIRECTION('',(1.,0.,-0.));
#41 = ORIENTED_EDGE('',*,*,#42,.F.);
#42 = EDGE_CURVE('',#43,#34,#45,.T.);
#43 = VERTEX_POINT('',#44);
#44 = CARTESIAN_POINT('',(-59.78523239968,-21.86422455088,
    55.844173690239));
#45 = B_SPLINE_CURVE_WITH_KNOTS('',4,(#46,#47,#48,#49,#50),
  .UNSPECIFIED.,.F.,.F.,(5,5),(0.,1.),.PIECEWISE_BEZIER_KNOTS.);
#46 = CARTESIAN_POINT('',(-59.78523239968,-21.86422455088,
    55.844173690239));
#47 = CARTESIAN_POINT('',(-60.28275572602,-20.50380366697,
    53.803698026563));
#48 = CARTESIAN_POINT('',(-60.7379976159,-19.1310395539,51.761837278144)
  );
#49 = CARTESIAN_POINT('',(-61.15116856643,-17.74651556195,
    49.719311268984));
#50 = CARTESIAN_POINT('',(-61.52213257607,-16.35070431472,
    47.676815394967));
#51 = ORIENTED_EDGE('',*,*,#52,.T.);
#52 = EDGE_CURVE('',#43,#53,#55,.T.);
#53 = VERTEX_POINT('',#54);
#54 = CARTESIAN_POINT('',(-61.48873451625,16.475856757243,
    92.480752881796));
#55 = B_SPLINE_CURVE_WITH_KNOTS('',6,(#56,#57,#58,#59,#60,#61,#62,#63,
    #64,#65,#66,#67,#68,#69,#70,#71,#72,#73,#74,#75,#76,#77,#78,#79,#80,
    #81,#82),.UNSPECIFIED.,.F.,.F.,(7,5,5,5,5,7),(0.,0.225703386591,
    0.458153639987,0.701378534485,0.957216641994,1.),.UNSPECIFIED.);
#56 = CARTESIAN_POINT('',(-59.78523239968,-21.86422455088,
    55.844173690239));
#57 = CARTESIAN_POINT('',(-60.40864601117,-20.15957101712,56.92541361252
    ));
#58 = CARTESIAN_POINT('',(-60.95771743716,-18.47738309131,
    58.058530112332));
#59 = CARTESIAN_POINT('',(-61.43819137492,-16.81936865364,59.23607061224
    ));
#60 = CARTESIAN_POINT('',(-61.85522657457,-15.18654478234,60.45185928389
    ));
#61 = CARTESIAN_POINT('',(-62.21349867616,-13.57920111695,
    61.700930847699));
#62 = CARTESIAN_POINT('',(-62.82984696974,-10.36735066785,64.29643300321
    ));
#63 = CARTESIAN_POINT('',(-63.08456618393,-8.764584904195,
    65.644479552687));
#64 = CARTESIAN_POINT('',(-63.28579942236,-7.188319665649,
    67.019511552796));
#65 = CARTESIAN_POINT('',(-63.43733868861,-5.638192710288,
    68.418099241907));
#66 = CARTESIAN_POINT('',(-63.54249606735,-4.113667671664,69.83746690179
    ));
#67 = CARTESIAN_POINT('',(-63.66861874863,-1.044861244819,
    72.780150647357));
#68 = CARTESIAN_POINT('',(-63.68545191842,0.496960192315,74.305138914697
    ));
#69 = CARTESIAN_POINT('',(-63.65791127239,2.012208886519,75.847928254939
    ));
#70 = CARTESIAN_POINT('',(-63.58874708757,3.501550251578,77.406433804813
    ));
#71 = CARTESIAN_POINT('',(-63.4803445145,4.965652354617,78.978938480927)
  );
#72 = CARTESIAN_POINT('',(-63.18162279978,7.919415720428,82.231423561456
    ));
#73 = CARTESIAN_POINT('',(-62.98735223176,9.406417199674,83.912695608718
    ));
#74 = CARTESIAN_POINT('',(-62.75434703262,10.866990123733,
    85.606273731925));
#75 = CARTESIAN_POINT('',(-62.4846324717,12.301788050229,87.310786219338
    ));
#76 = CARTESIAN_POINT('',(-62.17996517369,13.711413844389,
    89.025079311506));
#77 = CARTESIAN_POINT('',(-61.78532107996,15.328054993099,
    91.036364553948));
#78 = CARTESIAN_POINT('',(-61.72784565327,15.558982054791,
    91.324767042328));
#79 = CARTESIAN_POINT('',(-61.66944240501,15.789223297677,
    91.613411533472));
#80 = CARTESIAN_POINT('',(-61.61011829754,16.018781212153,
    91.902293555422));
#81 = CARTESIAN_POINT('',(-61.54988012558,16.247658236572,
    92.191408751797));
#82 = CARTESIAN_POINT('',(-61.48873451625,16.475856757243,
    92.480752881796));
#83 = ORIENTED_EDGE('',*,*,#84,.T.);
#84 = EDGE_CURVE('',#53,#24,#85,.T.);
#85 = B_SPLINE_CURVE_WITH_KNOTS('',6,(#86,#87,#88,#89,#90,#91,#92,#93,
    #94,#95,#96,#97,#98,#99,#100,#101,#102,#103,#104,#105,#106,#107,#108
    ,#109,#110,#111,#112),.UNSPECIFIED.,.F.,.F.,(7,5,5,5,5,7),(0.,
    0.265412746807,0.515228286263,0.753558753453,0.983264894826,1.),
  .UNSPECIFIED.);
#86 = CARTESIAN_POINT('',(-61.48873451625,16.475856757243,
    92.480752881796));
#87 = CARTESIAN_POINT('',(-61.10940869279,17.891520003037,
    90.685763812538));
#88 = CARTESIAN_POINT('',(-60.68678664181,19.312320194968,
    88.899605063516));
#89 = CARTESIAN_POINT('',(-60.21920647734,20.737990163079,
    87.123249888168));
#90 = CARTESIAN_POINT('',(-59.70476421184,22.168167627539,
    85.357890077746));
#91 = CARTESIAN_POINT('',(-59.14127685039,23.602398684081,
    83.604944708616));
#92 = CARTESIAN_POINT('',(-57.94715417911,26.393411917055,
    80.229428962999));
#93 = CARTESIAN_POINT('',(-57.32242811062,27.749751421641,
    78.605300355051));
#94 = CARTESIAN_POINT('',(-56.64978702408,29.108749614223,
    76.995078025594));
#95 = CARTESIAN_POINT('',(-55.92676549437,30.469801183295,
    75.400491253734));
#96 = CARTESIAN_POINT('',(-55.15056488079,31.83211679879,73.823642657999
    ));
#97 = CARTESIAN_POINT('',(-53.52340765249,34.494698269197,
    70.782069611287));
#98 = CARTESIAN_POINT('',(-52.67757672771,35.794857616774,
    69.315614519303));
#99 = CARTESIAN_POINT('',(-51.77743019032,37.094423511534,
    67.869850992982));
#100 = CARTESIAN_POINT('',(-50.8197203365,38.392219332243,
    66.447575068921));
#101 = CARTESIAN_POINT('',(-49.80084051588,39.686675578927,
    65.052250849616));
#102 = CARTESIAN_POINT('',(-47.67146538573,42.21830968527,
    62.373379739083));
#103 = CARTESIAN_POINT('',(-46.56575625877,43.455701785026,
    61.087788326042));
#104 = CARTESIAN_POINT('',(-45.39553065105,44.686341193608,
    59.835035931601));
#105 = CARTESIAN_POINT('',(-44.15674277037,45.907697343481,
    58.620060238041));
#106 = CARTESIAN_POINT('',(-42.84523800373,47.116370627159,
    57.449025889433));
#107 = CARTESIAN_POINT('',(-41.35542409974,48.394886080358,
    56.247851037004));
#108 = CARTESIAN_POINT('',(-41.25384649318,48.481615572481,
    56.166556331964));
#109 = CARTESIAN_POINT('',(-41.1518586132,48.568252542507,
    56.085538184951));
#110 = CARTESIAN_POINT('',(-41.04945889548,48.65479518728,
    56.004799631706));
#111 = CARTESIAN_POINT('',(-40.94664578856,48.741241664947,
    55.924343756121));
#112 = CARTESIAN_POINT('',(-40.84341775384,48.827590094958,
    55.844173690239));
#113 = CYLINDRICAL_SURFACE('',#114,63.657822208242);
#114 = AXIS2_PLACEMENT_3D('',#115,#116,#117);
#115 = CARTESIAN_POINT('',(0.,0.,47.676815994967));
#116 = DIRECTION('',(0.,0.,1.));
#117 = DIRECTION('',(1.,0.,-0.));
#118 = ADVANCED_FACE('',(#119),#148,.F.);
#119 = FACE_BOUND('',#120,.F.);
#120 = EDGE_LOOP('',(#121,#128,#129,#136,#143));
#121 = ORIENTED_EDGE('',*,*,#122,.F.);
#122 = EDGE_CURVE('',#24,#123,#125,.T.);
#123 = VERTEX_POINT('',#124);
#124 = CARTESIAN_POINT('',(-11.03464617654,40.840353823457,
    77.665708996037));
#125 = B_SPLINE_CURVE_WITH_KNOTS('',1,(#126,#127),.UNSPECIFIED.,.F.,.F.,
  (2,2),(0.,94.657822208242),.PIECEWISE_BEZIER_KNOTS.);
#126 = CARTESIAN_POINT('',(-85.68891684708,60.843905361162,
    23.014989863205));
#127 = CARTESIAN_POINT('',(-11.03464617654,40.840353823457,
    77.665708996037));
#128 = ORIENTED_EDGE('',*,*,#21,.F.);
#129 = ORIENTED_EDGE('',*,*,#130,.F.);
#130 = EDGE_CURVE('',#131,#22,#133,.T.);
#131 = VERTEX_POINT('',#132);
#132 = CARTESIAN_POINT('',(-0.250235847377,6.705049322209E-02,
    47.676815994967));
#133 = B_SPLINE_CURVE_WITH_KNOTS('',1,(#134,#135),.UNSPECIFIED.,.F.,.F.,
  (2,2),(0.,1.),.PIECEWISE_BEZIER_KNOTS.);
#134 = CARTESIAN_POINT('',(-0.250235847377,6.705049322209E-02,
    47.676815994967));
#135 = CARTESIAN_POINT('',(-52.00023584737,51.817050493222,
    47.676815994967));
#136 = ORIENTED_EDGE('',*,*,#137,.T.);
#137 = EDGE_CURVE('',#131,#138,#140,.T.);
#138 = VERTEX_POINT('',#139);
#139 = CARTESIAN_POINT('',(-9.858439182435E-02,2.641560817565E-02,
    47.787832565474));
#140 = B_SPLINE_CURVE_WITH_KNOTS('',1,(#141,#142),.UNSPECIFIED.,.F.,.F.,
  (2,2),(0.,94.657822208242),.PIECEWISE_BEZIER_KNOTS.);
#141 = CARTESIAN_POINT('',(-74.75285506236,20.02996714588,
    -6.862886567358));
#142 = CARTESIAN_POINT('',(-9.858439182435E-02,2.641560817565E-02,
    47.787832565474));
#143 = ORIENTED_EDGE('',*,*,#144,.T.);
#144 = EDGE_CURVE('',#138,#123,#145,.T.);
#145 = B_SPLINE_CURVE_WITH_KNOTS('',1,(#146,#147),.UNSPECIFIED.,.F.,.F.,
  (2,2),(0.,51.75),.PIECEWISE_BEZIER_KNOTS.);
#146 = CARTESIAN_POINT('',(-9.858439182435E-02,2.641560817565E-02,
    47.787832565474));
#147 = CARTESIAN_POINT('',(-11.03464617654,40.840353823457,
    77.665708996037));
#148 = B_SPLINE_SURFACE_WITH_KNOTS('',1,1,(
    (#149,#150)
    ,(#151,#152
    )),.UNSPECIFIED.,.F.,.F.,.F.,(2,2),(2,2),(0.,94.657822208242),(0.,
    51.75),.PIECEWISE_BEZIER_KNOTS.);
#149 = CARTESIAN_POINT('',(-74.75285506236,20.02996714588,
    -6.862886567358));
#150 = CARTESIAN_POINT('',(-85.68891684708,60.843905361162,
    23.014989863205));
#151 = CARTESIAN_POINT('',(-9.858439182435E-02,2.641560817565E-02,
    47.787832565474));
#152 = CARTESIAN_POINT('',(-11.03464617654,40.840353823457,
    77.665708996037));
#153 = ADVANCED_FACE('',(#154),#170,.T.);
#154 = FACE_BOUND('',#155,.T.);
#155 = EDGE_LOOP('',(#156,#157,#158,#165));
#156 = ORIENTED_EDGE('',*,*,#122,.F.);
#157 = ORIENTED_EDGE('',*,*,#84,.F.);
#158 = ORIENTED_EDGE('',*,*,#159,.T.);
#159 = EDGE_CURVE('',#53,#160,#162,.T.);
#160 = VERTEX_POINT('',#161);
#161 = CARTESIAN_POINT('',(-40.9125226071,10.962477392894,107.5435854266
    ));
#162 = B_SPLINE_CURVE_WITH_KNOTS('',1,(#163,#164),.UNSPECIFIED.,.F.,.F.,
  (2,2),(0.,94.657822208242),.PIECEWISE_BEZIER_KNOTS.);
#163 = CARTESIAN_POINT('',(-115.5667932776,30.966028930599,
    52.892866293768));
#164 = CARTESIAN_POINT('',(-40.9125226071,10.962477392894,107.5435854266
    ));
#165 = ORIENTED_EDGE('',*,*,#166,.F.);
#166 = EDGE_CURVE('',#123,#160,#167,.T.);
#167 = B_SPLINE_CURVE_WITH_KNOTS('',1,(#168,#169),.UNSPECIFIED.,.F.,.F.,
  (2,2),(0.,51.75),.PIECEWISE_BEZIER_KNOTS.);
#168 = CARTESIAN_POINT('',(-11.03464617654,40.840353823457,
    77.665708996037));
#169 = CARTESIAN_POINT('',(-40.9125226071,10.962477392894,107.5435854266
    ));
#170 = B_SPLINE_SURFACE_WITH_KNOTS('',1,1,(
    (#171,#172)
    ,(#173,#174
    )),.UNSPECIFIED.,.F.,.F.,.F.,(2,2),(2,2),(0.,51.75),(0.,
    94.657822208242),.PIECEWISE_BEZIER_KNOTS.);
#171 = CARTESIAN_POINT('',(-85.68891684708,60.843905361162,
    23.014989863205));
#172 = CARTESIAN_POINT('',(-11.03464617654,40.840353823457,
    77.665708996037));
#173 = CARTESIAN_POINT('',(-115.5667932776,30.966028930599,
    52.892866293768));
#174 = CARTESIAN_POINT('',(-40.9125226071,10.962477392894,107.5435854266
    ));
#175 = ADVANCED_FACE('',(#176),#192,.T.);
#176 = FACE_BOUND('',#177,.T.);
#177 = EDGE_LOOP('',(#178,#179,#180,#187));
#178 = ORIENTED_EDGE('',*,*,#159,.F.);
#179 = ORIENTED_EDGE('',*,*,#52,.F.);
#180 = ORIENTED_EDGE('',*,*,#181,.T.);
#181 = EDGE_CURVE('',#43,#182,#184,.T.);
#182 = VERTEX_POINT('',#183);
#183 = CARTESIAN_POINT('',(-29.97646082238,-29.85146082238,
    77.665708996037));
#184 = B_SPLINE_CURVE_WITH_KNOTS('',1,(#185,#186),.UNSPECIFIED.,.F.,.F.,
  (2,2),(0.,94.657822208242),.PIECEWISE_BEZIER_KNOTS.);
#185 = CARTESIAN_POINT('',(-104.6307314929,-9.847909284683,
    23.014989863205));
#186 = CARTESIAN_POINT('',(-29.97646082238,-29.85146082238,
    77.665708996037));
#187 = ORIENTED_EDGE('',*,*,#188,.T.);
#188 = EDGE_CURVE('',#182,#160,#189,.T.);
#189 = B_SPLINE_CURVE_WITH_KNOTS('',1,(#190,#191),.UNSPECIFIED.,.F.,.F.,
  (2,2),(0.,51.75),.PIECEWISE_BEZIER_KNOTS.);
#190 = CARTESIAN_POINT('',(-29.97646082238,-29.85146082238,
    77.665708996037));
#191 = CARTESIAN_POINT('',(-40.9125226071,10.962477392894,107.5435854266
    ));
#192 = B_SPLINE_SURFACE_WITH_KNOTS('',1,1,(
    (#193,#194)
    ,(#195,#196
    )),.UNSPECIFIED.,.F.,.F.,.F.,(2,2),(2,2),(0.,94.657822208242),(0.,
    51.75),.PIECEWISE_BEZIER_KNOTS.);
#193 = CARTESIAN_POINT('',(-104.6307314929,-9.847909284683,
    23.014989863205));
#194 = CARTESIAN_POINT('',(-115.5667932776,30.966028930599,
    52.892866293768));
#195 = CARTESIAN_POINT('',(-29.97646082238,-29.85146082238,
    77.665708996037));
#196 = CARTESIAN_POINT('',(-40.9125226071,10.962477392894,107.5435854266
    ));
#197 = ADVANCED_FACE('',(#198),#213,.F.);
#198 = FACE_BOUND('',#199,.F.);
#199 = EDGE_LOOP('',(#200,#201,#206,#207,#208));
#200 = ORIENTED_EDGE('',*,*,#137,.F.);
#201 = ORIENTED_EDGE('',*,*,#202,.F.);
#202 = EDGE_CURVE('',#34,#131,#203,.T.);
#203 = B_SPLINE_CURVE_WITH_KNOTS('',1,(#204,#205),.UNSPECIFIED.,.F.,.F.,
  (2,2),(0.,1.),.PIECEWISE_BEZIER_KNOTS.);
#204 = CARTESIAN_POINT('',(-63.65782220824,-16.92296106617,
    47.676815994967));
#205 = CARTESIAN_POINT('',(-0.250235847377,6.705049322209E-02,
    47.676815994967));
#206 = ORIENTED_EDGE('',*,*,#42,.F.);
#207 = ORIENTED_EDGE('',*,*,#181,.T.);
#208 = ORIENTED_EDGE('',*,*,#209,.F.);
#209 = EDGE_CURVE('',#138,#182,#210,.T.);
#210 = B_SPLINE_CURVE_WITH_KNOTS('',1,(#211,#212),.UNSPECIFIED.,.F.,.F.,
  (2,2),(0.,51.75),.PIECEWISE_BEZIER_KNOTS.);
#211 = CARTESIAN_POINT('',(-9.858439182435E-02,2.641560817565E-02,
    47.787832565474));
#212 = CARTESIAN_POINT('',(-29.97646082238,-29.85146082238,
    77.665708996037));
#213 = B_SPLINE_SURFACE_WITH_KNOTS('',1,1,(
    (#214,#215)
    ,(#216,#217
    )),.UNSPECIFIED.,.F.,.F.,.F.,(2,2),(2,2),(0.,51.75),(0.,
    94.657822208242),.PIECEWISE_BEZIER_KNOTS.);
#214 = CARTESIAN_POINT('',(-74.75285506236,20.02996714588,
    -6.862886567358));
#215 = CARTESIAN_POINT('',(-9.858439182435E-02,2.641560817565E-02,
    47.787832565474));
#216 = CARTESIAN_POINT('',(-104.6307314929,-9.847909284683,
    23.014989863205));
#217 = CARTESIAN_POINT('',(-29.97646082238,-29.85146082238,
    77.665708996037));
#218 = ADVANCED_FACE('',(#219),#224,.F.);
#219 = FACE_BOUND('',#220,.F.);
#220 = EDGE_LOOP('',(#221,#222,#223));
#221 = ORIENTED_EDGE('',*,*,#130,.T.);
#222 = ORIENTED_EDGE('',*,*,#33,.T.);
#223 = ORIENTED_EDGE('',*,*,#202,.T.);
#224 = PLANE('',#225);
#225 = AXIS2_PLACEMENT_3D('',#226,#227,#228);
#226 = CARTESIAN_POINT('',(0.,0.,47.676815994967));
#227 = DIRECTION('',(0.,0.,1.));
#228 = DIRECTION('',(1.,0.,-0.));
#229 = ADVANCED_FACE('',(#230),#236,.T.);
#230 = FACE_BOUND('',#231,.T.);
#231 = EDGE_LOOP('',(#232,#233,#234,#235));
#232 = ORIENTED_EDGE('',*,*,#209,.F.);
#233 = ORIENTED_EDGE('',*,*,#144,.T.);
#234 = ORIENTED_EDGE('',*,*,#166,.T.);
#235 = ORIENTED_EDGE('',*,*,#188,.F.);
#236 = B_SPLINE_SURFACE_WITH_KNOTS('',1,1,(
    (#237,#238)
    ,(#239,#240
    )),.UNSPECIFIED.,.F.,.F.,.F.,(2,2),(2,2),(0.,51.75),(-51.75,0.),
  .PIECEWISE_BEZIER_KNOTS.);
#237 = CARTESIAN_POINT('',(-11.03464617654,40.840353823457,
    77.665708996037));
#238 = CARTESIAN_POINT('',(-9.858439182435E-02,2.641560817565E-02,
    47.787832565474));
#239 = CARTESIAN_POINT('',(-40.9125226071,10.962477392894,107.5435854266
    ));
#240 = CARTESIAN_POINT('',(-29.97646082238,-29.85146082238,
    77.665708996037));
#241 = ( GEOMETRIC_REPRESENTATION_CONTEXT(3) 
GLOBAL_UNCERTAINTY_ASSIGNED_CONTEXT((#245)) GLOBAL_UNIT_ASSIGNED_CONTEXT
((#242,#243,#244)) REPRESENTATION_CONTEXT('Context #1',
  '3D Context with UNIT and UNCERTAINTY') );
#242 = ( LENGTH_UNIT() NAMED_UNIT(*) SI_UNIT(.MILLI.,.METRE.) );
#243 = ( NAMED_UNIT(*) PLANE_ANGLE_UNIT() SI_UNIT($,.RADIAN.) );
#244 = ( NAMED_UNIT(*) SI_UNIT($,.STERADIAN.) SOLID_ANGLE_UNIT() );
#245 = UNCERTAINTY_MEASURE_WITH_UNIT(LENGTH_MEASURE(2.E-06),#242,
  'distance_accuracy_value','confusion accuracy');
#246 = PRODUCT_RELATED_PRODUCT_CATEGORY('part',$,(#7));
ENDSEC;
END-ISO-10303-21;
