ISO-10303-21;
HEADER;
FILE_DESCRIPTION(('FreeCAD Model'),'2;1');
FILE_NAME('Open CASCADE Shape Model','2026-08-13T22:11:32',('FreeCAD'),(
    'FreeCAD'),'Open CASCADE STEP processor 7.8','FreeCAD','Unknown');
FILE_SCHEMA(('AUTOMOTIVE_DESIGN { 1 0 10303 214 1 1 1 1 }'));
ENDSEC;
DATA;
#1 = APPLICATION_PROTOCOL_DEFINITION('international standard',
  'automotive_design',2000,#2);
#2 = APPLICATION_CONTEXT(
  'core data for automotive mechanical design processes');
#3 = SHAPE_DEFINITION_REPRESENTATION(#4,#10);
#4 = PRODUCT_DEFINITION_SHAPE('','',#5);
#5 = PRODUCT_DEFINITION('design','',#6,#9);
#6 = PRODUCT_DEFINITION_FORMATION('','',#7);
#7 = PRODUCT('Open CASCADE STEP translator 7.8 69',
  'Open CASCADE STEP translator 7.8 69','',(#8));
#8 = PRODUCT_CONTEXT('',#2,'mechanical');
#9 = PRODUCT_DEFINITION_CONTEXT('part definition',#2,'design');
#10 = ADVANCED_BREP_SHAPE_REPRESENTATION('',(#11,#15),#382);
#11 = AXIS2_PLACEMENT_3D('',#12,#13,#14);
#12 = CARTESIAN_POINT('',(0.,0.,0.));
#13 = DIRECTION('',(0.,0.,1.));
#14 = DIRECTION('',(1.,0.,-0.));
#15 = MANIFOLD_SOLID_BREP('',#16);
#16 = CLOSED_SHELL('',(#17,#258,#293,#316,#338,#359,#370));
#17 = ADVANCED_FACE('',(#18),#253,.T.);
#18 = FACE_BOUND('',#19,.T.);
#19 = EDGE_LOOP('',(#20,#32,#41,#53,#204,#241));
#20 = ORIENTED_EDGE('',*,*,#21,.F.);
#21 = EDGE_CURVE('',#22,#24,#26,.T.);
#22 = VERTEX_POINT('',#23);
#23 = CARTESIAN_POINT('',(-44.88770419723,-45.13770419723,
    38.304190218308));
#24 = VERTEX_POINT('',#25);
#25 = CARTESIAN_POINT('',(-44.88770419723,-45.13770419723,
    63.689584944216));
#26 = B_SPLINE_CURVE_WITH_KNOTS('',4,(#27,#28,#29,#30,#31),
  .UNSPECIFIED.,.F.,.F.,(5,5),(0.,1.),.PIECEWISE_BEZIER_KNOTS.);
#27 = CARTESIAN_POINT('',(-44.88770419723,-45.13770419723,
    38.304189618308));
#28 = CARTESIAN_POINT('',(-44.88770419723,-45.13770419723,
    61.503525008732));
#29 = CARTESIAN_POINT('',(-44.88770419723,-45.13770419723,
    84.702860399157));
#30 = CARTESIAN_POINT('',(-44.88770419723,-45.13770419723,
    107.90219578958));
#31 = CARTESIAN_POINT('',(-44.88770419723,-45.13770419723,131.10153118)
  );
#32 = ORIENTED_EDGE('',*,*,#33,.T.);
#33 = EDGE_CURVE('',#22,#34,#36,.T.);
#34 = VERTEX_POINT('',#35);
#35 = CARTESIAN_POINT('',(61.442744250989,-16.64654640469,
    38.304190218308));
#36 = CIRCLE('',#37,63.657822208242);
#37 = AXIS2_PLACEMENT_3D('',#38,#39,#40);
#38 = CARTESIAN_POINT('',(0.,0.,38.304190218308));
#39 = DIRECTION('',(0.,0.,1.));
#40 = DIRECTION('',(1.,0.,-0.));
#41 = ORIENTED_EDGE('',*,*,#42,.T.);
#42 = EDGE_CURVE('',#34,#43,#45,.T.);
#43 = VERTEX_POINT('',#44);
#44 = CARTESIAN_POINT('',(61.442744282689,-16.64654641319,
    63.689584932612));
#45 = B_SPLINE_CURVE_WITH_KNOTS('',6,(#46,#47,#48,#49,#50,#51,#52),
  .UNSPECIFIED.,.F.,.F.,(7,7),(0.,1.),.PIECEWISE_BEZIER_KNOTS.);
#46 = CARTESIAN_POINT('',(61.442744250989,-16.64654640469,
    38.304189618308));
#47 = CARTESIAN_POINT('',(61.442744250989,-16.64654640469,
    43.157361792182));
#48 = CARTESIAN_POINT('',(61.442744250989,-16.64654640469,
    57.792124651829));
#49 = CARTESIAN_POINT('',(61.442744250989,-16.64654640469,
    73.506171429987));
#50 = CARTESIAN_POINT('',(61.442744250989,-16.64654640469,
    86.630745635159));
#51 = CARTESIAN_POINT('',(61.442744250989,-16.64654640469,
    97.360507792182));
#52 = CARTESIAN_POINT('',(61.442744250989,-16.64654640469,
    108.59412334749));
#53 = ORIENTED_EDGE('',*,*,#54,.F.);
#54 = EDGE_CURVE('',#55,#43,#57,.T.);
#55 = VERTEX_POINT('',#56);
#56 = CARTESIAN_POINT('',(16.475856756837,-61.48873451474,
    108.59412274631));
#57 = B_SPLINE_CURVE_WITH_KNOTS('',7,(#58,#59,#60,#61,#62,#63,#64,#65,
    #66,#67,#68,#69,#70,#71,#72,#73,#74,#75,#76,#77,#78,#79,#80,#81,#82,
    #83,#84,#85,#86,#87,#88,#89,#90,#91,#92,#93,#94,#95,#96,#97,#98,#99,
    #100,#101,#102,#103,#104,#105,#106,#107,#108,#109,#110,#111,#112,
    #113,#114,#115,#116,#117,#118,#119,#120,#121,#122,#123,#124,#125,
    #126,#127,#128,#129,#130,#131,#132,#133,#134,#135,#136,#137,#138,
    #139,#140,#141,#142,#143,#144,#145,#146,#147,#148,#149,#150,#151,
    #152,#153,#154,#155,#156,#157,#158,#159,#160,#161,#162,#163,#164,
    #165,#166,#167,#168,#169,#170,#171,#172,#173,#174,#175,#176,#177,
    #178,#179,#180,#181,#182,#183,#184,#185,#186,#187,#188,#189,#190,
    #191,#192,#193,#194,#195,#196,#197,#198,#199,#200,#201,#202,#203),
  .UNSPECIFIED.,.F.,.F.,(8,6,6,6,6,6,6,6,6,6,6,6,6,6,6,6,6,6,6,6,6,6,6,6
    ,8),(0.,5.821445886485E-02,7.81375183413E-02,0.114909923347,
    0.162104343727,0.198251314437,0.225338324713,0.295373608143,
    0.365637156616,0.392759774617,0.428928965002,0.475403483261,
    0.512114124846,0.531952801702,0.572301198609,0.612934928636,
    0.632828873294,0.669584897992,0.715964072871,0.752092023215,
    0.779158944318,0.849109722217,0.928217589479,0.958926118104,1.),
  .UNSPECIFIED.);
#58 = CARTESIAN_POINT('',(50.052758162592,39.332425918232,41.39509182695
    ));
#59 = CARTESIAN_POINT('',(47.899782863225,42.072209937994,
    41.101687466752));
#60 = CARTESIAN_POINT('',(45.558232716672,44.691821577618,
    40.962656720217));
#61 = CARTESIAN_POINT('',(43.044850548756,47.161763451729,
    40.984376867118));
#62 = CARTESIAN_POINT('',(40.380720808399,49.45978210186,41.167432412234
    ));
#63 = CARTESIAN_POINT('',(37.589878057205,51.569255454452,
    41.508117111533));
#64 = CARTESIAN_POINT('',(34.698910231505,53.478770643539,41.99884342984
    ));
#65 = CARTESIAN_POINT('',(30.723297475261,55.765264741156,
    42.843402759153));
#66 = CARTESIAN_POINT('',(29.701020175067,56.324296573109,
    43.075025493273));
#67 = CARTESIAN_POINT('',(28.67115425776,56.859183120016,43.322515178473
    ));
#68 = CARTESIAN_POINT('',(27.634675527258,57.369831388643,
    43.585430409411));
#69 = CARTESIAN_POINT('',(26.592523147035,57.856224425026,
    43.863310081331));
#70 = CARTESIAN_POINT('',(25.545596777177,58.318410474658,
    44.155680241444));
#71 = CARTESIAN_POINT('',(22.55519082168,59.565068583506,45.027554164769
    ));
#72 = CARTESIAN_POINT('',(20.602318246777,60.291515297189,
    45.640767095378));
#73 = CARTESIAN_POINT('',(18.641445542006,60.936522566842,
    46.298699812938));
#74 = CARTESIAN_POINT('',(16.677346175927,61.50141508913,46.998303234833
    ));
#75 = CARTESIAN_POINT('',(14.714250916182,61.987941855166,
    47.736587481687));
#76 = CARTESIAN_POINT('',(12.755843853007,62.398112332765,
    48.510705774475));
#77 = CARTESIAN_POINT('',(8.301845135289,63.165265046462,50.354128776486
    ));
#78 = CARTESIAN_POINT('',(5.811530622057,63.47418749234,51.444824810163)
  );
#79 = CARTESIAN_POINT('',(3.34066896356,63.6654792101,52.584609780531));
#80 = CARTESIAN_POINT('',(0.894651915081,63.74396586729,53.768374976176)
  );
#81 = CARTESIAN_POINT('',(-1.522044117059,63.714479859392,
    54.991465996196));
#82 = CARTESIAN_POINT('',(-3.905813971254,63.581680461621,
    56.249750622178));
#83 = CARTESIAN_POINT('',(-8.052301543735,63.172340537682,
    58.527664370388));
#84 = CARTESIAN_POINT('',(-9.829690856608,62.936732744429,
    59.534162923451));
#85 = CARTESIAN_POINT('',(-11.58475994762,62.645008022508,
    60.557559829921));
#86 = CARTESIAN_POINT('',(-13.31635623047,62.29901961737,61.596352173913
    ));
#87 = CARTESIAN_POINT('',(-15.02346144377,61.900521159694,
    62.649154009404));
#88 = CARTESIAN_POINT('',(-16.70518720624,61.451157084649,
    63.714698928158));
#89 = CARTESIAN_POINT('',(-19.60138855853,60.578731403593,
    65.599012444832));
#90 = CARTESIAN_POINT('',(-20.82731124153,60.177312267527,
    66.412683354365));
#91 = CARTESIAN_POINT('',(-22.03820354919,59.748830193193,67.23237054536
    ));
#92 = CARTESIAN_POINT('',(-23.23375073354,59.293896810421,
    68.057610828924));
#93 = CARTESIAN_POINT('',(-24.41365462352,58.813092522175,
    68.887964918036));
#94 = CARTESIAN_POINT('',(-25.57763338269,58.306966171156,69.72301747313
    ));
#95 = CARTESIAN_POINT('',(-29.69310389346,56.403275762646,
    72.732597932769));
#96 = CARTESIAN_POINT('',(-32.55224667908,54.864829610241,
    74.931392401787));
#97 = CARTESIAN_POINT('',(-35.29868771708,53.169500428399,77.1522775117)
  );
#98 = CARTESIAN_POINT('',(-37.92794326467,51.32493588914,79.389187555136
    ));
#99 = CARTESIAN_POINT('',(-40.4354525568,49.33794875705,81.636435767234)
  );
#100 = CARTESIAN_POINT('',(-42.81655041751,47.214488499607,
    83.888714826317));
#101 = CARTESIAN_POINT('',(-47.32332717602,42.69700069055,88.4008471101)
  );
#102 = CARTESIAN_POINT('',(-49.44773201837,40.30253111693,90.66028431808
    ));
#103 = CARTESIAN_POINT('',(-51.43456228521,37.781004339745,92.9144628401
    ));
#104 = CARTESIAN_POINT('',(-53.27778641643,35.137118167607,
    95.15801799177));
#105 = CARTESIAN_POINT('',(-54.97049247084,32.375472906501,
    97.385193649534));
#106 = CARTESIAN_POINT('',(-56.50491803292,29.500599950589,
    99.58984290853));
#107 = CARTESIAN_POINT('',(-58.39987785984,25.364893221338,
    102.60517618661));
#108 = CARTESIAN_POINT('',(-58.90269709912,24.196876680523,
    103.44059407666));
#109 = CARTESIAN_POINT('',(-59.38005618397,23.012929849427,
    104.27124703463));
#110 = CARTESIAN_POINT('',(-59.83140091408,21.813337012029,
    105.09671581839));
#111 = CARTESIAN_POINT('',(-60.25614522428,20.598399298872,
    105.91655683006));
#112 = CARTESIAN_POINT('',(-60.65367154154,19.368434942761,
    106.73030216675));
#113 = CARTESIAN_POINT('',(-61.51628829217,16.463977430356,
    108.61383929826));
#114 = CARTESIAN_POINT('',(-61.95967969466,14.778080206727,
    109.67848361132));
#115 = CARTESIAN_POINT('',(-62.35197618449,13.066861940419,
    110.7302409894));
#116 = CARTESIAN_POINT('',(-62.69152123117,11.331221201142,
    111.76783388237));
#117 = CARTESIAN_POINT('',(-62.97654886665,9.572189106763,112.7898637473
    ));
#118 = CARTESIAN_POINT('',(-63.20519363478,7.790933899079,
    113.79481373521));
#119 = CARTESIAN_POINT('',(-63.59431307053,3.673115267909,
    116.04828276867));
#120 = CARTESIAN_POINT('',(-63.7167890501,1.323089631819,117.2845335765)
  );
#121 = CARTESIAN_POINT('',(-63.73878718105,-1.058636132624,
    118.4863955242));
#122 = CARTESIAN_POINT('',(-63.65584907417,-3.468590827135,
    119.64990381801));
#123 = CARTESIAN_POINT('',(-63.46335631966,-5.902469847627,120.770596951
    ));
#124 = CARTESIAN_POINT('',(-63.15670293583,-8.355093868057,
    121.8435822693));
#125 = CARTESIAN_POINT('',(-62.39558400411,-12.76770877617,
    123.6693302575));
#126 = CARTESIAN_POINT('',(-61.98572743384,-14.72283079609,
    124.44196298233));
#127 = CARTESIAN_POINT('',(-61.49976456743,-16.68261078023,
    125.17887154119));
#128 = CARTESIAN_POINT('',(-60.93569684864,-18.64338186818,
    125.87722322577));
#129 = CARTESIAN_POINT('',(-60.29178474145,-20.60093411501,
    126.53404329559));
#130 = CARTESIAN_POINT('',(-59.56671022117,-22.55051844681,
    127.14629820135));
#131 = CARTESIAN_POINT('',(-58.32371738508,-25.53326152445,
    128.01617332213));
#132 = CARTESIAN_POINT('',(-57.8637500318,-26.57579076611,
    128.30745426632));
#133 = CARTESIAN_POINT('',(-57.37978148498,-27.61359479295,
    128.58437200633));
#134 = CARTESIAN_POINT('',(-56.87176359747,-28.64578574904,
    128.84645854061));
#135 = CARTESIAN_POINT('',(-56.33971226301,-29.67143687655,
    129.09325843714));
#136 = CARTESIAN_POINT('',(-55.78371802908,-30.68958531137,
    129.32433553759));
#137 = CARTESIAN_POINT('',(-54.02482364558,-33.75268540748,
    129.97643839389));
#138 = CARTESIAN_POINT('',(-52.7471658473,-35.77135502555,
    130.34694430379));
#139 = CARTESIAN_POINT('',(-51.3727012222,-37.74631684763,
    130.64719290227));
#140 = CARTESIAN_POINT('',(-49.90439143478,-39.66882196869,
    130.8742905691));
#141 = CARTESIAN_POINT('',(-48.3465275809,-41.53035414483,
    131.02612473022));
#142 = CARTESIAN_POINT('',(-46.70493151773,-43.32276190755,131.10153058)
  );
#143 = CARTESIAN_POINT('',(-43.25746735681,-46.76630733326,
    131.09957121239));
#144 = CARTESIAN_POINT('',(-41.45002258413,-48.41685280995,
    131.0211215644));
#145 = CARTESIAN_POINT('',(-39.57270098769,-49.98228593336,
    130.86517732789));
#146 = CARTESIAN_POINT('',(-37.63384671947,-51.45669794566,
    130.63295619993));
#147 = CARTESIAN_POINT('',(-35.64216744825,-52.83575752812,
    130.32664635555));
#148 = CARTESIAN_POINT('',(-33.60659672723,-54.11649941279,
    129.94923193737));
#149 = CARTESIAN_POINT('',(-30.52260553275,-55.87531210317,
    129.28664268532));
#150 = CARTESIAN_POINT('',(-29.5005426965,-56.42947084369,
    129.05269063746));
#151 = CARTESIAN_POINT('',(-28.47105038076,-56.959540621,128.80297936824
    ));
#152 = CARTESIAN_POINT('',(-27.43509631801,-57.46543741594,
    128.53795073434));
#153 = CARTESIAN_POINT('',(-26.39361121099,-57.94715205599,
    128.25806550085));
#154 = CARTESIAN_POINT('',(-25.34748595179,-58.40473946307,
    127.96379657479));
#155 = CARTESIAN_POINT('',(-22.35774343568,-59.63936835015,
    127.08623976028));
#156 = CARTESIAN_POINT('',(-20.40500843247,-60.35842314853,
    126.46939965786));
#157 = CARTESIAN_POINT('',(-18.44463283716,-60.99620011663,
    125.80810034426));
#158 = CARTESIAN_POINT('',(-16.48135034063,-61.5540497602,
    125.10538391778));
#159 = CARTESIAN_POINT('',(-14.51935360376,-62.0337380126,
    124.36422967554));
#160 = CARTESIAN_POINT('',(-12.56229095506,-62.43728441518,
    123.58747155248));
#161 = CARTESIAN_POINT('',(-8.153962757069,-63.1826900036,121.7560102477
    ));
#162 = CARTESIAN_POINT('',(-5.707637142313,-63.48070627005,
    120.68185557354));
#163 = CARTESIAN_POINT('',(-3.280288897265,-63.66529562243,
    119.56047612721));
#164 = CARTESIAN_POINT('',(-0.877017879951,-63.74103767531,
    118.39671164499));
#165 = CARTESIAN_POINT('',(1.497935697583,-63.71251699215,
    117.19497451464));
#166 = CARTESIAN_POINT('',(3.841150671544,-63.58415546563,115.9591862644
    ));
#167 = CARTESIAN_POINT('',(7.948494962078,-63.18547990701,
    113.70617633982));
#168 = CARTESIAN_POINT('',(9.726050511582,-62.95282165925,
    112.70106944119));
#169 = CARTESIAN_POINT('',(11.481358918507,-62.6640272624,
    111.67901803931));
#170 = CARTESIAN_POINT('',(13.213264029764,-62.32095055353,
    110.64152712924));
#171 = CARTESIAN_POINT('',(14.920744734549,-61.92534610458,
    109.58998455237));
#172 = CARTESIAN_POINT('',(16.602910483812,-61.47885952961,
    108.52565839026));
#173 = CARTESIAN_POINT('',(19.499724215815,-60.61152118829,
    106.6435823536));
#174 = CARTESIAN_POINT('',(20.725797965448,-60.2123304666,
    105.83095011794));
#175 = CARTESIAN_POINT('',(21.936882582695,-59.78608034929,
    105.01228275066));
#176 = CARTESIAN_POINT('',(23.132663040278,-59.33338265175,
    104.18804367309));
#177 = CARTESIAN_POINT('',(24.312841034823,-58.85481800232,
    103.35867235111));
#178 = CARTESIAN_POINT('',(25.47713474034,-58.35093550063,
    102.52458424751));
#179 = CARTESIAN_POINT('',(29.592500180148,-56.45594271298,
    99.51940513378));
#180 = CARTESIAN_POINT('',(32.451557053413,-54.92412920162,
    97.323969941467));
#181 = CARTESIAN_POINT('',(35.198295043888,-53.23560954985,
    95.10634112034));
#182 = CARTESIAN_POINT('',(37.828245100495,-51.3980265679,
    92.872574601066));
#183 = CARTESIAN_POINT('',(40.336866578526,-49.41818851982,
    90.628344838008));
#184 = CARTESIAN_POINT('',(42.719519771892,-47.30204054406,
    88.378944253446));
#185 = CARTESIAN_POINT('',(47.517797511869,-42.51262052372,
    83.585095373291));
#186 = CARTESIAN_POINT('',(49.896257453639,-39.80332984907,
    81.041220065086));
#187 = CARTESIAN_POINT('',(52.099820973624,-36.93359845868,
    78.504572609869));
#188 = CARTESIAN_POINT('',(54.11973976405,-33.91000949858,
    75.982818734645));
#189 = CARTESIAN_POINT('',(55.94580621673,-30.73910100381,
    73.484331260898));
#190 = CARTESIAN_POINT('',(57.566442026483,-27.42744187063,
    71.018183789439));
#191 = CARTESIAN_POINT('',(59.51205544188,-22.64330654579,67.65330941932
    ));
#192 = CARTESIAN_POINT('',(60.023067597535,-21.28529168127,
    66.718795909233));
#193 = CARTESIAN_POINT('',(60.500219762548,-19.90747999501,
    65.791313983594));
#194 = CARTESIAN_POINT('',(60.942645048984,-18.51031460098,
    64.871518643361));
#195 = CARTESIAN_POINT('',(61.349421242716,-17.09427713914,
    63.960111815577));
#196 = CARTESIAN_POINT('',(61.719572194103,-15.6598886442,
    63.057842092413));
#197 = CARTESIAN_POINT('',(62.496797227841,-12.26536410945,
    60.971967308168));
#198 = CARTESIAN_POINT('',(62.874145969663,-10.29125910009,
    59.79624043258));
#199 = CARTESIAN_POINT('',(63.181672327967,-8.28668888171,
    58.640192144233));
#200 = CARTESIAN_POINT('',(63.416710077589,-6.253233096404,
    57.505945376769));
#201 = CARTESIAN_POINT('',(63.576419450615,-4.192776416827,
    56.395862350467));
#202 = CARTESIAN_POINT('',(63.657822208242,-2.107522069833,
    55.312533798157));
#203 = CARTESIAN_POINT('',(63.657822208242,-2.13162820728E-14,
    54.258772763241));
#204 = ORIENTED_EDGE('',*,*,#205,.F.);
#205 = EDGE_CURVE('',#206,#55,#208,.T.);
#206 = VERTEX_POINT('',#207);
#207 = CARTESIAN_POINT('',(-18.10915358411,-61.02767310624,
    84.887741294264));
#208 = B_SPLINE_CURVE_WITH_KNOTS('',7,(#209,#210,#211,#212,#213,#214,
    #215,#216,#217,#218,#219,#220,#221,#222,#223,#224,#225,#226,#227,
    #228,#229,#230,#231,#232,#233,#234,#235,#236,#237,#238,#239,#240),
  .UNSPECIFIED.,.F.,.F.,(8,6,6,6,6,8),(0.,0.22363983317,0.490640109182,
    0.658742431861,0.789407029467,1.),.UNSPECIFIED.);
#209 = CARTESIAN_POINT('',(-18.10915358411,-61.02767310624,
    84.887741294264));
#210 = CARTESIAN_POINT('',(-15.35908138457,-61.84372060231,
    86.915422594795));
#211 = CARTESIAN_POINT('',(-12.56791281267,-62.51465207393,
    88.944615163932));
#212 = CARTESIAN_POINT('',(-9.740693771517,-63.03934289097,
    90.97166676416));
#213 = CARTESIAN_POINT('',(-6.882565166583,-63.41598746692,
    92.992735646469));
#214 = CARTESIAN_POINT('',(-3.998797643188,-63.64226871338,
    95.003797836554));
#215 = CARTESIAN_POINT('',(-1.094793790555,-63.71534959511,
    97.000644083869));
#216 = CARTESIAN_POINT('',(5.308577731562,-63.53180299983,
    101.34063681008));
#217 = CARTESIAN_POINT('',(8.813289518033,-63.20852937596,
    103.67523629736));
#218 = CARTESIAN_POINT('',(12.329337595926,-62.65602021278,
    105.97562560025));
#219 = CARTESIAN_POINT('',(15.845737063645,-61.86682642899,
    108.23293861494));
#220 = CARTESIAN_POINT('',(19.34924952538,-60.83257947529,
    110.43660179812));
#221 = CARTESIAN_POINT('',(22.824392217205,-59.54437877933,
    112.57441130758));
#222 = CARTESIAN_POINT('',(28.412242938191,-57.01472344877,
    115.92802526939));
#223 = CARTESIAN_POINT('',(30.552362221332,-55.93289908126,
    117.19176632287));
#224 = CARTESIAN_POINT('',(32.669127983536,-54.74420230549,
    118.41999761672));
#225 = CARTESIAN_POINT('',(34.757021202288,-53.44636554174,
    119.60853459257));
#226 = CARTESIAN_POINT('',(36.809656591539,-52.037416174,120.75265500516
    ));
#227 = CARTESIAN_POINT('',(38.819837841498,-50.51586278611,
    121.8471707354));
#228 = CARTESIAN_POINT('',(42.302936761777,-47.61003509231,
    123.69436816242));
#229 = CARTESIAN_POINT('',(43.79571310846,-46.27073196136,
    124.46884388364));
#230 = CARTESIAN_POINT('',(45.254123336469,-44.86268834011,
    125.20726672643));
#231 = CARTESIAN_POINT('',(46.673939113829,-43.3860173014,
    125.90676938012));
#232 = CARTESIAN_POINT('',(48.050586910702,-41.84133748244,
    126.56434128419));
#233 = CARTESIAN_POINT('',(49.379234964315,-40.2299146956,
    127.17691394304));
#234 = CARTESIAN_POINT('',(52.710913785366,-35.85250727019,
    128.65137173624));
#235 = CARTESIAN_POINT('',(54.630741453274,-32.98135761979,
    129.43718156381));
#236 = CARTESIAN_POINT('',(56.391020598635,-29.95163548697,
    130.08499694545));
#237 = CARTESIAN_POINT('',(57.969810924549,-26.77915720794,
    130.58272697014));
#238 = CARTESIAN_POINT('',(59.347572005449,-23.48488938793,
    130.92086243406));
#239 = CARTESIAN_POINT('',(60.508298489534,-20.09567046741,
    131.09338325417));
#240 = CARTESIAN_POINT('',(61.44282414511,-16.64625151105,
    131.10038866401));
#241 = ORIENTED_EDGE('',*,*,#242,.F.);
#242 = EDGE_CURVE('',#24,#206,#243,.T.);
#243 = B_SPLINE_CURVE_WITH_KNOTS('',8,(#244,#245,#246,#247,#248,#249,
    #250,#251,#252),.UNSPECIFIED.,.F.,.F.,(9,9),(0.,1.),
  .PIECEWISE_BEZIER_KNOTS.);
#244 = CARTESIAN_POINT('',(-44.88770419787,-45.1377041966,
    63.689584943668));
#245 = CARTESIAN_POINT('',(-41.9962989257,-48.01309511166,
    66.190684531236));
#246 = CARTESIAN_POINT('',(-38.93923056715,-50.6322195349,
    68.758034087967));
#247 = CARTESIAN_POINT('',(-35.73686327567,-52.99767339403,
    71.37819972613));
#248 = CARTESIAN_POINT('',(-32.40711168644,-55.11024911164,
    74.039090545757));
#249 = CARTESIAN_POINT('',(-28.96610523093,-56.97026177469,
    76.729747605174));
#250 = CARTESIAN_POINT('',(-25.42815408271,-58.5774254553,
    79.440344545665));
#251 = CARTESIAN_POINT('',(-21.8057431493,-59.93075912008,
    82.162174475205));
#252 = CARTESIAN_POINT('',(-18.10915358411,-61.02767310624,
    84.887741294264));
#253 = CYLINDRICAL_SURFACE('',#254,63.657822208242);
#254 = AXIS2_PLACEMENT_3D('',#255,#256,#257);
#255 = CARTESIAN_POINT('',(0.,0.,38.304190218308));
#256 = DIRECTION('',(0.,0.,1.));
#257 = DIRECTION('',(1.,0.,-0.));
#258 = ADVANCED_FACE('',(#259),#288,.F.);
#259 = FACE_BOUND('',#260,.F.);
#260 = EDGE_LOOP('',(#261,#262,#269,#276,#283));
#261 = ORIENTED_EDGE('',*,*,#21,.F.);
#262 = ORIENTED_EDGE('',*,*,#263,.T.);
#263 = EDGE_CURVE('',#22,#264,#266,.T.);
#264 = VERTEX_POINT('',#265);
#265 = CARTESIAN_POINT('',(5.283121635132E-02,-0.197168783649,
    38.304190218308));
#266 = B_SPLINE_CURVE_WITH_KNOTS('',1,(#267,#268),.UNSPECIFIED.,.F.,.F.,
  (2,2),(0.,1.),.PIECEWISE_BEZIER_KNOTS.);
#267 = CARTESIAN_POINT('',(-63.40782220824,-63.65782220824,
    38.304190218308));
#268 = CARTESIAN_POINT('',(63.657822208242,63.407822208242,
    38.304190218308));
#269 = ORIENTED_EDGE('',*,*,#270,.T.);
#270 = EDGE_CURVE('',#264,#271,#273,.T.);
#271 = VERTEX_POINT('',#272);
#272 = CARTESIAN_POINT('',(5.283121635132E-02,-0.197168783649,
    41.343038005166));
#273 = B_SPLINE_CURVE_WITH_KNOTS('',1,(#274,#275),.UNSPECIFIED.,.F.,.F.,
  (2,2),(0.,1.),.PIECEWISE_BEZIER_KNOTS.);
#274 = CARTESIAN_POINT('',(5.283121635133E-02,-0.197168783649,
    -25.25132531242));
#275 = CARTESIAN_POINT('',(5.283121635132E-02,-0.197168783649,
    104.8346193496));
#276 = ORIENTED_EDGE('',*,*,#277,.T.);
#277 = EDGE_CURVE('',#271,#278,#280,.T.);
#278 = VERTEX_POINT('',#279);
#279 = CARTESIAN_POINT('',(-29.82504521421,-30.07504521421,
    71.220914435729));
#280 = B_SPLINE_CURVE_WITH_KNOTS('',1,(#281,#282),.UNSPECIFIED.,.F.,.F.,
  (2,2),(0.,1.),.PIECEWISE_BEZIER_KNOTS.);
#281 = CARTESIAN_POINT('',(0.197168783649,-5.283121635131E-02,
    41.198700437868));
#282 = CARTESIAN_POINT('',(-29.9693827815,-30.2193827815,71.365252003026
    ));
#283 = ORIENTED_EDGE('',*,*,#284,.T.);
#284 = EDGE_CURVE('',#278,#24,#285,.T.);
#285 = B_SPLINE_CURVE_WITH_KNOTS('',1,(#286,#287),.UNSPECIFIED.,.F.,.F.,
  (2,2),(0.,1.),.PIECEWISE_BEZIER_KNOTS.);
#286 = CARTESIAN_POINT('',(9.808674067786,9.558674067786,91.037774076727
    ));
#287 = CARTESIAN_POINT('',(-58.14923158029,-58.39923158029,
    57.058821252685));
#288 = B_SPLINE_SURFACE_WITH_KNOTS('',1,1,(
    (#289,#290)
    ,(#291,#292
    )),.UNSPECIFIED.,.F.,.F.,.F.,(2,2),(2,2),(0.,509.26257766593),(0.,
    509.26257766593),.PIECEWISE_BEZIER_KNOTS.);
#289 = CARTESIAN_POINT('',(-254.5062888329,-254.7562888329,
    86.304190218308));
#290 = CARTESIAN_POINT('',(0.125,-0.125,446.40721229043));
#291 = CARTESIAN_POINT('',(0.125,-0.125,-273.7988318538));
#292 = CARTESIAN_POINT('',(254.75628883296,254.50628883296,
    86.304190218308));
#293 = ADVANCED_FACE('',(#294),#311,.F.);
#294 = FACE_BOUND('',#295,.F.);
#295 = EDGE_LOOP('',(#296,#297,#298,#299,#306));
#296 = ORIENTED_EDGE('',*,*,#205,.F.);
#297 = ORIENTED_EDGE('',*,*,#242,.F.);
#298 = ORIENTED_EDGE('',*,*,#284,.F.);
#299 = ORIENTED_EDGE('',*,*,#300,.T.);
#300 = EDGE_CURVE('',#278,#301,#303,.T.);
#301 = VERTEX_POINT('',#302);
#302 = CARTESIAN_POINT('',(10.98889300107,-41.01110699893,
    101.09879086629));
#303 = B_SPLINE_CURVE_WITH_KNOTS('',1,(#304,#305),.UNSPECIFIED.,.F.,.F.,
  (2,2),(0.,1.),.PIECEWISE_BEZIER_KNOTS.);
#304 = CARTESIAN_POINT('',(-29.82504568741,-30.07504508741,
    71.220914089319));
#305 = CARTESIAN_POINT('',(10.988893474275,-41.01110712572,
    101.0987912127));
#306 = ORIENTED_EDGE('',*,*,#307,.F.);
#307 = EDGE_CURVE('',#55,#301,#308,.T.);
#308 = B_SPLINE_CURVE_WITH_KNOTS('',1,(#309,#310),.UNSPECIFIED.,.F.,.F.,
  (2,2),(0.,1.),.PIECEWISE_BEZIER_KNOTS.);
#309 = CARTESIAN_POINT('',(17.641630633286,-65.83946185178,
    110.18659947661));
#310 = CARTESIAN_POINT('',(-13.61804635419,50.823240893679,
    67.485086597619));
#311 = B_SPLINE_SURFACE_WITH_KNOTS('',1,1,(
    (#312,#313)
    ,(#314,#315
    )),.UNSPECIFIED.,.F.,.F.,.F.,(2,2),(2,2),(0.,509.26257766593),(0.,
    509.26257766593),.PIECEWISE_BEZIER_KNOTS.);
#312 = CARTESIAN_POINT('',(61.385849831325,-339.3078259324,
    190.11264101567));
#313 = CARTESIAN_POINT('',(292.65428261247,107.98656193495,
    266.21136368707));
#314 = CARTESIAN_POINT('',(-292.4571138288,-108.0393931513,
    -93.89165838505));
#315 = CARTESIAN_POINT('',(-61.18868104767,339.2549947161,
    -17.79293571365));
#316 = ADVANCED_FACE('',(#317),#333,.F.);
#317 = FACE_BOUND('',#318,.F.);
#318 = EDGE_LOOP('',(#319,#326,#327,#328));
#319 = ORIENTED_EDGE('',*,*,#320,.T.);
#320 = EDGE_CURVE('',#321,#43,#323,.T.);
#321 = VERTEX_POINT('',#322);
#322 = CARTESIAN_POINT('',(40.866769431633,-11.13323056836,
    71.220914435729));
#323 = B_SPLINE_CURVE_WITH_KNOTS('',1,(#324,#325),.UNSPECIFIED.,.F.,.F.,
  (2,2),(0.,1.),.PIECEWISE_BEZIER_KNOTS.);
#324 = CARTESIAN_POINT('',(7.055395391984,-2.073500199457,
    83.596736271098));
#325 = CARTESIAN_POINT('',(65.880830358652,-17.83572799318,
    62.065132684628));
#326 = ORIENTED_EDGE('',*,*,#54,.F.);
#327 = ORIENTED_EDGE('',*,*,#307,.T.);
#328 = ORIENTED_EDGE('',*,*,#329,.T.);
#329 = EDGE_CURVE('',#301,#321,#330,.T.);
#330 = B_SPLINE_CURVE_WITH_KNOTS('',1,(#331,#332),.UNSPECIFIED.,.F.,.F.,
  (2,2),(0.,1.),.PIECEWISE_BEZIER_KNOTS.);
#331 = CARTESIAN_POINT('',(10.844555433772,-41.15544456622,
    101.24312843358));
#332 = CARTESIAN_POINT('',(41.01110699893,-10.98889300107,
    71.076576868431));
#333 = B_SPLINE_SURFACE_WITH_KNOTS('',1,1,(
    (#334,#335)
    ,(#336,#337
    )),.UNSPECIFIED.,.F.,.F.,.F.,(2,2),(2,2),(0.,509.26257766593),(0.,
    509.26257766593),.PIECEWISE_BEZIER_KNOTS.);
#334 = CARTESIAN_POINT('',(207.83340794568,207.83340794568,
    -121.7457240783));
#335 = CARTESIAN_POINT('',(-254.7034576166,254.55912004931,
    86.15985265101));
#336 = CARTESIAN_POINT('',(254.55912004931,-254.7034576166,
    86.15985265101));
#337 = CARTESIAN_POINT('',(-207.9777455129,-207.9777455129,
    294.06542938034));
#338 = ADVANCED_FACE('',(#339),#354,.F.);
#339 = FACE_BOUND('',#340,.F.);
#340 = EDGE_LOOP('',(#341,#346,#347,#348,#353));
#341 = ORIENTED_EDGE('',*,*,#342,.F.);
#342 = EDGE_CURVE('',#34,#264,#343,.T.);
#343 = B_SPLINE_CURVE_WITH_KNOTS('',1,(#344,#345),.UNSPECIFIED.,.F.,.F.,
  (2,2),(0.,1.),.PIECEWISE_BEZIER_KNOTS.);
#344 = CARTESIAN_POINT('',(63.657822208242,-17.24007475451,
    38.304190218308));
#345 = CARTESIAN_POINT('',(-44.88770419723,11.844611387845,
    38.304190218308));
#346 = ORIENTED_EDGE('',*,*,#42,.T.);
#347 = ORIENTED_EDGE('',*,*,#320,.F.);
#348 = ORIENTED_EDGE('',*,*,#349,.T.);
#349 = EDGE_CURVE('',#321,#271,#350,.T.);
#350 = B_SPLINE_CURVE_WITH_KNOTS('',1,(#351,#352),.UNSPECIFIED.,.F.,.F.,
  (2,2),(0.,1.),.PIECEWISE_BEZIER_KNOTS.);
#351 = CARTESIAN_POINT('',(40.866770378043,-11.13323082195,
    71.220915128549));
#352 = CARTESIAN_POINT('',(5.283026994115E-02,-0.197168530059,
    41.343037312345));
#353 = ORIENTED_EDGE('',*,*,#270,.F.);
#354 = B_SPLINE_SURFACE_WITH_KNOTS('',1,1,(
    (#355,#356)
    ,(#357,#358
    )),.UNSPECIFIED.,.F.,.F.,.F.,(2,2),(2,2),(0.,509.26257766593),(0.,
    509.26257766593),.PIECEWISE_BEZIER_KNOTS.);
#355 = CARTESIAN_POINT('',(-173.9621577475,46.430006980146,
    -225.5541748756));
#356 = CARTESIAN_POINT('',(-301.277802164,80.544131085391,
    266.35570125436));
#357 = CARTESIAN_POINT('',(301.18629581311,-80.88563743633,
    -93.74732081775));
#358 = CARTESIAN_POINT('',(173.87065139663,-46.77151333109,
    398.16255531231));
#359 = ADVANCED_FACE('',(#360),#365,.F.);
#360 = FACE_BOUND('',#361,.F.);
#361 = EDGE_LOOP('',(#362,#363,#364));
#362 = ORIENTED_EDGE('',*,*,#263,.F.);
#363 = ORIENTED_EDGE('',*,*,#33,.T.);
#364 = ORIENTED_EDGE('',*,*,#342,.T.);
#365 = PLANE('',#366);
#366 = AXIS2_PLACEMENT_3D('',#367,#368,#369);
#367 = CARTESIAN_POINT('',(0.,0.,38.304190218308));
#368 = DIRECTION('',(0.,0.,1.));
#369 = DIRECTION('',(1.,0.,-0.));
#370 = ADVANCED_FACE('',(#371),#377,.T.);
#371 = FACE_BOUND('',#372,.T.);
#372 = EDGE_LOOP('',(#373,#374,#375,#376));
#373 = ORIENTED_EDGE('',*,*,#349,.T.);
#374 = ORIENTED_EDGE('',*,*,#277,.T.);
#375 = ORIENTED_EDGE('',*,*,#300,.T.);
#376 = ORIENTED_EDGE('',*,*,#329,.T.);
#377 = B_SPLINE_SURFACE_WITH_KNOTS('',1,1,(
    (#378,#379)
    ,(#380,#381
    )),.UNSPECIFIED.,.F.,.F.,.F.,(2,2),(2,2),(0.,52.25),(0.,52.25),
  .PIECEWISE_BEZIER_KNOTS.);
#378 = CARTESIAN_POINT('',(-4.996003610813E-16,-4.996003610813E-16,
    41.054362870571));
#379 = CARTESIAN_POINT('',(41.208275782579,-11.04172421742,
    71.220914435729));
#380 = CARTESIAN_POINT('',(-30.16655156515,-30.16655156515,
    71.220914435729));
#381 = CARTESIAN_POINT('',(11.041724217421,-41.20827578257,
    101.38746600088));
#382 = ( GEOMETRIC_REPRESENTATION_CONTEXT(3) 
GLOBAL_UNCERTAINTY_ASSIGNED_CONTEXT((#386)) GLOBAL_UNIT_ASSIGNED_CONTEXT
((#383,#384,#385)) REPRESENTATION_CONTEXT('Context #1',
  '3D Context with UNIT and UNCERTAINTY') );
#383 = ( LENGTH_UNIT() NAMED_UNIT(*) SI_UNIT(.MILLI.,.METRE.) );
#384 = ( NAMED_UNIT(*) PLANE_ANGLE_UNIT() SI_UNIT($,.RADIAN.) );
#385 = ( NAMED_UNIT(*) SI_UNIT($,.STERADIAN.) SOLID_ANGLE_UNIT() );
#386 = UNCERTAINTY_MEASURE_WITH_UNIT(LENGTH_MEASURE(5.E-06),#383,
  'distance_accuracy_value','confusion accuracy');
#387 = PRODUCT_RELATED_PRODUCT_CATEGORY('part',$,(#7));
ENDSEC;
END-ISO-10303-21;
