ISO-10303-21;
HEADER;
FILE_DESCRIPTION(('FreeCAD Model'),'2;1');
FILE_NAME('Open CASCADE Shape Model','2026-07-29T09:33:04',('FreeCAD'),(
    'FreeCAD'),'Open CASCADE STEP processor 7.8','FreeCAD','Unknown');
FILE_SCHEMA(('AUTOMOTIVE_DESIGN { 1 0 10303 214 1 1 1 1 }'));
ENDSEC;
DATA;
#1 = APPLICATION_PROTOCOL_DEFINITION('international standard',
  'automotive_design',2000,#2);
#2 = APPLICATION_CONTEXT(
  'core data for automotive mechanical design processes');
#3 = SHAPE_DEFINITION_REPRESENTATION(#4,#10);
#4 = PRODUCT_DEFINITION_SHAPE('','',#5);
#5 = PRODUCT_DEFINITION('design','',#6,#9);
#6 = PRODUCT_DEFINITION_FORMATION('','',#7);
#7 = PRODUCT('Open CASCADE STEP translator 7.8 70',
  'Open CASCADE STEP translator 7.8 70','',(#8));
#8 = PRODUCT_CONTEXT('',#2,'mechanical');
#9 = PRODUCT_DEFINITION_CONTEXT('part definition',#2,'design');
#10 = ADVANCED_BREP_SHAPE_REPRESENTATION('',(#11,#15),#241);
#11 = AXIS2_PLACEMENT_3D('',#12,#13,#14);
#12 = CARTESIAN_POINT('',(0.,0.,0.));
#13 = DIRECTION('',(0.,0.,1.));
#14 = DIRECTION('',(1.,0.,-0.));
#15 = MANIFOLD_SOLID_BREP('',#16);
#16 = CLOSED_SHELL('',(#17,#118,#139,#168,#190,#212,#229));
#17 = ADVANCED_FACE('',(#18),#113,.T.);
#18 = FACE_BOUND('',#19,.T.);
#19 = EDGE_LOOP('',(#20,#31,#41,#73,#105));
#20 = ORIENTED_EDGE('',*,*,#21,.F.);
#21 = EDGE_CURVE('',#22,#24,#26,.T.);
#22 = VERTEX_POINT('',#23);
#23 = CARTESIAN_POINT('',(-61.45508197388,-16.60094057213,
    137.67681599496));
#24 = VERTEX_POINT('',#25);
#25 = CARTESIAN_POINT('',(-16.60094057213,-61.45508197388,
    137.67681599496));
#26 = CIRCLE('',#27,63.657822208242);
#27 = AXIS2_PLACEMENT_3D('',#28,#29,#30);
#28 = CARTESIAN_POINT('',(0.,0.,137.67681599496));
#29 = DIRECTION('',(0.,0.,1.));
#30 = DIRECTION('',(1.,0.,-0.));
#31 = ORIENTED_EDGE('',*,*,#32,.F.);
#32 = EDGE_CURVE('',#33,#22,#35,.T.);
#33 = VERTEX_POINT('',#34);
#34 = CARTESIAN_POINT('',(-62.70764230472,-10.95764230472,
    129.50945829969));
#35 = B_SPLINE_CURVE_WITH_KNOTS('',4,(#36,#37,#38,#39,#40),
  .UNSPECIFIED.,.F.,.F.,(5,5),(0.,1.),.PIECEWISE_BEZIER_KNOTS.);
#36 = CARTESIAN_POINT('',(-62.70764230472,-10.95764230472,
    129.50945829969));
#37 = CARTESIAN_POINT('',(-62.45829970235,-12.3845630132,131.54993396337
    ));
#38 = CARTESIAN_POINT('',(-62.16616868732,-13.80103255346,
    133.59179471179));
#39 = CARTESIAN_POINT('',(-61.8317232306,-15.20665097791,135.63432072095
    ));
#40 = CARTESIAN_POINT('',(-61.45508186324,-16.60094098171,
    137.67681659496));
#41 = ORIENTED_EDGE('',*,*,#42,.T.);
#42 = EDGE_CURVE('',#33,#43,#45,.T.);
#43 = VERTEX_POINT('',#44);
#44 = CARTESIAN_POINT('',(-45.01287775901,-45.01287775901,
    92.872879108138));
#45 = B_SPLINE_CURVE_WITH_KNOTS('',6,(#46,#47,#48,#49,#50,#51,#52,#53,
    #54,#55,#56,#57,#58,#59,#60,#61,#62,#63,#64,#65,#66,#67,#68,#69,#70,
    #71,#72),.UNSPECIFIED.,.F.,.F.,(7,5,5,5,5,7),(0.,0.22570338659,
    0.458153639986,0.701378534484,0.957216641993,1.),.UNSPECIFIED.);
#46 = CARTESIAN_POINT('',(-62.70764230472,-10.95764230472,
    129.50945829969));
#47 = CARTESIAN_POINT('',(-62.39520756245,-12.74562237536,
    128.42821837741));
#48 = CARTESIAN_POINT('',(-62.02962340295,-14.47697556603,
    127.29510187761));
#49 = CARTESIAN_POINT('',(-61.61671882007,-16.15309515779,
    126.11756137769));
#50 = CARTESIAN_POINT('',(-61.1614699616,-17.77567971005,124.90177270605
    ));
#51 = CARTESIAN_POINT('',(-60.66807087034,-19.34681620769,
    123.65270114224));
#52 = CARTESIAN_POINT('',(-59.59591892562,-22.43653443655,
    121.05719898673));
#53 = CARTESIAN_POINT('',(-59.0151293541,-23.95192991129,119.70915243725
    ));
#54 = CARTESIAN_POINT('',(-58.4012698314,-25.41763227019,118.33412043715
    ));
#55 = CARTESIAN_POINT('',(-57.75744320796,-26.83585122575,
    116.93553274803));
#56 = CARTESIAN_POINT('',(-57.08624965004,-28.20870732727,
    115.51616508815));
#57 = CARTESIAN_POINT('',(-55.6610718826,-30.92943299286,112.57348134258
    ));
#58 = CARTESIAN_POINT('',(-54.9047391167,-32.27310611041,111.04849307525
    ));
#59 = CARTESIAN_POINT('',(-54.12326387049,-33.57157964963,109.505703735)
  );
#60 = CARTESIAN_POINT('',(-53.31869524688,-34.82680501426,
    107.94719818513));
#61 = CARTESIAN_POINT('',(-52.49276481324,-36.0405533427,106.37469350902
    ));
#62 = CARTESIAN_POINT('',(-50.75718253673,-38.4492265969,103.12220842849
    ));
#63 = CARTESIAN_POINT('',(-49.84543855,-39.63987236938,101.44093638123)
  );
#64 = CARTESIAN_POINT('',(-48.91336366629,-40.78826302613,
    99.747358258022));
#65 = CARTESIAN_POINT('',(-47.96238504152,-41.89597719931,98.04284577061
    ));
#66 = CARTESIAN_POINT('',(-46.99372252466,-42.96441529788,
    96.328552678443));
#67 = CARTESIAN_POINT('',(-45.84363013968,-44.1671455546,94.317267435998
    ));
#68 = CARTESIAN_POINT('',(-45.67839142923,-44.3383965431,94.028864947616
    ));
#69 = CARTESIAN_POINT('',(-45.51269211113,-44.50858968431,
    93.740220456469));
#70 = CARTESIAN_POINT('',(-45.34653696976,-44.67773061615,
    93.451338434517));
#71 = CARTESIAN_POINT('',(-45.17993067036,-44.84582484767,93.16222323814
    ));
#72 = CARTESIAN_POINT('',(-45.01287775901,-45.01287775901,
    92.872879108138));
#73 = ORIENTED_EDGE('',*,*,#74,.T.);
#74 = EDGE_CURVE('',#43,#75,#77,.T.);
#75 = VERTEX_POINT('',#76);
#76 = CARTESIAN_POINT('',(-10.95764230472,-62.70764230472,
    129.50945829969));
#77 = B_SPLINE_CURVE_WITH_KNOTS('',6,(#78,#79,#80,#81,#82,#83,#84,#85,
    #86,#87,#88,#89,#90,#91,#92,#93,#94,#95,#96,#97,#98,#99,#100,#101,
    #102,#103,#104),.UNSPECIFIED.,.F.,.F.,(7,5,5,5,5,7),(0.,
    0.265412746807,0.515228286264,0.753558753453,0.983264894827,1.),
  .UNSPECIFIED.);
#78 = CARTESIAN_POINT('',(-45.01287775901,-45.01287775901,
    92.872879108138));
#79 = CARTESIAN_POINT('',(-43.97654033668,-46.04921518134,
    94.667868177396));
#80 = CARTESIAN_POINT('',(-42.90013880837,-47.06835321576,96.45402692642
    ));
#81 = CARTESIAN_POINT('',(-41.78236752358,-48.06922954332,
    98.230382101764));
#82 = CARTESIAN_POINT('',(-40.62175872064,-49.05057842672,99.99574191219
    ));
#83 = CARTESIAN_POINT('',(-39.41664882265,-50.01091527585,
    101.74868728131));
#84 = CARTESIAN_POINT('',(-36.98700163759,-51.83094230227,
    105.12420302693));
#85 = CARTESIAN_POINT('',(-35.76780323958,-52.69320373515,
    106.74833163488));
#86 = CARTESIAN_POINT('',(-34.50577987472,-53.53381015035,
    108.35855396434));
#87 = CARTESIAN_POINT('',(-33.19909907797,-54.35100462018,109.9531407362
    ));
#88 = CARTESIAN_POINT('',(-31.84573182043,-55.14270424438,
    111.52998933193));
#89 = CARTESIAN_POINT('',(-29.10528158957,-56.63498882325,
    114.57156237864));
#90 = CARTESIAN_POINT('',(-27.72269084761,-57.33804438483,
    116.03801747063));
#91 = CARTESIAN_POINT('',(-26.29335813173,-58.01342819488,
    117.48378099695));
#92 = CARTESIAN_POINT('',(-24.81505915851,-58.65849741764,
    118.90605692101));
#93 = CARTESIAN_POINT('',(-23.2854552271,-59.27008950104,120.30138114031
    ));
#94 = CARTESIAN_POINT('',(-20.17554521704,-60.39786138515,
    122.98025225085));
#95 = CARTESIAN_POINT('',(-18.59927697401,-60.9166198145,124.26584366389
    ));
#96 = CARTESIAN_POINT('',(-16.97051216527,-61.39727200137,
    125.51859605834));
#97 = CARTESIAN_POINT('',(-15.28701231576,-61.83560351388,126.7335717519
    ));
#98 = CARTESIAN_POINT('',(-13.54687922882,-62.22659289911,
    127.90460610051));
#99 = CARTESIAN_POINT('',(-11.61740481446,-62.58891280871,
    129.10578095294));
#100 = CARTESIAN_POINT('',(-11.48607128066,-62.61323394887,
    129.18707565797));
#101 = CARTESIAN_POINT('',(-11.35442870071,-62.63726982583,
    129.26809380498));
#102 = CARTESIAN_POINT('',(-11.22247662144,-62.66101809585,
    129.34883235823));
#103 = CARTESIAN_POINT('',(-11.09021462018,-62.68447638812,
    129.42928823381));
#104 = CARTESIAN_POINT('',(-10.95764230472,-62.70764230472,
    129.50945829969));
#105 = ORIENTED_EDGE('',*,*,#106,.F.);
#106 = EDGE_CURVE('',#24,#75,#107,.T.);
#107 = B_SPLINE_CURVE_WITH_KNOTS('',4,(#108,#109,#110,#111,#112),
  .UNSPECIFIED.,.F.,.F.,(5,5),(0.,1.),.PIECEWISE_BEZIER_KNOTS.);
#108 = CARTESIAN_POINT('',(-16.60094098171,-61.45508186324,
    137.67681659496));
#109 = CARTESIAN_POINT('',(-15.20665097784,-61.83172323062,
    135.63432072085));
#110 = CARTESIAN_POINT('',(-13.80103255352,-62.16616868731,
    133.59179471186));
#111 = CARTESIAN_POINT('',(-12.3845630131,-62.45829970237,
    131.54993396322));
#112 = CARTESIAN_POINT('',(-10.95764230472,-62.70764230472,
    129.50945829969));
#113 = CYLINDRICAL_SURFACE('',#114,63.657822208242);
#114 = AXIS2_PLACEMENT_3D('',#115,#116,#117);
#115 = CARTESIAN_POINT('',(0.,0.,47.676815994967));
#116 = DIRECTION('',(0.,0.,1.));
#117 = DIRECTION('',(1.,0.,-0.));
#118 = ADVANCED_FACE('',(#119),#134,.T.);
#119 = FACE_BOUND('',#120,.T.);
#120 = EDGE_LOOP('',(#121,#128,#129));
#121 = ORIENTED_EDGE('',*,*,#122,.F.);
#122 = EDGE_CURVE('',#22,#123,#125,.T.);
#123 = VERTEX_POINT('',#124);
#124 = CARTESIAN_POINT('',(-0.183185354155,-0.183185354155,
    137.67681599496));
#125 = B_SPLINE_CURVE_WITH_KNOTS('',1,(#126,#127),.UNSPECIFIED.,.F.,.F.,
  (2,2),(0.,1.),.PIECEWISE_BEZIER_KNOTS.);
#126 = CARTESIAN_POINT('',(-63.65782220824,-17.19116303906,
    137.67681599496));
#127 = CARTESIAN_POINT('',(-0.183185354155,-0.183185354155,
    137.67681599496));
#128 = ORIENTED_EDGE('',*,*,#21,.T.);
#129 = ORIENTED_EDGE('',*,*,#130,.F.);
#130 = EDGE_CURVE('',#123,#24,#131,.T.);
#131 = B_SPLINE_CURVE_WITH_KNOTS('',1,(#132,#133),.UNSPECIFIED.,.F.,.F.,
  (2,2),(0.,1.),.PIECEWISE_BEZIER_KNOTS.);
#132 = CARTESIAN_POINT('',(-0.183185354155,-0.183185354155,
    137.67681599496));
#133 = CARTESIAN_POINT('',(-17.19116303906,-63.65782220824,
    137.67681599496));
#134 = PLANE('',#135);
#135 = AXIS2_PLACEMENT_3D('',#136,#137,#138);
#136 = CARTESIAN_POINT('',(0.,0.,137.67681599496));
#137 = DIRECTION('',(0.,0.,1.));
#138 = DIRECTION('',(1.,0.,-0.));
#139 = ADVANCED_FACE('',(#140),#163,.T.);
#140 = FACE_BOUND('',#141,.T.);
#141 = EDGE_LOOP('',(#142,#149,#156,#161,#162));
#142 = ORIENTED_EDGE('',*,*,#143,.F.);
#143 = EDGE_CURVE('',#144,#75,#146,.T.);
#144 = VERTEX_POINT('',#145);
#145 = CARTESIAN_POINT('',(10.86389300107,-40.88610699893,
    107.68792299389));
#146 = B_SPLINE_CURVE_WITH_KNOTS('',1,(#147,#148),.UNSPECIFIED.,.F.,.F.,
  (2,2),(0.,94.657822208242),.PIECEWISE_BEZIER_KNOTS.);
#147 = CARTESIAN_POINT('',(10.86389300107,-40.88610699893,
    107.68792299389));
#148 = CARTESIAN_POINT('',(-43.78682613176,-95.53682613176,
    162.33864212672));
#149 = ORIENTED_EDGE('',*,*,#150,.T.);
#150 = EDGE_CURVE('',#144,#151,#153,.T.);
#151 = VERTEX_POINT('',#152);
#152 = CARTESIAN_POINT('',(-7.21687836487E-02,-7.21687836487E-02,
    137.56579942446));
#153 = B_SPLINE_CURVE_WITH_KNOTS('',1,(#154,#155),.UNSPECIFIED.,.F.,.F.,
  (2,2),(0.,51.75),.PIECEWISE_BEZIER_KNOTS.);
#154 = CARTESIAN_POINT('',(10.86389300107,-40.88610699893,
    107.68792299389));
#155 = CARTESIAN_POINT('',(-7.21687836487E-02,-7.21687836487E-02,
    137.56579942446));
#156 = ORIENTED_EDGE('',*,*,#157,.T.);
#157 = EDGE_CURVE('',#151,#123,#158,.T.);
#158 = B_SPLINE_CURVE_WITH_KNOTS('',1,(#159,#160),.UNSPECIFIED.,.F.,.F.,
  (2,2),(0.,94.657822208242),.PIECEWISE_BEZIER_KNOTS.);
#159 = CARTESIAN_POINT('',(-7.21687836487E-02,-7.21687836487E-02,
    137.56579942446));
#160 = CARTESIAN_POINT('',(-54.72288791648,-54.72288791648,
    192.21651855729));
#161 = ORIENTED_EDGE('',*,*,#130,.T.);
#162 = ORIENTED_EDGE('',*,*,#106,.T.);
#163 = B_SPLINE_SURFACE_WITH_KNOTS('',1,1,(
    (#164,#165)
    ,(#166,#167
    )),.UNSPECIFIED.,.F.,.F.,.F.,(2,2),(2,2),(0.,94.657822208242),(
    -51.75,0.),.PIECEWISE_BEZIER_KNOTS.);
#164 = CARTESIAN_POINT('',(-7.21687836487E-02,-7.21687836487E-02,
    137.56579942446));
#165 = CARTESIAN_POINT('',(10.86389300107,-40.88610699893,
    107.68792299389));
#166 = CARTESIAN_POINT('',(-54.72288791648,-54.72288791648,
    192.21651855729));
#167 = CARTESIAN_POINT('',(-43.78682613176,-95.53682613176,
    162.33864212672));
#168 = ADVANCED_FACE('',(#169),#185,.F.);
#169 = FACE_BOUND('',#170,.F.);
#170 = EDGE_LOOP('',(#171,#172,#179,#184));
#171 = ORIENTED_EDGE('',*,*,#143,.F.);
#172 = ORIENTED_EDGE('',*,*,#173,.F.);
#173 = EDGE_CURVE('',#174,#144,#176,.T.);
#174 = VERTEX_POINT('',#175);
#175 = CARTESIAN_POINT('',(-29.95004521421,-29.95004521421,
    77.810046563334));
#176 = B_SPLINE_CURVE_WITH_KNOTS('',1,(#177,#178),.UNSPECIFIED.,.F.,.F.,
  (2,2),(0.,51.75),.PIECEWISE_BEZIER_KNOTS.);
#177 = CARTESIAN_POINT('',(-29.95004521421,-29.95004521421,
    77.810046563334));
#178 = CARTESIAN_POINT('',(10.86389300107,-40.88610699893,
    107.68792299389));
#179 = ORIENTED_EDGE('',*,*,#180,.T.);
#180 = EDGE_CURVE('',#174,#43,#181,.T.);
#181 = B_SPLINE_CURVE_WITH_KNOTS('',1,(#182,#183),.UNSPECIFIED.,.F.,.F.,
  (2,2),(0.,94.657822208242),.PIECEWISE_BEZIER_KNOTS.);
#182 = CARTESIAN_POINT('',(-29.95004521421,-29.95004521421,
    77.810046563334));
#183 = CARTESIAN_POINT('',(-84.60076434704,-84.60076434704,
    132.46076569616));
#184 = ORIENTED_EDGE('',*,*,#74,.T.);
#185 = B_SPLINE_SURFACE_WITH_KNOTS('',1,1,(
    (#186,#187)
    ,(#188,#189
    )),.UNSPECIFIED.,.F.,.F.,.F.,(2,2),(2,2),(0.,94.657822208242),(0.,
    51.75),.PIECEWISE_BEZIER_KNOTS.);
#186 = CARTESIAN_POINT('',(-29.95004521421,-29.95004521421,
    77.810046563334));
#187 = CARTESIAN_POINT('',(10.86389300107,-40.88610699893,
    107.68792299389));
#188 = CARTESIAN_POINT('',(-84.60076434704,-84.60076434704,
    132.46076569616));
#189 = CARTESIAN_POINT('',(-43.78682613176,-95.53682613176,
    162.33864212672));
#190 = ADVANCED_FACE('',(#191),#207,.F.);
#191 = FACE_BOUND('',#192,.F.);
#192 = EDGE_LOOP('',(#193,#194,#201,#206));
#193 = ORIENTED_EDGE('',*,*,#180,.F.);
#194 = ORIENTED_EDGE('',*,*,#195,.T.);
#195 = EDGE_CURVE('',#174,#196,#198,.T.);
#196 = VERTEX_POINT('',#197);
#197 = CARTESIAN_POINT('',(-40.88610699893,10.86389300107,
    107.68792299389));
#198 = B_SPLINE_CURVE_WITH_KNOTS('',1,(#199,#200),.UNSPECIFIED.,.F.,.F.,
  (2,2),(0.,51.75),.PIECEWISE_BEZIER_KNOTS.);
#199 = CARTESIAN_POINT('',(-29.95004521421,-29.95004521421,
    77.810046563334));
#200 = CARTESIAN_POINT('',(-40.88610699893,10.86389300107,
    107.68792299389));
#201 = ORIENTED_EDGE('',*,*,#202,.T.);
#202 = EDGE_CURVE('',#196,#33,#203,.T.);
#203 = B_SPLINE_CURVE_WITH_KNOTS('',1,(#204,#205),.UNSPECIFIED.,.F.,.F.,
  (2,2),(0.,94.657822208242),.PIECEWISE_BEZIER_KNOTS.);
#204 = CARTESIAN_POINT('',(-40.88610699893,10.86389300107,
    107.68792299389));
#205 = CARTESIAN_POINT('',(-95.53682613176,-43.78682613176,
    162.33864212672));
#206 = ORIENTED_EDGE('',*,*,#42,.T.);
#207 = B_SPLINE_SURFACE_WITH_KNOTS('',1,1,(
    (#208,#209)
    ,(#210,#211
    )),.UNSPECIFIED.,.F.,.F.,.F.,(2,2),(2,2),(0.,94.657822208242),(
    -51.75,0.),.PIECEWISE_BEZIER_KNOTS.);
#208 = CARTESIAN_POINT('',(-40.88610699893,10.86389300107,
    107.68792299389));
#209 = CARTESIAN_POINT('',(-29.95004521421,-29.95004521421,
    77.810046563334));
#210 = CARTESIAN_POINT('',(-95.53682613176,-43.78682613176,
    162.33864212672));
#211 = CARTESIAN_POINT('',(-84.60076434704,-84.60076434704,
    132.46076569616));
#212 = ADVANCED_FACE('',(#213),#224,.T.);
#213 = FACE_BOUND('',#214,.T.);
#214 = EDGE_LOOP('',(#215,#216,#221,#222,#223));
#215 = ORIENTED_EDGE('',*,*,#157,.F.);
#216 = ORIENTED_EDGE('',*,*,#217,.F.);
#217 = EDGE_CURVE('',#196,#151,#218,.T.);
#218 = B_SPLINE_CURVE_WITH_KNOTS('',1,(#219,#220),.UNSPECIFIED.,.F.,.F.,
  (2,2),(0.,51.75),.PIECEWISE_BEZIER_KNOTS.);
#219 = CARTESIAN_POINT('',(-40.88610699893,10.86389300107,
    107.68792299389));
#220 = CARTESIAN_POINT('',(-7.21687836487E-02,-7.21687836487E-02,
    137.56579942446));
#221 = ORIENTED_EDGE('',*,*,#202,.T.);
#222 = ORIENTED_EDGE('',*,*,#32,.T.);
#223 = ORIENTED_EDGE('',*,*,#122,.T.);
#224 = B_SPLINE_SURFACE_WITH_KNOTS('',1,1,(
    (#225,#226)
    ,(#227,#228
    )),.UNSPECIFIED.,.F.,.F.,.F.,(2,2),(2,2),(0.,94.657822208242),(0.,
    51.75),.PIECEWISE_BEZIER_KNOTS.);
#225 = CARTESIAN_POINT('',(-40.88610699893,10.86389300107,
    107.68792299389));
#226 = CARTESIAN_POINT('',(-7.21687836487E-02,-7.21687836487E-02,
    137.56579942446));
#227 = CARTESIAN_POINT('',(-95.53682613176,-43.78682613176,
    162.33864212672));
#228 = CARTESIAN_POINT('',(-54.72288791648,-54.72288791648,
    192.21651855729));
#229 = ADVANCED_FACE('',(#230),#236,.F.);
#230 = FACE_BOUND('',#231,.F.);
#231 = EDGE_LOOP('',(#232,#233,#234,#235));
#232 = ORIENTED_EDGE('',*,*,#195,.F.);
#233 = ORIENTED_EDGE('',*,*,#173,.T.);
#234 = ORIENTED_EDGE('',*,*,#150,.T.);
#235 = ORIENTED_EDGE('',*,*,#217,.F.);
#236 = B_SPLINE_SURFACE_WITH_KNOTS('',1,1,(
    (#237,#238)
    ,(#239,#240
    )),.UNSPECIFIED.,.F.,.F.,.F.,(2,2),(2,2),(0.,51.75),(0.,51.75),
  .PIECEWISE_BEZIER_KNOTS.);
#237 = CARTESIAN_POINT('',(-29.95004521421,-29.95004521421,
    77.810046563334));
#238 = CARTESIAN_POINT('',(-40.88610699893,10.86389300107,
    107.68792299389));
#239 = CARTESIAN_POINT('',(10.86389300107,-40.88610699893,
    107.68792299389));
#240 = CARTESIAN_POINT('',(-7.21687836487E-02,-7.21687836487E-02,
    137.56579942446));
#241 = ( GEOMETRIC_REPRESENTATION_CONTEXT(3) 
GLOBAL_UNCERTAINTY_ASSIGNED_CONTEXT((#245)) GLOBAL_UNIT_ASSIGNED_CONTEXT
((#242,#243,#244)) REPRESENTATION_CONTEXT('Context #1',
  '3D Context with UNIT and UNCERTAINTY') );
#242 = ( LENGTH_UNIT() NAMED_UNIT(*) SI_UNIT(.MILLI.,.METRE.) );
#243 = ( NAMED_UNIT(*) PLANE_ANGLE_UNIT() SI_UNIT($,.RADIAN.) );
#244 = ( NAMED_UNIT(*) SI_UNIT($,.STERADIAN.) SOLID_ANGLE_UNIT() );
#245 = UNCERTAINTY_MEASURE_WITH_UNIT(LENGTH_MEASURE(2.E-06),#242,
  'distance_accuracy_value','confusion accuracy');
#246 = PRODUCT_RELATED_PRODUCT_CATEGORY('part',$,(#7));
ENDSEC;
END-ISO-10303-21;
