ISO-10303-21;
HEADER;
FILE_DESCRIPTION(('FreeCAD Model'),'2;1');
FILE_NAME('Open CASCADE Shape Model','2026-08-13T22:11:32',('FreeCAD'),(
    'FreeCAD'),'Open CASCADE STEP processor 7.8','FreeCAD','Unknown');
FILE_SCHEMA(('AUTOMOTIVE_DESIGN { 1 0 10303 214 1 1 1 1 }'));
ENDSEC;
DATA;
#1 = APPLICATION_PROTOCOL_DEFINITION('international standard',
  'automotive_design',2000,#2);
#2 = APPLICATION_CONTEXT(
  'core data for automotive mechanical design processes');
#3 = SHAPE_DEFINITION_REPRESENTATION(#4,#10);
#4 = PRODUCT_DEFINITION_SHAPE('','',#5);
#5 = PRODUCT_DEFINITION('design','',#6,#9);
#6 = PRODUCT_DEFINITION_FORMATION('','',#7);
#7 = PRODUCT('Open CASCADE STEP translator 7.8 60',
  'Open CASCADE STEP translator 7.8 60','',(#8));
#8 = PRODUCT_CONTEXT('',#2,'mechanical');
#9 = PRODUCT_DEFINITION_CONTEXT('part definition',#2,'design');
#10 = ADVANCED_BREP_SHAPE_REPRESENTATION('',(#11,#15),#183);
#11 = AXIS2_PLACEMENT_3D('',#12,#13,#14);
#12 = CARTESIAN_POINT('',(0.,0.,0.));
#13 = DIRECTION('',(0.,0.,1.));
#14 = DIRECTION('',(1.,0.,-0.));
#15 = MANIFOLD_SOLID_BREP('',#16);
#16 = CLOSED_SHELL('',(#17,#53,#88,#117,#139,#155,#172));
#17 = ADVANCED_FACE('',(#18),#48,.F.);
#18 = FACE_BOUND('',#19,.F.);
#19 = EDGE_LOOP('',(#20,#29,#36,#43));
#20 = ORIENTED_EDGE('',*,*,#21,.F.);
#21 = EDGE_CURVE('',#22,#24,#26,.T.);
#22 = VERTEX_POINT('',#23);
#23 = CARTESIAN_POINT('',(-5.494446500535,20.505553499465,
    56.281976220447));
#24 = VERTEX_POINT('',#25);
#25 = CARTESIAN_POINT('',(-20.50555349946,5.494446500535,71.293083219377
    ));
#26 = B_SPLINE_CURVE_WITH_KNOTS('',1,(#27,#28),.UNSPECIFIED.,.F.,.F.,(2,
    2),(0.,26.),.PIECEWISE_BEZIER_KNOTS.);
#27 = CARTESIAN_POINT('',(-5.494446500535,20.505553499465,
    56.281976220447));
#28 = CARTESIAN_POINT('',(-20.50555349946,5.494446500535,71.293083219377
    ));
#29 = ORIENTED_EDGE('',*,*,#30,.T.);
#30 = EDGE_CURVE('',#22,#31,#33,.T.);
#31 = VERTEX_POINT('',#32);
#32 = CARTESIAN_POINT('',(-10.98889300107,41.01110699893,71.293083219377
    ));
#33 = B_SPLINE_CURVE_WITH_KNOTS('',1,(#34,#35),.UNSPECIFIED.,.F.,.F.,(2,
    2),(0.,26.),.PIECEWISE_BEZIER_KNOTS.);
#34 = CARTESIAN_POINT('',(-5.494446500535,20.505553499465,
    56.281976220447));
#35 = CARTESIAN_POINT('',(-10.98889300107,41.01110699893,71.293083219377
    ));
#36 = ORIENTED_EDGE('',*,*,#37,.T.);
#37 = EDGE_CURVE('',#31,#38,#40,.T.);
#38 = VERTEX_POINT('',#39);
#39 = CARTESIAN_POINT('',(-26.,26.,86.304190218308));
#40 = B_SPLINE_CURVE_WITH_KNOTS('',1,(#41,#42),.UNSPECIFIED.,.F.,.F.,(2,
    2),(0.,26.),.PIECEWISE_BEZIER_KNOTS.);
#41 = CARTESIAN_POINT('',(-10.98889300107,41.01110699893,71.293083219377
    ));
#42 = CARTESIAN_POINT('',(-26.,26.,86.304190218308));
#43 = ORIENTED_EDGE('',*,*,#44,.F.);
#44 = EDGE_CURVE('',#24,#38,#45,.T.);
#45 = B_SPLINE_CURVE_WITH_KNOTS('',1,(#46,#47),.UNSPECIFIED.,.F.,.F.,(2,
    2),(0.,26.),.PIECEWISE_BEZIER_KNOTS.);
#46 = CARTESIAN_POINT('',(-20.50555349946,5.494446500535,71.293083219377
    ));
#47 = CARTESIAN_POINT('',(-26.,26.,86.304190218308));
#48 = B_SPLINE_SURFACE_WITH_KNOTS('',1,1,(
    (#49,#50)
    ,(#51,#52
  )),.UNSPECIFIED.,.F.,.F.,.F.,(2,2),(2,2),(0.,26.),(-26.,0.),
  .PIECEWISE_BEZIER_KNOTS.);
#49 = CARTESIAN_POINT('',(-10.98889300107,41.01110699893,71.293083219377
    ));
#50 = CARTESIAN_POINT('',(-5.494446500535,20.505553499465,
    56.281976220447));
#51 = CARTESIAN_POINT('',(-26.,26.,86.304190218308));
#52 = CARTESIAN_POINT('',(-20.50555349946,5.494446500535,71.293083219377
    ));
#53 = ADVANCED_FACE('',(#54),#83,.F.);
#54 = FACE_BOUND('',#55,.F.);
#55 = EDGE_LOOP('',(#56,#65,#70,#71,#78));
#56 = ORIENTED_EDGE('',*,*,#57,.F.);
#57 = EDGE_CURVE('',#58,#60,#62,.T.);
#58 = VERTEX_POINT('',#59);
#59 = CARTESIAN_POINT('',(15.01110699893,15.01110699893,71.293083219377)
  );
#60 = VERTEX_POINT('',#61);
#61 = CARTESIAN_POINT('',(3.265986323711,3.265986323711,83.038203894597)
  );
#62 = B_SPLINE_CURVE_WITH_KNOTS('',1,(#63,#64),.UNSPECIFIED.,.F.,.F.,(2,
    2),(0.,20.343145750508),.PIECEWISE_BEZIER_KNOTS.);
#63 = CARTESIAN_POINT('',(15.01110699893,15.01110699893,71.293083219377)
  );
#64 = CARTESIAN_POINT('',(3.265986323711,3.265986323711,83.038203894597)
  );
#65 = ORIENTED_EDGE('',*,*,#66,.F.);
#66 = EDGE_CURVE('',#22,#58,#67,.T.);
#67 = B_SPLINE_CURVE_WITH_KNOTS('',1,(#68,#69),.UNSPECIFIED.,.F.,.F.,(2,
    2),(0.,26.),.PIECEWISE_BEZIER_KNOTS.);
#68 = CARTESIAN_POINT('',(-5.494446500535,20.505553499465,
    56.281976220447));
#69 = CARTESIAN_POINT('',(15.01110699893,15.01110699893,71.293083219377)
  );
#70 = ORIENTED_EDGE('',*,*,#21,.T.);
#71 = ORIENTED_EDGE('',*,*,#72,.T.);
#72 = EDGE_CURVE('',#24,#73,#75,.T.);
#73 = VERTEX_POINT('',#74);
#74 = CARTESIAN_POINT('',(-4.461420286602,1.195433962891,83.038203894597
    ));
#75 = B_SPLINE_CURVE_WITH_KNOTS('',1,(#76,#77),.UNSPECIFIED.,.F.,.F.,(2,
    2),(0.,20.343145750508),.PIECEWISE_BEZIER_KNOTS.);
#76 = CARTESIAN_POINT('',(-20.50555349946,5.494446500535,71.293083219377
    ));
#77 = CARTESIAN_POINT('',(-4.461420286602,1.195433962891,83.038203894597
    ));
#78 = ORIENTED_EDGE('',*,*,#79,.T.);
#79 = EDGE_CURVE('',#73,#60,#80,.T.);
#80 = B_SPLINE_CURVE_WITH_KNOTS('',1,(#81,#82),.UNSPECIFIED.,.F.,.F.,(2,
    2),(0.,8.),.PIECEWISE_BEZIER_KNOTS.);
#81 = CARTESIAN_POINT('',(-4.461420286602,1.195433962891,83.038203894597
    ));
#82 = CARTESIAN_POINT('',(3.265986323711,3.265986323711,83.038203894597)
  );
#83 = B_SPLINE_SURFACE_WITH_KNOTS('',1,1,(
    (#84,#85)
    ,(#86,#87)),.UNSPECIFIED.,.F.,.F.,.F.,(2,2),(2,2),(0.,26.),(0.,26.),
  .PIECEWISE_BEZIER_KNOTS.);
#84 = CARTESIAN_POINT('',(-5.494446500535,20.505553499465,
    56.281976220447));
#85 = CARTESIAN_POINT('',(15.01110699893,15.01110699893,71.293083219377)
  );
#86 = CARTESIAN_POINT('',(-20.50555349946,5.494446500535,71.293083219377
    ));
#87 = CARTESIAN_POINT('',(0.,0.,86.304190218308));
#88 = ADVANCED_FACE('',(#89),#112,.T.);
#89 = FACE_BOUND('',#90,.T.);
#90 = EDGE_LOOP('',(#91,#98,#99,#100,#107));
#91 = ORIENTED_EDGE('',*,*,#92,.F.);
#92 = EDGE_CURVE('',#38,#93,#95,.T.);
#93 = VERTEX_POINT('',#94);
#94 = CARTESIAN_POINT('',(-5.494446500535,20.505553499465,
    101.31529721723));
#95 = B_SPLINE_CURVE_WITH_KNOTS('',1,(#96,#97),.UNSPECIFIED.,.F.,.F.,(2,
    2),(0.,26.),.PIECEWISE_BEZIER_KNOTS.);
#96 = CARTESIAN_POINT('',(-26.,26.,86.304190218308));
#97 = CARTESIAN_POINT('',(-5.494446500535,20.505553499465,
    101.31529721723));
#98 = ORIENTED_EDGE('',*,*,#44,.F.);
#99 = ORIENTED_EDGE('',*,*,#72,.T.);
#100 = ORIENTED_EDGE('',*,*,#101,.T.);
#101 = EDGE_CURVE('',#73,#102,#104,.T.);
#102 = VERTEX_POINT('',#103);
#103 = CARTESIAN_POINT('',(-1.195433962891,4.461420286602,
    89.570176542019));
#104 = B_SPLINE_CURVE_WITH_KNOTS('',1,(#105,#106),.UNSPECIFIED.,.F.,.F.,
  (2,2),(0.,8.),.PIECEWISE_BEZIER_KNOTS.);
#105 = CARTESIAN_POINT('',(-4.461420286602,1.195433962891,
    83.038203894597));
#106 = CARTESIAN_POINT('',(-1.195433962891,4.461420286602,
    89.570176542019));
#107 = ORIENTED_EDGE('',*,*,#108,.T.);
#108 = EDGE_CURVE('',#102,#93,#109,.T.);
#109 = B_SPLINE_CURVE_WITH_KNOTS('',1,(#110,#111),.UNSPECIFIED.,.F.,.F.,
  (2,2),(5.656854249492,26.),.PIECEWISE_BEZIER_KNOTS.);
#110 = CARTESIAN_POINT('',(-1.195433962891,4.461420286602,
    89.570176542019));
#111 = CARTESIAN_POINT('',(-5.494446500535,20.505553499465,
    101.31529721723));
#112 = B_SPLINE_SURFACE_WITH_KNOTS('',1,1,(
    (#113,#114)
    ,(#115,#116
    )),.UNSPECIFIED.,.F.,.F.,.F.,(2,2),(2,2),(0.,26.),(0.,26.),
  .PIECEWISE_BEZIER_KNOTS.);
#113 = CARTESIAN_POINT('',(-20.50555349946,5.494446500535,
    71.293083219377));
#114 = CARTESIAN_POINT('',(-26.,26.,86.304190218308));
#115 = CARTESIAN_POINT('',(0.,0.,86.304190218308));
#116 = CARTESIAN_POINT('',(-5.494446500535,20.505553499465,
    101.31529721723));
#117 = ADVANCED_FACE('',(#118),#134,.T.);
#118 = FACE_BOUND('',#119,.T.);
#119 = EDGE_LOOP('',(#120,#127,#128,#129));
#120 = ORIENTED_EDGE('',*,*,#121,.F.);
#121 = EDGE_CURVE('',#31,#122,#124,.T.);
#122 = VERTEX_POINT('',#123);
#123 = CARTESIAN_POINT('',(9.516660498395,35.516660498395,
    86.304190218308));
#124 = B_SPLINE_CURVE_WITH_KNOTS('',1,(#125,#126),.UNSPECIFIED.,.F.,.F.,
  (2,2),(0.,26.),.PIECEWISE_BEZIER_KNOTS.);
#125 = CARTESIAN_POINT('',(-10.98889300107,41.01110699893,
    71.293083219377));
#126 = CARTESIAN_POINT('',(9.516660498395,35.516660498395,
    86.304190218308));
#127 = ORIENTED_EDGE('',*,*,#37,.T.);
#128 = ORIENTED_EDGE('',*,*,#92,.T.);
#129 = ORIENTED_EDGE('',*,*,#130,.F.);
#130 = EDGE_CURVE('',#122,#93,#131,.T.);
#131 = B_SPLINE_CURVE_WITH_KNOTS('',1,(#132,#133),.UNSPECIFIED.,.F.,.F.,
  (2,2),(0.,26.),.PIECEWISE_BEZIER_KNOTS.);
#132 = CARTESIAN_POINT('',(9.516660498395,35.516660498395,
    86.304190218308));
#133 = CARTESIAN_POINT('',(-5.494446500535,20.505553499465,
    101.31529721723));
#134 = B_SPLINE_SURFACE_WITH_KNOTS('',1,1,(
    (#135,#136)
    ,(#137,#138
    )),.UNSPECIFIED.,.F.,.F.,.F.,(2,2),(2,2),(0.,26.),(0.,26.),
  .PIECEWISE_BEZIER_KNOTS.);
#135 = CARTESIAN_POINT('',(-10.98889300107,41.01110699893,
    71.293083219377));
#136 = CARTESIAN_POINT('',(9.516660498395,35.516660498395,
    86.304190218308));
#137 = CARTESIAN_POINT('',(-26.,26.,86.304190218308));
#138 = CARTESIAN_POINT('',(-5.494446500535,20.505553499465,
    101.31529721723));
#139 = ADVANCED_FACE('',(#140),#150,.F.);
#140 = FACE_BOUND('',#141,.F.);
#141 = EDGE_LOOP('',(#142,#143,#144,#149));
#142 = ORIENTED_EDGE('',*,*,#30,.F.);
#143 = ORIENTED_EDGE('',*,*,#66,.T.);
#144 = ORIENTED_EDGE('',*,*,#145,.T.);
#145 = EDGE_CURVE('',#58,#122,#146,.T.);
#146 = B_SPLINE_CURVE_WITH_KNOTS('',1,(#147,#148),.UNSPECIFIED.,.F.,.F.,
  (2,2),(0.,26.),.PIECEWISE_BEZIER_KNOTS.);
#147 = CARTESIAN_POINT('',(15.01110699893,15.01110699893,71.293083219377
    ));
#148 = CARTESIAN_POINT('',(9.516660498395,35.516660498395,
    86.304190218308));
#149 = ORIENTED_EDGE('',*,*,#121,.F.);
#150 = B_SPLINE_SURFACE_WITH_KNOTS('',1,1,(
    (#151,#152)
    ,(#153,#154
    )),.UNSPECIFIED.,.F.,.F.,.F.,(2,2),(2,2),(0.,26.),(0.,26.),
  .PIECEWISE_BEZIER_KNOTS.);
#151 = CARTESIAN_POINT('',(-5.494446500535,20.505553499465,
    56.281976220447));
#152 = CARTESIAN_POINT('',(-10.98889300107,41.01110699893,
    71.293083219377));
#153 = CARTESIAN_POINT('',(15.01110699893,15.01110699893,71.293083219377
    ));
#154 = CARTESIAN_POINT('',(9.516660498395,35.516660498395,
    86.304190218308));
#155 = ADVANCED_FACE('',(#156),#167,.T.);
#156 = FACE_BOUND('',#157,.T.);
#157 = EDGE_LOOP('',(#158,#159,#160,#161,#162));
#158 = ORIENTED_EDGE('',*,*,#57,.F.);
#159 = ORIENTED_EDGE('',*,*,#145,.T.);
#160 = ORIENTED_EDGE('',*,*,#130,.T.);
#161 = ORIENTED_EDGE('',*,*,#108,.F.);
#162 = ORIENTED_EDGE('',*,*,#163,.T.);
#163 = EDGE_CURVE('',#102,#60,#164,.T.);
#164 = B_SPLINE_CURVE_WITH_KNOTS('',1,(#165,#166),.UNSPECIFIED.,.F.,.F.,
  (2,2),(0.,8.),.PIECEWISE_BEZIER_KNOTS.);
#165 = CARTESIAN_POINT('',(-1.195433962891,4.461420286602,
    89.570176542019));
#166 = CARTESIAN_POINT('',(3.265986323711,3.265986323711,83.038203894597
    ));
#167 = B_SPLINE_SURFACE_WITH_KNOTS('',1,1,(
    (#168,#169)
    ,(#170,#171)),.UNSPECIFIED.,.F.,.F.,.F.,(2,2),(2,2),(0.,26.),(-26.,
    2.601414362266E-16),.PIECEWISE_BEZIER_KNOTS.);
#168 = CARTESIAN_POINT('',(9.516660498395,35.516660498395,
    86.304190218308));
#169 = CARTESIAN_POINT('',(15.01110699893,15.01110699893,71.293083219377
    ));
#170 = CARTESIAN_POINT('',(-5.494446500535,20.505553499465,
    101.31529721723));
#171 = CARTESIAN_POINT('',(5.49743539969E-17,-2.051670822297E-16,
    86.304190218308));
#172 = ADVANCED_FACE('',(#173),#178,.F.);
#173 = FACE_BOUND('',#174,.F.);
#174 = EDGE_LOOP('',(#175,#176,#177));
#175 = ORIENTED_EDGE('',*,*,#101,.T.);
#176 = ORIENTED_EDGE('',*,*,#163,.T.);
#177 = ORIENTED_EDGE('',*,*,#79,.F.);
#178 = B_SPLINE_SURFACE_WITH_KNOTS('',1,1,(
    (#179,#180)
    ,(#181,#182
    )),.UNSPECIFIED.,.F.,.F.,.F.,(2,2),(2,2),(-4.,4.),(-2.309401076759,
    4.618802153517),.PIECEWISE_BEZIER_KNOTS.);
#179 = CARTESIAN_POINT('',(3.265986323711,3.265986323711,83.038203894597
    ));
#180 = CARTESIAN_POINT('',(2.668269342266,5.496696467012,89.570176542019
    ));
#181 = CARTESIAN_POINT('',(-4.461420286602,1.195433962891,
    83.038203894597));
#182 = CARTESIAN_POINT('',(-5.059137268047,3.426144106192,
    89.570176542019));
#183 = ( GEOMETRIC_REPRESENTATION_CONTEXT(3) 
GLOBAL_UNCERTAINTY_ASSIGNED_CONTEXT((#187)) GLOBAL_UNIT_ASSIGNED_CONTEXT
((#184,#185,#186)) REPRESENTATION_CONTEXT('Context #1',
  '3D Context with UNIT and UNCERTAINTY') );
#184 = ( LENGTH_UNIT() NAMED_UNIT(*) SI_UNIT(.MILLI.,.METRE.) );
#185 = ( NAMED_UNIT(*) PLANE_ANGLE_UNIT() SI_UNIT($,.RADIAN.) );
#186 = ( NAMED_UNIT(*) SI_UNIT($,.STERADIAN.) SOLID_ANGLE_UNIT() );
#187 = UNCERTAINTY_MEASURE_WITH_UNIT(LENGTH_MEASURE(1.E-07),#184,
  'distance_accuracy_value','confusion accuracy');
#188 = PRODUCT_RELATED_PRODUCT_CATEGORY('part',$,(#7));
ENDSEC;
END-ISO-10303-21;
