ISO-10303-21;
HEADER;
FILE_DESCRIPTION(('FreeCAD Model'),'2;1');
FILE_NAME('Open CASCADE Shape Model','2026-07-29T09:33:04',('FreeCAD'),(
    'FreeCAD'),'Open CASCADE STEP processor 7.8','FreeCAD','Unknown');
FILE_SCHEMA(('AUTOMOTIVE_DESIGN { 1 0 10303 214 1 1 1 1 }'));
ENDSEC;
DATA;
#1 = APPLICATION_PROTOCOL_DEFINITION('international standard',
  'automotive_design',2000,#2);
#2 = APPLICATION_CONTEXT(
  'core data for automotive mechanical design processes');
#3 = SHAPE_DEFINITION_REPRESENTATION(#4,#10);
#4 = PRODUCT_DEFINITION_SHAPE('','',#5);
#5 = PRODUCT_DEFINITION('design','',#6,#9);
#6 = PRODUCT_DEFINITION_FORMATION('','',#7);
#7 = PRODUCT('Open CASCADE STEP translator 7.8 65',
  'Open CASCADE STEP translator 7.8 65','',(#8));
#8 = PRODUCT_CONTEXT('',#2,'mechanical');
#9 = PRODUCT_DEFINITION_CONTEXT('part definition',#2,'design');
#10 = ADVANCED_BREP_SHAPE_REPRESENTATION('',(#11,#15),#183);
#11 = AXIS2_PLACEMENT_3D('',#12,#13,#14);
#12 = CARTESIAN_POINT('',(0.,0.,0.));
#13 = DIRECTION('',(0.,0.,1.));
#14 = DIRECTION('',(1.,0.,-0.));
#15 = MANIFOLD_SOLID_BREP('',#16);
#16 = CLOSED_SHELL('',(#17,#60,#95,#117,#139,#160,#171));
#17 = ADVANCED_FACE('',(#18),#55,.F.);
#18 = FACE_BOUND('',#19,.F.);
#19 = EDGE_LOOP('',(#20,#29,#36,#43,#50));
#20 = ORIENTED_EDGE('',*,*,#21,.F.);
#21 = EDGE_CURVE('',#22,#24,#26,.T.);
#22 = VERTEX_POINT('',#23);
#23 = CARTESIAN_POINT('',(-3.265986323711,-3.265986323711,
    95.942802318678));
#24 = VERTEX_POINT('',#25);
#25 = CARTESIAN_POINT('',(-15.01110699893,-15.01110699893,
    107.68792299389));
#26 = B_SPLINE_CURVE_WITH_KNOTS('',1,(#27,#28),.UNSPECIFIED.,.F.,.F.,(2,
    2),(5.656854249492,26.),.PIECEWISE_BEZIER_KNOTS.);
#27 = CARTESIAN_POINT('',(-3.265986323711,-3.265986323711,
    95.942802318678));
#28 = CARTESIAN_POINT('',(-15.01110699893,-15.01110699893,
    107.68792299389));
#29 = ORIENTED_EDGE('',*,*,#30,.F.);
#30 = EDGE_CURVE('',#31,#22,#33,.T.);
#31 = VERTEX_POINT('',#32);
#32 = CARTESIAN_POINT('',(-1.195433962891,4.461420286602,95.942802318678
    ));
#33 = B_SPLINE_CURVE_WITH_KNOTS('',1,(#34,#35),.UNSPECIFIED.,.F.,.F.,(2,
    2),(0.,8.),.PIECEWISE_BEZIER_KNOTS.);
#34 = CARTESIAN_POINT('',(-1.195433962891,4.461420286602,95.942802318678
    ));
#35 = CARTESIAN_POINT('',(-3.265986323711,-3.265986323711,
    95.942802318678));
#36 = ORIENTED_EDGE('',*,*,#37,.T.);
#37 = EDGE_CURVE('',#31,#38,#40,.T.);
#38 = VERTEX_POINT('',#39);
#39 = CARTESIAN_POINT('',(-5.494446500535,20.505553499465,
    107.68792299389));
#40 = B_SPLINE_CURVE_WITH_KNOTS('',1,(#41,#42),.UNSPECIFIED.,.F.,.F.,(2,
    2),(5.656854249492,26.),.PIECEWISE_BEZIER_KNOTS.);
#41 = CARTESIAN_POINT('',(-1.195433962891,4.461420286602,95.942802318678
    ));
#42 = CARTESIAN_POINT('',(-5.494446500535,20.505553499465,
    107.68792299389));
#43 = ORIENTED_EDGE('',*,*,#44,.T.);
#44 = EDGE_CURVE('',#38,#45,#47,.T.);
#45 = VERTEX_POINT('',#46);
#46 = CARTESIAN_POINT('',(-20.50555349946,5.494446500535,122.69902999282
    ));
#47 = B_SPLINE_CURVE_WITH_KNOTS('',1,(#48,#49),.UNSPECIFIED.,.F.,.F.,(2,
    2),(0.,26.),.PIECEWISE_BEZIER_KNOTS.);
#48 = CARTESIAN_POINT('',(-5.494446500535,20.505553499465,
    107.68792299389));
#49 = CARTESIAN_POINT('',(-20.50555349946,5.494446500535,122.69902999282
    ));
#50 = ORIENTED_EDGE('',*,*,#51,.F.);
#51 = EDGE_CURVE('',#24,#45,#52,.T.);
#52 = B_SPLINE_CURVE_WITH_KNOTS('',1,(#53,#54),.UNSPECIFIED.,.F.,.F.,(2,
    2),(0.,26.),.PIECEWISE_BEZIER_KNOTS.);
#53 = CARTESIAN_POINT('',(-15.01110699893,-15.01110699893,
    107.68792299389));
#54 = CARTESIAN_POINT('',(-20.50555349946,5.494446500535,122.69902999282
    ));
#55 = B_SPLINE_SURFACE_WITH_KNOTS('',1,1,(
    (#56,#57)
    ,(#58,#59)),.UNSPECIFIED.,.F.,.F.,.F.,(2,2),(2,2),(0.,26.),(-26.,
    2.601414362266E-16),.PIECEWISE_BEZIER_KNOTS.);
#56 = CARTESIAN_POINT('',(-5.494446500535,20.505553499465,
    107.68792299389));
#57 = CARTESIAN_POINT('',(5.49743539969E-17,-2.051670822297E-16,
    92.676815994967));
#58 = CARTESIAN_POINT('',(-20.50555349946,5.494446500535,122.69902999282
    ));
#59 = CARTESIAN_POINT('',(-15.01110699893,-15.01110699893,
    107.68792299389));
#60 = ADVANCED_FACE('',(#61),#90,.F.);
#61 = FACE_BOUND('',#62,.F.);
#62 = EDGE_LOOP('',(#63,#72,#77,#78,#85));
#63 = ORIENTED_EDGE('',*,*,#64,.F.);
#64 = EDGE_CURVE('',#65,#67,#69,.T.);
#65 = VERTEX_POINT('',#66);
#66 = CARTESIAN_POINT('',(4.461420286602,-1.195433962891,95.942802318678
    ));
#67 = VERTEX_POINT('',#68);
#68 = CARTESIAN_POINT('',(20.505553499465,-5.494446500535,
    107.68792299389));
#69 = B_SPLINE_CURVE_WITH_KNOTS('',1,(#70,#71),.UNSPECIFIED.,.F.,.F.,(2,
    2),(5.656854249492,26.),.PIECEWISE_BEZIER_KNOTS.);
#70 = CARTESIAN_POINT('',(4.461420286602,-1.195433962891,95.942802318678
    ));
#71 = CARTESIAN_POINT('',(20.505553499465,-5.494446500535,
    107.68792299389));
#72 = ORIENTED_EDGE('',*,*,#73,.T.);
#73 = EDGE_CURVE('',#65,#22,#74,.T.);
#74 = B_SPLINE_CURVE_WITH_KNOTS('',1,(#75,#76),.UNSPECIFIED.,.F.,.F.,(2,
    2),(0.,8.),.PIECEWISE_BEZIER_KNOTS.);
#75 = CARTESIAN_POINT('',(4.461420286602,-1.195433962891,95.942802318678
    ));
#76 = CARTESIAN_POINT('',(-3.265986323711,-3.265986323711,
    95.942802318678));
#77 = ORIENTED_EDGE('',*,*,#21,.T.);
#78 = ORIENTED_EDGE('',*,*,#79,.T.);
#79 = EDGE_CURVE('',#24,#80,#82,.T.);
#80 = VERTEX_POINT('',#81);
#81 = CARTESIAN_POINT('',(5.494446500535,-20.50555349946,122.69902999282
    ));
#82 = B_SPLINE_CURVE_WITH_KNOTS('',1,(#83,#84),.UNSPECIFIED.,.F.,.F.,(2,
    2),(0.,26.),.PIECEWISE_BEZIER_KNOTS.);
#83 = CARTESIAN_POINT('',(-15.01110699893,-15.01110699893,
    107.68792299389));
#84 = CARTESIAN_POINT('',(5.494446500535,-20.50555349946,122.69902999282
    ));
#85 = ORIENTED_EDGE('',*,*,#86,.F.);
#86 = EDGE_CURVE('',#67,#80,#87,.T.);
#87 = B_SPLINE_CURVE_WITH_KNOTS('',1,(#88,#89),.UNSPECIFIED.,.F.,.F.,(2,
    2),(0.,26.),.PIECEWISE_BEZIER_KNOTS.);
#88 = CARTESIAN_POINT('',(20.505553499465,-5.494446500535,
    107.68792299389));
#89 = CARTESIAN_POINT('',(5.494446500535,-20.50555349946,122.69902999282
    ));
#90 = B_SPLINE_SURFACE_WITH_KNOTS('',1,1,(
    (#91,#92)
    ,(#93,#94
    )),.UNSPECIFIED.,.F.,.F.,.F.,(2,2),(2,2),(0.,26.),(
    -2.601414362266E-16,26.),.PIECEWISE_BEZIER_KNOTS.);
#91 = CARTESIAN_POINT('',(-2.051670822297E-16,5.49743539969E-17,
    92.676815994967));
#92 = CARTESIAN_POINT('',(20.505553499465,-5.494446500535,
    107.68792299389));
#93 = CARTESIAN_POINT('',(-15.01110699893,-15.01110699893,
    107.68792299389));
#94 = CARTESIAN_POINT('',(5.494446500535,-20.50555349946,122.69902999282
    ));
#95 = ADVANCED_FACE('',(#96),#112,.T.);
#96 = FACE_BOUND('',#97,.T.);
#97 = EDGE_LOOP('',(#98,#99,#100,#107));
#98 = ORIENTED_EDGE('',*,*,#51,.F.);
#99 = ORIENTED_EDGE('',*,*,#79,.T.);
#100 = ORIENTED_EDGE('',*,*,#101,.T.);
#101 = EDGE_CURVE('',#80,#102,#104,.T.);
#102 = VERTEX_POINT('',#103);
#103 = CARTESIAN_POINT('',(8.881784197001E-16,-8.881784197001E-16,
    137.71013699175));
#104 = B_SPLINE_CURVE_WITH_KNOTS('',1,(#105,#106),.UNSPECIFIED.,.F.,.F.,
  (2,2),(0.,26.),.PIECEWISE_BEZIER_KNOTS.);
#105 = CARTESIAN_POINT('',(5.494446500535,-20.50555349946,
    122.69902999282));
#106 = CARTESIAN_POINT('',(8.881784197001E-16,-8.881784197001E-16,
    137.71013699175));
#107 = ORIENTED_EDGE('',*,*,#108,.F.);
#108 = EDGE_CURVE('',#45,#102,#109,.T.);
#109 = B_SPLINE_CURVE_WITH_KNOTS('',1,(#110,#111),.UNSPECIFIED.,.F.,.F.,
  (2,2),(0.,26.),.PIECEWISE_BEZIER_KNOTS.);
#110 = CARTESIAN_POINT('',(-20.50555349946,5.494446500535,
    122.69902999282));
#111 = CARTESIAN_POINT('',(8.881784197001E-16,-8.881784197001E-16,
    137.71013699175));
#112 = B_SPLINE_SURFACE_WITH_KNOTS('',1,1,(
    (#113,#114)
    ,(#115,#116
    )),.UNSPECIFIED.,.F.,.F.,.F.,(2,2),(2,2),(0.,26.),(0.,26.),
  .PIECEWISE_BEZIER_KNOTS.);
#113 = CARTESIAN_POINT('',(-15.01110699893,-15.01110699893,
    107.68792299389));
#114 = CARTESIAN_POINT('',(-20.50555349946,5.494446500535,
    122.69902999282));
#115 = CARTESIAN_POINT('',(5.494446500535,-20.50555349946,
    122.69902999282));
#116 = CARTESIAN_POINT('',(8.881784197001E-16,-8.881784197001E-16,
    137.71013699175));
#117 = ADVANCED_FACE('',(#118),#134,.T.);
#118 = FACE_BOUND('',#119,.T.);
#119 = EDGE_LOOP('',(#120,#127,#128,#129));
#120 = ORIENTED_EDGE('',*,*,#121,.F.);
#121 = EDGE_CURVE('',#38,#122,#124,.T.);
#122 = VERTEX_POINT('',#123);
#123 = CARTESIAN_POINT('',(15.01110699893,15.01110699893,122.69902999282
    ));
#124 = B_SPLINE_CURVE_WITH_KNOTS('',1,(#125,#126),.UNSPECIFIED.,.F.,.F.,
  (2,2),(0.,26.),.PIECEWISE_BEZIER_KNOTS.);
#125 = CARTESIAN_POINT('',(-5.494446500535,20.505553499465,
    107.68792299389));
#126 = CARTESIAN_POINT('',(15.01110699893,15.01110699893,122.69902999282
    ));
#127 = ORIENTED_EDGE('',*,*,#44,.T.);
#128 = ORIENTED_EDGE('',*,*,#108,.T.);
#129 = ORIENTED_EDGE('',*,*,#130,.F.);
#130 = EDGE_CURVE('',#122,#102,#131,.T.);
#131 = B_SPLINE_CURVE_WITH_KNOTS('',1,(#132,#133),.UNSPECIFIED.,.F.,.F.,
  (2,2),(0.,26.),.PIECEWISE_BEZIER_KNOTS.);
#132 = CARTESIAN_POINT('',(15.01110699893,15.01110699893,122.69902999282
    ));
#133 = CARTESIAN_POINT('',(8.881784197001E-16,-8.881784197001E-16,
    137.71013699175));
#134 = B_SPLINE_SURFACE_WITH_KNOTS('',1,1,(
    (#135,#136)
    ,(#137,#138
    )),.UNSPECIFIED.,.F.,.F.,.F.,(2,2),(2,2),(0.,26.),(0.,26.),
  .PIECEWISE_BEZIER_KNOTS.);
#135 = CARTESIAN_POINT('',(-5.494446500535,20.505553499465,
    107.68792299389));
#136 = CARTESIAN_POINT('',(15.01110699893,15.01110699893,122.69902999282
    ));
#137 = CARTESIAN_POINT('',(-20.50555349946,5.494446500535,
    122.69902999282));
#138 = CARTESIAN_POINT('',(8.881784197001E-16,-8.881784197001E-16,
    137.71013699175));
#139 = ADVANCED_FACE('',(#140),#155,.F.);
#140 = FACE_BOUND('',#141,.F.);
#141 = EDGE_LOOP('',(#142,#143,#148,#149,#154));
#142 = ORIENTED_EDGE('',*,*,#37,.F.);
#143 = ORIENTED_EDGE('',*,*,#144,.F.);
#144 = EDGE_CURVE('',#65,#31,#145,.T.);
#145 = B_SPLINE_CURVE_WITH_KNOTS('',1,(#146,#147),.UNSPECIFIED.,.F.,.F.,
  (2,2),(0.,8.),.PIECEWISE_BEZIER_KNOTS.);
#146 = CARTESIAN_POINT('',(4.461420286602,-1.195433962891,
    95.942802318678));
#147 = CARTESIAN_POINT('',(-1.195433962891,4.461420286602,
    95.942802318678));
#148 = ORIENTED_EDGE('',*,*,#64,.T.);
#149 = ORIENTED_EDGE('',*,*,#150,.T.);
#150 = EDGE_CURVE('',#67,#122,#151,.T.);
#151 = B_SPLINE_CURVE_WITH_KNOTS('',1,(#152,#153),.UNSPECIFIED.,.F.,.F.,
  (2,2),(0.,26.),.PIECEWISE_BEZIER_KNOTS.);
#152 = CARTESIAN_POINT('',(20.505553499465,-5.494446500535,
    107.68792299389));
#153 = CARTESIAN_POINT('',(15.01110699893,15.01110699893,122.69902999282
    ));
#154 = ORIENTED_EDGE('',*,*,#121,.F.);
#155 = B_SPLINE_SURFACE_WITH_KNOTS('',1,1,(
    (#156,#157)
    ,(#158,#159
    )),.UNSPECIFIED.,.F.,.F.,.F.,(2,2),(2,2),(-2.601414362266E-16,26.),(
    0.,26.),.PIECEWISE_BEZIER_KNOTS.);
#156 = CARTESIAN_POINT('',(-2.051670822297E-16,5.49743539969E-17,
    92.676815994967));
#157 = CARTESIAN_POINT('',(-5.494446500535,20.505553499465,
    107.68792299389));
#158 = CARTESIAN_POINT('',(20.505553499465,-5.494446500535,
    107.68792299389));
#159 = CARTESIAN_POINT('',(15.01110699893,15.01110699893,122.69902999282
    ));
#160 = ADVANCED_FACE('',(#161),#166,.F.);
#161 = FACE_BOUND('',#162,.F.);
#162 = EDGE_LOOP('',(#163,#164,#165));
#163 = ORIENTED_EDGE('',*,*,#144,.T.);
#164 = ORIENTED_EDGE('',*,*,#30,.T.);
#165 = ORIENTED_EDGE('',*,*,#73,.F.);
#166 = B_SPLINE_SURFACE_WITH_KNOTS('',1,1,(
    (#167,#168)
    ,(#169,#170
    )),.UNSPECIFIED.,.F.,.F.,.F.,(2,2),(2,2),(-4.,4.),(-2.309401076759,
    4.618802153517),.PIECEWISE_BEZIER_KNOTS.);
#167 = CARTESIAN_POINT('',(-3.265986323711,-3.265986323711,
    95.942802318678));
#168 = CARTESIAN_POINT('',(-5.059137268047,3.426144106192,
    95.942802318678));
#169 = CARTESIAN_POINT('',(4.461420286602,-1.195433962891,
    95.942802318678));
#170 = CARTESIAN_POINT('',(2.668269342266,5.496696467012,95.942802318678
    ));
#171 = ADVANCED_FACE('',(#172),#178,.T.);
#172 = FACE_BOUND('',#173,.T.);
#173 = EDGE_LOOP('',(#174,#175,#176,#177));
#174 = ORIENTED_EDGE('',*,*,#86,.F.);
#175 = ORIENTED_EDGE('',*,*,#150,.T.);
#176 = ORIENTED_EDGE('',*,*,#130,.T.);
#177 = ORIENTED_EDGE('',*,*,#101,.F.);
#178 = B_SPLINE_SURFACE_WITH_KNOTS('',1,1,(
    (#179,#180)
    ,(#181,#182
    )),.UNSPECIFIED.,.F.,.F.,.F.,(2,2),(2,2),(0.,26.),(-26.,0.),
  .PIECEWISE_BEZIER_KNOTS.);
#179 = CARTESIAN_POINT('',(15.01110699893,15.01110699893,122.69902999282
    ));
#180 = CARTESIAN_POINT('',(20.505553499465,-5.494446500535,
    107.68792299389));
#181 = CARTESIAN_POINT('',(8.881784197001E-16,-8.881784197001E-16,
    137.71013699175));
#182 = CARTESIAN_POINT('',(5.494446500535,-20.50555349946,
    122.69902999282));
#183 = ( GEOMETRIC_REPRESENTATION_CONTEXT(3) 
GLOBAL_UNCERTAINTY_ASSIGNED_CONTEXT((#187)) GLOBAL_UNIT_ASSIGNED_CONTEXT
((#184,#185,#186)) REPRESENTATION_CONTEXT('Context #1',
  '3D Context with UNIT and UNCERTAINTY') );
#184 = ( LENGTH_UNIT() NAMED_UNIT(*) SI_UNIT(.MILLI.,.METRE.) );
#185 = ( NAMED_UNIT(*) PLANE_ANGLE_UNIT() SI_UNIT($,.RADIAN.) );
#186 = ( NAMED_UNIT(*) SI_UNIT($,.STERADIAN.) SOLID_ANGLE_UNIT() );
#187 = UNCERTAINTY_MEASURE_WITH_UNIT(LENGTH_MEASURE(1.E-07),#184,
  'distance_accuracy_value','confusion accuracy');
#188 = PRODUCT_RELATED_PRODUCT_CATEGORY('part',$,(#7));
ENDSEC;
END-ISO-10303-21;
